<?xml version="1.0" encoding="utf-8" ?>
<svg baseProfile="full" height="48.0" version="1.1" viewBox="0 0 48.0 48.0" width="48.0" xmlns="http://www.w3.org/2000/svg" xmlns:ev="http://www.w3.org/2001/xml-events" xmlns:xlink="http://www.w3.org/1999/xlink"><defs /><path d="M24.44 13.3c-0.26-0.21-0.62-0.21-0.88 0l-10 8c-0.23 0.18-0.32 0.5-0.22 0.77 0.1 0.28 0.36 0.47 0.66 0.47h2v9c0 1.1 0.9 2 2 2h4 4 4c1.6 0 2-0.9 2-2v-9h2c0.3 0 0.56-0.19 0.66-0.47 0.1-0.28 0-0.59-0.22-0.78l-10-8ZM26 32.13v-5.8c0-0.28-0.22-0.5-0.5-0.5h-3c-0.28 0-0.5 0.22-0.5 0.5v5.8h4Z" fill="#ffffff" fill-opacity="1.0" /></svg>