<?xml version="1.0" encoding="utf-8" ?>
<svg baseProfile="full" height="24.0" version="1.1" viewBox="0 0 24.0 24.0" width="24.0" xmlns="http://www.w3.org/2000/svg" xmlns:ev="http://www.w3.org/2001/xml-events" xmlns:xlink="http://www.w3.org/1999/xlink"><defs /><path d="M12,4.0492C7.6093,4.0492 4.05,7.6086 4.05,11.9992C4.05,16.3899 7.6093,19.9492 12,19.9492C16.3906,19.9492 19.95,16.3899 19.95,11.9992C19.95,7.6086 16.3906,4.0492 12,4.0492ZM2.4499,11.9992C2.4499,6.7249 6.7256,2.4492 12,2.4492C17.2743,2.4492 21.5499,6.7249 21.5499,11.9992C21.5499,17.2735 17.2743,21.5492 12,21.5492C6.7256,21.5492 2.4499,17.2735 2.4499,11.9992ZM11.2,12.9618V7.7118H12.8V12.9618H11.2ZM13.0937,15.1493C13.0937,15.7534 12.604,16.2431 12,16.2431C11.3959,16.2431 10.9062,15.7534 10.9062,15.1493C10.9062,14.5452 11.3959,14.0556 12,14.0556C12.604,14.0556 13.0937,14.5452 13.0937,15.1493Z" fill="#000000" fill-opacity="1.0" /></svg>