<?xml version="1.0" encoding="utf-8" ?>
<svg baseProfile="full" height="10.0" version="1.1" viewBox="0 0 8.0 10.0" width="8.0" xmlns="http://www.w3.org/2000/svg" xmlns:ev="http://www.w3.org/2001/xml-events" xmlns:xlink="http://www.w3.org/1999/xlink"><defs /><path d="M2.025,1.501C1.174,2.351 1.423,3.778 2.318,4.673C2.483,4.837 2.665,4.98 2.859,5.098C2.607,4.388 2.651,3.572 3.06,2.863C3.389,2.293 3.899,1.891 4.472,1.685C4.633,1.628 4.795,1.592 4.955,1.577C4.061,0.865 2.802,0.724 2.025,1.501ZM4.914,5.004C4.689,4.875 4.705,4.426 4.949,4.002C5.194,3.578 5.575,3.34 5.8,3.47C6.026,3.6 6.01,4.049 5.765,4.473C5.52,4.896 5.139,5.134 4.914,5.004ZM4.72,2.377C5.356,2.148 6.043,2.487 6.311,3.073C6.563,3.623 6.58,4.261 6.266,4.803C5.995,5.272 5.537,5.565 5.028,5.671C4.424,5.797 3.78,5.475 3.559,4.876C3.366,4.351 3.396,3.75 3.696,3.23C3.935,2.818 4.303,2.527 4.72,2.377Z" fill="#000000" fill-opacity="1.0" /><path d="M3.895,6.207C3.363,6.151 2.839,5.954 2.387,5.663V7.952C2.387,8.545 2.868,9.026 3.461,9.026C4.054,9.026 4.534,8.545 4.534,7.952V6.396C4.314,6.364 4.098,6.3 3.895,6.207Z" fill="#000000" fill-opacity="1.0" /></svg>