<?xml version="1.0" encoding="utf-8" ?>
<svg baseProfile="full" height="10.0" version="1.1" viewBox="0 0 8.0 10.0" width="8.0" xmlns="http://www.w3.org/2000/svg" xmlns:ev="http://www.w3.org/2001/xml-events" xmlns:xlink="http://www.w3.org/1999/xlink"><defs /><path d="M5.977,1.501C6.828,2.351 6.579,3.778 5.684,4.673C5.519,4.837 5.337,4.98 5.143,5.098C5.395,4.388 5.351,3.572 4.942,2.863C4.613,2.293 4.103,1.891 3.53,1.685C3.369,1.628 3.207,1.592 3.047,1.577C3.941,0.865 5.2,0.724 5.977,1.501ZM3.088,5.004C3.313,4.875 3.297,4.426 3.052,4.002C2.808,3.578 2.427,3.34 2.202,3.47C1.976,3.6 1.992,4.049 2.237,4.473C2.482,4.896 2.863,5.134 3.088,5.004ZM3.282,2.377C2.646,2.148 1.959,2.487 1.691,3.073C1.439,3.623 1.422,4.261 1.736,4.803C2.007,5.272 2.464,5.565 2.974,5.671C3.578,5.797 4.222,5.475 4.443,4.876C4.636,4.351 4.606,3.75 4.306,3.23C4.067,2.818 3.699,2.527 3.282,2.377Z" fill="#000000" fill-opacity="1.0" /><path d="M4.107,6.207C4.639,6.151 5.162,5.954 5.615,5.663V7.952C5.615,8.545 5.134,9.026 4.541,9.026C3.948,9.026 3.468,8.545 3.468,7.952V6.396C3.688,6.364 3.904,6.3 4.107,6.207Z" fill="#000000" fill-opacity="1.0" /></svg>