<?xml version="1.0" encoding="utf-8" ?>
<svg baseProfile="full" height="44.0" version="1.1" viewBox="0 0 44.0 44.0" width="44.0" xmlns="http://www.w3.org/2000/svg" xmlns:ev="http://www.w3.org/2001/xml-events" xmlns:xlink="http://www.w3.org/1999/xlink"><defs /><path d="M22,22m-22,0a22,22 0,1 1,44 0a22,22 0,1 1,-44 0" fill="#ffffff" fill-opacity="1.0" /><path d="M30.25,19.872L22.379,13.879C22.269,13.795 22.136,13.75 22,13.75C21.864,13.75 21.731,13.795 21.621,13.879L13.75,19.872L14.507,20.963L15.632,20.107V27.91C15.632,28.287 15.775,28.649 16.03,28.916C16.285,29.183 16.631,29.333 16.991,29.333H27.009C27.369,29.333 27.715,29.183 27.97,28.916C28.225,28.649 28.368,28.287 28.369,27.91V20.108L29.493,20.963L30.25,19.872ZM23.83,22.992H20.356V27.868H23.83V22.992Z" fill="#000000" fill-opacity="1.0" /></svg>