<?xml version="1.0" encoding="utf-8" ?>
<svg baseProfile="full" height="10.0" version="1.1" viewBox="0 0 10.0 10.0" width="10.0" xmlns="http://www.w3.org/2000/svg" xmlns:ev="http://www.w3.org/2001/xml-events" xmlns:xlink="http://www.w3.org/1999/xlink"><defs /><path d="M5,10C7.761,10 10,7.761 10,5C10,2.239 7.761,0 5,0C2.239,0 0,2.239 0,5C0,7.761 2.239,10 5,10ZM2.852,2.051V7.952H4.09V5.733H4.934L6.381,7.952H7.869L6.22,5.564C6.585,5.43 6.866,5.218 7.065,4.929C7.263,4.634 7.362,4.289 7.362,3.892C7.362,3.522 7.276,3.2 7.105,2.927C6.939,2.648 6.692,2.434 6.365,2.284C6.043,2.128 5.66,2.051 5.215,2.051H2.852ZM6.051,3.892C6.051,4.487 5.692,4.784 4.974,4.784H4.09V2.999H4.974C5.692,2.999 6.051,3.297 6.051,3.892Z" fill="#000000" fill-opacity="1.0" /></svg>