<?xml version="1.0" encoding="utf-8" ?>
<svg baseProfile="full" height="24.0" version="1.1" viewBox="0 0 24.0 24.0" width="24.0" xmlns="http://www.w3.org/2000/svg" xmlns:ev="http://www.w3.org/2001/xml-events" xmlns:xlink="http://www.w3.org/1999/xlink"><defs /><path d="M16.894,4.106C18.683,5.895 18.184,8.939 16.245,10.878C15.819,11.304 15.339,11.661 14.83,11.939C14.834,11.928 14.838,11.917 14.842,11.906C15.395,10.405 15.312,8.669 14.445,7.167C13.757,5.976 12.692,5.135 11.493,4.704C11.135,4.576 10.776,4.502 10.42,4.476C12.362,2.772 15.194,2.406 16.894,4.106ZM9.195,5.938C9.775,5.726 10.426,5.702 11.054,5.928C11.977,6.259 12.792,6.904 13.319,7.817C13.983,8.967 14.049,10.297 13.622,11.457C13.165,12.701 11.881,13.407 10.619,13.258C10.537,13.248 10.454,13.235 10.372,13.218C9.246,12.983 8.233,12.335 7.634,11.297C6.941,10.097 6.977,8.685 7.535,7.468C7.863,6.75 8.475,6.2 9.195,5.938C9.195,5.938 9.195,5.938 9.195,5.938ZM10.626,11.741C11.124,11.454 11.089,10.461 10.547,9.523C10.006,8.586 9.163,8.059 8.665,8.346C8.167,8.634 8.202,9.627 8.744,10.565C9.285,11.502 10.128,12.029 10.626,11.741Z" fill="#000000" fill-opacity="1.0" /><path d="M12.997,13.886C14.068,13.746 15.124,13.329 16.041,12.717V18.263C16.041,19.479 15.056,20.463 13.84,20.463C12.625,20.463 11.641,19.479 11.641,18.263V14.352C12.111,14.271 12.572,14.114 12.997,13.886Z" fill="#000000" fill-opacity="1.0" /></svg>