<?xml version="1.0" encoding="utf-8" ?>
<svg baseProfile="full" height="24.0" version="1.1" viewBox="0 0 24.0 24.0" width="24.0" xmlns="http://www.w3.org/2000/svg" xmlns:ev="http://www.w3.org/2001/xml-events" xmlns:xlink="http://www.w3.org/1999/xlink"><defs /><path d="M8.107,4.106C6.318,5.895 6.816,8.939 8.755,10.878C9.182,11.304 9.662,11.661 10.171,11.939C10.167,11.928 10.163,11.917 10.158,11.906C9.606,10.405 9.688,8.669 10.556,7.167C11.244,5.976 12.308,5.135 13.508,4.704C13.865,4.576 14.225,4.502 14.58,4.476C12.639,2.772 9.807,2.406 8.107,4.106ZM15.806,5.938C15.225,5.726 14.575,5.702 13.947,5.928C13.024,6.259 12.209,6.904 11.682,7.817C11.018,8.967 10.952,10.297 11.378,11.457C11.836,12.701 13.12,13.407 14.382,13.258C14.464,13.248 14.547,13.235 14.628,13.218C15.755,12.983 16.767,12.335 17.367,11.297C18.06,10.097 18.024,8.685 17.466,7.468C17.137,6.75 16.525,6.2 15.806,5.938C15.806,5.938 15.806,5.938 15.806,5.938ZM14.375,11.741C13.877,11.454 13.912,10.461 14.453,9.523C14.995,8.586 15.838,8.059 16.336,8.346C16.834,8.634 16.799,9.627 16.257,10.565C15.716,11.502 14.873,12.029 14.375,11.741Z" fill="#000000" fill-opacity="1.0" /><path d="M12.004,13.886C10.933,13.746 9.877,13.329 8.96,12.717V18.263C8.96,19.479 9.945,20.463 11.16,20.463C12.375,20.463 13.36,19.479 13.36,18.263V14.352C12.889,14.271 12.429,14.114 12.004,13.886Z" fill="#000000" fill-opacity="1.0" /></svg>