<?xml version="1.0" encoding="utf-8" ?>
<svg baseProfile="full" height="24.0" version="1.1" viewBox="0 0 24.0 24.0" width="24.0" xmlns="http://www.w3.org/2000/svg" xmlns:ev="http://www.w3.org/2001/xml-events" xmlns:xlink="http://www.w3.org/1999/xlink"><defs /><path d="M19,4v14l-10,-0.01V4h10m0,-2H9c-1.1,0 -2,0.9 -2,2v13.99c0,1.1 0.89, 2 2,2L19,20c1.1,0 2,-0.9 2,-2V4c0,-1.1 -0.9,-2 -2,-2z" fill="#000000" fill-opacity="1.0" /><path d="M14,7m-1.5,0a1.5,1.5 0,1 1,3 0a1.5,1.5 0,1 1,-3 0" fill="#000000" fill-opacity="1.0" /><path d="M14,17c1.93,0 3.5,-1.57 3.5,-3.5S15.93,10 14,10s-3.5, 1.57 -3.5,3.5S12.07,17 14,17zM14,12c0.83,0 1.5,0.67 1.5,1.5S14.83,15 14, 15s-1.5,-0.67 -1.5,-1.5 0.67,-1.5 1.5,-1.5zM6,5L4,5v16c0,1.1 0.89,2 2, 2h10v-2L6,21L6,5z" fill="#000000" fill-opacity="1.0" /></svg>