<?xml version="1.0" encoding="utf-8" ?>
<svg baseProfile="full" height="24.0" version="1.1" viewBox="0 0 24.0 24.0" width="24.0" xmlns="http://www.w3.org/2000/svg" xmlns:ev="http://www.w3.org/2001/xml-events" xmlns:xlink="http://www.w3.org/1999/xlink"><defs /><path d="M10.25 12c0 0.97 0.78 1.75 1.75 1.75s1.75-0.78 1.75-1.75-0.78-1.75-1.75-1.75-1.75 0.78-1.75 1.75Z" fill="#5c5c5c" fill-opacity="0.8" /><path d="M17.38 12c0 0.97 0.78 1.75 1.75 1.75 0.96 0 1.75-0.78 1.75-1.75s-0.79-1.75-1.75-1.75c-0.97 0-1.75 0.78-1.75 1.75Z" fill="#5c5c5c" fill-opacity="0.8" /><path d="M3.13 12c0 0.97 0.78 1.75 1.75 1.75 0.96 0 1.75-0.78 1.75-1.75s-0.79-1.75-1.75-1.75c-0.97 0-1.75 0.78-1.75 1.75Z" fill="#5c5c5c" fill-opacity="0.8" /></svg>