<?xml version="1.0" encoding="utf-8" ?>
<svg baseProfile="full" height="42.0" version="1.1" viewBox="0 0 42.0 42.0" width="42.0" xmlns="http://www.w3.org/2000/svg" xmlns:ev="http://www.w3.org/2001/xml-events" xmlns:xlink="http://www.w3.org/1999/xlink"><defs /><path d="M12.145,14.334m-11.053,0a11.053,11.053 0,1 1,22.105 0a11.053,11.053 0,1 1,-22.105 0" fill="#000000" fill-opacity="1.0" /><path d="M11.78,11.764C11.78,13.36 10.487,14.654 8.891,14.654C7.295,14.654 6.001,13.36 6.001,11.764C6.001,10.169 7.295,8.875 8.891,8.875C10.487,8.875 11.78,10.169 11.78,11.764ZM6.736,11.764C6.736,12.266 6.892,12.672 7.084,12.672C7.277,12.672 7.432,12.266 7.432,11.764C7.432,11.263 7.277,10.857 7.084,10.857C6.892,10.857 6.736,11.263 6.736,11.764ZM10.145,12.076C9.973,12.076 9.834,11.937 9.834,11.765C9.834,11.593 9.973,11.453 10.145,11.453C10.317,11.453 10.457,11.593 10.457,11.765C10.457,11.937 10.317,12.076 10.145,12.076ZM11.202,14.217C10.747,14.647 10.143,14.942 9.468,15.032V18.848C9.468,19.326 9.856,19.714 10.335,19.714C10.814,19.714 11.202,19.326 11.202,18.848V14.217ZM12.51,11.764C12.51,13.36 13.804,14.654 15.399,14.654C16.995,14.654 18.289,13.36 18.289,11.764C18.289,10.169 16.995,8.875 15.399,8.875C13.804,8.875 12.51,10.169 12.51,11.764ZM17.554,11.765C17.554,12.266 17.398,12.672 17.206,12.672C17.014,12.672 16.858,12.266 16.858,11.765C16.858,11.263 17.014,10.857 17.206,10.857C17.398,10.857 17.554,11.263 17.554,11.765ZM14.143,12.076C14.315,12.076 14.454,11.936 14.454,11.764C14.454,11.592 14.315,11.453 14.143,11.453C13.971,11.453 13.831,11.592 13.831,11.764C13.831,11.936 13.971,12.076 14.143,12.076ZM13.086,14.215C13.541,14.645 14.144,14.94 14.82,15.03V18.845C14.82,19.324 14.432,19.712 13.953,19.712C13.474,19.712 13.086,19.324 13.086,18.845V14.215Z" fill="#000000" fill-opacity="1.0" /><path d="M21.539,32.087m-6.632,0a6.632,6.632 0,1 1,13.263 0a6.632,6.632 0,1 1,-13.263 0" fill="#000000" fill-opacity="1.0" /><path d="M20.146,28.442C20.218,28.118 20.501,27.877 20.833,27.877H22.231C22.564,27.877 22.847,28.118 22.918,28.442C23,28.812 23.116,29.248 23.233,29.365C23.02,29.152 20.044,29.152 19.832,29.365C19.948,29.248 20.065,28.812 20.146,28.442ZM22.973,30.641H20.082V33.532H22.973V30.641ZM22.228,36.295C22.561,36.295 22.843,36.054 22.915,35.73C22.996,35.36 23.113,34.924 23.229,34.807C23.017,35.02 20.041,35.02 19.829,34.807C19.945,34.924 20.062,35.36 20.143,35.73C20.215,36.054 20.497,36.295 20.83,36.295H22.228ZM19.065,30.384C19.065,29.962 19.407,29.619 19.83,29.619H23.23C23.653,29.619 23.996,29.962 23.996,30.384V30.81C24.181,30.813 24.331,30.964 24.331,31.15V31.745C24.331,31.931 24.181,32.083 23.996,32.085V33.785C23.996,34.208 23.653,34.55 23.23,34.55H19.83C19.407,34.55 19.065,34.208 19.065,33.785V30.384ZM19.83,30.299C19.783,30.299 19.745,30.337 19.745,30.384V33.785C19.745,33.832 19.783,33.87 19.83,33.87H23.23C23.277,33.87 23.316,33.832 23.316,33.785V30.384C23.316,30.337 23.277,30.299 23.23,30.299H19.83Z" fill="#000000" fill-opacity="1.0" /><path d="M40.908,18.696C40.908,23.274 37.196,26.985 32.618,26.985C28.04,26.985 24.329,23.274 24.329,18.696C24.329,14.118 28.04,10.406 32.618,10.406C37.196,10.406 40.908,14.118 40.908,18.696Z" fill="#000000" fill-opacity="1.0" /><path d="M27.852,21.469C27.852,21.689 27.922,21.904 28.076,22.067C28.232,22.233 28.446,22.314 28.67,22.314L37.003,22.314H37.385V21.931V15.923C37.385,15.43 36.992,15.078 36.566,15.078L28.67,15.078C28.446,15.078 28.232,15.16 28.076,15.325C27.922,15.489 27.852,15.704 27.852,15.923L27.852,21.469ZM33.534,20.322H31.685V21.087H33.534V20.322Z" fill="#000000" fill-opacity="1.0" /></svg>