<?xml version="1.0" encoding="utf-8" ?>
<svg baseProfile="full" height="20.0" version="1.1" viewBox="0 0 20.0 20.0" width="20.0" xmlns="http://www.w3.org/2000/svg" xmlns:ev="http://www.w3.org/2001/xml-events" xmlns:xlink="http://www.w3.org/1999/xlink"><defs /><path d="M9.375,2.917C9.375,2.351 9.841,1.854 10.451,1.887C14.58,2.113 17.887,5.42 18.113,9.549C18.146,10.159 17.649,10.625 17.083,10.625H15.171C14.887,13.002 13.002,14.887 10.625,15.171V17.083C10.625,17.649 10.159,18.146 9.549,18.113C5.42,17.887 2.113,14.58 1.887,10.451C1.854,9.841 2.351,9.375 2.917,9.375H4.829C5.113,6.998 6.998,5.113 9.375,4.829V2.917ZM9.375,6.091C7.689,6.358 6.358,7.689 6.091,9.375H7.795C8.01,8.612 8.612,8.01 9.375,7.795V6.091ZM10.625,7.795V6.091C12.311,6.358 13.642,7.689 13.909,9.375H12.205C11.99,8.612 11.388,8.01 10.625,7.795ZM12.205,10.625C11.99,11.388 11.388,11.99 10.625,12.205V13.909C12.311,13.642 13.642,12.311 13.909,10.625H12.205ZM9.375,13.909V12.205C8.612,11.99 8.01,11.388 7.795,10.625H6.091C6.358,12.311 7.689,13.642 9.375,13.909ZM4.829,10.625H3.153C3.45,13.923 6.077,16.55 9.375,16.847V15.171C6.998,14.887 5.113,13.002 4.829,10.625ZM15.171,9.375C14.887,6.998 13.002,5.113 10.625,4.829V3.153C13.923,3.45 16.55,6.077 16.847,9.375H15.171ZM10,8.958C9.425,8.958 8.958,9.425 8.958,10C8.958,10.575 9.425,11.042 10,11.042C10.575,11.042 11.042,10.575 11.042,10C11.042,9.425 10.575,8.958 10,8.958Z" fill="#ffffff" fill-opacity="1.0" /></svg>