<?xml version="1.0" encoding="utf-8" ?>
<svg baseProfile="full" height="24.0" version="1.1" viewBox="0 0 24.0 24.0" width="24.0" xmlns="http://www.w3.org/2000/svg" xmlns:ev="http://www.w3.org/2001/xml-events" xmlns:xlink="http://www.w3.org/1999/xlink"><defs /><path d="M11.201,2.2V9.2H12.801V2.2H11.201ZM5.843,9.218C6.659,7.777 7.954,6.667 9.504,6.083L8.939,4.586C7.039,5.302 5.451,6.663 4.451,8.431C3.45,10.198 3.102,12.26 3.466,14.259C3.831,16.256 4.884,18.063 6.444,19.364C8.003,20.665 9.97,21.378 12.001,21.378C14.032,21.378 15.998,20.665 17.558,19.364C19.117,18.063 20.171,16.256 20.535,14.259C20.899,12.26 20.551,10.198 19.551,8.431C18.551,6.663 16.962,5.302 15.062,4.586L14.497,6.083C16.047,6.667 17.343,7.777 18.158,9.218C18.974,10.66 19.258,12.342 18.961,13.972C18.664,15.601 17.805,17.074 16.533,18.135C15.261,19.197 13.657,19.778 12.001,19.778C10.344,19.778 8.741,19.197 7.469,18.135C6.197,17.074 5.337,15.601 5.04,13.972C4.743,12.342 5.027,10.66 5.843,9.218Z" fill="#ffffff" fill-opacity="1.0" /></svg>