<?xml version="1.0" encoding="utf-8" ?>
<svg baseProfile="full" height="11.0" version="1.1" viewBox="0 0 77.0 11.0" width="77.0" xmlns="http://www.w3.org/2000/svg" xmlns:ev="http://www.w3.org/2001/xml-events" xmlns:xlink="http://www.w3.org/1999/xlink"><defs /><path d="M12.53 9.3c-0.35 0.56-0.8 1-1.35 1.3-0.5 0.3-0.96 0.34-1.46 0.34-0.92 0-1.45-0.38-1.84-0.83C7.5 9.68 7.13 8.8 7.13 7.86c0-0.28 0.02-0.56 0.07-0.84l1.04-6.8h0.83L8.02 7C7.98 7.23 7.96 7.47 7.96 7.7c0 0.7 0.11 1.25 0.48 1.7 0.18 0.2 0.4 0.38 0.64 0.5 0.24 0.1 0.5 0.16 0.76 0.15 0.62 0 1.13-0.26 1.66-0.81 0.54-0.55 0.82-1.32 0.97-2.3L13.5 0.2h0.87l-1.04 6.8c-0.12 0.8-0.43 1.7-0.8 2.3Z" fill="#ffffff" fill-opacity="1.0" /><path d="M12.53 9.3c-0.35 0.56-0.8 1-1.35 1.3-0.5 0.3-0.96 0.34-1.46 0.34-0.92 0-1.45-0.38-1.84-0.83C7.5 9.68 7.13 8.8 7.13 7.86c0-0.28 0.02-0.56 0.07-0.84l1.04-6.8h0.83L8.02 7C7.98 7.23 7.96 7.47 7.96 7.7c0 0.7 0.11 1.25 0.48 1.7 0.18 0.2 0.4 0.38 0.64 0.5 0.24 0.1 0.5 0.16 0.76 0.15 0.62 0 1.13-0.26 1.66-0.81 0.54-0.55 0.82-1.32 0.97-2.3L13.5 0.2h0.87l-1.04 6.8c-0.12 0.8-0.43 1.7-0.8 2.3Z" fill="#000000" fill-opacity="1.0" /><path d="M12.53 9.3c-0.35 0.56-0.8 1-1.35 1.3-0.5 0.3-0.96 0.34-1.46 0.34-0.92 0-1.45-0.38-1.84-0.83C7.5 9.68 7.13 8.8 7.13 7.86c0-0.28 0.02-0.56 0.07-0.84l1.04-6.8h0.83L8.02 7C7.98 7.23 7.96 7.47 7.96 7.7c0 0.7 0.11 1.25 0.48 1.7 0.18 0.2 0.4 0.38 0.64 0.5 0.24 0.1 0.5 0.16 0.76 0.15 0.62 0 1.13-0.26 1.66-0.81 0.54-0.55 0.82-1.32 0.97-2.3L13.5 0.2h0.87l-1.04 6.8c-0.12 0.8-0.43 1.7-0.8 2.3Z" fill="#ffffff" fill-opacity="0.2" /><path d="M19.9 0.89c0.42 0.45 0.63 1.06 0.63 1.84 0 0.7-0.14 1.38-0.43 2-0.27 0.59-0.69 1.09-1.19 1.43C18.4 6.52 17.8 6.7 17.2 6.7h-1.84l-0.63 4.1h-0.87L15.47 0.2h2.71c0.74 0 1.31 0.23 1.73 0.68ZM18.5 5.43c0.36-0.25 0.66-0.62 0.85-1.05 0.2-0.47 0.3-0.99 0.3-1.5 0-0.57-0.15-1.02-0.45-1.33-0.3-0.32-0.71-0.48-1.26-0.48h-1.72L15.5 5.81h1.72c0.45 0.01 0.89-0.12 1.28-0.38Z" fill="#ffffff" fill-opacity="1.0" /><path d="M19.9 0.89c0.42 0.45 0.63 1.06 0.63 1.84 0 0.7-0.14 1.38-0.43 2-0.27 0.59-0.69 1.09-1.19 1.43C18.4 6.52 17.8 6.7 17.2 6.7h-1.84l-0.63 4.1h-0.87L15.47 0.2h2.71c0.74 0 1.31 0.23 1.73 0.68ZM18.5 5.43c0.36-0.25 0.66-0.62 0.85-1.05 0.2-0.47 0.3-0.99 0.3-1.5 0-0.57-0.15-1.02-0.45-1.33-0.3-0.32-0.71-0.48-1.26-0.48h-1.72L15.5 5.81h1.72c0.45 0.01 0.89-0.12 1.28-0.38Z" fill="#000000" fill-opacity="1.0" /><path d="M19.9 0.89c0.42 0.45 0.63 1.06 0.63 1.84 0 0.7-0.14 1.38-0.43 2-0.27 0.59-0.69 1.09-1.19 1.43C18.4 6.52 17.8 6.7 17.2 6.7h-1.84l-0.63 4.1h-0.87L15.47 0.2h2.71c0.74 0 1.31 0.23 1.73 0.68ZM18.5 5.43c0.36-0.25 0.66-0.62 0.85-1.05 0.2-0.47 0.3-0.99 0.3-1.5 0-0.57-0.15-1.02-0.45-1.33-0.3-0.32-0.71-0.48-1.26-0.48h-1.72L15.5 5.81h1.72c0.45 0.01 0.89-0.12 1.28-0.38Z" fill="#ffffff" fill-opacity="0.2" /><path d="M22.45 1.1L21.89 4.8h3.99l-0.14 0.89h-3.99L21.11 9.9h4.24l-0.13 0.89H20.1L21.72 0.2h5.12l-0.14 0.9h-4.25Z" fill="#ffffff" fill-opacity="1.0" /><path d="M22.45 1.1L21.89 4.8h3.99l-0.14 0.89h-3.99L21.11 9.9h4.24l-0.13 0.89H20.1L21.72 0.2h5.12l-0.14 0.9h-4.25Z" fill="#000000" fill-opacity="1.0" /><path d="M22.45 1.1L21.89 4.8h3.99l-0.14 0.89h-3.99L21.11 9.9h4.24l-0.13 0.89H20.1L21.72 0.2h5.12l-0.14 0.9h-4.25Z" fill="#ffffff" fill-opacity="0.2" /><path d="M32.9 4.32c-0.24 0.53-0.58 0.99-1.01 1.32C31.45 6 30.93 6.18 30.4 6.21l2.25 4.58h-1.07l-2.14-4.56h-1.67l-0.7 4.56h-0.86L27.82 0.2h3.3c0.68 0 1.2 0.21 1.57 0.63 0.37 0.42 0.55 0.98 0.55 1.7 0 0.62-0.11 1.23-0.35 1.78Zm-5 1.04h2.32c0.4 0.02 0.8-0.1 1.15-0.36 0.31-0.24 0.57-0.58 0.73-0.97 0.17-0.43 0.26-0.89 0.26-1.35 0-0.51-0.13-0.9-0.38-1.18-0.25-0.28-0.62-0.42-1.1-0.42h-2.31L27.9 5.36Z" fill="#ffffff" fill-opacity="1.0" /><path d="M32.9 4.32c-0.24 0.53-0.58 0.99-1.01 1.32C31.45 6 30.93 6.18 30.4 6.21l2.25 4.58h-1.07l-2.14-4.56h-1.67l-0.7 4.56h-0.86L27.82 0.2h3.3c0.68 0 1.2 0.21 1.57 0.63 0.37 0.42 0.55 0.98 0.55 1.7 0 0.62-0.11 1.23-0.35 1.78Zm-5 1.04h2.32c0.4 0.02 0.8-0.1 1.15-0.36 0.31-0.24 0.57-0.58 0.73-0.97 0.17-0.43 0.26-0.89 0.26-1.35 0-0.51-0.13-0.9-0.38-1.18-0.25-0.28-0.62-0.42-1.1-0.42h-2.31L27.9 5.36Z" fill="#000000" fill-opacity="1.0" /><path d="M32.9 4.32c-0.24 0.53-0.58 0.99-1.01 1.32C31.45 6 30.93 6.18 30.4 6.21l2.25 4.58h-1.07l-2.14-4.56h-1.67l-0.7 4.56h-0.86L27.82 0.2h3.3c0.68 0 1.2 0.21 1.57 0.63 0.37 0.42 0.55 0.98 0.55 1.7 0 0.62-0.11 1.23-0.35 1.78Zm-5 1.04h2.32c0.4 0.02 0.8-0.1 1.15-0.36 0.31-0.24 0.57-0.58 0.73-0.97 0.17-0.43 0.26-0.89 0.26-1.35 0-0.51-0.13-0.9-0.38-1.18-0.25-0.28-0.62-0.42-1.1-0.42h-2.31L27.9 5.36Z" fill="#ffffff" fill-opacity="0.2" /><path d="M49.46 7.55c-0.43 1-1.08 1.87-1.88 2.5-0.82 0.64-1.78 0.97-2.76 0.95-0.74 0-1.39-0.17-1.93-0.52-0.54-0.34-0.98-0.86-1.26-1.48-0.3-0.64-0.44-1.39-0.44-2.24 0-1.15 0.23-2.28 0.67-3.3 0.42-1.02 1.07-1.88 1.88-2.5 0.81-0.64 1.78-0.98 2.76-0.96 0.74 0 1.38 0.17 1.93 0.52 0.54 0.34 0.98 0.86 1.26 1.48 0.3 0.64 0.44 1.39 0.44 2.24 0 1.15-0.22 2.28-0.67 3.3Zm-5.69 0.82c0.33 0.46 0.78 0.7 1.35 0.7 0.58 0 1.15-0.25 1.57-0.7 0.46-0.5 0.8-1.1 1.01-1.77 0.22-0.66 0.34-1.36 0.35-2.07 0-0.8-0.17-1.43-0.5-1.9-0.32-0.46-0.77-0.7-1.34-0.7-0.58 0-1.15 0.25-1.57 0.71-0.46 0.49-0.8 1.1-1.02 1.77-0.22 0.66-0.34 1.36-0.34 2.07 0 0.8 0.16 1.43 0.5 1.89Z" fill="#ffffff" fill-opacity="1.0" /><path d="M49.46 7.55c-0.43 1-1.08 1.87-1.88 2.5-0.82 0.64-1.78 0.97-2.76 0.95-0.74 0-1.39-0.17-1.93-0.52-0.54-0.34-0.98-0.86-1.26-1.48-0.3-0.64-0.44-1.39-0.44-2.24 0-1.15 0.23-2.28 0.67-3.3 0.42-1.02 1.07-1.88 1.88-2.5 0.81-0.64 1.78-0.98 2.76-0.96 0.74 0 1.38 0.17 1.93 0.52 0.54 0.34 0.98 0.86 1.26 1.48 0.3 0.64 0.44 1.39 0.44 2.24 0 1.15-0.22 2.28-0.67 3.3Zm-5.69 0.82c0.33 0.46 0.78 0.7 1.35 0.7 0.58 0 1.15-0.25 1.57-0.7 0.46-0.5 0.8-1.1 1.01-1.77 0.22-0.66 0.34-1.36 0.35-2.07 0-0.8-0.17-1.43-0.5-1.9-0.32-0.46-0.77-0.7-1.34-0.7-0.58 0-1.15 0.25-1.57 0.71-0.46 0.49-0.8 1.1-1.02 1.77-0.22 0.66-0.34 1.36-0.34 2.07 0 0.8 0.16 1.43 0.5 1.89Z" fill="#000000" fill-opacity="1.0" /><path d="M49.46 7.55c-0.43 1-1.08 1.87-1.88 2.5-0.82 0.64-1.78 0.97-2.76 0.95-0.74 0-1.39-0.17-1.93-0.52-0.54-0.34-0.98-0.86-1.26-1.48-0.3-0.64-0.44-1.39-0.44-2.24 0-1.15 0.23-2.28 0.67-3.3 0.42-1.02 1.07-1.88 1.88-2.5 0.81-0.64 1.78-0.98 2.76-0.96 0.74 0 1.38 0.17 1.93 0.52 0.54 0.34 0.98 0.86 1.26 1.48 0.3 0.64 0.44 1.39 0.44 2.24 0 1.15-0.22 2.28-0.67 3.3Zm-5.69 0.82c0.33 0.46 0.78 0.7 1.35 0.7 0.58 0 1.15-0.25 1.57-0.7 0.46-0.5 0.8-1.1 1.01-1.77 0.22-0.66 0.34-1.36 0.35-2.07 0-0.8-0.17-1.43-0.5-1.9-0.32-0.46-0.77-0.7-1.34-0.7-0.58 0-1.15 0.25-1.57 0.71-0.46 0.49-0.8 1.1-1.02 1.77-0.22 0.66-0.34 1.36-0.34 2.07 0 0.8 0.16 1.43 0.5 1.89Z" fill="#ffffff" fill-opacity="0.2" /><path d="M58.64 7.55c-0.42 1-1.07 1.87-1.88 2.5C55.95 10.7 55 11.02 54.01 11c-0.75 0-1.4-0.17-1.94-0.52-0.54-0.34-0.98-0.86-1.26-1.48-0.29-0.64-0.43-1.4-0.43-2.24 0-1.15 0.22-2.28 0.66-3.3 0.43-1.02 1.08-1.88 1.88-2.5C53.74 0.31 54.7-0.02 55.7 0c0.73 0 1.37 0.17 1.92 0.52 0.54 0.34 0.98 0.86 1.26 1.48 0.3 0.64 0.45 1.39 0.45 2.24 0 1.15-0.23 2.28-0.68 3.3Zm-5.69 0.82c0.33 0.46 0.78 0.7 1.35 0.7 0.58 0 1.15-0.25 1.57-0.7 0.46-0.5 0.8-1.1 1.02-1.77 0.22-0.66 0.33-1.36 0.34-2.07 0-0.8-0.16-1.43-0.5-1.9-0.32-0.46-0.77-0.7-1.34-0.7-0.58 0-1.15 0.25-1.57 0.7-0.46 0.5-0.8 1.1-1.01 1.77-0.22 0.67-0.34 1.37-0.35 2.08 0 0.8 0.17 1.43 0.5 1.89Z" fill="#ffffff" fill-opacity="1.0" /><path d="M58.64 7.55c-0.42 1-1.07 1.87-1.88 2.5C55.95 10.7 55 11.02 54.01 11c-0.75 0-1.4-0.17-1.94-0.52-0.54-0.34-0.98-0.86-1.26-1.48-0.29-0.64-0.43-1.4-0.43-2.24 0-1.15 0.22-2.28 0.66-3.3 0.43-1.02 1.08-1.88 1.88-2.5C53.74 0.31 54.7-0.02 55.7 0c0.73 0 1.37 0.17 1.92 0.52 0.54 0.34 0.98 0.86 1.26 1.48 0.3 0.64 0.45 1.39 0.45 2.24 0 1.15-0.23 2.28-0.68 3.3Zm-5.69 0.82c0.33 0.46 0.78 0.7 1.35 0.7 0.58 0 1.15-0.25 1.57-0.7 0.46-0.5 0.8-1.1 1.02-1.77 0.22-0.66 0.33-1.36 0.34-2.07 0-0.8-0.16-1.43-0.5-1.9-0.32-0.46-0.77-0.7-1.34-0.7-0.58 0-1.15 0.25-1.57 0.7-0.46 0.5-0.8 1.1-1.01 1.77-0.22 0.67-0.34 1.37-0.35 2.08 0 0.8 0.17 1.43 0.5 1.89Z" fill="#000000" fill-opacity="1.0" /><path d="M58.64 7.55c-0.42 1-1.07 1.87-1.88 2.5C55.95 10.7 55 11.02 54.01 11c-0.75 0-1.4-0.17-1.94-0.52-0.54-0.34-0.98-0.86-1.26-1.48-0.29-0.64-0.43-1.4-0.43-2.24 0-1.15 0.22-2.28 0.66-3.3 0.43-1.02 1.08-1.88 1.88-2.5C53.74 0.31 54.7-0.02 55.7 0c0.73 0 1.37 0.17 1.92 0.52 0.54 0.34 0.98 0.86 1.26 1.48 0.3 0.64 0.45 1.39 0.45 2.24 0 1.15-0.23 2.28-0.68 3.3Zm-5.69 0.82c0.33 0.46 0.78 0.7 1.35 0.7 0.58 0 1.15-0.25 1.57-0.7 0.46-0.5 0.8-1.1 1.02-1.77 0.22-0.66 0.33-1.36 0.34-2.07 0-0.8-0.16-1.43-0.5-1.9-0.32-0.46-0.77-0.7-1.34-0.7-0.58 0-1.15 0.25-1.57 0.7-0.46 0.5-0.8 1.1-1.01 1.77-0.22 0.67-0.34 1.37-0.35 2.08 0 0.8 0.17 1.43 0.5 1.89Z" fill="#ffffff" fill-opacity="0.2" /><path d="M39.75 0.21l-1.3 3.56 1.58-0.3-4.14 6.34 1.3-4.7-1.54 0.34 1.23-5.24H34l1.38 10.63h2.63L42.63 0.2h-2.88Z" fill="#ffffff" fill-opacity="1.0" /><path d="M39.75 0.21l-1.3 3.56 1.58-0.3-4.14 6.34 1.3-4.7-1.54 0.34 1.23-5.24H34l1.38 10.63h2.63L42.63 0.2h-2.88Z" fill="#000000" fill-opacity="1.0" /><path d="M39.75 0.21l-1.3 3.56 1.58-0.3-4.14 6.34 1.3-4.7-1.54 0.34 1.23-5.24H34l1.38 10.63h2.63L42.63 0.2h-2.88Z" fill="#ffffff" fill-opacity="0.2" /><path d="M62.99 2.64c0.43-0.46 1-0.72 1.59-0.7 0.46 0 0.83 0.13 1.1 0.4 0.27 0.27 0.43 0.68 0.48 1.21h2.03c-0.05-1.15-0.5-2.31-1.13-2.86C66.53 0.23 65.81 0 64.91 0c-0.99-0.02-1.96 0.31-2.78 0.94-0.82 0.63-1.47 1.49-1.9 2.5-0.45 1.02-0.68 2.15-0.68 3.3 0 0.86 0.15 1.6 0.44 2.25 0.29 0.63 0.73 1.15 1.28 1.49 0.56 0.35 1.21 0.52 1.96 0.52 0.9 0 1.71-0.18 2.37-0.69 1.6-1.24 1.97-2.86 1.97-2.86h-2c-0.46 1.08-1.16 1.62-2.1 1.62-0.57 0-1.02-0.24-1.35-0.7-0.32-0.46-0.49-1.1-0.49-1.9 0-0.71 0.12-1.42 0.35-2.08 0.2-0.67 0.56-1.27 1.01-1.75Z" fill="#ffffff" fill-opacity="1.0" /><path d="M62.99 2.64c0.43-0.46 1-0.72 1.59-0.7 0.46 0 0.83 0.13 1.1 0.4 0.27 0.27 0.43 0.68 0.48 1.21h2.03c-0.05-1.15-0.5-2.31-1.13-2.86C66.53 0.23 65.81 0 64.91 0c-0.99-0.02-1.96 0.31-2.78 0.94-0.82 0.63-1.47 1.49-1.9 2.5-0.45 1.02-0.68 2.15-0.68 3.3 0 0.86 0.15 1.6 0.44 2.25 0.29 0.63 0.73 1.15 1.28 1.49 0.56 0.35 1.21 0.52 1.96 0.52 0.9 0 1.71-0.18 2.37-0.69 1.6-1.24 1.97-2.86 1.97-2.86h-2c-0.46 1.08-1.16 1.62-2.1 1.62-0.57 0-1.02-0.24-1.35-0.7-0.32-0.46-0.49-1.1-0.49-1.9 0-0.71 0.12-1.42 0.35-2.08 0.2-0.67 0.56-1.27 1.01-1.75Z" fill="#000000" fill-opacity="1.0" /><path d="M62.99 2.64c0.43-0.46 1-0.72 1.59-0.7 0.46 0 0.83 0.13 1.1 0.4 0.27 0.27 0.43 0.68 0.48 1.21h2.03c-0.05-1.15-0.5-2.31-1.13-2.86C66.53 0.23 65.81 0 64.91 0c-0.99-0.02-1.96 0.31-2.78 0.94-0.82 0.63-1.47 1.49-1.9 2.5-0.45 1.02-0.68 2.15-0.68 3.3 0 0.86 0.15 1.6 0.44 2.25 0.29 0.63 0.73 1.15 1.28 1.49 0.56 0.35 1.21 0.52 1.96 0.52 0.9 0 1.71-0.18 2.37-0.69 1.6-1.24 1.97-2.86 1.97-2.86h-2c-0.46 1.08-1.16 1.62-2.1 1.62-0.57 0-1.02-0.24-1.35-0.7-0.32-0.46-0.49-1.1-0.49-1.9 0-0.71 0.12-1.42 0.35-2.08 0.2-0.67 0.56-1.27 1.01-1.75Z" fill="#ffffff" fill-opacity="0.2" /><path d="M3.85 4.79C3.22 4.6 2.76 4.39 2.5 4.14 2.37 4.02 2.26 3.87 2.2 3.7 2.12 3.53 2.1 3.34 2.1 3.15c0-0.72 0.21-1.27 0.63-1.64 0.41-0.37 0.95-0.56 1.62-0.56 0.89 0 1.45 0.36 1.68 1.09h0.89c-0.04-0.3-0.13-0.57-0.26-0.82S6.34 0.75 6.13 0.58c-0.44-0.35-1-0.53-1.67-0.53-0.56 0-1.12 0.13-1.63 0.4-0.48 0.24-0.9 0.63-1.2 1.13C1.34 2.1 1.18 2.72 1.2 3.34c0 0.28 0.04 0.55 0.13 0.8 0.1 0.26 0.24 0.48 0.42 0.66C2.1 5.18 2.68 5.48 3.47 5.7c0.68 0.19 1.17 0.42 1.45 0.7 0.14 0.14 0.25 0.3 0.32 0.5 0.08 0.2 0.11 0.4 0.1 0.61C5.37 8 5.25 8.47 5.03 8.88 4.8 9.26 4.5 9.56 4.13 9.75c-0.4 0.2-0.83 0.3-1.26 0.3-0.59 0-1.06-0.15-1.4-0.45C1.2 9.37 1 9.05 0.9 8.68H0C0.04 9 0.14 9.33 0.3 9.62c0.14 0.28 0.34 0.53 0.58 0.73 0.47 0.4 1.08 0.6 1.84 0.6 0.61 0 1.22-0.15 1.77-0.45C5 10.21 5.45 9.77 5.77 9.21 6.09 8.64 6.26 7.97 6.25 7.3c0-0.64-0.2-1.15-0.57-1.55-0.38-0.4-0.99-0.72-1.83-0.95Z" fill="#ffffff" fill-opacity="1.0" /><path d="M3.85 4.79C3.22 4.6 2.76 4.39 2.5 4.14 2.37 4.02 2.26 3.87 2.2 3.7 2.12 3.53 2.1 3.34 2.1 3.15c0-0.72 0.21-1.27 0.63-1.64 0.41-0.37 0.95-0.56 1.62-0.56 0.89 0 1.45 0.36 1.68 1.09h0.89c-0.04-0.3-0.13-0.57-0.26-0.82S6.34 0.75 6.13 0.58c-0.44-0.35-1-0.53-1.67-0.53-0.56 0-1.12 0.13-1.63 0.4-0.48 0.24-0.9 0.63-1.2 1.13C1.34 2.1 1.18 2.72 1.2 3.34c0 0.28 0.04 0.55 0.13 0.8 0.1 0.26 0.24 0.48 0.42 0.66C2.1 5.18 2.68 5.48 3.47 5.7c0.68 0.19 1.17 0.42 1.45 0.7 0.14 0.14 0.25 0.3 0.32 0.5 0.08 0.2 0.11 0.4 0.1 0.61C5.37 8 5.25 8.47 5.03 8.88 4.8 9.26 4.5 9.56 4.13 9.75c-0.4 0.2-0.83 0.3-1.26 0.3-0.59 0-1.06-0.15-1.4-0.45C1.2 9.37 1 9.05 0.9 8.68H0C0.04 9 0.14 9.33 0.3 9.62c0.14 0.28 0.34 0.53 0.58 0.73 0.47 0.4 1.08 0.6 1.84 0.6 0.61 0 1.22-0.15 1.77-0.45C5 10.21 5.45 9.77 5.77 9.21 6.09 8.64 6.26 7.97 6.25 7.3c0-0.64-0.2-1.15-0.57-1.55-0.38-0.4-0.99-0.72-1.83-0.95Z" fill="#000000" fill-opacity="1.0" /><path d="M3.85 4.79C3.22 4.6 2.76 4.39 2.5 4.14 2.37 4.02 2.26 3.87 2.2 3.7 2.12 3.53 2.1 3.34 2.1 3.15c0-0.72 0.21-1.27 0.63-1.64 0.41-0.37 0.95-0.56 1.62-0.56 0.89 0 1.45 0.36 1.68 1.09h0.89c-0.04-0.3-0.13-0.57-0.26-0.82S6.34 0.75 6.13 0.58c-0.44-0.35-1-0.53-1.67-0.53-0.56 0-1.12 0.13-1.63 0.4-0.48 0.24-0.9 0.63-1.2 1.13C1.34 2.1 1.18 2.72 1.2 3.34c0 0.28 0.04 0.55 0.13 0.8 0.1 0.26 0.24 0.48 0.42 0.66C2.1 5.18 2.68 5.48 3.47 5.7c0.68 0.19 1.17 0.42 1.45 0.7 0.14 0.14 0.25 0.3 0.32 0.5 0.08 0.2 0.11 0.4 0.1 0.61C5.37 8 5.25 8.47 5.03 8.88 4.8 9.26 4.5 9.56 4.13 9.75c-0.4 0.2-0.83 0.3-1.26 0.3-0.59 0-1.06-0.15-1.4-0.45C1.2 9.37 1 9.05 0.9 8.68H0C0.04 9 0.14 9.33 0.3 9.62c0.14 0.28 0.34 0.53 0.58 0.73 0.47 0.4 1.08 0.6 1.84 0.6 0.61 0 1.22-0.15 1.77-0.45C5 10.21 5.45 9.77 5.77 9.21 6.09 8.64 6.26 7.97 6.25 7.3c0-0.64-0.2-1.15-0.57-1.55-0.38-0.4-0.99-0.72-1.83-0.95Z" fill="#ffffff" fill-opacity="0.2" /><path d="M68.58 7h1.33v3.56h0.48V7.01h1.32V6.56h-3.13v0.45Zm4.47-0.44h-0.81v4h0.47V7.04h0.03l1.34 3.52h0.53l1.38-3.55h0.02v3.55h0.48v-4h-0.8l-1.34 3.5-1.3-3.5Z" fill="#ffffff" fill-opacity="1.0" /><path d="M68.58 7h1.33v3.56h0.48V7.01h1.32V6.56h-3.13v0.45Zm4.47-0.44h-0.81v4h0.47V7.04h0.03l1.34 3.52h0.53l1.38-3.55h0.02v3.55h0.48v-4h-0.8l-1.34 3.5-1.3-3.5Z" fill="#000000" fill-opacity="1.0" /><path d="M68.58 7h1.33v3.56h0.48V7.01h1.32V6.56h-3.13v0.45Zm4.47-0.44h-0.81v4h0.47V7.04h0.03l1.34 3.52h0.53l1.38-3.55h0.02v3.55h0.48v-4h-0.8l-1.34 3.5-1.3-3.5Z" fill="#ffffff" fill-opacity="0.2" /></svg>