<?xml version="1.0" encoding="utf-8" ?>
<svg baseProfile="full" height="15.0" version="1.1" viewBox="0 0 100.0 15.0" width="100.0" xmlns="http://www.w3.org/2000/svg" xmlns:ev="http://www.w3.org/2001/xml-events" xmlns:xlink="http://www.w3.org/1999/xlink"><defs /><path d="M16.3 12.1c-0.45 0.73-1.05 1.3-1.75 1.7-0.65 0.37-1.26 0.43-1.9 0.43-1.2 0-1.89-0.5-2.4-1.08-0.49-0.56-0.97-1.7-0.97-2.93 0-0.36 0.02-0.73 0.08-1.09l1.36-8.84h1.08L10.44 9.1c-0.06 0.3-0.09 0.62-0.09 0.93 0 0.92 0.15 1.63 0.63 2.2 0.23 0.28 0.52 0.5 0.83 0.65 0.31 0.15 0.65 0.22 0.99 0.21 0.8 0 1.46-0.34 2.16-1.06 0.7-0.71 1.06-1.72 1.26-3l1.35-8.75h1.13l-1.36 8.84c-0.16 1.03-0.56 2.22-1.04 2.99Z" fill="#ffffff" fill-opacity="1.0" /><path d="M16.3 12.1c-0.45 0.73-1.05 1.3-1.75 1.7-0.65 0.37-1.26 0.43-1.9 0.43-1.2 0-1.89-0.5-2.4-1.08-0.49-0.56-0.97-1.7-0.97-2.93 0-0.36 0.02-0.73 0.08-1.09l1.36-8.84h1.08L10.44 9.1c-0.06 0.3-0.09 0.62-0.09 0.93 0 0.92 0.15 1.63 0.63 2.2 0.23 0.28 0.52 0.5 0.83 0.65 0.31 0.15 0.65 0.22 0.99 0.21 0.8 0 1.46-0.34 2.16-1.06 0.7-0.71 1.06-1.72 1.26-3l1.35-8.75h1.13l-1.36 8.84c-0.16 1.03-0.56 2.22-1.04 2.99Z" fill="#000000" fill-opacity="1.0" /><path d="M16.3 12.1c-0.45 0.73-1.05 1.3-1.75 1.7-0.65 0.37-1.26 0.43-1.9 0.43-1.2 0-1.89-0.5-2.4-1.08-0.49-0.56-0.97-1.7-0.97-2.93 0-0.36 0.02-0.73 0.08-1.09l1.36-8.84h1.08L10.44 9.1c-0.06 0.3-0.09 0.62-0.09 0.93 0 0.92 0.15 1.63 0.63 2.2 0.23 0.28 0.52 0.5 0.83 0.65 0.31 0.15 0.65 0.22 0.99 0.21 0.8 0 1.46-0.34 2.16-1.06 0.7-0.71 1.06-1.72 1.26-3l1.35-8.75h1.13l-1.36 8.84c-0.16 1.03-0.56 2.22-1.04 2.99Z" fill="#ffffff" fill-opacity="0.2" /><path d="M25.9 1.16c0.54 0.58 0.81 1.38 0.81 2.39 0 0.9-0.18 1.8-0.56 2.6C25.8 6.91 25.25 7.56 24.6 8c-0.67 0.46-1.45 0.7-2.23 0.69h-2.4l-0.82 5.33h-1.13l2.1-13.75h3.53c0.96 0 1.7 0.29 2.25 0.88Zm-1.85 5.9c0.48-0.32 0.86-0.8 1.11-1.37 0.27-0.6 0.4-1.28 0.39-1.96 0-0.73-0.2-1.3-0.58-1.72-0.39-0.41-0.94-0.62-1.64-0.62h-2.24l-0.94 6.17h2.23c0.59 0.01 1.16-0.16 1.67-0.5Z" fill="#ffffff" fill-opacity="1.0" /><path d="M25.9 1.16c0.54 0.58 0.81 1.38 0.81 2.39 0 0.9-0.18 1.8-0.56 2.6C25.8 6.91 25.25 7.56 24.6 8c-0.67 0.46-1.45 0.7-2.23 0.69h-2.4l-0.82 5.33h-1.13l2.1-13.75h3.53c0.96 0 1.7 0.29 2.25 0.88Zm-1.85 5.9c0.48-0.32 0.86-0.8 1.11-1.37 0.27-0.6 0.4-1.28 0.39-1.96 0-0.73-0.2-1.3-0.58-1.72-0.39-0.41-0.94-0.62-1.64-0.62h-2.24l-0.94 6.17h2.23c0.59 0.01 1.16-0.16 1.67-0.5Z" fill="#000000" fill-opacity="1.0" /><path d="M25.9 1.16c0.54 0.58 0.81 1.38 0.81 2.39 0 0.9-0.18 1.8-0.56 2.6C25.8 6.91 25.25 7.56 24.6 8c-0.67 0.46-1.45 0.7-2.23 0.69h-2.4l-0.82 5.33h-1.13l2.1-13.75h3.53c0.96 0 1.7 0.29 2.25 0.88Zm-1.85 5.9c0.48-0.32 0.86-0.8 1.11-1.37 0.27-0.6 0.4-1.28 0.39-1.96 0-0.73-0.2-1.3-0.58-1.72-0.39-0.41-0.94-0.62-1.64-0.62h-2.24l-0.94 6.17h2.23c0.59 0.01 1.16-0.16 1.67-0.5Z" fill="#ffffff" fill-opacity="0.2" /><path d="M29.2 1.43l-0.72 4.8h5.18l-0.18 1.15H28.3l-0.84 5.5h5.52l-0.17 1.15h-6.67l2.11-13.75h6.67l-0.18 1.15H29.2Z" fill="#ffffff" fill-opacity="1.0" /><path d="M29.2 1.43l-0.72 4.8h5.18l-0.18 1.15H28.3l-0.84 5.5h5.52l-0.17 1.15h-6.67l2.11-13.75h6.67l-0.18 1.15H29.2Z" fill="#000000" fill-opacity="1.0" /><path d="M29.2 1.43l-0.72 4.8h5.18l-0.18 1.15H28.3l-0.84 5.5h5.52l-0.17 1.15h-6.67l2.11-13.75h6.67l-0.18 1.15H29.2Z" fill="#ffffff" fill-opacity="0.2" /><path d="M42.79 5.62c-0.3 0.7-0.75 1.29-1.3 1.72-0.58 0.45-1.25 0.7-1.94 0.74l2.92 5.95h-1.39L38.3 8.1h-2.16l-0.91 5.93h-1.13l2.1-13.75h4.3c0.88 0 1.56 0.27 2.04 0.81s0.72 1.28 0.72 2.21c0 0.8-0.15 1.6-0.46 2.32Zm-6.5 1.36h3.02c0.53 0.01 1.05-0.15 1.5-0.47 0.4-0.32 0.74-0.76 0.95-1.27 0.22-0.55 0.34-1.15 0.33-1.76 0-0.66-0.16-1.17-0.49-1.54-0.32-0.36-0.8-0.54-1.43-0.54h-3.01l-0.87 5.58Z" fill="#ffffff" fill-opacity="1.0" /><path d="M42.79 5.62c-0.3 0.7-0.75 1.29-1.3 1.72-0.58 0.45-1.25 0.7-1.94 0.74l2.92 5.95h-1.39L38.3 8.1h-2.16l-0.91 5.93h-1.13l2.1-13.75h4.3c0.88 0 1.56 0.27 2.04 0.81s0.72 1.28 0.72 2.21c0 0.8-0.15 1.6-0.46 2.32Zm-6.5 1.36h3.02c0.53 0.01 1.05-0.15 1.5-0.47 0.4-0.32 0.74-0.76 0.95-1.27 0.22-0.55 0.34-1.15 0.33-1.76 0-0.66-0.16-1.17-0.49-1.54-0.32-0.36-0.8-0.54-1.43-0.54h-3.01l-0.87 5.58Z" fill="#000000" fill-opacity="1.0" /><path d="M42.79 5.62c-0.3 0.7-0.75 1.29-1.3 1.72-0.58 0.45-1.25 0.7-1.94 0.74l2.92 5.95h-1.39L38.3 8.1h-2.16l-0.91 5.93h-1.13l2.1-13.75h4.3c0.88 0 1.56 0.27 2.04 0.81s0.72 1.28 0.72 2.21c0 0.8-0.15 1.6-0.46 2.32Zm-6.5 1.36h3.02c0.53 0.01 1.05-0.15 1.5-0.47 0.4-0.32 0.74-0.76 0.95-1.27 0.22-0.55 0.34-1.15 0.33-1.76 0-0.66-0.16-1.17-0.49-1.54-0.32-0.36-0.8-0.54-1.43-0.54h-3.01l-0.87 5.58Z" fill="#ffffff" fill-opacity="0.2" /><path d="M64.35 9.82c-0.56 1.31-1.4 2.43-2.46 3.26-1.05 0.82-2.3 1.25-3.58 1.23-0.97 0-1.8-0.23-2.52-0.68-0.7-0.44-1.27-1.11-1.63-1.93-0.38-0.83-0.57-1.8-0.57-2.91 0-1.5 0.29-2.96 0.86-4.3 0.56-1.31 1.4-2.43 2.45-3.25C57.96 0.4 59.22-0.02 60.5 0c0.96 0 1.79 0.23 2.5 0.68 0.7 0.44 1.27 1.11 1.64 1.93 0.39 0.83 0.58 1.8 0.58 2.91 0 1.5-0.3 2.96-0.87 4.3Zm-7.4 1.07c0.42 0.6 1 0.9 1.74 0.9 0.76 0.01 1.5-0.31 2.05-0.91 0.6-0.63 1.04-1.42 1.32-2.29 0.29-0.86 0.44-1.78 0.44-2.7 0-1.04-0.21-1.86-0.64-2.46-0.42-0.6-1-0.9-1.75-0.9-0.76-0.02-1.49 0.3-2.04 0.9-0.6 0.64-1.05 1.43-1.32 2.3-0.29 0.86-0.44 1.78-0.45 2.7 0 1.04 0.22 1.85 0.64 2.46Z" fill="#ffffff" fill-opacity="1.0" /><path d="M64.35 9.82c-0.56 1.31-1.4 2.43-2.46 3.26-1.05 0.82-2.3 1.25-3.58 1.23-0.97 0-1.8-0.23-2.52-0.68-0.7-0.44-1.27-1.11-1.63-1.93-0.38-0.83-0.57-1.8-0.57-2.91 0-1.5 0.29-2.96 0.86-4.3 0.56-1.31 1.4-2.43 2.45-3.25C57.96 0.4 59.22-0.02 60.5 0c0.96 0 1.79 0.23 2.5 0.68 0.7 0.44 1.27 1.11 1.64 1.93 0.39 0.83 0.58 1.8 0.58 2.91 0 1.5-0.3 2.96-0.87 4.3Zm-7.4 1.07c0.42 0.6 1 0.9 1.74 0.9 0.76 0.01 1.5-0.31 2.05-0.91 0.6-0.63 1.04-1.42 1.32-2.29 0.29-0.86 0.44-1.78 0.44-2.7 0-1.04-0.21-1.86-0.64-2.46-0.42-0.6-1-0.9-1.75-0.9-0.76-0.02-1.49 0.3-2.04 0.9-0.6 0.64-1.05 1.43-1.32 2.3-0.29 0.86-0.44 1.78-0.45 2.7 0 1.04 0.22 1.85 0.64 2.46Z" fill="#000000" fill-opacity="1.0" /><path d="M64.35 9.82c-0.56 1.31-1.4 2.43-2.46 3.26-1.05 0.82-2.3 1.25-3.58 1.23-0.97 0-1.8-0.23-2.52-0.68-0.7-0.44-1.27-1.11-1.63-1.93-0.38-0.83-0.57-1.8-0.57-2.91 0-1.5 0.29-2.96 0.86-4.3 0.56-1.31 1.4-2.43 2.45-3.25C57.96 0.4 59.22-0.02 60.5 0c0.96 0 1.79 0.23 2.5 0.68 0.7 0.44 1.27 1.11 1.64 1.93 0.39 0.83 0.58 1.8 0.58 2.91 0 1.5-0.3 2.96-0.87 4.3Zm-7.4 1.07c0.42 0.6 1 0.9 1.74 0.9 0.76 0.01 1.5-0.31 2.05-0.91 0.6-0.63 1.04-1.42 1.32-2.29 0.29-0.86 0.44-1.78 0.44-2.7 0-1.04-0.21-1.86-0.64-2.46-0.42-0.6-1-0.9-1.75-0.9-0.76-0.02-1.49 0.3-2.04 0.9-0.6 0.64-1.05 1.43-1.32 2.3-0.29 0.86-0.44 1.78-0.45 2.7 0 1.04 0.22 1.85 0.64 2.46Z" fill="#ffffff" fill-opacity="0.2" /><path d="M76.29 9.82c-0.56 1.31-1.4 2.43-2.45 3.26-1.06 0.82-2.3 1.25-3.58 1.23-0.97 0-1.81-0.23-2.52-0.68-0.7-0.44-1.27-1.11-1.64-1.93-0.38-0.83-0.57-1.8-0.57-2.91 0-1.5 0.3-2.96 0.87-4.3 0.55-1.31 1.4-2.43 2.45-3.25C69.9 0.4 71.16-0.02 72.45 0c0.95 0 1.78 0.23 2.5 0.68 0.7 0.44 1.27 1.11 1.64 1.93 0.38 0.83 0.57 1.8 0.57 2.91 0 1.5-0.3 2.96-0.87 4.3Zm-7.4 1.07c0.42 0.6 1 0.9 1.75 0.9 0.76 0.02 1.5-0.31 2.04-0.91 0.6-0.63 1.05-1.42 1.32-2.29 0.29-0.86 0.44-1.78 0.45-2.7 0-1.04-0.22-1.86-0.64-2.46-0.43-0.6-1.01-0.91-1.75-0.91-0.77-0.02-1.5 0.31-2.05 0.91-0.6 0.63-1.04 1.42-1.31 2.3-0.3 0.86-0.45 1.78-0.45 2.7 0 1.03 0.2 1.85 0.64 2.46Z" fill="#ffffff" fill-opacity="1.0" /><path d="M76.29 9.82c-0.56 1.31-1.4 2.43-2.45 3.26-1.06 0.82-2.3 1.25-3.58 1.23-0.97 0-1.81-0.23-2.52-0.68-0.7-0.44-1.27-1.11-1.64-1.93-0.38-0.83-0.57-1.8-0.57-2.91 0-1.5 0.3-2.96 0.87-4.3 0.55-1.31 1.4-2.43 2.45-3.25C69.9 0.4 71.16-0.02 72.45 0c0.95 0 1.78 0.23 2.5 0.68 0.7 0.44 1.27 1.11 1.64 1.93 0.38 0.83 0.57 1.8 0.57 2.91 0 1.5-0.3 2.96-0.87 4.3Zm-7.4 1.07c0.42 0.6 1 0.9 1.75 0.9 0.76 0.02 1.5-0.31 2.04-0.91 0.6-0.63 1.05-1.42 1.32-2.29 0.29-0.86 0.44-1.78 0.45-2.7 0-1.04-0.22-1.86-0.64-2.46-0.43-0.6-1.01-0.91-1.75-0.91-0.77-0.02-1.5 0.31-2.05 0.91-0.6 0.63-1.04 1.42-1.31 2.3-0.3 0.86-0.45 1.78-0.45 2.7 0 1.03 0.2 1.85 0.64 2.46Z" fill="#000000" fill-opacity="1.0" /><path d="M76.29 9.82c-0.56 1.31-1.4 2.43-2.45 3.26-1.06 0.82-2.3 1.25-3.58 1.23-0.97 0-1.81-0.23-2.52-0.68-0.7-0.44-1.27-1.11-1.64-1.93-0.38-0.83-0.57-1.8-0.57-2.91 0-1.5 0.3-2.96 0.87-4.3 0.55-1.31 1.4-2.43 2.45-3.25C69.9 0.4 71.16-0.02 72.45 0c0.95 0 1.78 0.23 2.5 0.68 0.7 0.44 1.27 1.11 1.64 1.93 0.38 0.83 0.57 1.8 0.57 2.91 0 1.5-0.3 2.96-0.87 4.3Zm-7.4 1.07c0.42 0.6 1 0.9 1.75 0.9 0.76 0.02 1.5-0.31 2.04-0.91 0.6-0.63 1.05-1.42 1.32-2.29 0.29-0.86 0.44-1.78 0.45-2.7 0-1.04-0.22-1.86-0.64-2.46-0.43-0.6-1.01-0.91-1.75-0.91-0.77-0.02-1.5 0.31-2.05 0.91-0.6 0.63-1.04 1.42-1.31 2.3-0.3 0.86-0.45 1.78-0.45 2.7 0 1.03 0.2 1.85 0.64 2.46Z" fill="#ffffff" fill-opacity="0.2" /><path d="M51.72 0.28l-1.7 4.62 2.05-0.39-5.38 8.25 1.68-6.11-1.99 0.44 1.6-6.81h-3.75l1.8 13.82h3.41l6.02-13.82h-3.74Z" fill="#ffffff" fill-opacity="1.0" /><path d="M51.72 0.28l-1.7 4.62 2.05-0.39-5.38 8.25 1.68-6.11-1.99 0.44 1.6-6.81h-3.75l1.8 13.82h3.41l6.02-13.82h-3.74Z" fill="#000000" fill-opacity="1.0" /><path d="M51.72 0.28l-1.7 4.62 2.05-0.39-5.38 8.25 1.68-6.11-1.99 0.44 1.6-6.81h-3.75l1.8 13.82h3.41l6.02-13.82h-3.74Z" fill="#ffffff" fill-opacity="0.2" /><path d="M81.94 3.43c0.56-0.6 1.3-0.93 2.07-0.91 0.6 0 1.08 0.17 1.43 0.53C85.8 3.4 86 3.93 86.07 4.62h2.64c-0.07-1.5-0.65-3-1.47-3.72-0.7-0.6-1.63-0.9-2.8-0.9-1.28-0.02-2.55 0.4-3.62 1.23-1.06 0.8-1.9 1.93-2.47 3.24-0.58 1.33-0.89 2.8-0.88 4.29 0 1.12 0.2 2.1 0.57 2.94 0.38 0.82 0.96 1.5 1.67 1.93 0.72 0.45 1.58 0.68 2.55 0.68 1.17 0 2.22-0.24 3.07-0.9C87.41 11.8 87.9 9.7 87.9 9.7L85.3 9.7c-0.6 1.4-1.5 2.1-2.72 2.1-0.75 0-1.34-0.3-1.76-0.91-0.43-0.6-0.64-1.43-0.64-2.48 0-0.92 0.15-1.84 0.44-2.7 0.28-0.87 0.73-1.65 1.32-2.28Z" fill="#ffffff" fill-opacity="1.0" /><path d="M81.94 3.43c0.56-0.6 1.3-0.93 2.07-0.91 0.6 0 1.08 0.17 1.43 0.53C85.8 3.4 86 3.93 86.07 4.62h2.64c-0.07-1.5-0.65-3-1.47-3.72-0.7-0.6-1.63-0.9-2.8-0.9-1.28-0.02-2.55 0.4-3.62 1.23-1.06 0.8-1.9 1.93-2.47 3.24-0.58 1.33-0.89 2.8-0.88 4.29 0 1.12 0.2 2.1 0.57 2.94 0.38 0.82 0.96 1.5 1.67 1.93 0.72 0.45 1.58 0.68 2.55 0.68 1.17 0 2.22-0.24 3.07-0.9C87.41 11.8 87.9 9.7 87.9 9.7L85.3 9.7c-0.6 1.4-1.5 2.1-2.72 2.1-0.75 0-1.34-0.3-1.76-0.91-0.43-0.6-0.64-1.43-0.64-2.48 0-0.92 0.15-1.84 0.44-2.7 0.28-0.87 0.73-1.65 1.32-2.28Z" fill="#000000" fill-opacity="1.0" /><path d="M81.94 3.43c0.56-0.6 1.3-0.93 2.07-0.91 0.6 0 1.08 0.17 1.43 0.53C85.8 3.4 86 3.93 86.07 4.62h2.64c-0.07-1.5-0.65-3-1.47-3.72-0.7-0.6-1.63-0.9-2.8-0.9-1.28-0.02-2.55 0.4-3.62 1.23-1.06 0.8-1.9 1.93-2.47 3.24-0.58 1.33-0.89 2.8-0.88 4.29 0 1.12 0.2 2.1 0.57 2.94 0.38 0.82 0.96 1.5 1.67 1.93 0.72 0.45 1.58 0.68 2.55 0.68 1.17 0 2.22-0.24 3.07-0.9C87.41 11.8 87.9 9.7 87.9 9.7L85.3 9.7c-0.6 1.4-1.5 2.1-2.72 2.1-0.75 0-1.34-0.3-1.76-0.91-0.43-0.6-0.64-1.43-0.64-2.48 0-0.92 0.15-1.84 0.44-2.7 0.28-0.87 0.73-1.65 1.32-2.28Z" fill="#ffffff" fill-opacity="0.2" /><path d="M5.01 6.23C4.18 5.99 3.6 5.7 3.25 5.38c-0.17-0.15-0.3-0.35-0.4-0.57C2.76 4.6 2.72 4.34 2.73 4.1c0-0.95 0.27-1.66 0.8-2.14 0.54-0.48 1.24-0.73 2.11-0.72 1.16 0 1.9 0.47 2.2 1.41h1.15C8.94 2.27 8.83 1.91 8.65 1.58c-0.17-0.32-0.4-0.6-0.68-0.82-0.56-0.46-1.29-0.7-2.16-0.7-0.73 0-1.46 0.17-2.13 0.52C3.06 0.9 2.52 1.4 2.13 2.06c-0.4 0.67-0.6 1.47-0.58 2.29C1.54 4.7 1.6 5.06 1.72 5.39 1.84 5.72 2.02 6 2.26 6.25 2.74 6.75 3.5 7.12 4.51 7.4 5.41 7.65 6.03 7.95 6.4 8.3c0.18 0.18 0.32 0.4 0.42 0.65 0.1 0.25 0.14 0.52 0.13 0.8 0.02 0.63-0.13 1.25-0.42 1.79-0.28 0.5-0.68 0.9-1.16 1.14-0.51 0.26-1.07 0.4-1.64 0.39-0.76 0-1.37-0.2-1.82-0.59-0.35-0.3-0.61-0.72-0.74-1.2H0c0.06 0.43 0.18 0.84 0.38 1.22 0.2 0.37 0.46 0.7 0.76 0.95 0.61 0.52 1.41 0.78 2.4 0.78 0.8 0.01 1.58-0.19 2.3-0.58 0.68-0.37 1.25-0.95 1.67-1.68 0.42-0.74 0.63-1.61 0.62-2.5 0-0.82-0.25-1.5-0.74-2.02C6.89 6.94 6.1 6.53 5 6.23Z" fill="#ffffff" fill-opacity="1.0" /><path d="M5.01 6.23C4.18 5.99 3.6 5.7 3.25 5.38c-0.17-0.15-0.3-0.35-0.4-0.57C2.76 4.6 2.72 4.34 2.73 4.1c0-0.95 0.27-1.66 0.8-2.14 0.54-0.48 1.24-0.73 2.11-0.72 1.16 0 1.9 0.47 2.2 1.41h1.15C8.94 2.27 8.83 1.91 8.65 1.58c-0.17-0.32-0.4-0.6-0.68-0.82-0.56-0.46-1.29-0.7-2.16-0.7-0.73 0-1.46 0.17-2.13 0.52C3.06 0.9 2.52 1.4 2.13 2.06c-0.4 0.67-0.6 1.47-0.58 2.29C1.54 4.7 1.6 5.06 1.72 5.39 1.84 5.72 2.02 6 2.26 6.25 2.74 6.75 3.5 7.12 4.51 7.4 5.41 7.65 6.03 7.95 6.4 8.3c0.18 0.18 0.32 0.4 0.42 0.65 0.1 0.25 0.14 0.52 0.13 0.8 0.02 0.63-0.13 1.25-0.42 1.79-0.28 0.5-0.68 0.9-1.16 1.14-0.51 0.26-1.07 0.4-1.64 0.39-0.76 0-1.37-0.2-1.82-0.59-0.35-0.3-0.61-0.72-0.74-1.2H0c0.06 0.43 0.18 0.84 0.38 1.22 0.2 0.37 0.46 0.7 0.76 0.95 0.61 0.52 1.41 0.78 2.4 0.78 0.8 0.01 1.58-0.19 2.3-0.58 0.68-0.37 1.25-0.95 1.67-1.68 0.42-0.74 0.63-1.61 0.62-2.5 0-0.82-0.25-1.5-0.74-2.02C6.89 6.94 6.1 6.53 5 6.23Z" fill="#000000" fill-opacity="1.0" /><path d="M5.01 6.23C4.18 5.99 3.6 5.7 3.25 5.38c-0.17-0.15-0.3-0.35-0.4-0.57C2.76 4.6 2.72 4.34 2.73 4.1c0-0.95 0.27-1.66 0.8-2.14 0.54-0.48 1.24-0.73 2.11-0.72 1.16 0 1.9 0.47 2.2 1.41h1.15C8.94 2.27 8.83 1.91 8.65 1.58c-0.17-0.32-0.4-0.6-0.68-0.82-0.56-0.46-1.29-0.7-2.16-0.7-0.73 0-1.46 0.17-2.13 0.52C3.06 0.9 2.52 1.4 2.13 2.06c-0.4 0.67-0.6 1.47-0.58 2.29C1.54 4.7 1.6 5.06 1.72 5.39 1.84 5.72 2.02 6 2.26 6.25 2.74 6.75 3.5 7.12 4.51 7.4 5.41 7.65 6.03 7.95 6.4 8.3c0.18 0.18 0.32 0.4 0.42 0.65 0.1 0.25 0.14 0.52 0.13 0.8 0.02 0.63-0.13 1.25-0.42 1.79-0.28 0.5-0.68 0.9-1.16 1.14-0.51 0.26-1.07 0.4-1.64 0.39-0.76 0-1.37-0.2-1.82-0.59-0.35-0.3-0.61-0.72-0.74-1.2H0c0.06 0.43 0.18 0.84 0.38 1.22 0.2 0.37 0.46 0.7 0.76 0.95 0.61 0.52 1.41 0.78 2.4 0.78 0.8 0.01 1.58-0.19 2.3-0.58 0.68-0.37 1.25-0.95 1.67-1.68 0.42-0.74 0.63-1.61 0.62-2.5 0-0.82-0.25-1.5-0.74-2.02C6.89 6.94 6.1 6.53 5 6.23Z" fill="#ffffff" fill-opacity="0.2" /><path d="M89.22 9.11h1.73v4.63h0.62V9.1h1.72V8.53h-4.07v0.58Zm5.81-0.58h-1.05v5.2h0.61V9.17h0.03l1.75 4.58h0.69l1.8-4.63h0.03v4.63h0.62v-5.2h-1.04l-1.74 4.54-1.7-4.55Z" fill="#ffffff" fill-opacity="1.0" /><path d="M89.22 9.11h1.73v4.63h0.62V9.1h1.72V8.53h-4.07v0.58Zm5.81-0.58h-1.05v5.2h0.61V9.17h0.03l1.75 4.58h0.69l1.8-4.63h0.03v4.63h0.62v-5.2h-1.04l-1.74 4.54-1.7-4.55Z" fill="#000000" fill-opacity="1.0" /><path d="M89.22 9.11h1.73v4.63h0.62V9.1h1.72V8.53h-4.07v0.58Zm5.81-0.58h-1.05v5.2h0.61V9.17h0.03l1.75 4.58h0.69l1.8-4.63h0.03v4.63h0.62v-5.2h-1.04l-1.74 4.54-1.7-4.55Z" fill="#ffffff" fill-opacity="0.2" /></svg>