<?xml version="1.0" encoding="utf-8" ?>
<svg baseProfile="full" height="40.0" version="1.1" viewBox="0 0 22.0 40.0" width="22.0" xmlns="http://www.w3.org/2000/svg" xmlns:ev="http://www.w3.org/2001/xml-events" xmlns:xlink="http://www.w3.org/1999/xlink"><defs /><path d="M2.83 17.86L19.57 2.84c0.25-0.23 0.65 0.1 0.48 0.4l-5.83 10.35h5.93c0.26 0 0.42 0.3 0.26 0.5l-5.9 7.5h4.85c0.28 0 0.43 0.36 0.22 0.55L2.84 37.15c-0.25 0.23-0.65-0.1-0.48-0.4l5.96-10.58h-5.1c-0.25 0-0.41-0.3-0.26-0.5l5.45-7.27H3.05c-0.28 0-0.43-0.36-0.22-0.54Z" fill="#ffffff" fill-opacity="1.0" /><path d="M2.83 17.86L19.57 2.84c0.25-0.23 0.65 0.1 0.48 0.4l-5.83 10.35h5.93c0.26 0 0.42 0.3 0.26 0.5l-5.9 7.5h4.85c0.28 0 0.43 0.36 0.22 0.55L2.84 37.15c-0.25 0.23-0.65-0.1-0.48-0.4l5.96-10.58h-5.1c-0.25 0-0.41-0.3-0.26-0.5l5.45-7.27H3.05c-0.28 0-0.43-0.36-0.22-0.54Z" fill="#000000" fill-opacity="1.0" /><path d="M2.83 17.86L19.57 2.84c0.25-0.23 0.65 0.1 0.48 0.4l-5.83 10.35h5.93c0.26 0 0.42 0.3 0.26 0.5l-5.9 7.5h4.85c0.28 0 0.43 0.36 0.22 0.55L2.84 37.15c-0.25 0.23-0.65-0.1-0.48-0.4l5.96-10.58h-5.1c-0.25 0-0.41-0.3-0.26-0.5l5.45-7.27H3.05c-0.28 0-0.43-0.36-0.22-0.54Z" fill="#ffffff" fill-opacity="0.2" /></svg>