<?xml version="1.0" encoding="utf-8" ?>
<svg baseProfile="full" height="13.0" version="1.1" viewBox="0 0 51.0 13.0" width="51.0" xmlns="http://www.w3.org/2000/svg" xmlns:ev="http://www.w3.org/2001/xml-events" xmlns:xlink="http://www.w3.org/1999/xlink"><defs /><path d="M27.34 11.77h-1.47l1.3-9.3h1.47l-1.3 9.3Zm8.68-9.52h-3.26L32.14 5.2l2.16-0.35-4.72 7.97 1.46-6.1-1.7 0.32 1.51-5.57h0.01l0.17-0.63h6.66l-1.26 9.03c-0.06 0.43-0.16 0.77-0.3 1.02-0.14 0.25-0.33 0.43-0.6 0.55-0.25 0.13-0.6 0.21-1.04 0.26-0.56 0.04-1.1 0.06-1.6 0.05l-0.07-1.52c0.4 0.04 0.77 0.05 1.06 0.05l0.42-0.01c0.2 0 0.33-0.03 0.42-0.05 0.08-0.03 0.14-0.08 0.17-0.15 0.04-0.08 0.07-0.2 0.1-0.4l1.03-7.43ZM27.7 1l1.13-1c0.36 0.33 0.66 0.63 0.89 0.9l0.18 0.2c0.37 0.4 0.6 0.67 0.69 0.79l-1.2 1.09c-0.17-0.27-0.44-0.62-0.82-1.05C28.2 1.5 27.91 1.2 27.7 1.01ZM13.81 4.97c0.44-0.02 0.9-0.04 1.4-0.08l0.33-0.04c-0.37 0.46-0.73 0.9-1.11 1.31C14.28 6.35 14.13 6.5 14 6.6c-0.13 0.1-0.28 0.16-0.45 0.2l0.03 1.41c0.5-0.05 1.14-0.14 1.93-0.25 0.83-0.14 1.48-0.25 1.95-0.35l0.16-1.32c-0.6 0.15-1.33 0.28-2.21 0.39 0.33-0.29 0.84-0.85 1.53-1.69 0.67-0.83 1.2-1.54 1.61-2.14l-1.05-0.6C17.2 2.67 16.9 3.1 16.57 3.55c-0.33 0.05-0.73 0.07-1.18 0.09 0.33-0.3 0.7-0.72 1.1-1.27 0.4-0.53 0.8-1.09 1.14-1.67l-1.1-0.51c-0.29 0.5-0.68 1.1-1.16 1.76-0.41 0.58-0.75 1-0.98 1.25-0.2 0.22-0.39 0.37-0.58 0.45v1.32Zm10.85 5.72c-0.9-0.54-1.67-1.2-2.3-1.96 0.86-0.98 1.6-2.14 2.24-3.48l0.2-1.31h-1.65c0.35-0.45 0.76-1.07 1.22-1.84l0.18-1.31h-5.91L18.45 2.1h0.83l-0.31 1.84c-0.28 1.51-0.64 2.75-1.05 3.73-0.26 0.59-0.6 1.18-1.02 1.77l0.04-0.8c-0.4 0.14-1.07 0.32-2.02 0.55C14.05 9.4 13.4 9.52 13 9.59l0.04 1.35c0.66-0.13 1.3-0.26 1.92-0.4l1.38-0.33-0.65 0.72 1.03 0.85c0.25-0.28 0.47-0.53 0.66-0.78l0.61 1.05c1.33-0.73 2.44-1.48 3.31-2.26 0.6 0.72 1.4 1.44 2.35 2.17l1.02-1.26v-0.01Zm-4.11-1.93l-0.1-0.16-0.08-0.12c-0.31-0.57-0.56-1.19-0.72-1.87-0.16 0.56-0.35 1.09-0.56 1.61-0.35 0.81-0.84 1.62-1.47 2.44 1.17-0.58 2.14-1.21 2.93-1.9ZM20.6 2.1l-0.23 1.31c0.14 1.58 0.49 2.9 1.05 3.94l0.2 0.33c0.62-0.72 1.16-1.53 1.61-2.45h-1.68l0.17-1.2c0.37-0.49 0.79-1.13 1.25-1.94h-2.36L20.6 2.11ZM8.58 10.26c1.08 0 2.18-0.05 3.32-0.14l-0.46 1.43c-0.69 0.05-1.6 0.08-2.72 0.08l-1.8-0.03c-1.36-0.03-2.41-0.18-3.15-0.44-0.74-0.27-1.3-0.7-1.66-1.32-0.27 0.7-0.59 1.37-0.96 1.98L0 11.34c0.5-0.85 0.88-1.64 1.12-2.38 0.24-0.74 0.45-1.7 0.63-2.86h1.28C2.92 6.8 2.81 7.38 2.7 7.87 2.84 8.3 3 8.64 3.18 8.89l0.48-3.36H1.25l0.18-1.3h2.12l0.19-1.29h-1.7l0.18-1.29h1.7L4.1 0.33h1.36L5.27 1.65h1.47l-0.19 1.3H5.1L4.91 4.23h1.5L6.35 4.53c0.5-0.41 0.89-0.8 1.16-1.18 0.26-0.38 0.46-0.82 0.6-1.32H6.84L7 0.75h5.53l-0.1 0.56-0.34 1.72c-0.11 0.48-0.24 0.85-0.36 1.1-0.13 0.26-0.3 0.45-0.5 0.57-0.2 0.12-0.49 0.2-0.85 0.24C9.96 4.98 9.58 5 9.25 4.99L9.17 3.63c0.24 0.03 0.5 0.03 0.76 0.03 0.22 0 0.38-0.02 0.47-0.05 0.1-0.03 0.17-0.1 0.22-0.2 0.05-0.09 0.1-0.26 0.16-0.5l0.17-0.89H9.36C9.2 2.68 8.94 3.28 8.6 3.82c-0.34 0.56-0.82 1.1-1.43 1.63h4.57l-0.58 4.09H6.1l0.58-4.1H7l-0.68-0.6-0.1 0.7H5L4.8 7h1.3L5.94 8.35H4.6l-0.2 1.49c0.63 0.25 1.55 0.39 2.77 0.41l1.41 0.03-0.01-0.02Zm1.57-3.59H7.8L7.58 8.23h2.35l0.22-1.56Zm39.43 2.09h0.04-0.04Zm-0.27 1.11l0.27-1.11-1.39-0.32c-0.05 0.3-0.11 0.62-0.2 0.96-0.06 0.25-0.14 0.44-0.23 0.56-0.1 0.13-0.23 0.2-0.4 0.2-0.27 0.02-0.47 0.03-0.6 0.02H46.4c-0.27 0-0.44-0.08-0.52-0.21-0.08-0.13-0.1-0.38-0.04-0.75l0.38-2.76 0.57-0.03 0.83-0.06c0.15 0.21 0.3 0.47 0.47 0.78l1.3-1.08c-0.3-0.52-0.71-1.1-1.22-1.73-0.5-0.64-0.9-1.12-1.23-1.42h3.11l0.2-1.43h-4.47V1.33l-0.02-0.14V1.1c-0.02-0.05-0.02-0.1-0.02-0.14L45.67 0.5l-0.05-0.4-1.55 0.18c0.04 0.22 0.09 0.5 0.11 0.84l0.03 0.37h-4.67l-0.2 1.43h3.24L42 3.5l-0.1 0.08c-0.74 0.66-1.26 1.11-1.57 1.33-0.37 0.25-0.66 0.37-0.87 0.37l0.02 1.44c0.66 0 1.4 0 2.23-0.03L41.65 6.9c-0.12 0.46-0.26 0.85-0.43 1.2-0.16 0.35-0.37 0.66-0.63 0.93-0.3 0.32-0.66 0.6-1.1 0.87-0.43 0.27-0.98 0.52-1.62 0.78l0.73 1.33c0.72-0.34 1.33-0.67 1.85-1 0.51-0.34 0.95-0.7 1.3-1.1 0.68-0.75 1.14-1.74 1.42-2.98l0.07-0.32 0.52-0.02 0.89-0.05-0.44 3.08c-0.06 0.46-0.07 0.84-0.01 1.1 0.06 0.27 0.2 0.46 0.42 0.59 0.23 0.13 0.58 0.2 1.06 0.23l0.75 0.01c0.46 0 0.78 0 0.95-0.02 0.42-0.04 0.76-0.1 1-0.22 0.23-0.12 0.42-0.28 0.57-0.5 0.13-0.23 0.26-0.54 0.36-0.95Zm-2.66-4.84c-0.72 0.07-1.37 0.1-1.94 0.14-1.19 0.06-2.16 0.08-2.91 0.08 0.43-0.29 0.96-0.73 1.61-1.32l1.07-1.02h2.38l-1.2 0.93c0.31 0.31 0.64 0.7 0.99 1.19Z" fill="#ffffff" fill-opacity="1.0" /><path d="M27.34 11.77h-1.47l1.3-9.3h1.47l-1.3 9.3Zm8.68-9.52h-3.26L32.14 5.2l2.16-0.35-4.72 7.97 1.46-6.1-1.7 0.32 1.51-5.57h0.01l0.17-0.63h6.66l-1.26 9.03c-0.06 0.43-0.16 0.77-0.3 1.02-0.14 0.25-0.33 0.43-0.6 0.55-0.25 0.13-0.6 0.21-1.04 0.26-0.56 0.04-1.1 0.06-1.6 0.05l-0.07-1.52c0.4 0.04 0.77 0.05 1.06 0.05l0.42-0.01c0.2 0 0.33-0.03 0.42-0.05 0.08-0.03 0.14-0.08 0.17-0.15 0.04-0.08 0.07-0.2 0.1-0.4l1.03-7.43ZM27.7 1l1.13-1c0.36 0.33 0.66 0.63 0.89 0.9l0.18 0.2c0.37 0.4 0.6 0.67 0.69 0.79l-1.2 1.09c-0.17-0.27-0.44-0.62-0.82-1.05C28.2 1.5 27.91 1.2 27.7 1.01ZM13.81 4.97c0.44-0.02 0.9-0.04 1.4-0.08l0.33-0.04c-0.37 0.46-0.73 0.9-1.11 1.31C14.28 6.35 14.13 6.5 14 6.6c-0.13 0.1-0.28 0.16-0.45 0.2l0.03 1.41c0.5-0.05 1.14-0.14 1.93-0.25 0.83-0.14 1.48-0.25 1.95-0.35l0.16-1.32c-0.6 0.15-1.33 0.28-2.21 0.39 0.33-0.29 0.84-0.85 1.53-1.69 0.67-0.83 1.2-1.54 1.61-2.14l-1.05-0.6C17.2 2.67 16.9 3.1 16.57 3.55c-0.33 0.05-0.73 0.07-1.18 0.09 0.33-0.3 0.7-0.72 1.1-1.27 0.4-0.53 0.8-1.09 1.14-1.67l-1.1-0.51c-0.29 0.5-0.68 1.1-1.16 1.76-0.41 0.58-0.75 1-0.98 1.25-0.2 0.22-0.39 0.37-0.58 0.45v1.32Zm10.85 5.72c-0.9-0.54-1.67-1.2-2.3-1.96 0.86-0.98 1.6-2.14 2.24-3.48l0.2-1.31h-1.65c0.35-0.45 0.76-1.07 1.22-1.84l0.18-1.31h-5.91L18.45 2.1h0.83l-0.31 1.84c-0.28 1.51-0.64 2.75-1.05 3.73-0.26 0.59-0.6 1.18-1.02 1.77l0.04-0.8c-0.4 0.14-1.07 0.32-2.02 0.55C14.05 9.4 13.4 9.52 13 9.59l0.04 1.35c0.66-0.13 1.3-0.26 1.92-0.4l1.38-0.33-0.65 0.72 1.03 0.85c0.25-0.28 0.47-0.53 0.66-0.78l0.61 1.05c1.33-0.73 2.44-1.48 3.31-2.26 0.6 0.72 1.4 1.44 2.35 2.17l1.02-1.26v-0.01Zm-4.11-1.93l-0.1-0.16-0.08-0.12c-0.31-0.57-0.56-1.19-0.72-1.87-0.16 0.56-0.35 1.09-0.56 1.61-0.35 0.81-0.84 1.62-1.47 2.44 1.17-0.58 2.14-1.21 2.93-1.9ZM20.6 2.1l-0.23 1.31c0.14 1.58 0.49 2.9 1.05 3.94l0.2 0.33c0.62-0.72 1.16-1.53 1.61-2.45h-1.68l0.17-1.2c0.37-0.49 0.79-1.13 1.25-1.94h-2.36L20.6 2.11ZM8.58 10.26c1.08 0 2.18-0.05 3.32-0.14l-0.46 1.43c-0.69 0.05-1.6 0.08-2.72 0.08l-1.8-0.03c-1.36-0.03-2.41-0.18-3.15-0.44-0.74-0.27-1.3-0.7-1.66-1.32-0.27 0.7-0.59 1.37-0.96 1.98L0 11.34c0.5-0.85 0.88-1.64 1.12-2.38 0.24-0.74 0.45-1.7 0.63-2.86h1.28C2.92 6.8 2.81 7.38 2.7 7.87 2.84 8.3 3 8.64 3.18 8.89l0.48-3.36H1.25l0.18-1.3h2.12l0.19-1.29h-1.7l0.18-1.29h1.7L4.1 0.33h1.36L5.27 1.65h1.47l-0.19 1.3H5.1L4.91 4.23h1.5L6.35 4.53c0.5-0.41 0.89-0.8 1.16-1.18 0.26-0.38 0.46-0.82 0.6-1.32H6.84L7 0.75h5.53l-0.1 0.56-0.34 1.72c-0.11 0.48-0.24 0.85-0.36 1.1-0.13 0.26-0.3 0.45-0.5 0.57-0.2 0.12-0.49 0.2-0.85 0.24C9.96 4.98 9.58 5 9.25 4.99L9.17 3.63c0.24 0.03 0.5 0.03 0.76 0.03 0.22 0 0.38-0.02 0.47-0.05 0.1-0.03 0.17-0.1 0.22-0.2 0.05-0.09 0.1-0.26 0.16-0.5l0.17-0.89H9.36C9.2 2.68 8.94 3.28 8.6 3.82c-0.34 0.56-0.82 1.1-1.43 1.63h4.57l-0.58 4.09H6.1l0.58-4.1H7l-0.68-0.6-0.1 0.7H5L4.8 7h1.3L5.94 8.35H4.6l-0.2 1.49c0.63 0.25 1.55 0.39 2.77 0.41l1.41 0.03-0.01-0.02Zm1.57-3.59H7.8L7.58 8.23h2.35l0.22-1.56Zm39.43 2.09h0.04-0.04Zm-0.27 1.11l0.27-1.11-1.39-0.32c-0.05 0.3-0.11 0.62-0.2 0.96-0.06 0.25-0.14 0.44-0.23 0.56-0.1 0.13-0.23 0.2-0.4 0.2-0.27 0.02-0.47 0.03-0.6 0.02H46.4c-0.27 0-0.44-0.08-0.52-0.21-0.08-0.13-0.1-0.38-0.04-0.75l0.38-2.76 0.57-0.03 0.83-0.06c0.15 0.21 0.3 0.47 0.47 0.78l1.3-1.08c-0.3-0.52-0.71-1.1-1.22-1.73-0.5-0.64-0.9-1.12-1.23-1.42h3.11l0.2-1.43h-4.47V1.33l-0.02-0.14V1.1c-0.02-0.05-0.02-0.1-0.02-0.14L45.67 0.5l-0.05-0.4-1.55 0.18c0.04 0.22 0.09 0.5 0.11 0.84l0.03 0.37h-4.67l-0.2 1.43h3.24L42 3.5l-0.1 0.08c-0.74 0.66-1.26 1.11-1.57 1.33-0.37 0.25-0.66 0.37-0.87 0.37l0.02 1.44c0.66 0 1.4 0 2.23-0.03L41.65 6.9c-0.12 0.46-0.26 0.85-0.43 1.2-0.16 0.35-0.37 0.66-0.63 0.93-0.3 0.32-0.66 0.6-1.1 0.87-0.43 0.27-0.98 0.52-1.62 0.78l0.73 1.33c0.72-0.34 1.33-0.67 1.85-1 0.51-0.34 0.95-0.7 1.3-1.1 0.68-0.75 1.14-1.74 1.42-2.98l0.07-0.32 0.52-0.02 0.89-0.05-0.44 3.08c-0.06 0.46-0.07 0.84-0.01 1.1 0.06 0.27 0.2 0.46 0.42 0.59 0.23 0.13 0.58 0.2 1.06 0.23l0.75 0.01c0.46 0 0.78 0 0.95-0.02 0.42-0.04 0.76-0.1 1-0.22 0.23-0.12 0.42-0.28 0.57-0.5 0.13-0.23 0.26-0.54 0.36-0.95Zm-2.66-4.84c-0.72 0.07-1.37 0.1-1.94 0.14-1.19 0.06-2.16 0.08-2.91 0.08 0.43-0.29 0.96-0.73 1.61-1.32l1.07-1.02h2.38l-1.2 0.93c0.31 0.31 0.64 0.7 0.99 1.19Z" fill="#000000" fill-opacity="1.0" /><path d="M27.34 11.77h-1.47l1.3-9.3h1.47l-1.3 9.3Zm8.68-9.52h-3.26L32.14 5.2l2.16-0.35-4.72 7.97 1.46-6.1-1.7 0.32 1.51-5.57h0.01l0.17-0.63h6.66l-1.26 9.03c-0.06 0.43-0.16 0.77-0.3 1.02-0.14 0.25-0.33 0.43-0.6 0.55-0.25 0.13-0.6 0.21-1.04 0.26-0.56 0.04-1.1 0.06-1.6 0.05l-0.07-1.52c0.4 0.04 0.77 0.05 1.06 0.05l0.42-0.01c0.2 0 0.33-0.03 0.42-0.05 0.08-0.03 0.14-0.08 0.17-0.15 0.04-0.08 0.07-0.2 0.1-0.4l1.03-7.43ZM27.7 1l1.13-1c0.36 0.33 0.66 0.63 0.89 0.9l0.18 0.2c0.37 0.4 0.6 0.67 0.69 0.79l-1.2 1.09c-0.17-0.27-0.44-0.62-0.82-1.05C28.2 1.5 27.91 1.2 27.7 1.01ZM13.81 4.97c0.44-0.02 0.9-0.04 1.4-0.08l0.33-0.04c-0.37 0.46-0.73 0.9-1.11 1.31C14.28 6.35 14.13 6.5 14 6.6c-0.13 0.1-0.28 0.16-0.45 0.2l0.03 1.41c0.5-0.05 1.14-0.14 1.93-0.25 0.83-0.14 1.48-0.25 1.95-0.35l0.16-1.32c-0.6 0.15-1.33 0.28-2.21 0.39 0.33-0.29 0.84-0.85 1.53-1.69 0.67-0.83 1.2-1.54 1.61-2.14l-1.05-0.6C17.2 2.67 16.9 3.1 16.57 3.55c-0.33 0.05-0.73 0.07-1.18 0.09 0.33-0.3 0.7-0.72 1.1-1.27 0.4-0.53 0.8-1.09 1.14-1.67l-1.1-0.51c-0.29 0.5-0.68 1.1-1.16 1.76-0.41 0.58-0.75 1-0.98 1.25-0.2 0.22-0.39 0.37-0.58 0.45v1.32Zm10.85 5.72c-0.9-0.54-1.67-1.2-2.3-1.96 0.86-0.98 1.6-2.14 2.24-3.48l0.2-1.31h-1.65c0.35-0.45 0.76-1.07 1.22-1.84l0.18-1.31h-5.91L18.45 2.1h0.83l-0.31 1.84c-0.28 1.51-0.64 2.75-1.05 3.73-0.26 0.59-0.6 1.18-1.02 1.77l0.04-0.8c-0.4 0.14-1.07 0.32-2.02 0.55C14.05 9.4 13.4 9.52 13 9.59l0.04 1.35c0.66-0.13 1.3-0.26 1.92-0.4l1.38-0.33-0.65 0.72 1.03 0.85c0.25-0.28 0.47-0.53 0.66-0.78l0.61 1.05c1.33-0.73 2.44-1.48 3.31-2.26 0.6 0.72 1.4 1.44 2.35 2.17l1.02-1.26v-0.01Zm-4.11-1.93l-0.1-0.16-0.08-0.12c-0.31-0.57-0.56-1.19-0.72-1.87-0.16 0.56-0.35 1.09-0.56 1.61-0.35 0.81-0.84 1.62-1.47 2.44 1.17-0.58 2.14-1.21 2.93-1.9ZM20.6 2.1l-0.23 1.31c0.14 1.58 0.49 2.9 1.05 3.94l0.2 0.33c0.62-0.72 1.16-1.53 1.61-2.45h-1.68l0.17-1.2c0.37-0.49 0.79-1.13 1.25-1.94h-2.36L20.6 2.11ZM8.58 10.26c1.08 0 2.18-0.05 3.32-0.14l-0.46 1.43c-0.69 0.05-1.6 0.08-2.72 0.08l-1.8-0.03c-1.36-0.03-2.41-0.18-3.15-0.44-0.74-0.27-1.3-0.7-1.66-1.32-0.27 0.7-0.59 1.37-0.96 1.98L0 11.34c0.5-0.85 0.88-1.64 1.12-2.38 0.24-0.74 0.45-1.7 0.63-2.86h1.28C2.92 6.8 2.81 7.38 2.7 7.87 2.84 8.3 3 8.64 3.18 8.89l0.48-3.36H1.25l0.18-1.3h2.12l0.19-1.29h-1.7l0.18-1.29h1.7L4.1 0.33h1.36L5.27 1.65h1.47l-0.19 1.3H5.1L4.91 4.23h1.5L6.35 4.53c0.5-0.41 0.89-0.8 1.16-1.18 0.26-0.38 0.46-0.82 0.6-1.32H6.84L7 0.75h5.53l-0.1 0.56-0.34 1.72c-0.11 0.48-0.24 0.85-0.36 1.1-0.13 0.26-0.3 0.45-0.5 0.57-0.2 0.12-0.49 0.2-0.85 0.24C9.96 4.98 9.58 5 9.25 4.99L9.17 3.63c0.24 0.03 0.5 0.03 0.76 0.03 0.22 0 0.38-0.02 0.47-0.05 0.1-0.03 0.17-0.1 0.22-0.2 0.05-0.09 0.1-0.26 0.16-0.5l0.17-0.89H9.36C9.2 2.68 8.94 3.28 8.6 3.82c-0.34 0.56-0.82 1.1-1.43 1.63h4.57l-0.58 4.09H6.1l0.58-4.1H7l-0.68-0.6-0.1 0.7H5L4.8 7h1.3L5.94 8.35H4.6l-0.2 1.49c0.63 0.25 1.55 0.39 2.77 0.41l1.41 0.03-0.01-0.02Zm1.57-3.59H7.8L7.58 8.23h2.35l0.22-1.56Zm39.43 2.09h0.04-0.04Zm-0.27 1.11l0.27-1.11-1.39-0.32c-0.05 0.3-0.11 0.62-0.2 0.96-0.06 0.25-0.14 0.44-0.23 0.56-0.1 0.13-0.23 0.2-0.4 0.2-0.27 0.02-0.47 0.03-0.6 0.02H46.4c-0.27 0-0.44-0.08-0.52-0.21-0.08-0.13-0.1-0.38-0.04-0.75l0.38-2.76 0.57-0.03 0.83-0.06c0.15 0.21 0.3 0.47 0.47 0.78l1.3-1.08c-0.3-0.52-0.71-1.1-1.22-1.73-0.5-0.64-0.9-1.12-1.23-1.42h3.11l0.2-1.43h-4.47V1.33l-0.02-0.14V1.1c-0.02-0.05-0.02-0.1-0.02-0.14L45.67 0.5l-0.05-0.4-1.55 0.18c0.04 0.22 0.09 0.5 0.11 0.84l0.03 0.37h-4.67l-0.2 1.43h3.24L42 3.5l-0.1 0.08c-0.74 0.66-1.26 1.11-1.57 1.33-0.37 0.25-0.66 0.37-0.87 0.37l0.02 1.44c0.66 0 1.4 0 2.23-0.03L41.65 6.9c-0.12 0.46-0.26 0.85-0.43 1.2-0.16 0.35-0.37 0.66-0.63 0.93-0.3 0.32-0.66 0.6-1.1 0.87-0.43 0.27-0.98 0.52-1.62 0.78l0.73 1.33c0.72-0.34 1.33-0.67 1.85-1 0.51-0.34 0.95-0.7 1.3-1.1 0.68-0.75 1.14-1.74 1.42-2.98l0.07-0.32 0.52-0.02 0.89-0.05-0.44 3.08c-0.06 0.46-0.07 0.84-0.01 1.1 0.06 0.27 0.2 0.46 0.42 0.59 0.23 0.13 0.58 0.2 1.06 0.23l0.75 0.01c0.46 0 0.78 0 0.95-0.02 0.42-0.04 0.76-0.1 1-0.22 0.23-0.12 0.42-0.28 0.57-0.5 0.13-0.23 0.26-0.54 0.36-0.95Zm-2.66-4.84c-0.72 0.07-1.37 0.1-1.94 0.14-1.19 0.06-2.16 0.08-2.91 0.08 0.43-0.29 0.96-0.73 1.61-1.32l1.07-1.02h2.38l-1.2 0.93c0.31 0.31 0.64 0.7 0.99 1.19Z" fill="#ffffff" fill-opacity="0.2" /></svg>