<?xml version="1.0" encoding="utf-8" ?>
<svg baseProfile="full" height="16.0" version="1.1" viewBox="0 0 63.0 16.0" width="63.0" xmlns="http://www.w3.org/2000/svg" xmlns:ev="http://www.w3.org/2001/xml-events" xmlns:xlink="http://www.w3.org/1999/xlink"><defs /><path d="M33.87 14.67h-1.8l1.6-11.6h1.82l-1.62 11.6ZM44.64 2.8H40.6l-0.77 3.7 2.68-0.44L36.66 16l1.81-7.6-2.12 0.4 1.88-6.95h0.01l0.21-0.79h8.26l-1.57 11.26c-0.07 0.53-0.2 0.96-0.37 1.27-0.18 0.3-0.41 0.53-0.73 0.69-0.33 0.15-0.75 0.26-1.3 0.32-0.7 0.05-1.36 0.07-1.98 0.06l-0.1-1.89c0.52 0.04 0.96 0.06 1.32 0.06 0.24 0 0.42 0 0.52-0.02 0.24 0 0.42-0.03 0.52-0.06 0.1-0.03 0.18-0.1 0.22-0.19 0.04-0.09 0.08-0.25 0.11-0.5l1.29-9.26ZM34.32 1.25L35.72 0c0.44 0.41 0.82 0.79 1.1 1.12l0.21 0.24c0.47 0.52 0.76 0.85 0.86 1L36.41 3.7c-0.22-0.33-0.55-0.77-1.01-1.3-0.46-0.55-0.81-0.93-1.1-1.15l0.02-0.01ZM17.12 6.2c0.54-0.02 1.12-0.05 1.72-0.1l0.42-0.06c-0.46 0.58-0.91 1.13-1.38 1.65-0.19 0.22-0.36 0.4-0.53 0.52C17.2 8.34 17 8.41 16.8 8.47l0.03 1.76c0.63-0.06 1.42-0.18 2.4-0.32 1.02-0.17 1.83-0.31 2.42-0.44l0.19-1.64c-0.74 0.19-1.65 0.35-2.74 0.49 0.42-0.37 1.05-1.07 1.9-2.11 0.83-1.04 1.49-1.92 2-2.67l-1.3-0.75c-0.36 0.54-0.73 1.08-1.16 1.64-0.41 0.05-0.9 0.08-1.46 0.1 0.4-0.37 0.86-0.9 1.36-1.58 0.5-0.66 0.98-1.35 1.42-2.07l-1.36-0.64c-0.36 0.63-0.85 1.36-1.44 2.2-0.52 0.71-0.93 1.23-1.22 1.55-0.25 0.28-0.48 0.46-0.72 0.55V6.2Zm13.44 7.13c-1.12-0.68-2.07-1.5-2.86-2.44 1.07-1.23 2-2.68 2.78-4.34l0.25-1.64h-2.05c0.44-0.56 0.95-1.33 1.52-2.3l0.22-1.63H23.1l-0.23 1.65h1.03l-0.39 2.3c-0.35 1.88-0.78 3.43-1.3 4.65-0.32 0.73-0.74 1.46-1.25 2.2l0.04-0.98c-0.5 0.16-1.33 0.38-2.5 0.67-1.09 0.25-1.88 0.4-2.4 0.48l0.05 1.69c0.82-0.16 1.62-0.32 2.38-0.5l1.71-0.41-0.8 0.9 1.28 1.05c0.3-0.34 0.58-0.66 0.82-0.96l0.75 1.3c1.65-0.9 3.02-1.85 4.1-2.82 0.75 0.9 1.72 1.8 2.92 2.7l1.25-1.57Zm-5.1-2.41l-0.12-0.2-0.1-0.15c-0.39-0.7-0.69-1.48-0.9-2.33-0.2 0.7-0.43 1.36-0.69 2-0.43 1.02-1.04 2.03-1.81 3.06 1.45-0.74 2.65-1.52 3.62-2.37v-0.01Zm0.06-8.29l-0.29 1.64c0.18 1.97 0.62 3.6 1.31 4.9l0.24 0.42c0.78-0.9 1.45-1.91 2-3.06h-2.07l0.2-1.49c0.46-0.6 0.98-1.41 1.56-2.42h-2.93l-0.02 0.01ZM10.62 12.8c1.34 0 2.71-0.06 4.12-0.17l-0.57 1.78c-0.85 0.07-1.97 0.1-3.37 0.1l-2.23-0.03c-1.68-0.05-2.99-0.23-3.9-0.56-0.92-0.33-1.6-0.88-2.05-1.65-0.34 0.88-0.73 1.71-1.2 2.47L0 14.13c0.62-1.05 1.09-2.04 1.39-2.96 0.3-0.92 0.56-2.1 0.77-3.56h1.6C3.62 8.47 3.48 9.2 3.35 9.8c0.17 0.53 0.37 0.97 0.6 1.28l0.59-4.2h-3l0.23-1.61H4.4l0.23-1.61H2.52l0.23-1.61h2.1L5.1 0.4h1.67L6.54 2.06h1.8l-0.22 1.6H6.31L6.08 5.29h1.85L7.88 5.64c0.62-0.5 1.1-0.99 1.43-1.47 0.33-0.47 0.58-1.02 0.75-1.64H8.47L8.7 0.94h6.85l-0.13 0.7-0.42 2.14c-0.14 0.6-0.3 1.06-0.45 1.38-0.15 0.32-0.37 0.55-0.62 0.7-0.25 0.14-0.6 0.25-1.04 0.3-0.54 0.05-1 0.07-1.42 0.06l-0.1-1.7c0.3 0.04 0.61 0.05 0.95 0.05 0.27 0 0.46-0.03 0.58-0.07 0.11-0.04 0.2-0.12 0.27-0.24 0.06-0.12 0.12-0.33 0.2-0.64l0.21-1.1H11.6c-0.2 0.82-0.53 1.57-0.95 2.25-0.43 0.69-1.02 1.36-1.77 2.02h5.65l-0.71 5.1H7.56l0.72-5.1h0.4L7.84 6.03 7.72 6.9H6.2L5.96 8.72h1.62L7.34 10.4H5.72l-0.26 1.86c0.79 0.31 1.93 0.49 3.44 0.52l1.75 0.03-0.02-0.02Zm1.96-4.47H9.66L9.4 10.26h2.9l0.28-1.94Zm48.86 2.6v-0.01l0.04 0.02-0.04-0.01ZM61.1 12.3l0.33-1.38-1.72-0.4c-0.06 0.38-0.14 0.77-0.25 1.2-0.08 0.32-0.17 0.54-0.29 0.7-0.11 0.15-0.28 0.24-0.5 0.26-0.33 0.02-0.58 0.03-0.73 0.02h-0.47c-0.33-0.01-0.55-0.1-0.64-0.27-0.1-0.17-0.11-0.48-0.05-0.93l0.48-3.44 0.7-0.04 1.02-0.08c0.2 0.26 0.38 0.58 0.59 0.98l1.6-1.36c-0.36-0.64-0.87-1.36-1.5-2.15-0.61-0.8-1.12-1.4-1.52-1.76H62l0.25-1.8h-5.54l-0.01-0.2L56.7 1.5l-0.02-0.13-0.02-0.17-0.07-0.57-0.06-0.5-1.92 0.23c0.06 0.27 0.1 0.62 0.14 1.04l0.04 0.47h-5.8l-0.24 1.79h4.02l-0.73 0.7-0.11 0.1c-0.92 0.83-1.57 1.39-1.96 1.66-0.45 0.3-0.82 0.46-1.07 0.46l0.03 1.8c0.8 0 1.73-0.01 2.75-0.04l-0.07 0.29c-0.15 0.56-0.32 1.06-0.53 1.5-0.2 0.43-0.47 0.81-0.79 1.15-0.36 0.4-0.81 0.76-1.35 1.09-0.54 0.33-1.22 0.65-2.01 0.97l0.9 1.65c0.89-0.41 1.66-0.83 2.3-1.25 0.63-0.41 1.17-0.87 1.61-1.35 0.83-0.94 1.41-2.18 1.75-3.72 0.04-0.1 0.07-0.24 0.09-0.4l0.65-0.04 1.1-0.06L54.79 12c-0.08 0.58-0.1 1.05-0.02 1.38 0.07 0.33 0.25 0.57 0.53 0.73 0.28 0.17 0.71 0.26 1.3 0.3h0.93c0.57 0 0.97 0 1.19-0.03 0.51-0.04 0.93-0.12 1.23-0.27 0.29-0.14 0.53-0.35 0.7-0.63 0.17-0.28 0.32-0.67 0.46-1.18Zm-3.3-6.03c-0.9 0.08-1.7 0.13-2.4 0.18-1.48 0.07-2.68 0.1-3.61 0.1 0.52-0.36 1.19-0.92 2-1.65l1.32-1.27h2.95l-1.5 1.15c0.4 0.4 0.8 0.9 1.23 1.5Z" fill="#ffffff" fill-opacity="1.0" /><path d="M33.87 14.67h-1.8l1.6-11.6h1.82l-1.62 11.6ZM44.64 2.8H40.6l-0.77 3.7 2.68-0.44L36.66 16l1.81-7.6-2.12 0.4 1.88-6.95h0.01l0.21-0.79h8.26l-1.57 11.26c-0.07 0.53-0.2 0.96-0.37 1.27-0.18 0.3-0.41 0.53-0.73 0.69-0.33 0.15-0.75 0.26-1.3 0.32-0.7 0.05-1.36 0.07-1.98 0.06l-0.1-1.89c0.52 0.04 0.96 0.06 1.32 0.06 0.24 0 0.42 0 0.52-0.02 0.24 0 0.42-0.03 0.52-0.06 0.1-0.03 0.18-0.1 0.22-0.19 0.04-0.09 0.08-0.25 0.11-0.5l1.29-9.26ZM34.32 1.25L35.72 0c0.44 0.41 0.82 0.79 1.1 1.12l0.21 0.24c0.47 0.52 0.76 0.85 0.86 1L36.41 3.7c-0.22-0.33-0.55-0.77-1.01-1.3-0.46-0.55-0.81-0.93-1.1-1.15l0.02-0.01ZM17.12 6.2c0.54-0.02 1.12-0.05 1.72-0.1l0.42-0.06c-0.46 0.58-0.91 1.13-1.38 1.65-0.19 0.22-0.36 0.4-0.53 0.52C17.2 8.34 17 8.41 16.8 8.47l0.03 1.76c0.63-0.06 1.42-0.18 2.4-0.32 1.02-0.17 1.83-0.31 2.42-0.44l0.19-1.64c-0.74 0.19-1.65 0.35-2.74 0.49 0.42-0.37 1.05-1.07 1.9-2.11 0.83-1.04 1.49-1.92 2-2.67l-1.3-0.75c-0.36 0.54-0.73 1.08-1.16 1.64-0.41 0.05-0.9 0.08-1.46 0.1 0.4-0.37 0.86-0.9 1.36-1.58 0.5-0.66 0.98-1.35 1.42-2.07l-1.36-0.64c-0.36 0.63-0.85 1.36-1.44 2.2-0.52 0.71-0.93 1.23-1.22 1.55-0.25 0.28-0.48 0.46-0.72 0.55V6.2Zm13.44 7.13c-1.12-0.68-2.07-1.5-2.86-2.44 1.07-1.23 2-2.68 2.78-4.34l0.25-1.64h-2.05c0.44-0.56 0.95-1.33 1.52-2.3l0.22-1.63H23.1l-0.23 1.65h1.03l-0.39 2.3c-0.35 1.88-0.78 3.43-1.3 4.65-0.32 0.73-0.74 1.46-1.25 2.2l0.04-0.98c-0.5 0.16-1.33 0.38-2.5 0.67-1.09 0.25-1.88 0.4-2.4 0.48l0.05 1.69c0.82-0.16 1.62-0.32 2.38-0.5l1.71-0.41-0.8 0.9 1.28 1.05c0.3-0.34 0.58-0.66 0.82-0.96l0.75 1.3c1.65-0.9 3.02-1.85 4.1-2.82 0.75 0.9 1.72 1.8 2.92 2.7l1.25-1.57Zm-5.1-2.41l-0.12-0.2-0.1-0.15c-0.39-0.7-0.69-1.48-0.9-2.33-0.2 0.7-0.43 1.36-0.69 2-0.43 1.02-1.04 2.03-1.81 3.06 1.45-0.74 2.65-1.52 3.62-2.37v-0.01Zm0.06-8.29l-0.29 1.64c0.18 1.97 0.62 3.6 1.31 4.9l0.24 0.42c0.78-0.9 1.45-1.91 2-3.06h-2.07l0.2-1.49c0.46-0.6 0.98-1.41 1.56-2.42h-2.93l-0.02 0.01ZM10.62 12.8c1.34 0 2.71-0.06 4.12-0.17l-0.57 1.78c-0.85 0.07-1.97 0.1-3.37 0.1l-2.23-0.03c-1.68-0.05-2.99-0.23-3.9-0.56-0.92-0.33-1.6-0.88-2.05-1.65-0.34 0.88-0.73 1.71-1.2 2.47L0 14.13c0.62-1.05 1.09-2.04 1.39-2.96 0.3-0.92 0.56-2.1 0.77-3.56h1.6C3.62 8.47 3.48 9.2 3.35 9.8c0.17 0.53 0.37 0.97 0.6 1.28l0.59-4.2h-3l0.23-1.61H4.4l0.23-1.61H2.52l0.23-1.61h2.1L5.1 0.4h1.67L6.54 2.06h1.8l-0.22 1.6H6.31L6.08 5.29h1.85L7.88 5.64c0.62-0.5 1.1-0.99 1.43-1.47 0.33-0.47 0.58-1.02 0.75-1.64H8.47L8.7 0.94h6.85l-0.13 0.7-0.42 2.14c-0.14 0.6-0.3 1.06-0.45 1.38-0.15 0.32-0.37 0.55-0.62 0.7-0.25 0.14-0.6 0.25-1.04 0.3-0.54 0.05-1 0.07-1.42 0.06l-0.1-1.7c0.3 0.04 0.61 0.05 0.95 0.05 0.27 0 0.46-0.03 0.58-0.07 0.11-0.04 0.2-0.12 0.27-0.24 0.06-0.12 0.12-0.33 0.2-0.64l0.21-1.1H11.6c-0.2 0.82-0.53 1.57-0.95 2.25-0.43 0.69-1.02 1.36-1.77 2.02h5.65l-0.71 5.1H7.56l0.72-5.1h0.4L7.84 6.03 7.72 6.9H6.2L5.96 8.72h1.62L7.34 10.4H5.72l-0.26 1.86c0.79 0.31 1.93 0.49 3.44 0.52l1.75 0.03-0.02-0.02Zm1.96-4.47H9.66L9.4 10.26h2.9l0.28-1.94Zm48.86 2.6v-0.01l0.04 0.02-0.04-0.01ZM61.1 12.3l0.33-1.38-1.72-0.4c-0.06 0.38-0.14 0.77-0.25 1.2-0.08 0.32-0.17 0.54-0.29 0.7-0.11 0.15-0.28 0.24-0.5 0.26-0.33 0.02-0.58 0.03-0.73 0.02h-0.47c-0.33-0.01-0.55-0.1-0.64-0.27-0.1-0.17-0.11-0.48-0.05-0.93l0.48-3.44 0.7-0.04 1.02-0.08c0.2 0.26 0.38 0.58 0.59 0.98l1.6-1.36c-0.36-0.64-0.87-1.36-1.5-2.15-0.61-0.8-1.12-1.4-1.52-1.76H62l0.25-1.8h-5.54l-0.01-0.2L56.7 1.5l-0.02-0.13-0.02-0.17-0.07-0.57-0.06-0.5-1.92 0.23c0.06 0.27 0.1 0.62 0.14 1.04l0.04 0.47h-5.8l-0.24 1.79h4.02l-0.73 0.7-0.11 0.1c-0.92 0.83-1.57 1.39-1.96 1.66-0.45 0.3-0.82 0.46-1.07 0.46l0.03 1.8c0.8 0 1.73-0.01 2.75-0.04l-0.07 0.29c-0.15 0.56-0.32 1.06-0.53 1.5-0.2 0.43-0.47 0.81-0.79 1.15-0.36 0.4-0.81 0.76-1.35 1.09-0.54 0.33-1.22 0.65-2.01 0.97l0.9 1.65c0.89-0.41 1.66-0.83 2.3-1.25 0.63-0.41 1.17-0.87 1.61-1.35 0.83-0.94 1.41-2.18 1.75-3.72 0.04-0.1 0.07-0.24 0.09-0.4l0.65-0.04 1.1-0.06L54.79 12c-0.08 0.58-0.1 1.05-0.02 1.38 0.07 0.33 0.25 0.57 0.53 0.73 0.28 0.17 0.71 0.26 1.3 0.3h0.93c0.57 0 0.97 0 1.19-0.03 0.51-0.04 0.93-0.12 1.23-0.27 0.29-0.14 0.53-0.35 0.7-0.63 0.17-0.28 0.32-0.67 0.46-1.18Zm-3.3-6.03c-0.9 0.08-1.7 0.13-2.4 0.18-1.48 0.07-2.68 0.1-3.61 0.1 0.52-0.36 1.19-0.92 2-1.65l1.32-1.27h2.95l-1.5 1.15c0.4 0.4 0.8 0.9 1.23 1.5Z" fill="#000000" fill-opacity="1.0" /><path d="M33.87 14.67h-1.8l1.6-11.6h1.82l-1.62 11.6ZM44.64 2.8H40.6l-0.77 3.7 2.68-0.44L36.66 16l1.81-7.6-2.12 0.4 1.88-6.95h0.01l0.21-0.79h8.26l-1.57 11.26c-0.07 0.53-0.2 0.96-0.37 1.27-0.18 0.3-0.41 0.53-0.73 0.69-0.33 0.15-0.75 0.26-1.3 0.32-0.7 0.05-1.36 0.07-1.98 0.06l-0.1-1.89c0.52 0.04 0.96 0.06 1.32 0.06 0.24 0 0.42 0 0.52-0.02 0.24 0 0.42-0.03 0.52-0.06 0.1-0.03 0.18-0.1 0.22-0.19 0.04-0.09 0.08-0.25 0.11-0.5l1.29-9.26ZM34.32 1.25L35.72 0c0.44 0.41 0.82 0.79 1.1 1.12l0.21 0.24c0.47 0.52 0.76 0.85 0.86 1L36.41 3.7c-0.22-0.33-0.55-0.77-1.01-1.3-0.46-0.55-0.81-0.93-1.1-1.15l0.02-0.01ZM17.12 6.2c0.54-0.02 1.12-0.05 1.72-0.1l0.42-0.06c-0.46 0.58-0.91 1.13-1.38 1.65-0.19 0.22-0.36 0.4-0.53 0.52C17.2 8.34 17 8.41 16.8 8.47l0.03 1.76c0.63-0.06 1.42-0.18 2.4-0.32 1.02-0.17 1.83-0.31 2.42-0.44l0.19-1.64c-0.74 0.19-1.65 0.35-2.74 0.49 0.42-0.37 1.05-1.07 1.9-2.11 0.83-1.04 1.49-1.92 2-2.67l-1.3-0.75c-0.36 0.54-0.73 1.08-1.16 1.64-0.41 0.05-0.9 0.08-1.46 0.1 0.4-0.37 0.86-0.9 1.36-1.58 0.5-0.66 0.98-1.35 1.42-2.07l-1.36-0.64c-0.36 0.63-0.85 1.36-1.44 2.2-0.52 0.71-0.93 1.23-1.22 1.55-0.25 0.28-0.48 0.46-0.72 0.55V6.2Zm13.44 7.13c-1.12-0.68-2.07-1.5-2.86-2.44 1.07-1.23 2-2.68 2.78-4.34l0.25-1.64h-2.05c0.44-0.56 0.95-1.33 1.52-2.3l0.22-1.63H23.1l-0.23 1.65h1.03l-0.39 2.3c-0.35 1.88-0.78 3.43-1.3 4.65-0.32 0.73-0.74 1.46-1.25 2.2l0.04-0.98c-0.5 0.16-1.33 0.38-2.5 0.67-1.09 0.25-1.88 0.4-2.4 0.48l0.05 1.69c0.82-0.16 1.62-0.32 2.38-0.5l1.71-0.41-0.8 0.9 1.28 1.05c0.3-0.34 0.58-0.66 0.82-0.96l0.75 1.3c1.65-0.9 3.02-1.85 4.1-2.82 0.75 0.9 1.72 1.8 2.92 2.7l1.25-1.57Zm-5.1-2.41l-0.12-0.2-0.1-0.15c-0.39-0.7-0.69-1.48-0.9-2.33-0.2 0.7-0.43 1.36-0.69 2-0.43 1.02-1.04 2.03-1.81 3.06 1.45-0.74 2.65-1.52 3.62-2.37v-0.01Zm0.06-8.29l-0.29 1.64c0.18 1.97 0.62 3.6 1.31 4.9l0.24 0.42c0.78-0.9 1.45-1.91 2-3.06h-2.07l0.2-1.49c0.46-0.6 0.98-1.41 1.56-2.42h-2.93l-0.02 0.01ZM10.62 12.8c1.34 0 2.71-0.06 4.12-0.17l-0.57 1.78c-0.85 0.07-1.97 0.1-3.37 0.1l-2.23-0.03c-1.68-0.05-2.99-0.23-3.9-0.56-0.92-0.33-1.6-0.88-2.05-1.65-0.34 0.88-0.73 1.71-1.2 2.47L0 14.13c0.62-1.05 1.09-2.04 1.39-2.96 0.3-0.92 0.56-2.1 0.77-3.56h1.6C3.62 8.47 3.48 9.2 3.35 9.8c0.17 0.53 0.37 0.97 0.6 1.28l0.59-4.2h-3l0.23-1.61H4.4l0.23-1.61H2.52l0.23-1.61h2.1L5.1 0.4h1.67L6.54 2.06h1.8l-0.22 1.6H6.31L6.08 5.29h1.85L7.88 5.64c0.62-0.5 1.1-0.99 1.43-1.47 0.33-0.47 0.58-1.02 0.75-1.64H8.47L8.7 0.94h6.85l-0.13 0.7-0.42 2.14c-0.14 0.6-0.3 1.06-0.45 1.38-0.15 0.32-0.37 0.55-0.62 0.7-0.25 0.14-0.6 0.25-1.04 0.3-0.54 0.05-1 0.07-1.42 0.06l-0.1-1.7c0.3 0.04 0.61 0.05 0.95 0.05 0.27 0 0.46-0.03 0.58-0.07 0.11-0.04 0.2-0.12 0.27-0.24 0.06-0.12 0.12-0.33 0.2-0.64l0.21-1.1H11.6c-0.2 0.82-0.53 1.57-0.95 2.25-0.43 0.69-1.02 1.36-1.77 2.02h5.65l-0.71 5.1H7.56l0.72-5.1h0.4L7.84 6.03 7.72 6.9H6.2L5.96 8.72h1.62L7.34 10.4H5.72l-0.26 1.86c0.79 0.31 1.93 0.49 3.44 0.52l1.75 0.03-0.02-0.02Zm1.96-4.47H9.66L9.4 10.26h2.9l0.28-1.94Zm48.86 2.6v-0.01l0.04 0.02-0.04-0.01ZM61.1 12.3l0.33-1.38-1.72-0.4c-0.06 0.38-0.14 0.77-0.25 1.2-0.08 0.32-0.17 0.54-0.29 0.7-0.11 0.15-0.28 0.24-0.5 0.26-0.33 0.02-0.58 0.03-0.73 0.02h-0.47c-0.33-0.01-0.55-0.1-0.64-0.27-0.1-0.17-0.11-0.48-0.05-0.93l0.48-3.44 0.7-0.04 1.02-0.08c0.2 0.26 0.38 0.58 0.59 0.98l1.6-1.36c-0.36-0.64-0.87-1.36-1.5-2.15-0.61-0.8-1.12-1.4-1.52-1.76H62l0.25-1.8h-5.54l-0.01-0.2L56.7 1.5l-0.02-0.13-0.02-0.17-0.07-0.57-0.06-0.5-1.92 0.23c0.06 0.27 0.1 0.62 0.14 1.04l0.04 0.47h-5.8l-0.24 1.79h4.02l-0.73 0.7-0.11 0.1c-0.92 0.83-1.57 1.39-1.96 1.66-0.45 0.3-0.82 0.46-1.07 0.46l0.03 1.8c0.8 0 1.73-0.01 2.75-0.04l-0.07 0.29c-0.15 0.56-0.32 1.06-0.53 1.5-0.2 0.43-0.47 0.81-0.79 1.15-0.36 0.4-0.81 0.76-1.35 1.09-0.54 0.33-1.22 0.65-2.01 0.97l0.9 1.65c0.89-0.41 1.66-0.83 2.3-1.25 0.63-0.41 1.17-0.87 1.61-1.35 0.83-0.94 1.41-2.18 1.75-3.72 0.04-0.1 0.07-0.24 0.09-0.4l0.65-0.04 1.1-0.06L54.79 12c-0.08 0.58-0.1 1.05-0.02 1.38 0.07 0.33 0.25 0.57 0.53 0.73 0.28 0.17 0.71 0.26 1.3 0.3h0.93c0.57 0 0.97 0 1.19-0.03 0.51-0.04 0.93-0.12 1.23-0.27 0.29-0.14 0.53-0.35 0.7-0.63 0.17-0.28 0.32-0.67 0.46-1.18Zm-3.3-6.03c-0.9 0.08-1.7 0.13-2.4 0.18-1.48 0.07-2.68 0.1-3.61 0.1 0.52-0.36 1.19-0.92 2-1.65l1.32-1.27h2.95l-1.5 1.15c0.4 0.4 0.8 0.9 1.23 1.5Z" fill="#ffffff" fill-opacity="0.2" /></svg>