<?xml version="1.0" encoding="utf-8" ?>
<svg baseProfile="full" height="16.0" version="1.1" viewBox="0 0 102.0 16.0" width="102.0" xmlns="http://www.w3.org/2000/svg" xmlns:ev="http://www.w3.org/2001/xml-events" xmlns:xlink="http://www.w3.org/1999/xlink"><defs /><path d="M16.3 12.95c-0.45 0.72-1.05 1.3-1.75 1.69-0.65 0.37-1.26 0.43-1.9 0.43-1.2 0-1.89-0.5-2.4-1.08-0.49-0.56-0.97-1.7-0.97-2.93 0-0.36 0.02-0.72 0.08-1.08l1.36-8.85h1.08l-1.36 8.82c-0.06 0.3-0.09 0.61-0.09 0.92 0 0.92 0.15 1.64 0.63 2.2 0.23 0.29 0.52 0.51 0.83 0.66 0.31 0.15 0.65 0.22 0.99 0.2 0.8 0 1.46-0.34 2.16-1.05 0.7-0.72 1.06-1.73 1.26-3l1.35-8.76h1.13l-1.36 8.85c-0.16 1.03-0.56 2.21-1.04 2.98Z" fill="#ffffff" fill-opacity="1.0" /><path d="M25.9 2c0.54 0.58 0.81 1.38 0.81 2.4 0 0.9-0.18 1.8-0.56 2.59-0.36 0.77-0.9 1.42-1.55 1.87-0.67 0.46-1.45 0.7-2.23 0.68h-2.4l-0.82 5.34h-1.13l2.1-13.76h3.53c0.96 0 1.7 0.3 2.25 0.88Zm-1.85 5.91c0.48-0.33 0.86-0.8 1.11-1.37 0.27-0.61 0.4-1.28 0.39-1.96 0-0.74-0.2-1.31-0.58-1.72-0.39-0.42-0.94-0.62-1.64-0.62h-2.24L20.15 8.4h2.23c0.59 0.02 1.16-0.15 1.67-0.49Z" fill="#ffffff" fill-opacity="1.0" /><path d="M29.2 2.28l-0.72 4.8h5.18l-0.18 1.15H28.3l-0.84 5.5h5.52l-0.17 1.15h-6.67l2.11-13.76h6.67l-0.18 1.16H29.2Z" fill="#ffffff" fill-opacity="1.0" /><path d="M42.79 6.46c-0.3 0.7-0.75 1.3-1.3 1.73-0.58 0.44-1.25 0.7-1.94 0.74l2.92 5.95h-1.39L38.3 8.94h-2.16l-0.91 5.94H34.1l2.1-13.76h4.3c0.88 0 1.56 0.27 2.04 0.82 0.48 0.54 0.72 1.27 0.72 2.2 0 0.8-0.15 1.6-0.46 2.32Zm-6.5 1.36h3.02c0.53 0.02 1.05-0.14 1.5-0.47 0.4-0.31 0.74-0.75 0.95-1.27 0.22-0.55 0.34-1.15 0.33-1.75 0-0.66-0.16-1.18-0.49-1.54-0.32-0.36-0.8-0.55-1.43-0.55h-3.01l-0.87 5.58Z" fill="#ffffff" fill-opacity="1.0" /><path d="M64.35 10.66c-0.56 1.32-1.4 2.44-2.46 3.26-1.05 0.82-2.3 1.25-3.58 1.23-0.97 0-1.8-0.22-2.52-0.67-0.7-0.44-1.27-1.12-1.63-1.93-0.38-0.84-0.57-1.8-0.57-2.92 0-1.49 0.29-2.96 0.86-4.3 0.56-1.3 1.4-2.43 2.45-3.25 1.06-0.82 2.32-1.26 3.6-1.24 0.96 0 1.79 0.23 2.5 0.68 0.7 0.44 1.27 1.11 1.64 1.93 0.39 0.83 0.58 1.8 0.58 2.92 0 1.49-0.3 2.96-0.87 4.3Zm-7.4 1.07c0.42 0.6 1 0.9 1.74 0.9 0.76 0.02 1.5-0.3 2.05-0.9 0.6-0.64 1.04-1.42 1.32-2.3 0.29-0.86 0.44-1.77 0.44-2.7 0-1.03-0.21-1.85-0.64-2.46-0.42-0.6-1-0.9-1.75-0.9-0.76-0.02-1.49 0.31-2.04 0.91-0.6 0.63-1.05 1.42-1.32 2.3-0.29 0.86-0.44 1.77-0.45 2.7 0 1.03 0.22 1.85 0.64 2.45Z" fill="#ffffff" fill-opacity="1.0" /><path d="M76.29 10.66c-0.56 1.32-1.4 2.44-2.45 3.26-1.06 0.82-2.3 1.25-3.58 1.23-0.97 0-1.81-0.22-2.52-0.67-0.7-0.44-1.27-1.12-1.64-1.93-0.38-0.84-0.57-1.8-0.57-2.92 0-1.49 0.3-2.96 0.87-4.3 0.55-1.3 1.4-2.43 2.45-3.25 1.06-0.82 2.31-1.26 3.6-1.24 0.95 0 1.78 0.23 2.5 0.68 0.7 0.44 1.27 1.11 1.64 1.93 0.38 0.83 0.57 1.8 0.57 2.92 0 1.49-0.3 2.96-0.87 4.3Zm-7.4 1.07c0.42 0.6 1 0.9 1.75 0.9 0.76 0.02 1.5-0.3 2.04-0.9 0.6-0.64 1.05-1.42 1.32-2.3 0.29-0.86 0.44-1.77 0.45-2.7 0-1.03-0.22-1.85-0.64-2.46-0.43-0.6-1.01-0.9-1.75-0.91-0.77-0.01-1.5 0.32-2.05 0.91-0.6 0.64-1.04 1.43-1.31 2.3-0.3 0.86-0.45 1.78-0.45 2.7 0 1.04 0.2 1.86 0.64 2.46Z" fill="#ffffff" fill-opacity="1.0" /><path d="M51.72 1.12l-1.7 4.63 2.05-0.4-5.38 8.25 1.68-6.1-1.99 0.44 1.6-6.82h-3.75l1.8 13.82h3.41l6.02-13.82h-3.74Z" fill="#ffffff" fill-opacity="1.0" /><path d="M81.94 4.27c0.56-0.6 1.3-0.92 2.07-0.91 0.6 0 1.08 0.18 1.43 0.53 0.35 0.36 0.56 0.88 0.63 1.58h2.64c-0.07-1.5-0.65-3.01-1.47-3.73-0.7-0.6-1.63-0.9-2.8-0.9-1.28-0.02-2.55 0.4-3.62 1.23-1.06 0.81-1.9 1.93-2.47 3.24-0.58 1.33-0.89 2.8-0.88 4.3 0 1.12 0.2 2.1 0.57 2.93 0.38 0.82 0.96 1.5 1.67 1.94 0.72 0.45 1.58 0.67 2.55 0.67 1.17 0 2.22-0.24 3.07-0.9 2.08-1.61 2.57-3.72 2.57-3.72l-2.6 0.02c-0.6 1.4-1.5 2.09-2.72 2.09-0.75 0-1.34-0.3-1.76-0.9-0.43-0.61-0.64-1.44-0.64-2.48 0-0.93 0.15-1.84 0.44-2.7 0.28-0.88 0.73-1.66 1.32-2.29Z" fill="#ffffff" fill-opacity="1.0" /><path d="M5.01 7.07C4.18 6.83 3.6 6.55 3.25 6.23c-0.17-0.15-0.3-0.35-0.4-0.57-0.09-0.23-0.13-0.47-0.12-0.72C2.73 4 3 3.3 3.53 2.8c0.54-0.48 1.24-0.72 2.11-0.72 1.16 0 1.9 0.47 2.2 1.41h1.15C8.94 3.12 8.83 2.75 8.65 2.43 8.48 2.1 8.25 1.82 7.97 1.6 7.41 1.14 6.68 0.91 5.81 0.9c-0.73 0-1.46 0.18-2.13 0.52C3.06 1.74 2.52 2.25 2.13 2.9c-0.4 0.68-0.6 1.48-0.58 2.3C1.54 5.54 1.6 5.9 1.72 6.22c0.12 0.33 0.3 0.63 0.54 0.86 0.48 0.5 1.23 0.88 2.25 1.15C5.41 8.5 6.03 8.8 6.4 9.16c0.18 0.17 0.32 0.4 0.42 0.65 0.1 0.25 0.14 0.52 0.13 0.8 0.02 0.62-0.13 1.25-0.42 1.78-0.28 0.5-0.68 0.9-1.16 1.14-0.51 0.27-1.07 0.4-1.64 0.4-0.76 0-1.37-0.2-1.82-0.6-0.35-0.3-0.61-0.72-0.74-1.2H0c0.06 0.43 0.18 0.85 0.38 1.22 0.2 0.38 0.46 0.7 0.76 0.96 0.61 0.52 1.41 0.78 2.4 0.78 0.8 0 1.58-0.2 2.3-0.59 0.68-0.37 1.25-0.95 1.67-1.67 0.42-0.75 0.63-1.62 0.62-2.5 0-0.83-0.25-1.5-0.74-2.02C6.89 7.79 6.1 7.38 5 7.07Z" fill="#ffffff" fill-opacity="1.0" /><path d="M89.22 9.96h1.73v4.62h0.62V9.96h1.72V9.38h-4.07v0.58Zm5.81-0.58h-1.05v5.2h0.61V10h0.03l1.75 4.58h0.69l1.8-4.62h0.03v4.62h0.62v-5.2h-1.04l-1.74 4.54-1.7-4.54Z" fill="#ffffff" fill-opacity="1.0" /></svg>