<?xml version="1.0" encoding="utf-8" ?>
<svg baseProfile="full" height="24.0" version="1.1" viewBox="0 0 24.0 24.0" width="24.0" xmlns="http://www.w3.org/2000/svg" xmlns:ev="http://www.w3.org/2001/xml-events" xmlns:xlink="http://www.w3.org/1999/xlink"><defs /><path d="M5.46 10.5l12.9-10.45c0.18-0.16 0.45 0.1 0.31 0.3l-4.89 7.17h5.1c0.19 0 0.3 0.23 0.17 0.36l-4.96 5.24h4.24c0.2 0 0.31 0.26 0.15 0.39L5.6 23.95c-0.19 0.16-0.46-0.1-0.32-0.3l5-7.33H5.74c-0.19 0-0.3-0.22-0.17-0.36l4.6-5.08H5.62c-0.2 0-0.3-0.26-0.15-0.38Z" fill="#ffffff" fill-opacity="1.0" /><path d="M5.46 10.5l12.9-10.45c0.18-0.16 0.45 0.1 0.31 0.3l-4.89 7.17h5.1c0.19 0 0.3 0.23 0.17 0.36l-4.96 5.24h4.24c0.2 0 0.31 0.26 0.15 0.39L5.6 23.95c-0.19 0.16-0.46-0.1-0.32-0.3l5-7.33H5.74c-0.19 0-0.3-0.22-0.17-0.36l4.6-5.08H5.62c-0.2 0-0.3-0.26-0.15-0.38Z" fill="#000000" fill-opacity="1.0" /><path d="M5.46 10.5l12.9-10.45c0.18-0.16 0.45 0.1 0.31 0.3l-4.89 7.17h5.1c0.19 0 0.3 0.23 0.17 0.36l-4.96 5.24h4.24c0.2 0 0.31 0.26 0.15 0.39L5.6 23.95c-0.19 0.16-0.46-0.1-0.32-0.3l5-7.33H5.74c-0.19 0-0.3-0.22-0.17-0.36l4.6-5.08H5.62c-0.2 0-0.3-0.26-0.15-0.38Z" fill="#000000" fill-opacity="1.0" /></svg>