<?xml version="1.0" encoding="utf-8" ?>
<svg baseProfile="full" height="13.0" version="1.1" viewBox="0 0 53.0 13.0" width="53.0" xmlns="http://www.w3.org/2000/svg" xmlns:ev="http://www.w3.org/2001/xml-events" xmlns:xlink="http://www.w3.org/1999/xlink"><defs /><path d="M28.7 11.77h-1.45l1.3-9.3H30l-1.3 9.3Zm8.63-9.52H34.1l-0.62 2.97 2.16-0.36-4.7 7.97 1.46-6.1-1.7 0.32 1.5-5.57h0.01l0.17-0.63H39l-1.25 9.03c-0.06 0.43-0.16 0.77-0.3 1.02-0.14 0.25-0.33 0.43-0.59 0.55-0.26 0.13-0.6 0.21-1.04 0.26-0.55 0.04-1.09 0.06-1.58 0.05l-0.08-1.52c0.4 0.04 0.76 0.05 1.06 0.05l0.41-0.01c0.2 0 0.33-0.03 0.42-0.05 0.08-0.03 0.14-0.08 0.17-0.15 0.03-0.08 0.07-0.2 0.1-0.4l1.02-7.43ZM29.06 1l1.12-1c0.36 0.33 0.66 0.63 0.88 0.9l0.17 0.2c0.38 0.4 0.61 0.67 0.7 0.79l-1.2 1.09c-0.17-0.27-0.43-0.62-0.8-1.05-0.37-0.44-0.66-0.74-0.88-0.92Zm-13.8 3.97c0.44-0.02 0.9-0.04 1.39-0.08l0.33-0.04c-0.37 0.46-0.73 0.9-1.1 1.31-0.16 0.19-0.3 0.33-0.43 0.43-0.13 0.1-0.28 0.16-0.45 0.2l0.02 1.41c0.5-0.05 1.14-0.14 1.92-0.25 0.83-0.14 1.47-0.25 1.95-0.35l0.15-1.32c-0.6 0.15-1.32 0.28-2.2 0.39 0.34-0.29 0.84-0.85 1.52-1.69 0.67-0.83 1.2-1.54 1.6-2.14l-1.04-0.6C18.64 2.67 18.34 3.1 18 3.55c-0.33 0.05-0.72 0.07-1.17 0.09 0.32-0.3 0.69-0.72 1.09-1.27 0.4-0.53 0.79-1.09 1.13-1.67L17.97 0.2c-0.3 0.5-0.69 1.1-1.16 1.76-0.41 0.58-0.75 1-0.98 1.25-0.2 0.22-0.38 0.37-0.57 0.45v1.32h-0.01Zm10.78 5.72c-0.9-0.54-1.66-1.2-2.3-1.96 0.86-0.98 1.61-2.14 2.24-3.48l0.2-1.31h-1.64c0.35-0.45 0.75-1.07 1.21-1.84l0.18-1.31h-5.88L19.87 2.1h0.82l-0.3 1.84c-0.29 1.51-0.64 2.75-1.05 3.73-0.26 0.59-0.6 1.18-1 1.77l0.02-0.8c-0.4 0.14-1.06 0.32-2 0.55-0.87 0.2-1.5 0.32-1.92 0.39l0.04 1.35c0.65-0.13 1.3-0.26 1.9-0.4l1.38-0.33-0.65 0.72 1.03 0.85c0.25-0.28 0.47-0.53 0.66-0.78l0.6 1.05c1.32-0.73 2.42-1.48 3.3-2.26 0.6 0.72 1.37 1.44 2.33 2.17l1-1.26h0.01v-0.01ZM21.86 8.6l-0.08-0.12c-0.32-0.57-0.56-1.19-0.72-1.87C20.9 7.17 20.7 7.7 20.5 8.22c-0.35 0.81-0.83 1.62-1.45 2.44 1.16-0.58 2.12-1.21 2.9-1.9l-0.1-0.16ZM22 2.11l-0.23 1.31c0.14 1.58 0.5 2.9 1.05 3.94L23 7.69c0.62-0.72 1.16-1.53 1.61-2.45h-1.67l0.17-1.2c0.36-0.49 0.78-1.13 1.24-1.94h-2.35v0.01Zm-11.94 8.15c1.07 0 2.16-0.05 3.3-0.14l-0.46 1.43c-0.68 0.05-1.58 0.08-2.7 0.08L8.4 11.6c-1.34-0.03-2.4-0.18-3.12-0.44-0.74-0.27-1.29-0.7-1.65-1.32-0.27 0.7-0.59 1.37-0.96 1.98l-1.14-0.48c0.5-0.85 0.87-1.64 1.11-2.38C2.9 8.22 3.1 7.26 3.27 6.1h1.28C4.43 6.8 4.32 7.38 4.2 7.87 4.36 8.3 4.51 8.64 4.7 8.89l0.47-3.36h-2.4l0.18-1.3h2.11l0.19-1.29h-1.7l0.18-1.29h1.7L5.6 0.33h1.35L6.77 1.65h1.46l-0.19 1.3H6.6L6.41 4.23H7.9L7.85 4.53C8.35 4.12 8.73 3.73 9 3.35c0.27-0.38 0.47-0.82 0.6-1.32H8.33L8.5 0.75H14l-0.11 0.56-0.34 1.72c-0.1 0.48-0.23 0.85-0.35 1.1-0.13 0.26-0.3 0.45-0.5 0.57-0.2 0.12-0.48 0.2-0.84 0.24-0.43 0.04-0.8 0.06-1.14 0.05l-0.07-1.36c0.24 0.03 0.49 0.03 0.75 0.03 0.22 0 0.38-0.02 0.47-0.05 0.09-0.03 0.16-0.1 0.21-0.2 0.05-0.09 0.1-0.26 0.16-0.5l0.18-0.89h-1.58c-0.17 0.66-0.43 1.26-0.77 1.8-0.34 0.56-0.81 1.1-1.42 1.63h4.54L12.6 9.54H7.6l0.57-4.1h0.32l-0.67-0.6-0.1 0.7H6.51L6.3 7h1.3L7.42 8.35h-1.3L5.9 9.84c0.63 0.25 1.55 0.39 2.76 0.41l1.4 0.03-0.01-0.02Zm1.56-3.59H9.28L9.07 8.23h2.33l0.22-1.56ZM50.8 8.76h0.03-0.03Zm-0.27 1.11l0.27-1.11-1.38-0.32c-0.05 0.3-0.12 0.62-0.2 0.96C49.16 9.65 49.1 9.84 49 9.96c-0.1 0.13-0.23 0.2-0.4 0.2-0.27 0.02-0.47 0.03-0.59 0.02h-0.37c-0.27 0-0.44-0.08-0.52-0.21-0.08-0.13-0.09-0.38-0.04-0.75l0.38-2.76 0.57-0.03 0.82-0.06c0.15 0.21 0.3 0.47 0.46 0.78l1.3-1.08c-0.3-0.52-0.7-1.1-1.21-1.73-0.5-0.64-0.9-1.12-1.22-1.42h3.09l0.2-1.43h-4.45V1.33L47 1.19V1.1l-0.02-0.14-0.06-0.45-0.05-0.4-1.54 0.18c0.05 0.22 0.09 0.5 0.11 0.84l0.04 0.37h-4.65l-0.2 1.43h3.23L43.27 3.5l-0.09 0.08c-0.74 0.66-1.26 1.11-1.57 1.33-0.36 0.25-0.65 0.37-0.86 0.37l0.02 1.44c0.65 0 1.4 0 2.21-0.03L42.93 6.9c-0.12 0.46-0.26 0.85-0.43 1.2-0.16 0.35-0.37 0.66-0.63 0.93-0.3 0.32-0.66 0.6-1.09 0.87-0.43 0.27-0.97 0.52-1.61 0.78l0.72 1.33c0.72-0.34 1.33-0.67 1.85-1 0.5-0.34 0.94-0.7 1.3-1.1 0.66-0.75 1.12-1.74 1.4-2.98 0.02-0.08 0.05-0.19 0.06-0.32l0.53-0.02 0.88-0.05-0.43 3.08c-0.07 0.46-0.08 0.84-0.02 1.1 0.06 0.27 0.2 0.46 0.42 0.59 0.23 0.13 0.58 0.2 1.05 0.23l0.75 0.01c0.45 0 0.77 0 0.94-0.02 0.42-0.04 0.75-0.1 1-0.22 0.23-0.12 0.42-0.28 0.56-0.5 0.13-0.23 0.26-0.54 0.36-0.95ZM47.9 5.03c-0.71 0.07-1.35 0.1-1.92 0.14-1.18 0.06-2.15 0.08-2.9 0.08 0.43-0.29 0.96-0.73 1.6-1.32l1.07-1.02h2.37l-1.2 0.93c0.31 0.31 0.64 0.7 0.98 1.19Z" fill="#ffffff" fill-opacity="1.0" /></svg>