<?xml version="1.0" encoding="utf-8" ?>
<svg baseProfile="full" height="42.0" version="1.1" viewBox="0 0 42.0 42.0" width="42.0" xmlns="http://www.w3.org/2000/svg" xmlns:ev="http://www.w3.org/2001/xml-events" xmlns:xlink="http://www.w3.org/1999/xlink"><defs /><path d="M21,21m-21,0a21,21 0,1 1,42 0a21,21 0,1 1,-42 0" fill="#262626" fill-opacity="1.0" /><path d="M21,21m-21,0a21,21 0,1 1,42 0a21,21 0,1 1,-42 0" fill="#525252" fill-opacity="1.0" /><path d="M21.001,22.46C21.807,22.46 22.46,21.807 22.46,21.001C22.46,20.196 21.807,19.543 21.001,19.543C20.196,19.543 19.543,20.196 19.543,21.001C19.543,21.807 20.196,22.46 21.001,22.46Z" fill="#ffffff" fill-opacity="0.8980392156862745" /><path d="M21.001,16.522C21.807,16.522 22.46,15.869 22.46,15.064C22.46,14.258 21.807,13.606 21.001,13.606C20.196,13.606 19.543,14.258 19.543,15.064C19.543,15.869 20.196,16.522 21.001,16.522Z" fill="#ffffff" fill-opacity="0.8980392156862745" /><path d="M21.001,28.397C21.807,28.397 22.46,27.744 22.46,26.939C22.46,26.133 21.807,25.48 21.001,25.48C20.196,25.48 19.543,26.133 19.543,26.939C19.543,27.744 20.196,28.397 21.001,28.397Z" fill="#ffffff" fill-opacity="0.8980392156862745" /></svg>