<?xml version="1.0" encoding="utf-8" ?>
<svg baseProfile="full" height="42.0" version="1.1" viewBox="0 0 42.0 42.0" width="42.0" xmlns="http://www.w3.org/2000/svg" xmlns:ev="http://www.w3.org/2001/xml-events" xmlns:xlink="http://www.w3.org/1999/xlink"><defs /><path d="M21,21m-21,0a21,21 0,1 1,42 0a21,21 0,1 1,-42 0" fill="#272828" fill-opacity="1.0" /><path d="M21,22.458C21.806,22.458 22.459,21.805 22.459,21C22.459,20.194 21.806,19.542 21,19.542C20.195,19.542 19.542,20.194 19.542,21C19.542,21.805 20.195,22.458 21,22.458Z" fill="#ffffff" fill-opacity="1.0" /><path d="M21,16.521C21.806,16.521 22.459,15.868 22.459,15.062C22.459,14.257 21.806,13.604 21,13.604C20.195,13.604 19.542,14.257 19.542,15.062C19.542,15.868 20.195,16.521 21,16.521Z" fill="#ffffff" fill-opacity="1.0" /><path d="M21,28.396C21.806,28.396 22.459,27.743 22.459,26.937C22.459,26.132 21.806,25.479 21,25.479C20.195,25.479 19.542,26.132 19.542,26.937C19.542,27.743 20.195,28.396 21,28.396Z" fill="#ffffff" fill-opacity="1.0" /></svg>