<?xml version="1.0" encoding="utf-8" ?>
<svg baseProfile="full" height="12.0" version="1.1" viewBox="0 0 36.0 36.0" width="12.0" xmlns="http://www.w3.org/2000/svg" xmlns:ev="http://www.w3.org/2001/xml-events" xmlns:xlink="http://www.w3.org/1999/xlink"><defs /><path d="M-3,-3h42v42h-42z" fill="#d8d8d8" fill-opacity="1.0" /><path d="M11.5375,1.5C7.9504,1.5 6.6286,1.8205 5.3116,2.5248C4.1102,3.1673 3.1673,4.1102 2.5248,5.3116C1.8205,6.6286 1.5,7.9504 1.5,11.5375L1.5,24.4625C1.5,28.0496 1.8205,29.3714 2.5248,30.6884C3.1673,31.8898 4.1102,32.8327 5.3116,33.4752C6.6286,34.1795 7.9504,34.5 11.5375,34.5L24.4625,34.5C28.0496,34.5 29.3714,34.1795 30.6884,33.4752C31.8898,32.8327 32.8327,31.8898 33.4752,30.6884C34.1795,29.3714 34.5,28.0496 34.5,24.4625L34.5,11.5375C34.5,7.9504 34.1795,6.6286 33.4752,5.3116C32.8327,4.1102 31.8898,3.1673 30.6884,2.5248C29.3714,1.8205 28.0496,1.5 24.4625,1.5L11.5375,1.5Z" fill="#000000" fill-opacity="0.0" /></svg>