<?xml version="1.0" encoding="utf-8" ?>
<svg baseProfile="full" height="24.0" version="1.1" viewBox="0 0 24.0 24.0" width="24.0" xmlns="http://www.w3.org/2000/svg" xmlns:ev="http://www.w3.org/2001/xml-events" xmlns:xlink="http://www.w3.org/1999/xlink"><defs /><path d="M-3.5 8.5 C-3.5,8.5 -3.5,10 -3.5,10 C-3.5,10 0,9 0,9 C0,9 3.5,10 3.5,10 C3.5,10 3.5,8.5 3.5,8.5 C3.5,8.5 1.5,7 1.5,7 C1.5,7 1.5,1.5 1.5,1.5 C1.5,1.5 10,4 10,4 C10,4 10,2 10,2 C10,2 1.5,-3 1.5,-3 C1.5,-3 1.5,-8.02 1.5,-8.02 C1.5,-8.44 1.2,-9.52 0,-9.52 C-1.19,-9.52 -1.5,-8.44 -1.5,-8.02 C-1.5,-8.02 -1.5,-3 -1.5,-3 C-1.5,-3 -10,2 -10,2 C-10,2 -10,4 -10,4 C-10,4 -1.5,1.5 -1.5,1.5 C-1.5,1.5 -1.5,7 -1.5,7 C-1.5,7 -3.5,8.5 -3.5,8.5c" fill="#000000" fill-opacity="1.0" /></svg>