<?xml version="1.0" encoding="utf-8" ?>
<svg baseProfile="full" height="24.0" version="1.1" viewBox="0 0 32.0 24.0" width="32.0" xmlns="http://www.w3.org/2000/svg" xmlns:ev="http://www.w3.org/2001/xml-events" xmlns:xlink="http://www.w3.org/1999/xlink"><defs /><path d="M0 12c0-4.97 4.03-9 9-9h14c4.97 0 9 4.03 9 9v0c0 4.97-4.03 9-9 9h-14c-4.97 0-9-4.03-9-9z" fill="#0066ff" fill-opacity="1.0" /><path d="M12.4 9.23c0.96-0.94 2.23-1.46 3.6-1.46 1.35 0 2.64 0.53 3.6 1.48 0.16 0.16 0.42 0.16 0.58 0 0.16-0.16 0.16-0.42 0-0.58-1.12-1.1-2.61-1.72-4.19-1.72-1.57 0-3.05 0.6-4.16 1.7-0.16 0.16-0.16 0.42 0 0.58 0.16 0.16 0.42 0.16 0.58 0Zm1.58 1.62c0.53-0.53 1.25-0.82 2.01-0.82 0.77 0 1.49 0.3 2.03 0.83 0.17 0.16 0.42 0.16 0.58 0 0.16-0.16 0.16-0.42 0-0.58C17.9 9.59 16.98 9.2 16 9.2s-1.91 0.38-2.6 1.06c-0.16 0.16-0.16 0.42 0 0.58 0.16 0.16 0.42 0.16 0.58 0ZM16 11.34c-0.34 0-0.66 0.12-0.9 0.33-0.09 0.08-0.14 0.18-0.14 0.3 0 0.1 0.04 0.22 0.12 0.3l0.63 0.63c0.16 0.16 0.42 0.16 0.58 0l0.63-0.63c0.08-0.08 0.13-0.2 0.12-0.3 0-0.12-0.05-0.22-0.14-0.3-0.24-0.21-0.56-0.33-0.9-0.33Zm-4.5 1.5h3.25l0.5 0.52c0.42 0.4 1.08 0.4 1.5 0l0.5-0.51h3.25 0.05c0.22 0 0.42 0 0.6 0.07 0.15 0.06 0.3 0.16 0.4 0.29 0.12 0.14 0.18 0.33 0.25 0.54l0.02 0.05 0.58 1.73v0.02l0.14 0.43c0.03 0.13 0.05 0.27 0 0.42-0.05 0.21-0.18 0.4-0.36 0.51-0.13 0.09-0.27 0.11-0.4 0.13h-0.46-0.01-10.62-0.01-0.46C10.1 17.02 9.96 17 9.82 16.9c-0.18-0.11-0.31-0.3-0.37-0.5-0.04-0.16-0.02-0.3 0.01-0.43l0.14-0.43v-0.02l0.58-1.73 0.02-0.05c0.07-0.2 0.13-0.4 0.25-0.54 0.1-0.13 0.25-0.23 0.4-0.3 0.18-0.06 0.38-0.06 0.6-0.06h0.05Z" fill="#ffffff" fill-opacity="1.0" /></svg>