<?xml version="1.0" encoding="utf-8" ?>
<svg baseProfile="full" height="20.0" version="1.1" viewBox="0 0 20.0 20.0" width="20.0" xmlns="http://www.w3.org/2000/svg" xmlns:ev="http://www.w3.org/2001/xml-events" xmlns:xlink="http://www.w3.org/1999/xlink"><defs /><path d="M9.1363,2.95973 C9.27435,2.76663,9.28163,2.50913,9.1547,2.30854 C9.02777,2.10796,8.79195,2.00429,8.55834,2.04638 C4.78199,2.72672,1.91699,6.02886,1.91699,10.0014 C1.91699,14.4657,5.53602,18.0847,10.0003,18.0847 C13.9734,18.0847,17.276,15.2188,17.9556,11.4416 C17.9977,11.208,17.8939,10.9722,17.6933,10.8453 C17.4927,10.7184,17.2352,10.7258,17.0421,10.8639 C16.1142,11.5276,14.9783,11.918,13.7495,11.918 C10.6199,11.918,8.08285,9.38098,8.08285,6.25136 C8.08285,5.02298,8.47303,3.88747,9.1363,2.95973 Z" fill="#0066ff" fill-opacity="1.0" /></svg>