<?xml version="1.0" encoding="utf-8" ?>
<svg baseProfile="full" height="38.0" version="1.1" viewBox="0 0 38.0 38.0" width="38.0" xmlns="http://www.w3.org/2000/svg" xmlns:ev="http://www.w3.org/2001/xml-events" xmlns:xlink="http://www.w3.org/1999/xlink"><defs /><path d="M15.631,0.301C14.296,0.542 12.988,0.925 11.729,1.446C9.424,2.401 7.329,3.801 5.565,5.565C3.801,7.329 2.401,9.424 1.446,11.729C0.491,14.034 0,16.505 0,19C0,21.495 0.491,23.966 1.446,26.271C2.401,28.576 3.801,30.671 5.565,32.435C7.329,34.199 9.424,35.599 11.729,36.554C14.034,37.508 16.505,38 19,38C21.495,38 23.966,37.509 26.271,36.554C28.576,35.599 30.671,34.199 32.435,32.435C34.199,30.671 35.599,28.576 36.554,26.271C37.508,23.966 38,21.495 38,19C38,16.505 37.509,14.034 36.554,11.729C35.599,9.424 34.199,7.329 32.435,5.565C30.671,3.801 28.576,2.401 26.271,1.446C25.354,1.066 24.411,0.76 23.45,0.529C23.424,0.702 23.358,0.875 23.245,1.036L21.964,2.87C23.097,3.078 24.207,3.406 25.276,3.848C27.266,4.673 29.074,5.881 30.597,7.403C32.119,8.926 33.327,10.734 34.152,12.724C34.976,14.714 35.4,16.846 35.4,19C35.4,21.154 34.976,23.286 34.152,25.276C33.327,27.266 32.119,29.074 30.597,30.597C29.074,32.119 27.266,33.327 25.276,34.152C23.286,34.976 21.154,35.4 19,35.4C16.846,35.4 14.714,34.976 12.724,34.152C10.734,33.327 8.926,32.119 7.403,30.597C5.881,29.074 4.673,27.266 3.848,25.276C3.024,23.286 2.6,21.154 2.6,19C2.6,16.846 3.024,14.714 3.848,12.724C4.673,10.734 5.881,8.926 7.403,7.403C8.926,5.881 10.734,4.673 12.724,3.848C13.438,3.553 14.17,3.309 14.915,3.117C14.511,2.733 14.388,2.08 14.755,1.556L15.631,0.301Z" fill="#00bd13" fill-opacity="1.0" /></svg>