<?xml version="1.0" encoding="utf-8" ?>
<svg baseProfile="full" height="38.0" version="1.1" viewBox="0 0 38.0 38.0" width="38.0" xmlns="http://www.w3.org/2000/svg" xmlns:ev="http://www.w3.org/2001/xml-events" xmlns:xlink="http://www.w3.org/1999/xlink"><defs /><path d="M15.634,0.297C6.746,1.886 0,9.655 0,19C0,29.493 8.507,38 19,38C29.493,38 38,29.493 38,19C38,10.039 31.797,2.528 23.451,0.524C23.425,0.699 23.359,0.874 23.245,1.036L21.966,2.867C29.608,4.263 35.4,10.955 35.4,19C35.4,28.058 28.058,35.4 19,35.4C9.943,35.4 2.6,28.058 2.6,19C2.6,11.354 7.832,4.931 14.911,3.114C14.51,2.729 14.389,2.078 14.755,1.556L15.634,0.297Z" fill="#000000" fill-opacity="1.0" /><path d="M21.964,2.87C22.675,3.001 23.378,3.179 24.068,3.403C24.751,3.625 25.484,3.251 25.706,2.568C25.928,1.885 25.554,1.152 24.871,0.93C24.402,0.778 23.928,0.644 23.45,0.529C23.424,0.702 23.358,0.875 23.245,1.036L21.964,2.87Z" fill="#00bd13" fill-opacity="1.0" /></svg>