<?xml version="1.0" encoding="utf-8" ?>
<svg baseProfile="full" height="24.0" version="1.1" viewBox="0 0 24.0 24.0" width="24.0" xmlns="http://www.w3.org/2000/svg" xmlns:ev="http://www.w3.org/2001/xml-events" xmlns:xlink="http://www.w3.org/1999/xlink"><defs /><path d="M19.23,3.691C20.322,4.782 21.187,6.078 21.778,7.503C22.368,8.929 22.672,10.457 22.672,12C22.672,13.543 22.368,15.071 21.778,16.496C21.187,17.922 20.322,19.217 19.23,20.308L18.17,19.248C19.122,18.296 19.877,17.166 20.392,15.922C20.907,14.679 21.172,13.346 21.172,12C21.172,10.654 20.907,9.321 20.392,8.077C19.877,6.834 19.122,5.704 18.17,4.752L19.23,3.691ZM15.67,6.873C16.343,7.546 16.877,8.346 17.241,9.225C17.606,10.105 17.793,11.048 17.793,12C17.793,12.952 17.606,13.894 17.241,14.774C16.877,15.654 16.343,16.453 15.67,17.126L16.73,18.187C17.543,17.374 18.188,16.41 18.627,15.348C19.067,14.287 19.293,13.149 19.293,12C19.293,10.851 19.067,9.713 18.627,8.651C18.188,7.59 17.543,6.625 16.73,5.813L15.67,6.873ZM15.477,9.8C15.188,9.102 14.764,8.469 14.231,7.935L13.17,8.995C13.564,9.39 13.878,9.858 14.091,10.374C14.305,10.89 14.415,11.442 14.415,12C14.415,12.559 14.305,13.111 14.091,13.627C13.878,14.142 13.564,14.611 13.17,15.006L14.231,16.066C14.764,15.532 15.188,14.899 15.477,14.201C15.766,13.503 15.915,12.755 15.915,12C15.915,11.245 15.766,10.498 15.477,9.8ZM11.867,4.708C11.867,4.03 11.076,3.659 10.555,4.093L5.868,7.999C5.853,8.011 5.834,8.018 5.815,8.018H2.784C2.364,8.018 1.961,8.185 1.664,8.482C1.367,8.779 1.2,9.181 1.2,9.601V14.601C1.2,15.021 1.367,15.424 1.664,15.721C1.961,16.018 2.364,16.184 2.784,16.184H5.815C5.834,16.185 5.853,16.192 5.868,16.204L10.555,20.109C11.076,20.543 11.867,20.173 11.867,19.494V4.708Z" fill="#ffffff" fill-opacity="1.0" /></svg>