<?xml version="1.0" encoding="utf-8" ?>
<svg baseProfile="full" height="24.0" version="1.1" viewBox="0 0 24.0 24.0" width="24.0" xmlns="http://www.w3.org/2000/svg" xmlns:ev="http://www.w3.org/2001/xml-events" xmlns:xlink="http://www.w3.org/1999/xlink"><defs /><path d="M12.17,3.644C12.742,3.18 13.596,3.587 13.596,4.323V19.676C13.596,20.414 12.739,20.82 12.167,20.354L7.135,16.247C7.12,16.235 7.1,16.228 7.08,16.228H4.126C3.208,16.228 2.464,15.483 2.464,14.565V9.404C2.464,8.486 3.208,7.742 4.126,7.742H7.082C7.102,7.742 7.121,7.735 7.137,7.722L12.17,3.644ZM16.19,8.482C16.76,8.876 17.225,9.401 17.546,10.014C17.868,10.627 18.035,11.308 18.035,12C18.035,12.692 17.868,13.374 17.546,13.986C17.225,14.599 16.76,15.125 16.19,15.518L15.295,14.222C15.655,13.974 15.948,13.642 16.151,13.255C16.354,12.868 16.46,12.437 16.46,12C16.46,11.563 16.354,11.133 16.151,10.745C15.948,10.358 15.655,10.026 15.295,9.778L16.19,8.482Z" fill="#ffffff" fill-opacity="1.0" /></svg>