<?xml version="1.0" encoding="utf-8" ?>
<svg baseProfile="full" height="120.0" version="1.1" viewBox="0 0 168.0 120.0" width="168.0" xmlns="http://www.w3.org/2000/svg" xmlns:ev="http://www.w3.org/2001/xml-events" xmlns:xlink="http://www.w3.org/1999/xlink"><defs /><path d="M73.118,55.365L45,27.247C60.53,11.717 85.706,11.717 101.236,27.247L73.118,55.365Z" fill="#43484c" fill-opacity="1.0" /><path d="M109.78,105.6C110.852,103.262 111.773,100.266 111.773,96.826C111.773,88.555 106.278,78.919 106.278,78.919L90.007,80.897V105.595H109.78V105.6Z" fill="#2d41ea" fill-opacity="1.0" /><path d="M105.149,35.326L96.629,37.6L99.526,48.453L108.046,46.18L105.149,35.326Z" fill="#ce876e" fill-opacity="1.0" /><path d="M98.698,39.28C102.282,39.28 105.187,36.375 105.187,32.792C105.187,29.208 102.282,26.303 98.698,26.303C95.115,26.303 92.21,29.208 92.21,32.792C92.21,36.375 95.115,39.28 98.698,39.28Z" fill="#ce876e" fill-opacity="1.0" /><path d="M92.638,35.109L91.683,37.584C91.6,37.803 91.678,38.047 91.873,38.174L93.115,38.972L93.797,41.33C94.051,42.197 94.981,42.675 95.834,42.368L100.125,40.809L98.615,35.153L92.638,35.109Z" fill="#ce876e" fill-opacity="1.0" /><path d="M91.912,33.166C91.927,34.16 93.671,32.265 94.411,31.598C95.356,32.864 96.642,33.897 98.182,34.262C99.721,34.628 101.382,34.423 102.79,33.712C102.649,34.608 102.6,35.631 102.931,36.479C103.263,37.326 104.032,38.052 104.938,38.101C104.938,38.101 110.024,31.11 104.505,26.916C98.986,22.722 91.81,26.273 91.912,33.166Z" fill="#292b33" fill-opacity="1.0" /><path d="M101.699,35.485C102.77,35.485 103.638,34.617 103.638,33.546C103.638,32.475 102.77,31.607 101.699,31.607C100.628,31.607 99.76,32.475 99.76,33.546C99.76,34.617 100.628,35.485 101.699,35.485Z" fill="#ce876e" fill-opacity="1.0" /><path d="M91.644,28.197C95.104,28.197 97.909,25.392 97.909,21.933C97.909,18.473 95.104,15.668 91.644,15.668C88.184,15.668 85.379,18.473 85.379,21.933C85.379,25.392 88.184,28.197 91.644,28.197Z" fill="#292b33" fill-opacity="1.0" /><path d="M87.498,26.302C85.744,24.997 84.653,22.844 84.634,20.661L87.498,26.302Z" fill="#292b33" fill-opacity="1.0" /><path d="M87.498,26.302C85.744,24.997 84.653,22.844 84.634,20.661" fill="#000000" fill-opacity="0.0" /><path d="M99.029,46.797L92.409,56.491C91.157,58.327 90.494,60.5 90.509,62.721L90.592,73.668L90.007,80.897L106.278,78.919C107.802,74.915 109.488,69.215 110.068,62.22C110.623,55.536 109.683,49.101 108.908,44.999C105.951,45.228 101.986,46.568 99.029,46.797Z" fill="#edccca" fill-opacity="1.0" /><path d="M78.885,65.064L70.351,61.376C69.966,61.211 69.79,60.768 69.956,60.383C70.122,59.998 70.565,59.822 70.95,59.988L79.485,63.676C79.87,63.841 80.045,64.285 79.879,64.67C79.714,65.054 79.27,65.23 78.885,65.064Z" fill="#292b33" fill-opacity="1.0" /><path d="M96.394,73.384L87.099,67.977L83.703,64.012C83.319,63.564 82.788,63.262 82.203,63.159L78.545,62.531C78.325,62.492 78.116,62.633 78.067,62.847C78.018,63.052 78.131,63.257 78.33,63.33L79.251,63.671C79.416,63.729 79.509,63.905 79.47,64.075C79.431,64.236 79.285,64.348 79.124,64.343L74.073,64.182C73.639,64.168 73.352,64.631 73.551,65.015L73.771,65.434L74.034,66.287C74.233,66.93 74.677,67.47 75.266,67.787L75.592,67.963L75.724,68.567C75.831,69.059 76.158,69.478 76.611,69.706L77.176,69.989C77.156,70.398 77.434,70.764 77.833,70.851L82.403,71.874L98.254,83.259C101.236,85.402 105.415,83.483 105.737,79.825L107.067,64.64C103.827,64.465 100.583,63.914 97.343,63.671L96.394,73.384Z" fill="#ce876e" fill-opacity="1.0" /><path d="M89.754,69.088L87.377,76.152L97.982,83.693C98.893,84.341 99.989,84.691 101.11,84.691C103.94,84.691 106.288,82.504 106.488,79.684L107.608,64.08L96.867,63.325L95.965,72.581L89.754,69.088Z" fill="#edccca" fill-opacity="1.0" /></svg>