<?xml version="1.0" encoding="utf-8" ?>
<svg baseProfile="full" height="121.0" version="1.1" viewBox="0 0 168.0 121.0" width="168.0" xmlns="http://www.w3.org/2000/svg" xmlns:ev="http://www.w3.org/2001/xml-events" xmlns:xlink="http://www.w3.org/1999/xlink"><defs /><path d="M69.459,21.313H49.555L39.6,38.555L49.555,55.796H69.459L79.413,38.555L69.459,21.313Z" fill="#43484c" fill-opacity="1.0" /><path d="M128.507,47.291H99.047V76.751H128.507V47.291Z" fill="#43484c" fill-opacity="1.0" /><path d="M52.875,38.36H66.138" fill="#000000" fill-opacity="0.0" /><path d="M107.078,61.1H120.342" fill="#000000" fill-opacity="0.0" /><path d="M102.755,42.575C111.923,42.575 119.355,35.143 119.355,25.975C119.355,16.807 111.923,9.375 102.755,9.375C93.587,9.375 86.155,16.807 86.155,25.975C86.155,35.143 93.587,42.575 102.755,42.575Z" fill="#43484c" fill-opacity="1.0" /><path d="M85.929,36.501C85.271,36.501 84.738,35.714 84.738,34.75C84.738,33.785 85.271,32.998 85.929,32.998C86.586,32.998 87.12,33.785 87.12,34.75C87.12,35.731 86.597,36.501 85.929,36.501ZM85.929,33.284C85.438,33.284 85.018,33.957 85.018,34.75C85.018,35.547 85.433,36.216 85.929,36.216C86.425,36.216 86.834,35.542 86.834,34.75C86.84,33.952 86.425,33.284 85.929,33.284Z" fill="#292b33" fill-opacity="1.0" /><path d="M96.127,25.976H109.39" fill="#000000" fill-opacity="0.0" /><path d="M80.68,29.7C83.364,29.7 85.547,31.878 85.547,34.567C85.547,34.739 85.536,34.912 85.52,35.079L86.204,36.647C86.263,36.787 86.247,36.955 86.156,37.079L85.881,37.451L85.886,39.817C85.87,40.496 85.288,41.018 84.614,40.959L81.203,40.663C81.035,40.679 81.375,40.663 81.203,40.663C78.519,40.663 75.824,37.256 75.824,34.572C75.824,31.888 77.99,29.7 80.68,29.7Z" fill="#b56c5e" fill-opacity="1.0" /><path d="M78.109,48.574C79.963,49.011 81.817,47.868 82.254,46.014L83.811,39.434L77.274,37.148L75.549,44.43C75.112,46.278 76.255,48.138 78.109,48.574Z" fill="#b56c5e" fill-opacity="1.0" /><path d="M84.425,31.274C83.816,30.293 82.739,29.689 81.585,29.684C80.89,29.678 80.243,29.684 80.124,29.7C77.888,30.018 78.642,31.867 78.314,34.103C78.071,35.747 78.61,37.267 79.607,38.361L81.272,36.695H82.911H83.983L83.951,35.429C83.946,35.197 84.048,34.976 84.231,34.836C84.458,34.658 84.56,34.362 84.49,34.076L83.725,31.705L84.851,31.958L84.425,31.274Z" fill="#ffc013" fill-opacity="1.0" /><path d="M75.511,34.842C75.511,32.002 77.753,29.7 80.518,29.7C83.283,29.7 85.077,32.023 85.077,34.863C85.077,37.704 83.283,39.989 80.518,39.989C77.753,39.989 75.511,37.682 75.511,34.842Z" fill="#ffc013" fill-opacity="1.0" /><path d="M83.816,41.982H74.508V43.858H83.816V41.982Z" fill="#2d41ea" fill-opacity="1.0" /><path d="M79.338,82.378C84.916,82.378 89.438,77.856 89.438,72.278C89.438,66.7 84.916,62.178 79.338,62.178C73.76,62.178 69.238,66.7 69.238,72.278C69.238,77.856 73.76,82.378 79.338,82.378Z" fill="#292b33" fill-opacity="1.0" /><path d="M83.04,72.72L68.957,72.645L63.05,108.976C67.755,108.976 72.401,108.976 77.057,108.976L83.04,72.72Z" fill="#292b33" fill-opacity="1.0" /><path d="M69.302,72.639L68.176,43.212H91.718L89.535,72.639H69.302Z" fill="#2d41ea" fill-opacity="1.0" /><path d="M76.729,72.72L90.812,72.645L96.719,108.981C92.014,108.981 87.368,108.981 82.712,108.981L76.729,72.72Z" fill="#292b33" fill-opacity="1.0" /><path d="M64.57,71.728L78.965,60.728L74.842,56.033L60.291,65.492L64.57,71.728Z" fill="#2d41ea" fill-opacity="1.0" /><path d="M68.154,52.002C70.58,52.002 72.547,50.035 72.547,47.609C72.547,45.183 70.58,43.217 68.154,43.217C65.728,43.217 63.762,45.183 63.762,47.609C63.762,50.035 65.728,52.002 68.154,52.002Z" fill="#2d41ea" fill-opacity="1.0" /><path d="M62.586,72.257C64.697,72.257 66.408,70.546 66.408,68.436C66.408,66.325 64.697,64.614 62.586,64.614C60.476,64.614 58.765,66.325 58.765,68.436C58.765,70.546 60.476,72.257 62.586,72.257Z" fill="#2d41ea" fill-opacity="1.0" /><path d="M63.983,46.24L72.342,48.94L66.354,69.087L58.938,67.303L63.983,46.24Z" fill="#2d41ea" fill-opacity="1.0" /><path d="M103.408,53.064L94.687,52.832C94.224,52.821 93.9,52.358 94.051,51.916L98.05,40.08C98.174,39.708 98.53,39.46 98.923,39.471L106.986,39.687C107.45,39.697 107.773,40.161 107.622,40.603L103.408,53.064Z" fill="#292b33" fill-opacity="1.0" /><path d="M101.662,57.742L105.219,52.266C105.402,51.986 105.515,51.662 105.537,51.328L106,45.044C106.006,45.022 105.963,45.017 105.892,45.022C105.413,45.039 105.019,45.405 104.938,45.879L104.162,50.401C104.087,50.838 103.65,51.113 103.225,50.994C102.783,50.87 102.551,50.385 102.74,49.965L103.429,48.412C103.548,48.148 103.44,47.841 103.187,47.701C102.912,47.55 102.567,47.658 102.422,47.933L98.255,55.861L101.662,57.742Z" fill="#b56c5e" fill-opacity="1.0" /><path d="M91.981,52.001C94.407,52.001 96.374,50.034 96.374,47.608C96.374,45.182 94.407,43.216 91.981,43.216C89.555,43.216 87.589,45.182 87.589,47.608C87.589,50.034 89.555,52.001 91.981,52.001Z" fill="#2d41ea" fill-opacity="1.0" /><path d="M97.242,72.337C99.352,72.337 101.063,70.626 101.063,68.516C101.063,66.405 99.352,64.694 97.242,64.694C95.131,64.694 93.42,66.405 93.42,68.516C93.42,70.626 95.131,72.337 97.242,72.337Z" fill="#2d41ea" fill-opacity="1.0" /><path d="M96.18,46.305L87.778,48.881L93.647,69.771L100.907,67.437L96.18,46.305Z" fill="#2d41ea" fill-opacity="1.0" /><path d="M93.787,69.087L97.695,55.295L103.693,55.257L101.052,68.747L93.787,69.087Z" fill="#2d41ea" fill-opacity="1.0" /><path d="M69.141,67.465H89.918L92.451,78.19H66.969L69.141,67.465Z" fill="#2d41ea" fill-opacity="1.0" /><path d="M83.989,34.89C83.919,34.89 83.86,34.836 83.849,34.766C83.838,34.691 83.892,34.615 83.973,34.61L86.862,34.244C86.937,34.233 87.013,34.287 87.018,34.368C87.029,34.443 86.975,34.518 86.894,34.524L84.005,34.89C84,34.89 83.994,34.89 83.989,34.89Z" fill="#292b33" fill-opacity="1.0" /><path d="M84.302,37.164C84.838,37.164 85.272,36.513 85.272,35.709C85.272,34.905 84.838,34.254 84.302,34.254C83.766,34.254 83.331,34.905 83.331,35.709C83.331,36.513 83.766,37.164 84.302,37.164Z" fill="#b56c5e" fill-opacity="1.0" /></svg>