<?xml version="1.0" encoding="utf-8" ?>
<svg baseProfile="full" height="11.0" version="1.1" viewBox="0 0 19.0 11.0" width="19.0" xmlns="http://www.w3.org/2000/svg" xmlns:ev="http://www.w3.org/2001/xml-events" xmlns:xlink="http://www.w3.org/1999/xlink"><defs /><path d="M1.338,5.334C1.338,4.627 1.338,4.122 1.37,3.726C1.402,3.335 1.463,3.087 1.565,2.888C1.764,2.496 2.083,2.177 2.475,1.978C2.674,1.876 2.922,1.815 3.313,1.783C3.709,1.751 4.214,1.751 4.921,1.751H12.754C13.461,1.751 13.966,1.751 14.362,1.783C14.753,1.815 15.001,1.876 15.2,1.978C15.592,2.177 15.911,2.496 16.111,2.888C16.212,3.087 16.273,3.335 16.305,3.726C16.337,4.122 16.338,4.627 16.338,5.334V5.667C16.338,6.374 16.337,6.879 16.305,7.275C16.273,7.667 16.212,7.914 16.111,8.113C15.911,8.505 15.592,8.824 15.2,9.024C15.001,9.125 14.753,9.186 14.362,9.218C13.966,9.25 13.461,9.251 12.754,9.251H4.921C4.214,9.251 3.709,9.25 3.313,9.218C2.922,9.186 2.674,9.125 2.475,9.024C2.083,8.824 1.764,8.505 1.565,8.113C1.463,7.914 1.402,7.667 1.37,7.275C1.338,6.879 1.338,6.374 1.338,5.667V5.334Z" fill="#000000" fill-opacity="0.0" /><path d="M17.662,3.834C17.892,3.834 18.079,4.021 18.079,4.251V6.751C18.079,6.981 17.892,7.167 17.662,7.167C17.432,7.167 17.246,6.981 17.246,6.751V4.251C17.246,4.021 17.432,3.834 17.662,3.834Z" fill="#000000" fill-opacity="1.0" /></svg>