<?xml version="1.0" encoding="utf-8" ?>
<svg baseProfile="full" height="24.0" version="1.1" viewBox="0 0 24.0 24.0" width="24.0" xmlns="http://www.w3.org/2000/svg" xmlns:ev="http://www.w3.org/2001/xml-events" xmlns:xlink="http://www.w3.org/1999/xlink"><defs /><path d="M5.572,8.715L4.15,7.814C4.128,6.828 4.365,5.822 4.895,4.903C5.583,3.712 6.648,2.871 7.847,2.44C8.205,2.312 8.564,2.238 8.92,2.213C6.978,0.508 4.146,0.143 2.446,1.843C1.301,2.987 1.093,4.645 1.6,6.199L1.374,6.056C1.048,5.849 0.615,5.947 0.409,6.273C0.202,6.6 0.299,7.032 0.625,7.239L13.204,15.205C13.204,15.205 13.204,15.205 13.204,15.205L13.712,15.527C13.713,15.527 13.713,15.527 13.713,15.527L16.176,17.087L16.176,17.087L20.566,19.867V19.867L22.625,21.171C22.952,21.378 23.384,21.281 23.591,20.954C23.798,20.628 23.701,20.195 23.374,19.988L20.566,18.21V15.453C19.771,15.984 18.872,16.368 17.948,16.552L16.685,15.752C17.34,15.454 17.882,14.914 18.147,14.194C18.574,13.034 18.507,11.703 17.844,10.553C17.317,9.64 16.502,8.996 15.578,8.664C14.95,8.438 14.3,8.463 13.72,8.674L13.72,8.674C13,8.937 12.388,9.486 12.059,10.205C11.716,10.953 11.571,11.775 11.67,12.577L9.072,10.931C10.156,10.679 11.125,10.04 11.707,9.033C12.399,7.833 12.363,6.422 11.806,5.205C11.477,4.486 10.865,3.937 10.145,3.674L10.145,3.674C9.565,3.463 8.914,3.438 8.287,3.664C7.363,3.996 6.548,4.64 6.021,5.553C5.447,6.547 5.32,7.677 5.572,8.715ZM20.511,21.49L16.166,18.738V21C16.166,22.215 17.151,23.2 18.366,23.2C19.413,23.2 20.289,22.469 20.511,21.49ZM3.3,10.59L7.7,13.376V16C7.7,17.215 6.715,18.2 5.5,18.2C4.285,18.2 3.3,17.215 3.3,16V10.59ZM15.151,14.478C15.045,14.539 14.924,14.563 14.794,14.555L13.63,13.817C13.5,13.664 13.378,13.491 13.268,13.301C12.727,12.363 12.692,11.37 13.19,11.083C13.688,10.795 14.531,11.322 15.072,12.259C15.614,13.197 15.649,14.19 15.151,14.478ZM8.793,7.259C8.251,8.197 8.216,9.19 8.714,9.478C9.212,9.765 10.055,9.238 10.597,8.301C11.138,7.363 11.173,6.37 10.675,6.083C10.177,5.795 9.334,6.322 8.793,7.259ZM21.419,6.843C23.208,8.632 22.709,11.675 20.77,13.614C20.343,14.041 19.863,14.398 19.355,14.676L19.367,14.643C19.919,13.141 19.837,11.406 18.969,9.903C18.282,8.712 17.217,7.871 16.018,7.44C15.66,7.312 15.3,7.238 14.945,7.213C16.886,5.508 19.719,5.143 21.419,6.843Z" fill="#000000" fill-opacity="1.0" /></svg>