<?xml version="1.0" encoding="utf-8" ?>
<svg baseProfile="full" height="16.5" version="1.1" viewBox="0 0 24.0 24.0" width="16.5" xmlns="http://www.w3.org/2000/svg" xmlns:ev="http://www.w3.org/2001/xml-events" xmlns:xlink="http://www.w3.org/1999/xlink"><defs /><path d="M19,0.75 L19,18.05 C19,18.65 18.5,19.15 17.9,19.15 L0.5,19.15 C0.2,19.25 0,18.95 0,18.65 C0,18.55 0.1,18.35 0.2,18.25 L18.1,0.35 C18.3,0.15 18.7,0.15 18.9,0.35 C18.9,0.55 19,0.65 19,0.75 Z" fill="#181819" fill-opacity="1.0" /><path d="M11.257104,19.15 C9.83277986,19.15 8.58398906,19.15 7.51073165,19.15 C6.7141356,19.15 5.46227786,19.15 3.7551584,19.15 C3.12487765,19.15 2.03982484,19.15 0.5,19.15 C0.2,19.25 0,18.95 0,18.65 C0,18.55 0.1,18.35 0.2,18.25 C1.88163334,16.5683667 3.06423112,15.3857689 3.74779334,14.7022067 C5.41871196,13.031288 6.67201669,11.7779833 7.50770751,10.9422925 C8.48402126,9.96597874 9.7319324,8.7180676 11.251441,7.19855905 L11.257104,19.15 Z" fill="#181819" fill-opacity="1.0" /></svg>