<?xml version="1.0" encoding="utf-8" ?>
<svg baseProfile="full" height="16.0" version="1.1" viewBox="0 0 19.0 16.0" width="19.0" xmlns="http://www.w3.org/2000/svg" xmlns:ev="http://www.w3.org/2001/xml-events" xmlns:xlink="http://www.w3.org/1999/xlink"><defs /><path d="M12.36 1.98c0.64-0.4 1.55-0.44 2.5 0.3 0.94 0.75 1.12 1.65 0.9 2.37-0.05 0.2-0.31 0.26-0.5 0.12l-2.9-2.27c-0.17-0.14-0.18-0.41 0-0.52ZM4.53 8.46c0-2.93 2.38-5.3 5.3-5.3 2.93 0 5.3 2.37 5.3 5.3 0 1.55-0.67 2.95-1.74 3.92L14 13.76c0.19 0.38-0.38 0.74-0.68 0.42l-1.03-1.03c-0.73 0.4-1.57 0.62-2.46 0.62-0.89 0-1.72-0.23-2.46-0.62l-1.03 1.03c-0.3 0.32-0.86-0.04-0.68-0.42l0.61-1.38c-1.07-0.97-1.74-2.37-1.74-3.92ZM7.3 1.98c-0.64-0.4-1.55-0.44-2.5 0.3C3.86 3.03 3.68 3.93 3.9 4.65c0.06 0.2 0.32 0.26 0.5 0.12L7.3 2.5c0.18-0.14 0.19-0.41 0-0.52Zm2.5 3.57c-0.2 0-0.37 0.15-0.38 0.34L9.3 8.35 8.1 9.7c-0.13 0.15-0.12 0.37 0.02 0.51 0.14 0.14 0.36 0.15 0.5 0.02l1.59-1.37c0.07-0.06 0.11-0.15 0.1-0.25L10.18 5.9C10.16 5.7 10 5.55 9.8 5.55Z" fill="#000000" fill-opacity="1.0" /></svg>