<?xml version="1.0" encoding="utf-8" ?>
<svg baseProfile="full" height="16.0" version="1.1" viewBox="0 0 16.0 16.0" width="16.0" xmlns="http://www.w3.org/2000/svg" xmlns:ev="http://www.w3.org/2001/xml-events" xmlns:xlink="http://www.w3.org/1999/xlink"><defs /><path d="M9.18 13.1C8.87 13.43 8.45 13.6 8 13.6c-0.45 0-0.87-0.18-1.18-0.5-0.17-0.16-0.3-0.36-0.38-0.57h3.12c-0.08 0.22-0.21 0.4-0.38 0.58Zm3.38-2.87c-0.44-0.48-1-1.08-1-2.8V6.62c0-2.11-1.1-3.33-3.1-3.5 0.03-0.06 0.05-0.13 0.05-0.2C8.5 2.63 8.28 2.4 8 2.4S7.5 2.63 7.5 2.9c0 0.08 0 0.15 0.03 0.21C6.48 3.2 5.67 3.58 5.15 4.23l-2.1-2.1c-0.2-0.19-0.51-0.19-0.7 0-0.2 0.2-0.2 0.52 0 0.71l10.6 10.61c0.2 0.2 0.51 0.2 0.7 0 0.2-0.2 0.2-0.51 0-0.7l-0.94-0.96h0.04c0.22 0 0.4-0.17 0.4-0.4 0-0.51-0.3-0.84-0.59-1.16ZM9.88 11.8L4.44 6.35v0.26 0.83c0 1.71-0.56 2.31-1 2.8-0.3 0.3-0.59 0.64-0.59 1.16 0 0.22 0.18 0.4 0.4 0.4h6.63Z" fill="#000000" fill-opacity="1.0" /></svg>