<?xml version="1.0" encoding="utf-8" ?>
<svg baseProfile="full" height="16.0" version="1.1" viewBox="0 0 19.0 16.0" width="19.0" xmlns="http://www.w3.org/2000/svg" xmlns:ev="http://www.w3.org/2001/xml-events" xmlns:xlink="http://www.w3.org/1999/xlink"><defs /><path d="M3.6 10.2c0-0.28 0-0.42 0.05-0.53 0.05-0.1 0.13-0.17 0.22-0.22C3.98 9.4 4.12 9.4 4.4 9.4h0.2c0.28 0 0.42 0 0.53 0.05 0.1 0.05 0.17 0.13 0.22 0.22C5.4 9.78 5.4 9.92 5.4 10.2v3c0 0.28 0 0.42-0.05 0.53-0.05 0.1-0.13 0.17-0.22 0.22C5.02 14 4.88 14 4.6 14H4.4c-0.28 0-0.42 0-0.53-0.05-0.1-0.05-0.17-0.13-0.22-0.22C3.6 13.62 3.6 13.48 3.6 13.2v-3Z" fill="#000000" fill-opacity="0.2" /><path d="M7.2 8.8c0-0.28 0-0.42 0.05-0.53 0.05-0.1 0.13-0.17 0.22-0.22C7.58 8 7.72 8 8 8h0.2c0.28 0 0.42 0 0.53 0.05 0.1 0.05 0.17 0.13 0.22 0.22C9 8.38 9 8.52 9 8.8v4.4c0 0.28 0 0.42-0.05 0.53-0.05 0.1-0.13 0.17-0.22 0.22C8.62 14 8.48 14 8.2 14H8c-0.28 0-0.42 0-0.53-0.05-0.1-0.05-0.17-0.13-0.22-0.22C7.2 13.62 7.2 13.48 7.2 13.2V8.8Z" fill="#000000" fill-opacity="0.2" /><path d="M10.8 5.8c0-0.28 0-0.42 0.05-0.53 0.05-0.1 0.13-0.17 0.22-0.22C11.18 5 11.32 5 11.6 5h0.2c0.28 0 0.42 0 0.53 0.05 0.1 0.05 0.17 0.13 0.22 0.22 0.05 0.11 0.05 0.25 0.05 0.53v7.4c0 0.28 0 0.42-0.05 0.53-0.05 0.1-0.13 0.17-0.22 0.22C12.22 14 12.08 14 11.8 14h-0.2c-0.28 0-0.42 0-0.53-0.05-0.1-0.05-0.17-0.13-0.22-0.22-0.05-0.11-0.05-0.25-0.05-0.53V5.8Z" fill="#000000" fill-opacity="0.2" /><path d="M14.4 2.8c0-0.28 0-0.42 0.05-0.53 0.05-0.1 0.13-0.17 0.22-0.22C14.78 2 14.92 2 15.2 2h0.2c0.28 0 0.42 0 0.53 0.05 0.1 0.05 0.17 0.13 0.22 0.22 0.05 0.11 0.05 0.25 0.05 0.53v10.4c0 0.28 0 0.42-0.05 0.53-0.05 0.1-0.13 0.17-0.22 0.22C15.82 14 15.68 14 15.4 14h-0.2c-0.28 0-0.42 0-0.53-0.05-0.1-0.05-0.17-0.13-0.22-0.22-0.05-0.11-0.05-0.25-0.05-0.53V2.8Z" fill="#000000" fill-opacity="0.2" /></svg>