<?xml version="1.0" encoding="utf-8" ?>
<svg baseProfile="full" height="16.0" version="1.1" viewBox="0 0 17.0 16.0" width="17.0" xmlns="http://www.w3.org/2000/svg" xmlns:ev="http://www.w3.org/2001/xml-events" xmlns:xlink="http://www.w3.org/1999/xlink"><defs /><path d="M8.5 13.65l-2.03 1.02C6.26 14.77 6 14.62 6 14.37v-0.52c0-0.2 0.09-0.4 0.24-0.54l1.17-1.06-0.15-2.79-4.55 1.2c-0.21 0.07-0.42-0.1-0.42-0.32V9.83c0-0.26 0.12-0.5 0.33-0.66l4.4-3.18c0.19-0.16 0.23-0.25 0.23-0.55V3.19C7.25 2 7.78 1.1 8.5 1.1c0.7 0 1.26 0.92 1.26 2.09v2.25c0 0.3 0.03 0.39 0.23 0.56l4.39 3.17c0.2 0.15 0.33 0.4 0.33 0.66v0.5c0 0.23-0.2 0.4-0.42 0.33l-4.55-1.2-0.15 2.8 1.17 1.05c0.15 0.14 0.24 0.33 0.24 0.54v0.52c0 0.25-0.26 0.4-0.47 0.3L8.5 13.65Z" fill="#000000" fill-opacity="1.0" /></svg>