<?xml version="1.0" encoding="utf-8" ?>
<svg baseProfile="full" height="16.0" version="1.1" viewBox="0 0 23.0 16.0" width="23.0" xmlns="http://www.w3.org/2000/svg" xmlns:ev="http://www.w3.org/2001/xml-events" xmlns:xlink="http://www.w3.org/1999/xlink"><defs /><path d="M6.95 10.96c0 0.29-0.05 0.53-0.13 0.73-0.1 0.2-0.23 0.36-0.4 0.5-0.17 0.12-0.37 0.2-0.62 0.27-0.24 0.05-0.47 0.08-0.7 0.08H4.52v1.55H3.35V9.38H5.1c0.25 0 0.49 0.03 0.72 0.1 0.23 0.05 0.43 0.14 0.6 0.26 0.17 0.13 0.3 0.3 0.4 0.5 0.08 0.19 0.13 0.43 0.13 0.72Zm-1.17 0c0-0.13-0.02-0.24-0.07-0.33-0.04-0.09-0.1-0.17-0.18-0.23-0.08-0.05-0.16-0.09-0.24-0.1-0.09-0.02-0.2-0.03-0.36-0.03h-0.4v1.39h0.4c0.15 0 0.27 0 0.35-0.02 0.08-0.02 0.16-0.06 0.24-0.11 0.08-0.07 0.15-0.15 0.2-0.23 0.04-0.1 0.06-0.2 0.06-0.34Z" fill="#000000" fill-opacity="1.0" /></svg>