<?xml version="1.0" encoding="utf-8" ?>
<svg baseProfile="full" height="16.0" version="1.1" viewBox="0 0 22.0 16.0" width="22.0" xmlns="http://www.w3.org/2000/svg" xmlns:ev="http://www.w3.org/2001/xml-events" xmlns:xlink="http://www.w3.org/1999/xlink"><defs /><path d="M13.626,3.377L13.718,3.418L13.616,3.377C13.565,3.553 13.524,3.718 13.524,3.915H13.514V6.385C13.514,6.592 13.555,6.768 13.616,6.933L13.719,6.884L13.72,6.886L13.626,6.933C13.698,7.068 13.789,7.212 13.912,7.316L13.916,7.31C14.018,7.411 14.149,7.492 14.289,7.543L14.323,7.451L14.325,7.451L14.289,7.554C14.432,7.595 14.575,7.626 14.728,7.626C14.871,7.626 15.014,7.595 15.157,7.543C15.3,7.492 15.432,7.419 15.545,7.305C15.667,7.202 15.748,7.078 15.83,6.933C15.902,6.768 15.932,6.592 15.932,6.385V4.917V4.814H15.83H14.657H14.646H14.555V4.917V5.496V5.507V5.6H14.657V5.61H15.065V6.385C15.065,6.52 15.034,6.613 14.963,6.664L14.967,6.669C14.897,6.718 14.817,6.747 14.728,6.747V6.758C14.626,6.758 14.545,6.727 14.473,6.675L14.417,6.741L14.412,6.737L14.411,6.737L14.473,6.664C14.422,6.613 14.381,6.52 14.381,6.385V3.915C14.381,3.78 14.422,3.687 14.483,3.646L14.479,3.641C14.546,3.584 14.623,3.545 14.718,3.543V3.553C14.82,3.553 14.891,3.584 14.953,3.646L15.031,3.56L15.033,3.562L15.024,3.577L14.963,3.656L15.002,3.611L14.973,3.656C15.033,3.707 15.073,3.786 15.075,3.915H15.055V4.152H15.065V4.256H15.157H15.167H15.82V4.152H15.84L15.84,4.256H15.942V4.152H15.932V3.915C15.932,3.72 15.892,3.545 15.822,3.381L15.83,3.377L15.821,3.381L15.82,3.377C15.748,3.222 15.657,3.088 15.545,2.984L15.48,3.054L15.477,3.052L15.534,2.984C15.422,2.881 15.289,2.808 15.146,2.757L15.113,2.849L15.111,2.848L15.146,2.746C15.004,2.705 14.861,2.674 14.718,2.674C14.566,2.674 14.424,2.705 14.282,2.756L14.279,2.746C14.148,2.818 14.028,2.889 13.917,2.99L13.912,2.984C13.789,3.088 13.698,3.222 13.626,3.377ZM12.378,2.829V2.829L12.481,2.829H12.378ZM12.155,7.314C12.251,7.216 12.328,7.116 12.377,6.979L12.389,6.985C12.45,6.84 12.491,6.685 12.491,6.52H12.481V5.31C12.481,5.024 12.411,4.798 12.241,4.633C12.081,4.463 11.872,4.382 11.634,4.38V4.38L11.628,4.38L11.623,4.38V4.38C11.495,4.381 11.386,4.412 11.266,4.463C11.238,4.474 11.211,4.487 11.185,4.501V3.542H12.378L12.378,3.553H12.481V3.449L12.389,3.449V3.439H12.491V2.829H12.481V2.726H12.378H10.501H10.491H10.399V2.829V5.331V5.341V5.434H10.491H10.501H11.083H11.154L11.174,5.383L11.167,5.378L11.205,5.31L11.246,5.259L11.17,5.176L11.174,5.176L11.246,5.248L11.307,5.207H11.317L11.271,5.112L11.277,5.109L11.328,5.197L11.428,5.186C11.482,5.188 11.52,5.207 11.557,5.243L11.552,5.248C11.593,5.29 11.623,5.352 11.623,5.414V6.509C11.623,6.592 11.603,6.654 11.572,6.695L11.638,6.753L11.562,6.695C11.532,6.727 11.491,6.747 11.409,6.747V6.757C11.345,6.756 11.289,6.737 11.251,6.7L11.256,6.695C11.215,6.644 11.185,6.592 11.185,6.489V6.323H11.083V6.313H11.185V6.21H11.083H10.429H10.419H10.328V6.313V6.52H10.307C10.307,6.685 10.328,6.84 10.389,6.975L10.486,6.933L10.488,6.937L10.399,6.985C10.47,7.119 10.542,7.233 10.644,7.326L10.649,7.331L10.644,7.336L10.649,7.331C10.747,7.43 10.855,7.499 10.982,7.55L10.981,7.554C11.014,7.561 11.047,7.569 11.08,7.577L11.08,7.577L11.08,7.577L11.08,7.577L11.08,7.577L11.08,7.577C11.186,7.602 11.287,7.626 11.389,7.626C11.532,7.626 11.664,7.595 11.797,7.554L11.766,7.455L11.807,7.554C11.94,7.502 12.052,7.419 12.154,7.326L12.149,7.321L12.154,7.316L12.164,7.326L12.155,7.314ZM12.155,7.314L12.103,7.243L12.093,7.254L12.154,7.316L12.155,7.314ZM11.557,5.244L11.558,5.244L11.552,5.248L11.557,5.244ZM11.61,5.2L11.557,5.244L11.557,5.243L11.628,5.18L11.629,5.181L11.61,5.2ZM11.61,5.2L11.631,5.182L11.633,5.184L11.598,5.212L11.61,5.2ZM11.174,5.176L11.171,5.172L11.177,5.168L11.185,5.176L11.174,5.176ZM11.17,5.176L11.164,5.176L11.168,5.174L11.17,5.176ZM11.083,3.449H11.083V3.449H11.083V3.449ZM11.637,6.758H11.643L11.643,6.758L11.641,6.76L11.637,6.758ZM11.18,6.758L11.172,6.766L11.164,6.758L11.164,6.758H11.18ZM3.064,7.443V7.443L2.936,7.488L1.423,2.924L1.368,2.741H1.552H1.561H2.285H2.294H2.395L2.422,2.832L3.34,5.882L4.246,2.832L4.274,2.741H4.384V2.732H5.117V2.875L5.126,2.878V2.732H5.3L5.245,2.915L3.733,7.488L3.696,7.58H3.605L3.605,7.443H3.605L3.605,7.443V7.58H3.064H2.963L2.936,7.488L3.064,7.443ZM3.339,6.361H3.339L3.339,6.351L3.339,6.351V6.361ZM3.33,6.352L3.327,6.353L3.33,6.361V6.352ZM5.019,5.811L5.019,5.802H4.872C4.872,5.454 4.9,5.179 4.964,4.968C5.027,4.788 5.126,4.607 5.26,4.479C5.369,4.352 5.506,4.252 5.679,4.161L5.688,4.178L5.67,4.143C5.853,4.051 6.073,4.015 6.357,4.015C6.623,4.015 6.861,4.061 7.045,4.152L6.999,4.234L6.98,4.271L6.984,4.274L7.045,4.161C7.217,4.252 7.354,4.352 7.446,4.479C7.586,4.606 7.676,4.783 7.747,4.978L7.75,4.986L7.742,4.989C7.806,5.19 7.833,5.464 7.833,5.811C7.833,6.159 7.805,6.434 7.75,6.636C7.686,6.838 7.585,7.012 7.439,7.168L7.434,7.163L7.274,7.314C7.212,7.373 7.128,7.423 7.043,7.458L7.045,7.461C6.861,7.562 6.632,7.617 6.357,7.617L6.357,7.479L6.348,7.479V7.617C6.093,7.617 5.865,7.562 5.683,7.463L5.679,7.47C5.514,7.388 5.367,7.287 5.267,7.168L5.367,7.076L5.372,7.072L5.367,7.067L5.267,7.158C5.129,7.012 5.028,6.829 4.964,6.645C4.9,6.434 4.872,6.159 4.872,5.82H5.019L5.019,5.811ZM7.035,5.829L7.035,5.82L6.907,5.82C6.907,5.591 6.889,5.426 6.87,5.335C6.852,5.261 6.825,5.188 6.779,5.133L6.876,5.052L6.825,5.083L6.88,5.041L6.76,5.115C6.733,5.069 6.687,5.032 6.614,4.995L6.657,4.898L6.605,4.995C6.541,4.959 6.449,4.94 6.357,4.94C6.269,4.94 6.188,4.958 6.117,4.992L6.11,4.995C6.027,5.032 5.981,5.069 5.936,5.124C5.89,5.188 5.862,5.252 5.844,5.344C5.816,5.435 5.807,5.591 5.807,5.811L5.661,5.811L5.532,5.811V5.82H5.661H5.807C5.807,6.04 5.816,6.187 5.844,6.279C5.844,6.355 5.883,6.419 5.917,6.476L5.917,6.476C5.922,6.485 5.927,6.493 5.932,6.502L5.936,6.499L6.119,6.636L6.113,6.647C6.177,6.682 6.267,6.7 6.357,6.7V6.691C6.456,6.691 6.538,6.673 6.61,6.647L6.605,6.636C6.678,6.599 6.742,6.544 6.77,6.508L6.78,6.516L6.788,6.504C6.829,6.443 6.862,6.373 6.87,6.288L6.874,6.27C6.891,6.178 6.907,6.036 6.907,5.829H7.035ZM6.825,5.083L6.77,5.124V5.115L6.825,5.083ZM8.214,8.422H9.08V12.417H10.481V13.283H8.214L8.214,8.422ZM2.936,13.188L2.963,13.28H3.064H3.605H3.696L3.733,13.188L5.245,8.615L5.3,8.432H5.126V8.578L5.117,8.575V8.432H4.384V8.441H4.274L4.246,8.532L3.34,11.582L2.422,8.532L2.395,8.441H2.294H2.285H1.561H1.552H1.368L1.423,8.624L2.936,13.188ZM3.327,12.053L3.33,12.061V12.052L3.327,12.053ZM4.888,11.502H5.035L5.035,11.511L5.035,11.52H4.888C4.888,11.859 4.915,12.134 4.98,12.345C5.044,12.528 5.145,12.712 5.282,12.858L5.383,12.767L5.383,12.767L5.388,12.772L5.282,12.868C5.383,12.987 5.53,13.088 5.694,13.17L5.698,13.163C5.881,13.262 6.109,13.317 6.364,13.317V13.179L6.373,13.179V13.317C6.648,13.317 6.877,13.262 7.06,13.161L7.058,13.158C7.143,13.123 7.227,13.073 7.289,13.014L7.289,13.014L7.449,12.863L7.454,12.868C7.601,12.712 7.702,12.538 7.766,12.336C7.821,12.134 7.848,11.859 7.848,11.511C7.848,11.164 7.821,10.89 7.757,10.689L7.766,10.686L7.763,10.678L7.766,10.677L7.763,10.678C7.691,10.483 7.602,10.306 7.461,10.179C7.37,10.052 7.233,9.952 7.06,9.861L7,9.974L6.996,9.971L6.994,9.971L7.06,9.852C6.877,9.761 6.639,9.715 6.373,9.715C6.089,9.715 5.869,9.751 5.685,9.843L5.704,9.878L5.694,9.861C5.522,9.952 5.385,10.052 5.275,10.179C5.141,10.307 5.043,10.488 4.98,10.668C4.915,10.879 4.888,11.154 4.888,11.502ZM5.759,9.971V9.981L5.759,9.981L5.694,9.843L5.759,9.971ZM5.066,12.316L5.11,12.304L5.111,12.307L5.108,12.309L5.041,12.324L4.989,12.336L5.066,12.316ZM7.02,13.092L6.993,13.045L6.996,13.042L6.996,13.042L6.998,13.041L7.02,13.092ZM7.766,12.327L7.628,12.29L7.628,12.29L7.638,12.281L7.766,12.327ZM7.051,11.53L7.051,11.52L6.923,11.52C6.923,11.291 6.904,11.126 6.886,11.035L7.032,11.01L7.031,11.006L6.886,11.035C6.868,10.961 6.84,10.888 6.794,10.833L6.892,10.752L6.895,10.75V10.75L6.905,10.742L6.904,10.741L6.901,10.737L6.895,10.741L6.776,10.815C6.749,10.769 6.703,10.732 6.629,10.695L6.683,10.575L6.679,10.574L6.62,10.695C6.556,10.659 6.464,10.641 6.373,10.641C6.284,10.641 6.204,10.658 6.132,10.692L6.134,10.695L6.132,10.692L6.125,10.695C6.043,10.732 5.997,10.769 5.951,10.824C5.905,10.888 5.878,10.952 5.859,11.044C5.832,11.135 5.823,11.291 5.823,11.511L5.676,11.511L5.676,11.52H5.823C5.823,11.74 5.832,11.887 5.859,11.979L5.722,11.997V12.006L5.859,11.979C5.859,12.055 5.898,12.119 5.932,12.176C5.937,12.185 5.943,12.193 5.948,12.202L5.951,12.199L6.134,12.336L6.128,12.347C6.192,12.382 6.282,12.4 6.373,12.4V12.391C6.472,12.391 6.553,12.373 6.626,12.347L6.62,12.336C6.694,12.299 6.758,12.244 6.785,12.208L6.795,12.216C6.841,12.152 6.877,12.079 6.886,11.988L6.889,11.97L7.016,12.004L7.017,11.996L6.889,11.97C6.907,11.878 6.923,11.736 6.923,11.53H7.051ZM6.889,11.97L6.889,11.97L6.886,11.969L6.889,11.97ZM6.84,10.783L6.895,10.741V10.75L6.892,10.752L6.84,10.783ZM6.84,10.783L6.785,10.824V10.815L6.84,10.783ZM6.067,12.462L6.063,12.46L6.1,12.396L6.067,12.462ZM6.679,12.453L6.681,12.453L6.665,12.423L6.679,12.453ZM5.84,12.3L5.836,12.295L5.841,12.29L5.894,12.251L5.84,12.3ZM15.937,8.422H13.67L13.67,13.283H15.937V12.417H14.536V11.062H15.937V10.196H14.536V9.288H15.937V8.422ZM10.004,8.422H13.234V9.288H12.052V13.283H11.186V9.288H10.004V8.422ZM16.559,2.728H18.985L20.247,3.989V7.581H16.559V2.728ZM18.208,4.455V6.639H18.81V3.776H18.374L17.549,4.232V4.814L18.208,4.455ZM16.559,8.438H18.981L20.24,9.698V13.283H16.559V8.438ZM17.382,12.343H19.388V11.868H18.167L18.748,11.335C18.971,11.132 19.136,10.948 19.233,10.793C19.33,10.638 19.378,10.473 19.378,10.299C19.378,10.124 19.339,9.979 19.252,9.853C19.175,9.727 19.058,9.62 18.913,9.562C18.777,9.485 18.603,9.446 18.409,9.446C18.148,9.446 17.925,9.514 17.731,9.64C17.556,9.756 17.44,9.94 17.363,10.192L17.857,10.386C17.915,10.221 17.983,10.105 18.06,10.027C18.138,9.95 18.254,9.911 18.38,9.911C18.506,9.911 18.593,9.95 18.661,10.008C18.719,10.076 18.758,10.172 18.758,10.299C18.758,10.415 18.729,10.512 18.671,10.608C18.622,10.705 18.525,10.822 18.39,10.957L17.382,11.907V12.343Z" fill="#000000" fill-opacity="1.0" /></svg>