<?xml version="1.0" encoding="utf-8" ?>
<svg baseProfile="full" height="16.5" version="1.1" viewBox="0 0 24.0 24.0" width="16.5" xmlns="http://www.w3.org/2000/svg" xmlns:ev="http://www.w3.org/2001/xml-events" xmlns:xlink="http://www.w3.org/1999/xlink"><defs /><path d="M22,8.5 L17.5,8.5 L17.5,17.5 L17.7638935,17.5 C17.2888536,18.0307565 17,18.7316456 17,19.5 C17,20.5434854 17.5327547,21.4625392 18.3411024,22 L3.20710678,22 C2.93096441,22 2.70710678,21.7761424 2.70710678,21.5 C2.70710678,21.3673918 2.7597852,21.2402148 2.85355339,21.1464466 L21.1464466,2.85355339 C21.3417088,2.65829124 21.6582912,2.65829124 21.8535534,2.85355339 C21.9473216,2.94732158 22,3.07449854 22,3.20710678 L22,8.5 Z" fill="#000000" fill-opacity="1.0" /><path d="M19,10 L21,10 L21,16 L19,16 L19,10 Z M20,21 C19.1715729,21 18.5,20.3284271 18.5,19.5 C18.5,18.6715729 19.1715729,18 20,18 C20.8284271,18 21.5,18.6715729 21.5,19.5 C21.5,20.3284271 20.8284271,21 20,21 Z" fill="#000000" fill-opacity="1.0" /></svg>