<?xml version="1.0" encoding="utf-8" ?>
<svg baseProfile="full" height="16.0" version="1.1" viewBox="0 0 8.0 16.0" width="8.0" xmlns="http://www.w3.org/2000/svg" xmlns:ev="http://www.w3.org/2001/xml-events" xmlns:xlink="http://www.w3.org/1999/xlink"><defs /><path d="M3.5,1.33C2.948,1.33 2.5,1.778 2.5,2.33H2.56C1.664,2.33 1.216,2.33 0.874,2.504C0.573,2.658 0.328,2.903 0.174,3.204C0,3.546 0,3.994 0,4.89V11.44C0,12.336 0,12.784 0.174,13.126C0.328,13.427 0.573,13.672 0.874,13.826C1.216,14 1.664,14 2.56,14H5.44C6.336,14 6.784,14 7.126,13.826C7.427,13.672 7.672,13.427 7.826,13.126C8,12.784 8,12.336 8,11.44V4.89C8,3.994 8,3.546 7.826,3.204C7.672,2.903 7.427,2.658 7.126,2.504C6.784,2.33 6.336,2.33 5.44,2.33H5.5C5.5,1.778 5.052,1.33 4.5,1.33H3.5Z" fill="#d9d9d9" fill-opacity="1.0" /></svg>