<?xml version="1.0" encoding="utf-8" ?>
<svg baseProfile="full" height="16.5" version="1.1" viewBox="0 0 24.0 24.0" width="16.5" xmlns="http://www.w3.org/2000/svg" xmlns:ev="http://www.w3.org/2001/xml-events" xmlns:xlink="http://www.w3.org/1999/xlink"><defs /><path d="M19,0.75 L19,18.05 C19,18.65 18.5,19.15 17.9,19.15 L0.5,19.15 C0.2,19.25 0,18.95 0,18.65 C0,18.55 0.1,18.35 0.2,18.25 L18.1,0.35 C18.3,0.15 18.7,0.15 18.9,0.35 C18.9,0.55 19,0.65 19,0.75 Z" fill="#181819" fill-opacity="1.0" /><path d="M15.0034412,19.15 C13.4570058,19.15 12.2082267,19.15 11.257104,19.15 C10.3694086,19.15 9.12061777,19.15 7.51073165,19.15 C6.7141356,19.15 5.46227786,19.15 3.7551584,19.15 C3.12487765,19.15 2.03982484,19.15 0.5,19.15 C0.2,19.25 0,18.95 0,18.65 C0,18.55 0.1,18.35 0.2,18.25 L14.997251,3.45274903 L15.0034412,19.15 Z" fill="#181819" fill-opacity="1.0" /></svg>