<?xml version="1.0" encoding="utf-8" ?>
<svg baseProfile="full" height="12.0" version="1.1" viewBox="0 0 19.0 12.0" width="19.0" xmlns="http://www.w3.org/2000/svg" xmlns:ev="http://www.w3.org/2001/xml-events" xmlns:xlink="http://www.w3.org/1999/xlink"><defs /><path d="M14.5044,1.273C14.4499,1.38 14.4499,1.52 14.4499,1.8V6.5H16.5499V1.8C16.5499,1.52 16.5499,1.38 16.4954,1.273C16.4474,1.1789 16.3709,1.1024 16.2769,1.0545C16.1699,1 16.0299,1 15.7499,1H15.2499C14.9698,1 14.8298,1 14.7229,1.0545C14.6288,1.1024 14.5523,1.1789 14.5044,1.273Z" fill="#000000" fill-opacity="1.0" /><path d="M10.4508,4.46C10.4508,4.18 10.4508,4.04 10.5053,3.933C10.5532,3.839 10.6297,3.7625 10.7238,3.7145C10.8307,3.66 10.9707,3.66 11.2508,3.66H11.7508C12.0308,3.66 12.1708,3.66 12.2778,3.7145C12.3719,3.7625 12.4483,3.839 12.4963,3.933C12.5508,4.04 12.5508,4.18 12.5508,4.46V10.2C12.5508,10.4801 12.5508,10.6201 12.4963,10.727C12.4483,10.8211 12.3719,10.8976 12.2778,10.9455C12.1708,11 12.0308,11 11.7508,11H11.2508C10.9707,11 10.8307,11 10.7238,10.9455C10.6297,10.8976 10.5532,10.8211 10.5053,10.727C10.4508,10.6201 10.4508,10.4801 10.4508,10.2V4.46Z" fill="#000000" fill-opacity="1.0" /><path d="M6.4507,6.8C6.4507,6.52 6.4507,6.38 6.5052,6.273C6.5531,6.1789 6.6296,6.1024 6.7237,6.0545C6.8306,6 6.9707,6 7.2507,6H7.7507C8.0307,6 8.1707,6 8.2777,6.0545C8.3718,6.1024 8.4482,6.1789 8.4962,6.273C8.5507,6.38 8.5507,6.52 8.5507,6.8V10.2C8.5507,10.48 8.5507,10.62 8.4962,10.727C8.4482,10.8211 8.3718,10.8976 8.2777,10.9455C8.1707,11 8.0307,11 7.7507,11H7.2507C6.9707,11 6.8306,11 6.7237,10.9455C6.6296,10.8976 6.5531,10.8211 6.5052,10.727C6.4507,10.62 6.4507,10.48 6.4507,10.2V6.8Z" fill="#000000" fill-opacity="1.0" /><path d="M2.4502,7.8C2.4502,7.52 2.4502,7.38 2.5047,7.273C2.5526,7.1789 2.6291,7.1024 2.7232,7.0545C2.8302,7 2.9702,7 3.2502,7H3.7502C4.0302,7 4.1702,7 4.2772,7.0545C4.3713,7.1024 4.4478,7.1789 4.4957,7.273C4.5502,7.38 4.5502,7.52 4.5502,7.8V10.2C4.5502,10.48 4.5502,10.62 4.4957,10.727C4.4478,10.8211 4.3713,10.8976 4.2772,10.9455C4.1702,11 4.0302,11 3.7502,11H3.2502C2.9702,11 2.8302,11 2.7232,10.9455C2.6291,10.8976 2.5526,10.8211 2.5047,10.727C2.4502,10.62 2.4502,10.48 2.4502,10.2V7.8Z" fill="#000000" fill-opacity="1.0" /><path d="M15.1464,9.8607L14,11.0071L13.2929,10.3L14.4393,9.1535L13.2929,8.0071L14,7.3L15.1464,8.4464L16.2929,7.3L17,8.0071L15.8536,9.1535L17,10.3L16.2929,11.0071L15.1464,9.8607Z" fill="#000000" fill-opacity="1.0" /></svg>