<?xml version="1.0" encoding="utf-8" ?>
<svg baseProfile="full" height="16.0" version="1.1" viewBox="0 0 21.0 16.0" width="21.0" xmlns="http://www.w3.org/2000/svg" xmlns:ev="http://www.w3.org/2001/xml-events" xmlns:xlink="http://www.w3.org/1999/xlink"><defs /><path d="M10.13 1.77c0.16-0.06 0.33-0.09 0.5-0.09 0.16 0 0.33 0.03 0.49 0.09 0.16 0.06 0.31 0.14 0.45 0.26 0.13 0.12 0.24 0.27 0.32 0.44C11.97 2.66 12 2.86 12 3.08V3.5h-1.04V3.1c0-0.16-0.04-0.24-0.1-0.28-0.06-0.06-0.14-0.1-0.24-0.1-0.1 0-0.18 0.04-0.26 0.1-0.05 0.04-0.09 0.12-0.09 0.27V5.8c0 0.15 0.04 0.23 0.1 0.28 0.06 0.06 0.15 0.09 0.25 0.09s0.18-0.03 0.25-0.09c0.05-0.05 0.1-0.13 0.1-0.28V4.98h-0.59V4.03h1.62v1.76c0 0.23-0.04 0.44-0.12 0.62-0.08 0.17-0.19 0.31-0.32 0.43-0.14 0.12-0.29 0.2-0.45 0.27-0.16 0.05-0.33 0.08-0.5 0.08-0.16 0-0.33-0.03-0.49-0.08-0.16-0.06-0.3-0.15-0.44-0.27C9.56 6.72 9.45 6.58 9.37 6.4 9.28 6.23 9.25 6.02 9.25 5.79v-2.7c0-0.23 0.04-0.43 0.12-0.62 0.08-0.17 0.19-0.32 0.32-0.44s0.28-0.2 0.44-0.26Z" fill="#000000" fill-opacity="1.0" /><path d="M6.6 1.72H9v1H7.54v0.95L7.6 3.64C7.72 3.6 7.86 3.56 8.01 3.56c0.28 0 0.52 0.09 0.7 0.27C8.92 4.02 9 4.3 9 4.62v1.32c0 0.2-0.04 0.37-0.1 0.52-0.07 0.15-0.16 0.29-0.28 0.4-0.11 0.1-0.25 0.2-0.4 0.25C8.07 7.17 7.92 7.2 7.75 7.2 7.6 7.2 7.44 7.17 7.3 7.11H7.28C7.13 7.05 7 6.97 6.88 6.86c-0.1-0.11-0.2-0.24-0.27-0.4-0.07-0.15-0.1-0.33-0.1-0.52V5.58h1.03V5.9c0 0.1 0.03 0.15 0.06 0.2 0.04 0.03 0.1 0.05 0.17 0.05 0.08 0 0.11-0.02 0.14-0.05 0.03-0.04 0.05-0.09 0.05-0.18v-1.2c0-0.07-0.02-0.12-0.06-0.16C7.87 4.52 7.83 4.5 7.77 4.5L7.68 4.52v0.01C7.63 4.54 7.61 4.56 7.6 4.57 7.59 4.6 7.58 4.6 7.58 4.62L7.56 4.64 7.53 4.71 7.49 4.79h-0.9V1.72Z" fill="#000000" fill-opacity="1.0" /><path d="M5.23 6.12h1.04v1.03H5.23V6.12Z" fill="#000000" fill-opacity="1.0" /><path d="M3.41 1.72h1.1L3.83 3.93H4.8V5.4h0.35v0.99H4.81v0.76H3.78V6.39H2.3V5.52l1.1-3.8Zm0.37 2.42L3.4 5.4h0.38V4.14Z" fill="#000000" fill-opacity="1.0" /></svg>