<?xml version="1.0" encoding="utf-8" ?>
<svg baseProfile="full" height="24.0" version="1.1" viewBox="0 0 24.0 24.0" width="24.0" xmlns="http://www.w3.org/2000/svg" xmlns:ev="http://www.w3.org/2001/xml-events" xmlns:xlink="http://www.w3.org/1999/xlink"><defs /><path d="M15.31 2.35c0.26 0.11 0.43 0.37 0.43 0.65v18c0 0.28-0.17 0.54-0.43 0.65-0.26 0.1-0.56 0.05-0.76-0.15l-4.62-4.62C9.82 16.76 9.66 16.7 9.5 16.7H6.34c-1.1 0-2-0.9-2-2V9.3c0-1.1 0.9-2 2-2H9.5c0.16 0 0.32-0.06 0.43-0.17l4.62-4.62c0.2-0.2 0.5-0.26 0.76-0.16Zm3.37 6.38c-0.21-0.32-0.65-0.41-0.97-0.2-0.32 0.21-0.41 0.65-0.2 0.97 0.47 0.72 0.75 1.58 0.75 2.5 0 0.93-0.28 1.78-0.75 2.5-0.21 0.32-0.12 0.76 0.2 0.97 0.32 0.21 0.75 0.13 0.97-0.2 0.62-0.94 0.98-2.06 0.98-3.27 0-1.2-0.36-2.33-0.98-3.27Z" fill="#000000" fill-opacity="1.0" /></svg>