<?xml version="1.0" encoding="utf-8" ?>
<svg baseProfile="full" height="16.0" version="1.1" viewBox="0 0 18.0 16.0" width="18.0" xmlns="http://www.w3.org/2000/svg" xmlns:ev="http://www.w3.org/2001/xml-events" xmlns:xlink="http://www.w3.org/1999/xlink"><defs /><path d="M8.34 2.6c0.1-0.15 0.11-0.34 0.01-0.5-0.1-0.15-0.28-0.23-0.46-0.2C5 2.42 2.8 4.95 2.8 8c0 3.42 2.78 6.2 6.2 6.2 3.05 0 5.58-2.2 6.1-5.1 0.03-0.17-0.05-0.36-0.2-0.45-0.16-0.1-0.35-0.1-0.5 0.01-0.71 0.51-1.58 0.8-2.53 0.8-2.4 0-4.34-1.94-4.34-4.34 0-0.94 0.3-1.8 0.8-2.52Z" fill="#000000" fill-opacity="1.0" /></svg>