<?xml version="1.0" encoding="utf-8" ?>
<svg baseProfile="full" height="16.0" version="1.1" viewBox="0 0 24.0 16.0" width="24.0" xmlns="http://www.w3.org/2000/svg" xmlns:ev="http://www.w3.org/2001/xml-events" xmlns:xlink="http://www.w3.org/1999/xlink"><defs /><path d="M3.71 11.4c0.53-0.55 1.24-0.85 2-0.85 0.75 0 1.46 0.3 2 0.85l0.14 0.15c0.08 0.08 0.2 0.08 0.28 0l0.29-0.28c0.08-0.08 0.08-0.2 0-0.28l-0.14-0.14c-0.69-0.7-1.6-1.1-2.58-1.1-0.97 0-1.88 0.39-2.56 1.08L3 10.98c-0.08 0.07-0.08 0.2 0 0.28l0.29 0.28c0.08 0.08 0.2 0.07 0.28 0l0.14-0.15Zm0.92 0.98c0.29-0.3 0.67-0.45 1.07-0.45s0.79 0.16 1.08 0.46l0.14 0.14c0.08 0.08 0.2 0.08 0.28 0l0.29-0.28c0.08-0.08 0.08-0.2 0-0.28l-0.14-0.14c-0.44-0.45-1.02-0.7-1.65-0.7-0.62 0-1.2 0.25-1.64 0.69l-0.14 0.14c-0.08 0.08-0.07 0.2 0 0.29l0.3 0.28c0.07 0.07 0.2 0.07 0.27 0l0.14-0.15Z" fill="#000000" fill-opacity="1.0" /><path d="M5.7 12.42c-0.23 0-0.45 0.09-0.62 0.24-0.08 0.08-0.13 0.18-0.13 0.3 0 0.1 0.04 0.2 0.11 0.29l0.37 0.38c0.15 0.16 0.4 0.16 0.55 0l0.37-0.38c0.08-0.08 0.12-0.19 0.11-0.3 0-0.11-0.05-0.21-0.13-0.29-0.17-0.15-0.39-0.24-0.62-0.24Z" fill="#000000" fill-opacity="1.0" /></svg>