<?xml version="1.0" encoding="utf-8" ?>
<svg baseProfile="full" height="16.0" version="1.1" viewBox="0 0 22.0 16.0" width="22.0" xmlns="http://www.w3.org/2000/svg" xmlns:ev="http://www.w3.org/2001/xml-events" xmlns:xlink="http://www.w3.org/1999/xlink"><defs /><path d="M8.214,2.674H9.08V6.669H10.481V7.535H8.214L8.214,2.674ZM2.936,7.441L2.963,7.532H3.064H3.605H3.696L3.733,7.441L5.245,2.867L5.3,2.684H5.126V2.83L5.117,2.827V2.684H4.384V2.693H4.274L4.246,2.785L3.34,5.834L2.422,2.785L2.395,2.693H2.294H2.285H1.561H1.552H1.368L1.423,2.876L2.936,7.441ZM3.327,6.305L3.33,6.313V6.304L3.327,6.305ZM4.888,5.754H5.035L5.035,5.763L5.035,5.773H4.888C4.888,6.112 4.915,6.387 4.98,6.597C5.044,6.781 5.145,6.964 5.282,7.111L5.383,7.019L5.383,7.019L5.388,7.024L5.282,7.12C5.383,7.239 5.53,7.34 5.695,7.422L5.698,7.415C5.881,7.515 6.109,7.569 6.364,7.569V7.431L6.373,7.431V7.569C6.648,7.569 6.877,7.514 7.06,7.413L7.058,7.41C7.143,7.375 7.227,7.325 7.289,7.266L7.289,7.267L7.449,7.115L7.454,7.12C7.601,6.964 7.702,6.79 7.766,6.588C7.821,6.387 7.848,6.112 7.848,5.763C7.848,5.416 7.821,5.142 7.757,4.941L7.766,4.939L7.763,4.93L7.766,4.929L7.763,4.93C7.691,4.735 7.602,4.558 7.461,4.432C7.37,4.305 7.233,4.205 7.06,4.114L7,4.226L6.996,4.224L6.994,4.223L7.06,4.104C6.877,4.013 6.639,3.967 6.373,3.967C6.089,3.967 5.869,4.004 5.685,4.095L5.704,4.131L5.695,4.114C5.522,4.205 5.385,4.305 5.275,4.432C5.141,4.56 5.043,4.74 4.98,4.92C4.915,5.131 4.888,5.406 4.888,5.754ZM5.759,4.224V4.233L5.759,4.233L5.695,4.095L5.759,4.224ZM5.066,6.568L5.11,6.556L5.111,6.559L5.108,6.561L5.041,6.576L4.989,6.588L5.066,6.568ZM7.02,7.344L6.993,7.297L6.996,7.294L6.996,7.294L6.998,7.293L7.02,7.344ZM7.766,6.579L7.628,6.542L7.628,6.542L7.638,6.533L7.766,6.579ZM7.051,5.782L7.051,5.773L6.923,5.773C6.923,5.543 6.904,5.378 6.886,5.287L7.032,5.263L7.031,5.258L6.886,5.287C6.868,5.213 6.84,5.14 6.794,5.085L6.892,5.005L6.895,5.003V5.002L6.905,4.994L6.904,4.994L6.901,4.99L6.895,4.994L6.776,5.067C6.749,5.021 6.703,4.984 6.629,4.948L6.683,4.828L6.679,4.826L6.62,4.948C6.556,4.911 6.464,4.893 6.373,4.893C6.284,4.893 6.204,4.91 6.132,4.944L6.134,4.948L6.132,4.944L6.125,4.948C6.043,4.984 5.997,5.021 5.951,5.076C5.905,5.14 5.878,5.204 5.859,5.296C5.832,5.388 5.823,5.543 5.823,5.763L5.676,5.763L5.676,5.773H5.823C5.823,5.993 5.832,6.139 5.859,6.231L5.722,6.249V6.258L5.859,6.231C5.859,6.308 5.898,6.372 5.932,6.428C5.937,6.437 5.943,6.445 5.948,6.454L5.951,6.451L6.134,6.588L6.128,6.599C6.192,6.635 6.282,6.652 6.373,6.652V6.643C6.472,6.643 6.553,6.626 6.626,6.599L6.62,6.588C6.694,6.552 6.758,6.497 6.785,6.46L6.795,6.468C6.841,6.404 6.877,6.331 6.886,6.24L6.889,6.223L7.016,6.256L7.017,6.248L6.889,6.222C6.907,6.13 6.923,5.988 6.923,5.782H7.051ZM6.889,6.222L6.889,6.223L6.886,6.222L6.889,6.222ZM6.84,5.035L6.895,4.994V5.002L6.892,5.005L6.84,5.035ZM6.84,5.035L6.785,5.076V5.067L6.84,5.035ZM6.067,6.715L6.063,6.713L6.1,6.648L6.067,6.715ZM6.679,6.705L6.681,6.705L6.665,6.675L6.679,6.705ZM5.84,6.552L5.836,6.547L5.841,6.542L5.894,6.503L5.84,6.552ZM15.937,2.674H13.67L13.67,7.535H15.937V6.669H14.536V5.314L15.937,5.314V4.448L14.536,4.448V3.54L15.937,3.54V2.674ZM10.004,2.674H13.234V3.54L12.052,3.54V7.535H11.186V3.54L10.004,3.54V2.674ZM13.626,9.034L13.718,9.075L13.616,9.034C13.565,9.21 13.524,9.375 13.524,9.572H13.514V12.042C13.514,12.249 13.555,12.425 13.616,12.59L13.719,12.541L13.72,12.543L13.626,12.59C13.698,12.725 13.789,12.869 13.912,12.973L13.916,12.967C14.018,13.068 14.149,13.149 14.289,13.2L14.323,13.108L14.325,13.108L14.289,13.21C14.432,13.252 14.575,13.283 14.728,13.283C14.871,13.283 15.014,13.252 15.157,13.2C15.3,13.149 15.432,13.076 15.545,12.962C15.667,12.859 15.748,12.735 15.83,12.59C15.902,12.425 15.932,12.249 15.932,12.042V10.574V10.471H15.83H14.657H14.646H14.555V10.574V11.153V11.164V11.257H14.657V11.267H15.065V12.042C15.065,12.177 15.034,12.27 14.963,12.321L14.967,12.326C14.897,12.375 14.817,12.404 14.728,12.404V12.415C14.626,12.415 14.545,12.384 14.473,12.332L14.417,12.398L14.412,12.394L14.411,12.394L14.473,12.321C14.422,12.27 14.381,12.177 14.381,12.042V9.572C14.381,9.437 14.422,9.344 14.483,9.303L14.479,9.298C14.546,9.241 14.623,9.202 14.718,9.2V9.21C14.82,9.21 14.891,9.241 14.953,9.303L15.031,9.217L15.033,9.219L15.024,9.234L14.963,9.313L15.002,9.268L14.973,9.313C15.033,9.363 15.073,9.443 15.075,9.572H15.055V9.809H15.065V9.913H15.157H15.167H15.82V9.809H15.84L15.84,9.913H15.942V9.809H15.932V9.572C15.932,9.377 15.892,9.202 15.822,9.038L15.83,9.034L15.821,9.038L15.82,9.034C15.748,8.879 15.657,8.745 15.545,8.641L15.48,8.711L15.477,8.709L15.534,8.641C15.422,8.538 15.289,8.465 15.146,8.414L15.113,8.506L15.111,8.505L15.146,8.403C15.004,8.362 14.861,8.331 14.718,8.331C14.566,8.331 14.424,8.362 14.282,8.413L14.279,8.403C14.148,8.475 14.028,8.546 13.917,8.647L13.912,8.641C13.789,8.745 13.698,8.879 13.626,9.034ZM12.378,8.486V8.486L12.481,8.486H12.378ZM12.155,12.971C12.251,12.873 12.328,12.773 12.377,12.636L12.389,12.642C12.45,12.497 12.491,12.342 12.491,12.177H12.481V10.967C12.481,10.681 12.411,10.455 12.241,10.29C12.081,10.12 11.872,10.039 11.634,10.037V10.037L11.628,10.037L11.623,10.037V10.037C11.495,10.038 11.386,10.069 11.266,10.12C11.238,10.131 11.211,10.144 11.185,10.158V9.199H12.378L12.378,9.21H12.481V9.106L12.389,9.106V9.096H12.491V8.486H12.481V8.383H12.378H10.501H10.491H10.399V8.486V10.988V10.998V11.091H10.491H10.501H11.083H11.154L11.174,11.04L11.167,11.035L11.205,10.967L11.246,10.915L11.17,10.833L11.174,10.833L11.246,10.905L11.307,10.864H11.317L11.271,10.769L11.277,10.766L11.328,10.854L11.428,10.843C11.482,10.845 11.52,10.864 11.557,10.9L11.552,10.905C11.593,10.946 11.623,11.009 11.623,11.071V12.166C11.623,12.249 11.603,12.311 11.572,12.352L11.638,12.41L11.562,12.352C11.532,12.384 11.491,12.404 11.409,12.404V12.414C11.345,12.413 11.289,12.394 11.251,12.357L11.256,12.352C11.215,12.301 11.185,12.249 11.185,12.146V11.98H11.083V11.97H11.185V11.867H11.083H10.429H10.419H10.328V11.97V12.177H10.307C10.307,12.342 10.328,12.497 10.389,12.632L10.486,12.59L10.488,12.594L10.399,12.642C10.47,12.776 10.542,12.89 10.644,12.983L10.649,12.988L10.644,12.993L10.649,12.988C10.747,13.087 10.855,13.156 10.982,13.207L10.981,13.21C11.014,13.218 11.047,13.226 11.08,13.233L11.08,13.233L11.08,13.233L11.08,13.233L11.08,13.233L11.08,13.233L11.08,13.233C11.186,13.259 11.287,13.283 11.389,13.283C11.532,13.283 11.664,13.252 11.797,13.21L11.766,13.112L11.807,13.21C11.94,13.159 12.052,13.076 12.154,12.983L12.149,12.978L12.154,12.973L12.164,12.983L12.155,12.971ZM12.155,12.971L12.103,12.9L12.093,12.911L12.154,12.973L12.155,12.971ZM11.557,10.901L11.558,10.901L11.552,10.905L11.557,10.901ZM11.61,10.857L11.557,10.901L11.557,10.9L11.628,10.837L11.629,10.838L11.61,10.857ZM11.61,10.857L11.631,10.839L11.633,10.841L11.598,10.869L11.61,10.857ZM11.174,10.833L11.171,10.829L11.177,10.825L11.185,10.833L11.174,10.833ZM11.17,10.833L11.164,10.833L11.168,10.831L11.17,10.833ZM11.083,9.106H11.083V9.106H11.083V9.106ZM11.637,12.415H11.643L11.643,12.415L11.641,12.417L11.637,12.415ZM11.18,12.415L11.172,12.422L11.164,12.415L11.164,12.415H11.18ZM2.936,13.145L1.423,8.581L1.368,8.398H1.552H1.561H2.285H2.294H2.395L2.422,8.489L3.34,11.539L4.246,8.489L4.274,8.398H4.384V8.389H5.117V8.532L5.126,8.535V8.389H5.3L5.245,8.572L3.733,13.145L3.696,13.237H3.605L3.605,13.099H3.605L3.605,13.237H3.064H2.963L2.936,13.145ZM3.339,12.018H3.339L3.339,12.008L3.339,12.008V12.018ZM3.33,12.009L3.327,12.01L3.33,12.018V12.009ZM5.019,11.468L5.019,11.459H4.872C4.872,11.111 4.9,10.836 4.964,10.625C5.027,10.445 5.126,10.264 5.26,10.136C5.369,10.009 5.506,9.909 5.679,9.818L5.688,9.835L5.67,9.8C5.853,9.708 6.073,9.672 6.357,9.672C6.623,9.672 6.861,9.718 7.045,9.809L6.999,9.891L6.98,9.928L6.984,9.931L7.045,9.818C7.217,9.909 7.354,10.009 7.446,10.136C7.586,10.262 7.676,10.44 7.747,10.635L7.75,10.643L7.742,10.646C7.806,10.847 7.833,11.121 7.833,11.468C7.833,11.816 7.805,12.091 7.75,12.293C7.686,12.495 7.585,12.669 7.439,12.825L7.434,12.819L7.274,12.971C7.212,13.03 7.128,13.08 7.043,13.115L7.045,13.118C6.861,13.219 6.632,13.274 6.357,13.274L6.357,13.136L6.348,13.136V13.274C6.093,13.274 5.865,13.219 5.683,13.12L5.679,13.127C5.514,13.045 5.367,12.944 5.267,12.825L5.367,12.733L5.372,12.729L5.367,12.724L5.267,12.815C5.129,12.669 5.028,12.486 4.964,12.302C4.9,12.091 4.872,11.816 4.872,11.477H5.019L5.019,11.468ZM7.035,11.486L7.035,11.477L6.907,11.477C6.907,11.248 6.889,11.083 6.87,10.991C6.852,10.918 6.825,10.845 6.779,10.79L6.876,10.709L6.825,10.74L6.88,10.698L6.76,10.771C6.733,10.726 6.687,10.689 6.614,10.652L6.657,10.555L6.605,10.652C6.541,10.616 6.449,10.597 6.357,10.597C6.269,10.597 6.188,10.615 6.117,10.649L6.11,10.652C6.027,10.689 5.981,10.726 5.936,10.781C5.89,10.845 5.862,10.909 5.844,11.001C5.816,11.092 5.807,11.248 5.807,11.468L5.661,11.468L5.532,11.468V11.477H5.661H5.807C5.807,11.697 5.816,11.844 5.844,11.936C5.844,12.012 5.883,12.076 5.917,12.133L5.917,12.133C5.922,12.142 5.927,12.15 5.932,12.159L5.936,12.156L6.119,12.293L6.113,12.304C6.177,12.339 6.267,12.357 6.357,12.357V12.348C6.456,12.348 6.538,12.33 6.61,12.304L6.605,12.293C6.678,12.256 6.742,12.201 6.77,12.165L6.78,12.173L6.788,12.161C6.829,12.1 6.862,12.03 6.87,11.945L6.874,11.927C6.891,11.835 6.907,11.693 6.907,11.486H7.035ZM6.825,10.74L6.77,10.781V10.771L6.825,10.74ZM16.559,2.728H18.985L20.247,3.989V7.581H16.559V2.728ZM18.208,4.455V6.639H18.81V3.776H18.374L17.549,4.232V4.814L18.208,4.455ZM16.559,8.438H18.981L20.24,9.698V13.283H16.559V8.438ZM17.382,12.343H19.388V11.868H18.167L18.748,11.335C18.971,11.132 19.136,10.948 19.233,10.793C19.33,10.638 19.378,10.473 19.378,10.299C19.378,10.124 19.339,9.979 19.252,9.853C19.175,9.727 19.058,9.62 18.913,9.562C18.777,9.485 18.603,9.446 18.409,9.446C18.148,9.446 17.925,9.514 17.731,9.64C17.556,9.756 17.44,9.94 17.363,10.192L17.857,10.386C17.915,10.221 17.983,10.105 18.06,10.027C18.138,9.95 18.254,9.911 18.38,9.911C18.506,9.911 18.593,9.95 18.661,10.008C18.719,10.076 18.758,10.172 18.758,10.299C18.758,10.415 18.729,10.512 18.671,10.608C18.622,10.705 18.525,10.822 18.39,10.957L17.382,11.907V12.343Z" fill="#000000" fill-opacity="1.0" /></svg>