<?xml version="1.0" encoding="utf-8" ?>
<svg baseProfile="full" height="18.0" version="1.1" viewBox="0 0 22.0 18.0" width="22.0" xmlns="http://www.w3.org/2000/svg" xmlns:ev="http://www.w3.org/2001/xml-events" xmlns:xlink="http://www.w3.org/1999/xlink"><defs /><path d="M4.38 3.03H4.37L3.76 3.04C3.58 3.06 3.4 3.1 3.23 3.18c-0.26 0.13-0.47 0.34-0.6 0.6-0.1 0.17-0.12 0.35-0.14 0.53L2.48 4.92v0.02 8.12 0.02l0.01 0.6c0.02 0.19 0.05 0.37 0.14 0.54 0.13 0.26 0.34 0.47 0.6 0.6 0.17 0.09 0.35 0.12 0.53 0.14l0.6 0.01h0.02 9.21 0.02l0.6-0.01c0.19-0.02 0.37-0.05 0.54-0.14 0.26-0.13 0.47-0.34 0.6-0.6 0.09-0.17 0.12-0.35 0.14-0.53l0.01-0.61v-0.02-8.12-0.02l-0.01-0.6c-0.02-0.19-0.05-0.37-0.14-0.54-0.13-0.26-0.34-0.47-0.6-0.6-0.17-0.09-0.35-0.12-0.53-0.14l-0.6-0.01h-0.03-9.2Zm9.22 5.81c0 0.38-0.06 0.71-0.19 1-0.12 0.28-0.3 0.51-0.51 0.7-0.4 0.35-0.94 0.52-1.65 0.52h-1.6V6.62h1.6c0.7 0 1.24 0.18 1.65 0.52 0.21 0.2 0.39 0.43 0.51 0.71 0.13 0.29 0.2 0.62 0.2 1Zm-1.13 0c0-0.46-0.11-0.8-0.35-1.04-0.2-0.21-0.5-0.32-0.9-0.32h-0.46v2.69h0.47c0.4 0 0.69-0.1 0.9-0.31 0.1-0.11 0.19-0.25 0.25-0.42 0.06-0.17 0.1-0.37 0.1-0.6ZM6 9.2h1.65v1.85h1.1V6.62h-1.1v1.7H5.99v-1.7H4.9v4.44h1.1V9.2Z" fill="#000000" fill-opacity="1.0" /><path d="M16.59 13.86c0.02-0.3 0.09-0.55 0.2-0.77 0.12-0.23 0.24-0.41 0.38-0.55 0.14-0.15 0.3-0.3 0.5-0.48 0.08-0.05 0.1-0.08 0.1-0.08l0.17-0.13c0.24-0.2 0.42-0.36 0.53-0.49 0.11-0.13 0.17-0.26 0.17-0.4 0-0.19-0.07-0.32-0.2-0.41-0.12-0.09-0.28-0.13-0.47-0.13-0.17 0-0.33 0.04-0.5 0.12-0.16 0.09-0.3 0.2-0.45 0.34l-0.45-0.66c0.14-0.14 0.34-0.27 0.6-0.4 0.26-0.14 0.59-0.2 0.98-0.2 0.3 0 0.56 0.05 0.78 0.16 0.23 0.1 0.4 0.26 0.52 0.45 0.13 0.19 0.19 0.4 0.19 0.66 0 0.22-0.05 0.42-0.16 0.6-0.1 0.18-0.2 0.31-0.29 0.4l-0.44 0.37-0.12 0.1c-0.18 0.14-0.33 0.27-0.45 0.39-0.12 0.1-0.2 0.21-0.25 0.3h1.88v0.8H16.6Z" fill="#000000" fill-opacity="1.0" /></svg>