<?xml version="1.0" encoding="utf-8" ?>
<svg baseProfile="full" height="16.0" version="1.1" viewBox="0 0 18.0 16.0" width="18.0" xmlns="http://www.w3.org/2000/svg" xmlns:ev="http://www.w3.org/2001/xml-events" xmlns:xlink="http://www.w3.org/1999/xlink"><defs /><path d="M11.2,8.5H13.7L15,9.8V13.5H11.2V8.5ZM12.9,10.28V12.53H13.52V9.58H13.07L12.22,10.05V10.65L12.9,10.28Z" fill="#000000" fill-opacity="1.0" /><path d="M6.124,8.457V9.109H4.762V10.413C4.826,10.359 4.912,10.304 5.009,10.261C5.116,10.217 5.223,10.196 5.341,10.196C5.577,10.196 5.77,10.261 5.91,10.413C6.06,10.554 6.135,10.772 6.135,11.065V12.326C6.135,12.489 6.114,12.641 6.049,12.761C5.985,12.913 5.91,13.022 5.824,13.098C5.717,13.207 5.609,13.272 5.481,13.315C5.363,13.37 5.234,13.391 5.094,13.391C4.955,13.391 4.826,13.37 4.697,13.315C4.579,13.272 4.472,13.207 4.376,13.098C4.279,13.022 4.204,12.913 4.14,12.783C4.086,12.663 4.064,12.511 4.064,12.348V12.13H4.751V12.315C4.751,12.435 4.783,12.533 4.858,12.598C4.923,12.663 5.009,12.707 5.105,12.707C5.212,12.707 5.288,12.663 5.341,12.598C5.406,12.533 5.438,12.446 5.438,12.337V11.174C5.438,11.076 5.406,10.989 5.33,10.924C5.277,10.859 5.202,10.815 5.116,10.815C5.052,10.815 5.009,10.837 4.955,10.859L4.848,10.924L4.794,11.011L4.762,11.087H4.14V8.457H6.124Z" fill="#000000" fill-opacity="1.0" /><path d="M6.124,8.457L6.232,8.457V8.348H6.124L6.124,8.457ZM6.124,9.109L6.124,9.217H6.232V9.109L6.124,9.109ZM4.751,9.109V9H4.655V9.109L4.762,9.109L4.751,9.109ZM4.751,10.424H4.655V10.696L4.837,10.511L4.762,10.413L4.751,10.424ZM4.998,10.272L5.041,10.38V10.359L4.998,10.25V10.272ZM5.899,10.413L5.835,10.5L5.91,10.424L5.899,10.413ZM6.049,12.772L5.942,12.728L6.039,12.772H6.049ZM5.835,13.098L5.899,13.185L5.824,13.109L5.835,13.098ZM4.386,13.098L4.301,13.196L4.376,13.12L4.386,13.098ZM4.075,12.12V12.011H3.968V12.12H4.075ZM4.762,12.12H4.869V12.011H4.762V12.12ZM4.869,12.587L4.762,12.663L4.848,12.587H4.869ZM5.352,12.587L5.266,12.522L5.341,12.587H5.352ZM5.352,10.924L5.255,11L5.341,10.924H5.352ZM4.955,10.859L4.998,10.957H5.009L4.955,10.848L4.955,10.859ZM4.848,10.924L4.794,10.848L4.869,10.924L4.848,10.924ZM4.805,11.011L4.891,11.065L4.794,11L4.805,11.011ZM4.762,11.087L4.762,11.196H4.837L4.858,11.141L4.762,11.087ZM4.15,11.087H4.043V11.196H4.15V11.087ZM4.15,8.348H4.043V8.457H4.15V8.348ZM6.028,8.446V9.098H6.242V8.457H6.028V8.446ZM6.135,8.989H4.762V9.207H6.135V8.989ZM4.655,9.109V10.435H4.869V9.109H4.655ZM4.837,10.522C4.891,10.467 4.966,10.413 5.052,10.38L4.955,10.174C4.848,10.217 4.751,10.283 4.676,10.348L4.826,10.522H4.837ZM5.052,10.38C5.137,10.337 5.234,10.326 5.341,10.326V10.087C5.202,10.087 5.084,10.12 4.955,10.174L5.041,10.37L5.052,10.38ZM5.341,10.326C5.556,10.326 5.717,10.391 5.835,10.511L5.985,10.359C5.813,10.174 5.588,10.087 5.33,10.087V10.304L5.341,10.326ZM5.835,10.5C5.942,10.609 6.017,10.793 6.017,11.065H6.232C6.232,10.761 6.157,10.522 5.974,10.348L5.835,10.5ZM6.017,11.065V12.337H6.232V11.065H6.017ZM6.017,12.337C6.017,12.489 5.996,12.62 5.942,12.728L6.135,12.826C6.199,12.674 6.242,12.511 6.242,12.337H6.017ZM5.942,12.728C5.888,12.848 5.835,12.946 5.727,13.033L5.878,13.185C5.985,13.076 6.071,12.967 6.124,12.815L5.942,12.728ZM5.727,13.033C5.652,13.109 5.556,13.174 5.438,13.217L5.524,13.424C5.663,13.37 5.781,13.283 5.888,13.185L5.738,13.033H5.727ZM5.449,13.217C5.341,13.261 5.223,13.283 5.084,13.283V13.5C5.234,13.5 5.373,13.467 5.513,13.424L5.449,13.217ZM5.084,13.283C4.955,13.283 4.837,13.261 4.73,13.217L4.655,13.424C4.805,13.457 4.944,13.5 5.084,13.5V13.283ZM4.74,13.217C4.633,13.174 4.526,13.109 4.451,13.033L4.301,13.185C4.408,13.293 4.526,13.37 4.665,13.424L4.74,13.217ZM4.451,13.033C4.365,12.946 4.29,12.848 4.225,12.728L4.043,12.826C4.118,12.967 4.193,13.087 4.301,13.185L4.451,13.033ZM4.225,12.728C4.183,12.62 4.161,12.489 4.161,12.337H3.947C3.947,12.511 3.968,12.674 4.032,12.815L4.236,12.728H4.225ZM4.183,12.337V12.12H3.968V12.337H4.183ZM4.762,12.228V12.011H4.065V12.228H4.762ZM4.655,12.12V12.304H4.869V12.13H4.655V12.12ZM4.655,12.304C4.655,12.446 4.698,12.576 4.783,12.663L4.944,12.522C4.901,12.467 4.869,12.413 4.869,12.304H4.655ZM4.783,12.674C4.88,12.761 4.998,12.793 5.116,12.793V12.587C5.041,12.587 4.976,12.565 4.934,12.522L4.773,12.674H4.783ZM5.116,12.793C5.245,12.793 5.363,12.761 5.438,12.663L5.266,12.522C5.234,12.554 5.191,12.576 5.105,12.576V12.793H5.116ZM5.438,12.663C5.513,12.576 5.545,12.446 5.545,12.326H5.33C5.33,12.413 5.309,12.478 5.277,12.522L5.438,12.663ZM5.545,12.326V11.174H5.33V12.326H5.545ZM5.545,11.174C5.545,11.054 5.513,10.935 5.438,10.848L5.255,11C5.298,11.043 5.33,11.109 5.33,11.174H5.545ZM5.438,10.848C5.352,10.761 5.245,10.717 5.116,10.717V10.935C5.18,10.935 5.223,10.957 5.266,11L5.416,10.848H5.438ZM5.116,10.717C5.052,10.717 4.976,10.717 4.912,10.761L5.019,10.946L5.127,10.935V10.717H5.116ZM4.912,10.761C4.869,10.783 4.816,10.804 4.783,10.848L4.934,11L4.998,10.957L4.912,10.761ZM4.783,10.848C4.74,10.88 4.719,10.924 4.698,10.967L4.891,11.065L4.934,11.011L4.783,10.848ZM4.698,10.957L4.655,11.043L4.848,11.141L4.891,11.065L4.698,10.957ZM4.762,10.978H4.14V11.196H4.762V10.978ZM4.258,8.457H4.043V11.098H4.258V8.457ZM4.14,8.565H6.124V8.348H4.14V8.565Z" fill="#000000" fill-opacity="1.0" /><path d="M7.143,9.076C7.143,9.076 7.143,9.076 7.143,9.076L7.047,9.033C7.122,8.87 7.218,8.728 7.347,8.62L7.352,8.626C7.469,8.52 7.596,8.445 7.733,8.37L7.736,8.38C7.885,8.326 8.035,8.294 8.194,8.294C8.345,8.294 8.495,8.326 8.645,8.37L8.608,8.477C8.609,8.477 8.609,8.477 8.61,8.477L8.645,8.381C8.795,8.435 8.935,8.511 9.053,8.62L8.992,8.691C8.993,8.691 8.994,8.692 8.996,8.693L9.063,8.62C9.181,8.728 9.278,8.87 9.353,9.033C9.354,9.034 9.354,9.035 9.355,9.036L9.364,9.033L9.355,9.037C9.429,9.21 9.471,9.393 9.471,9.598V9.848H9.482V9.957H9.375L9.375,9.848H9.353V9.957H8.667H8.656H8.559V9.848H8.549V9.598H8.57C8.568,9.463 8.525,9.379 8.463,9.326L8.493,9.279L8.452,9.326L8.516,9.243L8.526,9.227C8.525,9.227 8.525,9.226 8.524,9.226L8.441,9.315C8.377,9.25 8.302,9.217 8.194,9.217V9.207C8.095,9.21 8.014,9.25 7.943,9.31L7.948,9.315C7.883,9.359 7.84,9.457 7.84,9.598V12.196C7.84,12.337 7.883,12.435 7.937,12.489L7.872,12.565C7.872,12.565 7.872,12.565 7.873,12.565C7.874,12.567 7.876,12.568 7.877,12.57L7.937,12.5C8.012,12.554 8.098,12.587 8.205,12.587V12.576C8.299,12.576 8.383,12.545 8.456,12.494L8.452,12.489C8.527,12.435 8.559,12.337 8.559,12.196V11.38H8.13V11.37H8.023V11.272V11.261V10.652V10.544H8.119H8.13H9.364H9.471V10.652V12.196C9.471,12.413 9.439,12.598 9.364,12.772C9.278,12.924 9.192,13.054 9.063,13.163C8.945,13.283 8.806,13.359 8.656,13.413C8.506,13.467 8.355,13.5 8.205,13.5C8.044,13.5 7.894,13.467 7.744,13.424L7.781,13.317C7.78,13.316 7.78,13.316 7.779,13.316L7.744,13.413C7.596,13.359 7.458,13.274 7.352,13.168L7.347,13.174C7.218,13.065 7.122,12.913 7.047,12.772L7.145,12.722C7.145,12.721 7.144,12.72 7.144,12.72L7.036,12.772C6.971,12.598 6.929,12.413 6.929,12.196V9.598H6.939C6.939,9.391 6.982,9.217 7.036,9.033L7.143,9.076Z" fill="#000000" fill-opacity="1.0" /><path d="M4.785,7.754L4.757,7.663L3.245,3.098L3.19,2.915H3.373H3.383H4.107H4.116H4.217L4.244,3.007L5.161,6.056L6.068,3.007L6.095,2.915H6.205V2.906H6.939V3.049L6.948,3.052V2.906H7.122L7.067,3.089L5.555,7.663L5.518,7.754H5.426H4.886H4.785ZM5.151,6.535L5.149,6.527L5.151,6.526V6.535ZM6.856,5.976H6.71C6.71,5.628 6.737,5.353 6.801,5.142C6.864,4.962 6.963,4.782 7.097,4.654C7.206,4.527 7.343,4.426 7.516,4.335L7.525,4.352L7.507,4.317C7.69,4.226 7.91,4.189 8.194,4.189C8.46,4.189 8.698,4.235 8.882,4.326L8.816,4.445C8.817,4.445 8.817,4.445 8.818,4.445C8.819,4.446 8.82,4.447 8.821,4.448L8.882,4.335C9.055,4.426 9.191,4.526 9.283,4.653C9.423,4.78 9.513,4.957 9.584,5.152L9.587,5.151L9.585,5.152C9.586,5.155 9.587,5.158 9.587,5.16L9.579,5.163C9.643,5.364 9.67,5.638 9.67,5.985C9.67,6.334 9.642,6.609 9.587,6.81C9.523,7.012 9.423,7.186 9.276,7.342L9.271,7.337L9.111,7.488L9.111,7.488C9.049,7.547 8.965,7.597 8.88,7.632L8.882,7.635C8.698,7.736 8.469,7.791 8.194,7.791V7.653C8.191,7.653 8.188,7.653 8.185,7.653V7.791C7.93,7.791 7.702,7.737 7.52,7.637L7.516,7.644C7.351,7.562 7.204,7.461 7.104,7.342L7.209,7.246C7.208,7.244 7.206,7.242 7.205,7.241C7.205,7.241 7.205,7.241 7.205,7.241L7.104,7.333C6.966,7.186 6.865,7.003 6.801,6.819C6.737,6.609 6.71,6.334 6.71,5.994H6.856C6.856,5.991 6.856,5.988 6.856,5.985C6.856,5.982 6.856,5.979 6.856,5.976ZM7.58,4.455V4.445L7.516,4.317L7.58,4.455L7.58,4.455ZM6.931,6.778L6.887,6.79L6.81,6.81L6.863,6.798L6.93,6.783L6.932,6.781C6.932,6.78 6.932,6.779 6.931,6.778ZM8.815,7.519L8.842,7.566L8.819,7.515C8.819,7.515 8.818,7.516 8.818,7.516C8.818,7.516 8.818,7.516 8.818,7.516L8.815,7.519ZM9.45,6.764L9.587,6.801L9.459,6.755L9.45,6.764C9.45,6.764 9.45,6.764 9.45,6.764ZM8.891,5.994H8.873C8.873,5.997 8.873,6.001 8.873,6.004H8.744C8.744,6.21 8.728,6.352 8.711,6.444L8.708,6.444L8.711,6.444C8.71,6.45 8.709,6.456 8.708,6.462C8.699,6.553 8.662,6.626 8.617,6.69L8.607,6.682C8.579,6.718 8.515,6.773 8.442,6.81L8.447,6.821C8.375,6.847 8.293,6.865 8.194,6.865V6.874C8.104,6.874 8.014,6.857 7.95,6.821L7.956,6.81L7.773,6.673L7.769,6.676C7.764,6.667 7.759,6.659 7.754,6.65C7.72,6.593 7.681,6.529 7.681,6.453C7.654,6.361 7.644,6.214 7.644,5.994H7.498C7.498,5.991 7.498,5.988 7.498,5.985L7.644,5.985C7.644,5.765 7.654,5.609 7.681,5.518C7.699,5.426 7.727,5.362 7.773,5.298C7.819,5.243 7.864,5.206 7.947,5.17C7.949,5.168 7.952,5.167 7.954,5.166L7.956,5.17L7.954,5.166C8.026,5.132 8.106,5.115 8.194,5.115C8.286,5.115 8.378,5.133 8.442,5.17L8.5,5.048C8.502,5.048 8.503,5.049 8.504,5.05L8.451,5.17C8.524,5.206 8.57,5.243 8.598,5.289L8.717,5.215L8.662,5.257L8.607,5.289V5.298L8.662,5.257L8.714,5.226L8.616,5.307C8.662,5.362 8.689,5.435 8.708,5.509C8.726,5.6 8.744,5.765 8.744,5.994L8.891,5.994ZM8.726,5.216C8.726,5.216 8.726,5.216 8.726,5.215C8.725,5.214 8.724,5.213 8.723,5.212L8.717,5.215V5.224L8.714,5.226L8.717,5.225V5.224L8.726,5.216ZM8.852,5.48L8.708,5.509L8.853,5.484C8.853,5.483 8.853,5.481 8.852,5.48ZM7.884,6.935C7.886,6.935 7.887,6.936 7.888,6.936L7.922,6.87L7.884,6.935ZM8.502,6.927C8.502,6.927 8.501,6.927 8.501,6.927L8.487,6.897L8.502,6.927ZM8.838,6.478L8.711,6.444C8.711,6.444 8.711,6.444 8.711,6.444L8.839,6.47C8.839,6.473 8.838,6.475 8.838,6.478ZM7.658,6.769C7.659,6.771 7.66,6.772 7.662,6.774L7.715,6.725L7.663,6.764L7.658,6.769ZM7.681,6.453L7.544,6.48V6.471L7.681,6.453Z" fill="#000000" fill-opacity="1.0" /></svg>