<?xml version="1.0" encoding="utf-8" ?>
<svg baseProfile="full" height="24.0" version="1.1" viewBox="0 0 24.0 24.0" width="24.0" xmlns="http://www.w3.org/2000/svg" xmlns:ev="http://www.w3.org/2001/xml-events" xmlns:xlink="http://www.w3.org/1999/xlink"><defs /><path d="M3.095,8.614C1.156,6.675 0.657,3.632 2.446,1.843C4.146,0.143 6.979,0.508 8.92,2.213C8.565,2.238 8.205,2.312 7.847,2.44C6.648,2.871 5.583,3.712 4.896,4.903C4.028,6.406 3.946,8.141 4.498,9.643L4.51,9.676C4.002,9.398 3.522,9.041 3.095,8.614ZM8.287,3.664C8.915,3.438 9.565,3.463 10.145,3.674L10.145,3.674C10.865,3.937 11.477,4.486 11.806,5.205C12.363,6.422 12.4,7.833 11.707,9.033C11.107,10.072 10.094,10.719 8.968,10.954C8.886,10.971 8.804,10.984 8.721,10.994C7.459,11.143 6.176,10.438 5.718,9.194C5.291,8.034 5.357,6.703 6.021,5.553C6.548,4.64 7.363,3.996 8.287,3.664ZM8.793,7.259C8.251,8.197 8.216,9.19 8.714,9.478C9.212,9.765 10.055,9.238 10.597,8.301C11.138,7.363 11.173,6.37 10.675,6.083C10.177,5.795 9.334,6.322 8.793,7.259ZM3.3,10.453C4.216,11.066 5.272,11.482 6.344,11.622C6.768,11.85 7.229,12.007 7.7,12.089V16C7.7,17.215 6.715,18.2 5.5,18.2C4.285,18.2 3.3,17.215 3.3,16V10.453ZM21.419,6.843C23.208,8.632 22.709,11.675 20.77,13.614C20.344,14.041 19.863,14.398 19.355,14.676L19.367,14.643C19.92,13.141 19.837,11.406 18.97,9.903C18.282,8.712 17.217,7.871 16.018,7.44C15.66,7.312 15.301,7.238 14.945,7.213C16.887,5.508 19.719,5.143 21.419,6.843ZM13.72,8.674C14.3,8.463 14.95,8.438 15.578,8.664C16.502,8.996 17.317,9.64 17.844,10.553C18.508,11.703 18.574,13.034 18.147,14.194C17.69,15.438 16.406,16.143 15.144,15.994C15.061,15.984 14.979,15.971 14.897,15.954C13.771,15.719 12.758,15.072 12.158,14.033C11.466,12.833 11.502,11.422 12.059,10.205C12.388,9.486 13,8.937 13.72,8.674L13.72,8.674ZM15.151,14.478C15.649,14.19 15.614,13.197 15.072,12.259C14.531,11.322 13.688,10.795 13.19,11.083C12.692,11.37 12.727,12.363 13.269,13.301C13.81,14.238 14.653,14.765 15.151,14.478ZM20.566,15.453C19.65,16.066 18.594,16.482 17.522,16.622C17.098,16.85 16.637,17.007 16.166,17.089V21C16.166,22.215 17.151,23.2 18.366,23.2C19.581,23.2 20.566,22.215 20.566,21V15.453Z" fill="#000000" fill-opacity="1.0" /></svg>