<?xml version="1.0" encoding="utf-8" ?>
<svg baseProfile="full" height="16.0" version="1.1" viewBox="0 0 22.0 16.0" width="22.0" xmlns="http://www.w3.org/2000/svg" xmlns:ev="http://www.w3.org/2001/xml-events" xmlns:xlink="http://www.w3.org/1999/xlink"><defs /><path d="M11 10.67c-0.58 0-1.13 0.21-1.54 0.57l-0.3 0.26C9 11.64 9 11.88 9.14 12.03l1.6 1.6c0.14 0.14 0.38 0.14 0.52 0l1.6-1.6c0.15-0.15 0.14-0.4-0.02-0.53l-0.3-0.26c-0.41-0.36-0.96-0.57-1.54-0.57Z" fill="#000000" fill-opacity="1.0" /><path d="M8.34 10.24C9.06 9.6 10 9.23 10.99 9.23c1 0 1.94 0.36 2.67 1.02l0.28 0.24c0.15 0.14 0.38 0.12 0.51-0.03l0.49-0.54c0.13-0.15 0.12-0.38-0.03-0.52l-0.28-0.24c-1-0.9-2.28-1.39-3.64-1.39-1.35 0-2.64 0.5-3.63 1.4L7.09 9.4C6.94 9.54 6.93 9.77 7.06 9.92l0.5 0.54c0.13 0.15 0.36 0.16 0.5 0.03l0.28-0.25Z" fill="#000000" fill-opacity="1.0" /><path d="M11 6.3c-1.78 0-3.45 0.66-4.73 1.86L6 8.4C5.86 8.54 5.63 8.54 5.5 8.39L5 7.86C4.85 7.7 4.86 7.48 5.01 7.34L5.27 7.1C6.82 5.64 8.85 4.84 11 4.84c2.14 0 4.16 0.8 5.73 2.26l0.26 0.25c0.15 0.14 0.16 0.37 0.02 0.51L16.5 8.4c-0.12 0.14-0.36 0.15-0.5 0.02l-0.27-0.25C14.42 6.96 12.76 6.3 11 6.3Z" fill="#000000" fill-opacity="0.2" /><path d="M11 3.37c-2.58 0-4.99 0.97-6.8 2.7L3.93 6.34C3.8 6.47 3.56 6.46 3.42 6.32l-0.5-0.53c-0.14-0.15-0.14-0.38 0-0.52L3.2 5.02c2.1-2 4.86-3.1 7.8-3.1 2.93 0 5.7 1.1 7.81 3.1l0.27 0.26c0.14 0.14 0.15 0.37 0 0.51l-0.5 0.53c-0.13 0.15-0.36 0.15-0.5 0.01L17.8 6.08c-1.84-1.75-4.25-2.7-6.8-2.7Z" fill="#000000" fill-opacity="0.2" /></svg>