<?xml version="1.0" encoding="utf-8" ?>
<svg baseProfile="full" height="16.5" version="1.1" viewBox="0 0 24.0 24.0" width="16.5" xmlns="http://www.w3.org/2000/svg" xmlns:ev="http://www.w3.org/2001/xml-events" xmlns:xlink="http://www.w3.org/1999/xlink"><defs /><path d="M19,0.75 L19,18.05 C19,18.65 18.5,19.15 17.9,19.15 L0.5,19.15 C0.2,19.25 0,18.95 0,18.65 C0,18.55 0.1,18.35 0.2,18.25 L18.1,0.35 C18.3,0.15 18.7,0.15 18.9,0.35 C18.9,0.55 19,0.65 19,0.75 Z" fill="#181819" fill-opacity="1.0" /><path d="M7.51073165,19.15 C6.14509579,19.15 4.89323804,19.15 3.7551584,19.15 C3.12487765,19.15 2.03982484,19.15 0.5,19.15 C0.2,19.25 0,18.95 0,18.65 C0,18.55 0.1,18.35 0.2,18.25 C1.88163334,16.5683667 3.06423112,15.3857689 3.74779334,14.7022067 C4.86173909,13.5882609 6.11504381,12.3349562 7.50770751,10.9422925 L7.51073165,19.15 Z" fill="#181819" fill-opacity="1.0" /></svg>