<?xml version="1.0" encoding="utf-8" ?>
<svg baseProfile="full" height="24.0" version="1.1" viewBox="0 0 24.0 24.0" width="24.0" xmlns="http://www.w3.org/2000/svg" xmlns:ev="http://www.w3.org/2001/xml-events" xmlns:xlink="http://www.w3.org/1999/xlink"><defs /><path d="M9.546,2.294H9.573H14.413H14.439H14.439H14.439H14.439C14.781,2.294 15.078,2.294 15.324,2.314C15.584,2.335 15.847,2.382 16.101,2.512C16.477,2.704 16.783,3.01 16.975,3.386C17.104,3.64 17.152,3.903 17.173,4.163C17.193,4.409 17.193,4.706 17.193,5.047V5.047V5.074V18.914V18.941V18.941C17.193,19.282 17.193,19.579 17.173,19.825C17.152,20.085 17.104,20.348 16.975,20.602C16.783,20.978 16.477,21.284 16.101,21.476C15.847,21.605 15.584,21.653 15.324,21.674C15.078,21.694 14.781,21.694 14.439,21.694H14.413H9.573H9.546C9.205,21.694 8.908,21.694 8.662,21.674C8.402,21.653 8.139,21.605 7.885,21.476C7.508,21.284 7.203,20.978 7.011,20.602C6.881,20.348 6.834,20.085 6.813,19.825C6.793,19.579 6.793,19.282 6.793,18.941V18.941V18.941V18.914V5.074V5.047V5.047V5.047C6.793,4.706 6.793,4.409 6.813,4.163C6.834,3.903 6.881,3.64 7.011,3.386C7.203,3.01 7.508,2.704 7.885,2.512C8.139,2.382 8.402,2.335 8.662,2.314C8.907,2.294 9.205,2.294 9.546,2.294H9.546H9.546H9.546ZM12.749,4.814C12.749,5.228 12.413,5.564 11.999,5.564C11.585,5.564 11.249,5.228 11.249,4.814C11.249,4.4 11.585,4.064 11.999,4.064C12.414,4.064 12.749,4.4 12.749,4.814ZM9.499,19.345C9.499,19.069 9.723,18.845 9.999,18.845H13.999C14.275,18.845 14.499,19.069 14.499,19.345C14.499,19.621 14.275,19.845 13.999,19.845H9.999C9.723,19.845 9.499,19.621 9.499,19.345ZM2.551,6.663C2.848,6.415 3.29,6.455 3.537,6.752L5.537,9.15C5.754,9.41 5.754,9.787 5.537,10.047L3.911,11.998L5.538,13.952C5.754,14.211 5.754,14.588 5.538,14.848L3.538,17.25C3.29,17.547 2.849,17.588 2.552,17.34C2.255,17.093 2.214,16.652 2.462,16.354L4.089,14.4L2.462,12.445C2.246,12.185 2.246,11.808 2.462,11.549L4.088,9.598L2.462,7.649C2.215,7.352 2.255,6.91 2.551,6.663ZM21.448,6.667C21.745,6.914 21.785,7.356 21.538,7.653L19.911,9.607L21.538,11.558C21.754,11.818 21.754,12.195 21.537,12.455L19.911,14.405L21.537,16.354C21.785,16.651 21.745,17.092 21.448,17.34C21.151,17.588 20.71,17.548 20.462,17.251L18.462,14.853C18.246,14.593 18.246,14.216 18.462,13.956L20.088,12.006L18.462,10.056C18.246,9.796 18.246,9.419 18.462,9.16L20.462,6.757C20.709,6.46 21.15,6.42 21.448,6.667Z" fill="#ffffff" fill-opacity="1.0" /></svg>