<?xml version="1.0" encoding="utf-8" ?>
<svg baseProfile="full" height="24.0" version="1.1" viewBox="0 0 24.0 24.0" width="24.0" xmlns="http://www.w3.org/2000/svg" xmlns:ev="http://www.w3.org/2001/xml-events" xmlns:xlink="http://www.w3.org/1999/xlink"><defs /><path d="M12.005,20.805L8.808,22.404C8.466,22.575 8.065,22.327 8.065,21.945V21.116C8.065,20.794 8.2,20.488 8.439,20.272L10.283,18.599L10.047,14.196L2.874,16.097C2.534,16.187 2.2,15.931 2.2,15.579V14.773C2.2,14.36 2.399,13.972 2.733,13.73L9.67,8.72C9.969,8.46 10.028,8.319 10.028,7.847L10.024,4.295C10.024,2.426 10.875,1.01 12.004,1C13.117,1.01 13.987,2.457 13.987,4.295L13.986,7.847C13.986,8.319 14.044,8.46 14.352,8.733L21.275,13.726C21.61,13.968 21.809,14.356 21.809,14.769V15.574C21.809,15.925 21.476,16.182 21.136,16.092L13.967,14.192L13.728,18.599L15.572,20.271C15.81,20.487 15.946,20.794 15.946,21.115V21.945C15.946,22.327 15.545,22.575 15.203,22.404L12.005,20.805Z" fill="#ffffff" fill-opacity="1.0" /></svg>