<?xml version="1.0" encoding="utf-8" ?>
<svg baseProfile="full" height="24.0" version="1.1" viewBox="0 0 24.0 24.0" width="24.0" xmlns="http://www.w3.org/2000/svg" xmlns:ev="http://www.w3.org/2001/xml-events" xmlns:xlink="http://www.w3.org/1999/xlink"><defs /><path d="M11.991,4.697C9.657,4.697 7.469,5.594 5.841,7.202C5.566,7.474 5.123,7.471 4.851,7.196C4.58,6.921 4.582,6.477 4.858,6.206C6.75,4.336 9.293,3.297 11.991,3.297C14.691,3.297 17.239,4.344 19.16,6.24C19.435,6.512 19.438,6.955 19.167,7.23C18.895,7.505 18.452,7.508 18.177,7.237C16.517,5.599 14.322,4.697 11.991,4.697Z" fill="#2c2c2c" fill-opacity="1.0" /><path d="M11.991,8.565C10.678,8.565 9.445,9.073 8.529,9.977C8.254,10.249 7.811,10.246 7.539,9.971C7.267,9.696 7.27,9.253 7.545,8.981C8.725,7.816 10.312,7.165 11.991,7.165C13.671,7.165 15.258,7.817 16.454,8.998C16.729,9.27 16.732,9.713 16.461,9.988C16.189,10.263 15.746,10.266 15.47,9.995C14.536,9.072 13.302,8.565 11.991,8.565Z" fill="#2c2c2c" fill-opacity="1.0" /><path d="M11.999,10.813C11.412,10.813 10.87,11.022 10.453,11.385C10.306,11.513 10.219,11.695 10.212,11.889C10.206,12.084 10.28,12.272 10.418,12.409L11.504,13.493C11.778,13.765 12.22,13.765 12.493,13.493L13.58,12.409C13.717,12.272 13.792,12.084 13.785,11.889C13.778,11.695 13.691,11.513 13.545,11.385C13.127,11.022 12.585,10.813 11.999,10.813Z" fill="#2c2c2c" fill-opacity="1.0" /><path d="M9.328,13.3H4.499L4.402,13.3C3.961,13.299 3.562,13.299 3.205,13.439C2.894,13.561 2.618,13.76 2.403,14.017C2.157,14.311 2.031,14.69 1.893,15.109L1.862,15.201L1.038,17.673L1.029,17.701C0.918,18.032 0.821,18.324 0.763,18.568C0.703,18.823 0.663,19.112 0.739,19.414C0.845,19.835 1.107,20.2 1.473,20.433C1.736,20.601 2.023,20.654 2.283,20.678C2.533,20.7 2.841,20.7 3.19,20.7H3.19H3.19L3.22,20.7H20.78L20.81,20.7C21.159,20.7 21.467,20.7 21.717,20.678C21.977,20.654 22.264,20.601 22.527,20.433C22.893,20.2 23.156,19.835 23.262,19.414C23.337,19.112 23.297,18.823 23.237,18.568C23.18,18.324 23.082,18.032 22.972,17.701L22.962,17.673L22.138,15.201L22.108,15.109C21.969,14.69 21.843,14.311 21.597,14.017C21.383,13.76 21.107,13.561 20.795,13.439C20.438,13.299 20.039,13.299 19.598,13.3L19.501,13.3H14.669L13.482,14.485C12.662,15.302 11.335,15.302 10.516,14.485L9.328,13.3Z" fill="#2c2c2c" fill-opacity="1.0" /></svg>