<?xml version="1.0" encoding="utf-8" ?>
<svg baseProfile="full" height="16.0" version="1.1" viewBox="0 0 22.0 16.0" width="22.0" xmlns="http://www.w3.org/2000/svg" xmlns:ev="http://www.w3.org/2001/xml-events" xmlns:xlink="http://www.w3.org/1999/xlink"><defs /><path d="M16.559,2.728H18.985L20.247,3.989V7.581H16.559V2.728ZM18.208,4.455V6.639H18.81V3.776H18.374L17.549,4.232V4.814L18.208,4.455Z" fill="#000000" fill-opacity="1.0" /><path d="M16.559,8.438H18.981L20.24,9.698V13.283H16.559V8.438ZM17.382,12.343H19.388V11.868H18.167L18.748,11.335C18.971,11.132 19.136,10.948 19.233,10.793C19.33,10.638 19.378,10.473 19.378,10.299C19.378,10.124 19.339,9.979 19.252,9.853C19.175,9.727 19.058,9.62 18.913,9.562C18.777,9.485 18.603,9.446 18.409,9.446C18.148,9.446 17.925,9.514 17.731,9.64C17.556,9.756 17.44,9.94 17.363,10.192L17.857,10.386C17.915,10.221 17.983,10.105 18.06,10.027C18.138,9.95 18.254,9.911 18.38,9.911C18.506,9.911 18.593,9.95 18.661,10.008C18.719,10.076 18.758,10.172 18.758,10.299C18.758,10.415 18.729,10.512 18.671,10.608C18.622,10.705 18.525,10.822 18.39,10.957L17.382,11.907V12.343Z" fill="#000000" fill-opacity="1.0" /><path d="M8.57,4.726C8.835,4.726 9.09,4.832 9.277,5.019C9.465,5.207 9.57,5.461 9.57,5.726V6.726C9.57,6.991 9.465,7.246 9.277,7.433C9.09,7.621 8.835,7.726 8.57,7.726C8.305,7.726 8.05,7.621 7.863,7.433C7.675,7.246 7.57,6.991 7.57,6.726V5.726C7.57,5.461 7.675,5.207 7.863,5.019C8.05,4.832 8.305,4.726 8.57,4.726Z" fill="#000000" fill-opacity="0.0" /><path d="M3.01,3.375H4.275L4.948,5.97L5.567,3.375H6.742L5.473,8.105H4.428L3.01,3.375Z" fill="#000000" fill-opacity="1.0" /><path d="M3,9.175H3.9L4.429,11.519L5.083,9.175H5.713L6.364,11.519L6.896,9.175H7.795L6.75,13.275H6.05L5.397,10.858L4.742,13.275H4.045L3,9.175ZM8.014,9.175H9.114V10.275H8.014V9.175ZM9.681,9.175H12.114V10.074H10.781V10.778H12.114V11.676H10.781V13.275H9.681V9.175ZM12.681,9.175H13.781V10.275H12.681V9.175ZM8.014,10.508H9.114V13.275H8.014V10.508ZM12.681,10.508H13.781V13.275H12.681V10.508Z" fill="#000000" fill-opacity="1.0" /></svg>