<?xml version="1.0" encoding="utf-8" ?>
<svg baseProfile="full" height="12.0" version="1.1" viewBox="0 0 22.0 12.0" width="22.0" xmlns="http://www.w3.org/2000/svg" xmlns:ev="http://www.w3.org/2001/xml-events" xmlns:xlink="http://www.w3.org/1999/xlink"><defs /><path d="M0.283,2.09C0,2.646 0,3.374 0,4.83V7.84C0,9.296 0,10.024 0.283,10.58C0.533,11.069 0.93,11.467 1.42,11.717C1.976,12 2.704,12 4.16,12H16.84C18.296,12 19.024,12 19.58,11.717C20.07,11.467 20.467,11.069 20.717,10.58C20.965,10.092 20.996,9.471 21,8.34H21C21.552,8.34 22,7.892 22,7.34V5.34C22,4.788 21.552,4.34 21,4.34H21C20.996,3.203 20.966,2.579 20.717,2.09C20.467,1.6 20.07,1.203 19.58,0.953C19.024,0.67 18.296,0.67 16.84,0.67H4.16C2.704,0.67 1.976,0.67 1.42,0.953C0.93,1.203 0.533,1.6 0.283,2.09Z" fill="#ffffff" fill-opacity="1.0" /></svg>