<?xml version="1.0" encoding="utf-8" ?>
<svg baseProfile="full" height="16.0" version="1.1" viewBox="0 0 26.0 16.0" width="26.0" xmlns="http://www.w3.org/2000/svg" xmlns:ev="http://www.w3.org/2001/xml-events" xmlns:xlink="http://www.w3.org/1999/xlink"><defs /><path d="M19.284,4.436C19.146,4.197 18.84,4.115 18.601,4.253C18.362,4.391 18.28,4.697 18.418,4.936C19.017,5.975 19.333,7.153 19.333,8.353C19.333,9.552 19.017,10.73 18.418,11.769C18.28,12.008 18.362,12.314 18.601,12.452C18.84,12.59 19.146,12.508 19.284,12.269C19.971,11.078 20.333,9.728 20.333,8.353C20.333,6.977 19.971,5.627 19.284,4.436ZM6.582,4.936C6.72,4.697 6.638,4.391 6.399,4.253C6.16,4.115 5.854,4.197 5.716,4.436C5.029,5.627 4.667,6.977 4.667,8.353C4.667,9.728 5.029,11.078 5.716,12.269C5.854,12.508 6.16,12.59 6.399,12.452C6.638,12.314 6.72,12.008 6.582,11.769C5.982,10.73 5.667,9.552 5.667,8.353C5.667,7.153 5.982,5.975 6.582,4.936Z" fill="#000000" fill-opacity="1.0" /><path d="M16.884,5.436C16.746,5.197 16.44,5.115 16.201,5.253C15.962,5.391 15.88,5.697 16.018,5.936C16.442,6.671 16.665,7.504 16.665,8.353C16.665,9.201 16.442,10.034 16.018,10.769C15.88,11.008 15.962,11.314 16.201,11.452C16.44,11.59 16.746,11.508 16.884,11.269C17.396,10.382 17.665,9.377 17.665,8.353C17.665,7.329 17.396,6.323 16.884,5.436ZM8.98,5.936C9.118,5.697 9.036,5.391 8.797,5.253C8.558,5.115 8.252,5.197 8.114,5.436C7.602,6.323 7.333,7.329 7.333,8.353C7.333,9.377 7.602,10.382 8.114,11.269C8.252,11.508 8.558,11.59 8.797,11.452C9.036,11.314 9.118,11.008 8.98,10.769C8.556,10.034 8.333,9.201 8.333,8.353C8.333,7.504 8.556,6.671 8.98,5.936Z" fill="#000000" fill-opacity="1.0" /><path d="M9.887,9.041C9.805,9.259 9.966,9.492 10.199,9.492H12.32L12,14.012C11.972,14.397 12.512,14.513 12.645,14.15L15.114,7.411C15.194,7.193 15.033,6.963 14.801,6.963H12.681L12.995,2.659C13.023,2.275 12.487,2.157 12.351,2.517L9.887,9.041Z" fill="#000000" fill-opacity="1.0" /></svg>