<?xml version="1.0" encoding="utf-8" ?>
<svg baseProfile="full" height="16.0" version="1.1" viewBox="0 0 18.0 16.0" width="18.0" xmlns="http://www.w3.org/2000/svg" xmlns:ev="http://www.w3.org/2001/xml-events" xmlns:xlink="http://www.w3.org/1999/xlink"><defs /><path d="M11.2,8.5H13.7L15,9.8V13.5H11.2V8.5ZM12.9,10.28V12.53H13.52V9.58H13.07L12.22,10.05V10.65L12.9,10.28Z" fill="#000000" fill-opacity="1.0" /><path d="M4.785,7.754L4.757,7.663L3.245,3.098L3.19,2.915H3.373H3.383H4.107H4.116H4.217L4.244,3.007L5.161,6.056L6.068,3.007L6.095,2.915H6.205V2.906H6.939V3.049L6.948,3.052V2.906H7.122L7.067,3.089L5.555,7.663L5.518,7.754H5.426H4.886H4.785ZM5.151,6.535L5.149,6.527L5.151,6.526V6.535ZM6.856,5.976H6.71C6.71,5.628 6.737,5.353 6.801,5.142C6.864,4.962 6.963,4.782 7.097,4.654C7.206,4.527 7.343,4.426 7.516,4.335L7.525,4.352L7.507,4.317C7.69,4.226 7.91,4.189 8.194,4.189C8.46,4.189 8.698,4.235 8.882,4.326L8.816,4.445C8.817,4.445 8.817,4.445 8.818,4.445C8.819,4.446 8.82,4.447 8.821,4.448L8.882,4.335C9.055,4.426 9.191,4.526 9.283,4.653C9.423,4.78 9.513,4.957 9.584,5.152L9.587,5.151L9.585,5.152C9.586,5.155 9.587,5.158 9.587,5.16L9.579,5.163C9.643,5.364 9.67,5.638 9.67,5.985C9.67,6.334 9.642,6.609 9.587,6.81C9.523,7.012 9.423,7.186 9.276,7.342L9.271,7.337L9.111,7.488L9.111,7.488C9.049,7.547 8.965,7.597 8.88,7.632L8.882,7.635C8.698,7.736 8.469,7.791 8.194,7.791V7.653C8.191,7.653 8.188,7.653 8.185,7.653V7.791C7.93,7.791 7.702,7.737 7.52,7.637L7.516,7.644C7.351,7.562 7.204,7.461 7.104,7.342L7.209,7.246C7.208,7.244 7.206,7.242 7.205,7.241C7.205,7.241 7.205,7.241 7.205,7.241L7.104,7.333C6.966,7.186 6.865,7.003 6.801,6.819C6.737,6.609 6.71,6.334 6.71,5.994H6.856C6.856,5.991 6.856,5.988 6.856,5.985C6.856,5.982 6.856,5.979 6.856,5.976ZM7.58,4.455V4.445L7.516,4.317L7.58,4.455L7.58,4.455ZM6.931,6.778L6.887,6.79L6.81,6.81L6.863,6.798L6.93,6.783L6.932,6.781C6.932,6.78 6.932,6.779 6.931,6.778ZM8.815,7.519L8.842,7.566L8.819,7.515C8.819,7.515 8.818,7.516 8.818,7.516C8.818,7.516 8.818,7.516 8.818,7.516L8.815,7.519ZM9.45,6.764L9.587,6.801L9.459,6.755L9.45,6.764C9.45,6.764 9.45,6.764 9.45,6.764ZM8.891,5.994H8.873C8.873,5.997 8.873,6.001 8.873,6.004H8.744C8.744,6.21 8.728,6.352 8.711,6.444L8.708,6.444L8.711,6.444C8.71,6.45 8.709,6.456 8.708,6.462C8.699,6.553 8.662,6.626 8.617,6.69L8.607,6.682C8.579,6.718 8.515,6.773 8.442,6.81L8.447,6.821C8.375,6.847 8.293,6.865 8.194,6.865V6.874C8.104,6.874 8.014,6.857 7.95,6.821L7.956,6.81L7.773,6.673L7.769,6.676C7.764,6.667 7.759,6.659 7.754,6.65C7.72,6.593 7.681,6.529 7.681,6.453C7.654,6.361 7.644,6.214 7.644,5.994H7.498C7.498,5.991 7.498,5.988 7.498,5.985L7.644,5.985C7.644,5.765 7.654,5.609 7.681,5.518C7.699,5.426 7.727,5.362 7.773,5.298C7.819,5.243 7.864,5.206 7.947,5.17C7.949,5.168 7.952,5.167 7.954,5.166L7.956,5.17L7.954,5.166C8.026,5.132 8.106,5.115 8.194,5.115C8.286,5.115 8.378,5.133 8.442,5.17L8.5,5.048C8.502,5.048 8.503,5.049 8.504,5.05L8.451,5.17C8.524,5.206 8.57,5.243 8.598,5.289L8.717,5.215L8.662,5.257L8.607,5.289V5.298L8.662,5.257L8.714,5.226L8.616,5.307C8.662,5.362 8.689,5.435 8.708,5.509C8.726,5.6 8.744,5.765 8.744,5.994L8.891,5.994ZM8.726,5.216C8.726,5.216 8.726,5.216 8.726,5.215C8.725,5.214 8.724,5.213 8.723,5.212L8.717,5.215V5.224L8.714,5.226L8.717,5.225V5.224L8.726,5.216ZM8.852,5.48L8.708,5.509L8.853,5.484C8.853,5.483 8.853,5.481 8.852,5.48ZM7.884,6.935C7.886,6.935 7.887,6.936 7.888,6.936L7.922,6.87L7.884,6.935ZM8.502,6.927C8.502,6.927 8.501,6.927 8.501,6.927L8.487,6.897L8.502,6.927ZM8.838,6.478L8.711,6.444C8.711,6.444 8.711,6.444 8.711,6.444L8.839,6.47C8.839,6.473 8.838,6.475 8.838,6.478ZM7.658,6.769C7.659,6.771 7.66,6.772 7.662,6.774L7.715,6.725L7.663,6.764L7.658,6.769ZM7.681,6.453L7.544,6.48V6.471L7.681,6.453Z" fill="#000000" fill-opacity="1.0" /><path d="M9.303,10.702L9.303,10.702L9.302,10.704C9.211,10.815 9.073,10.878 8.871,10.882H8.068V9.768H8.904C9.079,9.768 9.2,9.809 9.28,9.878L9.279,9.878L9.283,9.881C9.383,9.959 9.442,10.09 9.445,10.294C9.445,10.459 9.397,10.594 9.303,10.702ZM7.324,13.322V13.402H7.404H7.988H8.068V13.322V11.607H8.682L9.457,13.354L9.479,13.402H9.531H10.226H10.354L10.299,13.287L9.44,11.497C9.661,11.391 9.833,11.244 9.954,11.055C10.088,10.846 10.155,10.591 10.158,10.294L10.158,10.294L10.158,10.291C10.147,9.886 10.013,9.564 9.748,9.337C9.528,9.138 9.246,9.04 8.909,9.04H7.404H7.324V9.12V13.322Z" fill="#000000" fill-opacity="1.0" /><path d="M3.529,13.322V13.402H3.609H4.179H4.259V13.322V10.62L5.821,13.361L5.844,13.402H5.891H6.43H6.51V13.322V9.12V9.04H6.43H5.86H5.78V9.12V11.822L4.215,9.081L4.192,9.04H4.146H3.609H3.529V9.12V13.322Z" fill="#000000" fill-opacity="1.0" /></svg>