<?xml version="1.0" encoding="utf-8" ?>
<svg baseProfile="full" height="16.0" version="1.1" viewBox="0 0 22.0 16.0" width="22.0" xmlns="http://www.w3.org/2000/svg" xmlns:ev="http://www.w3.org/2001/xml-events" xmlns:xlink="http://www.w3.org/1999/xlink"><defs /><path d="M8.214,2.674H9.08V6.669H10.481V7.535H8.214L8.214,2.674ZM2.936,7.441L2.963,7.532H3.064H3.605H3.696L3.733,7.441L5.245,2.867L5.3,2.684H5.126V2.83L5.117,2.827V2.684H4.384V2.693H4.274L4.246,2.785L3.34,5.834L2.422,2.785L2.395,2.693H2.294H2.285H1.561H1.552H1.368L1.423,2.876L2.936,7.441ZM3.327,6.305L3.33,6.313V6.304L3.327,6.305ZM4.888,5.754H5.035L5.035,5.763L5.035,5.773H4.888C4.888,6.112 4.915,6.387 4.98,6.597C5.044,6.781 5.145,6.964 5.282,7.111L5.383,7.019L5.383,7.019L5.388,7.024L5.282,7.12C5.383,7.239 5.53,7.34 5.694,7.422L5.698,7.415C5.881,7.515 6.109,7.569 6.364,7.569V7.431L6.373,7.431V7.569C6.648,7.569 6.877,7.514 7.06,7.413L7.058,7.41C7.143,7.375 7.227,7.325 7.289,7.266L7.289,7.267L7.449,7.115L7.454,7.12C7.601,6.964 7.702,6.79 7.766,6.588C7.821,6.387 7.848,6.112 7.848,5.763C7.848,5.416 7.821,5.142 7.757,4.941L7.766,4.939L7.763,4.93L7.766,4.929L7.763,4.93C7.691,4.735 7.602,4.558 7.461,4.432C7.37,4.305 7.233,4.205 7.06,4.114L7,4.226L6.996,4.224L6.994,4.223L7.06,4.104C6.877,4.013 6.639,3.967 6.373,3.967C6.089,3.967 5.869,4.004 5.685,4.095L5.704,4.131L5.694,4.114C5.522,4.205 5.385,4.305 5.275,4.432C5.141,4.56 5.043,4.74 4.98,4.92C4.915,5.131 4.888,5.406 4.888,5.754ZM5.759,4.224V4.233L5.759,4.233L5.694,4.095L5.759,4.224ZM5.066,6.568L5.11,6.556L5.111,6.559L5.108,6.561L5.041,6.576L4.989,6.588L5.066,6.568ZM7.02,7.344L6.993,7.297L6.996,7.294L6.996,7.294L6.998,7.293L7.02,7.344ZM7.766,6.579L7.628,6.542L7.628,6.542L7.638,6.533L7.766,6.579ZM7.051,5.782L7.051,5.773L6.923,5.773C6.923,5.543 6.904,5.378 6.886,5.287L7.032,5.263L7.031,5.258L6.886,5.287C6.868,5.213 6.84,5.14 6.794,5.085L6.892,5.005L6.895,5.003V5.002L6.905,4.994L6.904,4.994L6.901,4.99L6.895,4.994L6.776,5.067C6.749,5.021 6.703,4.984 6.629,4.948L6.683,4.828L6.679,4.826L6.62,4.948C6.556,4.911 6.464,4.893 6.373,4.893C6.284,4.893 6.204,4.91 6.132,4.944L6.134,4.948L6.132,4.944L6.125,4.948C6.043,4.984 5.997,5.021 5.951,5.076C5.905,5.14 5.878,5.204 5.859,5.296C5.832,5.388 5.823,5.543 5.823,5.763L5.676,5.763L5.676,5.773H5.823C5.823,5.993 5.832,6.139 5.859,6.231L5.722,6.249V6.258L5.859,6.231C5.859,6.308 5.898,6.372 5.932,6.428C5.937,6.437 5.943,6.445 5.948,6.454L5.951,6.451L6.134,6.588L6.128,6.599C6.192,6.635 6.282,6.652 6.373,6.652V6.643C6.472,6.643 6.553,6.626 6.626,6.599L6.62,6.588C6.694,6.552 6.758,6.497 6.785,6.46L6.795,6.468C6.841,6.404 6.877,6.331 6.886,6.24L6.889,6.223L7.016,6.256L7.017,6.248L6.889,6.222C6.907,6.13 6.923,5.988 6.923,5.782H7.051ZM6.889,6.222L6.889,6.223L6.886,6.222L6.889,6.222ZM6.84,5.035L6.895,4.994V5.002L6.892,5.005L6.84,5.035ZM6.84,5.035L6.785,5.076V5.067L6.84,5.035ZM6.067,6.715L6.063,6.713L6.1,6.648L6.067,6.715ZM6.679,6.705L6.681,6.705L6.665,6.675L6.679,6.705ZM5.84,6.552L5.836,6.547L5.841,6.542L5.894,6.503L5.84,6.552ZM15.937,2.674H13.67L13.67,7.535H15.937V6.669H14.536V5.314L15.937,5.314V4.448L14.536,4.448V3.54L15.937,3.54V2.674ZM10.004,2.674H13.234V3.54L12.052,3.54V7.535H11.186V3.54L10.004,3.54V2.674Z" fill="#000000" fill-opacity="1.0" /><path d="M3.064,13.099L1.561,8.535H2.294L3.33,12.018H3.339L4.384,8.535H5.117L3.605,13.099H3.064Z" fill="#000000" fill-opacity="1.0" /><path d="M3.064,13.099L2.936,13.145L2.963,13.237H3.064L3.064,13.099ZM1.561,8.535L1.561,8.398H1.368L1.423,8.581L1.561,8.535ZM2.294,8.535L2.422,8.489L2.395,8.398H2.285V8.535L2.294,8.535ZM3.33,12.018L3.192,12.036L3.229,12.137H3.321V12.009L3.33,12.018ZM3.339,12.018L3.339,12.146H3.44L3.476,12.055L3.339,12L3.339,12.018ZM4.384,8.535L4.384,8.398H4.274L4.246,8.489L4.384,8.535ZM5.117,8.535L5.245,8.572L5.3,8.389H5.126V8.535L5.117,8.535ZM3.605,13.099L3.605,13.237H3.696L3.733,13.145L3.605,13.099ZM3.192,13.054L1.689,8.489L1.423,8.581L2.936,13.145L3.192,13.054ZM2.294,8.673V8.398H1.552V8.673H2.294ZM2.157,8.572L3.192,12.055L3.467,11.963L2.422,8.489L2.157,8.572ZM3.33,12.146H3.339V11.871H3.33V12.146ZM3.476,12.055L4.512,8.572L4.246,8.489L3.211,11.972L3.476,12.045V12.055ZM4.384,8.664H5.117V8.389H4.384V8.664ZM4.98,8.489L3.476,13.054L3.733,13.145L5.245,8.572L4.98,8.489ZM3.605,12.962H3.064V13.237H3.605V12.962Z" fill="#000000" fill-opacity="1.0" /><path d="M5.019,11.459L5.019,11.468L5.019,11.477H4.872C4.872,11.816 4.9,12.091 4.964,12.302C5.028,12.486 5.129,12.669 5.267,12.815L5.367,12.724L5.372,12.729L5.367,12.733L5.267,12.825C5.367,12.944 5.514,13.045 5.679,13.127L5.683,13.12C5.865,13.219 6.093,13.274 6.348,13.274V13.136L6.357,13.136L6.357,13.274C6.632,13.274 6.861,13.219 7.045,13.118L7.043,13.115C7.128,13.08 7.212,13.03 7.274,12.971L7.434,12.819L7.439,12.825C7.585,12.669 7.686,12.495 7.75,12.293C7.805,12.091 7.833,11.816 7.833,11.468C7.833,11.121 7.806,10.847 7.742,10.646L7.75,10.643L7.747,10.635C7.676,10.44 7.586,10.262 7.446,10.136C7.354,10.009 7.217,9.909 7.045,9.818L6.984,9.931L6.98,9.928L6.999,9.891L7.045,9.809C6.861,9.718 6.623,9.672 6.357,9.672C6.073,9.672 5.853,9.708 5.67,9.8L5.688,9.835L5.679,9.818C5.506,9.909 5.369,10.009 5.26,10.136C5.126,10.264 5.027,10.445 4.964,10.625C4.9,10.836 4.872,11.111 4.872,11.459H5.019ZM7.054,11.477H7.035L7.035,11.486L6.907,11.486C6.907,11.693 6.891,11.835 6.874,11.927L6.87,11.945C6.862,12.03 6.829,12.1 6.788,12.161L6.78,12.173L6.77,12.165C6.742,12.201 6.678,12.256 6.605,12.293L6.61,12.304C6.538,12.33 6.456,12.348 6.357,12.348V12.357C6.267,12.357 6.177,12.339 6.113,12.304L6.119,12.293L5.936,12.156L5.932,12.159C5.927,12.15 5.922,12.142 5.917,12.133C5.883,12.076 5.844,12.012 5.844,11.936C5.816,11.844 5.807,11.697 5.807,11.477L5.661,11.477L5.532,11.477V11.468L5.661,11.468C5.661,11.248 5.679,11.074 5.706,10.982L5.71,10.969L5.844,11.001C5.862,10.909 5.89,10.845 5.936,10.781C5.981,10.726 6.027,10.689 6.11,10.652L6.117,10.649C6.188,10.615 6.269,10.597 6.357,10.597C6.449,10.597 6.541,10.616 6.605,10.652L6.657,10.555L6.614,10.652C6.687,10.689 6.733,10.726 6.76,10.771L6.88,10.698L6.825,10.74L6.77,10.771V10.781L6.825,10.74L6.876,10.709L6.779,10.79C6.825,10.845 6.852,10.918 6.87,10.991L7.016,10.967L7.145,10.946C7.164,11.065 7.182,11.248 7.182,11.477L7.054,11.477ZM7.017,10.982L7.019,10.982L7.145,10.955L7.018,10.98L7.008,10.982H7.017Z" fill="#000000" fill-opacity="1.0" /><path d="M5.661,11.468C5.661,11.248 5.679,11.074 5.706,10.982L5.71,10.969L5.844,11.001C5.816,11.092 5.807,11.248 5.807,11.468L5.661,11.468ZM7.035,11.477H7.054L7.182,11.477C7.182,11.248 7.164,11.065 7.145,10.946L7.016,10.967L6.87,10.991C6.889,11.083 6.907,11.248 6.907,11.477L7.035,11.477ZM7.017,10.982L7.019,10.982L7.145,10.955L7.018,10.98L7.008,10.982H7.017Z" fill="#000000" fill-opacity="1.0" /><path d="M18.985,2.728H16.559V7.581H20.247V3.989L18.985,2.728ZM18.208,6.639V4.455L17.549,4.814V4.232L18.374,3.776H18.81V6.639H18.208ZM18.981,8.438H16.559V13.283H20.24V9.698L18.981,8.438ZM19.388,12.343H17.382V11.907L18.39,10.957C18.525,10.822 18.622,10.705 18.671,10.608C18.729,10.512 18.758,10.415 18.758,10.299C18.758,10.172 18.719,10.076 18.661,10.008C18.593,9.95 18.506,9.911 18.38,9.911C18.254,9.911 18.138,9.95 18.06,10.027C17.983,10.105 17.915,10.221 17.857,10.386L17.363,10.192C17.44,9.94 17.556,9.756 17.731,9.64C17.925,9.514 18.148,9.446 18.409,9.446C18.603,9.446 18.777,9.485 18.913,9.562C19.058,9.62 19.175,9.727 19.252,9.853C19.339,9.979 19.378,10.124 19.378,10.299C19.378,10.473 19.33,10.638 19.233,10.793C19.136,10.948 18.971,11.132 18.748,11.335L18.167,11.868H19.388V12.343Z" fill="#000000" fill-opacity="1.0" /><path d="M14.948,10.279L14.948,10.279L14.947,10.281C14.855,10.403 14.717,10.47 14.518,10.474H13.715V9.248H14.551C14.725,9.248 14.845,9.291 14.924,9.367L14.924,9.367L14.927,9.37C15.028,9.456 15.089,9.601 15.092,9.827C15.092,10.01 15.043,10.159 14.948,10.279ZM12.971,13.123V13.203H13.051H13.635H13.715V13.123V11.249H14.328L15.104,13.154L15.124,13.203H15.178H15.873H15.996L15.947,13.091L15.083,11.132C15.307,11.016 15.481,10.855 15.602,10.65C15.736,10.424 15.802,10.148 15.805,9.827L15.805,9.827L15.805,9.824C15.794,9.387 15.661,9.039 15.397,8.793C15.177,8.576 14.895,8.47 14.556,8.47H13.051H12.971V8.55V13.123Z" fill="#000000" fill-opacity="1.0" /><path d="M9.176,13.123V13.203H9.256H9.826H9.906V13.123V10.179L11.467,13.16L11.489,13.203H11.538H12.077H12.157V13.123V8.55V8.47H12.077H11.507H11.427V8.55V11.494L9.864,8.513L9.841,8.47H9.793H9.256H9.176V8.55V13.123Z" fill="#000000" fill-opacity="1.0" /></svg>