<?xml version="1.0" encoding="utf-8" ?>
<svg baseProfile="full" height="16.0" version="1.1" viewBox="0 0 23.0 16.0" width="23.0" xmlns="http://www.w3.org/2000/svg" xmlns:ev="http://www.w3.org/2001/xml-events" xmlns:xlink="http://www.w3.org/1999/xlink"><defs /><path d="M5.8 2.2c0.34 0.3 0.54 0.68 0.63 1.12L6.46 3.5H5.37L5.34 3.4C5.28 3.22 5.19 3.08 5.05 2.95c-0.14-0.1-0.3-0.16-0.52-0.17-0.16 0-0.29 0.04-0.39 0.09C4.03 2.93 3.94 3 3.88 3.09H3.87C3.79 3.18 3.74 3.3 3.7 3.43 3.68 3.6 3.66 3.93 3.66 4.42S3.68 5.2 3.7 5.37C3.74 5.54 3.8 5.65 3.87 5.73v0.01c0.07 0.08 0.16 0.15 0.27 0.2v0.01c0.1 0.06 0.23 0.1 0.4 0.1 0.25 0 0.45-0.09 0.61-0.26C5.31 5.62 5.4 5.4 5.4 5.13V5.02H4.4V4.01h2.07v1.16c-0.01 0.54-0.2 1-0.56 1.36C5.54 6.9 5.08 7.08 4.53 7.1c-0.42 0-0.77-0.11-1.06-0.31-0.29-0.19-0.5-0.4-0.63-0.66l-0.1-0.23H2.72L2.68 5.7 2.63 5.43C2.61 5.2 2.6 4.86 2.6 4.41c0-0.58 0.02-0.98 0.05-1.19 0.04-0.2 0.1-0.38 0.19-0.52 0.12-0.24 0.31-0.45 0.56-0.63l0.16-0.1C3.8 1.83 4.08 1.75 4.4 1.73h0.24C5.06 1.74 5.5 1.9 5.81 2.19Z" fill="#000000" fill-opacity="1.0" /></svg>