<?xml version="1.0" encoding="utf-8" ?>
<svg baseProfile="full" height="24.0" version="1.1" viewBox="0 0 24.0 24.0" width="24.0" xmlns="http://www.w3.org/2000/svg" xmlns:ev="http://www.w3.org/2001/xml-events" xmlns:xlink="http://www.w3.org/1999/xlink"><defs /><path d="M11.95 2.35c0.26 0.11 0.43 0.37 0.43 0.65v18c0 0.28-0.17 0.54-0.43 0.65-0.26 0.1-0.56 0.05-0.76-0.15l-4.62-4.62C6.46 16.76 6.3 16.7 6.14 16.7H2.98c-1.1 0-2-0.9-2-2V9.3c0-1.1 0.9-2 2-2h3.16c0.16 0 0.32-0.06 0.43-0.17l4.62-4.62c0.2-0.2 0.5-0.26 0.76-0.16Zm3.37 6.38c-0.21-0.32-0.65-0.41-0.97-0.2-0.32 0.21-0.41 0.65-0.2 0.97 0.47 0.72 0.75 1.58 0.75 2.5 0 0.93-0.28 1.78-0.75 2.5-0.21 0.32-0.12 0.76 0.2 0.97 0.32 0.21 0.76 0.13 0.97-0.2 0.62-0.94 0.98-2.06 0.98-3.27 0-1.2-0.36-2.33-0.98-3.27Zm1.53-2.42c0.3-0.23 0.75-0.16 0.98 0.15C18.98 8 19.66 9.93 19.66 12c0 2.08-0.68 4-1.83 5.54-0.23 0.31-0.67 0.38-0.98 0.15-0.31-0.23-0.38-0.67-0.15-0.98 0.98-1.32 1.56-2.94 1.56-4.7 0-1.77-0.58-3.4-1.56-4.72-0.23-0.3-0.16-0.75 0.15-0.98Zm3.5-2.1c-0.25-0.3-0.69-0.36-1-0.12-0.3 0.24-0.35 0.68-0.11 0.98 1.49 1.91 2.38 4.32 2.38 6.93 0 2.61-0.9 5.02-2.38 6.93-0.24 0.3-0.19 0.74 0.12 0.98 0.3 0.24 0.74 0.18 0.98-0.12 1.68-2.15 2.68-4.85 2.68-7.79 0-2.94-1-5.64-2.68-7.79Z" fill="#000000" fill-opacity="1.0" /></svg>