<?xml version="1.0" encoding="utf-8" ?>
<svg baseProfile="full" height="16.0" version="1.1" viewBox="0 0 16.0 16.0" width="16.0" xmlns="http://www.w3.org/2000/svg" xmlns:ev="http://www.w3.org/2001/xml-events" xmlns:xlink="http://www.w3.org/1999/xlink"><defs /><path d="M5.37 2H10l3 3v6.63c0 0.83 0 1.25-0.16 1.56-0.14 0.28-0.37 0.5-0.65 0.65C11.88 14 11.46 14 10.63 14H5.37c-0.83 0-1.25 0-1.56-0.16-0.28-0.14-0.5-0.37-0.65-0.65C3 12.88 3 12.46 3 11.63V4.37C3 3.54 3 3.12 3.16 2.8 3.3 2.53 3.53 2.3 3.81 2.16 4.12 2 4.54 2 5.37 2Zm0.38 5.13l1.18 1.19L5.75 9.5c-0.24 0.24-0.24 0.61 0 0.85l0.17 0.17c0.23 0.23 0.61 0.23 0.84 0l1.19-1.19 1.18 1.19c0.24 0.23 0.62 0.23 0.85 0l0.17-0.17c0.23-0.24 0.23-0.61 0-0.85L8.97 8.32l1.18-1.19c0.23-0.23 0.23-0.61 0-0.85L9.98 6.11c-0.23-0.23-0.61-0.23-0.85 0L7.95 7.3 6.76 6.11c-0.23-0.23-0.6-0.23-0.84 0L5.75 6.28C5.5 6.52 5.5 6.9 5.75 7.13Z" fill="#000000" fill-opacity="1.0" /></svg>