<?xml version="1.0" encoding="utf-8" ?>
<svg baseProfile="full" height="16.0" version="1.1" viewBox="0 0 18.0 16.0" width="18.0" xmlns="http://www.w3.org/2000/svg" xmlns:ev="http://www.w3.org/2001/xml-events" xmlns:xlink="http://www.w3.org/1999/xlink"><defs /><path d="M13.15 3.13l-0.22-0.01h-1.12v0.93l1.34-0.92ZM11.17 4.5V3.12H10.4V4.3H9.24V3.1H8.47v3.12h0.2l0.57-0.4v-0.9h1.16v0.1l0.77-0.53ZM10.4 5.64l0.77-0.53v1.12H10.4V5.64Zm1.41-0.98l0.78-0.54v1.49h0.33c0.27 0 0.48-0.08 0.63-0.22 0.07-0.08 0.13-0.18 0.18-0.3 0.04-0.12 0.06-0.26 0.06-0.42 0-0.32-0.08-0.56-0.24-0.73-0.1-0.1-0.24-0.17-0.4-0.2l0.64-0.45c0.11 0.05 0.21 0.11 0.3 0.2 0.15 0.12 0.27 0.3 0.36 0.49 0.1 0.2 0.14 0.43 0.14 0.7 0 0.26-0.05 0.5-0.14 0.7-0.09 0.19-0.2 0.36-0.36 0.49-0.28 0.24-0.66 0.36-1.16 0.36h-1.12V4.66Z" fill="#000000" fill-opacity="1.0" /><path d="M5.44 2.69c-0.12-0.02-0.25 0-0.39 0.04L4.53 2.91H4.52L4.36 2.97 4.33 2.98C4.03 3.1 3.84 3.16 3.69 3.3 3.57 3.42 3.46 3.6 3.42 3.77 3.37 3.97 3.4 4.14 3.44 4.4v0.02C3.78 6.4 4.9 8.48 6.67 10.25c1.76 1.76 3.84 2.88 5.81 3.2h0.02c0.27 0.05 0.44 0.08 0.64 0.03 0.16-0.04 0.35-0.15 0.47-0.27 0.14-0.15 0.21-0.34 0.32-0.64v-0.03L14 12.38l0.18-0.53c0.04-0.14 0.06-0.27 0.04-0.4-0.02-0.2-0.11-0.39-0.25-0.54-0.08-0.1-0.2-0.16-0.33-0.22l-0.51-0.21-1.82-0.69c-0.36-0.13-0.75-0.05-1.02 0.22-0.35 0.36-0.91 0.43-1.32 0.14-0.4-0.28-0.76-0.6-1.18-1.01-0.41-0.42-0.72-0.79-1.01-1.18-0.3-0.4-0.23-0.97 0.13-1.34 0.26-0.27 0.34-0.66 0.21-1.01L6.42 3.79c-0.08-0.22-0.14-0.4-0.2-0.52-0.07-0.14-0.14-0.24-0.23-0.33C5.84 2.8 5.65 2.71 5.44 2.7Z" fill="#000000" fill-opacity="1.0" /><path d="M14.3 3.2L9.24 6.75" fill="#000000" fill-opacity="1.0" /></svg>