<?xml version="1.0" encoding="utf-8" ?>
<svg baseProfile="full" height="16.0" version="1.1" viewBox="0 0 8.0 16.0" width="8.0" xmlns="http://www.w3.org/2000/svg" xmlns:ev="http://www.w3.org/2001/xml-events" xmlns:xlink="http://www.w3.org/1999/xlink"><defs /><path d="M5.499,2.33L5.199,2.336L5.205,2.63L5.499,2.63L5.499,2.33ZM7.126,2.504L7.263,2.237L7.126,2.504ZM7.826,3.204L8.093,3.067L8.093,3.067L7.826,3.204ZM7.826,13.126L7.558,12.99L7.826,13.126ZM7.126,13.826L7.263,14.093L7.263,14.093L7.126,13.826ZM0.874,13.826L1.01,13.558L1.01,13.558L0.874,13.826ZM0.174,13.126L0.442,12.99L0.442,12.99L0.174,13.126ZM0.174,3.204L-0.093,3.067L-0.093,3.067L0.174,3.204ZM0.874,2.504L1.01,2.772L1.01,2.772L0.874,2.504ZM2.501,2.33L2.501,2.63L2.795,2.63L2.801,2.336L2.501,2.33ZM2.512,2.174L2.216,2.127L2.216,2.127L2.512,2.174ZM3.344,1.342L3.391,1.639L3.391,1.639L3.344,1.342ZM4.656,1.342L4.609,1.639L4.609,1.639L4.656,1.342ZM5.488,2.174L5.191,2.22L5.191,2.22L5.488,2.174ZM5.499,2.63C5.932,2.63 6.24,2.631 6.483,2.652C6.721,2.673 6.871,2.711 6.99,2.772L7.263,2.237C7.047,2.127 6.811,2.078 6.534,2.054C6.261,2.031 5.923,2.03 5.499,2.03L5.499,2.63ZM6.99,2.772C7.235,2.896 7.434,3.095 7.558,3.34L8.093,3.067C7.911,2.71 7.62,2.419 7.263,2.237L6.99,2.772ZM7.558,3.34C7.62,3.462 7.659,3.615 7.679,3.864C7.7,4.115 7.7,4.437 7.7,4.89H8.3C8.3,4.447 8.3,4.096 8.277,3.815C8.254,3.529 8.205,3.288 8.093,3.067L7.558,3.34ZM7.7,4.89V11.44H8.3V4.89H7.7ZM7.7,11.44C7.7,11.893 7.7,12.215 7.679,12.466C7.659,12.715 7.62,12.868 7.558,12.99L8.093,13.262C8.205,13.042 8.254,12.801 8.277,12.515C8.3,12.233 8.3,11.883 8.3,11.44H7.7ZM7.558,12.99C7.434,13.235 7.235,13.434 6.99,13.558L7.263,14.093C7.62,13.911 7.911,13.62 8.093,13.262L7.558,12.99ZM6.99,13.558C6.868,13.62 6.715,13.659 6.466,13.679C6.215,13.7 5.893,13.7 5.44,13.7V14.3C5.883,14.3 6.233,14.3 6.515,14.277C6.801,14.254 7.042,14.205 7.263,14.093L6.99,13.558ZM5.44,13.7H2.56V14.3H5.44V13.7ZM2.56,13.7C2.107,13.7 1.785,13.7 1.534,13.679C1.285,13.659 1.132,13.62 1.01,13.558L0.737,14.093C0.958,14.205 1.199,14.254 1.485,14.277C1.767,14.3 2.117,14.3 2.56,14.3V13.7ZM1.01,13.558C0.765,13.434 0.566,13.235 0.442,12.99L-0.093,13.262C0.089,13.62 0.38,13.911 0.737,14.093L1.01,13.558ZM0.442,12.99C0.38,12.868 0.341,12.715 0.321,12.466C0.3,12.215 0.3,11.893 0.3,11.44H-0.3C-0.3,11.883 -0.3,12.233 -0.277,12.515C-0.254,12.801 -0.205,13.042 -0.093,13.262L0.442,12.99ZM0.3,11.44V4.89H-0.3V11.44H0.3ZM0.3,4.89C0.3,4.437 0.3,4.115 0.321,3.864C0.341,3.615 0.38,3.462 0.442,3.34L-0.093,3.067C-0.205,3.288 -0.254,3.529 -0.277,3.815C-0.3,4.096 -0.3,4.447 -0.3,4.89H0.3ZM0.442,3.34C0.566,3.095 0.765,2.896 1.01,2.772L0.737,2.237C0.38,2.419 0.089,2.71 -0.093,3.067L0.442,3.34ZM1.01,2.772C1.129,2.711 1.279,2.673 1.517,2.652C1.76,2.631 2.068,2.63 2.501,2.63L2.501,2.03C2.077,2.03 1.739,2.031 1.466,2.054C1.189,2.078 0.953,2.127 0.737,2.237L1.01,2.772ZM2.801,2.336C2.802,2.275 2.805,2.244 2.809,2.22L2.216,2.127C2.206,2.19 2.203,2.253 2.201,2.324L2.801,2.336ZM2.809,2.22C2.856,1.921 3.091,1.686 3.391,1.639L3.297,1.046C2.74,1.134 2.304,1.57 2.216,2.127L2.809,2.22ZM3.391,1.639C3.439,1.631 3.503,1.63 3.7,1.63V1.03C3.526,1.03 3.404,1.029 3.297,1.046L3.391,1.639ZM3.7,1.63H4.3V1.03H3.7V1.63ZM4.3,1.63C4.497,1.63 4.561,1.631 4.609,1.639L4.703,1.046C4.596,1.029 4.474,1.03 4.3,1.03V1.63ZM4.609,1.639C4.909,1.686 5.144,1.921 5.191,2.22L5.784,2.127C5.696,1.57 5.26,1.134 4.703,1.046L4.609,1.639ZM5.191,2.22C5.195,2.244 5.198,2.275 5.199,2.336L5.799,2.324C5.797,2.253 5.794,2.19 5.784,2.127L5.191,2.22Z" fill="#000000" fill-opacity="1.0" /></svg>