<?xml version="1.0" encoding="utf-8" ?>
<svg baseProfile="full" height="18.0" version="1.1" viewBox="0 0 19.0 18.0" width="19.0" xmlns="http://www.w3.org/2000/svg" xmlns:ev="http://www.w3.org/2001/xml-events" xmlns:xlink="http://www.w3.org/1999/xlink"><defs /><path d="M5.383,3.03H5.373L4.763,3.04C4.583,3.06 4.403,3.1 4.233,3.18C3.973,3.31 3.763,3.52 3.633,3.78C3.533,3.95 3.513,4.13 3.493,4.31L3.483,4.92V4.94V13.06V13.08L3.493,13.68C3.513,13.87 3.543,14.05 3.633,14.22C3.763,14.48 3.973,14.69 4.233,14.82C4.403,14.91 4.583,14.94 4.763,14.96L5.363,14.97H5.383H14.593H14.613L15.213,14.96C15.403,14.94 15.583,14.91 15.753,14.82C16.013,14.69 16.223,14.48 16.353,14.22C16.443,14.05 16.473,13.87 16.493,13.69L16.503,13.08V13.06V4.94V4.92L16.493,4.32C16.473,4.13 16.443,3.95 16.353,3.78C16.223,3.52 16.013,3.31 15.753,3.18C15.583,3.09 15.403,3.06 15.223,3.04L14.623,3.03H14.593H5.393H5.383ZM14.596,4.442V4.042H13.796V4.442V5.042H13.196H12.796V5.842H13.196H13.796V6.442V6.842H14.596V6.442V5.842H15.196H15.596V5.042H15.196H14.596V4.442ZM7.003,9.61H8.653V11.46H9.753V7.03H8.653V8.73H6.993V7.03H5.903V11.47H7.003V9.61ZM14.413,10.25C14.543,9.96 14.603,9.63 14.603,9.25L14.613,9.26C14.613,8.88 14.543,8.55 14.413,8.26C14.293,7.98 14.113,7.75 13.903,7.55C13.493,7.21 12.953,7.03 12.253,7.03H10.653V11.47H12.253C12.963,11.47 13.503,11.3 13.903,10.95C14.113,10.76 14.293,10.53 14.413,10.25ZM13.473,9.25C13.473,8.79 13.363,8.45 13.123,8.21C12.923,8 12.623,7.89 12.223,7.89H11.763V10.58H12.233C12.633,10.58 12.923,10.48 13.133,10.27C13.233,10.16 13.323,10.02 13.383,9.85C13.443,9.68 13.483,9.48 13.483,9.25H13.473Z" fill="#000000" fill-opacity="1.0" /></svg>