<?xml version="1.0" encoding="utf-8" ?>
<svg baseProfile="full" height="12.0" version="1.1" viewBox="0 0 24.0 12.0" width="24.0" xmlns="http://www.w3.org/2000/svg" xmlns:ev="http://www.w3.org/2001/xml-events" xmlns:xlink="http://www.w3.org/1999/xlink"><defs /><path d="M2.6665,4.5868C2.6665,3.9147 2.6665,3.5786 2.7973,3.322C2.9123,3.0962 3.0959,2.9126 3.3217,2.7975C3.5784,2.6667 3.9144,2.6667 4.5865,2.6667H18.4115C19.0836,2.6667 19.4196,2.6667 19.6763,2.7975C19.9021,2.9126 20.0857,3.0962 20.2007,3.322C20.3315,3.5786 20.3315,3.9147 20.3315,4.5868V7.7461C20.3315,8.4182 20.3315,8.7542 20.2007,9.0109C20.0857,9.2367 19.9021,9.4203 19.6763,9.5353C19.4196,9.6661 19.0836,9.6661 18.4115,9.6661H4.5865C3.9144,9.6661 3.5784,9.6661 3.3217,9.5353C3.0959,9.4203 2.9123,9.2367 2.7973,9.0109C2.6665,8.7542 2.6665,8.4182 2.6665,7.7461V4.5868Z" fill="#000000" fill-opacity="1.0" /></svg>