<?xml version="1.0" encoding="utf-8" ?>
<svg baseProfile="full" height="12.0" version="1.1" viewBox="0 0 20.0 12.0" width="20.0" xmlns="http://www.w3.org/2000/svg" xmlns:ev="http://www.w3.org/2001/xml-events" xmlns:xlink="http://www.w3.org/1999/xlink"><defs /><path d="M17.167,7L16.389,6H13.5V11H17.167V7ZM15.667,7.2H14.833V10.2H15.667V7.2Z" fill="#ffffff" fill-opacity="1.0" /><path d="M3.973,5.797L5.781,4.384C5.938,4.262 5.966,4.036 5.845,3.878L4.447,2.062C4.327,1.906 4.104,1.874 3.945,1.991L3.002,2.682C2.885,2.768 2.831,2.914 2.871,3.054C3.065,3.722 3.74,5.723 5.281,7.398C6.901,9.158 9.358,10.23 10.008,10.493C10.112,10.535 10.227,10.523 10.322,10.464L11.684,9.622C11.906,9.485 11.914,9.163 11.698,9.015L9.936,7.81C9.803,7.719 9.626,7.727 9.502,7.829L7.538,9.442" fill="#ffffff" fill-opacity="1.0" /><path d="M3.973,5.797L5.781,4.384C5.938,4.262 5.966,4.036 5.845,3.878L4.447,2.062C4.327,1.906 4.104,1.874 3.945,1.991L3.002,2.682C2.885,2.768 2.831,2.914 2.871,3.054C3.065,3.722 3.74,5.723 5.281,7.398C6.901,9.158 9.358,10.23 10.008,10.493C10.112,10.535 10.227,10.523 10.322,10.464L11.684,9.622C11.906,9.485 11.914,9.163 11.698,9.015L9.936,7.81C9.803,7.719 9.626,7.727 9.502,7.829L7.538,9.442" fill="#000000" fill-opacity="0.0" /><path d="M15.545,0.554C15.545,0.36 15.545,0.263 15.583,0.189C15.616,0.124 15.669,0.071 15.734,0.038C15.808,0 15.905,0 16.099,0H16.446C16.64,0 16.737,0 16.811,0.038C16.876,0.071 16.929,0.124 16.962,0.189C17,0.263 17,0.36 17,0.554V4.532C17,4.726 17,4.824 16.962,4.898C16.929,4.963 16.876,5.016 16.811,5.049C16.737,5.087 16.64,5.087 16.446,5.087H16.099C15.905,5.087 15.808,5.087 15.734,5.049C15.669,5.016 15.616,4.963 15.583,4.898C15.545,4.824 15.545,4.726 15.545,4.532V0.554Z" fill="#ffffff" fill-opacity="1.0" /><path d="M12.773,2.177C12.773,1.982 12.773,1.885 12.811,1.811C12.844,1.746 12.897,1.693 12.963,1.66C13.037,1.622 13.134,1.622 13.328,1.622H13.674C13.868,1.622 13.965,1.622 14.04,1.66C14.105,1.693 14.158,1.746 14.191,1.811C14.229,1.885 14.229,1.982 14.229,2.177V4.533C14.229,4.727 14.229,4.824 14.191,4.898C14.158,4.963 14.105,5.016 14.04,5.049C13.965,5.087 13.868,5.087 13.674,5.087H13.328C13.134,5.087 13.037,5.087 12.963,5.049C12.897,5.016 12.844,4.963 12.811,4.898C12.773,4.824 12.773,4.727 12.773,4.533V2.177Z" fill="#ffffff" fill-opacity="1.0" /><path d="M10,2.869C10,2.675 10,2.578 10.038,2.504C10.071,2.438 10.124,2.385 10.189,2.352C10.263,2.314 10.36,2.314 10.554,2.314H10.901C11.095,2.314 11.192,2.314 11.266,2.352C11.331,2.385 11.384,2.438 11.418,2.504C11.455,2.578 11.455,2.675 11.455,2.869V4.532C11.455,4.726 11.455,4.823 11.418,4.897C11.384,4.963 11.331,5.016 11.266,5.049C11.192,5.087 11.095,5.087 10.901,5.087H10.554C10.36,5.087 10.263,5.087 10.189,5.049C10.124,5.016 10.071,4.963 10.038,4.897C10,4.823 10,4.726 10,4.532V2.869Z" fill="#ffffff" fill-opacity="1.0" /></svg>