<?xml version="1.0" encoding="utf-8" ?>
<svg baseProfile="full" height="24.0" version="1.1" viewBox="0 0 24.0 24.0" width="24.0" xmlns="http://www.w3.org/2000/svg" xmlns:ev="http://www.w3.org/2001/xml-events" xmlns:xlink="http://www.w3.org/1999/xlink"><defs /><path d="M12,16.305C11.27,16.305 10.597,16.566 10.081,17.015C9.934,17.142 9.847,17.325 9.84,17.519C9.834,17.713 9.908,17.902 10.045,18.039L11.505,19.495C11.779,19.768 12.221,19.768 12.494,19.495L13.954,18.039C14.092,17.902 14.166,17.713 14.16,17.519C14.153,17.325 14.066,17.142 13.919,17.015C13.402,16.566 12.729,16.305 12,16.305Z" fill="#000000" fill-opacity="1.0" /><path d="M11.99,13.73C10.551,13.73 9.189,14.257 8.149,15.199C7.863,15.458 7.42,15.437 7.161,15.15C6.901,14.864 6.923,14.421 7.21,14.161C8.51,12.983 10.208,12.33 11.99,12.33C13.783,12.33 15.468,12.984 16.785,14.157C17.074,14.415 17.099,14.857 16.842,15.146C16.585,15.434 16.143,15.46 15.854,15.203C14.791,14.256 13.436,13.73 11.99,13.73Z" fill="#000000" fill-opacity="1.0" /><path d="M11.99,9.71C9.477,9.71 7.118,10.643 5.309,12.34C5.027,12.605 4.584,12.59 4.319,12.309C4.055,12.027 4.069,11.584 4.351,11.319C6.422,9.376 9.123,8.31 11.99,8.31C14.848,8.31 17.548,9.377 19.638,11.328C19.92,11.592 19.935,12.035 19.671,12.317C19.408,12.6 18.965,12.615 18.682,12.351C16.851,10.642 14.492,9.71 11.99,9.71Z" fill="#000000" fill-opacity="1.0" /><path d="M11.99,5.7C8.388,5.7 5.012,7.052 2.464,9.486C2.184,9.753 1.741,9.743 1.474,9.463C1.207,9.184 1.217,8.741 1.497,8.474C4.309,5.788 8.032,4.3 11.99,4.3C15.928,4.3 19.652,5.778 22.493,8.483C22.773,8.749 22.784,9.192 22.517,9.472C22.251,9.752 21.808,9.763 21.528,9.497C18.949,7.042 15.572,5.7 11.99,5.7Z" fill="#000000" fill-opacity="1.0" /></svg>