<?xml version="1.0" encoding="utf-8" ?>
<svg baseProfile="full" height="16.0" version="1.1" viewBox="0 0 12.0 16.0" width="12.0" xmlns="http://www.w3.org/2000/svg" xmlns:ev="http://www.w3.org/2001/xml-events" xmlns:xlink="http://www.w3.org/1999/xlink"><defs /><path d="M8.854,10.702L8.854,10.702L8.853,10.704C8.762,10.815 8.623,10.878 8.422,10.882H7.619V9.768H8.454C8.63,9.768 8.751,9.809 8.83,9.878L8.83,9.878L8.834,9.881C8.933,9.959 8.993,10.09 8.996,10.294C8.996,10.459 8.948,10.594 8.854,10.702ZM6.874,13.322V13.402H6.954H7.539H7.619V13.322V11.607H8.233L9.008,13.354L9.029,13.402H9.081H9.777H9.904L9.849,13.287L8.991,11.497C9.211,11.391 9.384,11.244 9.505,11.055C9.639,10.846 9.705,10.591 9.709,10.294L9.709,10.294L9.709,10.291C9.698,9.886 9.564,9.564 9.298,9.337C9.078,9.138 8.797,9.04 8.46,9.04H6.954H6.874V9.12V13.322Z" fill="#000000" fill-opacity="1.0" /><path d="M3.08,13.322V13.402H3.16H3.73H3.81V13.322V10.62L5.372,13.361L5.395,13.402H5.441H5.981H6.061V13.322V9.12V9.04H5.981H5.41H5.33V9.12V11.822L3.766,9.081L3.743,9.04H3.697H3.16H3.08V9.12V13.322Z" fill="#000000" fill-opacity="1.0" /><path d="M4.456,7.617L2.953,3.052H3.686L4.721,6.535H4.731L5.775,3.052H6.509L4.996,7.617H4.456ZM6.426,5.985C6.426,5.646 6.454,5.38 6.518,5.197C6.573,5.014 6.665,4.867 6.784,4.739C6.875,4.638 6.994,4.537 7.159,4.455C7.306,4.363 7.517,4.317 7.764,4.317C8.021,4.317 8.223,4.363 8.388,4.445C8.543,4.537 8.663,4.629 8.754,4.739C8.873,4.858 8.974,5.014 9.029,5.197C9.075,5.38 9.102,5.637 9.102,5.976C9.102,6.324 9.075,6.581 9.02,6.764C8.974,6.948 8.873,7.094 8.745,7.223C8.718,7.296 8.653,7.342 8.598,7.388C8.534,7.433 8.47,7.47 8.388,7.516C8.223,7.608 8.021,7.653 7.764,7.653C7.517,7.653 7.306,7.608 7.15,7.516C6.985,7.424 6.866,7.333 6.774,7.241C6.655,7.103 6.564,6.948 6.5,6.773C6.454,6.59 6.426,6.334 6.426,5.985ZM8.461,5.994C8.461,5.765 8.443,5.591 8.424,5.49C8.406,5.38 8.36,5.298 8.296,5.215C8.241,5.142 8.168,5.087 8.076,5.05C7.984,5.005 7.884,4.977 7.764,4.977C7.654,4.977 7.544,5.005 7.453,5.041C7.361,5.087 7.288,5.142 7.233,5.234C7.178,5.307 7.141,5.39 7.114,5.499C7.086,5.591 7.068,5.765 7.068,5.985C7.068,6.214 7.077,6.379 7.104,6.48C7.132,6.59 7.169,6.682 7.224,6.764C7.279,6.828 7.352,6.883 7.444,6.929C7.535,6.975 7.645,7.003 7.755,7.003C7.874,7.003 7.975,6.975 8.067,6.929C8.158,6.883 8.232,6.828 8.278,6.764C8.342,6.682 8.388,6.581 8.406,6.489C8.424,6.379 8.443,6.214 8.443,5.994H8.461Z" fill="#000000" fill-opacity="1.0" /><path d="M4.456,7.617L4.327,7.663L4.355,7.754H4.456V7.617ZM2.953,3.052V2.915H2.76L2.815,3.098L2.953,3.052ZM3.686,3.052L3.814,3.007L3.787,2.915H3.677V3.052H3.686ZM4.721,6.535L4.584,6.554L4.621,6.654H4.712V6.526L4.721,6.535ZM4.731,6.535V6.663H4.831L4.868,6.572L4.731,6.517V6.535ZM5.775,3.052V2.915H5.665L5.638,3.007L5.775,3.052ZM6.509,3.052L6.637,3.089L6.692,2.906H6.518V3.052H6.509ZM4.996,7.617V7.754H5.088L5.125,7.663L4.996,7.617ZM4.584,7.571L3.081,3.007L2.815,3.098L4.327,7.663L4.584,7.571ZM2.953,3.19H3.686V2.915H2.943V3.19H2.953ZM3.548,3.089L4.584,6.572L4.859,6.48L3.814,3.007L3.548,3.089ZM4.721,6.663H4.731V6.389H4.721V6.663ZM4.868,6.572L5.904,3.089L5.638,3.007L4.602,6.489L4.868,6.563V6.572ZM5.775,3.181H6.509V2.906H5.775V3.181ZM6.371,3.007L4.868,7.571L5.125,7.663L6.637,3.089L6.371,3.007ZM4.996,7.479H4.456V7.754H4.996V7.479ZM6.509,5.197L6.371,5.151L6.518,5.206L6.509,5.197ZM6.774,4.739L6.866,4.84H6.884L6.774,4.748V4.739ZM7.15,4.455L7.086,4.317L7.15,4.445V4.455ZM8.754,4.739L8.635,4.83L8.644,4.84L8.736,4.748L8.754,4.739ZM9.029,5.197L9.157,5.151L9.02,5.188L9.029,5.197ZM9.029,6.755L9.157,6.801L9.02,6.764L9.029,6.755ZM8.589,7.378L8.498,7.268V7.278L8.589,7.378ZM8.388,7.516L8.333,7.388H8.323L8.378,7.525L8.388,7.516ZM6.5,6.783L6.38,6.81L6.518,6.773L6.5,6.783ZM8.424,5.499L8.553,5.472L8.415,5.499H8.424ZM8.287,5.225L8.177,5.289V5.298L8.287,5.215V5.225ZM7.453,5.05L7.526,5.17L7.453,5.041V5.05ZM7.114,5.481L6.976,5.454L7.114,5.49V5.481ZM7.114,6.471L7.251,6.453L7.114,6.48V6.471ZM7.233,6.755L7.123,6.847L7.132,6.856L7.233,6.764V6.755ZM7.453,6.92L7.389,7.048L7.453,6.929V6.92ZM8.076,6.92L8.012,6.81L8.076,6.929V6.92ZM8.415,6.48L8.278,6.444L8.415,6.471V6.48ZM6.555,5.976C6.555,5.637 6.582,5.39 6.637,5.234L6.371,5.142C6.307,5.353 6.28,5.628 6.28,5.976H6.555ZM6.637,5.234C6.692,5.069 6.765,4.94 6.875,4.83L6.674,4.647C6.536,4.775 6.435,4.959 6.371,5.142L6.637,5.234ZM6.884,4.83C6.958,4.739 7.068,4.647 7.214,4.574L7.086,4.335C6.912,4.427 6.774,4.528 6.664,4.656L6.884,4.84V4.83ZM7.214,4.574C7.343,4.51 7.526,4.464 7.764,4.464V4.189C7.48,4.189 7.26,4.226 7.077,4.317L7.205,4.565L7.214,4.574ZM7.764,4.464C8.003,4.464 8.186,4.51 8.314,4.574L8.452,4.326C8.268,4.235 8.03,4.189 7.764,4.189V4.464ZM8.314,4.574C8.461,4.656 8.571,4.739 8.644,4.83L8.855,4.656C8.763,4.528 8.626,4.427 8.452,4.335L8.323,4.574H8.314ZM8.653,4.849C8.763,4.94 8.837,5.069 8.892,5.234L9.157,5.16C9.084,4.959 8.993,4.775 8.846,4.647L8.653,4.84V4.849ZM8.892,5.234C8.938,5.399 8.965,5.646 8.965,5.985H9.24C9.24,5.637 9.212,5.362 9.148,5.16L8.901,5.234H8.892ZM8.965,5.985C8.965,6.324 8.938,6.572 8.892,6.737L9.157,6.81C9.212,6.609 9.24,6.334 9.24,5.985H8.965ZM8.892,6.728C8.846,6.893 8.763,7.03 8.653,7.14L8.846,7.342C8.993,7.186 9.093,7.012 9.157,6.81L8.892,6.728ZM8.644,7.158L8.516,7.268L8.681,7.488L8.855,7.323L8.644,7.14V7.158ZM8.498,7.278C8.461,7.314 8.406,7.351 8.333,7.388L8.443,7.635C8.534,7.598 8.626,7.543 8.69,7.479L8.507,7.278H8.498ZM8.314,7.397C8.186,7.47 8.003,7.516 7.764,7.516V7.791C8.039,7.791 8.268,7.736 8.452,7.635L8.314,7.397ZM7.764,7.516C7.526,7.516 7.352,7.47 7.214,7.397L7.086,7.635C7.269,7.736 7.499,7.791 7.755,7.791V7.525L7.764,7.516ZM7.214,7.388C7.059,7.314 6.949,7.232 6.875,7.158L6.674,7.342C6.774,7.461 6.921,7.562 7.086,7.644L7.214,7.397V7.388ZM6.875,7.14C6.765,7.03 6.701,6.893 6.637,6.728L6.371,6.819C6.435,7.003 6.536,7.186 6.674,7.333L6.875,7.149V7.14ZM6.637,6.728C6.582,6.572 6.555,6.334 6.555,5.994H6.28C6.28,6.334 6.307,6.609 6.371,6.819L6.637,6.728ZM8.589,5.994C8.589,5.765 8.571,5.582 8.553,5.463L8.278,5.509C8.296,5.6 8.314,5.765 8.314,5.994H8.589ZM8.553,5.463C8.525,5.325 8.47,5.225 8.397,5.133L8.186,5.307C8.232,5.362 8.259,5.435 8.278,5.509L8.553,5.454V5.463ZM8.406,5.142C8.342,5.05 8.241,4.959 8.131,4.922L8.021,5.17C8.094,5.206 8.14,5.243 8.168,5.289L8.406,5.142ZM8.131,4.922C8.021,4.867 7.902,4.84 7.764,4.84V5.115C7.856,5.115 7.948,5.133 8.012,5.17L8.131,4.922ZM7.764,4.84C7.636,4.84 7.508,4.867 7.398,4.922L7.517,5.17C7.59,5.133 7.673,5.115 7.764,5.115V4.84ZM7.398,4.922C7.288,4.959 7.196,5.041 7.123,5.133L7.343,5.298C7.389,5.243 7.434,5.206 7.517,5.17L7.398,4.922ZM7.123,5.133C7.068,5.234 7.013,5.335 6.976,5.454L7.251,5.518C7.269,5.426 7.297,5.362 7.343,5.298L7.123,5.133ZM6.976,5.454C6.949,5.582 6.939,5.756 6.939,5.985H7.214C7.214,5.765 7.224,5.609 7.251,5.518L6.976,5.454ZM6.939,5.985C6.939,6.214 6.949,6.398 6.976,6.517L7.251,6.453C7.224,6.361 7.214,6.214 7.214,5.994H6.939V5.985ZM6.976,6.517C7.004,6.636 7.068,6.746 7.123,6.847L7.343,6.682C7.306,6.618 7.251,6.544 7.251,6.453L6.976,6.517ZM7.132,6.856C7.205,6.929 7.288,6.993 7.389,7.048L7.526,6.81L7.343,6.673L7.141,6.856H7.132ZM7.398,7.067C7.508,7.122 7.627,7.149 7.764,7.149V6.874C7.673,6.874 7.581,6.856 7.517,6.819L7.398,7.058V7.067ZM7.764,7.149C7.902,7.149 8.021,7.122 8.131,7.058L8.021,6.819C7.948,6.847 7.865,6.865 7.764,6.865V7.14V7.149ZM8.131,7.058C8.241,7.012 8.333,6.938 8.397,6.856L8.177,6.682C8.149,6.718 8.085,6.773 8.012,6.81L8.14,7.058H8.131ZM8.397,6.856C8.47,6.764 8.525,6.645 8.553,6.517L8.278,6.462C8.268,6.554 8.232,6.627 8.186,6.691L8.397,6.856ZM8.553,6.517C8.571,6.398 8.589,6.224 8.589,6.004H8.314C8.314,6.224 8.296,6.37 8.278,6.462L8.553,6.517Z" fill="#000000" fill-opacity="1.0" /></svg>