<?xml version="1.0" encoding="utf-8" ?>
<svg baseProfile="full" height="16.0" version="1.1" viewBox="0 0 12.0 16.0" width="12.0" xmlns="http://www.w3.org/2000/svg" xmlns:ev="http://www.w3.org/2001/xml-events" xmlns:xlink="http://www.w3.org/1999/xlink"><defs /><path d="M4.327,7.663L4.355,7.754H4.456H4.996H5.088L5.125,7.663L6.637,3.089L6.692,2.906H6.518V3.052L6.509,3.049V2.906H5.775V2.915H5.665L5.638,3.007L4.731,6.056L3.814,3.007L3.787,2.915H3.686H3.677H2.953H2.943H2.76L2.815,3.098L4.327,7.663ZM4.719,6.527L4.721,6.535V6.526L4.719,6.527ZM6.28,5.976H6.426L6.426,5.985L6.426,5.994H6.28C6.28,6.334 6.307,6.609 6.371,6.819C6.435,7.003 6.536,7.186 6.674,7.333L6.774,7.241L6.774,7.241L6.779,7.246L6.674,7.342C6.774,7.461 6.921,7.562 7.086,7.644L7.09,7.637C7.272,7.737 7.5,7.791 7.755,7.791V7.653L7.764,7.653V7.791C8.039,7.791 8.268,7.736 8.452,7.635L8.45,7.632C8.535,7.597 8.619,7.547 8.681,7.488L8.681,7.488L8.841,7.337L8.846,7.342C8.992,7.186 9.093,7.012 9.157,6.81C9.212,6.609 9.24,6.334 9.24,5.985C9.24,5.638 9.213,5.364 9.149,5.163L9.157,5.16L9.155,5.152L9.157,5.151L9.154,5.152C9.083,4.957 8.993,4.78 8.853,4.653C8.761,4.526 8.625,4.426 8.452,4.335L8.391,4.448L8.388,4.445L8.386,4.445L8.452,4.326C8.268,4.235 8.03,4.189 7.764,4.189C7.48,4.189 7.26,4.226 7.077,4.317L7.095,4.352L7.086,4.335C6.913,4.426 6.776,4.527 6.667,4.654C6.533,4.782 6.434,4.962 6.371,5.142C6.307,5.353 6.28,5.628 6.28,5.976ZM7.15,4.445V4.455L7.15,4.455L7.086,4.317L7.15,4.445ZM6.457,6.79L6.501,6.778L6.502,6.781L6.5,6.783L6.433,6.798L6.38,6.81L6.457,6.79ZM8.412,7.566L8.385,7.519L8.388,7.516L8.388,7.516L8.389,7.515L8.412,7.566ZM9.157,6.801L9.02,6.764L9.02,6.764L9.029,6.755L9.157,6.801ZM8.443,6.004L8.443,5.994L8.314,5.994C8.314,5.765 8.296,5.6 8.278,5.509L8.423,5.484L8.422,5.48L8.278,5.509C8.259,5.435 8.232,5.362 8.186,5.307L8.283,5.226L8.287,5.225V5.224L8.296,5.216L8.296,5.215L8.293,5.212L8.287,5.215L8.168,5.289C8.14,5.243 8.094,5.206 8.021,5.17L8.074,5.05L8.07,5.048L8.012,5.17C7.948,5.133 7.856,5.115 7.764,5.115C7.676,5.115 7.596,5.132 7.524,5.166L7.526,5.17L7.524,5.166L7.517,5.17C7.434,5.206 7.389,5.243 7.343,5.298C7.297,5.362 7.269,5.426 7.251,5.518C7.224,5.609 7.214,5.765 7.214,5.985L7.068,5.985L7.068,5.994H7.214C7.214,6.214 7.224,6.361 7.251,6.453L7.114,6.471V6.48L7.251,6.453C7.251,6.529 7.29,6.593 7.324,6.65C7.329,6.659 7.334,6.667 7.339,6.676L7.343,6.673L7.526,6.81L7.52,6.821C7.584,6.857 7.674,6.874 7.764,6.874V6.865C7.863,6.865 7.945,6.847 8.017,6.821L8.012,6.81C8.085,6.773 8.149,6.718 8.177,6.682L8.187,6.69C8.232,6.626 8.268,6.553 8.278,6.462L8.281,6.444L8.408,6.478L8.409,6.47L8.281,6.444C8.298,6.352 8.314,6.21 8.314,6.004H8.443ZM8.281,6.444L8.281,6.444L8.278,6.444L8.281,6.444ZM8.232,5.257L8.287,5.215V5.224L8.283,5.226L8.232,5.257ZM8.232,5.257L8.177,5.298V5.289L8.232,5.257ZM7.458,6.936L7.454,6.935L7.492,6.87L7.458,6.936ZM8.071,6.927L8.072,6.927L8.057,6.897L8.071,6.927ZM7.232,6.774L7.228,6.769L7.233,6.764L7.285,6.725L7.232,6.774ZM6.713,9.076L6.616,9.033C6.692,8.87 6.788,8.728 6.917,8.62L6.922,8.626C7.039,8.52 7.166,8.445 7.303,8.37L7.306,8.38C7.455,8.326 7.605,8.294 7.764,8.294C7.915,8.294 8.065,8.326 8.215,8.37L8.178,8.477L8.18,8.477L8.215,8.381C8.365,8.435 8.505,8.511 8.623,8.62L8.562,8.691L8.566,8.693L8.633,8.62C8.751,8.728 8.848,8.87 8.923,9.033L8.925,9.036L8.934,9.033L8.925,9.037C8.999,9.21 9.041,9.393 9.041,9.598V9.848H9.052V9.957H8.945L8.945,9.848H8.923V9.957H8.236H8.226H8.129V9.848H8.118V9.598H8.14C8.138,9.463 8.095,9.379 8.033,9.326L8.063,9.279L8.022,9.326L8.086,9.243L8.096,9.227L8.094,9.226L8.011,9.315C7.947,9.25 7.872,9.217 7.764,9.217V9.207C7.665,9.21 7.584,9.25 7.513,9.31L7.518,9.315C7.453,9.359 7.41,9.457 7.41,9.598V12.196C7.41,12.337 7.453,12.435 7.507,12.489L7.442,12.565L7.443,12.565L7.447,12.57L7.507,12.5C7.582,12.554 7.668,12.587 7.775,12.587V12.576C7.869,12.576 7.953,12.545 8.026,12.494L8.022,12.489C8.097,12.435 8.129,12.337 8.129,12.196V11.38H7.7V11.37H7.593V11.272V11.261V10.652V10.544H7.689H7.7H8.934H9.041V10.652V12.196C9.041,12.413 9.009,12.598 8.934,12.772C8.848,12.924 8.762,13.054 8.633,13.163C8.515,13.283 8.376,13.359 8.226,13.413C8.076,13.467 7.925,13.5 7.775,13.5C7.614,13.5 7.464,13.467 7.314,13.424L7.351,13.317L7.349,13.316L7.314,13.413C7.166,13.359 7.028,13.274 6.922,13.168L6.917,13.174C6.788,13.065 6.692,12.913 6.616,12.772L6.715,12.722L6.714,12.72L6.606,12.772C6.541,12.598 6.498,12.413 6.498,12.196V9.598H6.509C6.509,9.391 6.552,9.217 6.606,9.033L6.713,9.076ZM5.694,8.457V8.457L5.802,8.457H5.694ZM5.46,13.172C5.56,13.069 5.641,12.964 5.693,12.82L5.705,12.826C5.769,12.674 5.812,12.511 5.812,12.337H5.802V11.065C5.802,10.764 5.728,10.527 5.55,10.353C5.381,10.175 5.162,10.09 4.911,10.087V10.087L4.906,10.087L4.9,10.087V10.087C4.766,10.089 4.65,10.121 4.525,10.174C4.495,10.186 4.467,10.2 4.439,10.214V9.207H5.694L5.694,9.217H5.802V9.109L5.705,9.109V9.098H5.812V8.457H5.802V8.348H5.694H3.72H3.71H3.613V8.457V11.087V11.098V11.196H3.71H3.72H4.332H4.407L4.428,11.141L4.42,11.137L4.461,11.065L4.503,11.011L4.423,10.924L4.428,10.924L4.503,11L4.568,10.957H4.579L4.529,10.857L4.536,10.854L4.589,10.946L4.695,10.935C4.752,10.937 4.792,10.957 4.831,10.995L4.825,11C4.868,11.043 4.9,11.109 4.9,11.174V12.326C4.9,12.413 4.879,12.478 4.847,12.522L4.916,12.582L4.836,12.522C4.804,12.554 4.761,12.576 4.675,12.576V12.587C4.608,12.585 4.549,12.565 4.509,12.527L4.514,12.522C4.471,12.467 4.439,12.413 4.439,12.304V12.13H4.332V12.12H4.439V12.011H4.332H3.645H3.634H3.538V12.12V12.337H3.516C3.516,12.511 3.538,12.674 3.602,12.815L3.705,12.771L3.707,12.776L3.613,12.826C3.688,12.967 3.763,13.087 3.871,13.185L3.876,13.19L3.871,13.196L3.876,13.19C3.979,13.294 4.093,13.367 4.226,13.42L4.225,13.424C4.26,13.432 4.295,13.44 4.329,13.448C4.441,13.475 4.547,13.5 4.654,13.5C4.804,13.5 4.943,13.467 5.083,13.424L5.051,13.321L5.094,13.424C5.233,13.37 5.351,13.283 5.458,13.185L5.453,13.179L5.458,13.174L5.469,13.185L5.46,13.172ZM5.46,13.172L5.405,13.098L5.394,13.109L5.458,13.174L5.46,13.172ZM4.831,10.995L4.831,10.995L4.825,11L4.831,10.995ZM4.886,10.949L4.831,10.995L4.831,10.995L4.906,10.929L4.906,10.929L4.886,10.949ZM4.886,10.949L4.908,10.931L4.91,10.933L4.874,10.962L4.886,10.949ZM4.428,10.924L4.424,10.92L4.431,10.916L4.439,10.924L4.428,10.924ZM4.423,10.924L4.418,10.924L4.421,10.922L4.423,10.924ZM4.332,9.109H4.332V9.109H4.332V9.109ZM4.915,12.587H4.921L4.921,12.587L4.919,12.59L4.915,12.587ZM4.435,12.587L4.426,12.595L4.417,12.587L4.418,12.587H4.435Z" fill="#000000" fill-opacity="1.0" /></svg>