<?xml version="1.0" encoding="utf-8" ?>
<svg baseProfile="full" height="16.5" version="1.1" viewBox="0 0 24.0 24.0" width="16.5" xmlns="http://www.w3.org/2000/svg" xmlns:ev="http://www.w3.org/2001/xml-events" xmlns:xlink="http://www.w3.org/1999/xlink"><defs /><path d="M10,22 L7,22 L7,17 L10,14 L10,22 Z M11,22 L11,13 L21.1464466,2.85355339 C21.3417088,2.65829124 21.6582912,2.65829124 21.8535534,2.85355339 C21.9473216,2.94732158 22,3.07449854 22,3.20710678 L22,21 C22,21.5522847 21.5522847,22 21,22 L11,22 Z M6,22 L3.20710678,22 C2.93096441,22 2.70710678,21.7761424 2.70710678,21.5 C2.70710678,21.3673918 2.7597852,21.2402148 2.85355339,21.1464466 L6,18 L6,22 Z" fill="#000000" fill-opacity="1.0" /><path d="M10,22 L7,22 L7,17 L10,14 L10,22 Z M6,22 L3.20710678,22 C2.93096441,22 2.70710678,21.7761424 2.70710678,21.5 C2.70710678,21.3673918 2.7597852,21.2402148 2.85355339,21.1464466 L6,18 L6,22 Z" fill="#000000" fill-opacity="1.0" /></svg>