<?xml version="1.0" encoding="utf-8" ?>
<svg baseProfile="full" height="18.0" version="1.1" viewBox="0 0 20.0 18.0" width="20.0" xmlns="http://www.w3.org/2000/svg" xmlns:ev="http://www.w3.org/2001/xml-events" xmlns:xlink="http://www.w3.org/1999/xlink"><defs /><path d="M14.47 9.9c0.07-0.08 0.17-0.12 0.28-0.12h2.57c0.2 0 0.37 0.16 0.37 0.36v4.29c0 0.2-0.17 0.36-0.37 0.36h-3.21c-0.2 0-0.37-0.16-0.37-0.36V10.9c0-0.08 0.03-0.17 0.09-0.23l0.64-0.77Zm2.27 4.22v-0.7H15.6l0.92-1.22c0.14-0.2 0.22-0.42 0.22-0.67 0-0.3-0.1-0.57-0.3-0.77-0.2-0.2-0.44-0.3-0.75-0.31-0.27 0-0.5 0.1-0.7 0.3-0.18 0.21-0.28 0.47-0.3 0.78v0.1h0.65l0.01-0.08c0.01-0.14 0.06-0.23 0.13-0.3 0.06-0.07 0.15-0.1 0.25-0.1 0.12 0 0.2 0.03 0.26 0.1 0.06 0.08 0.1 0.17 0.1 0.28l-0.02 0.13c-0.02 0.04-0.04 0.1-0.09 0.15l-1.26 1.68-0.02 0.07v0.56h2.04Z" fill="#000000" fill-opacity="1.0" /><path d="M11.29 6.4c0 0.41-0.09 0.78-0.26 1.09-0.17 0.3-0.42 0.54-0.73 0.7-0.32 0.16-0.67 0.24-1.08 0.24-0.42 0-0.78-0.08-1.1-0.24-0.3-0.16-0.55-0.4-0.73-0.7-0.17-0.31-0.25-0.68-0.25-1.1 0-0.41 0.08-0.78 0.25-1.08C7.57 5 7.81 4.77 8.12 4.6 8.43 4.44 8.8 4.36 9.21 4.36c0.41 0 0.77 0.08 1.09 0.25 0.31 0.16 0.55 0.4 0.73 0.7 0.17 0.3 0.26 0.67 0.26 1.08Zm-1.3 0c0-0.33-0.07-0.59-0.2-0.8-0.13-0.2-0.32-0.3-0.57-0.3-0.26 0-0.46 0.1-0.59 0.3-0.13 0.21-0.2 0.47-0.2 0.8 0 0.32 0.07 0.58 0.2 0.79 0.13 0.2 0.32 0.3 0.58 0.3 0.25 0 0.44-0.1 0.58-0.3 0.13-0.2 0.2-0.47 0.2-0.8Z" fill="#000000" fill-opacity="1.0" /><path d="M4.12 8.35L2.41 3.12h1.37l1.13 3.83 1.13-3.83h1.28L5.61 8.35H4.12Z" fill="#000000" fill-opacity="1.0" /><path d="M9.42 9.65h3.53v1h-2.22v1h2.07v1.04h-2.07v1.14h2.3v1.05h-3.6V9.65Z" fill="#000000" fill-opacity="1.0" /><path d="M7.79 14.88h-1.3v-4.2H5.06V9.64H9.2v1.02H7.8v4.21Z" fill="#000000" fill-opacity="1.0" /><path d="M2.58 9.65h1.3v4.17h2.03v1.06H2.58V9.65Z" fill="#000000" fill-opacity="1.0" /></svg>