<?xml version="1.0" encoding="utf-8" ?>
<svg baseProfile="full" height="16.0" version="1.1" viewBox="0 0 28.0 16.0" width="28.0" xmlns="http://www.w3.org/2000/svg" xmlns:ev="http://www.w3.org/2001/xml-events" xmlns:xlink="http://www.w3.org/1999/xlink"><defs /><path d="M3.28 9.59v1.51h1.14c0.29 0 0.5-0.09 0.64-0.25 0.14-0.14 0.2-0.33 0.2-0.54 0-0.26-0.08-0.45-0.24-0.57C4.89 9.64 4.7 9.6 4.46 9.6H3.28ZM2.53 13.9V8.92h1.94c0.42 0 0.75 0.1 1.02 0.32 0.31 0.25 0.48 0.6 0.5 1.07-0.02 0.67-0.34 1.13-0.97 1.38l1.15 2.21h-0.9l-1.02-2.13H3.28v2.13H2.53Z" fill="#000000" fill-opacity="1.0" /><path d="M3.28 9.59v-0.1h-0.1v0.1h0.1Zm0 1.51h-0.1v0.1h0.1v-0.1Zm1.14 0v0.1-0.1Zm0.64-0.25L4.99 10.8l0.07 0.06Zm0.2-0.54h0.1-0.1ZM5.03 9.74L4.96 9.82l0.06-0.08Zm-2.5 4.16h-0.1V14h0.1v-0.1Zm0-4.98v-0.1h-0.1v0.1h0.1ZM5.5 9.24L5.42 9.32 5.5 9.24Zm0.5 1.07h0.1-0.1Zm-0.97 1.38l-0.04-0.1-0.1 0.05 0.05 0.1 0.09-0.05Zm1.15 2.21V14h0.17l-0.08-0.15-0.09 0.05Zm-0.9 0l-0.09 0.04L5.21 14h0.06v-0.1Zm-1.02-2.13l0.09-0.04-0.03-0.06H4.25v0.1Zm-0.97 0v-0.1h-0.1v0.1h0.1Zm0 2.13V14h0.1v-0.1h-0.1Zm-0.1-4.31v1.51h0.2V9.6h-0.2Zm0.1 1.61h1.14V11H3.28v0.2Zm1.14 0c0.3 0 0.55-0.1 0.71-0.28L4.98 10.8c-0.11 0.13-0.3 0.2-0.56 0.21v0.2Zm0.71-0.28c0.16-0.16 0.24-0.37 0.24-0.61h-0.2c0 0.2-0.06 0.35-0.18 0.48l0.14 0.13Zm0.24-0.61c0-0.29-0.1-0.5-0.3-0.65L4.97 9.82c0.13 0.1 0.2 0.25 0.2 0.49h0.2ZM5.08 9.67C4.93 9.54 4.72 9.49 4.46 9.49v0.2c0.23 0 0.4 0.05 0.5 0.13l0.12-0.15ZM4.46 9.49H3.28v0.2h1.18v-0.2ZM2.63 13.9V8.92h-0.2v4.98h0.2Zm-0.1-4.88h1.94v-0.2H2.53v0.2Zm1.94 0c0.4 0 0.71 0.1 0.95 0.3l0.13-0.15C5.27 8.93 4.9 8.82 4.47 8.82v0.2Zm0.95 0.3c0.3 0.23 0.45 0.56 0.46 1l0.2-0.02C6.07 9.82 5.9 9.44 5.55 9.17L5.42 9.32Zm0.46 0.99c0 0.32-0.08 0.58-0.23 0.8-0.14 0.2-0.37 0.37-0.67 0.49l0.07 0.18c0.34-0.13 0.6-0.31 0.77-0.56 0.17-0.25 0.26-0.56 0.26-0.91h-0.2Zm-0.95 1.42l1.15 2.22 0.18-0.1-1.15-2.2-0.18 0.08Zm1.24 2.07h-0.9V14h0.9v-0.2Zm-0.8 0.06l-1.03-2.13-0.18 0.08 1.02 2.13 0.18-0.08Zm-1.12-2.19H3.28v0.2h0.97v-0.2Zm-1.07 0.1v2.13h0.2v-2.13h-0.2Zm0.1 2.03H2.53V14h0.75v-0.2Z" fill="#000000" fill-opacity="1.0" /></svg>