<?xml version="1.0" encoding="utf-8" ?>
<svg baseProfile="full" height="24.0" version="1.1" viewBox="0 0 24.0 24.0" width="24.0" xmlns="http://www.w3.org/2000/svg" xmlns:ev="http://www.w3.org/2001/xml-events" xmlns:xlink="http://www.w3.org/1999/xlink"><defs /><path d="M2.5,7.605C2.5,6.609 3.308,5.801 4.304,5.801H19.569C20.565,5.801 21.373,6.609 21.373,7.605V16.394C21.373,17.391 20.565,18.198 19.569,18.198H4.304C3.308,18.198 2.5,17.391 2.5,16.394V7.605ZM16.598,8.384C16.723,8.474 16.795,8.62 16.791,8.774C16.784,8.995 16.708,9.388 16.583,9.843C16.454,10.311 16.262,10.883 16.004,11.473C15.498,12.631 14.699,13.947 13.543,14.62C11.623,15.738 9.945,15.096 9.066,14.385C8.604,14.735 8.143,15.115 7.7,15.527C7.439,15.77 7.03,15.755 6.788,15.493C6.545,15.232 6.56,14.824 6.821,14.581C7.289,14.145 7.775,13.743 8.261,13.374C9.045,12.82 11.31,11.326 13.552,10.896C14.473,10.719 13.631,10.299 11.658,10.574C10.428,10.745 9.109,11.255 8.016,12.075C8.026,11.718 8.098,11.358 8.235,11.012L8.236,11.011C8.417,10.553 8.769,9.974 9.379,9.525C9.995,9.071 10.848,8.77 11.986,8.83C14.027,8.89 15.316,8.648 16.167,8.328C16.311,8.274 16.473,8.295 16.598,8.384ZM22.587,9.687H22.569C22.317,9.687 22.112,9.892 22.112,10.144V13.855C22.112,14.107 22.317,14.312 22.569,14.312H22.587C23.091,14.312 23.5,13.903 23.5,13.399V10.6C23.5,10.096 23.091,9.687 22.587,9.687Z" fill="#ffffff" fill-opacity="1.0" /></svg>