<?xml version="1.0" encoding="utf-8" ?>
<svg baseProfile="full" height="16.0" version="1.1" viewBox="0 0 22.0 16.0" width="22.0" xmlns="http://www.w3.org/2000/svg" xmlns:ev="http://www.w3.org/2001/xml-events" xmlns:xlink="http://www.w3.org/1999/xlink"><defs /><path d="M8.214,8.422H9.08V12.417H10.481V13.283H8.214L8.214,8.422ZM2.936,13.188L2.963,13.28H3.064H3.605H3.696L3.733,13.188L5.245,8.615L5.3,8.432H5.126V8.578L5.117,8.575V8.432H4.384V8.441H4.274L4.246,8.532L3.34,11.582L2.422,8.532L2.395,8.441H2.294H2.285H1.561H1.552H1.368L1.423,8.624L2.936,13.188ZM3.327,12.053L3.33,12.061V12.052L3.327,12.053ZM4.888,11.502H5.035L5.035,11.511L5.035,11.52H4.888C4.888,11.859 4.915,12.134 4.98,12.345C5.044,12.528 5.145,12.712 5.282,12.858L5.383,12.767L5.383,12.767L5.388,12.772L5.282,12.868C5.383,12.987 5.53,13.088 5.694,13.17L5.698,13.163C5.881,13.262 6.109,13.317 6.364,13.317V13.179L6.373,13.179V13.317C6.648,13.317 6.877,13.262 7.06,13.161L7.058,13.158C7.143,13.123 7.227,13.073 7.289,13.014L7.289,13.014L7.449,12.863L7.454,12.868C7.601,12.712 7.702,12.538 7.766,12.336C7.821,12.134 7.848,11.859 7.848,11.511C7.848,11.164 7.821,10.89 7.757,10.689L7.766,10.686L7.763,10.678L7.766,10.677L7.763,10.678C7.691,10.483 7.602,10.306 7.461,10.179C7.37,10.052 7.233,9.952 7.06,9.861L7,9.974L6.996,9.971L6.994,9.971L7.06,9.852C6.877,9.761 6.639,9.715 6.373,9.715C6.089,9.715 5.869,9.751 5.685,9.843L5.704,9.878L5.694,9.861C5.522,9.952 5.385,10.052 5.275,10.179C5.141,10.307 5.043,10.488 4.98,10.668C4.915,10.879 4.888,11.154 4.888,11.502ZM5.759,9.971V9.981L5.759,9.981L5.694,9.843L5.759,9.971ZM5.066,12.316L5.11,12.304L5.111,12.307L5.108,12.309L5.041,12.324L4.989,12.336L5.066,12.316ZM7.02,13.092L6.993,13.045L6.996,13.042L6.996,13.042L6.998,13.041L7.02,13.092ZM7.766,12.327L7.628,12.29L7.628,12.29L7.638,12.281L7.766,12.327ZM7.051,11.53L7.051,11.52L6.923,11.52C6.923,11.291 6.904,11.126 6.886,11.035L7.032,11.01L7.031,11.006L6.886,11.035C6.868,10.961 6.84,10.888 6.794,10.833L6.892,10.752L6.895,10.75V10.75L6.905,10.742L6.904,10.741L6.901,10.737L6.895,10.741L6.776,10.815C6.749,10.769 6.703,10.732 6.629,10.695L6.683,10.575L6.679,10.574L6.62,10.695C6.556,10.659 6.464,10.641 6.373,10.641C6.284,10.641 6.204,10.658 6.132,10.692L6.134,10.695L6.132,10.692L6.125,10.695C6.043,10.732 5.997,10.769 5.951,10.824C5.905,10.888 5.878,10.952 5.859,11.044C5.832,11.135 5.823,11.291 5.823,11.511L5.676,11.511L5.676,11.52H5.823C5.823,11.74 5.832,11.887 5.859,11.979L5.722,11.997V12.006L5.859,11.979C5.859,12.055 5.898,12.119 5.932,12.176C5.937,12.185 5.943,12.193 5.948,12.202L5.951,12.199L6.134,12.336L6.128,12.347C6.192,12.382 6.282,12.4 6.373,12.4V12.391C6.472,12.391 6.553,12.373 6.626,12.347L6.62,12.336C6.694,12.299 6.758,12.244 6.785,12.208L6.795,12.216C6.841,12.152 6.877,12.079 6.886,11.988L6.889,11.97L7.016,12.004L7.017,11.996L6.889,11.97C6.907,11.878 6.923,11.736 6.923,11.53H7.051ZM6.889,11.97L6.889,11.97L6.886,11.969L6.889,11.97ZM6.84,10.783L6.895,10.741V10.75L6.892,10.752L6.84,10.783ZM6.84,10.783L6.785,10.824V10.815L6.84,10.783ZM6.067,12.462L6.063,12.46L6.1,12.396L6.067,12.462ZM6.679,12.453L6.681,12.453L6.665,12.423L6.679,12.453ZM5.84,12.3L5.836,12.295L5.841,12.29L5.894,12.251L5.84,12.3ZM15.937,8.422H13.67L13.67,13.283H15.937V12.417H14.536V11.062L15.937,11.062V10.196L14.536,10.196V9.288L15.937,9.288V8.422ZM10.004,8.422H13.234V9.288L12.052,9.288V13.283H11.186V9.288L10.004,9.288V8.422Z" fill="#000000" fill-opacity="1.0" /><path d="M3.064,7.443V7.443L2.936,7.488L1.423,2.924L1.368,2.741H1.552H1.561H2.285H2.294H2.395L2.422,2.832L3.34,5.882L4.246,2.832L4.274,2.741H4.384V2.732H5.117V2.875L5.126,2.878V2.732H5.3L5.245,2.915L3.733,7.488L3.696,7.58H3.605L3.605,7.443H3.605L3.605,7.443V7.58H3.064H2.963L2.936,7.488L3.064,7.443ZM3.339,6.361H3.339L3.339,6.351L3.339,6.351V6.361ZM3.33,6.352L3.327,6.353L3.33,6.361V6.352ZM5.019,5.811L5.019,5.802H4.872C4.872,5.454 4.9,5.179 4.964,4.968C5.027,4.788 5.126,4.607 5.26,4.479C5.369,4.352 5.506,4.252 5.679,4.161L5.688,4.178L5.67,4.143C5.853,4.051 6.073,4.015 6.357,4.015C6.623,4.015 6.861,4.061 7.045,4.152L6.999,4.234L6.98,4.271L6.984,4.274L7.045,4.161C7.217,4.252 7.354,4.352 7.446,4.479C7.586,4.606 7.676,4.783 7.747,4.978L7.75,4.986L7.742,4.989C7.806,5.19 7.833,5.464 7.833,5.811C7.833,6.159 7.805,6.434 7.75,6.636C7.686,6.838 7.585,7.012 7.439,7.168L7.434,7.163L7.274,7.314C7.212,7.373 7.128,7.423 7.043,7.458L7.045,7.461C6.861,7.562 6.632,7.617 6.357,7.617L6.357,7.479L6.348,7.479V7.617C6.093,7.617 5.865,7.562 5.683,7.463L5.679,7.47C5.514,7.388 5.367,7.287 5.267,7.168L5.367,7.076L5.372,7.072L5.367,7.067L5.267,7.158C5.129,7.012 5.028,6.829 4.964,6.645C4.9,6.434 4.872,6.159 4.872,5.82H5.019L5.019,5.811ZM7.035,5.829L7.035,5.82L6.907,5.82C6.907,5.591 6.889,5.426 6.87,5.335C6.852,5.261 6.825,5.188 6.779,5.133L6.876,5.052L6.825,5.083L6.88,5.041L6.76,5.115C6.733,5.069 6.687,5.032 6.614,4.995L6.657,4.898L6.605,4.995C6.541,4.959 6.449,4.94 6.357,4.94C6.269,4.94 6.188,4.958 6.117,4.992L6.11,4.995C6.027,5.032 5.981,5.069 5.936,5.124C5.89,5.188 5.862,5.252 5.844,5.344C5.816,5.435 5.807,5.591 5.807,5.811L5.661,5.811L5.532,5.811V5.82H5.661H5.807C5.807,6.04 5.816,6.187 5.844,6.279C5.844,6.355 5.883,6.419 5.917,6.476L5.917,6.476C5.922,6.485 5.927,6.493 5.932,6.502L5.936,6.499L6.119,6.636L6.113,6.647C6.177,6.682 6.267,6.7 6.357,6.7V6.691C6.456,6.691 6.538,6.673 6.61,6.647L6.605,6.636C6.678,6.599 6.742,6.544 6.77,6.508L6.78,6.516L6.788,6.504C6.829,6.443 6.862,6.373 6.87,6.288L6.874,6.27C6.891,6.178 6.907,6.036 6.907,5.829H7.035ZM6.825,5.083L6.77,5.124V5.115L6.825,5.083Z" fill="#000000" fill-opacity="1.0" /><path d="M18.985,2.728H16.559V7.581H20.247V3.989L18.985,2.728ZM18.208,6.639V4.455L17.549,4.814V4.232L18.374,3.776H18.81V6.639H18.208ZM18.981,8.438H16.559V13.283H20.24V9.698L18.981,8.438ZM19.388,12.343H17.382V11.907L18.39,10.957C18.525,10.822 18.622,10.705 18.671,10.608C18.729,10.512 18.758,10.415 18.758,10.299C18.758,10.172 18.719,10.076 18.661,10.008C18.593,9.95 18.506,9.911 18.38,9.911C18.254,9.911 18.138,9.95 18.06,10.027C17.983,10.105 17.915,10.221 17.857,10.386L17.363,10.192C17.44,9.94 17.556,9.756 17.731,9.64C17.925,9.514 18.148,9.446 18.409,9.446C18.603,9.446 18.777,9.485 18.913,9.562C19.058,9.62 19.175,9.727 19.252,9.853C19.339,9.979 19.378,10.124 19.378,10.299C19.378,10.473 19.33,10.638 19.233,10.793C19.136,10.948 18.971,11.132 18.748,11.335L18.167,11.868H19.388V12.343Z" fill="#000000" fill-opacity="1.0" /><path d="M14.964,4.604L14.964,4.604L14.963,4.606C14.871,4.729 14.733,4.796 14.534,4.8H13.731V3.573H14.566C14.741,3.573 14.861,3.617 14.94,3.693L14.94,3.693L14.943,3.696C15.044,3.781 15.105,3.927 15.108,4.153C15.108,4.336 15.059,4.485 14.964,4.604ZM12.986,7.449V7.529H13.066H13.651H13.731V7.449V5.575H14.343L15.119,7.479L15.14,7.529H15.193H15.889H16.012L15.962,7.417L15.099,5.458C15.323,5.342 15.497,5.181 15.618,4.975C15.751,4.749 15.817,4.474 15.821,4.153L15.821,4.153L15.821,4.15C15.81,3.713 15.677,3.365 15.413,3.119C15.193,2.902 14.91,2.795 14.572,2.795H13.066H12.986V2.875V7.449Z" fill="#000000" fill-opacity="1.0" /><path d="M9.192,7.449V7.529H9.272H9.842H9.922V7.449V4.505L11.483,7.486L11.505,7.529H11.554H12.093H12.173V7.449V2.875V2.795H12.093H11.523H11.443V2.875V5.82L9.88,2.838L9.857,2.795H9.809H9.272H9.192V2.875V7.449Z" fill="#000000" fill-opacity="1.0" /></svg>