<?xml version="1.0" encoding="utf-8" ?>
<svg baseProfile="full" height="24.0" version="1.1" viewBox="0 0 24.0 24.0" width="24.0" xmlns="http://www.w3.org/2000/svg" xmlns:ev="http://www.w3.org/2001/xml-events" xmlns:xlink="http://www.w3.org/1999/xlink"><defs /><path d="M11.99,6C8.464,6 5.163,7.323 2.671,9.703L2.31,10.049C2.11,10.239 1.793,10.232 1.603,10.032L0.912,9.309C0.721,9.109 0.728,8.793 0.928,8.602L1.29,8.257C4.158,5.517 7.956,4 11.99,4C16.005,4 19.802,5.507 22.7,8.266L23.062,8.611C23.262,8.801 23.27,9.117 23.079,9.317L22.39,10.042C22.199,10.242 21.883,10.249 21.683,10.059L21.321,9.714C18.799,7.313 15.496,6 11.99,6ZM11.99,10.01C9.552,10.01 7.267,10.914 5.514,12.559L5.15,12.901C4.948,13.09 4.632,13.08 4.443,12.879L3.759,12.149C3.57,11.948 3.58,11.632 3.781,11.443L4.146,11.101C6.272,9.106 9.048,8.01 11.99,8.01C14.924,8.01 17.698,9.107 19.842,11.109L20.208,11.45C20.41,11.639 20.421,11.955 20.232,12.157L19.55,12.888C19.361,13.09 19.045,13.101 18.843,12.912L18.478,12.571C16.702,10.913 14.416,10.01 11.99,10.01ZM8.351,15.421C9.335,14.529 10.625,14.03 11.99,14.03C13.362,14.03 14.646,14.528 15.654,15.427L16.028,15.759C16.234,15.943 16.55,15.925 16.734,15.719L17.399,14.972C17.583,14.766 17.564,14.45 17.358,14.266L16.985,13.933C15.613,12.712 13.858,12.03 11.99,12.03C10.134,12.03 8.364,12.711 7.008,13.939L6.638,14.275C6.433,14.46 6.417,14.776 6.603,14.981L7.274,15.722C7.46,15.927 7.776,15.942 7.98,15.757L8.351,15.421ZM12,16.005C11.198,16.005 10.455,16.292 9.884,16.789L9.479,17.141C9.26,17.332 9.248,17.668 9.454,17.873L9.834,18.252L11.294,19.708L11.647,20.06C11.842,20.255 12.158,20.255 12.353,20.06L12.706,19.708L14.166,18.252L14.546,17.873C14.752,17.668 14.74,17.332 14.521,17.141L14.116,16.789C13.545,16.292 12.802,16.005 12,16.005Z" fill="#ffffff" fill-opacity="1.0" /></svg>