<?xml version="1.0" encoding="utf-8" ?>
<svg baseProfile="full" height="16.0" version="1.1" viewBox="0 0 23.0 16.0" width="23.0" xmlns="http://www.w3.org/2000/svg" xmlns:ev="http://www.w3.org/2001/xml-events" xmlns:xlink="http://www.w3.org/1999/xlink"><defs /><path d="M6.78 12.36c0 0.31-0.07 0.6-0.21 0.85-0.14 0.25-0.34 0.45-0.61 0.6-0.27 0.14-0.6 0.22-0.97 0.22-0.32 0-0.6-0.06-0.84-0.19-0.24-0.12-0.44-0.28-0.6-0.49-0.3-0.39-0.44-0.94-0.44-1.65 0-0.88 0.21-1.53 0.65-1.97 0.18-0.18 0.4-0.32 0.63-0.42 0.23-0.1 0.51-0.14 0.82-0.14 0.3 0 0.57 0.04 0.8 0.12 0.25 0.08 0.44 0.18 0.6 0.3l-0.4 0.76c-0.08-0.07-0.21-0.14-0.4-0.2-0.17-0.08-0.37-0.12-0.58-0.12-0.26 0-0.47 0.08-0.65 0.25-0.24 0.21-0.36 0.55-0.36 1.02 0.11-0.1 0.25-0.19 0.42-0.27 0.17-0.08 0.42-0.12 0.73-0.12 0.24 0 0.47 0.06 0.68 0.17 0.22 0.11 0.4 0.28 0.53 0.5 0.13 0.22 0.2 0.48 0.2 0.78Zm-1.12 0.07c0-0.2-0.06-0.38-0.18-0.51s-0.3-0.2-0.51-0.2c-0.14 0-0.26 0.03-0.37 0.1-0.11 0.06-0.2 0.12-0.27 0.2-0.07 0.07-0.1 0.1-0.1 0.12 0 0.29 0.06 0.53 0.18 0.73 0.14 0.2 0.32 0.3 0.56 0.3 0.23 0 0.4-0.07 0.51-0.2 0.12-0.15 0.18-0.32 0.18-0.54Z" fill="#000000" fill-opacity="1.0" /></svg>