<?xml version="1.0" encoding="utf-8" ?>
<svg baseProfile="full" height="16.0" version="1.1" viewBox="0 0 22.0 16.0" width="22.0" xmlns="http://www.w3.org/2000/svg" xmlns:ev="http://www.w3.org/2001/xml-events" xmlns:xlink="http://www.w3.org/1999/xlink"><defs /><path d="M16.559,8.422H18.985L20.247,9.684V13.275H16.559V8.422ZM18.208,10.149V12.333H18.81V9.47H18.374L17.549,9.926V10.509L18.208,10.149Z" fill="#000000" fill-opacity="1.0" /><path d="M8.57,4.726C8.835,4.726 9.09,4.832 9.277,5.019C9.465,5.207 9.57,5.461 9.57,5.726V6.726C9.57,6.991 9.465,7.246 9.277,7.433C9.09,7.621 8.835,7.726 8.57,7.726C8.305,7.726 8.05,7.621 7.863,7.433C7.675,7.246 7.57,6.991 7.57,6.726V5.726C7.57,5.461 7.675,5.207 7.863,5.019C8.05,4.832 8.305,4.726 8.57,4.726Z" fill="#000000" fill-opacity="0.0" /><path d="M3.01,3.375H4.275L4.948,5.97L5.567,3.375H6.742L5.473,8.105H4.428L3.01,3.375Z" fill="#000000" fill-opacity="1.0" /><path d="M3,9.175H3.9L4.429,11.519L5.083,9.175H5.713L6.364,11.519L6.896,9.175H7.795L6.75,13.275H6.05L5.397,10.858L4.742,13.275H4.045L3,9.175ZM8.014,9.175H9.114V10.275H8.014V9.175ZM9.681,9.175H12.114V10.074H10.781V10.778H12.114V11.676H10.781V13.275H9.681V9.175ZM12.681,9.175H13.781V10.275H12.681V9.175ZM8.014,10.508H9.114V13.275H8.014V10.508ZM12.681,10.508H13.781V13.275H12.681V10.508Z" fill="#000000" fill-opacity="1.0" /></svg>