<?xml version="1.0" encoding="utf-8" ?>
<svg baseProfile="full" height="16.0" version="1.1" viewBox="0 0 21.0 16.0" width="21.0" xmlns="http://www.w3.org/2000/svg" xmlns:ev="http://www.w3.org/2001/xml-events" xmlns:xlink="http://www.w3.org/1999/xlink"><defs /><path d="M8.42 4.28c0.72-0.68 1.66-1.05 2.65-1.05 1 0 1.93 0.37 2.66 1.05 0.15 0.14 0.39 0.14 0.53-0.02 0.15-0.15 0.14-0.4-0.02-0.53-0.86-0.81-1.98-1.26-3.17-1.26s-2.3 0.45-3.16 1.25C7.75 3.87 7.74 4.11 7.89 4.26 8.03 4.4 8.27 4.42 8.42 4.28ZM4.55 2.73C4.7 2.7 4.82 2.68 4.95 2.7c0.2 0.02 0.39 0.11 0.54 0.25 0.1 0.09 0.16 0.2 0.22 0.33 0.07 0.13 0.13 0.3 0.21 0.51l0.7 1.83c0.11 0.34 0.03 0.73-0.22 1C6.04 7 5.98 7.55 6.27 7.96c0.29 0.4 0.6 0.76 1.01 1.18 0.42 0.42 0.79 0.73 1.18 1.01 0.4 0.3 0.97 0.22 1.32-0.14 0.27-0.27 0.66-0.35 1.02-0.22l1.81 0.69h0.01l0.51 0.2c0.14 0.07 0.25 0.14 0.33 0.23 0.14 0.15 0.23 0.34 0.25 0.55 0.02 0.12 0 0.25-0.04 0.39l-0.18 0.53-0.06 0.16-0.01 0.03c-0.11 0.3-0.18 0.49-0.32 0.64-0.12 0.12-0.3 0.23-0.47 0.27-0.2 0.05-0.37 0.02-0.64-0.02h-0.02C10 13.12 7.92 12 6.16 10.24 4.39 8.48 3.27 6.4 2.95 4.43V4.4C2.9 4.14 2.86 3.97 2.91 3.77 2.96 3.6 3.07 3.42 3.2 3.3c0.15-0.14 0.34-0.2 0.64-0.32h0.03L4.02 2.9l0.53-0.18Zm6.52 2.14c-0.56 0-1.09 0.2-1.5 0.57C9.43 5.58 9.19 5.57 9.05 5.4 8.9 5.26 8.91 5.01 9.07 4.88c0.54-0.5 1.26-0.77 2-0.77 0.76 0 1.46 0.27 2.01 0.76 0.16 0.14 0.17 0.38 0.04 0.54-0.14 0.16-0.38 0.17-0.54 0.03-0.41-0.37-0.94-0.57-1.5-0.57Zm-0.83 1.16c0.22-0.2 0.52-0.3 0.84-0.3 0.32 0 0.61 0.1 0.84 0.3C12 6.1 12.05 6.2 12.05 6.31c0 0.1-0.04 0.2-0.11 0.28l-0.6 0.59c-0.14 0.15-0.38 0.15-0.53 0l-0.6-0.6c-0.07-0.07-0.1-0.17-0.1-0.27s0.05-0.2 0.13-0.28Z" fill="#000000" fill-opacity="1.0" /><path d="M15.65 8.9c0.07-0.08 0.17-0.13 0.28-0.13h2.33c0.2 0 0.35 0.16 0.35 0.35v4.14c0 0.2-0.15 0.35-0.35 0.35h-2.92c-0.2 0-0.35-0.16-0.35-0.35v-3.4c0-0.08 0.02-0.15 0.07-0.22l0.6-0.74Zm2.09 4.06v-0.67h-1.05l0.85-1.18c0.13-0.19 0.2-0.4 0.2-0.64 0-0.3-0.1-0.55-0.27-0.75-0.18-0.2-0.41-0.3-0.69-0.3-0.25 0-0.47 0.1-0.64 0.3-0.17 0.2-0.26 0.45-0.27 0.75v0.1h0.59v-0.09c0.02-0.13 0.06-0.22 0.12-0.3 0.06-0.06 0.14-0.09 0.23-0.09 0.11 0 0.19 0.04 0.24 0.11 0.06 0.07 0.09 0.16 0.09 0.26 0 0.04 0 0.08-0.02 0.13 0 0.04-0.03 0.09-0.07 0.14l-1.17 1.62-0.01 0.06v0.55h1.87Z" fill="#000000" fill-opacity="1.0" /></svg>