<?xml version="1.0" encoding="utf-8" ?>
<svg baseProfile="full" height="18.0" version="1.1" viewBox="0 0 20.0 18.0" width="20.0" xmlns="http://www.w3.org/2000/svg" xmlns:ev="http://www.w3.org/2001/xml-events" xmlns:xlink="http://www.w3.org/1999/xlink"><defs /><path d="M14.12 3.38c0.07-0.08 0.18-0.14 0.29-0.14h2.56c0.2 0 0.37 0.17 0.37 0.37v4.65c0 0.2-0.17 0.36-0.37 0.36h-3.21c-0.2 0-0.37-0.16-0.37-0.36V4.44c0-0.08 0.03-0.16 0.08-0.22l0.65-0.84Zm1.65 0.94h-0.8v3.22h0.8V4.32Z" fill="#000000" fill-opacity="1.0" /><path d="M14.12 10C14.2 9.9 14.3 9.85 14.4 9.85h2.57c0.2 0 0.37 0.17 0.37 0.37v4.29c0 0.2-0.17 0.36-0.37 0.36h-3.21c-0.2 0-0.37-0.16-0.37-0.36V11c0-0.09 0.03-0.17 0.09-0.24L14.12 10Zm2.27 4.2v-0.69h-1.14l0.92-1.22c0.14-0.2 0.22-0.42 0.22-0.67 0-0.31-0.1-0.57-0.3-0.77-0.2-0.2-0.44-0.31-0.75-0.31-0.27 0-0.5 0.1-0.7 0.3-0.18 0.21-0.28 0.47-0.3 0.78v0.1H15L15 11.65c0.01-0.14 0.06-0.24 0.13-0.3 0.06-0.08 0.15-0.11 0.25-0.11 0.12 0 0.2 0.04 0.26 0.11 0.06 0.08 0.1 0.17 0.1 0.28l-0.02 0.13c-0.02 0.04-0.04 0.09-0.09 0.15l-1.26 1.68-0.02 0.06v0.57h2.04Z" fill="#000000" fill-opacity="1.0" /><path d="M10.93 6.4c0 0.41-0.09 0.78-0.26 1.09-0.17 0.3-0.42 0.54-0.73 0.7-0.31 0.16-0.67 0.24-1.08 0.24-0.41 0-0.78-0.08-1.1-0.24-0.3-0.16-0.55-0.4-0.72-0.7-0.17-0.31-0.26-0.68-0.26-1.1 0-0.41 0.09-0.78 0.26-1.08C7.2 5 7.45 4.77 7.77 4.6c0.3-0.17 0.67-0.25 1.08-0.25 0.42 0 0.78 0.08 1.09 0.25 0.31 0.16 0.56 0.4 0.73 0.7 0.17 0.3 0.26 0.67 0.26 1.08Zm-1.3 0c0-0.33-0.06-0.59-0.2-0.8C9.3 5.4 9.12 5.3 8.87 5.3 8.6 5.3 8.4 5.4 8.28 5.6c-0.14 0.21-0.2 0.47-0.2 0.8 0 0.32 0.06 0.58 0.19 0.79 0.13 0.2 0.32 0.3 0.58 0.3 0.25 0 0.45-0.1 0.58-0.3 0.13-0.2 0.2-0.47 0.2-0.8Z" fill="#000000" fill-opacity="1.0" /><path d="M3.76 8.35L2.05 3.12h1.38l1.13 3.83 1.13-3.83h1.27L5.25 8.35H3.76Z" fill="#000000" fill-opacity="1.0" /><path d="M9.07 9.65h3.53v1h-2.23v1h2.07v1.04h-2.07v1.14h2.3v1.05h-3.6V9.65Z" fill="#000000" fill-opacity="1.0" /><path d="M7.43 14.88h-1.3v-4.2H4.7V9.64h4.14v1.02H7.43v4.21Z" fill="#000000" fill-opacity="1.0" /><path d="M2.22 9.65h1.3v4.17h2.03v1.06H2.22V9.65Z" fill="#000000" fill-opacity="1.0" /></svg>