<?xml version="1.0" encoding="utf-8" ?>
<svg baseProfile="full" height="12.0" version="1.1" viewBox="0 0 24.0 12.0" width="24.0" xmlns="http://www.w3.org/2000/svg" xmlns:ev="http://www.w3.org/2001/xml-events" xmlns:xlink="http://www.w3.org/1999/xlink"><defs /><path d="M17.6799,1.8H5.3199C4.5506,1.8 4.0218,1.8006 3.6117,1.8341C3.2109,1.8669 2.9945,1.927 2.8373,2.0071C2.4798,2.1892 2.1891,2.4799 2.007,2.8374C1.9269,2.9946 1.8668,3.211 1.834,3.6118C1.8005,4.0219 1.7999,4.5507 1.7999,5.32V7.0124C1.7999,7.7817 1.8005,8.3105 1.834,8.7206C1.8668,9.1213 1.9269,9.3378 2.007,9.495C2.1891,9.8525 2.4798,10.1431 2.8373,10.3253C2.9945,10.4054 3.2109,10.4655 3.6117,10.4982C4.0218,10.5318 4.5506,10.5324 5.3199,10.5324H17.6799C18.4492,10.5324 18.978,10.5318 19.3881,10.4982C19.7888,10.4655 20.0053,10.4054 20.1625,10.3253C20.52,10.1431 20.8106,9.8525 20.9928,9.495C21.0729,9.3378 21.133,9.1213 21.1658,8.7206C21.1993,8.3105 21.1999,7.7817 21.1999,7.0124V5.32C21.1999,4.5507 21.1993,4.0219 21.1658,3.6118C21.133,3.211 21.0729,2.9946 20.9928,2.8374C20.8106,2.4799 20.52,2.1892 20.1625,2.0071C20.0053,1.927 19.7888,1.8669 19.3881,1.8341C18.978,1.8006 18.4492,1.8 17.6799,1.8ZM1.2942,2.4742C0.9999,3.0518 0.9999,3.8079 0.9999,5.32V7.0124C0.9999,8.5245 0.9999,9.2806 1.2942,9.8581C1.553,10.3662 1.9661,10.7792 2.4741,11.0381C3.0517,11.3324 3.8077,11.3324 5.3199,11.3324H17.6799C19.192,11.3324 19.9481,11.3324 20.5257,11.0381C21.0337,10.7792 21.4467,10.3662 21.7056,9.8581C21.9999,9.2806 21.9999,8.5245 21.9999,7.0124V5.32C21.9999,3.8079 21.9999,3.0518 21.7056,2.4742C21.4467,1.9662 21.0337,1.5531 20.5257,1.2943C19.9481,1 19.192,1 17.6799,1H5.3199C3.8077,1 3.0517,1 2.4741,1.2943C1.9661,1.5531 1.553,1.9662 1.2942,2.4742Z" fill="#000000" fill-opacity="1.0" /><path d="M22.8313,4.2664C23.0522,4.2664 23.2313,4.4454 23.2313,4.6664V7.6664C23.2313,7.8873 23.0522,8.0664 22.8313,8.0664C22.6104,8.0664 22.4313,7.8873 22.4313,7.6664V4.6664C22.4313,4.4454 22.6104,4.2664 22.8313,4.2664Z" fill="#000000" fill-opacity="1.0" /></svg>