<?xml version="1.0" encoding="utf-8" ?>
<svg baseProfile="full" height="16.5" version="1.1" viewBox="0 0 24.0 24.0" width="16.5" xmlns="http://www.w3.org/2000/svg" xmlns:ev="http://www.w3.org/2001/xml-events" xmlns:xlink="http://www.w3.org/1999/xlink"><defs /><path d="M7,22 L7,17 L21.1464466,2.85355339 C21.3417088,2.65829124 21.6582912,2.65829124 21.8535534,2.85355339 C21.9473216,2.94732158 22,3.07449854 22,3.20710678 L22,21 C22,21.5522847 21.5522847,22 21,22 L7,22 Z M6,22 L3.20710678,22 C2.93096441,22 2.70710678,21.7761424 2.70710678,21.5 C2.70710678,21.3673918 2.7597852,21.2402148 2.85355339,21.1464466 L6,18 L6,22 Z" fill="#000000" fill-opacity="1.0" /><path d="M6,22 L3.20710678,22 C2.93096441,22 2.70710678,21.7761424 2.70710678,21.5 C2.70710678,21.3673918 2.7597852,21.2402148 2.85355339,21.1464466 L6,18 L6,22 Z" fill="#000000" fill-opacity="1.0" /><path d="M5.784,8.268 L4.716,8.268 L4.716,11.616 L3,11.616 L3,3 L6.108,3 C7.05200472,3 7.77599748,3.19599804 8.28,3.588 C8.56800144,3.81200112 8.79799914,4.0939983 8.97,4.434 C9.14200086,4.7740017 9.228,5.15599788 9.228,5.58 C9.228,6.17200296 9.0680016,6.6779979 8.748,7.098 C8.4279984,7.5180021 8.00000268,7.81599912 7.464,7.992 L9.744,11.616 L7.788,11.616 L5.784,8.268 Z M7.536,5.652 C7.536,5.42799888 7.48800048,5.22200094 7.392,5.034 C7.29599952,4.84599906 7.17200076,4.70000052 7.02,4.596 C6.86799924,4.49199948 6.70600086,4.41800022 6.534,4.374 C6.36199914,4.32999978 6.1560012,4.308 5.916,4.308 L4.716,4.308 L4.716,6.996 L5.904,6.996 C6.15200124,6.996 6.36199914,6.97400022 6.534,6.93 C6.70600086,6.88599978 6.86799924,6.81200052 7.02,6.708 C7.17200076,6.60399948 7.29599952,6.45800094 7.392,6.27 C7.48800048,6.08199906 7.536,5.87600112 7.536,5.652 Z" fill="#000000" fill-opacity="1.0" /></svg>