<?xml version="1.0" encoding="utf-8" ?>
<svg baseProfile="full" height="12.0" version="1.1" viewBox="0 0 17.0 12.0" width="17.0" xmlns="http://www.w3.org/2000/svg" xmlns:ev="http://www.w3.org/2001/xml-events" xmlns:xlink="http://www.w3.org/1999/xlink"><defs /><path d="M8.7,2.5012L8.7,2.5012A1,1 0,0 1,9.7 3.5012L9.7,4.5012A1,1 0,0 1,8.7 5.5012L8.7,5.5012A1,1 0,0 1,7.7 4.5012L7.7,3.5012A1,1 0,0 1,8.7 2.5012z" fill="#000000" fill-opacity="0.0" /><path d="M3.14,1.15H4.4046L5.078,3.7452L5.6969,1.15H6.8725L5.6031,5.88H4.558L3.14,1.15Z" fill="#000000" fill-opacity="1.0" /><path d="M3.13,6.95H4.0297L4.5587,9.2942L5.2127,6.95H5.8428L6.494,9.2942L7.0257,6.95H7.9254L6.8804,11.05H6.1801L5.5275,8.6329L4.8725,11.05H4.1749L3.13,6.95ZM8.1444,6.95H9.2444V8.0499H8.1444V6.95ZM9.811,6.95H12.2443V7.8491L10.911,7.849V8.5525L12.2443,8.5526V9.4508L10.911,9.4506V11.05H9.811V6.95ZM12.811,6.95H13.911V8.0499H12.811V6.95ZM8.1444,8.2833H9.2444V11.0499H8.1444V8.2833ZM12.811,8.2833H13.911V11.0499H12.811V8.2833Z" fill="#000000" fill-opacity="1.0" /></svg>