<?xml version="1.0" encoding="utf-8" ?>
<svg baseProfile="full" height="16.0" version="1.1" viewBox="0 0 22.0 16.0" width="22.0" xmlns="http://www.w3.org/2000/svg" xmlns:ev="http://www.w3.org/2001/xml-events" xmlns:xlink="http://www.w3.org/1999/xlink"><defs /><path d="M2.4 10.2c0-0.28 0-0.42 0.05-0.53 0.05-0.1 0.13-0.17 0.22-0.22C2.78 9.4 2.92 9.4 3.2 9.4h0.2c0.28 0 0.42 0 0.53 0.05 0.1 0.05 0.17 0.13 0.22 0.22C4.2 9.78 4.2 9.92 4.2 10.2v3c0 0.28 0 0.42-0.05 0.53-0.05 0.1-0.13 0.17-0.22 0.22C3.82 14 3.68 14 3.4 14H3.2c-0.28 0-0.42 0-0.53-0.05-0.1-0.05-0.17-0.13-0.22-0.22C2.4 13.62 2.4 13.48 2.4 13.2v-3Z" fill="#000000" fill-opacity="1.0" /><path d="M6 8.8c0-0.28 0-0.42 0.05-0.53 0.05-0.1 0.13-0.17 0.22-0.22C6.38 8 6.52 8 6.8 8H7c0.28 0 0.42 0 0.53 0.05 0.1 0.05 0.17 0.13 0.22 0.22C7.8 8.38 7.8 8.52 7.8 8.8v4.4c0 0.28 0 0.42-0.05 0.53-0.05 0.1-0.13 0.17-0.22 0.22C7.42 14 7.28 14 7 14H6.8c-0.28 0-0.42 0-0.53-0.05-0.1-0.05-0.17-0.13-0.22-0.22C6 13.62 6 13.48 6 13.2V8.8Z" fill="#000000" fill-opacity="0.2" /><path d="M9.6 5.8c0-0.28 0-0.42 0.05-0.53 0.05-0.1 0.13-0.17 0.22-0.22C9.98 5 10.12 5 10.4 5h0.2c0.28 0 0.42 0 0.53 0.05 0.1 0.05 0.17 0.13 0.22 0.22 0.05 0.11 0.05 0.25 0.05 0.53v7.4c0 0.28 0 0.42-0.05 0.53-0.05 0.1-0.13 0.17-0.22 0.22C11.02 14 10.88 14 10.6 14h-0.2c-0.28 0-0.42 0-0.53-0.05-0.1-0.05-0.17-0.13-0.22-0.22C9.6 13.62 9.6 13.48 9.6 13.2V5.8Z" fill="#000000" fill-opacity="0.2" /><path d="M13.25 2.27C13.2 2.38 13.2 2.52 13.2 2.8v4.31c0.51-0.44 1.13-0.77 1.8-0.95V2.8c0-0.28 0-0.42-0.05-0.53-0.05-0.1-0.13-0.17-0.22-0.22C14.62 2 14.48 2 14.2 2H14c-0.28 0-0.42 0-0.53 0.05-0.1 0.05-0.17 0.13-0.22 0.22Z" fill="#000000" fill-opacity="0.2" /><path d="M16.08 13c0-0.25-0.05-0.49-0.17-0.7-0.15-0.26-0.38-0.46-0.66-0.58-0.18-0.06-0.35-0.17-0.49-0.3-0.09-0.1-0.15-0.21-0.2-0.33l-0.1-0.17c-0.1-0.16-0.56-0.51-0.65-0.58L13.8 10.6c0 1.28 1 2.33 2.28 2.4Zm2.52-2.4c0 0.87-0.46 1.63-1.16 2.05 0.02-0.2 0.06-0.41 0.12-0.61 0.24-0.5-0.3-0.97-1.07-0.7-0.17 0.06-0.36 0.06-0.53 0.02-0.18-0.04-0.34-0.13-0.47-0.26-0.05-0.04-0.08-0.08-0.1-0.14-0.03-0.05-0.04-0.1-0.04-0.17v-0.22s-0.02-0.24 0.14-0.29c0.09-0.03 0.16-0.06 0.22-0.15 0.08-0.12 0.12-0.27 0.15-0.43 0.08-0.31 0.15-0.63 0.61-0.72 0.23-0.04 0.45-0.01 0.65 0.01 0.31 0.04 0.57 0.07 0.68-0.18 0.5 0.44 0.8 1.08 0.8 1.79Zm1 0c0 1.88-1.52 3.4-3.4 3.4s-3.4-1.52-3.4-3.4 1.52-3.4 3.4-3.4 3.4 1.52 3.4 3.4Z" fill="#000000" fill-opacity="1.0" /></svg>