<?xml version="1.0" encoding="utf-8" ?>
<svg baseProfile="full" height="36.0" version="1.1" viewBox="0 0 36.0 36.0" width="36.0" xmlns="http://www.w3.org/2000/svg" xmlns:ev="http://www.w3.org/2001/xml-events" xmlns:xlink="http://www.w3.org/1999/xlink"><defs /><path d="M18,20.952C16.475,20.952 15.11,21.635 14.193,22.711L12.997,21.056C14.267,19.758 16.04,18.952 18,18.952C19.96,18.952 21.733,19.758 23.003,21.056L21.807,22.711C20.89,21.635 19.525,20.952 18,20.952ZM25.638,17.413L24.449,19.057C22.83,17.35 20.539,16.285 18,16.285C15.461,16.285 13.17,17.35 11.551,19.057L10.362,17.414C12.327,15.479 15.024,14.285 18,14.285C20.976,14.285 23.673,15.479 25.638,17.413ZM28.272,13.772L27.086,15.412C24.77,13.07 21.554,11.619 18,11.619C14.446,11.619 11.231,13.07 8.914,15.412L7.728,13.772C10.387,11.201 14.009,9.619 18,9.619C21.991,9.619 25.613,11.201 28.272,13.772ZM18,26.812C18.994,26.812 19.8,26.006 19.8,25.012C19.8,24.018 18.994,23.212 18,23.212C17.006,23.212 16.2,24.018 16.2,25.012C16.2,26.006 17.006,26.812 18,26.812Z" fill="#000000" fill-opacity="0.2" /></svg>