<?xml version="1.0" encoding="utf-8" ?>
<svg baseProfile="full" height="32.0" version="1.1" viewBox="0 0 32.0 32.0" width="32.0" xmlns="http://www.w3.org/2000/svg" xmlns:ev="http://www.w3.org/2001/xml-events" xmlns:xlink="http://www.w3.org/1999/xlink"><defs /><path d="M18.375,8.798C18.612,8.702 18.846,8.618 19.076,8.543C21.115,7.884 22.491,8.14 23.175,8.825C23.86,9.509 24.116,10.884 23.456,12.924C22.817,14.901 21.393,17.198 19.295,19.295C19.14,19.451 18.983,19.604 18.825,19.752L20.235,21.162C20.567,21.005 20.876,20.785 21.142,20.512C21.885,19.749 22.58,18.932 23.203,18.065C23.316,18.35 23.415,18.631 23.498,18.906C24.115,20.938 23.842,22.361 23.101,23.101C22.951,23.252 22.772,23.384 22.565,23.492L24.133,25.06C24.307,24.932 24.473,24.789 24.631,24.631C26.211,23.052 26.277,20.612 25.568,18.277C25.328,17.486 24.99,16.673 24.564,15.856C24.941,15.126 25.262,14.37 25.514,13.589C26.259,11.285 26.262,8.853 24.704,7.295C23.147,5.738 20.715,5.741 18.411,6.486C17.681,6.722 16.931,7.041 16.175,7.436C15.388,7.029 14.569,6.689 13.723,6.432C11.388,5.723 8.949,5.789 7.369,7.369C7.211,7.527 7.068,7.693 6.94,7.867L8.508,9.435C8.616,9.228 8.748,9.049 8.899,8.899C9.639,8.158 11.062,7.885 13.094,8.502C15.077,9.104 17.365,10.491 19.437,12.564C19.908,13.035 20.344,13.517 20.743,14.005C20.88,14.172 21.143,14.148 21.237,13.954C21.789,12.808 21.44,11.469 20.519,10.59C19.847,9.948 19.13,9.344 18.375,8.798ZM8.198,11.67C8.247,12.105 8.346,12.58 8.502,13.094C8.579,13.347 8.668,13.606 8.771,13.868C8.994,13.56 9.233,13.256 9.489,12.961L11.069,14.542C9.897,16.066 8.984,17.713 8.543,19.076C7.884,21.115 8.14,22.491 8.825,23.175C9.509,23.86 10.884,24.116 12.924,23.456C13.153,23.382 13.387,23.297 13.625,23.202C12.87,22.655 12.153,22.052 11.481,21.41C10.561,20.531 10.211,19.192 10.763,18.046C10.857,17.852 11.12,17.829 11.257,17.995C11.656,18.483 12.092,18.965 12.564,19.437C14.635,21.508 16.923,22.896 18.906,23.498C19.42,23.654 19.895,23.753 20.33,23.802L22.376,25.849C21.111,26.139 19.675,25.993 18.277,25.568C17.431,25.311 16.612,24.971 15.825,24.564C15.069,24.959 14.319,25.278 13.589,25.514C11.285,26.259 8.853,26.262 7.295,24.704C5.738,23.147 5.741,20.715 6.486,18.411C6.703,17.74 7.01,16.947 7.421,16.115C7.002,15.308 6.67,14.505 6.432,13.723C6.007,12.325 5.861,10.889 6.151,9.624L8.198,11.67ZM12.291,13.218L11.177,12.104C11.56,12.138 11.94,12.294 12.256,12.56L12.641,12.886C12.527,12.993 12.41,13.104 12.291,13.218Z" fill="#666666" fill-opacity="1.0" /><path d="M26.2,26L6.2,6" fill="#000000" fill-opacity="0.0" /></svg>