<?xml version="1.0" encoding="utf-8" ?>
<svg baseProfile="full" height="32.0" version="1.1" viewBox="0 0 32.0 32.0" width="32.0" xmlns="http://www.w3.org/2000/svg" xmlns:ev="http://www.w3.org/2001/xml-events" xmlns:xlink="http://www.w3.org/1999/xlink"><defs /><path d="M24.28 6.88c0-0.2-0.09-0.39-0.24-0.52S23.7 6.16 23.5 6.2l-12 1.33c-0.36 0.04-0.62 0.34-0.62 0.7v11.63C10.34 19.48 9.7 19.26 9 19.26c-1.81 0-3.28 1.47-3.28 3.28 0 1.8 1.47 3.27 3.28 3.27 1.8 0 3.28-1.46 3.28-3.27V22.5 12.17L22.88 11v7.52c-0.54-0.37-1.18-0.59-1.88-0.59-1.81 0-3.28 1.47-3.28 3.28 0 1.8 1.47 3.27 3.28 3.27 1.8 0 3.28-1.46 3.28-3.27v-0.03-10.93-0.07-3.3Z" fill="#5c5c5c" fill-opacity="0.8" /></svg>