<?xml version="1.0" encoding="utf-8" ?>
<svg baseProfile="full" height="32.0" version="1.1" viewBox="0 0 32.0 32.0" width="32.0" xmlns="http://www.w3.org/2000/svg" xmlns:ev="http://www.w3.org/2001/xml-events" xmlns:xlink="http://www.w3.org/1999/xlink"><defs /><path d="M5.5 5.5c0.28-0.27 0.72-0.27 1 0l4.57 4.58V8.12c0-0.36 0.27-0.66 0.63-0.7l12-1.33c0.2-0.02 0.4 0.04 0.54 0.17 0.15 0.14 0.23 0.33 0.23 0.53v3.3 0.07 10.92 0.03c0 0.67-0.2 1.3-0.55 1.82l2.57 2.58c0.28 0.27 0.28 0.71 0 0.99-0.27 0.27-0.71 0.27-0.99 0l-0.11-0.12-0.03-0.03L5.48 6.47C5.23 6.19 5.24 5.77 5.5 5.5Zm5.57 8.54v5.71c-0.53-0.37-1.18-0.59-1.87-0.59-1.81 0-3.28 1.47-3.28 3.28 0 1.8 1.47 3.28 3.28 3.28 1.8 0 3.27-1.47 3.27-3.28v-0.02-6.98l-1.4-1.4Zm6.86 6.86v0.2c0 1.82 1.46 3.28 3.27 3.28h0.2l-3.47-3.48Zm1.44-2.51l-6.36-6.37 10.06-1.12v7.52c-0.53-0.37-1.18-0.59-1.87-0.59-0.68 0-1.3 0.2-1.83 0.56Z" fill="#5c5c5c" fill-opacity="0.8" /></svg>