<?xml version="1.0" encoding="utf-8" ?>
<svg baseProfile="full" height="48.0" version="1.1" viewBox="0 0 48.0 48.0" width="48.0" xmlns="http://www.w3.org/2000/svg" xmlns:ev="http://www.w3.org/2001/xml-events" xmlns:xlink="http://www.w3.org/1999/xlink"><defs /><path d="M10 11c2.2 0 4 1.8 4 4s-1.8 4-4 4-4-1.8-4-4 1.8-4 4-4Z" fill="#ffffff" fill-opacity="1.0" /><path d="M24 37c2.21 0 4-1.8 4-4s-1.79-4-4-4c-2.2 0-4 1.8-4 4s1.8 4 4 4Z" fill="#ffffff" fill-opacity="1.0" /><path d="M38 11c2.2 0 4 1.8 4 4s-1.8 4-4 4-4-1.8-4-4 1.8-4 4-4Z" fill="#ffffff" fill-opacity="1.0" /><path d="M10 2.6c0.77 0 1.4 0.63 1.4 1.4v3.12C10.95 7.04 10.48 7 10 7 9.52 7 9.06 7.04 8.6 7.12V4c0-0.77 0.63-1.4 1.4-1.4ZM8.57 22.87V44c0 0.77 0.62 1.4 1.4 1.4 0.77 0 1.4-0.63 1.4-1.4V22.88C10.92 22.96 10.47 23 10 23c-0.49 0-0.97-0.04-1.43-0.13ZM24 25c0.47 0 0.92 0.04 1.37 0.12V4c0-0.77-0.63-1.4-1.4-1.4-0.78 0-1.4 0.63-1.4 1.4v21.13C23.03 25.05 23.5 25 24 25Zm0 16c-0.49 0-0.97-0.05-1.43-0.13V44c0 0.77 0.62 1.4 1.4 1.4 0.77 0 1.4-0.63 1.4-1.4v-3.12C24.92 40.96 24.47 41 24 41ZM39.4 7.12C38.95 7.04 38.48 7 38 7c-0.48 0-0.94 0.04-1.4 0.12V4c0-0.77 0.63-1.4 1.4-1.4 0.77 0 1.4 0.63 1.4 1.4v3.12Zm-0.03 15.76V44c0 0.77-0.62 1.4-1.4 1.4-0.77 0-1.4-0.63-1.4-1.4V22.87C37.04 22.96 37.51 23 38 23c0.47 0 0.93-0.04 1.37-0.12Z" fill="#ffffff" fill-opacity="1.0" /></svg>