<?xml version="1.0" encoding="utf-8" ?>
<svg baseProfile="full" height="32.0" version="1.1" viewBox="0 0 32.0 32.0" width="32.0" xmlns="http://www.w3.org/2000/svg" xmlns:ev="http://www.w3.org/2001/xml-events" xmlns:xlink="http://www.w3.org/1999/xlink"><defs /><path d="M11.4 5.93c0.27 0.17 0.26 0.59-0.02 0.8L6.9 10.25c-0.28 0.22-0.68 0.12-0.78-0.2C5.8 8.95 6.07 7.56 7.54 6.4s2.87-1.07 3.85-0.47ZM16 6.8c-5.08 0-9.2 4.12-9.2 9.2 0 2.8 1.24 5.3 3.2 6.98l-0.94 2.14c-0.3 0.62 0.61 1.2 1.1 0.68l1.62-1.62c1.26 0.65 2.7 1.02 4.22 1.02 1.52 0 2.96-0.37 4.22-1.02l1.63 1.62c0.48 0.51 1.39-0.06 1.1-0.68l-0.96-2.14C23.96 21.3 25.2 18.8 25.2 16c0-5.08-4.12-9.2-9.2-9.2Zm4.61-0.07c-0.28-0.21-0.28-0.63 0-0.8 0.98-0.6 2.38-0.68 3.85 0.47 1.46 1.15 1.74 2.54 1.41 3.66-0.09 0.31-0.5 0.4-0.77 0.19l-4.49-3.52Zm-5.06 4.84c0.01-0.32 0.28-0.57 0.6-0.57 0.32 0 0.58 0.25 0.6 0.57L16.99 16c0 0.15-0.06 0.3-0.18 0.4l-2.58 2.23c-0.24 0.21-0.6 0.2-0.82-0.02-0.23-0.23-0.24-0.6-0.03-0.84l1.95-2.2 0.22-4Z" fill="#5c5c5c" fill-opacity="0.8" /></svg>