<?xml version="1.0" encoding="utf-8" ?>
<svg baseProfile="full" height="32.0" version="1.1" viewBox="0 0 32.0 32.0" width="32.0" xmlns="http://www.w3.org/2000/svg" xmlns:ev="http://www.w3.org/2001/xml-events" xmlns:xlink="http://www.w3.org/1999/xlink"><defs /><path d="M6.25 5.5c-0.28-0.27-0.72-0.27-1 0-0.27 0.28-0.27 0.72 0 1l20 20c0.28 0.27 0.72 0.27 1 0 0.27-0.28 0.27-0.72 0-1l-5.55-5.54V7c0-0.28-0.17-0.54-0.43-0.65C20 6.25 19.7 6.31 19.5 6.51l-4.62 4.62c-0.12 0.1-0.27 0.17-0.43 0.17h-2.42l-5.8-5.8Zm3.05 7.8c0-0.23 0.04-0.46 0.11-0.67l11.3 11.29V25c0 0.28-0.18 0.54-0.44 0.65-0.26 0.1-0.56 0.05-0.76-0.15l-4.62-4.62c-0.12-0.12-0.27-0.18-0.43-0.18H11.3c-1.1 0-2-0.9-2-2v-5.4Z" fill="#5c5c5c" fill-opacity="0.8" /></svg>