<?xml version="1.0" encoding="utf-8" ?>
<svg baseProfile="full" height="32.0" version="1.1" viewBox="0 0 32.0 32.0" width="32.0" xmlns="http://www.w3.org/2000/svg" xmlns:ev="http://www.w3.org/2001/xml-events" xmlns:xlink="http://www.w3.org/1999/xlink"><defs /><path d="M5.3 16c0-5.9 4.8-10.7 10.7-10.7 5.91 0 10.7 4.8 10.7 10.7 0 5.03-3.47 9.25-8.15 10.4V22.7v-0.05-1.82l0.26-4.97c1.35-0.14 2.7-0.38 4.01-0.74 0.38-0.1 0.6-0.49 0.5-0.86-0.1-0.38-0.5-0.6-0.87-0.5-4.12 1.13-8.5 1.13-12.63 0-0.37-0.1-0.75 0.12-0.86 0.5-0.1 0.37 0.12 0.76 0.5 0.86 1.31 0.36 2.66 0.6 4.01 0.74l0.26 4.93v5.66C8.91 25.42 5.3 21.13 5.3 16Zm9.83 10.67L16 26.7c0.39 0 0.77-0.02 1.15-0.06v-0.05-4.71c-0.22-0.06-0.55-0.11-1.01-0.11-0.46 0-0.79 0.05-1 0.1v4.72l-0.01 0.08ZM14.89 11.5c0 0.7 0.56 1.25 1.25 1.25s1.25-0.56 1.25-1.25-0.56-1.25-1.25-1.25c-0.7 0-1.25 0.56-1.25 1.25Z" fill="#5c5c5c" fill-opacity="0.8" /></svg>