<?xml version="1.0" encoding="utf-8" ?>
<svg baseProfile="full" height="32.0" version="1.1" viewBox="0 0 32.0 32.0" width="32.0" xmlns="http://www.w3.org/2000/svg" xmlns:ev="http://www.w3.org/2001/xml-events" xmlns:xlink="http://www.w3.org/1999/xlink"><defs /><path d="M25.46 9.87c0-1.92-1.56-3.48-3.49-3.48-0.38 0-0.7-0.32-0.7-0.7 0-0.39 0.32-0.7 0.7-0.7 2.7 0 4.9 2.18 4.9 4.88 0 0.39-0.32 0.7-0.7 0.7-0.4 0-0.7-0.31-0.7-0.7ZM10.88 7.64c-1.93 0-3.49 1.56-3.49 3.48 0 0.39-0.31 0.7-0.7 0.7-0.38 0-0.7-0.31-0.7-0.7 0-2.7 2.2-4.88 4.9-4.88 0.38 0 0.7 0.31 0.7 0.7 0 0.38-0.32 0.7-0.7 0.7Zm11.9 2.23c0-0.44-0.36-0.8-0.8-0.8-0.4 0-0.7-0.31-0.7-0.7 0-0.38 0.3-0.7 0.7-0.7 1.21 0 2.2 0.99 2.2 2.2 0 0.39-0.32 0.7-0.7 0.7-0.4 0-0.7-0.31-0.7-0.7Zm-11.9 0.45c-0.44 0-0.8 0.36-0.8 0.8 0 0.39-0.31 0.7-0.7 0.7-0.39 0-0.7-0.31-0.7-0.7 0-1.21 0.99-2.2 2.2-2.2 0.39 0 0.7 0.32 0.7 0.7 0 0.39-0.31 0.7-0.7 0.7Zm11.1-0.66c0.15 0.13 0.24 0.32 0.24 0.52v3.3 0.08V22v0.09 0.18c0 1.66-1.35 3-3 3-1.66 0-3-1.34-3-3 0-1.65 1.34-3 3-3 0.59 0 1.13 0.17 1.6 0.46v-5.42l-8.6 1.15v8.12 0.02 0.03 0.03c-0.03 1.63-1.37 2.94-3 2.94-1.66 0-3-1.34-3-3 0-1.65 1.34-3 3-3 0.59 0 1.13 0.18 1.6 0.47V11.5c0-0.35 0.26-0.64 0.6-0.69l10-1.33c0.2-0.03 0.4 0.03 0.56 0.17Z" fill="#5c5c5c" fill-opacity="0.8" /></svg>