<?xml version="1.0" encoding="utf-8" ?>
<svg baseProfile="full" height="32.0" version="1.1" viewBox="0 0 32.0 32.0" width="32.0" xmlns="http://www.w3.org/2000/svg" xmlns:ev="http://www.w3.org/2001/xml-events" xmlns:xlink="http://www.w3.org/1999/xlink"><defs /><path d="M6.5 6.12c-0.28-0.27-0.72-0.27-1 0-0.27 0.28-0.27 0.72 0 1l20 20c0.28 0.27 0.72 0.27 1 0 0.27-0.28 0.27-0.72 0-1l-3.28-3.27h1.17c0.4 0 0.7-0.31 0.7-0.7 0-0.23-0.03-0.44-0.09-0.63-0.16-0.57-0.54-0.99-0.91-1.4l-0.04-0.03v-0.01c-0.78-0.85-1.76-1.91-1.76-4.93v-1.48c0-3.34-1.58-5.4-4.44-6.01-0.33-0.08-0.67-0.13-1.04-0.16 0.05-0.11 0.08-0.23 0.08-0.36 0-0.37-0.23-0.7-0.55-0.83-0.1-0.05-0.23-0.07-0.35-0.07-0.12 0-0.24 0.03-0.35 0.07-0.32 0.14-0.55 0.46-0.55 0.83 0 0.13 0.03 0.25 0.08 0.36-0.37 0.03-0.7 0.09-1.04 0.16-0.3 0.07-0.89 0.26-0.89 0.26-1.2 0.43-2.12 1.18-2.72 2.23L6.49 6.12Z" fill="#5c5c5c" fill-opacity="0.8" /><path d="M9.72 13.16L9.7 13.6v1.55c0 3.03-0.97 4.09-1.76 4.94L7.92 20.1c-0.5 0.55-1.02 1.12-1.02 2.04 0 0.39 0.31 0.7 0.7 0.7h11.8l-9.68-9.69Z" fill="#5c5c5c" fill-opacity="0.8" /><path d="M13.25 23.85c0.14 0.37 0.36 0.72 0.66 1 0.55 0.57 1.3 0.88 2.08 0.88 0.8 0 1.53-0.31 2.08-0.87 0.3-0.3 0.51-0.64 0.66-1.01h-5.48Z" fill="#5c5c5c" fill-opacity="0.8" /></svg>