<?xml version="1.0" encoding="utf-8" ?>
<svg baseProfile="full" height="48.0" version="1.1" viewBox="0 0 48.0 48.0" width="48.0" xmlns="http://www.w3.org/2000/svg" xmlns:ev="http://www.w3.org/2001/xml-events" xmlns:xlink="http://www.w3.org/1999/xlink"><defs /><path d="M28.13 6c0-0.57-0.34-1.08-0.87-1.3-0.52-0.21-1.12-0.1-1.52 0.31l-9.24 9.24c-0.23 0.22-0.53 0.35-0.85 0.35H9.33c-2.21 0-4 1.79-4 4v10.8c0 2.2 1.79 4 4 4h6.32c0.32 0 0.62 0.13 0.85 0.35L25.74 43c0.4 0.4 1 0.52 1.52 0.3 0.52-0.21 0.87-0.72 0.87-1.29V6Zm3.93 11.06c0.64-0.43 1.51-0.25 1.94 0.4 1.24 1.87 1.96 4.12 1.96 6.54 0 2.41-0.72 4.66-1.96 6.54-0.43 0.65-1.3 0.83-1.94 0.4-0.65-0.42-0.83-1.3-0.4-1.94 0.95-1.43 1.5-3.15 1.5-5s-0.55-3.57-1.5-5c-0.43-0.65-0.25-1.52 0.4-1.94ZM39 12.92c-0.46-0.63-1.33-0.76-1.95-0.3-0.62 0.47-0.75 1.34-0.3 1.96 1.96 2.64 3.11 5.9 3.11 9.42 0 3.53-1.15 6.79-3.1 9.42-0.46 0.62-0.33 1.5 0.29 1.96 0.62 0.46 1.5 0.33 1.95-0.3 2.3-3.09 3.66-6.93 3.66-11.08s-1.36-7.99-3.66-11.08Z" fill="#ffffff" fill-opacity="1.0" /></svg>