<?xml version="1.0" encoding="utf-8" ?>
<svg baseProfile="full" height="32.0" version="1.1" viewBox="0 0 32.0 32.0" width="32.0" xmlns="http://www.w3.org/2000/svg" xmlns:ev="http://www.w3.org/2001/xml-events" xmlns:xlink="http://www.w3.org/1999/xlink"><defs /><path d="M21.67 15.7c-0.06 0-0.13-0.02-0.2-0.04-0.16-0.08-0.26-0.24-0.26-0.42v-3.47l-1.9 1.89c-0.09 0.09-0.23 0.09-0.32 0l-0.33-0.33c-0.1-0.09-0.1-0.23 0-0.32l2.36-2.37-2.38-2.38c-0.1-0.09-0.1-0.24 0-0.33l0.33-0.32c0.09-0.1 0.23-0.1 0.32 0l1.94 1.94V6.03c0-0.19 0.11-0.35 0.28-0.43 0.16-0.07 0.35-0.04 0.5 0.08l2.45 2.13c0.1 0.09 0.16 0.2 0.16 0.34 0 0.12-0.04 0.25-0.13 0.34l-2.16 2.15 2.13 2.13c0.09 0.1 0.14 0.22 0.13 0.35 0 0.12-0.06 0.25-0.15 0.33l-2.47 2.14c-0.08 0.07-0.19 0.1-0.3 0.1Zm0.46-3.94v2.46l1.32-1.14-1.32-1.32Zm0.03-4.72V9.5l1.32-1.31-1.32-1.15Z" fill="#5c5c5c" fill-opacity="0.8" /><path d="M9.8 5.95c-0.23-0.03-0.46 0-0.72 0.08C8.82 6.1 8.5 6.2 8.1 6.36H8.1L7.8 6.47 7.75 6.49c-0.56 0.2-0.9 0.33-1.18 0.6-0.22 0.2-0.42 0.55-0.5 0.85-0.1 0.37-0.04 0.68 0.04 1.18v0.04c0.61 3.63 2.67 7.48 5.93 10.74 3.26 3.25 7.1 5.32 10.74 5.92h0.04c0.5 0.09 0.8 0.14 1.18 0.05 0.3-0.08 0.64-0.28 0.86-0.5 0.26-0.28 0.39-0.63 0.59-1.18l0.02-0.05 0.1-0.3 0.01-0.01c0.15-0.4 0.26-0.71 0.33-0.97 0.07-0.27 0.1-0.5 0.08-0.73-0.04-0.37-0.2-0.73-0.46-1-0.16-0.18-0.36-0.3-0.6-0.42l-0.95-0.38h-0.01l-3.36-1.27c-0.65-0.25-1.38-0.09-1.87 0.4-0.66 0.67-1.7 0.8-2.44 0.26-0.73-0.52-1.4-1.1-2.18-1.86-0.77-0.77-1.34-1.45-1.87-2.19-0.54-0.74-0.42-1.78 0.24-2.46 0.48-0.5 0.64-1.23 0.4-1.88L11.6 7.97c-0.15-0.4-0.27-0.72-0.38-0.96-0.12-0.25-0.25-0.44-0.42-0.6-0.28-0.26-0.63-0.42-1-0.46Z" fill="#5c5c5c" fill-opacity="0.8" /></svg>