<?xml version="1.0" encoding="utf-8" ?>
<svg baseProfile="full" height="32.0" version="1.1" viewBox="0 0 32.0 32.0" width="32.0" xmlns="http://www.w3.org/2000/svg" xmlns:ev="http://www.w3.org/2001/xml-events" xmlns:xlink="http://www.w3.org/1999/xlink"><defs /><path d="M13.25 24h5.5c-0.14 0.39-0.37 0.73-0.67 1.03-0.55 0.56-1.29 0.87-2.08 0.87s-1.53-0.31-2.09-0.88c-0.3-0.3-0.52-0.64-0.66-1.01Zm10.8-4.06c-0.78-0.85-1.75-1.9-1.75-4.93v-1.46c0-3.74-1.95-5.9-5.48-6.19 0.05-0.1 0.08-0.23 0.08-0.35 0-0.5-0.4-0.9-0.9-0.9S15.1 6.5 15.1 7c0 0.12 0.03 0.24 0.08 0.35-3.53 0.3-5.48 2.45-5.48 6.19v1.46c0 3.03-0.97 4.08-1.76 4.93-0.5 0.56-1.04 1.14-1.04 2.07 0 0.38 0.31 0.7 0.7 0.7h16.8c0.39 0 0.7-0.32 0.7-0.7 0-0.93-0.53-1.5-1.04-2.07Z" fill="#5c5c5c" fill-opacity="0.8" /></svg>