<?xml version="1.0" encoding="utf-8" ?>
<svg baseProfile="full" height="32.0" version="1.1" viewBox="0 0 32.0 32.0" width="32.0" xmlns="http://www.w3.org/2000/svg" xmlns:ev="http://www.w3.org/2001/xml-events" xmlns:xlink="http://www.w3.org/1999/xlink"><defs /><path d="M19.076,8.543C18.846,8.618 18.612,8.702 18.375,8.798C19.13,9.344 19.847,9.948 20.519,10.59C21.44,11.469 21.789,12.808 21.237,13.954C21.143,14.148 20.88,14.172 20.743,14.005C20.344,13.517 19.908,13.035 19.437,12.564C17.365,10.491 15.077,9.104 13.094,8.502C11.062,7.885 9.639,8.158 8.899,8.899C8.158,9.639 7.885,11.062 8.502,13.094C8.579,13.347 8.668,13.606 8.771,13.868C9.388,13.017 10.126,12.2 11,11.5C12.115,10.608 13.314,10.499 14.087,10.665C14.437,10.741 14.551,11.071 14.302,11.329C14.081,11.559 13.76,11.854 13.375,12.207C12.839,12.699 12.18,13.304 11.5,14C10.123,15.668 9.037,17.549 8.543,19.076C7.884,21.115 8.14,22.491 8.825,23.175C9.509,23.86 10.884,24.116 12.924,23.456C13.153,23.382 13.387,23.297 13.625,23.202C12.87,22.655 12.153,22.052 11.481,21.41C10.561,20.531 10.211,19.192 10.763,18.046C10.857,17.852 11.12,17.829 11.257,17.995C11.656,18.483 12.092,18.965 12.564,19.437C14.635,21.508 16.923,22.896 18.906,23.498C20.938,24.115 22.361,23.842 23.101,23.101C23.842,22.361 24.115,20.938 23.498,18.906C23.415,18.631 23.316,18.35 23.203,18.065C22.58,18.932 21.885,19.749 21.142,20.512C20.262,21.416 18.924,21.73 17.801,21.155C17.621,21.063 17.601,20.816 17.758,20.688C18.277,20.264 18.792,19.799 19.295,19.295C21.393,17.198 22.817,14.901 23.456,12.924C24.116,10.884 23.86,9.509 23.175,8.825C22.491,8.14 21.115,7.884 19.076,8.543ZM15.825,24.564C16.612,24.971 17.431,25.311 18.277,25.568C20.612,26.277 23.052,26.211 24.631,24.631C26.211,23.052 26.277,20.612 25.568,18.277C25.328,17.486 24.99,16.673 24.564,15.856C24.941,15.126 25.262,14.37 25.514,13.589C26.259,11.285 26.262,8.853 24.704,7.295C23.147,5.738 20.715,5.741 18.411,6.486C17.681,6.722 16.931,7.041 16.175,7.436C15.388,7.029 14.569,6.689 13.723,6.432C11.388,5.723 8.949,5.789 7.369,7.369C5.789,8.949 5.723,11.388 6.432,13.723C6.67,14.505 7.002,15.308 7.421,16.115C7.01,16.947 6.703,17.74 6.486,18.411C5.741,20.715 5.738,23.147 7.295,24.704C8.853,26.262 11.285,26.259 13.589,25.514C14.319,25.278 15.069,24.959 15.825,24.564Z" fill="#000000" fill-opacity="1.0" /></svg>