<?xml version="1.0" encoding="utf-8" ?>
<svg baseProfile="full" height="32.0" version="1.1" viewBox="0 0 32.0 32.0" width="32.0" xmlns="http://www.w3.org/2000/svg" xmlns:ev="http://www.w3.org/2001/xml-events" xmlns:xlink="http://www.w3.org/1999/xlink"><defs /><path d="M16.63 5.23c-0.3-0.25-0.71-0.3-1.06-0.13C15.22 5.26 15 5.6 15 6v7.58L11.2 9.8l-0.7-0.7-1.42 1.41 0.7 0.7 4.76 4.76-4.75 4.68-0.7 0.7 1.4 1.42 0.7-0.7 3.8-3.74V26c0 0.39 0.23 0.74 0.58 0.9 0.35 0.17 0.76 0.12 1.06-0.13l5.5-4.5c0.22-0.17 0.35-0.44 0.37-0.72 0.01-0.28-0.1-0.56-0.3-0.76l-4.82-4.82 4.82-4.76c0.2-0.2 0.31-0.47 0.3-0.76-0.01-0.28-0.15-0.54-0.37-0.72l-5.5-4.5ZM17 23.89v-5.48L20 21.43 17 23.89Zm0-15.78v5.43l3-2.97-3-2.46Z" fill="#5c5c5c" fill-opacity="0.8" /></svg>