<?xml version="1.0" encoding="utf-8" ?>
<svg baseProfile="full" height="32.0" version="1.1" viewBox="0 0 32.0 32.0" width="32.0" xmlns="http://www.w3.org/2000/svg" xmlns:ev="http://www.w3.org/2001/xml-events" xmlns:xlink="http://www.w3.org/1999/xlink"><defs /><path d="M25.46 9.87c0-1.92-1.56-3.49-3.49-3.49-0.38 0-0.7-0.3-0.7-0.7 0-0.38 0.32-0.7 0.7-0.7 2.7 0 4.9 2.2 4.9 4.9 0 0.38-0.32 0.7-0.7 0.7-0.4 0-0.7-0.32-0.7-0.7ZM9.26 8.03c0.49-0.25 1.04-0.4 1.62-0.4 0.39 0 0.7-0.3 0.7-0.7 0-0.38-0.31-0.7-0.7-0.7-0.97 0-1.87 0.29-2.64 0.78L6.5 5.26c-0.28-0.28-0.72-0.28-1 0-0.27 0.27-0.27 0.71 0 0.99l20 20c0.28 0.27 0.72 0.27 1 0 0.27-0.28 0.27-0.72 0-1l-4.28-4.27v-7.42-0.08-3.3c0-0.2-0.1-0.4-0.24-0.53-0.15-0.13-0.36-0.19-0.56-0.16l-9.44 1.25-0.61-0.61c0.13-0.13 0.21-0.31 0.21-0.5 0-0.4-0.31-0.7-0.7-0.7-0.22 0-0.43 0.02-0.63 0.08L9.27 8.03Zm6.92 6.9l4.64 4.65v-5.26l-4.64 0.62ZM6.4 9.14l1.1 1.1c-0.08 0.28-0.12 0.58-0.12 0.9 0 0.38-0.31 0.7-0.7 0.7-0.38 0-0.7-0.32-0.7-0.7 0-0.72 0.15-1.39 0.42-2Zm4.4 4.4l1.87 1.87-0.46 0.06v8.12 0.03 0.03 0.03c-0.04 1.63-1.37 2.94-3 2.94-1.66 0-3-1.34-3-3 0-1.65 1.34-3 3-3 0.59 0 1.13 0.17 1.6 0.47v-7.55ZM17.28 20c-0.64 0.55-1.05 1.37-1.05 2.29 0 1.66 1.34 3 3 3 0.91 0 1.73-0.41 2.28-1.06L17.27 20Zm5.5-10.12c0-0.44-0.35-0.8-0.8-0.8-0.38 0-0.7-0.31-0.7-0.7 0-0.38 0.32-0.7 0.7-0.7 1.22 0 2.2 0.99 2.2 2.2 0 0.39-0.3 0.7-0.7 0.7-0.38 0-0.7-0.31-0.7-0.7Z" fill="#5c5c5c" fill-opacity="0.8" /></svg>