<?xml version="1.0" encoding="utf-8" ?>
<svg baseProfile="full" height="32.0" version="1.1" viewBox="0 0 32.0 32.0" width="32.0" xmlns="http://www.w3.org/2000/svg" xmlns:ev="http://www.w3.org/2001/xml-events" xmlns:xlink="http://www.w3.org/1999/xlink"><defs /><path d="M5.84 4.82c-0.11 0.04-0.2 0.14-0.4 0.34l-0.3 0.28c-0.2 0.2-0.3 0.3-0.33 0.4-0.04 0.11-0.04 0.22 0 0.32C4.83 6.2 4.86 6.26 4.9 6.3l0.03 0.04 20 20 0.08 0.1 0.27 0.26 0.14 0.14c0.2 0.2 0.3 0.3 0.41 0.34 0.1 0.03 0.21 0.03 0.31 0 0.12-0.04 0.22-0.14 0.41-0.34l0.29-0.28c0.2-0.2 0.3-0.3 0.33-0.41 0.03-0.1 0.03-0.21 0-0.31-0.04-0.11-0.13-0.21-0.33-0.41L26.7 25.3l-4.45-4.45-0.05-0.06-4.83-4.82 4.82-4.76c0.2-0.2 0.31-0.47 0.3-0.76-0.01-0.28-0.15-0.54-0.37-0.72l-5.5-4.5c-0.3-0.25-0.71-0.3-1.06-0.13C15.22 5.26 15 5.6 15 6v7.59l-8.3-8.3-0.14-0.13c-0.2-0.2-0.3-0.3-0.4-0.34-0.1-0.03-0.22-0.03-0.32 0Zm14.5 18.91l-1.41-1.42L17 23.9v-3.51l-2-2V26c0 0.39 0.22 0.74 0.57 0.9 0.35 0.17 0.76 0.12 1.06-0.13l3.72-3.04Zm-5.38-5.38l-1.4-1.42-3.77 3.7-0.14 0.15c-0.2 0.2-0.3 0.3-0.34 0.4-0.03 0.1-0.03 0.22 0 0.32 0.04 0.11 0.14 0.21 0.33 0.41l0.28 0.29c0.2 0.2 0.3 0.3 0.41 0.33 0.1 0.04 0.21 0.04 0.31 0 0.12-0.03 0.22-0.13 0.42-0.33l0.14-0.14 3.76-3.71ZM17 8.1v5.43l3-2.97-3-2.46Z" fill="#5c5c5c" fill-opacity="0.8" /></svg>