<?xml version="1.0" encoding="utf-8" ?>
<svg baseProfile="full" height="24.0" version="1.1" viewBox="0 0 24.0 24.0" width="24.0" xmlns="http://www.w3.org/2000/svg" xmlns:ev="http://www.w3.org/2001/xml-events" xmlns:xlink="http://www.w3.org/1999/xlink"><defs /><path d="M2.5 1c-0.28-0.27-0.72-0.27-1 0-0.27 0.28-0.27 0.72 0 1l20 20c0.28 0.27 0.72 0.27 1 0 0.27-0.28 0.27-0.72 0-1l-1.6-1.59c0.18-0.14 0.34-0.33 0.45-0.54 0.19-0.37 0.19-0.85 0.19-1.82V6.95c0-0.97 0-1.45-0.2-1.82-0.16-0.31-0.4-0.56-0.72-0.73-0.37-0.19-0.85-0.19-1.82-0.19H5.7l-3.2-3.2Zm11.28 11.3l1.5 1.5h2.22c0.28 0 0.5-0.23 0.5-0.5v-0.5c0-0.28-0.22-0.5-0.5-0.5h-3.72Z" fill="#5c5c5c" fill-opacity="0.8" /><path d="M2.65 5.13l0.06-0.1 7.26 7.26H6.5c-0.28 0-0.5 0.23-0.5 0.5v0.5c0 0.28 0.22 0.5 0.5 0.5h4.97l1.83 1.84H8.5c-0.28 0-0.5 0.22-0.5 0.5v0.5c0 0.27 0.22 0.5 0.5 0.5h6.3l2.66 2.66H5.2c-0.97 0-1.45 0-1.82-0.2-0.31-0.15-0.56-0.4-0.73-0.72-0.19-0.37-0.19-0.85-0.19-1.82V6.95c0-0.97 0-1.45 0.2-1.82Z" fill="#5c5c5c" fill-opacity="0.8" /></svg>