<?xml version="1.0" encoding="utf-8" ?>
<svg baseProfile="full" height="24.0" version="1.1" viewBox="0 0 24.0 24.0" width="24.0" xmlns="http://www.w3.org/2000/svg" xmlns:ev="http://www.w3.org/2001/xml-events" xmlns:xlink="http://www.w3.org/1999/xlink"><defs /><path d="M13,8h-2v5.41l3.79,3.8 1.42,-1.42 -3.21,-3.2zM12,4c-4.97,0 -9,4.03 -9,9s4.03,9 9,9 9,-4.03 9,-9 -4.03,-9 -9,-9zM12,20c-3.86,0 -7,-3.14 -7,-7s3.14,-7 7,-7 7,3.14 7,7 -3.14,7 -7,7zM16.056,3.346l1.282,-1.535 4.607,3.85 -1.28,1.54zM2.056,5.654L6.663,1.81l1.28,1.536L3.338,7.19z" fill="#ffffff" fill-opacity="1.0" /></svg>