<?xml version="1.0" encoding="utf-8" ?>
<svg baseProfile="full" height="32.0" version="1.1" viewBox="0 0 32.0 32.0" width="32.0" xmlns="http://www.w3.org/2000/svg" xmlns:ev="http://www.w3.org/2001/xml-events" xmlns:xlink="http://www.w3.org/1999/xlink"><defs /><path d="M25.13 24.64c0.16-0.03 0.32-0.08 0.48-0.16 0.37-0.2 0.68-0.5 0.87-0.87 0.13-0.26 0.18-0.52 0.2-0.78 0.02-0.25 0.02-0.54 0.02-0.88v-11.9c0-0.34 0-0.64-0.02-0.88-0.02-0.26-0.07-0.52-0.2-0.78-0.2-0.38-0.5-0.68-0.87-0.87-0.26-0.13-0.52-0.18-0.78-0.2-0.25-0.02-0.54-0.02-0.89-0.02H8.05 7.8l-1.8-1.8c-0.27-0.27-0.71-0.27-0.98 0-0.28 0.28-0.28 0.72 0 1l20 20c0.27 0.27 0.71 0.27 0.98 0 0.28-0.28 0.28-0.72 0-1l-0.86-0.86Zm-1.34-1.34h0.13c0.37 0 0.61 0 0.8-0.02 0.17-0.01 0.23-0.03 0.25-0.05 0.11-0.05 0.2-0.15 0.26-0.26 0.01-0.02 0.04-0.08 0.05-0.25 0.02-0.19 0.02-0.43 0.02-0.8V10.08c0-0.38 0-0.62-0.02-0.8-0.01-0.17-0.04-0.23-0.05-0.25-0.05-0.12-0.15-0.2-0.26-0.27-0.02 0-0.08-0.03-0.26-0.05l-0.8-0.01H9.2l1.4 1.4H23.6c0.17 0 0.3 0.13 0.3 0.3v11.2c0 0.17-0.13 0.3-0.3 0.3H22.4l1.4 1.4Z" fill="#5c5c5c" fill-opacity="0.8" /><path d="M5.32 9.17c0-0.11 0.02-0.22 0.04-0.34l1.34 1.34V15H5.3v-4.95c0-0.34 0-0.64 0.02-0.88Z" fill="#5c5c5c" fill-opacity="0.8" /><path d="M19.83 23.3h-4.84v1.4h6.24l-1.4-1.4Z" fill="#5c5c5c" fill-opacity="0.8" /><path d="M8.1 15.25v-3.68L18.43 21.9h-3.69c-0.39-1.6-1.2-3.06-2.4-4.25-1.19-1.19-2.65-2.02-4.24-2.4Z" fill="#5c5c5c" fill-opacity="0.8" /><path d="M6 16.39h0.01c2 0.01 3.9 0.8 5.35 2.25 1.43 1.43 2.23 3.34 2.24 5.38 0 0.38-0.3 0.7-0.7 0.7-0.38 0-0.7-0.3-0.7-0.7 0-1.66-0.66-3.22-1.83-4.4C9.19 18.46 7.63 17.8 6 17.8c-0.38 0-0.7-0.32-0.7-0.7 0-0.4 0.32-0.7 0.7-0.7Z" fill="#5c5c5c" fill-opacity="0.8" /><path d="M5.96 19.23c-0.38 0-0.7 0.3-0.7 0.7 0 0.38 0.3 0.7 0.7 0.7 0.9 0 1.75 0.36 2.4 1 0.64 0.65 1 1.5 1 2.42 0 0.39 0.32 0.7 0.7 0.7h0.01c0.39 0 0.7-0.32 0.7-0.7-0.01-1.29-0.52-2.5-1.42-3.4-0.91-0.91-2.11-1.42-3.39-1.42Z" fill="#5c5c5c" fill-opacity="0.8" /><path d="M5.71 22.17c0.14-0.13 0.33-0.2 0.53-0.19 0.45 0.04 0.89 0.23 1.22 0.56 0.32 0.33 0.52 0.76 0.55 1.22 0.02 0.2-0.05 0.39-0.18 0.53S7.5 24.5 7.32 24.5H6.19c-0.39 0-0.7-0.32-0.7-0.7v-1.13c0-0.2 0.08-0.38 0.22-0.51Z" fill="#5c5c5c" fill-opacity="0.8" /></svg>