<?xml version="1.0" encoding="utf-8" ?>
<svg baseProfile="full" height="24.0" version="1.1" viewBox="0 0 24.0 24.0" width="24.0" xmlns="http://www.w3.org/2000/svg" xmlns:ev="http://www.w3.org/2001/xml-events" xmlns:xlink="http://www.w3.org/1999/xlink"><defs /><path d="M2.46 6.95c0-0.97 0-1.45 0.2-1.82 0.16-0.31 0.4-0.56 0.72-0.73 0.37-0.19 0.85-0.19 1.82-0.19h13.6c0.97 0 1.45 0 1.82 0.2 0.31 0.16 0.56 0.4 0.73 0.72 0.19 0.37 0.19 0.85 0.19 1.82v10.1c0 0.97 0 1.45-0.2 1.82-0.16 0.31-0.4 0.57-0.72 0.73-0.37 0.19-0.85 0.19-1.82 0.19H5.2c-0.97 0-1.45 0-1.82-0.2-0.31-0.15-0.56-0.4-0.73-0.72-0.19-0.37-0.19-0.85-0.19-1.82V6.95ZM8.5 17.12h7c0.28 0 0.5-0.22 0.5-0.5v-0.5c0-0.27-0.22-0.5-0.5-0.5h-7c-0.28 0-0.5 0.23-0.5 0.5v0.5c0 0.28 0.22 0.5 0.5 0.5Zm9-3.33h-11c-0.28 0-0.5-0.22-0.5-0.5v-0.5c0-0.27 0.22-0.5 0.5-0.5h11c0.28 0 0.5 0.23 0.5 0.5v0.5c0 0.28-0.22 0.5-0.5 0.5Z" fill="#5c5c5c" fill-opacity="0.8" /></svg>