<?xml version="1.0" encoding="utf-8" ?>
<svg baseProfile="full" height="15.0" version="1.1" viewBox="0 0 24.0 24.0" width="15.0" xmlns="http://www.w3.org/2000/svg" xmlns:ev="http://www.w3.org/2001/xml-events" xmlns:xlink="http://www.w3.org/1999/xlink"><defs /><path d="M12,2C7.25,2,2.97,4.08,0,7.39L12,22L24,7.39C21.03,4.08,16.75,2,12,2z M12,18.85L2.7,7.53C5.27,5.27,8.58,4,12,4 s6.73,1.27,9.3,3.53L12,18.85z" fill="#000000" fill-opacity="1.0" /><path d="M18.61,13.95L12,22l-6.61-8.05c0.33-0.61,0.74-1.17,1.22-1.66c1.36-1.42,3.27-2.3,5.39-2.3s4.03,0.88,5.39,2.3 C17.87,12.78,18.28,13.34,18.61,13.95z" fill="#000000" fill-opacity="1.0" /></svg>