<?xml version="1.0" encoding="utf-8" ?>
<svg baseProfile="full" height="12.0" version="1.1" viewBox="0 0 80.0 12.0" width="80.0" xmlns="http://www.w3.org/2000/svg" xmlns:ev="http://www.w3.org/2001/xml-events" xmlns:xlink="http://www.w3.org/1999/xlink"><defs /><path d="M14.1781,9.736C13.7886,10.282 13.2667,10.72 12.6615,11.009C12.1014,11.2936 11.5704,11.339 11.0085,11.339C9.9702,11.339 9.3792,10.9653 8.9309,10.5207C8.5099,10.1006 8.0898,9.2369 8.0898,8.3122C8.0906,8.0378 8.1152,7.764 8.1635,7.4938L9.3455,0.8182H10.2784L9.0964,7.4693C9.0489,7.6994 9.0242,7.9336 9.0227,8.1685C9.0227,8.8641 9.1491,9.4005 9.5683,9.8297C9.7697,10.0429 10.014,10.2111 10.2852,10.323C10.5563,10.4349 10.8481,10.488 11.1413,10.4789C11.845,10.4789 12.4142,10.2198 13.0216,9.6797C13.629,9.1396 13.939,8.3804 14.1109,7.4193L15.2765,0.8091H16.2585L15.0765,7.4847C14.941,8.2621 14.5964,9.1559 14.1781,9.736Z" fill="#ffffff" fill-opacity="1.0" /><path d="M22.4983,1.4719C22.9693,1.9126 23.2045,2.5139 23.2039,3.2759C23.2104,3.96 23.0437,4.6347 22.7193,5.2371C22.4086,5.8214 21.9439,6.3094 21.3754,6.6483C20.7892,6.9958 20.1183,7.1742 19.4369,7.1638H17.3629L16.651,11.189H15.6699L17.4984,0.8091H20.5535C21.3803,0.8091 22.0286,1.03 22.4983,1.4719ZM20.8972,5.9327C21.3111,5.6863 21.6457,5.3262 21.861,4.8952C22.0898,4.437 22.2055,3.9307 22.1983,3.4186C22.1983,2.8634 22.0304,2.43 21.6946,2.1184C21.3588,1.8068 20.8844,1.6513 20.2716,1.652H18.3322L17.5139,6.3027H19.4533C19.9593,6.3136 20.4587,6.1856 20.8972,5.9327Z" fill="#ffffff" fill-opacity="1.0" /><path d="M25.3642,1.6801L24.7378,5.2998H29.2294L29.0703,6.1718H24.5787L23.8513,10.3198H28.6366L28.4893,11.1908H22.7129L24.5414,0.8091H30.3214L30.1623,1.6801H25.3642Z" fill="#ffffff" fill-opacity="1.0" /><path d="M37.1391,4.8398C36.8824,5.3645 36.4932,5.813 36.0098,6.1409C35.5125,6.4754 34.9335,6.6684 34.335,6.6992L36.8627,11.1908H35.6597L33.242,6.7119H31.3654L30.5798,11.1908H29.5996L31.4263,0.8091H35.146C35.9073,0.8091 36.4965,1.0137 36.9136,1.4228C37.3306,1.832 37.5385,2.3881 37.5373,3.0913C37.5429,3.6972 37.4065,4.296 37.1391,4.8398ZM31.509,5.8645H34.1231C34.5808,5.8787 35.0321,5.7551 35.4188,5.5099C35.7782,5.2735 36.0649,4.9421 36.2471,4.5524C36.4425,4.1381 36.5411,3.6848 36.5353,3.2268C36.5353,2.7285 36.3944,2.3421 36.1125,2.0675C35.8307,1.7929 35.4154,1.6559 34.8669,1.6565H32.261L31.509,5.8645Z" fill="#ffffff" fill-opacity="1.0" /><path d="M55.8271,8.0096C55.3452,9.0011 54.6119,9.8491 53.7004,10.4691C52.7846,11.0905 51.7,11.4156 50.5935,11.4002C49.7551,11.4002 49.0278,11.2295 48.4113,10.8883C47.8037,10.5563 47.3098,10.0495 46.9938,9.4335C46.6646,8.8043 46.5001,8.0708 46.5001,7.2331C46.4959,6.1085 46.7536,4.9984 47.2529,3.9907C47.7311,2.9999 48.4626,2.1531 49.3733,1.5358C50.2921,0.911 51.381,0.5843 52.492,0.6002C53.3218,0.6002 54.045,0.7708 54.6614,1.1121C55.27,1.4448 55.7657,1.9513 56.0853,2.5668C56.4181,3.1948 56.5848,3.9283 56.5854,4.7672C56.5894,5.8924 56.3297,7.0029 55.8271,8.0096ZM49.4096,8.817C49.78,9.2722 50.2855,9.5001 50.9262,9.5007C51.5852,9.5092 52.2217,9.2618 52.702,8.8106C53.2143,8.3339 53.6052,7.7416 53.8422,7.0831C54.093,6.4318 54.2246,5.7406 54.2304,5.0427C54.2304,4.2614 54.0456,3.6428 53.6758,3.187C53.306,2.7311 52.8005,2.5032 52.1592,2.5032C51.5004,2.4941 50.8639,2.7416 50.3843,3.1933C49.8712,3.6714 49.48,4.2653 49.2432,4.9254C48.9925,5.5764 48.861,6.2673 48.855,6.9649C48.855,7.7438 49.0399,8.3612 49.4096,8.817Z" fill="#ffffff" fill-opacity="1.0" /><path d="M66.1829,8.0095C65.7022,9.0008 64.9702,9.8488 64.0598,10.469C63.1444,11.0905 62.0601,11.4155 60.9538,11.4001C60.1155,11.4001 59.3881,11.2295 58.7716,10.8882C58.164,10.556 57.6699,10.0492 57.3532,9.4334C57.0253,8.8042 56.861,8.0708 56.8604,7.233C56.8564,6.1086 57.1138,4.9986 57.6123,3.9907C58.0909,3.0001 58.8223,2.1533 59.7327,1.5357C60.6509,0.9117 61.7387,0.5851 62.8487,0.6001C63.6791,0.6001 64.4023,0.7707 65.0181,1.112C65.6267,1.4447 66.1224,1.9512 66.442,2.5668C66.7748,3.1948 66.9412,3.9282 66.9412,4.7672C66.9452,5.8924 66.6855,7.0028 66.1829,8.0095ZM59.7663,8.8169C60.1367,9.2722 60.6422,9.5001 61.283,9.5007C61.9424,9.5102 62.5796,9.2627 63.0596,8.8106C63.5722,8.3341 63.9632,7.7417 64.1998,7.083C64.4507,6.4317 64.5822,5.7406 64.5881,5.0427C64.5881,4.2613 64.4032,3.6427 64.0334,3.1869C63.6637,2.7311 63.1572,2.5016 62.5141,2.4986C61.855,2.4894 61.2182,2.7369 60.7383,3.1887C60.2281,3.6678 59.8394,4.2616 59.6045,4.9208C59.3517,5.573 59.2186,6.2654 59.2117,6.9648C59.2117,7.7437 59.3966,8.3611 59.7663,8.8169Z" fill="#ffffff" fill-opacity="1.0" /><path d="M44.8822,0.8091L43.4183,4.2997L45.1922,4.0051L40.5233,10.2279L41.9808,5.619L40.2578,5.9518L41.6398,0.8091H38.3975L39.9514,11.2381H42.91L48.1245,0.8091H44.8822Z" fill="#ffffff" fill-opacity="1.0" /><path d="M71.084,3.1889C71.5677,2.7356 72.2087,2.4881 72.8715,2.4988C73.3971,2.4988 73.812,2.6324 74.1163,2.8997C74.4206,3.167 74.6024,3.5635 74.6618,4.089H76.9486C76.8913,2.9579 76.3885,1.8159 75.6757,1.2786C75.0756,0.8212 74.2645,0.6003 73.2534,0.6003C72.1362,0.5832 71.0401,0.9056 70.1102,1.525C69.1941,2.1383 68.4559,2.9822 67.9698,3.9717C67.4627,4.9751 67.2006,6.0844 67.2051,7.2086C67.2051,8.0573 67.3715,8.7968 67.7043,9.4272C68.0261,10.0489 68.529,10.5584 69.1464,10.8884C69.7756,11.2296 70.5133,11.4003 71.3595,11.4003C72.3706,11.4003 73.2871,11.2184 74.0226,10.722C75.8257,9.5008 76.2439,7.9133 76.2439,7.9133L73.9899,7.9233C73.4716,8.975 72.6867,9.5008 71.635,9.5008C70.9858,9.5008 70.4763,9.2729 70.1065,8.8171C69.7368,8.3613 69.5519,7.7387 69.5519,6.9495C69.5563,6.2515 69.6879,5.5601 69.9401,4.9092C70.1792,4.253 70.5714,3.6632 71.084,3.1889Z" fill="#ffffff" fill-opacity="1.0" /><path d="M4.3959,5.2999C3.6758,5.1181 3.1648,4.9071 2.862,4.6634C2.7163,4.5479 2.5997,4.3998 2.5217,4.2309C2.4437,4.0621 2.4064,3.8773 2.4129,3.6914C2.4129,2.9804 2.6459,2.4427 3.1121,2.0784C3.5782,1.7141 4.1877,1.5323 4.9406,1.5329C5.9444,1.5329 6.5772,1.8887 6.8391,2.6003H7.8392C7.7987,2.3144 7.6997,2.0398 7.5482,1.7939C7.3968,1.548 7.1962,1.3359 6.9591,1.171C6.4687,0.8237 5.8434,0.6497 5.0833,0.6491C4.4489,0.6433 3.8207,0.7751 3.2421,1.0355C2.6978,1.2764 2.2309,1.6632 1.8928,2.153C1.5497,2.6627 1.3737,3.2664 1.3891,3.8806C1.3816,4.1506 1.4333,4.419 1.5404,4.667C1.6475,4.9149 1.8075,5.1365 2.0092,5.3163C2.422,5.6878 3.0718,5.977 3.9586,6.1837C4.7333,6.3722 5.2788,6.6022 5.5952,6.8738C5.753,7.0073 5.8783,7.1748 5.9618,7.3639C6.0452,7.5529 6.0847,7.7584 6.0771,7.9649C6.0916,8.441 5.9651,8.9107 5.7134,9.3151C5.467,9.6919 5.1177,9.9901 4.7069,10.1744C4.2596,10.3748 3.774,10.4754 3.2839,10.4689C2.6208,10.4689 2.0931,10.3216 1.7009,10.0271C1.3981,9.7987 1.1753,9.4805 1.0645,9.1178H0.0488C0.0966,9.4439 0.2088,9.7572 0.379,10.0395C0.5491,10.3217 0.7738,10.5673 1.0399,10.7617C1.5673,11.1545 2.2604,11.3509 3.1193,11.3509C3.8073,11.3581 4.4877,11.2069 5.1079,10.909C5.697,10.6282 6.1977,10.1911 6.5554,9.6452C6.9196,9.0829 7.1077,8.4247 7.0955,7.7548C7.0955,7.1329 6.8809,6.6256 6.4517,6.2328C6.0226,5.84 5.3373,5.529 4.3959,5.2999Z" fill="#ffffff" fill-opacity="1.0" /><path d="M77.7805,9.639H77.2995V11.2384H77.0685V9.639H76.583V9.439H77.7805V9.639Z" fill="#ffffff" fill-opacity="1.0" /><path d="M79.8144,11.2384H79.5853V9.7718L79.0398,11.2393H78.8034L78.2578,9.7781V11.2384H78.0469V9.439H78.3569L78.927,10.9847L79.498,9.439H79.8154L79.8144,11.2384Z" fill="#ffffff" fill-opacity="1.0" /></svg>