<?xml version="1.0" encoding="utf-8" ?>
<svg baseProfile="full" height="24.0" version="1.1" viewBox="0 0 24.0 24.0" width="24.0" xmlns="http://www.w3.org/2000/svg" xmlns:ev="http://www.w3.org/2001/xml-events" xmlns:xlink="http://www.w3.org/1999/xlink"><defs /><path d="M66.67 -27.59 C66.67,-27.59 66.67,-66.67 66.67,-66.67 C66.67,-66.67 27.59,-66.67 27.59,-66.67 C27.59,-66.67 0,-94.25 0,-94.25 C0,-94.25 -27.58,-66.67 -27.58,-66.67 C-27.58,-66.67 -66.66,-66.67 -66.66,-66.67 C-66.66,-66.67 -66.66,-27.59 -66.66,-27.59 C-66.66,-27.59 -94.25,0 -94.25,0 C-94.25,0 -66.66,27.58 -66.66,27.58 C-66.66,27.58 -66.66,66.66 -66.66,66.66 C-66.66,66.66 -27.58,66.66 -27.58,66.66 C-27.58,66.66 0,94.25 0,94.25 C0,94.25 27.59,66.66 27.59,66.66 C27.59,66.66 66.67,66.66 66.67,66.66 C66.67,66.66 66.67,27.58 66.67,27.58 C66.67,27.58 94.25,0 94.25,0 C94.25,0 66.67,-27.59 66.67,-27.59c M50 20.66 C50,20.66 50,50 50,50 C50,50 20.67,50 20.67,50 C20.67,50 0,70.66 0,70.66 C0,70.66 -20.66,50 -20.66,50 C-20.66,50 -50,50 -50,50 C-50,50 -50,20.66 -50,20.66 C-50,20.66 -70.66,0 -70.66,0 C-70.66,0 -50,-20.67 -50,-20.67 C-50,-20.67 -50,-50 -50,-50 C-50,-50 -20.66,-50 -20.66,-50 C-20.66,-50 0,-70.67 0,-70.67 C0,-70.67 20.67,-50 20.67,-50 C20.67,-50 50,-50 50,-50 C50,-50 50,-20.67 50,-20.67 C50,-20.67 70.67,0 70.67,0 C70.67,0 50,20.66 50,20.66c" fill="#ffffff" fill-opacity="1.0" /><path d="M0 -32.5 C17.95,-32.5 32.5,-17.95 32.5,0 C32.5,17.95 17.95,32.5 0,32.5 C-17.95,32.5 -32.5,17.95 -32.5,0 C-32.5,-17.95 -17.95,-32.5 0,-32.5c" fill="#ffffff" fill-opacity="1.0" /><path d="M0 -32.5 C17.95,-32.5 32.5,-17.95 32.5,0 C32.5,17.95 17.95,32.5 0,32.5 C-17.95,32.5 -32.5,17.95 -32.5,0 C-32.5,-17.95 -17.95,-32.5 0,-32.5c" fill="#000000" fill-opacity="1.0" /></svg>