<?xml version="1.0" encoding="utf-8" ?>
<svg baseProfile="full" height="24.0" version="1.1" viewBox="0 0 24.0 24.0" width="24.0" xmlns="http://www.w3.org/2000/svg" xmlns:ev="http://www.w3.org/2001/xml-events" xmlns:xlink="http://www.w3.org/1999/xlink"><defs /><path d="M11.996,1.299C12.383,1.299 12.696,1.612 12.696,1.999V3.999C12.696,4.385 12.383,4.699 11.996,4.699C11.61,4.699 11.296,4.385 11.296,3.999V1.999C11.296,1.612 11.61,1.299 11.996,1.299ZM11.996,6.299C8.848,6.299 6.296,8.851 6.296,11.999C6.296,15.147 8.848,17.699 11.996,17.699C15.144,17.699 17.696,15.147 17.696,11.999C17.696,8.851 15.144,6.299 11.996,6.299ZM19.562,5.424C19.835,5.15 19.835,4.707 19.562,4.434C19.288,4.16 18.845,4.16 18.572,4.434L17.158,5.848C16.884,6.121 16.884,6.564 17.158,6.838C17.431,7.111 17.874,7.111 18.148,6.838L19.562,5.424ZM19.296,11.999C19.296,11.612 19.61,11.299 19.996,11.299H21.996C22.383,11.299 22.696,11.612 22.696,11.999C22.696,12.385 22.383,12.699 21.996,12.699H19.996C19.61,12.699 19.296,12.385 19.296,11.999ZM18.148,17.16C17.874,16.887 17.431,16.887 17.158,17.16C16.884,17.434 16.884,17.877 17.158,18.15L18.572,19.564C18.845,19.838 19.288,19.838 19.562,19.564C19.835,19.291 19.835,18.848 19.562,18.574L18.148,17.16ZM11.996,19.299C12.383,19.299 12.696,19.612 12.696,19.999V21.999C12.696,22.385 12.383,22.699 11.996,22.699C11.61,22.699 11.296,22.385 11.296,21.999V19.999C11.296,19.612 11.61,19.299 11.996,19.299ZM6.835,18.15C7.109,17.877 7.109,17.434 6.835,17.16C6.562,16.887 6.119,16.887 5.845,17.16L4.431,18.574C4.158,18.848 4.158,19.291 4.431,19.564C4.704,19.838 5.148,19.838 5.421,19.564L6.835,18.15ZM1.296,11.999C1.296,11.612 1.61,11.299 1.996,11.299H3.996C4.383,11.299 4.696,11.612 4.696,11.999C4.696,12.385 4.383,12.699 3.996,12.699H1.996C1.61,12.699 1.296,12.385 1.296,11.999ZM5.421,4.434C5.148,4.16 4.704,4.16 4.431,4.434C4.158,4.707 4.158,5.15 4.431,5.424L5.845,6.838C6.119,7.111 6.562,7.111 6.835,6.838C7.109,6.564 7.109,6.121 6.835,5.848L5.421,4.434Z" fill="#000000" fill-opacity="1.0" /></svg>