<?xml version="1.0" encoding="utf-8" ?>
<svg baseProfile="full" height="24.0" version="1.1" viewBox="0 0 24.0 24.0" width="24.0" xmlns="http://www.w3.org/2000/svg" xmlns:ev="http://www.w3.org/2001/xml-events" xmlns:xlink="http://www.w3.org/1999/xlink"><defs /><path d="M11.061,4.937C10.28,4.158 9.012,4.156 8.231,4.937L5.078,8.089C4.7,8.467 4.492,8.97 4.492,9.504C4.492,10.038 4.7,10.54 5.078,10.918L13.223,19.063C13.613,19.452 14.125,19.647 14.638,19.647C15.149,19.647 15.662,19.452 16.052,19.063L19.205,15.91C19.583,15.532 19.791,15.029 19.791,14.495C19.791,13.961 19.583,13.458 19.205,13.081L11.061,4.937ZM8.259,8.867C7.845,8.867 7.509,8.531 7.509,8.117C7.509,7.703 7.845,7.367 8.259,7.367C8.673,7.367 9.009,7.703 9.009,8.117C9.009,8.531 8.673,8.867 8.259,8.867Z" fill="#ffffff" fill-opacity="1.0" /><path d="M11.492,20.389C11.192,20.432 10.885,20.454 10.58,20.454C7.625,20.454 5.143,18.417 4.446,15.676H5.698C5.981,15.676 6.236,15.505 6.344,15.244C6.453,14.982 6.393,14.681 6.193,14.481L4.04,12.327C3.766,12.054 3.323,12.054 3.05,12.327L0.896,14.481C0.696,14.681 0.636,14.982 0.745,15.244C0.853,15.505 1.108,15.676 1.391,15.676H3.002C3.724,19.198 6.847,21.854 10.58,21.854C10.952,21.854 11.327,21.827 11.693,21.774C12.076,21.719 12.34,21.364 12.285,20.981C12.23,20.599 11.879,20.336 11.492,20.389Z" fill="#ffffff" fill-opacity="1.0" /><path d="M23.54,8.755C23.431,8.494 23.176,8.323 22.893,8.323H21.282C20.56,4.801 17.437,2.145 13.705,2.145C13.333,2.145 12.958,2.171 12.591,2.225C12.21,2.28 11.944,2.635 12,3.018C12.054,3.4 12.41,3.665 12.792,3.61C13.093,3.567 13.4,3.545 13.705,3.545C16.66,3.545 19.141,5.581 19.838,8.323H18.587C18.303,8.323 18.048,8.494 17.94,8.755C17.832,9.017 17.891,9.318 18.091,9.518L20.245,11.672C20.376,11.803 20.554,11.877 20.74,11.877C20.925,11.877 21.103,11.803 21.235,11.672L23.388,9.518C23.588,9.318 23.648,9.017 23.54,8.755Z" fill="#ffffff" fill-opacity="1.0" /></svg>