<?xml version="1.0" encoding="utf-8" ?>
<svg baseProfile="full" height="60.0" version="1.1" viewBox="0 0 60.0 60.0" width="60.0" xmlns="http://www.w3.org/2000/svg" xmlns:ev="http://www.w3.org/2001/xml-events" xmlns:xlink="http://www.w3.org/1999/xlink"><defs /><path d="M30 6.2 C16.9,6.2 6.3,16.8 6.3,30 C6.3,43.2 16.9,53.8 30,53.8 C43.1,53.8 53.8,43.2 53.8,30 C53.8,16.8 43.1,6.2 30,6.2c" fill="#000000" fill-opacity="1.0" /><path d="M33.75 42.75 C32.75,43.76 31.37,44.39 29.83,44.39 C26.8,44.39 24.34,41.93 24.34,38.9" fill="#000000" fill-opacity="1.0" /><path d="M-2.1 0 C-2.1,1.2 -1.2,2.1 0,2.1 C1.1,2.1 2.1,1.2 2.1,0 C2.1,-1.2 1.2,-2.1 0,-2.1 C-1.2,-2.1 -2.1,-1.2 -2.1,0c" fill="#000000" fill-opacity="1.0" /><path d="M-2.1 0 C-2.1,1.2 -1.2,2.1 0,2.1 C1.2,2.1 2.1,1.2 2.1,0 C2.1,-1.2 1.2,-2.1 0,-2.1 C-1.2,-2.1 -2.1,-1.2 -2.1,0c" fill="#000000" fill-opacity="1.0" /><path d="M2.6 3.25 C2.6,3.25 -2.6,3.25 -2.6,3.25 C-2.6,3.25 -2.6,1.25 -2.6,1.25 C-2.6,1.25 0.6,1.25 0.6,1.25 C0.6,1.25 0.6,-3.25 0.6,-3.25 C0.6,-3.25 2.6,-3.25 2.6,-3.25 C2.6,-3.25 2.6,3.25 2.6,3.25c" fill="#000000" fill-opacity="1.0" /></svg>