<?xml version="1.0" encoding="utf-8" ?>
<svg baseProfile="full" height="48.0" version="1.1" viewBox="0 0 48.0 48.0" width="48.0" xmlns="http://www.w3.org/2000/svg" xmlns:ev="http://www.w3.org/2001/xml-events" xmlns:xlink="http://www.w3.org/1999/xlink"><defs /><path d="M32.87 28.79c-3.2-1.55-3.71-3.94-3.73-4.12-0.03-0.21-0.06-0.38 0.17-0.6 0.23-0.21 1.25-0.84 1.53-1.04 0.46-0.32 0.67-0.65 0.52-1.05-0.1-0.27-0.37-0.38-0.64-0.38-0.08 0-0.17 0.01-0.25 0.03-0.51 0.11-1 0.37-1.3 0.44l-0.1 0.01c-0.15 0-0.21-0.07-0.2-0.25 0.04-0.56 0.12-1.65 0.03-2.67-0.12-1.4-0.58-2.1-1.11-2.7-0.26-0.3-1.46-1.58-3.79-1.58-2.32 0-3.52 1.28-3.78 1.57-0.54 0.61-0.99 1.3-1.11 2.71-0.09 1.02 0 2.1 0.02 2.67 0.01 0.17-0.04 0.25-0.2 0.25l-0.1-0.01c-0.28-0.07-0.78-0.33-1.3-0.44-0.08-0.02-0.16-0.03-0.25-0.03-0.27 0-0.52 0.1-0.63 0.38-0.15 0.4 0.05 0.72 0.52 1.05 0.28 0.2 1.3 0.82 1.52 1.04 0.24 0.21 0.21 0.38 0.18 0.6-0.02 0.18-0.53 2.57-3.73 4.12-0.19 0.09-0.5 0.28 0.06 0.59 0.88 0.49 1.47 0.44 1.92 0.73 0.39 0.25 0.16 0.79 0.44 0.98 0.35 0.24 1.37-0.02 2.7 0.42 1.1 0.37 1.78 1.4 3.74 1.4 1.97 0 2.66-1.04 3.75-1.4 1.32-0.44 2.35-0.18 2.7-0.42 0.28-0.2 0.05-0.73 0.44-0.98 0.45-0.3 1.04-0.24 1.92-0.73 0.56-0.3 0.25-0.5 0.06-0.59Z" fill="#ffffff" fill-opacity="1.0" /></svg>