<?xml version="1.0" encoding="utf-8" ?>
<svg baseProfile="full" height="20.0" version="1.1" viewBox="0 0 42.0 42.0" width="20.0" xmlns="http://www.w3.org/2000/svg" xmlns:ev="http://www.w3.org/2001/xml-events" xmlns:xlink="http://www.w3.org/1999/xlink"><defs /><path d="M1.09,5.46C0,7.599 0,10.399 0,16V26C0,31.601 0,34.401 1.09,36.54C2.049,38.422 3.578,39.951 5.46,40.91C7.599,42 10.399,42 16,42H26C31.601,42 34.401,42 36.54,40.91C38.422,39.951 39.951,38.422 40.91,36.54C42,34.401 42,31.601 42,26V16C42,10.399 42,7.599 40.91,5.46C39.951,3.578 38.422,2.049 36.54,1.09C34.401,0 31.601,0 26,0H16C10.399,0 7.599,0 5.46,1.09C3.578,2.049 2.049,3.578 1.09,5.46ZM10.8,23.8C12.347,23.8 13.6,22.546 13.6,21C13.6,19.453 12.347,18.2 10.8,18.2C9.254,18.2 8,19.453 8,21C8,22.546 9.254,23.8 10.8,23.8ZM23.8,21C23.8,22.546 22.546,23.8 21,23.8C19.454,23.8 18.2,22.546 18.2,21C18.2,19.453 19.454,18.2 21,18.2C22.546,18.2 23.8,19.453 23.8,21ZM31.2,23.8C32.746,23.8 34,22.546 34,21C34,19.453 32.746,18.2 31.2,18.2C29.654,18.2 28.4,19.453 28.4,21C28.4,22.546 29.654,23.8 31.2,23.8Z" fill="#ffffff" fill-opacity="1.0" /></svg>