<?xml version="1.0" encoding="utf-8" ?>
<svg baseProfile="full" height="24.0" version="1.1" viewBox="0 0 24.0 24.0" width="24.0" xmlns="http://www.w3.org/2000/svg" xmlns:ev="http://www.w3.org/2001/xml-events" xmlns:xlink="http://www.w3.org/1999/xlink"><defs /><path d="M2.8,3.199C1.917,3.199 1.2,3.916 1.2,4.799V19.199C1.2,20.083 1.917,20.799 2.8,20.799L4,20.799H20L21.2,20.799C22.084,20.799 22.8,20.083 22.8,19.199V4.799C22.8,3.916 22.084,3.199 21.2,3.199H19.886H4H2.8ZM4,4.799L2.8,4.799V19.199H4H5.029C8.366,19.199 11.2,16.015 11.2,11.999C11.2,7.877 8.373,4.8 5.03,4.799C5.029,4.799 5.029,4.799 5.029,4.799H4ZM18.971,4.799C15.634,4.799 12.8,7.983 12.8,11.999C12.8,16.122 15.627,19.199 18.971,19.199H20H21.2V4.799H19.886H18.971C18.971,4.799 18.971,4.799 18.971,4.799Z" fill="#2c2c2c" fill-opacity="1.0" /></svg>