<?xml version="1.0" encoding="utf-8" ?>
<svg baseProfile="full" height="16.0" version="1.1" viewBox="0 0 14.0 16.0" width="14.0" xmlns="http://www.w3.org/2000/svg" xmlns:ev="http://www.w3.org/2001/xml-events" xmlns:xlink="http://www.w3.org/1999/xlink"><defs /><path d="M12.996,12.606V12.604L7.758,3.532H7.757C7.692,3.29 7.392,3.109 7.033,3.109C6.67,3.109 6.372,3.295 6.309,3.539L0.948,12.824L0.952,12.83C0.83,12.951 0.853,13.24 1.02,13.51C1.187,13.784 1.439,13.938 1.602,13.875L1.608,13.884H12.459L12.465,13.87C12.647,13.898 12.87,13.739 13.009,13.455C13.172,13.129 13.161,12.762 12.996,12.606ZM6.273,6.385C6.273,5.983 6.6,5.657 7,5.657C7.403,5.657 7.727,5.983 7.727,6.385V10.132C7.727,10.533 7.403,10.859 7,10.859C6.6,10.859 6.273,10.533 6.273,10.132V6.385ZM7,12.926C6.564,12.926 6.209,12.572 6.209,12.134C6.209,11.698 6.564,11.345 7,11.345C7.437,11.345 7.791,11.698 7.791,12.134C7.791,12.571 7.437,12.926 7,12.926Z" fill="#000000" fill-opacity="1.0" /></svg>