<?xml version="1.0" encoding="utf-8" ?>
<svg baseProfile="full" height="14.0" version="1.1" viewBox="0 0 14.0 14.0" width="14.0" xmlns="http://www.w3.org/2000/svg" xmlns:ev="http://www.w3.org/2001/xml-events" xmlns:xlink="http://www.w3.org/1999/xlink"><defs /><path d="M12.852,5.837V5.999C12.852,6.192 12.695,6.349 12.502,6.349C12.308,6.349 12.151,6.192 12.151,5.999V5.837C12.151,4.649 11.798,3.59 11.13,2.774C11.008,2.624 11.03,2.403 11.18,2.281C11.329,2.159 11.549,2.181 11.672,2.33C12.444,3.273 12.852,4.486 12.852,5.837ZM2.823,2.281C2.675,2.159 2.454,2.181 2.331,2.33C1.559,3.273 1.151,4.486 1.151,5.837V5.999C1.151,6.192 1.308,6.349 1.501,6.349C1.695,6.349 1.852,6.192 1.852,5.999V5.837C1.852,4.649 2.205,3.59 2.873,2.774C2.995,2.624 2.973,2.403 2.823,2.281ZM10.138,3.264C9.982,3.379 9.949,3.598 10.064,3.753C10.472,4.305 10.678,5.007 10.678,5.837V5.999C10.678,6.192 10.835,6.349 11.028,6.349C11.222,6.349 11.378,6.192 11.378,5.999V5.837C11.378,4.853 11.125,4.013 10.627,3.338C10.513,3.183 10.293,3.149 10.138,3.264ZM3.325,5.999V5.837C3.325,5.007 3.531,4.305 3.939,3.753C4.054,3.598 4.021,3.379 3.865,3.264C3.709,3.148 3.49,3.183 3.375,3.338C2.877,4.013 2.625,4.853 2.625,5.837V5.999C2.625,6.192 2.781,6.349 2.975,6.349C3.168,6.349 3.325,6.192 3.325,5.999ZM9.952,6.749V6.073C9.952,4.331 9.048,3.324 7.413,3.178C7.437,3.123 7.451,3.063 7.451,2.999C7.451,2.75 7.25,2.549 7.001,2.549C6.753,2.549 6.551,2.75 6.551,2.999C6.551,3.063 6.566,3.123 6.59,3.178C4.955,3.324 4.051,4.331 4.051,6.073V6.749C4.051,8.146 3.603,8.633 3.243,9.025C3.001,9.288 2.751,9.559 2.751,9.999C2.751,10.192 2.908,10.349 3.102,10.349H10.901C10.994,10.349 11.083,10.312 11.149,10.246C11.214,10.181 11.252,10.092 11.252,9.999C11.252,9.559 11.002,9.288 10.76,9.025C10.4,8.633 9.952,8.146 9.952,6.749ZM5.956,11.504C6.236,11.789 6.606,11.944 7.001,11.944C7.396,11.944 7.766,11.789 8.041,11.509C8.191,11.359 8.306,11.189 8.376,10.999H5.626C5.696,11.184 5.806,11.359 5.956,11.504Z" fill="#000000" fill-opacity="1.0" /></svg>