<?xml version="1.0" encoding="utf-8" ?>
<svg baseProfile="full" height="24.0" version="1.1" viewBox="0 0 24.0 24.0" width="24.0" xmlns="http://www.w3.org/2000/svg" xmlns:ev="http://www.w3.org/2001/xml-events" xmlns:xlink="http://www.w3.org/1999/xlink"><defs /><path d="M12,1.3C11.469,1.3 10.946,1.339 10.435,1.414C9.946,1.485 9.573,1.849 9.46,2.303L9.192,3.378C9.041,3.985 8.558,4.516 7.893,4.901C7.233,5.283 6.543,5.431 5.939,5.258L4.874,4.952C4.425,4.823 3.924,4.964 3.617,5.35C2.969,6.165 2.438,7.078 2.048,8.062C1.866,8.521 1.995,9.026 2.331,9.35L3.13,10.121C3.581,10.557 3.8,11.235 3.8,12C3.8,12.764 3.581,13.443 3.13,13.878L2.331,14.649C1.995,14.974 1.866,15.479 2.048,15.937L2.692,15.682L2.048,15.937C2.438,16.922 2.969,17.834 3.617,18.65C3.924,19.036 4.425,19.177 4.874,19.048L5.939,18.742C6.543,18.569 7.233,18.716 7.893,19.099L8.244,18.493L7.893,19.099C8.558,19.484 9.041,20.015 9.192,20.621L9.46,21.697C9.573,22.15 9.946,22.514 10.435,22.586C10.946,22.661 11.469,22.7 12,22.7C12.531,22.7 13.054,22.661 13.565,22.586C14.054,22.514 14.427,22.15 14.54,21.697L14.808,20.622C14.959,20.015 15.442,19.484 16.107,19.099C16.767,18.716 17.457,18.569 18.061,18.742L19.126,19.048C19.575,19.177 20.076,19.036 20.383,18.65C21.031,17.834 21.562,16.922 21.952,15.937C22.134,15.479 22.005,14.974 21.669,14.649L20.87,13.878C20.419,13.443 20.2,12.764 20.2,12C20.2,11.235 20.419,10.557 20.87,10.121L21.669,9.35C22.005,9.026 22.134,8.521 21.952,8.062C21.562,7.078 21.031,6.165 20.383,5.35C20.076,4.964 19.575,4.823 19.126,4.952L18.061,5.258C17.457,5.431 16.767,5.283 16.107,4.901C15.442,4.516 14.959,3.984 14.808,3.378L14.54,2.303L13.862,2.472L14.54,2.303C14.427,1.849 14.054,1.485 13.565,1.414C13.054,1.339 12.531,1.3 12,1.3ZM8,12C8,9.791 9.791,8 12,8C14.209,8 16,9.791 16,12C16,14.209 14.209,16 12,16C9.791,16 8,14.209 8,12Z" fill="#ffffff" fill-opacity="1.0" /></svg>