<?xml version="1.0" encoding="utf-8" ?>
<svg baseProfile="full" height="44.0" version="1.1" viewBox="0 0 44.0 44.0" width="44.0" xmlns="http://www.w3.org/2000/svg" xmlns:ev="http://www.w3.org/2001/xml-events" xmlns:xlink="http://www.w3.org/1999/xlink"><defs /><path d="M22,22m-22,0a22,22 0,1 1,44 0a22,22 0,1 1,-44 0" fill="#ffb200" fill-opacity="1.0" /><path d="M21.197,12.215V19.202H22.797V12.215H21.197ZM15.851,19.222C16.666,17.783 17.958,16.675 19.505,16.092L18.941,14.595C17.043,15.311 15.458,16.669 14.459,18.434C13.46,20.198 13.113,22.257 13.476,24.252C13.84,26.247 14.892,28.051 16.449,29.35C18.006,30.649 19.969,31.36 21.997,31.36C24.025,31.36 25.988,30.649 27.545,29.35C29.102,28.051 30.154,26.247 30.518,24.252C30.881,22.257 30.534,20.198 29.535,18.434C28.537,16.669 26.951,15.311 25.053,14.595L24.489,16.092C26.035,16.675 27.329,17.783 28.142,19.222C28.956,20.66 29.24,22.339 28.944,23.965C28.647,25.591 27.789,27.062 26.52,28.121C25.251,29.18 23.65,29.76 21.997,29.76C20.344,29.76 18.743,29.18 17.474,28.121C16.205,27.062 15.347,25.591 15.05,23.965C14.754,22.339 15.038,20.66 15.851,19.222Z" fill="#db9a00" fill-opacity="1.0" /></svg>