<?xml version="1.0" encoding="utf-8" ?>
<svg baseProfile="full" height="24.0" version="1.1" viewBox="0 0 24.0 24.0" width="24.0" xmlns="http://www.w3.org/2000/svg" xmlns:ev="http://www.w3.org/2001/xml-events" xmlns:xlink="http://www.w3.org/1999/xlink"><defs /><path d="M14.84,19.301V4.701H17.139V3.301H14.84V2.001C14.84,1.611 14.53,1.301 14.139,1.301C13.75,1.301 13.439,1.611 13.439,2.001V3.301H4.439C3.339,3.301 2.439,4.201 2.439,5.301V18.701C2.439,19.801 3.339,20.701 4.439,20.701H13.439V22.001C13.439,22.391 13.75,22.701 14.139,22.701C14.53,22.701 14.84,22.391 14.84,22.001V20.701H17.209V19.301H14.84ZM11.989,12.201C11.309,12.391 10.399,12.731 9.879,13.241C9.369,13.761 9.029,14.671 8.839,15.351C8.779,15.551 8.499,15.551 8.439,15.351C8.249,14.671 7.909,13.761 7.399,13.241C6.879,12.731 5.969,12.391 5.289,12.201C5.089,12.141 5.089,11.861 5.289,11.801C5.969,11.611 6.879,11.271 7.399,10.761C7.909,10.241 8.249,9.331 8.439,8.651C8.499,8.451 8.779,8.451 8.839,8.651C9.029,9.331 9.369,10.241 9.879,10.761C10.399,11.271 11.309,11.611 11.989,11.801C12.189,11.861 12.189,12.141 11.989,12.201ZM20.44,7.301V11.271H21.84V7.301H20.44ZM19.84,3.301H18.529V4.701H19.84C20.17,4.701 20.44,4.971 20.44,5.301V5.911H21.84V5.301C21.84,4.201 20.94,3.301 19.84,3.301ZM20.44,12.661V16.631H21.84V12.661H20.44ZM20.44,18.011V18.701C20.44,19.031 20.17,19.301 19.84,19.301H18.6V20.701H19.84C20.94,20.701 21.84,19.801 21.84,18.701V18.011H20.44Z" fill="#2c2c2c" fill-opacity="1.0" /></svg>