<?xml version="1.0" encoding="utf-8" ?>
<svg baseProfile="full" height="36.0" version="1.1" viewBox="0 0 1024.0 1024.0" width="36.0" xmlns="http://www.w3.org/2000/svg" xmlns:ev="http://www.w3.org/2001/xml-events" xmlns:xlink="http://www.w3.org/1999/xlink"><defs /><path d="M228,0L796,0A228,228 0,0 1,1024 228L1024,796A228,228 0,0 1,796 1024L228,1024A228,228 0,0 1,0 796L0,228A228,228 0,0 1,228 0z" fill="#ffff0a" fill-opacity="1.0" /><path d="M814,435C811.45,421.78 788.5,377 728.5,393C731,322 719,247.16 651.5,195.5C618.81,170.48 574.29,150 510,150C443.56,151.55 398.03,172.94 364.5,202C311.73,247.73 292,310.17 295,391.5C243.5,383 222.62,406.47 214,425.5C183,494 273,531.5 281,538C285.74,541.85 283.3,548 281,553.5C271.75,575.61 247.71,604.78 219,625C186.5,649.5 145.27,655 144.5,691.5C143.5,739 200,753.5 227,762.5C230.31,763.6 236.09,765 239.4,774.98C243.89,788.5 250,795.83 264.5,805.5C279,815.17 319.5,812.5 341,816C351.71,817.74 363.21,821 374,826C410.06,842.72 436.5,872 509.5,874.5C558.39,876.17 604,856.15 634.5,834.5C649.8,823.64 660.41,821.16 667.24,819.56L667.51,819.5C700,811.89 738.5,814 751.5,809.5C776.5,800.85 782.75,779.28 785.5,773.5C786.85,770.66 789.99,762.62 801,761C818,758.5 857.5,738 865.5,728C874.13,717.21 890,689.5 868,664.5C857.88,653 824.28,642.41 792,615.5C764.5,592.57 752.32,571 742.5,553C739.5,547.5 739,542 744.5,537.5C748.53,534.2 762.93,527.01 778,516C799.47,500.31 821.88,475.83 814,435Z" fill="#000000" fill-opacity="1.0" /><path d="M694.5,537.5C693.72,531.28 695,522.5 700.5,518C704.53,514.7 723.43,503.01 738.5,492C761,479.5 785.5,460 770.5,439.5C754.43,417.55 716.5,442.89 696.5,447C690.15,448.3 684.73,447 685,439.5C687.5,368.5 693.06,316.5 664.5,272.5C627.5,215.5 572.78,191.5 508.5,191.5C443,194 406,216.5 374.5,251C331.5,296 335.29,361.96 339,442C339,447.5 333.18,449.66 327.5,447.5C292,434 265.62,421.73 253,439.5C240.45,457.18 256.5,474.69 279,488.5C301,502 320.51,515.98 323.5,518.5C331.5,525.24 330.88,535.07 329.5,541C319.5,584 288.28,621.5 252.5,652C222,678 190,684.5 188,694.5C186,704.5 208,712.5 235,721.5C238.31,722.6 270.69,730.02 274,740C278.48,753.52 274,765 285,769.5C296,774 310.5,772.5 335,774C351.97,775.04 379.21,782 390,787C431,813 464,832.5 510.5,832.5C557,832.5 583.2,816.89 595,810.5C619,797.5 627,786.85 652,781C684.49,773.39 710.48,771.5 733,771.5C745,771.5 747.5,757.9 747.5,751.5C747.5,740.5 754,731.5 768,728C805.72,718.57 819.69,710.19 832.08,702.75L832.5,702.5C838.64,698.82 837.37,690.63 832.5,688.5C797,673 779.5,657.43 752,634.5C724.5,611.57 698,565.5 694.5,537.5Z" fill="#ffffff" fill-opacity="1.0" /></svg>