<?xml version="1.0" encoding="utf-8" ?>
<svg baseProfile="full" height="24.0" version="1.1" viewBox="0 0 24.0 24.0" width="24.0" xmlns="http://www.w3.org/2000/svg" xmlns:ev="http://www.w3.org/2001/xml-events" xmlns:xlink="http://www.w3.org/1999/xlink"><defs /><path d="M10.641,15.111C10.524,15.112 10.41,15.083 10.307,15.026C10.206,14.97 10.12,14.888 10.059,14.789L10.015,14.698L6.529,10.092C6.508,10.051 6.497,10.006 6.496,9.959C6.498,9.874 6.535,9.792 6.597,9.733C6.66,9.674 6.743,9.642 6.829,9.644C6.904,9.644 6.973,9.668 7.029,9.707L10.844,11.984C10.976,12.065 11.124,12.115 11.277,12.132C11.431,12.149 11.586,12.131 11.732,12.081L20.168,7C18.357,4.984 15.375,3.667 12,3.667C6.477,3.667 2,7.192 2,11.539C2,13.91 3.347,16.045 5.455,17.488C5.54,17.544 5.61,17.62 5.659,17.709C5.708,17.799 5.734,17.899 5.735,18C5.733,18.069 5.721,18.137 5.7,18.202L5.249,19.789C5.227,19.864 5.195,19.941 5.195,20.019C5.195,20.194 5.345,20.334 5.528,20.334C5.6,20.334 5.659,20.309 5.72,20.275L7.91,19.082C8.075,18.992 8.248,18.936 8.441,18.936C8.543,18.936 8.641,18.951 8.735,18.977C9.756,19.254 10.858,19.41 11.999,19.41C17.522,19.409 22,15.884 22,11.539C22,10.221 21.586,8.981 20.86,7.891L11.013,15.004L10.941,15.043C10.847,15.088 10.745,15.111 10.641,15.111Z" fill="#2c2c2c" fill-opacity="1.0" /></svg>