<?xml version="1.0" encoding="utf-8" ?>
<svg baseProfile="full" height="24.0" version="1.1" viewBox="0 0 24.0 24.0" width="24.0" xmlns="http://www.w3.org/2000/svg" xmlns:ev="http://www.w3.org/2001/xml-events" xmlns:xlink="http://www.w3.org/1999/xlink"><defs /><path d="M2.006,7.909V5.808H2C2.117,3.687 3.991,2 6.284,2C8.578,2 10.451,3.687 10.569,5.808H13.152H17.24C17.765,5.808 18.192,6.234 18.192,6.76C18.192,7.286 17.765,7.712 17.24,7.712H13.152H8.195C7.836,7.712 7.487,7.756 7.154,7.84C6.928,7.896 6.709,7.97 6.499,8.061C6.139,8.216 5.805,8.419 5.505,8.662C5.151,8.948 4.843,9.289 4.595,9.673C4.343,10.062 4.153,10.494 4.038,10.956C3.955,11.289 3.91,11.638 3.91,11.997C3.91,12.523 3.484,12.949 2.958,12.949C2.433,12.949 2.006,12.523 2.006,11.997V10.592V9.896V7.909ZM21.994,15.527V17.628H22C21.883,19.75 20.009,21.437 17.716,21.437C15.422,21.437 13.549,19.75 13.431,17.628H10.848H6.761C6.235,17.628 5.808,17.202 5.808,16.676C5.808,16.15 6.235,15.724 6.761,15.724H10.848H15.805C16.164,15.724 16.513,15.68 16.846,15.597C17.072,15.54 17.291,15.466 17.501,15.375C17.861,15.22 18.195,15.017 18.495,14.775C18.849,14.489 19.157,14.147 19.405,13.764C19.657,13.375 19.847,12.942 19.962,12.481C20.045,12.147 20.09,11.799 20.09,11.44C20.09,10.914 20.516,10.488 21.042,10.488C21.567,10.488 21.994,10.914 21.994,11.44V12.844V13.541V15.527Z" fill="#2c2c2c" fill-opacity="1.0" /></svg>