<?xml version="1.0" encoding="utf-8" ?>
<svg baseProfile="full" height="24.0" version="1.1" viewBox="0 0 24.0 24.0" width="24.0" xmlns="http://www.w3.org/2000/svg" xmlns:ev="http://www.w3.org/2001/xml-events" xmlns:xlink="http://www.w3.org/1999/xlink"><defs /><path d="M-6 7 C-6,7 -2,7 -2,7 C-2,7 -2,-7 -2,-7 C-2,-7 -6,-7 -6,-7 C-6,-7 -6,7 -6,7c" fill="#ffffff" fill-opacity="1.0" /><path d="M2 7 C2,7 6,7 6,7 C6,7 6,-0.12 6,-0.12 C6,-0.12 6,-7 6,-7 C6,-7 2,-7 2,-7 C2,-7 2,7 2,7c" fill="#ffffff" fill-opacity="1.0" /></svg>