<?xml version="1.0" encoding="utf-8" ?>
<svg baseProfile="full" height="20.0" version="1.1" viewBox="0 0 24.0 24.0" width="20.0" xmlns="http://www.w3.org/2000/svg" xmlns:ev="http://www.w3.org/2001/xml-events" xmlns:xlink="http://www.w3.org/1999/xlink"><defs /><path d="M11.29,14.71L7,10.41V13H5V7h6v2H8.41l4.29,4.29L11.29,14.71zM21,3H3C1.9,3 1,3.9 1,5v14c0,1.1 0.9,2 2,2h10v0v-2H3V5h18v8h2V5C23,3.9 22.1,3 21,3zM19,15c-1.66,0 -3,1.34 -3,3s1.34,3 3,3s3,-1.34 3,-3S20.66,15 19,15z" fill="#000000" fill-opacity="1.0" /></svg>