<?xml version="1.0" encoding="utf-8" ?>
<svg baseProfile="full" height="18.0" version="1.1" viewBox="0 0 18.0 18.0" width="18.0" xmlns="http://www.w3.org/2000/svg" xmlns:ev="http://www.w3.org/2001/xml-events" xmlns:xlink="http://www.w3.org/1999/xlink"><defs /><path d="M9,9m-9,0a9,9 0,1 1,18 0a9,9 0,1 1,-18 0" fill="#ffffff" fill-opacity="1.0" /><path d="M9,7.87 L6.6,5.46a0.81,0.81 0,0 0,-1.14 0h0a0.81,0.81 0,0 0,0 1.14L7.87,9 5.46,11.4a0.81,0.81 0,0 0,0 1.14h0a0.81,0.81 0,0 0,1.14 0L9,10.13l2.4,2.41a0.81,0.81 0,0 0,1.14 0h0a0.81,0.81 0,0 0,0 -1.14L10.13,9l2.41,-2.4a0.81,0.81 0,0 0,0 -1.14h0a0.81,0.81 0,0 0,-1.14 0Z" fill="#ffffff" fill-opacity="1.0" /></svg>