<?xml version="1.0" encoding="utf-8" ?>
<svg baseProfile="full" height="14.0" version="1.1" viewBox="0 0 36.0 42.0" width="12.0" xmlns="http://www.w3.org/2000/svg" xmlns:ev="http://www.w3.org/2001/xml-events" xmlns:xlink="http://www.w3.org/1999/xlink"><defs /><path d="M 12 8 L 12 34 C 12 35.1 11.1 36 10 36 C 8.9 36 8 35.1 8 34 L 8 8 C 8 6.9 8.9 6 10 6 C 11.1 6 12 6.9 12 8 Z M 28 8 L 28 34 C 28 35.1 27.1 36 26 36 C 24.9 36 24 35.1 24 34 L 24 8 C 24 6.9 24.9 6 26 6 C 27.1 6 28 6.9 28 8 Z" fill="#000000" fill-opacity="1.0" /></svg>