<?xml version="1.0" encoding="utf-8" ?>
<svg baseProfile="full" height="24.0" version="1.1" viewBox="0 0 24.0 24.0" width="24.0" xmlns="http://www.w3.org/2000/svg" xmlns:ev="http://www.w3.org/2001/xml-events" xmlns:xlink="http://www.w3.org/1999/xlink"><defs /><path d="M5.232,20.816C5.294,21.872 6.171,22.699 7.229,22.699H16.777C17.835,22.699 18.712,21.872 18.773,20.816L19.586,6.999H4.419L5.232,20.816ZM14.554,9.977C14.567,9.589 14.905,9.292 15.276,9.299C15.663,9.312 15.966,9.635 15.954,10.021L15.703,17.771C15.69,18.15 15.379,18.449 15.003,18.449C14.996,18.449 14.988,18.449 14.981,18.449C14.594,18.436 14.291,18.113 14.303,17.726L14.554,9.977ZM11.303,9.999C11.303,9.612 11.616,9.299 12.003,9.299C12.39,9.299 12.703,9.612 12.703,9.999V17.749C12.703,18.136 12.39,18.449 12.003,18.449C11.616,18.449 11.303,18.136 11.303,17.749V9.999ZM8.729,9.299C9.103,9.293 9.439,9.59 9.452,9.977L9.703,17.727C9.715,18.113 9.412,18.436 9.025,18.449C9.018,18.449 9.01,18.449 9.002,18.449C8.626,18.449 8.315,18.15 8.303,17.771L8.052,10.021C8.04,9.635 8.343,9.312 8.729,9.299ZM20.253,4.299H15.507L14.963,2.666C14.69,1.848 13.928,1.299 13.066,1.299H10.94C10.078,1.299 9.315,1.848 9.042,2.667L8.498,4.299H3.753C3.366,4.299 3.053,4.612 3.053,4.999C3.053,5.386 3.366,5.699 3.753,5.699H20.253C20.64,5.699 20.953,5.386 20.953,4.999C20.953,4.612 20.64,4.299 20.253,4.299ZM9.974,4.299L10.371,3.109C10.453,2.864 10.681,2.699 10.94,2.699H13.066C13.325,2.699 13.553,2.864 13.635,3.109L14.032,4.299H9.974Z" fill="#ffffff" fill-opacity="1.0" /></svg>