<?xml version="1.0" encoding="utf-8" ?>
<svg baseProfile="full" height="72.0" version="1.1" viewBox="0 0 114.0 72.0" width="114.0" xmlns="http://www.w3.org/2000/svg" xmlns:ev="http://www.w3.org/2001/xml-events" xmlns:xlink="http://www.w3.org/1999/xlink"><defs /><path d="M7.793,0L106.549,0A7.256,7.256 0,0 1,113.805 7.256L113.805,64.744A7.256,7.256 0,0 1,106.549 72L7.793,72A7.256,7.256 0,0 1,0.537 64.744L0.537,7.256A7.256,7.256 0,0 1,7.793 0z" fill="#61666b" fill-opacity="1.0" /><path d="M7.436,1.317L106.907,1.317A5.581,5.581 0,0 1,112.488 6.899L112.488,65.102A5.581,5.581 0,0 1,106.907 70.683L7.436,70.683A5.581,5.581 0,0 1,1.854 65.102L1.854,6.899A5.581,5.581 0,0 1,7.436 1.317z" fill="#404040" fill-opacity="1.0" /><path d="M41.806,68.049L72.537,68.049A0.439,0.439 0,0 1,72.976 68.488L72.976,68.488A0.439,0.439 0,0 1,72.537 68.927L41.806,68.927A0.439,0.439 0,0 1,41.367 68.488L41.367,68.488A0.439,0.439 0,0 1,41.806 68.049z" fill="#61666b" fill-opacity="1.0" /><path d="M17.364,35.402C17.22,35.684 17.22,36.053 17.22,36.79V37.844C17.22,38.582 17.22,38.95 17.364,39.232C17.49,39.48 17.692,39.681 17.939,39.808C18.221,39.951 18.59,39.951 19.328,39.951H20.381C21.119,39.951 21.488,39.951 21.769,39.808C22.017,39.681 22.219,39.48 22.345,39.232C22.489,38.95 22.489,38.582 22.489,37.844V36.79C22.489,36.053 22.489,35.684 22.345,35.402C22.219,35.154 22.017,34.953 21.769,34.826C21.488,34.683 21.119,34.683 20.381,34.683H19.328C18.59,34.683 18.221,34.683 17.939,34.826C17.692,34.953 17.49,35.154 17.364,35.402ZM32.29,35.402C32.147,35.684 32.147,36.053 32.147,36.79V37.844C32.147,38.582 32.147,38.95 32.29,39.232C32.417,39.48 32.618,39.681 32.866,39.808C33.148,39.951 33.516,39.951 34.254,39.951H35.308C36.046,39.951 36.414,39.951 36.696,39.808C36.944,39.681 37.145,39.48 37.272,39.232C37.415,38.95 37.415,38.582 37.415,37.844V36.79C37.415,36.053 37.415,35.684 37.272,35.402C37.145,35.154 36.944,34.953 36.696,34.826C36.414,34.683 36.046,34.683 35.308,34.683H34.254C33.516,34.683 33.148,34.683 32.866,34.826C32.618,34.953 32.417,35.154 32.29,35.402ZM47.074,36.79C47.074,36.053 47.074,35.684 47.217,35.402C47.344,35.154 47.545,34.953 47.793,34.826C48.075,34.683 48.444,34.683 49.181,34.683H50.235C50.972,34.683 51.341,34.683 51.623,34.826C51.871,34.953 52.072,35.154 52.199,35.402C52.342,35.684 52.342,36.053 52.342,36.79V37.844C52.342,38.582 52.342,38.95 52.199,39.232C52.072,39.48 51.871,39.681 51.623,39.808C51.341,39.951 50.972,39.951 50.235,39.951H49.181C48.444,39.951 48.075,39.951 47.793,39.808C47.545,39.681 47.344,39.48 47.217,39.232C47.074,38.95 47.074,38.582 47.074,37.844V36.79ZM77.071,35.402C76.927,35.684 76.927,36.053 76.927,36.79V37.844C76.927,38.582 76.927,38.95 77.071,39.232C77.197,39.48 77.399,39.681 77.647,39.808C77.928,39.951 78.297,39.951 79.035,39.951H80.088C80.826,39.951 81.195,39.951 81.477,39.808C81.724,39.681 81.926,39.48 82.052,39.232C82.196,38.95 82.196,38.582 82.196,37.844V36.79C82.196,36.053 82.196,35.684 82.052,35.402C81.926,35.154 81.724,34.953 81.477,34.826C81.195,34.683 80.826,34.683 80.088,34.683H79.035C78.297,34.683 77.928,34.683 77.647,34.826C77.399,34.953 77.197,35.154 77.071,35.402ZM91.854,36.79C91.854,36.053 91.854,35.684 91.998,35.402C92.124,35.154 92.326,34.953 92.574,34.826C92.855,34.683 93.224,34.683 93.962,34.683H95.015C95.753,34.683 96.122,34.683 96.404,34.826C96.651,34.953 96.853,35.154 96.979,35.402C97.123,35.684 97.123,36.053 97.123,36.79V37.844C97.123,38.582 97.123,38.95 96.979,39.232C96.853,39.48 96.651,39.681 96.404,39.808C96.122,39.951 95.753,39.951 95.015,39.951H93.962C93.224,39.951 92.855,39.951 92.574,39.808C92.326,39.681 92.124,39.48 91.998,39.232C91.854,38.95 91.854,38.582 91.854,37.844V36.79ZM62.144,35.402C62.001,35.684 62.001,36.053 62.001,36.79V37.844C62.001,38.582 62.001,38.95 62.144,39.232C62.271,39.48 62.472,39.681 62.72,39.808C63.002,39.951 63.37,39.951 64.108,39.951H65.162C65.899,39.951 66.268,39.951 66.55,39.808C66.798,39.681 66.999,39.48 67.126,39.232C67.269,38.95 67.269,38.582 67.269,37.844V36.79C67.269,36.053 67.269,35.684 67.126,35.402C66.999,35.154 66.798,34.953 66.55,34.826C66.268,34.683 65.899,34.683 65.162,34.683H64.108C63.37,34.683 63.002,34.683 62.72,34.826C62.472,34.953 62.271,35.154 62.144,35.402ZM17.22,46.449C17.22,45.711 17.22,45.342 17.364,45.061C17.49,44.813 17.691,44.611 17.939,44.485C18.221,44.341 18.59,44.341 19.327,44.341H20.381C21.119,44.341 21.488,44.341 21.769,44.485C22.017,44.611 22.219,44.813 22.345,45.061C22.489,45.342 22.489,45.711 22.489,46.449V47.502C22.489,48.24 22.489,48.609 22.345,48.891C22.219,49.138 22.017,49.34 21.769,49.466C21.488,49.61 21.119,49.61 20.381,49.61H19.327C18.59,49.61 18.221,49.61 17.939,49.466C17.691,49.34 17.49,49.138 17.364,48.891C17.22,48.609 17.22,48.24 17.22,47.502V46.449ZM32.29,45.061C32.147,45.342 32.147,45.711 32.147,46.449V47.502C32.147,48.24 32.147,48.609 32.29,48.891C32.417,49.138 32.618,49.34 32.866,49.466C33.148,49.61 33.516,49.61 34.254,49.61H35.308C36.045,49.61 36.414,49.61 36.696,49.466C36.944,49.34 37.145,49.138 37.271,48.891C37.415,48.609 37.415,48.24 37.415,47.502V46.449C37.415,45.711 37.415,45.342 37.271,45.061C37.145,44.813 36.944,44.611 36.696,44.485C36.414,44.341 36.045,44.341 35.308,44.341H34.254C33.516,44.341 33.148,44.341 32.866,44.485C32.618,44.611 32.417,44.813 32.29,45.061ZM47.074,46.449C47.074,45.711 47.074,45.342 47.217,45.061C47.344,44.813 47.545,44.611 47.793,44.485C48.075,44.341 48.444,44.341 49.181,44.341H50.235C50.972,44.341 51.341,44.341 51.623,44.485C51.871,44.611 52.072,44.813 52.199,45.061C52.342,45.342 52.342,45.711 52.342,46.449V47.502C52.342,48.24 52.342,48.609 52.199,48.891C52.072,49.138 51.871,49.34 51.623,49.466C51.341,49.61 50.972,49.61 50.235,49.61H49.181C48.444,49.61 48.075,49.61 47.793,49.466C47.545,49.34 47.344,49.138 47.217,48.891C47.074,48.609 47.074,48.24 47.074,47.502V46.449ZM77.071,45.061C76.927,45.342 76.927,45.711 76.927,46.449V47.502C76.927,48.24 76.927,48.609 77.071,48.891C77.197,49.138 77.399,49.34 77.646,49.466C77.928,49.61 78.297,49.61 79.035,49.61H80.088C80.826,49.61 81.195,49.61 81.477,49.466C81.724,49.34 81.926,49.138 82.052,48.891C82.196,48.609 82.196,48.24 82.196,47.502V46.449C82.196,45.711 82.196,45.342 82.052,45.061C81.926,44.813 81.724,44.611 81.477,44.485C81.195,44.341 80.826,44.341 80.088,44.341H79.035C78.297,44.341 77.928,44.341 77.646,44.485C77.399,44.611 77.197,44.813 77.071,45.061ZM91.854,46.449C91.854,45.711 91.854,45.342 91.998,45.061C92.124,44.813 92.326,44.611 92.574,44.485C92.855,44.341 93.224,44.341 93.962,44.341H95.015C95.753,44.341 96.122,44.341 96.404,44.485C96.651,44.611 96.853,44.813 96.979,45.061C97.123,45.342 97.123,45.711 97.123,46.449V47.502C97.123,48.24 97.123,48.609 96.979,48.891C96.853,49.138 96.651,49.34 96.404,49.466C96.122,49.61 95.753,49.61 95.015,49.61H93.962C93.224,49.61 92.855,49.61 92.574,49.466C92.326,49.34 92.124,49.138 91.998,48.891C91.854,48.609 91.854,48.24 91.854,47.502V46.449ZM62.144,45.061C62.001,45.342 62.001,45.711 62.001,46.449V47.502C62.001,48.24 62.001,48.609 62.144,48.891C62.271,49.138 62.472,49.34 62.72,49.466C63.002,49.61 63.37,49.61 64.108,49.61H65.162C65.899,49.61 66.268,49.61 66.55,49.466C66.798,49.34 66.999,49.138 67.126,48.891C67.269,48.609 67.269,48.24 67.269,47.502V46.449C67.269,45.711 67.269,45.342 67.126,45.061C66.999,44.813 66.798,44.611 66.55,44.485C66.268,44.341 65.899,44.341 65.162,44.341H64.108C63.37,44.341 63.002,44.341 62.72,44.485C62.472,44.611 62.271,44.813 62.144,45.061ZM17.22,63.132C17.22,62.394 17.22,62.025 17.364,61.743C17.49,61.496 17.691,61.294 17.939,61.168C18.221,61.024 18.59,61.024 19.327,61.024H20.381C21.119,61.024 21.488,61.024 21.769,61.168C22.017,61.294 22.219,61.496 22.345,61.743C22.489,62.025 22.489,62.394 22.489,63.132V64.185C22.489,64.923 22.489,65.292 22.345,65.574C22.219,65.821 22.017,66.023 21.769,66.149C21.488,66.293 21.119,66.293 20.381,66.293H19.327C18.59,66.293 18.221,66.293 17.939,66.149C17.691,66.023 17.49,65.821 17.364,65.574C17.22,65.292 17.22,64.923 17.22,64.185V63.132ZM32.29,61.743C32.147,62.025 32.147,62.394 32.147,63.132V64.185C32.147,64.923 32.147,65.292 32.29,65.574C32.417,65.821 32.618,66.023 32.866,66.149C33.148,66.293 33.516,66.293 34.254,66.293H35.308C36.045,66.293 36.414,66.293 36.696,66.149C36.944,66.023 37.145,65.821 37.271,65.574C37.415,65.292 37.415,64.923 37.415,64.185V63.132C37.415,62.394 37.415,62.025 37.271,61.743C37.145,61.496 36.944,61.294 36.696,61.168C36.414,61.024 36.045,61.024 35.308,61.024H34.254C33.516,61.024 33.148,61.024 32.866,61.168C32.618,61.294 32.417,61.496 32.29,61.743ZM47.074,63.132C47.074,62.394 47.074,62.025 47.217,61.743C47.344,61.496 47.545,61.294 47.793,61.168C48.075,61.024 48.444,61.024 49.181,61.024H50.235C50.972,61.024 51.341,61.024 51.623,61.168C51.871,61.294 52.072,61.496 52.199,61.743C52.342,62.025 52.342,62.394 52.342,63.132V64.185C52.342,64.923 52.342,65.292 52.199,65.574C52.072,65.821 51.871,66.023 51.623,66.149C51.341,66.293 50.972,66.293 50.235,66.293H49.181C48.444,66.293 48.075,66.293 47.793,66.149C47.545,66.023 47.344,65.821 47.217,65.574C47.074,65.292 47.074,64.923 47.074,64.185V63.132ZM77.071,61.743C76.927,62.025 76.927,62.394 76.927,63.132V64.185C76.927,64.923 76.927,65.292 77.071,65.574C77.197,65.821 77.399,66.023 77.646,66.149C77.928,66.293 78.297,66.293 79.035,66.293H80.088C80.826,66.293 81.195,66.293 81.477,66.149C81.724,66.023 81.926,65.821 82.052,65.574C82.196,65.292 82.196,64.923 82.196,64.185V63.132C82.196,62.394 82.196,62.025 82.052,61.743C81.926,61.496 81.724,61.294 81.477,61.168C81.195,61.024 80.826,61.024 80.088,61.024H79.035C78.297,61.024 77.928,61.024 77.646,61.168C77.399,61.294 77.197,61.496 77.071,61.743ZM91.854,63.132C91.854,62.394 91.854,62.025 91.998,61.743C92.124,61.496 92.326,61.294 92.574,61.168C92.855,61.024 93.224,61.024 93.962,61.024H95.015C95.753,61.024 96.122,61.024 96.404,61.168C96.651,61.294 96.853,61.496 96.979,61.743C97.123,62.025 97.123,62.394 97.123,63.132V64.185C97.123,64.923 97.123,65.292 96.979,65.574C96.853,65.821 96.651,66.023 96.404,66.149C96.122,66.293 95.753,66.293 95.015,66.293H93.962C93.224,66.293 92.855,66.293 92.574,66.149C92.326,66.023 92.124,65.821 91.998,65.574C91.854,65.292 91.854,64.923 91.854,64.185V63.132ZM62.144,61.743C62.001,62.025 62.001,62.394 62.001,63.132V64.185C62.001,64.923 62.001,65.292 62.144,65.574C62.271,65.821 62.472,66.023 62.72,66.149C63.002,66.293 63.37,66.293 64.108,66.293H65.162C65.899,66.293 66.268,66.293 66.55,66.149C66.798,66.023 66.999,65.821 67.126,65.574C67.269,65.292 67.269,64.923 67.269,64.185V63.132C67.269,62.394 67.269,62.025 67.126,61.743C66.999,61.496 66.798,61.294 66.55,61.168C66.268,61.024 65.899,61.024 65.162,61.024H64.108C63.37,61.024 63.002,61.024 62.72,61.168C62.472,61.294 62.271,61.496 62.144,61.743Z" fill="#45494d" fill-opacity="1.0" /><path d="M18.546,19.55L33.856,19.55A1.458,1.458 0,0 1,35.314 21.008L35.314,25.383A1.458,1.458 0,0 1,33.856 26.841L18.546,26.841A1.458,1.458 0,0 1,17.087 25.383L17.087,21.008A1.458,1.458 0,0 1,18.546 19.55z" fill="#52575c" fill-opacity="1.0" /><path d="M17.634,18.639L32.945,18.639A1.458,1.458 0,0 1,34.403 20.097L34.403,24.471A1.458,1.458 0,0 1,32.945 25.929L17.634,25.929A1.458,1.458 0,0 1,16.176 24.471L16.176,20.097A1.458,1.458 0,0 1,17.634 18.639z" fill="#52575c" fill-opacity="1.0" /><path d="M16.723,17.727L32.033,17.727A1.458,1.458 0,0 1,33.491 19.185L33.491,23.56A1.458,1.458 0,0 1,32.033 25.018L16.723,25.018A1.458,1.458 0,0 1,15.265 23.56L15.265,19.185A1.458,1.458 0,0 1,16.723 17.727z" fill="#52575c" fill-opacity="1.0" /><path d="M39.87,18.639L39.87,24.107L28.138,24.107L28.05,24.107C26.54,24.107 25.316,22.883 25.316,21.373V21.373C25.316,19.863 26.54,18.639 28.05,18.639L28.535,18.639L39.87,18.639Z" fill="#000000" fill-opacity="1.0" /><path d="M27.994,18.639a2.734,2.706 90,1 0,-0 5.468a2.734,2.706 90,1 0,-0 -5.468z" fill="#0a7ffb" fill-opacity="1.0" /></svg>