<?xml version="1.0" encoding="utf-8" ?>
<svg baseProfile="full" height="72.0" version="1.1" viewBox="0 0 114.0 72.0" width="114.0" xmlns="http://www.w3.org/2000/svg" xmlns:ev="http://www.w3.org/2001/xml-events" xmlns:xlink="http://www.w3.org/1999/xlink"><defs /><path d="M7.33,0L106.086,0A7.256,7.256 0,0 1,113.342 7.256L113.342,64.744A7.256,7.256 0,0 1,106.086 72L7.33,72A7.256,7.256 0,0 1,0.074 64.744L0.074,7.256A7.256,7.256 0,0 1,7.33 0z" fill="#61666b" fill-opacity="1.0" /><path d="M6.973,1.317L106.444,1.317A5.581,5.581 0,0 1,112.025 6.899L112.025,65.102A5.581,5.581 0,0 1,106.444 70.683L6.973,70.683A5.581,5.581 0,0 1,1.391 65.102L1.391,6.899A5.581,5.581 0,0 1,6.973 1.317z" fill="#404040" fill-opacity="1.0" /><path d="M41.343,68.049L72.074,68.049A0.439,0.439 0,0 1,72.513 68.488L72.513,68.488A0.439,0.439 0,0 1,72.074 68.927L41.343,68.927A0.439,0.439 0,0 1,40.904 68.488L40.904,68.488A0.439,0.439 0,0 1,41.343 68.049z" fill="#61666b" fill-opacity="1.0" /><path d="M16.901,35.402C16.757,35.684 16.757,36.053 16.757,36.79V37.844C16.757,38.582 16.757,38.95 16.901,39.232C17.027,39.48 17.229,39.681 17.476,39.808C17.758,39.951 18.127,39.951 18.865,39.951H19.918C20.656,39.951 21.025,39.951 21.306,39.808C21.554,39.681 21.756,39.48 21.882,39.232C22.026,38.95 22.026,38.582 22.026,37.844V36.79C22.026,36.053 22.026,35.684 21.882,35.402C21.756,35.154 21.554,34.953 21.306,34.826C21.025,34.683 20.656,34.683 19.918,34.683H18.865C18.127,34.683 17.758,34.683 17.476,34.826C17.229,34.953 17.027,35.154 16.901,35.402ZM31.827,35.402C31.684,35.684 31.684,36.053 31.684,36.79V37.844C31.684,38.582 31.684,38.95 31.827,39.232C31.954,39.48 32.155,39.681 32.403,39.808C32.685,39.951 33.054,39.951 33.791,39.951H34.845C35.583,39.951 35.951,39.951 36.233,39.808C36.481,39.681 36.682,39.48 36.809,39.232C36.952,38.95 36.952,38.582 36.952,37.844V36.79C36.952,36.053 36.952,35.684 36.809,35.402C36.682,35.154 36.481,34.953 36.233,34.826C35.951,34.683 35.583,34.683 34.845,34.683H33.791C33.054,34.683 32.685,34.683 32.403,34.826C32.155,34.953 31.954,35.154 31.827,35.402ZM46.611,36.79C46.611,36.053 46.611,35.684 46.755,35.402C46.881,35.154 47.082,34.953 47.33,34.826C47.612,34.683 47.981,34.683 48.718,34.683H49.772C50.51,34.683 50.878,34.683 51.16,34.826C51.408,34.953 51.609,35.154 51.736,35.402C51.879,35.684 51.879,36.053 51.879,36.79V37.844C51.879,38.582 51.879,38.95 51.736,39.232C51.609,39.48 51.408,39.681 51.16,39.808C50.878,39.951 50.51,39.951 49.772,39.951H48.718C47.981,39.951 47.612,39.951 47.33,39.808C47.082,39.681 46.881,39.48 46.755,39.232C46.611,38.95 46.611,38.582 46.611,37.844V36.79ZM76.608,35.402C76.465,35.684 76.465,36.053 76.465,36.79V37.844C76.465,38.582 76.465,38.95 76.608,39.232C76.734,39.48 76.936,39.681 77.184,39.808C77.465,39.951 77.834,39.951 78.572,39.951H79.626C80.363,39.951 80.732,39.951 81.014,39.808C81.261,39.681 81.463,39.48 81.589,39.232C81.733,38.95 81.733,38.582 81.733,37.844V36.79C81.733,36.053 81.733,35.684 81.589,35.402C81.463,35.154 81.261,34.953 81.014,34.826C80.732,34.683 80.363,34.683 79.626,34.683H78.572C77.834,34.683 77.465,34.683 77.184,34.826C76.936,34.953 76.734,35.154 76.608,35.402ZM91.392,36.79C91.392,36.053 91.392,35.684 91.535,35.402C91.661,35.154 91.863,34.953 92.111,34.826C92.392,34.683 92.761,34.683 93.499,34.683H94.552C95.29,34.683 95.659,34.683 95.941,34.826C96.188,34.953 96.39,35.154 96.516,35.402C96.66,35.684 96.66,36.053 96.66,36.79V37.844C96.66,38.582 96.66,38.95 96.516,39.232C96.39,39.48 96.188,39.681 95.941,39.808C95.659,39.951 95.29,39.951 94.552,39.951H93.499C92.761,39.951 92.392,39.951 92.111,39.808C91.863,39.681 91.661,39.48 91.535,39.232C91.392,38.95 91.392,38.582 91.392,37.844V36.79ZM61.681,35.402C61.538,35.684 61.538,36.053 61.538,36.79V37.844C61.538,38.582 61.538,38.95 61.681,39.232C61.808,39.48 62.009,39.681 62.257,39.808C62.539,39.951 62.908,39.951 63.645,39.951H64.699C65.437,39.951 65.805,39.951 66.087,39.808C66.335,39.681 66.536,39.48 66.663,39.232C66.806,38.95 66.806,38.582 66.806,37.844V36.79C66.806,36.053 66.806,35.684 66.663,35.402C66.536,35.154 66.335,34.953 66.087,34.826C65.805,34.683 65.437,34.683 64.699,34.683H63.645C62.908,34.683 62.539,34.683 62.257,34.826C62.009,34.953 61.808,35.154 61.681,35.402ZM16.757,46.449C16.757,45.711 16.757,45.342 16.901,45.061C17.027,44.813 17.229,44.611 17.476,44.485C17.758,44.341 18.127,44.341 18.865,44.341H19.918C20.656,44.341 21.025,44.341 21.306,44.485C21.554,44.611 21.756,44.813 21.882,45.061C22.026,45.342 22.026,45.711 22.026,46.449V47.502C22.026,48.24 22.026,48.609 21.882,48.891C21.756,49.138 21.554,49.34 21.306,49.466C21.025,49.61 20.656,49.61 19.918,49.61H18.865C18.127,49.61 17.758,49.61 17.476,49.466C17.229,49.34 17.027,49.138 16.901,48.891C16.757,48.609 16.757,48.24 16.757,47.502V46.449ZM31.827,45.061C31.684,45.342 31.684,45.711 31.684,46.449V47.502C31.684,48.24 31.684,48.609 31.827,48.891C31.954,49.138 32.155,49.34 32.403,49.466C32.685,49.61 33.054,49.61 33.791,49.61H34.845C35.583,49.61 35.951,49.61 36.233,49.466C36.481,49.34 36.682,49.138 36.809,48.891C36.952,48.609 36.952,48.24 36.952,47.502V46.449C36.952,45.711 36.952,45.342 36.809,45.061C36.682,44.813 36.481,44.611 36.233,44.485C35.951,44.341 35.583,44.341 34.845,44.341H33.791C33.054,44.341 32.685,44.341 32.403,44.485C32.155,44.611 31.954,44.813 31.827,45.061ZM46.611,46.449C46.611,45.711 46.611,45.342 46.754,45.061C46.881,44.813 47.082,44.611 47.33,44.485C47.612,44.341 47.981,44.341 48.718,44.341H49.772C50.509,44.341 50.878,44.341 51.16,44.485C51.408,44.611 51.609,44.813 51.736,45.061C51.879,45.342 51.879,45.711 51.879,46.449V47.502C51.879,48.24 51.879,48.609 51.736,48.891C51.609,49.138 51.408,49.34 51.16,49.466C50.878,49.61 50.509,49.61 49.772,49.61H48.718C47.981,49.61 47.612,49.61 47.33,49.466C47.082,49.34 46.881,49.138 46.754,48.891C46.611,48.609 46.611,48.24 46.611,47.502V46.449ZM76.608,45.061C76.465,45.342 76.465,45.711 76.465,46.449V47.502C76.465,48.24 76.465,48.609 76.608,48.891C76.734,49.138 76.936,49.34 77.184,49.466C77.465,49.61 77.834,49.61 78.572,49.61H79.626C80.363,49.61 80.732,49.61 81.014,49.466C81.261,49.34 81.463,49.138 81.589,48.891C81.733,48.609 81.733,48.24 81.733,47.502V46.449C81.733,45.711 81.733,45.342 81.589,45.061C81.463,44.813 81.261,44.611 81.014,44.485C80.732,44.341 80.363,44.341 79.626,44.341H78.572C77.834,44.341 77.465,44.341 77.184,44.485C76.936,44.611 76.734,44.813 76.608,45.061ZM91.392,46.449C91.392,45.711 91.392,45.342 91.535,45.061C91.661,44.813 91.863,44.611 92.111,44.485C92.392,44.341 92.761,44.341 93.499,44.341H94.552C95.29,44.341 95.659,44.341 95.941,44.485C96.188,44.611 96.39,44.813 96.516,45.061C96.66,45.342 96.66,45.711 96.66,46.449V47.502C96.66,48.24 96.66,48.609 96.516,48.891C96.39,49.138 96.188,49.34 95.941,49.466C95.659,49.61 95.29,49.61 94.552,49.61H93.499C92.761,49.61 92.392,49.61 92.111,49.466C91.863,49.34 91.661,49.138 91.535,48.891C91.392,48.609 91.392,48.24 91.392,47.502V46.449ZM61.681,45.061C61.538,45.342 61.538,45.711 61.538,46.449V47.502C61.538,48.24 61.538,48.609 61.681,48.891C61.808,49.138 62.009,49.34 62.257,49.466C62.539,49.61 62.908,49.61 63.645,49.61H64.699C65.437,49.61 65.805,49.61 66.087,49.466C66.335,49.34 66.536,49.138 66.663,48.891C66.806,48.609 66.806,48.24 66.806,47.502V46.449C66.806,45.711 66.806,45.342 66.663,45.061C66.536,44.813 66.335,44.611 66.087,44.485C65.805,44.341 65.437,44.341 64.699,44.341H63.645C62.908,44.341 62.539,44.341 62.257,44.485C62.009,44.611 61.808,44.813 61.681,45.061ZM16.757,63.132C16.757,62.394 16.757,62.025 16.901,61.743C17.027,61.496 17.229,61.294 17.476,61.168C17.758,61.024 18.127,61.024 18.865,61.024H19.918C20.656,61.024 21.025,61.024 21.306,61.168C21.554,61.294 21.756,61.496 21.882,61.743C22.026,62.025 22.026,62.394 22.026,63.132V64.185C22.026,64.923 22.026,65.292 21.882,65.574C21.756,65.821 21.554,66.023 21.306,66.149C21.025,66.293 20.656,66.293 19.918,66.293H18.865C18.127,66.293 17.758,66.293 17.476,66.149C17.229,66.023 17.027,65.821 16.901,65.574C16.757,65.292 16.757,64.923 16.757,64.185V63.132ZM31.827,61.743C31.684,62.025 31.684,62.394 31.684,63.132V64.185C31.684,64.923 31.684,65.292 31.827,65.574C31.954,65.821 32.155,66.023 32.403,66.149C32.685,66.293 33.054,66.293 33.791,66.293H34.845C35.583,66.293 35.951,66.293 36.233,66.149C36.481,66.023 36.682,65.821 36.809,65.574C36.952,65.292 36.952,64.923 36.952,64.185V63.132C36.952,62.394 36.952,62.025 36.809,61.743C36.682,61.496 36.481,61.294 36.233,61.168C35.951,61.024 35.583,61.024 34.845,61.024H33.791C33.054,61.024 32.685,61.024 32.403,61.168C32.155,61.294 31.954,61.496 31.827,61.743ZM46.611,63.132C46.611,62.394 46.611,62.025 46.754,61.743C46.881,61.496 47.082,61.294 47.33,61.168C47.612,61.024 47.981,61.024 48.718,61.024H49.772C50.509,61.024 50.878,61.024 51.16,61.168C51.408,61.294 51.609,61.496 51.736,61.743C51.879,62.025 51.879,62.394 51.879,63.132V64.185C51.879,64.923 51.879,65.292 51.736,65.574C51.609,65.821 51.408,66.023 51.16,66.149C50.878,66.293 50.509,66.293 49.772,66.293H48.718C47.981,66.293 47.612,66.293 47.33,66.149C47.082,66.023 46.881,65.821 46.754,65.574C46.611,65.292 46.611,64.923 46.611,64.185V63.132ZM76.608,61.743C76.465,62.025 76.465,62.394 76.465,63.132V64.185C76.465,64.923 76.465,65.292 76.608,65.574C76.734,65.821 76.936,66.023 77.184,66.149C77.465,66.293 77.834,66.293 78.572,66.293H79.626C80.363,66.293 80.732,66.293 81.014,66.149C81.261,66.023 81.463,65.821 81.589,65.574C81.733,65.292 81.733,64.923 81.733,64.185V63.132C81.733,62.394 81.733,62.025 81.589,61.743C81.463,61.496 81.261,61.294 81.014,61.168C80.732,61.024 80.363,61.024 79.626,61.024H78.572C77.834,61.024 77.465,61.024 77.184,61.168C76.936,61.294 76.734,61.496 76.608,61.743ZM91.392,63.132C91.392,62.394 91.392,62.025 91.535,61.743C91.661,61.496 91.863,61.294 92.111,61.168C92.392,61.024 92.761,61.024 93.499,61.024H94.552C95.29,61.024 95.659,61.024 95.941,61.168C96.188,61.294 96.39,61.496 96.516,61.743C96.66,62.025 96.66,62.394 96.66,63.132V64.185C96.66,64.923 96.66,65.292 96.516,65.574C96.39,65.821 96.188,66.023 95.941,66.149C95.659,66.293 95.29,66.293 94.552,66.293H93.499C92.761,66.293 92.392,66.293 92.111,66.149C91.863,66.023 91.661,65.821 91.535,65.574C91.392,65.292 91.392,64.923 91.392,64.185V63.132ZM61.681,61.743C61.538,62.025 61.538,62.394 61.538,63.132V64.185C61.538,64.923 61.538,65.292 61.681,65.574C61.808,65.821 62.009,66.023 62.257,66.149C62.539,66.293 62.908,66.293 63.645,66.293H64.699C65.437,66.293 65.805,66.293 66.087,66.149C66.335,66.023 66.536,65.821 66.663,65.574C66.806,65.292 66.806,64.923 66.806,64.185V63.132C66.806,62.394 66.806,62.025 66.663,61.743C66.536,61.496 66.335,61.294 66.087,61.168C65.805,61.024 65.437,61.024 64.699,61.024H63.645C62.908,61.024 62.539,61.024 62.257,61.168C62.009,61.294 61.808,61.496 61.681,61.743Z" fill="#45494d" fill-opacity="1.0" /><path d="M93.969,8.727L109.089,8.727A1.44,1.44 0,0 1,110.529 10.167L110.529,19.887A1.44,1.44 0,0 1,109.089 21.327L93.969,21.327A1.44,1.44 0,0 1,92.529 19.887L92.529,10.167A1.44,1.44 0,0 1,93.969 8.727z" fill="#52575c" fill-opacity="1.0" /><path d="M93.969,30.327L109.089,30.327A1.44,1.44 0,0 1,110.529 31.767L110.529,41.487A1.44,1.44 0,0 1,109.089 42.927L93.969,42.927A1.44,1.44 0,0 1,92.529 41.487L92.529,31.767A1.44,1.44 0,0 1,93.969 30.327z" fill="#52575c" fill-opacity="1.0" /><path d="M102.943,43.504L100.115,43.504A1.286,1.286 0,0 0,98.829 44.79L98.829,44.79A1.286,1.286 0,0 0,100.115 46.075L102.943,46.075A1.286,1.286 0,0 0,104.229 44.79L104.229,44.79A1.286,1.286 0,0 0,102.943 43.504z" fill="#52575c" fill-opacity="1.0" /><path d="M101.815,44.987L101.905,45.079L102.088,44.899L101.998,44.807L101.709,44.511L101.711,44.509L101.615,44.415L101.531,44.329L101.529,44.331L101.527,44.329L101.444,44.415L101.347,44.509L101.349,44.511L101.06,44.807L100.97,44.899L101.154,45.079L101.243,44.987L101.529,44.695L101.815,44.987Z" fill="#ffffff" fill-opacity="1.0" /><path d="M93.969,22.227L109.089,22.227A1.44,1.44 0,0 1,110.529 23.667L110.529,27.987A1.44,1.44 0,0 1,109.089 29.427L93.969,29.427A1.44,1.44 0,0 1,92.529 27.987L92.529,23.667A1.44,1.44 0,0 1,93.969 22.227z" fill="#52575c" fill-opacity="1.0" /><path d="M101.529,36.627m-3.6,0a3.6,3.6 0,1 1,7.2 0a3.6,3.6 0,1 1,-7.2 0" fill="#0a7ffb" fill-opacity="1.0" /><path d="M101.529,36.627m-2.314,0a2.314,2.314 0,1 1,4.629 0a2.314,2.314 0,1 1,-4.629 0" fill="#0a7ffb" fill-opacity="1.0" /></svg>