<?xml version="1.0" encoding="utf-8" ?>
<svg baseProfile="full" height="72.0" version="1.1" viewBox="0 0 114.0 72.0" width="114.0" xmlns="http://www.w3.org/2000/svg" xmlns:ev="http://www.w3.org/2001/xml-events" xmlns:xlink="http://www.w3.org/1999/xlink"><defs /><path d="M7.523,0L106.28,0A7.256,7.256 0,0 1,113.536 7.256L113.536,64.744A7.256,7.256 0,0 1,106.28 72L7.523,72A7.256,7.256 0,0 1,0.268 64.744L0.268,7.256A7.256,7.256 0,0 1,7.523 0z" fill="#61666b" fill-opacity="1.0" /><path d="M7.166,1.317L106.637,1.317A5.581,5.581 0,0 1,112.219 6.899L112.219,65.102A5.581,5.581 0,0 1,106.637 70.683L7.166,70.683A5.581,5.581 0,0 1,1.585 65.102L1.585,6.899A5.581,5.581 0,0 1,7.166 1.317z" fill="#404040" fill-opacity="1.0" /><path d="M41.536,68.049L72.268,68.049A0.439,0.439 0,0 1,72.707 68.488L72.707,68.488A0.439,0.439 0,0 1,72.268 68.927L41.536,68.927A0.439,0.439 0,0 1,41.097 68.488L41.097,68.488A0.439,0.439 0,0 1,41.536 68.049z" fill="#61666b" fill-opacity="1.0" /><path d="M17.094,35.402C16.951,35.684 16.951,36.053 16.951,36.79V37.844C16.951,38.582 16.951,38.95 17.094,39.232C17.221,39.48 17.422,39.681 17.67,39.808C17.952,39.951 18.32,39.951 19.058,39.951H20.112C20.849,39.951 21.218,39.951 21.5,39.808C21.748,39.681 21.949,39.48 22.076,39.232C22.219,38.95 22.219,38.582 22.219,37.844V36.79C22.219,36.053 22.219,35.684 22.076,35.402C21.949,35.154 21.748,34.953 21.5,34.826C21.218,34.683 20.849,34.683 20.112,34.683H19.058C18.32,34.683 17.952,34.683 17.67,34.826C17.422,34.953 17.221,35.154 17.094,35.402ZM32.021,35.402C31.877,35.684 31.877,36.053 31.877,36.79V37.844C31.877,38.582 31.877,38.95 32.021,39.232C32.147,39.48 32.349,39.681 32.597,39.808C32.878,39.951 33.247,39.951 33.985,39.951H35.038C35.776,39.951 36.145,39.951 36.426,39.808C36.674,39.681 36.876,39.48 37.002,39.232C37.146,38.95 37.146,38.582 37.146,37.844V36.79C37.146,36.053 37.146,35.684 37.002,35.402C36.876,35.154 36.674,34.953 36.426,34.826C36.145,34.683 35.776,34.683 35.038,34.683H33.985C33.247,34.683 32.878,34.683 32.597,34.826C32.349,34.953 32.147,35.154 32.021,35.402ZM46.804,36.79C46.804,36.053 46.804,35.684 46.948,35.402C47.074,35.154 47.276,34.953 47.523,34.826C47.805,34.683 48.174,34.683 48.912,34.683H49.965C50.703,34.683 51.072,34.683 51.354,34.826C51.601,34.953 51.803,35.154 51.929,35.402C52.073,35.684 52.073,36.053 52.073,36.79V37.844C52.073,38.582 52.073,38.95 51.929,39.232C51.803,39.48 51.601,39.681 51.354,39.808C51.072,39.951 50.703,39.951 49.965,39.951H48.912C48.174,39.951 47.805,39.951 47.523,39.808C47.276,39.681 47.074,39.48 46.948,39.232C46.804,38.95 46.804,38.582 46.804,37.844V36.79ZM76.801,35.402C76.658,35.684 76.658,36.053 76.658,36.79V37.844C76.658,38.582 76.658,38.95 76.801,39.232C76.928,39.48 77.129,39.681 77.377,39.808C77.659,39.951 78.028,39.951 78.765,39.951H79.819C80.557,39.951 80.925,39.951 81.207,39.808C81.455,39.681 81.656,39.48 81.783,39.232C81.926,38.95 81.926,38.582 81.926,37.844V36.79C81.926,36.053 81.926,35.684 81.783,35.402C81.656,35.154 81.455,34.953 81.207,34.826C80.925,34.683 80.557,34.683 79.819,34.683H78.765C78.028,34.683 77.659,34.683 77.377,34.826C77.129,34.953 76.928,35.154 76.801,35.402ZM91.585,36.79C91.585,36.053 91.585,35.684 91.729,35.402C91.855,35.154 92.056,34.953 92.304,34.826C92.586,34.683 92.955,34.683 93.692,34.683H94.746C95.483,34.683 95.852,34.683 96.134,34.826C96.382,34.953 96.583,35.154 96.71,35.402C96.853,35.684 96.853,36.053 96.853,36.79V37.844C96.853,38.582 96.853,38.95 96.71,39.232C96.583,39.48 96.382,39.681 96.134,39.808C95.852,39.951 95.483,39.951 94.746,39.951H93.692C92.955,39.951 92.586,39.951 92.304,39.808C92.056,39.681 91.855,39.48 91.729,39.232C91.585,38.95 91.585,38.582 91.585,37.844V36.79ZM61.875,35.402C61.731,35.684 61.731,36.053 61.731,36.79V37.844C61.731,38.582 61.731,38.95 61.875,39.232C62.001,39.48 62.203,39.681 62.45,39.808C62.732,39.951 63.101,39.951 63.839,39.951H64.892C65.63,39.951 65.999,39.951 66.28,39.808C66.528,39.681 66.73,39.48 66.856,39.232C67,38.95 67,38.582 67,37.844V36.79C67,36.053 67,35.684 66.856,35.402C66.73,35.154 66.528,34.953 66.28,34.826C65.999,34.683 65.63,34.683 64.892,34.683H63.839C63.101,34.683 62.732,34.683 62.45,34.826C62.203,34.953 62.001,35.154 61.875,35.402ZM16.951,46.449C16.951,45.711 16.951,45.342 17.094,45.061C17.221,44.813 17.422,44.611 17.67,44.485C17.952,44.341 18.32,44.341 19.058,44.341H20.112C20.849,44.341 21.218,44.341 21.5,44.485C21.748,44.611 21.949,44.813 22.075,45.061C22.219,45.342 22.219,45.711 22.219,46.449V47.502C22.219,48.24 22.219,48.609 22.075,48.891C21.949,49.138 21.748,49.34 21.5,49.466C21.218,49.61 20.849,49.61 20.112,49.61H19.058C18.32,49.61 17.952,49.61 17.67,49.466C17.422,49.34 17.221,49.138 17.094,48.891C16.951,48.609 16.951,48.24 16.951,47.502V46.449ZM32.021,45.061C31.877,45.342 31.877,45.711 31.877,46.449V47.502C31.877,48.24 31.877,48.609 32.021,48.891C32.147,49.138 32.349,49.34 32.596,49.466C32.878,49.61 33.247,49.61 33.985,49.61H35.038C35.776,49.61 36.145,49.61 36.426,49.466C36.674,49.34 36.876,49.138 37.002,48.891C37.146,48.609 37.146,48.24 37.146,47.502V46.449C37.146,45.711 37.146,45.342 37.002,45.061C36.876,44.813 36.674,44.611 36.426,44.485C36.145,44.341 35.776,44.341 35.038,44.341H33.985C33.247,44.341 32.878,44.341 32.596,44.485C32.349,44.611 32.147,44.813 32.021,45.061ZM46.804,46.449C46.804,45.711 46.804,45.342 46.948,45.061C47.074,44.813 47.276,44.611 47.523,44.485C47.805,44.341 48.174,44.341 48.912,44.341H49.965C50.703,44.341 51.072,44.341 51.353,44.485C51.601,44.611 51.803,44.813 51.929,45.061C52.072,45.342 52.072,45.711 52.072,46.449V47.502C52.072,48.24 52.072,48.609 51.929,48.891C51.803,49.138 51.601,49.34 51.353,49.466C51.072,49.61 50.703,49.61 49.965,49.61H48.912C48.174,49.61 47.805,49.61 47.523,49.466C47.276,49.34 47.074,49.138 46.948,48.891C46.804,48.609 46.804,48.24 46.804,47.502V46.449ZM76.801,45.061C76.658,45.342 76.658,45.711 76.658,46.449V47.502C76.658,48.24 76.658,48.609 76.801,48.891C76.928,49.138 77.129,49.34 77.377,49.466C77.659,49.61 78.027,49.61 78.765,49.61H79.819C80.557,49.61 80.925,49.61 81.207,49.466C81.455,49.34 81.656,49.138 81.783,48.891C81.926,48.609 81.926,48.24 81.926,47.502V46.449C81.926,45.711 81.926,45.342 81.783,45.061C81.656,44.813 81.455,44.611 81.207,44.485C80.925,44.341 80.557,44.341 79.819,44.341H78.765C78.027,44.341 77.659,44.341 77.377,44.485C77.129,44.611 76.928,44.813 76.801,45.061ZM91.585,46.449C91.585,45.711 91.585,45.342 91.728,45.061C91.855,44.813 92.056,44.611 92.304,44.485C92.586,44.341 92.954,44.341 93.692,44.341H94.746C95.483,44.341 95.852,44.341 96.134,44.485C96.382,44.611 96.583,44.813 96.71,45.061C96.853,45.342 96.853,45.711 96.853,46.449V47.502C96.853,48.24 96.853,48.609 96.71,48.891C96.583,49.138 96.382,49.34 96.134,49.466C95.852,49.61 95.483,49.61 94.746,49.61H93.692C92.954,49.61 92.586,49.61 92.304,49.466C92.056,49.34 91.855,49.138 91.728,48.891C91.585,48.609 91.585,48.24 91.585,47.502V46.449ZM61.875,45.061C61.731,45.342 61.731,45.711 61.731,46.449V47.502C61.731,48.24 61.731,48.609 61.875,48.891C62.001,49.138 62.202,49.34 62.45,49.466C62.732,49.61 63.101,49.61 63.839,49.61H64.892C65.63,49.61 65.999,49.61 66.28,49.466C66.528,49.34 66.73,49.138 66.856,48.891C66.999,48.609 66.999,48.24 66.999,47.502V46.449C66.999,45.711 66.999,45.342 66.856,45.061C66.73,44.813 66.528,44.611 66.28,44.485C65.999,44.341 65.63,44.341 64.892,44.341H63.839C63.101,44.341 62.732,44.341 62.45,44.485C62.202,44.611 62.001,44.813 61.875,45.061ZM16.951,63.132C16.951,62.394 16.951,62.025 17.094,61.743C17.221,61.496 17.422,61.294 17.67,61.168C17.952,61.024 18.32,61.024 19.058,61.024H20.112C20.849,61.024 21.218,61.024 21.5,61.168C21.748,61.294 21.949,61.496 22.075,61.743C22.219,62.025 22.219,62.394 22.219,63.132V64.185C22.219,64.923 22.219,65.292 22.075,65.574C21.949,65.821 21.748,66.023 21.5,66.149C21.218,66.293 20.849,66.293 20.112,66.293H19.058C18.32,66.293 17.952,66.293 17.67,66.149C17.422,66.023 17.221,65.821 17.094,65.574C16.951,65.292 16.951,64.923 16.951,64.185V63.132ZM32.021,61.743C31.877,62.025 31.877,62.394 31.877,63.132V64.185C31.877,64.923 31.877,65.292 32.021,65.574C32.147,65.821 32.349,66.023 32.596,66.149C32.878,66.293 33.247,66.293 33.985,66.293H35.038C35.776,66.293 36.145,66.293 36.426,66.149C36.674,66.023 36.876,65.821 37.002,65.574C37.146,65.292 37.146,64.923 37.146,64.185V63.132C37.146,62.394 37.146,62.025 37.002,61.743C36.876,61.496 36.674,61.294 36.426,61.168C36.145,61.024 35.776,61.024 35.038,61.024H33.985C33.247,61.024 32.878,61.024 32.596,61.168C32.349,61.294 32.147,61.496 32.021,61.743ZM46.804,63.132C46.804,62.394 46.804,62.025 46.948,61.743C47.074,61.496 47.276,61.294 47.523,61.168C47.805,61.024 48.174,61.024 48.912,61.024H49.965C50.703,61.024 51.072,61.024 51.353,61.168C51.601,61.294 51.803,61.496 51.929,61.743C52.072,62.025 52.072,62.394 52.072,63.132V64.185C52.072,64.923 52.072,65.292 51.929,65.574C51.803,65.821 51.601,66.023 51.353,66.149C51.072,66.293 50.703,66.293 49.965,66.293H48.912C48.174,66.293 47.805,66.293 47.523,66.149C47.276,66.023 47.074,65.821 46.948,65.574C46.804,65.292 46.804,64.923 46.804,64.185V63.132ZM76.801,61.743C76.658,62.025 76.658,62.394 76.658,63.132V64.185C76.658,64.923 76.658,65.292 76.801,65.574C76.928,65.821 77.129,66.023 77.377,66.149C77.659,66.293 78.027,66.293 78.765,66.293H79.819C80.557,66.293 80.925,66.293 81.207,66.149C81.455,66.023 81.656,65.821 81.783,65.574C81.926,65.292 81.926,64.923 81.926,64.185V63.132C81.926,62.394 81.926,62.025 81.783,61.743C81.656,61.496 81.455,61.294 81.207,61.168C80.925,61.024 80.557,61.024 79.819,61.024H78.765C78.027,61.024 77.659,61.024 77.377,61.168C77.129,61.294 76.928,61.496 76.801,61.743ZM91.585,63.132C91.585,62.394 91.585,62.025 91.728,61.743C91.855,61.496 92.056,61.294 92.304,61.168C92.586,61.024 92.954,61.024 93.692,61.024H94.746C95.483,61.024 95.852,61.024 96.134,61.168C96.382,61.294 96.583,61.496 96.71,61.743C96.853,62.025 96.853,62.394 96.853,63.132V64.185C96.853,64.923 96.853,65.292 96.71,65.574C96.583,65.821 96.382,66.023 96.134,66.149C95.852,66.293 95.483,66.293 94.746,66.293H93.692C92.954,66.293 92.586,66.293 92.304,66.149C92.056,66.023 91.855,65.821 91.728,65.574C91.585,65.292 91.585,64.923 91.585,64.185V63.132ZM61.875,61.743C61.731,62.025 61.731,62.394 61.731,63.132V64.185C61.731,64.923 61.731,65.292 61.875,65.574C62.001,65.821 62.202,66.023 62.45,66.149C62.732,66.293 63.101,66.293 63.839,66.293H64.892C65.63,66.293 65.999,66.293 66.28,66.149C66.528,66.023 66.73,65.821 66.856,65.574C66.999,65.292 66.999,64.923 66.999,64.185V63.132C66.999,62.394 66.999,62.025 66.856,61.743C66.73,61.496 66.528,61.294 66.28,61.168C65.999,61.024 65.63,61.024 64.892,61.024H63.839C63.101,61.024 62.732,61.024 62.45,61.168C62.202,61.294 62.001,61.496 61.875,61.743Z" fill="#45494d" fill-opacity="1.0" /><path d="M94.162,8.727L109.282,8.727A1.44,1.44 0,0 1,110.722 10.167L110.722,19.887A1.44,1.44 0,0 1,109.282 21.327L94.162,21.327A1.44,1.44 0,0 1,92.722 19.887L92.722,10.167A1.44,1.44 0,0 1,94.162 8.727z" fill="#52575c" fill-opacity="1.0" /><path d="M94.162,30.327L109.282,30.327A1.44,1.44 0,0 1,110.722 31.767L110.722,41.487A1.44,1.44 0,0 1,109.282 42.927L94.162,42.927A1.44,1.44 0,0 1,92.722 41.487L92.722,31.767A1.44,1.44 0,0 1,94.162 30.327z" fill="#52575c" fill-opacity="1.0" /><path d="M103.136,43.504L100.308,43.504A1.286,1.286 0,0 0,99.022 44.789L99.022,44.789A1.286,1.286 0,0 0,100.308 46.075L103.136,46.075A1.286,1.286 0,0 0,104.422 44.789L104.422,44.789A1.286,1.286 0,0 0,103.136 43.504z" fill="#52575c" fill-opacity="1.0" /><path d="M101.447,44.997L101.347,45.099L101.143,44.899L101.243,44.797L101.62,44.411L101.72,44.309L101.925,44.509L101.912,44.521L102.192,44.807L102.282,44.899L102.098,45.079L102.008,44.987L101.732,44.705L101.447,44.997Z" fill="#ffffff" fill-opacity="1.0" /><path d="M94.162,22.227L109.282,22.227A1.44,1.44 0,0 1,110.722 23.667L110.722,27.987A1.44,1.44 0,0 1,109.282 29.427L94.162,29.427A1.44,1.44 0,0 1,92.722 27.987L92.722,23.667A1.44,1.44 0,0 1,94.162 22.227z" fill="#52575c" fill-opacity="1.0" /><path d="M101.723,36.627m-3.6,0a3.6,3.6 0,1 1,7.2 0a3.6,3.6 0,1 1,-7.2 0" fill="#0a7ffb" fill-opacity="1.0" /><path d="M101.722,36.627m-2.314,0a2.314,2.314 0,1 1,4.629 0a2.314,2.314 0,1 1,-4.629 0" fill="#0a7ffb" fill-opacity="1.0" /></svg>