<?xml version="1.0" encoding="utf-8" ?>
<svg baseProfile="full" height="72.0" version="1.1" viewBox="0 0 115.0 72.0" width="115.0" xmlns="http://www.w3.org/2000/svg" xmlns:ev="http://www.w3.org/2001/xml-events" xmlns:xlink="http://www.w3.org/1999/xlink"><defs /><path d="M8.06,0L106.817,0A7.256,7.256 0,0 1,114.073 7.256L114.073,64.744A7.256,7.256 0,0 1,106.817 72L8.06,72A7.256,7.256 0,0 1,0.805 64.744L0.805,7.256A7.256,7.256 0,0 1,8.06 0z" fill="#61666b" fill-opacity="1.0" /><path d="M7.703,1.317L107.174,1.317A5.581,5.581 0,0 1,112.756 6.899L112.756,65.102A5.581,5.581 0,0 1,107.174 70.683L7.703,70.683A5.581,5.581 0,0 1,2.122 65.102L2.122,6.899A5.581,5.581 0,0 1,7.703 1.317z" fill="#404040" fill-opacity="1.0" /><path d="M42.073,68.049L72.805,68.049A0.439,0.439 0,0 1,73.244 68.488L73.244,68.488A0.439,0.439 0,0 1,72.805 68.927L42.073,68.927A0.439,0.439 0,0 1,41.634 68.488L41.634,68.488A0.439,0.439 0,0 1,42.073 68.049z" fill="#61666b" fill-opacity="1.0" /><path d="M17.631,35.402C17.488,35.684 17.488,36.053 17.488,36.79V37.844C17.488,38.582 17.488,38.95 17.631,39.232C17.758,39.48 17.959,39.681 18.207,39.808C18.489,39.951 18.858,39.951 19.595,39.951H20.649C21.386,39.951 21.755,39.951 22.037,39.808C22.285,39.681 22.486,39.48 22.613,39.232C22.756,38.95 22.756,38.582 22.756,37.844V36.79C22.756,36.053 22.756,35.684 22.613,35.402C22.486,35.154 22.285,34.953 22.037,34.826C21.755,34.683 21.386,34.683 20.649,34.683H19.595C18.858,34.683 18.489,34.683 18.207,34.826C17.959,34.953 17.758,35.154 17.631,35.402ZM32.558,35.402C32.414,35.684 32.414,36.053 32.414,36.79V37.844C32.414,38.582 32.414,38.95 32.558,39.232C32.684,39.48 32.886,39.681 33.134,39.808C33.415,39.951 33.784,39.951 34.522,39.951H35.575C36.313,39.951 36.682,39.951 36.964,39.808C37.211,39.681 37.413,39.48 37.539,39.232C37.683,38.95 37.683,38.582 37.683,37.844V36.79C37.683,36.053 37.683,35.684 37.539,35.402C37.413,35.154 37.211,34.953 36.964,34.826C36.682,34.683 36.313,34.683 35.575,34.683H34.522C33.784,34.683 33.415,34.683 33.134,34.826C32.886,34.953 32.684,35.154 32.558,35.402ZM47.341,36.79C47.341,36.053 47.341,35.684 47.485,35.402C47.611,35.154 47.813,34.953 48.061,34.826C48.342,34.683 48.711,34.683 49.449,34.683H50.502C51.24,34.683 51.609,34.683 51.891,34.826C52.138,34.953 52.34,35.154 52.466,35.402C52.61,35.684 52.61,36.053 52.61,36.79V37.844C52.61,38.582 52.61,38.95 52.466,39.232C52.34,39.48 52.138,39.681 51.891,39.808C51.609,39.951 51.24,39.951 50.502,39.951H49.449C48.711,39.951 48.342,39.951 48.061,39.808C47.813,39.681 47.611,39.48 47.485,39.232C47.341,38.95 47.341,38.582 47.341,37.844V36.79ZM77.339,35.402C77.195,35.684 77.195,36.053 77.195,36.79V37.844C77.195,38.582 77.195,38.95 77.339,39.232C77.465,39.48 77.666,39.681 77.914,39.808C78.196,39.951 78.565,39.951 79.302,39.951H80.356C81.094,39.951 81.463,39.951 81.744,39.808C81.992,39.681 82.193,39.48 82.32,39.232C82.463,38.95 82.463,38.582 82.463,37.844V36.79C82.463,36.053 82.463,35.684 82.32,35.402C82.193,35.154 81.992,34.953 81.744,34.826C81.463,34.683 81.094,34.683 80.356,34.683H79.302C78.565,34.683 78.196,34.683 77.914,34.826C77.666,34.953 77.465,35.154 77.339,35.402ZM92.122,36.79C92.122,36.053 92.122,35.684 92.266,35.402C92.392,35.154 92.593,34.953 92.841,34.826C93.123,34.683 93.492,34.683 94.229,34.683H95.283C96.021,34.683 96.389,34.683 96.671,34.826C96.919,34.953 97.12,35.154 97.247,35.402C97.39,35.684 97.39,36.053 97.39,36.79V37.844C97.39,38.582 97.39,38.95 97.247,39.232C97.12,39.48 96.919,39.681 96.671,39.808C96.389,39.951 96.021,39.951 95.283,39.951H94.229C93.492,39.951 93.123,39.951 92.841,39.808C92.593,39.681 92.392,39.48 92.266,39.232C92.122,38.95 92.122,38.582 92.122,37.844V36.79ZM62.412,35.402C62.268,35.684 62.268,36.053 62.268,36.79V37.844C62.268,38.582 62.268,38.95 62.412,39.232C62.538,39.48 62.74,39.681 62.987,39.808C63.269,39.951 63.638,39.951 64.376,39.951H65.429C66.167,39.951 66.536,39.951 66.818,39.808C67.065,39.681 67.267,39.48 67.393,39.232C67.537,38.95 67.537,38.582 67.537,37.844V36.79C67.537,36.053 67.537,35.684 67.393,35.402C67.267,35.154 67.065,34.953 66.818,34.826C66.536,34.683 66.167,34.683 65.429,34.683H64.376C63.638,34.683 63.269,34.683 62.987,34.826C62.74,34.953 62.538,35.154 62.412,35.402ZM17.488,46.449C17.488,45.711 17.488,45.342 17.631,45.061C17.758,44.813 17.959,44.611 18.207,44.485C18.489,44.341 18.858,44.341 19.595,44.341H20.649C21.386,44.341 21.755,44.341 22.037,44.485C22.285,44.611 22.486,44.813 22.612,45.061C22.756,45.342 22.756,45.711 22.756,46.449V47.502C22.756,48.24 22.756,48.609 22.612,48.891C22.486,49.138 22.285,49.34 22.037,49.466C21.755,49.61 21.386,49.61 20.649,49.61H19.595C18.858,49.61 18.489,49.61 18.207,49.466C17.959,49.34 17.758,49.138 17.631,48.891C17.488,48.609 17.488,48.24 17.488,47.502V46.449ZM32.558,45.061C32.414,45.342 32.414,45.711 32.414,46.449V47.502C32.414,48.24 32.414,48.609 32.558,48.891C32.684,49.138 32.886,49.34 33.133,49.466C33.415,49.61 33.784,49.61 34.522,49.61H35.575C36.313,49.61 36.682,49.61 36.964,49.466C37.211,49.34 37.413,49.138 37.539,48.891C37.683,48.609 37.683,48.24 37.683,47.502V46.449C37.683,45.711 37.683,45.342 37.539,45.061C37.413,44.813 37.211,44.611 36.964,44.485C36.682,44.341 36.313,44.341 35.575,44.341H34.522C33.784,44.341 33.415,44.341 33.133,44.485C32.886,44.611 32.684,44.813 32.558,45.061ZM47.341,46.449C47.341,45.711 47.341,45.342 47.485,45.061C47.611,44.813 47.813,44.611 48.061,44.485C48.342,44.341 48.711,44.341 49.449,44.341H50.502C51.24,44.341 51.609,44.341 51.89,44.485C52.138,44.611 52.34,44.813 52.466,45.061C52.61,45.342 52.61,45.711 52.61,46.449V47.502C52.61,48.24 52.61,48.609 52.466,48.891C52.34,49.138 52.138,49.34 51.89,49.466C51.609,49.61 51.24,49.61 50.502,49.61H49.449C48.711,49.61 48.342,49.61 48.061,49.466C47.813,49.34 47.611,49.138 47.485,48.891C47.341,48.609 47.341,48.24 47.341,47.502V46.449ZM77.339,45.061C77.195,45.342 77.195,45.711 77.195,46.449V47.502C77.195,48.24 77.195,48.609 77.339,48.891C77.465,49.138 77.666,49.34 77.914,49.466C78.196,49.61 78.565,49.61 79.302,49.61H80.356C81.094,49.61 81.462,49.61 81.744,49.466C81.992,49.34 82.193,49.138 82.32,48.891C82.463,48.609 82.463,48.24 82.463,47.502V46.449C82.463,45.711 82.463,45.342 82.32,45.061C82.193,44.813 81.992,44.611 81.744,44.485C81.462,44.341 81.094,44.341 80.356,44.341H79.302C78.565,44.341 78.196,44.341 77.914,44.485C77.666,44.611 77.465,44.813 77.339,45.061ZM92.122,46.449C92.122,45.711 92.122,45.342 92.266,45.061C92.392,44.813 92.593,44.611 92.841,44.485C93.123,44.341 93.492,44.341 94.229,44.341H95.283C96.021,44.341 96.389,44.341 96.671,44.485C96.919,44.611 97.12,44.813 97.247,45.061C97.39,45.342 97.39,45.711 97.39,46.449V47.502C97.39,48.24 97.39,48.609 97.247,48.891C97.12,49.138 96.919,49.34 96.671,49.466C96.389,49.61 96.021,49.61 95.283,49.61H94.229C93.492,49.61 93.123,49.61 92.841,49.466C92.593,49.34 92.392,49.138 92.266,48.891C92.122,48.609 92.122,48.24 92.122,47.502V46.449ZM62.412,45.061C62.268,45.342 62.268,45.711 62.268,46.449V47.502C62.268,48.24 62.268,48.609 62.412,48.891C62.538,49.138 62.74,49.34 62.987,49.466C63.269,49.61 63.638,49.61 64.376,49.61H65.429C66.167,49.61 66.536,49.61 66.817,49.466C67.065,49.34 67.267,49.138 67.393,48.891C67.537,48.609 67.537,48.24 67.537,47.502V46.449C67.537,45.711 67.537,45.342 67.393,45.061C67.267,44.813 67.065,44.611 66.817,44.485C66.536,44.341 66.167,44.341 65.429,44.341H64.376C63.638,44.341 63.269,44.341 62.987,44.485C62.74,44.611 62.538,44.813 62.412,45.061ZM17.488,63.132C17.488,62.394 17.488,62.025 17.631,61.743C17.758,61.496 17.959,61.294 18.207,61.168C18.489,61.024 18.858,61.024 19.595,61.024H20.649C21.386,61.024 21.755,61.024 22.037,61.168C22.285,61.294 22.486,61.496 22.612,61.743C22.756,62.025 22.756,62.394 22.756,63.132V64.185C22.756,64.923 22.756,65.292 22.612,65.574C22.486,65.821 22.285,66.023 22.037,66.149C21.755,66.293 21.386,66.293 20.649,66.293H19.595C18.858,66.293 18.489,66.293 18.207,66.149C17.959,66.023 17.758,65.821 17.631,65.574C17.488,65.292 17.488,64.923 17.488,64.185V63.132ZM32.558,61.743C32.414,62.025 32.414,62.394 32.414,63.132V64.185C32.414,64.923 32.414,65.292 32.558,65.574C32.684,65.821 32.886,66.023 33.133,66.149C33.415,66.293 33.784,66.293 34.522,66.293H35.575C36.313,66.293 36.682,66.293 36.964,66.149C37.211,66.023 37.413,65.821 37.539,65.574C37.683,65.292 37.683,64.923 37.683,64.185V63.132C37.683,62.394 37.683,62.025 37.539,61.743C37.413,61.496 37.211,61.294 36.964,61.168C36.682,61.024 36.313,61.024 35.575,61.024H34.522C33.784,61.024 33.415,61.024 33.133,61.168C32.886,61.294 32.684,61.496 32.558,61.743ZM47.341,63.132C47.341,62.394 47.341,62.025 47.485,61.743C47.611,61.496 47.813,61.294 48.061,61.168C48.342,61.024 48.711,61.024 49.449,61.024H50.502C51.24,61.024 51.609,61.024 51.89,61.168C52.138,61.294 52.34,61.496 52.466,61.743C52.61,62.025 52.61,62.394 52.61,63.132V64.185C52.61,64.923 52.61,65.292 52.466,65.574C52.34,65.821 52.138,66.023 51.89,66.149C51.609,66.293 51.24,66.293 50.502,66.293H49.449C48.711,66.293 48.342,66.293 48.061,66.149C47.813,66.023 47.611,65.821 47.485,65.574C47.341,65.292 47.341,64.923 47.341,64.185V63.132ZM77.339,61.743C77.195,62.025 77.195,62.394 77.195,63.132V64.185C77.195,64.923 77.195,65.292 77.339,65.574C77.465,65.821 77.666,66.023 77.914,66.149C78.196,66.293 78.565,66.293 79.302,66.293H80.356C81.094,66.293 81.462,66.293 81.744,66.149C81.992,66.023 82.193,65.821 82.32,65.574C82.463,65.292 82.463,64.923 82.463,64.185V63.132C82.463,62.394 82.463,62.025 82.32,61.743C82.193,61.496 81.992,61.294 81.744,61.168C81.462,61.024 81.094,61.024 80.356,61.024H79.302C78.565,61.024 78.196,61.024 77.914,61.168C77.666,61.294 77.465,61.496 77.339,61.743ZM92.122,63.132C92.122,62.394 92.122,62.025 92.266,61.743C92.392,61.496 92.593,61.294 92.841,61.168C93.123,61.024 93.492,61.024 94.229,61.024H95.283C96.021,61.024 96.389,61.024 96.671,61.168C96.919,61.294 97.12,61.496 97.247,61.743C97.39,62.025 97.39,62.394 97.39,63.132V64.185C97.39,64.923 97.39,65.292 97.247,65.574C97.12,65.821 96.919,66.023 96.671,66.149C96.389,66.293 96.021,66.293 95.283,66.293H94.229C93.492,66.293 93.123,66.293 92.841,66.149C92.593,66.023 92.392,65.821 92.266,65.574C92.122,65.292 92.122,64.923 92.122,64.185V63.132ZM62.412,61.743C62.268,62.025 62.268,62.394 62.268,63.132V64.185C62.268,64.923 62.268,65.292 62.412,65.574C62.538,65.821 62.74,66.023 62.987,66.149C63.269,66.293 63.638,66.293 64.376,66.293H65.429C66.167,66.293 66.536,66.293 66.817,66.149C67.065,66.023 67.267,65.821 67.393,65.574C67.537,65.292 67.537,64.923 67.537,64.185V63.132C67.537,62.394 67.537,62.025 67.393,61.743C67.267,61.496 67.065,61.294 66.817,61.168C66.536,61.024 66.167,61.024 65.429,61.024H64.376C63.638,61.024 63.269,61.024 62.987,61.168C62.74,61.294 62.538,61.496 62.412,61.743Z" fill="#45494d" fill-opacity="1.0" /><path d="M94.661,8.727L109.816,8.727A1.443,1.443 0,0 1,111.259 10.171L111.259,14.501A1.443,1.443 0,0 1,109.816 15.944L94.661,15.944A1.443,1.443 0,0 1,93.217 14.501L93.217,10.171A1.443,1.443 0,0 1,94.661 8.727z" fill="#52575c" fill-opacity="1.0" /><path d="M88.105,15.042L88.105,9.629L99.717,9.629L99.805,9.629C101.3,9.629 102.512,10.841 102.512,12.336V12.336C102.512,13.83 101.3,15.042 99.805,15.042L99.325,15.042L88.105,15.042Z" fill="#000000" fill-opacity="1.0" /><path d="M99.86,15.042a2.706,2.679 90,1 0,0 -5.413a2.706,2.679 90,1 0,0 5.413z" fill="#0a7ffb" fill-opacity="1.0" /></svg>