<?xml version="1.0" encoding="utf-8" ?>
<svg baseProfile="full" height="24.0" version="1.1" viewBox="0 0 24.0 24.0" width="24.0" xmlns="http://www.w3.org/2000/svg" xmlns:ev="http://www.w3.org/2001/xml-events" xmlns:xlink="http://www.w3.org/1999/xlink"><defs /><path d="M14.301,3.3C14.301,2.195 15.196,1.3 16.301,1.3H19.701C20.805,1.3 21.701,2.195 21.701,3.3V12.7C21.701,13.804 20.805,14.7 19.701,14.7H16.301C15.196,14.7 14.301,13.804 14.301,12.7V3.3ZM16.301,2.7C15.969,2.7 15.701,2.968 15.701,3.3V12.7C15.701,13.031 15.969,13.3 16.301,13.3H19.701C20.032,13.3 20.301,13.031 20.301,12.7V3.3C20.301,2.968 20.032,2.7 19.701,2.7H16.301ZM2.301,4.3C2.301,3.195 3.196,2.3 4.301,2.3H13.001V3.7H4.301C3.969,3.7 3.701,3.968 3.701,4.3V19.7C3.701,20.031 3.969,20.3 4.301,20.3H19.701C20.032,20.3 20.301,20.031 20.301,19.7V16H21.701V19.7C21.701,20.804 20.805,21.7 19.701,21.7H4.301C3.196,21.7 2.301,20.804 2.301,19.7V4.3ZM18.001,4.75C18.415,4.75 18.751,4.414 18.751,4C18.751,3.586 18.415,3.25 18.001,3.25C17.587,3.25 17.251,3.586 17.251,4C17.251,4.414 17.587,4.75 18.001,4.75Z" fill="#ffffff" fill-opacity="1.0" /></svg>