<?xml version="1.0" encoding="utf-8" ?>
<svg baseProfile="full" height="24.0" version="1.1" viewBox="0 0 24.0 24.0" width="24.0" xmlns="http://www.w3.org/2000/svg" xmlns:ev="http://www.w3.org/2001/xml-events" xmlns:xlink="http://www.w3.org/1999/xlink"><defs /><path d="M5.054,2.3H18.947C19.289,2.3 19.586,2.3 19.832,2.32C20.092,2.341 20.355,2.388 20.609,2.518C20.985,2.71 21.291,3.016 21.483,3.392C21.612,3.646 21.66,3.909 21.681,4.169C21.701,4.415 21.701,4.712 21.701,5.053V18.946C21.701,19.288 21.701,19.585 21.681,19.831C21.66,20.091 21.612,20.354 21.483,20.608C21.291,20.984 20.985,21.29 20.609,21.482C20.355,21.611 20.092,21.659 19.832,21.68C19.586,21.7 19.289,21.7 18.947,21.7H5.054C4.713,21.7 4.416,21.7 4.17,21.68C3.91,21.659 3.647,21.611 3.393,21.482C3.016,21.29 2.711,20.984 2.519,20.608C2.389,20.354 2.342,20.091 2.321,19.831C2.301,19.585 2.301,19.288 2.301,18.946V5.053C2.301,4.712 2.301,4.415 2.321,4.169C2.342,3.909 2.389,3.646 2.519,3.392C2.711,3.016 3.016,2.71 3.393,2.518C3.647,2.388 3.91,2.341 4.17,2.32C4.415,2.3 4.713,2.3 5.054,2.3ZM4.284,3.715C4.11,3.729 4.052,3.753 4.028,3.765C3.915,3.823 3.824,3.915 3.766,4.027C3.754,4.051 3.73,4.109 3.716,4.283C3.701,4.465 3.701,4.704 3.701,5.08V18.92C3.701,19.295 3.701,19.535 3.716,19.717C3.73,19.89 3.754,19.948 3.766,19.972C3.824,20.085 3.915,20.177 4.028,20.234C4.052,20.247 4.11,20.27 4.284,20.284C4.466,20.299 4.705,20.3 5.081,20.3H18.921C19.296,20.3 19.536,20.299 19.718,20.284C19.891,20.27 19.949,20.247 19.973,20.234C20.086,20.177 20.178,20.085 20.235,19.972C20.248,19.948 20.271,19.89 20.285,19.717C20.3,19.535 20.301,19.295 20.301,18.92V5.08C20.301,4.704 20.3,4.465 20.285,4.283C20.271,4.109 20.248,4.051 20.235,4.027C20.178,3.915 20.086,3.823 19.973,3.765C19.949,3.753 19.891,3.729 19.718,3.715C19.536,3.7 19.296,3.7 18.921,3.7H5.081C4.705,3.7 4.466,3.7 4.284,3.715Z" fill="#ffffff" fill-opacity="1.0" /><path d="M12.466,5.3C12.471,5.3 12.476,5.3 12.481,5.3H17.521C17.526,5.3 17.531,5.3 17.535,5.3C17.606,5.3 17.695,5.3 17.775,5.306C17.868,5.314 18.008,5.334 18.155,5.409C18.343,5.505 18.496,5.658 18.592,5.846C18.667,5.993 18.687,6.132 18.694,6.226C18.701,6.305 18.701,6.395 18.701,6.465C18.701,6.47 18.701,6.475 18.701,6.48V17.52C18.701,17.525 18.701,17.529 18.701,17.535C18.701,17.605 18.701,17.694 18.694,17.774C18.687,17.867 18.667,18.007 18.592,18.154C18.496,18.342 18.343,18.495 18.155,18.591C18.008,18.666 17.868,18.686 17.775,18.693C17.695,18.7 17.606,18.7 17.535,18.7C17.531,18.7 17.526,18.7 17.521,18.7H12.481C12.476,18.7 12.471,18.7 12.466,18.7C12.396,18.7 12.306,18.7 12.227,18.693C12.133,18.686 11.994,18.666 11.847,18.591C11.659,18.495 11.506,18.342 11.41,18.154C11.335,18.007 11.315,17.867 11.307,17.774C11.301,17.694 11.301,17.605 11.301,17.535C11.301,17.529 11.301,17.525 11.301,17.52V6.48C11.301,6.475 11.301,6.47 11.301,6.465C11.301,6.395 11.301,6.305 11.307,6.226C11.315,6.132 11.335,5.993 11.41,5.846C11.506,5.658 11.659,5.505 11.847,5.409C11.994,5.334 12.133,5.314 12.227,5.306C12.306,5.3 12.396,5.3 12.466,5.3ZM12.701,6.7V17.3H17.301V6.7H12.701Z" fill="#ffffff" fill-opacity="1.0" /></svg>