<?xml version="1.0" encoding="utf-8" ?>
<svg baseProfile="full" height="24.0" version="1.1" viewBox="0 0 25.0 24.0" width="25.0" xmlns="http://www.w3.org/2000/svg" xmlns:ev="http://www.w3.org/2001/xml-events" xmlns:xlink="http://www.w3.org/1999/xlink"><defs /><path d="M2.801,19.7C2.801,20.804 3.696,21.7 4.801,21.7H12.5C12.5,21.7 12.5,21.7 12.501,21.7C12.501,21.7 12.502,21.7 12.502,21.7H20.201C21.305,21.7 22.201,20.804 22.201,19.7V4.3C22.201,3.195 21.305,2.3 20.201,2.3H4.801C3.696,2.3 2.801,3.195 2.801,4.3V19.7ZM13.201,20.3H20.201C20.532,20.3 20.801,20.031 20.801,19.7V4.3C20.801,3.968 20.532,3.7 20.201,3.7L13.201,3.7L13.201,20.3ZM11.801,3.7L4.801,3.7C4.469,3.7 4.201,3.968 4.201,4.3L4.201,19.7C4.201,20.031 4.469,20.3 4.801,20.3H11.801L11.801,3.7Z" fill="#ffffff" fill-opacity="1.0" /></svg>