<?xml version="1.0" encoding="utf-8" ?>
<svg baseProfile="full" height="24.0" version="1.1" viewBox="0 0 24.0 24.0" width="24.0" xmlns="http://www.w3.org/2000/svg" xmlns:ev="http://www.w3.org/2001/xml-events" xmlns:xlink="http://www.w3.org/1999/xlink"><defs /><path d="M12,8c1.1,0 2,-0.9 2,-2s-0.9,-2 -2,-2c-1.1,0 -2,0.9 -2,2S10.9,8 12,8zM12,10c-1.1,0 -2,0.9 -2,2s0.9,2 2,2c1.1,0 2,-0.9 2,-2S13.1,10 12,10zM12,16c-1.1,0 -2,0.9 -2,2s0.9,2 2,2c1.1,0 2,-0.9 2,-2S13.1,16 12,16z" fill="#000000" fill-opacity="1.0" /></svg>