<?xml version="1.0" encoding="utf-8" ?>
<svg baseProfile="full" height="24.0" version="1.1" viewBox="0 0 24.0 24.0" width="24.0" xmlns="http://www.w3.org/2000/svg" xmlns:ev="http://www.w3.org/2001/xml-events" xmlns:xlink="http://www.w3.org/1999/xlink"><defs /><path d="M6.15 4.2002C5.79102 4.2002 5.5 4.4813 5.5 4.82806L5.5 19.1723C5.5 19.3389 5.56848 19.4986 5.69038 19.6163C5.81228 19.734 5.97761 19.8002 6.15 19.8002H9.15C9.50898 19.8002 9.8 19.5191 9.8 19.1723L9.8 4.82806C9.8 4.66154 9.73152 4.50184 9.60962 4.38409C9.48772 4.26635 9.32239 4.2002 9.15 4.2002H6.15ZM14.8502 4.2002C14.4912 4.2002 14.2002 4.48753 14.2002 4.84197L14.2002 19.1584C14.2002 19.3286 14.2687 19.4919 14.3906 19.6122C14.5125 19.7326 14.6778 19.8002 14.8502 19.8002L17.8502 19.8002C18.2092 19.8002 18.5002 19.5129 18.5002 19.1584L18.5002 4.84197C18.5002 4.67176 18.4317 4.50852 18.3098 4.38817C18.1879 4.26781 18.0226 4.2002 17.8502 4.2002H14.8502Z" fill="#ffffff" fill-opacity="1.0" /></svg>