<?xml version="1.0" encoding="utf-8" ?>
<svg baseProfile="full" height="20.0" version="1.1" viewBox="0 0 20.0 20.0" width="20.0" xmlns="http://www.w3.org/2000/svg" xmlns:ev="http://www.w3.org/2001/xml-events" xmlns:xlink="http://www.w3.org/1999/xlink"><defs /><path d="M7.25 5.18h8.61c0.34 0 0.66 0.14 0.9 0.37c0.23 0.24 0.36 0.56 0.36 0.9v7.1c0 0.34-0.13 0.66-0.37 0.9c-0.23 0.23-0.55 0.37-0.89 0.37H7.25c-0.19 0-0.37-0.04-0.54-0.12c-0.17-0.08-0.32-0.2-0.43-0.34l-3.2-3.87c-0.23-0.29-0.23-0.7 0-0.98l3.2-3.87C6.39 5.5 6.54 5.38 6.7 5.3c0.17-0.08 0.35-0.12 0.54-0.12zm0.03 1.33L4.4 10l2.88 3.49h8.51V6.5H7.3zM12.22 10l1.54 1.54l-0.94 0.94l-1.54-1.54l-1.54 1.54l-0.94-0.94L10.34 10L8.8 8.46l0.94-0.94l1.54 1.54l1.54-1.54l0.94 0.94L12.22 10z" fill="#000000" fill-opacity="0.8509803921568627" /></svg>