<?xml version="1.0" encoding="utf-8" ?>
<svg baseProfile="full" height="24.0" version="1.1" viewBox="0 0 24.0 24.0" width="24.0" xmlns="http://www.w3.org/2000/svg" xmlns:ev="http://www.w3.org/2001/xml-events" xmlns:xlink="http://www.w3.org/1999/xlink"><defs /><path d="M10.2289 2.78612H9.69397L9.48958 3.28042L8.22939 6.32804H3.14386V7.92804H5.00079V19.5266C5.00079 19.9736 5.17839 20.4024 5.4945 20.7185C5.81061 21.0346 6.23935 21.2122 6.6864 21.2122H17.3137C17.7608 21.2122 18.1895 21.0346 18.5056 20.7185C18.8217 20.4024 18.9993 19.9736 18.9993 19.5266V7.92804H20.856V6.32804H15.7708L14.5106 3.28042L14.3062 2.78612H13.7713H10.2289ZM7.56779 7.92804L7.56758 7.92855H8.76407H15.2361H16.4326L16.4324 7.92804H17.3993V19.5266C17.3993 19.5493 17.3903 19.571 17.3742 19.5871C17.3582 19.6032 17.3364 19.6122 17.3137 19.6122H6.6864C6.6637 19.6122 6.64192 19.6032 6.62587 19.5871C6.60981 19.571 6.60079 19.5493 6.60079 19.5266V7.92804H7.56779ZM14.0394 6.32804L13.2364 4.38612H10.7638L9.96078 6.32804H14.0394ZM9.42894 16.8731V10.6739H11.0289V16.8731H9.42894ZM12.9711 10.6739V16.8731H14.5711V10.6739H12.9711Z" fill="#000000" fill-opacity="1.0" /></svg>