<?xml version="1.0" encoding="utf-8" ?>
<svg baseProfile="full" height="36.0" version="1.1" viewBox="0 0 36.0 36.0" width="36.0" xmlns="http://www.w3.org/2000/svg" xmlns:ev="http://www.w3.org/2001/xml-events" xmlns:xlink="http://www.w3.org/1999/xlink"><defs /><path d="M12,8.25C11.1716,8.25 10.5,8.9216 10.5,9.75V26.85C10.5,27.6784 11.1716,28.35 12,28.35H14.25C15.0784,28.35 15.75,27.6784 15.75,26.85V9.75C15.75,8.9216 15.0784,8.25 14.25,8.25H12Z" fill="#000000" fill-opacity="1.0" /><path d="M22.5,8.25C21.6716,8.25 21,8.9216 21,9.75V26.85C21,27.6784 21.6716,28.35 22.5,28.35H24.75C25.5784,28.35 26.25,27.6784 26.25,26.85V9.75C26.25,8.9216 25.5784,8.25 24.75,8.25H22.5Z" fill="#000000" fill-opacity="1.0" /></svg>