<?xml version="1.0" encoding="utf-8" ?>
<svg baseProfile="full" height="42.0" version="1.1" viewBox="0 0 42.0 42.0" width="42.0" xmlns="http://www.w3.org/2000/svg" xmlns:ev="http://www.w3.org/2001/xml-events" xmlns:xlink="http://www.w3.org/1999/xlink"><defs /><path d="M21,21m-21,0a21,21 0,1 1,42 0a21,21 0,1 1,-42 0" fill="#ffffff" fill-opacity="1.0" /><path d="M31.478,11.701C31.181,11.573 30.878,11.579 30.62,11.607C30.369,11.635 30.062,11.696 29.715,11.767L29.685,11.773L12.59,15.227L12.558,15.233L12.558,15.233L12.558,15.233L12.558,15.233C12.149,15.316 11.796,15.387 11.525,15.468C11.262,15.547 10.929,15.672 10.698,15.955C10.403,16.315 10.292,16.79 10.396,17.243C10.479,17.6 10.722,17.859 10.922,18.046C11.13,18.239 11.415,18.459 11.745,18.714L11.745,18.714L11.771,18.734L16.806,22.628L24.38,17.263C24.695,17.039 25.132,17.114 25.356,17.429C25.579,17.745 25.505,18.182 25.189,18.405L17.964,23.524L25.311,29.207L25.335,29.225C25.604,29.433 25.842,29.618 26.048,29.749C26.261,29.885 26.523,30.02 26.837,30.041C27.263,30.068 27.684,29.924 28.003,29.639C28.238,29.431 28.361,29.163 28.445,28.925C28.527,28.695 28.602,28.403 28.686,28.073L28.686,28.073L28.686,28.073L28.694,28.044L32.182,14.401L32.19,14.371C32.278,14.028 32.355,13.725 32.395,13.476C32.436,13.219 32.458,12.916 32.345,12.613C32.193,12.204 31.88,11.874 31.478,11.701ZM16.869,24.328L20.648,27.254L17.773,28.851C16.848,29.365 15.76,28.517 16.03,27.495L16.869,24.328Z" fill="#ffffff" fill-opacity="1.0" /></svg>