<?xml version="1.0" encoding="utf-8" ?>
<svg baseProfile="full" height="30.0" version="1.1" viewBox="0 0 30.0 30.0" width="30.0" xmlns="http://www.w3.org/2000/svg" xmlns:ev="http://www.w3.org/2001/xml-events" xmlns:xlink="http://www.w3.org/1999/xlink"><defs /><path d="M11.0558 8.07446H11.0563H23.7692C24.2135 8.07446 24.6395 8.25094 24.9536 8.56506C25.2677 8.87918 25.4442 9.30523 25.4442 9.74946V20.2495C25.4442 20.6937 25.2677 21.1197 24.9536 21.4339C24.6395 21.748 24.2135 21.9245 23.7692 21.9245H11.0563H11.0558C10.8089 21.9243 10.5651 21.8695 10.3418 21.7641C10.1186 21.6587 9.92138 21.5053 9.76436 21.3148L4.974 15.5086L4.55396 14.9995L4.974 14.4903L9.76436 8.68416L9.76463 8.68384C9.92161 8.49347 10.1187 8.34013 10.3418 8.23478C10.5651 8.12938 10.8089 8.07463 11.0558 8.07446ZM11.0568 9.67446C11.0458 9.67449 11.0349 9.67694 11.0249 9.68164C11.0149 9.68636 11.0061 9.69323 10.9991 9.70176L10.9988 9.70209L6.62822 14.9995L10.9988 20.2968L10.9991 20.2972C11.0061 20.3057 11.0149 20.3126 11.0249 20.3173C11.0349 20.322 11.0458 20.3245 11.0569 20.3245H23.7692C23.7891 20.3245 23.8082 20.3166 23.8222 20.3025C23.8363 20.2884 23.8442 20.2694 23.8442 20.2495V9.74946C23.8442 9.72957 23.8363 9.71049 23.8222 9.69643C23.8082 9.68237 23.7891 9.67446 23.7692 9.67446H11.0568ZM17.9006 14.9995L20.3974 17.4963L19.2661 18.6276L16.7692 16.1308L14.2724 18.6276L13.1411 17.4963L15.6379 14.9995L13.1411 12.5026L14.2724 11.3713L16.7692 13.8681L19.2661 11.3713L20.3974 12.5026L17.9006 14.9995Z" fill="#e0e0e0" fill-opacity="1.0" /></svg>