<?xml version="1.0" encoding="utf-8" ?>
<svg baseProfile="full" height="34.0" version="1.1" viewBox="0 0 34.0 34.0" width="34.0" xmlns="http://www.w3.org/2000/svg" xmlns:ev="http://www.w3.org/2001/xml-events" xmlns:xlink="http://www.w3.org/1999/xlink"><defs /><path d="M22.93 11.7h-1.74c-0.23 0-0.46 0.1-0.62 0.26-0.17 0.17-0.26 0.4-0.26 0.63 0 0.23 0.1 0.46 0.26 0.62 0.16 0.17 0.39 0.26 0.62 0.26h4.64V8.84c0-0.24-0.1-0.46-0.26-0.63-0.17-0.16-0.4-0.26-0.63-0.26-0.23 0-0.45 0.1-0.62 0.26-0.17 0.17-0.26 0.4-0.26 0.63v1.5c-0.9-0.97-2-1.74-3.21-2.26C19.63 7.56 18.33 7.3 17 7.3 11.64 7.3 7.3 11.64 7.3 17c0 1.6 0.4 3.19 1.16 4.6 0.76 1.42 1.86 2.62 3.2 3.5 0.1 0.07 0.2 0.12 0.32 0.15 0.12 0.02 0.24 0.02 0.35 0 0.12-0.02 0.23-0.07 0.33-0.13 0.1-0.07 0.18-0.15 0.24-0.25 0.07-0.1 0.11-0.2 0.13-0.33 0.03-0.11 0.02-0.23 0-0.35-0.03-0.11-0.07-0.22-0.14-0.32s-0.16-0.17-0.26-0.24c-0.94-0.62-1.74-1.43-2.34-2.39-0.6-0.96-1-2.03-1.15-3.15-0.16-1.11-0.07-2.25 0.25-3.34 0.32-1.08 0.87-2.08 1.6-2.94 0.74-0.85 1.65-1.54 2.68-2.01 1.02-0.48 2.14-0.73 3.27-0.74 1.12-0.01 2.24 0.22 3.28 0.68 1.03 0.45 1.95 1.12 2.7 1.96Z" fill="#ffffff" fill-opacity="1.0" /><path d="M15.8 18.34c0.89 0 1.4-0.59 1.4-1.07h1.42v8.6H17.2v-6.12h-1.73v-1.41h0.33Zm5.27-0.98h4.27v1.41H22.2l-0.32 1.4c0.32-0.11 0.66-0.17 1-0.17 1.69 0 3.07 1.35 3.07 3.04 0 1.7-1.38 3.04-3.07 3.04-1.56 0-2.85-1.14-3.05-2.64l1.4-0.18c0.1 0.79 0.8 1.41 1.65 1.41 0.92 0 1.66-0.74 1.66-1.63 0-0.89-0.74-1.63-1.66-1.63-0.56 0-1.05 0.27-1.35 0.68l-0.02 0.02-0.21 0.27-1.24-0.6 1.01-4.42Z" fill="#ffffff" fill-opacity="1.0" /></svg>