<?xml version="1.0" encoding="utf-8" ?>
<svg baseProfile="full" height="34.0" version="1.1" viewBox="0 0 34.0 34.0" width="34.0" xmlns="http://www.w3.org/2000/svg" xmlns:ev="http://www.w3.org/2001/xml-events" xmlns:xlink="http://www.w3.org/1999/xlink"><defs /><path d="M11.17 7.12l15.88 9.17c0.13 0.07 0.23 0.17 0.3 0.3 0.07 0.12 0.11 0.27 0.11 0.41 0 0.14-0.04 0.29-0.1 0.41-0.08 0.13-0.18 0.23-0.31 0.3l-15.88 9.17c-0.12 0.07-0.26 0.1-0.4 0.1-0.15 0-0.3-0.03-0.42-0.1s-0.23-0.18-0.3-0.3c-0.07-0.13-0.11-0.27-0.11-0.41V7.83c0-0.14 0.04-0.28 0.1-0.4 0.08-0.13 0.19-0.24 0.31-0.3C10.48 7.04 10.62 7 10.76 7c0.15 0 0.29 0.04 0.41 0.11Z" fill="#ffffff" fill-opacity="1.0" /></svg>