<?xml version="1.0" encoding="utf-8" ?>
<svg baseProfile="full" height="34.0" version="1.1" viewBox="0 0 34.0 34.0" width="34.0" xmlns="http://www.w3.org/2000/svg" xmlns:ev="http://www.w3.org/2001/xml-events" xmlns:xlink="http://www.w3.org/1999/xlink"><defs /><path d="M9.59 6.4C9.37 6.4 9.16 6.5 9 6.66 8.85 6.8 8.76 7.01 8.76 7.23v19.54c0 0.22 0.09 0.43 0.24 0.58 0.16 0.15 0.37 0.24 0.59 0.24h3.06c0.21 0 0.42-0.09 0.58-0.24 0.15-0.15 0.24-0.36 0.24-0.58V7.23c0-0.22-0.09-0.43-0.24-0.58-0.16-0.15-0.37-0.24-0.58-0.24H9.59Zm11.76 0c-0.21 0-0.42 0.1-0.58 0.25-0.15 0.15-0.24 0.36-0.24 0.58v19.54c0 0.22 0.09 0.43 0.24 0.58 0.16 0.15 0.37 0.24 0.58 0.24h3.06c0.22 0 0.43-0.09 0.59-0.24 0.15-0.15 0.24-0.36 0.24-0.58V7.23c0-0.22-0.09-0.43-0.24-0.58-0.16-0.15-0.37-0.24-0.59-0.24h-3.06Z" fill="#ffffff" fill-opacity="1.0" /></svg>