<?xml version="1.0" encoding="utf-8" ?>
<svg baseProfile="full" height="16.0" version="1.1" viewBox="0 0 19.0 16.0" width="19.0" xmlns="http://www.w3.org/2000/svg" xmlns:ev="http://www.w3.org/2001/xml-events" xmlns:xlink="http://www.w3.org/1999/xlink"><defs /><path d="M6.224,8.315C6.042,8.132 6.042,7.837 6.224,7.655C7.711,6.168 10.131,6.168 11.618,7.655C11.8,7.837 11.8,8.132 11.618,8.315C11.526,8.406 11.407,8.451 11.288,8.451C11.168,8.451 11.049,8.406 10.958,8.315C9.835,7.192 8.007,7.192 6.885,8.315C6.702,8.497 6.407,8.497 6.224,8.315ZM12.339,6.933C12.43,7.024 12.55,7.07 12.669,7.07C12.788,7.07 12.908,7.024 12.999,6.933C13.182,6.751 13.182,6.455 12.999,6.273C10.75,4.024 7.092,4.024 4.843,6.273C4.661,6.455 4.661,6.751 4.843,6.933C5.025,7.115 5.321,7.115 5.503,6.933C7.387,5.048 10.455,5.048 12.339,6.933ZM14.721,2.113H3.121C2.386,2.113 1.788,2.712 1.788,3.447V9.714C1.788,10.449 2.386,11.047 3.121,11.047H5.551L6.484,10.113H3.121C2.9,10.113 2.721,9.934 2.721,9.714V3.447C2.721,3.226 2.9,3.047 3.121,3.047H14.721C14.942,3.047 15.121,3.226 15.121,3.447V9.714C15.121,9.934 14.942,10.113 14.721,10.113H11.358L12.291,11.047H14.721C15.456,11.047 16.055,10.449 16.055,9.714V3.447C16.055,2.712 15.456,2.113 14.721,2.113ZM9.85,9.831C9.337,9.32 8.505,9.32 7.992,9.831L4.907,12.917C4.773,13.05 4.734,13.251 4.806,13.425C4.878,13.6 5.048,13.714 5.237,13.714H12.605C12.794,13.714 12.964,13.6 13.036,13.425C13.109,13.251 13.069,13.05 12.935,12.917L9.85,9.831Z" fill="#ffffff" fill-opacity="1.0" /></svg>