<?xml version="1.0" encoding="utf-8" ?>
<svg baseProfile="full" height="14.0" version="1.1" viewBox="0 0 26.0 14.0" width="26.0" xmlns="http://www.w3.org/2000/svg" xmlns:ev="http://www.w3.org/2001/xml-events" xmlns:xlink="http://www.w3.org/1999/xlink"><defs /><path d="M7.516,0C6.935,0 6.382,0.253 6.002,0.693L1.057,6.419C0.609,6.938 0.627,7.712 1.099,8.209L6.009,13.377C6.387,13.775 6.911,14 7.459,14H23.267C24.372,14 25.267,13.105 25.267,12V2C25.267,0.895 24.372,0 23.267,0H7.516ZM12.894,4L11.951,4.943L13.991,6.983L12.024,8.95L12.967,9.893L14.934,7.926L16.901,9.893L17.844,8.95L15.877,6.983L17.917,4.943L16.974,4L14.934,6.04L12.894,4Z" fill="#ffffff" fill-opacity="1.0" /></svg>