<?xml version="1.0" encoding="utf-8" ?>
<svg baseProfile="full" height="12.0" version="1.1" viewBox="0 0 38.0 41.0" width="12.0" xmlns="http://www.w3.org/2000/svg" xmlns:ev="http://www.w3.org/2001/xml-events" xmlns:xlink="http://www.w3.org/1999/xlink"><defs /><path d="M0,-1h42v42h-42z" fill="#d8d8d8" fill-opacity="1.0" /><path d="M2.3185,18.6354C1.8515,19.4816 1.7717,20.437 2.0202,21.2975C2.2687,22.1581 2.8455,22.9238 3.6917,23.3908L30.3432,38.0987C30.8611,38.3844 31.4429,38.5343 32.0343,38.5343C33.0008,38.5343 33.8758,38.1426 34.5092,37.5092C35.1426,36.8758 35.5343,36.0008 35.5343,35.0343L35.5343,5.619C35.5343,5.0276 35.3844,4.4458 35.0987,3.928C34.6317,3.0818 33.866,2.505 33.0054,2.2564C32.1448,2.0079 31.1895,2.0877 30.3433,2.5547L3.6918,17.2621C3.1136,17.5812 2.6375,18.0573 2.3185,18.6354Z" fill="#000000" fill-opacity="0.0" /></svg>