<?xml version="1.0" encoding="utf-8" ?>
<svg baseProfile="full" height="36.0" version="1.1" viewBox="0 0 36.0 36.0" width="36.0" xmlns="http://www.w3.org/2000/svg" xmlns:ev="http://www.w3.org/2001/xml-events" xmlns:xlink="http://www.w3.org/1999/xlink"><defs /><path d="M0 18C0 8.05888 8.05888 0 18 0V0C27.9411 0 36 8.05888 36 18V18C36 27.9411 27.9411 36 18 36V36C8.05888 36 0 27.9411 0 18V18Z" fill="#ff7043" fill-opacity="1.0" /><path d="M7.875 11.025C7.875 9.90662 8.78162 9 9.9 9H26.1C27.2184 9 28.125 9.90662 28.125 11.025V24.975C28.125 26.0934 27.2184 27 26.1 27H7.875V11.025Z" fill="#ffffff" fill-opacity="1.0" /><path d="M15.5156 14.5437L11.8201 22.6073C11.8167 22.6148 11.8222 22.6233 11.8304 22.6233H24.1671C24.176 22.6233 24.1814 22.6134 24.1765 22.6059L20.9618 17.6628C20.9575 17.6562 20.948 17.6559 20.9433 17.6622L19.2486 19.9502C19.244 19.9564 19.2346 19.9562 19.2303 19.9498L15.5351 14.542C15.5302 14.5348 15.5193 14.5357 15.5156 14.5437Z" fill="#ff7043" fill-opacity="1.0" /><path d="M15.6791 16.3479L13.2155 21.7236H22.5291L20.9051 19.2264L19.972 20.4862C19.599 20.9897 18.8409 20.9752 18.4874 20.4579L15.6791 16.3479ZM14.6976 14.169C14.9929 13.5247 15.8785 13.4493 16.2784 14.0346L19.269 18.4112L20.2203 17.1268C20.5985 16.6163 21.37 16.6398 21.7164 17.1724L24.9312 22.1155C25.3254 22.7217 24.8904 23.5236 24.1673 23.5236H11.8305C11.1665 23.5236 10.7255 22.8362 11.0021 22.2327M11.0021 22.2327L14.6976 14.169V14.169" fill="#ff7043" fill-opacity="1.0" /><path d="M 22.8932 12.2124 C 23.7212847082 12.2124 24.39258 12.8840176468 24.39258 13.7125 C 24.39258 14.5409823532 23.7212847082 15.2126 22.8932 15.2126 C 22.0651152918 15.2126 21.39382 14.5409823532 21.39382 13.7125 C 21.39382 12.8840176468 22.0651152918 12.2124 22.8932 12.2124 Z" fill="#ff7043" fill-opacity="1.0" /></svg>