<?xml version="1.0" encoding="utf-8" ?>
<svg baseProfile="full" height="36.0" version="1.1" viewBox="0 0 36.0 36.0" width="36.0" xmlns="http://www.w3.org/2000/svg" xmlns:ev="http://www.w3.org/2001/xml-events" xmlns:xlink="http://www.w3.org/1999/xlink"><defs /><path d="M18,0L18,0A18,18 0,0 1,36 18L36,18A18,18 0,0 1,18 36L18,36A18,18 0,0 1,0 18L0,18A18,18 0,0 1,18 0z" fill="#ffc61a" fill-opacity="1.0" /><path d="M9,11.8125C9,10.8805 9.7555,10.125 10.6875,10.125H14.5751C15.0008,10.125 15.4107,10.2859 15.7228,10.5753L17.1565,11.9053H25.5447C26.4766,11.9053 27.2322,12.6608 27.2322,13.5928V14.3409H9V11.8125Z" fill="#ffffff" fill-opacity="1.0" /><path d="M9,23.9626C9,24.8945 9.7555,25.6501 10.6875,25.6501H15.2373H17.1565H25.5447C26.4766,25.6501 27.2322,24.8945 27.2322,23.9626V15.6236H9V23.9626Z" fill="#ffffff" fill-opacity="1.0" /></svg>