<?xml version="1.0" encoding="utf-8" ?>
<svg baseProfile="full" height="36.0" version="1.1" viewBox="0 0 36.0 36.0" width="36.0" xmlns="http://www.w3.org/2000/svg" xmlns:ev="http://www.w3.org/2001/xml-events" xmlns:xlink="http://www.w3.org/1999/xlink"><defs /><path d="M0 18C0 8.05887 8.05887 0 18 0V0C27.9411 0 36 8.05887 36 18V18C36 27.9411 27.9411 36 18 36V36C8.05887 36 0 27.9411 0 18V18Z" fill="#14cc57" fill-opacity="1.0" /><path d="M18.0007 14.062C19.4918 14.062 20.7005 12.8533 20.7005 11.3622C20.7005 9.87106 19.4918 8.66228 18.0007 8.66228C16.5096 8.66228 15.3008 9.87106 15.3008 11.3622C15.3008 12.8533 16.5096 14.062 18.0007 14.062Z" fill="#ffffff" fill-opacity="1.0" /><path d="M24.9841 16.8157C24.6634 15.5078 23.9766 14.3184 23.0042 13.3868C22.3332 12.7249 21.5338 12.2073 20.6553 11.8659" fill="#000000" fill-opacity="1.0" /><path d="M11.6999 24.8616C13.191 24.8616 14.3998 23.6528 14.3998 22.1617C14.3998 20.6706 13.191 19.4618 11.6999 19.4618C10.2088 19.4618 9 20.6706 9 22.1617C9 23.6528 10.2088 24.8616 11.6999 24.8616Z" fill="#ffffff" fill-opacity="1.0" /><path d="M12.9967 13.387C12.1754 14.1831 11.5547 15.1627 11.1855 16.2453C10.8162 17.3279 10.7091 18.4826 10.8728 19.6147" fill="#000000" fill-opacity="1.0" /><path d="M24.3 24.8616C25.7911 24.8616 26.9999 23.6528 26.9999 22.1617C26.9999 20.6706 25.7911 19.4618 24.3 19.4618C22.8089 19.4618 21.6001 20.6706 21.6001 22.1617C21.6001 23.6528 22.8089 24.8616 24.3 24.8616Z" fill="#ffffff" fill-opacity="1.0" /><path d="M16.0215 25.482C17.1215 25.7945 18.2799 25.8415 19.4016 25.6194C20.5233 25.3972 21.5763 24.9122 22.4742 24.2041" fill="#000000" fill-opacity="1.0" /></svg>