<?xml version="1.0" encoding="utf-8" ?>
<svg baseProfile="full" height="36.0" version="1.1" viewBox="0 0 36.0 36.0" width="36.0" xmlns="http://www.w3.org/2000/svg" xmlns:ev="http://www.w3.org/2001/xml-events" xmlns:xlink="http://www.w3.org/1999/xlink"><defs /><path d="M18,0L18,0A18,18 0,0 1,36 18L36,18A18,18 0,0 1,18 36L18,36A18,18 0,0 1,0 18L0,18A18,18 0,0 1,18 0z" fill="#007bff" fill-opacity="1.0" /><path d="M6.75,24.2698h3.2785v1.8084h-3.2785z" fill="#ffffff" fill-opacity="1.0" /><path d="M6.75,21.9114h3.2785v1.8084h-3.2785z" fill="#ffffff" fill-opacity="1.0" /><path d="M6.75,19.5545h3.2785v1.8084h-3.2785z" fill="#ffffff" fill-opacity="1.0" /><path d="M6.75,17.1974h3.2785v1.8084h-3.2785z" fill="#ffffff" fill-opacity="1.0" /><path d="M11.5994,24.2698h3.2785v1.8084h-3.2785z" fill="#ffffff" fill-opacity="1.0" /><path d="M11.5994,21.9114h3.2785v1.8084h-3.2785z" fill="#ffffff" fill-opacity="1.0" /><path d="M11.5994,19.5545h3.2785v1.8084h-3.2785z" fill="#ffffff" fill-opacity="1.0" /><path d="M11.5994,17.1974h3.2785v1.8084h-3.2785z" fill="#ffffff" fill-opacity="1.0" /><path d="M11.5994,14.8403h3.2785v1.8084h-3.2785z" fill="#ffffff" fill-opacity="1.0" /><path d="M11.5994,12.483h3.2785v1.8084h-3.2785z" fill="#ffffff" fill-opacity="1.0" /><path d="M11.5994,10.125h3.2785v1.8084h-3.2785z" fill="#ffffff" fill-opacity="1.0" /><path d="M16.2725,24.2698h3.2785v1.8084h-3.2785z" fill="#ffffff" fill-opacity="1.0" /><path d="M16.2725,21.9114h3.2785v1.8084h-3.2785z" fill="#ffffff" fill-opacity="1.0" /><path d="M16.2725,19.5545h3.2785v1.8084h-3.2785z" fill="#ffffff" fill-opacity="1.0" /><path d="M21.1216,24.2698h3.2785v1.8084h-3.2785z" fill="#ffffff" fill-opacity="1.0" /><path d="M21.1216,21.9114h3.2785v1.8084h-3.2785z" fill="#ffffff" fill-opacity="1.0" /><path d="M21.1216,19.5545h3.2785v1.8084h-3.2785z" fill="#ffffff" fill-opacity="1.0" /><path d="M21.1216,17.1974h3.2785v1.8084h-3.2785z" fill="#ffffff" fill-opacity="1.0" /><path d="M21.1216,14.8403h3.2785v1.8084h-3.2785z" fill="#ffffff" fill-opacity="1.0" /><path d="M25.9714,24.2698h3.2785v1.8084h-3.2785z" fill="#ffffff" fill-opacity="1.0" /><path d="M25.9714,21.9114h3.2785v1.8084h-3.2785z" fill="#ffffff" fill-opacity="1.0" /><path d="M25.9714,19.5524h3.2785v1.8084h-3.2785z" fill="#ffffff" fill-opacity="1.0" /></svg>