<?xml version="1.0" encoding="utf-8" ?>
<svg baseProfile="full" height="36.0" version="1.1" viewBox="0 0 36.0 36.0" width="36.0" xmlns="http://www.w3.org/2000/svg" xmlns:ev="http://www.w3.org/2001/xml-events" xmlns:xlink="http://www.w3.org/1999/xlink"><defs /><path d="M0 18C0 8.05887 8.05887 0 18 0V0C27.9411 0 36 8.05887 36 18V18C36 27.9411 27.9411 36 18 36V36C8.05887 36 0 27.9411 0 18V18Z" fill="#14cc57" fill-opacity="1.0" /><path d="M15.3468 9.67913H20.6106V8.10001H15.3468V9.67913ZM13.5926 10.7319C12.6721 10.7319 11.9258 11.4782 11.9258 12.3987V25.5581C11.9258 26.4787 12.6721 27.225 13.5926 27.225H22.3656C23.2862 27.225 24.0324 26.4787 24.0324 25.5581V12.3987C24.0324 11.4782 23.2862 10.7319 22.3656 10.7319H13.5926ZM18.6686 17.4117V14.3027L14.4754 19.6676H17.29V22.7765L21.4831 17.4117H18.6686Z" fill="#ffffff" fill-opacity="1.0" /></svg>