<?xml version="1.0" encoding="utf-8" ?>
<svg baseProfile="full" height="16.0" version="1.1" viewBox="0 0 18.0 16.0" width="18.0" xmlns="http://www.w3.org/2000/svg" xmlns:ev="http://www.w3.org/2001/xml-events" xmlns:xlink="http://www.w3.org/1999/xlink"><defs /><path d="M11 3H15V6.14H11z" fill="#000000" fill-opacity="0.2" /><path d="M11 6.14H15V12.5H11z" fill="#000000" fill-opacity="1.0" /><path d="M6.3 1.94c0.24-0.12 0.52-0.08 0.72 0.08l3 2.46c0.15 0.12 0.24 0.3 0.25 0.49 0 0.19-0.07 0.38-0.2 0.51l-2.54 2.5 2.54 2.54c0.14 0.14 0.2 0.32 0.2 0.51-0.01 0.2-0.1 0.37-0.25 0.5l-3 2.45c-0.2 0.16-0.48 0.2-0.72 0.08-0.23-0.1-0.38-0.35-0.38-0.6V9.56L4.07 11.4 3.9 11.57c-0.11 0.1-0.17 0.16-0.23 0.18H3.5c-0.06-0.03-0.11-0.08-0.22-0.19l-0.34-0.34c-0.1-0.1-0.16-0.16-0.18-0.22v-0.17c0.02-0.06 0.08-0.12 0.19-0.23l0.17-0.16 2.5-2.46-2.5-2.5L2.94 5.3C2.84 5.2 2.78 5.15 2.76 5.08V4.92C2.78 4.85 2.84 4.8 2.95 4.69l0.33-0.34C3.4 4.25 3.44 4.2 3.51 4.17c0.05-0.02 0.11-0.02 0.17 0C3.74 4.2 3.79 4.25 3.9 4.35l0.17 0.17 1.85 1.85V2.54c0-0.26 0.15-0.5 0.38-0.6Zm0.97 7.69v2.4l1.32-1.08-1.32-1.32Zm0-3.28V3.97l1.31 1.08-1.31 1.3Z" fill="#000000" fill-opacity="1.0" /></svg>