<?xml version="1.0" encoding="utf-8" ?>
<svg baseProfile="full" height="24.0" version="1.1" viewBox="0 0 24.0 24.0" width="24.0" xmlns="http://www.w3.org/2000/svg" xmlns:ev="http://www.w3.org/2001/xml-events" xmlns:xlink="http://www.w3.org/1999/xlink"><defs /><path d="M-1 6.17 C-1,6.17 0.88,4.29 0.88,4.29 C0.88,4.29 -1,2.41 -1,2.41 C-1,2.41 -1,6.17 -1,6.17c M0.88 -4.29 C0.88,-4.29 -1,-6.17 -1,-6.17 C-1,-6.17 -1,-2.41 -1,-2.41 C-1,-2.41 0.88,-4.29 0.88,-4.29c M-2 -10 C-2,-10 3.71,-4.29 3.71,-4.29 C3.71,-4.29 -0.59,0 -0.59,0 C-0.59,0 3.71,4.29 3.71,4.29 C3.71,4.29 -2,10 -2,10 C-2,10 -3,10 -3,10 C-3,10 -3,2.41 -3,2.41 C-3,2.41 -7.59,7 -7.59,7 C-7.59,7 -9.01,5.59 -9.01,5.59 C-9.01,5.59 -3.41,0 -3.41,0 C-3.41,0 -9.01,-5.59 -9.01,-5.59 C-9.01,-5.59 -7.59,-7 -7.59,-7 C-7.59,-7 -3,-2.41 -3,-2.41 C-3,-2.41 -3,-10 -3,-10 C-3,-10 -2,-10 -2,-10c" fill="#ffffff" fill-opacity="1.0" /><path d="M-9.09 -1.5 C-8.26,-1.5 -7.59,-0.83 -7.59,0 C-7.59,0.83 -8.26,1.5 -9.09,1.5 C-9.91,1.5 -10.59,0.83 -10.59,0 C-10.59,-0.83 -9.91,-1.5 -9.09,-1.5c" fill="#ffffff" fill-opacity="1.0" /><path d="M4.92 -1.5 C5.75,-1.5 6.42,-0.83 6.42,0 C6.42,0.83 5.75,1.5 4.92,1.5 C4.09,1.5 3.42,0.83 3.42,0 C3.42,-0.83 4.09,-1.5 4.92,-1.5c" fill="#ffffff" fill-opacity="1.0" /></svg>