<?xml version="1.0" encoding="utf-8" ?>
<svg baseProfile="full" height="24.0" version="1.1" viewBox="0 0 24.0 24.0" width="24.0" xmlns="http://www.w3.org/2000/svg" xmlns:ev="http://www.w3.org/2001/xml-events" xmlns:xlink="http://www.w3.org/1999/xlink"><defs /><path d="M13.766,4.286C13.766,4.043 13.62,3.824 13.396,3.731C13.172,3.638 12.913,3.69 12.742,3.861L8.782,7.821C8.686,7.917 8.555,7.971 8.419,7.971H5.709C4.762,7.971 3.995,8.739 3.995,9.686V14.314C3.995,15.261 4.762,16.028 5.709,16.028H8.419C8.555,16.028 8.686,16.083 8.782,16.179L12.742,20.139C12.913,20.31 13.172,20.361 13.396,20.269C13.62,20.176 13.766,19.957 13.766,19.714V4.286Z" fill="#ffffff" fill-opacity="1.0" /><path d="M15.783,9.526C16.251,10.236 16.524,11.086 16.524,12C16.524,12.914 16.251,13.764 15.783,14.474" fill="#ffffff" fill-opacity="0.0" /><path d="M17.953,7.606C18.864,8.834 19.403,10.354 19.403,12C19.403,13.646 18.864,15.167 17.953,16.394" fill="#ffffff" fill-opacity="0.0" /></svg>