<?xml version="1.0" encoding="utf-8" ?>
<svg baseProfile="full" height="28.0" version="1.1" viewBox="0 0 28.0 28.0" width="28.0" xmlns="http://www.w3.org/2000/svg" xmlns:ev="http://www.w3.org/2001/xml-events" xmlns:xlink="http://www.w3.org/1999/xlink"><defs /><path d="M16.063,5C16.063,4.717 15.892,4.462 15.631,4.353C15.369,4.245 15.068,4.305 14.868,4.505L10.249,9.124C10.136,9.237 9.984,9.3 9.825,9.3H6.663C5.559,9.3 4.663,10.195 4.663,11.3V16.7C4.663,17.805 5.558,18.7 6.663,18.7H9.825C9.984,18.7 10.136,18.763 10.249,18.876L14.868,23.495C15.068,23.695 15.369,23.755 15.631,23.647C15.892,23.538 16.063,23.283 16.063,23V5Z" fill="#000000" fill-opacity="1.0" /><path d="M18.414,11.113C18.96,11.942 19.278,12.934 19.278,14C19.278,15.066 18.96,16.058 18.414,16.886" fill="#000000" fill-opacity="0.0" /><path d="M20.945,8.874C22.008,10.306 22.637,12.08 22.637,14C22.637,15.921 22.008,17.694 20.945,19.126" fill="#000000" fill-opacity="0.0" /></svg>