<?xml version="1.0" encoding="utf-8" ?>
<svg baseProfile="full" height="24.0" version="1.1" viewBox="0 0 24.0 24.0" width="24.0" xmlns="http://www.w3.org/2000/svg" xmlns:ev="http://www.w3.org/2001/xml-events" xmlns:xlink="http://www.w3.org/1999/xlink"><defs /><path d="M11.568,1.096C11.917,0.931 12.33,0.981 12.629,1.226L18.132,5.726C18.352,5.906 18.485,6.17 18.498,6.454C18.512,6.737 18.404,7.013 18.202,7.212L13.379,11.967L18.206,16.793C18.406,16.993 18.512,17.268 18.498,17.55C18.484,17.832 18.351,18.095 18.132,18.274L12.629,22.774C12.33,23.019 11.917,23.069 11.568,22.904C11.219,22.738 10.996,22.386 10.996,22V14.317L7.198,18.062L6.842,18.413C6.646,18.607 6.329,18.604 6.135,18.408L5.433,17.696C5.239,17.499 5.241,17.183 5.438,16.989L5.794,16.638L10.541,11.957L5.789,7.207L5.436,6.854C5.24,6.659 5.24,6.342 5.435,6.147L6.142,5.439C6.338,5.244 6.654,5.244 6.85,5.439L7.203,5.793L10.996,9.585V2C10.996,1.614 11.219,1.262 11.568,1.096ZM12.996,14.412V19.891L16.011,17.426L12.996,14.412ZM12.996,9.536V4.109L16.005,6.57L12.996,9.536Z" fill="#000000" fill-opacity="0.2" /></svg>