<?xml version="1.0" encoding="utf-8" ?>
<svg baseProfile="full" height="24.0" version="1.1" viewBox="0 0 24.0 24.0" width="24.0" xmlns="http://www.w3.org/2000/svg" xmlns:ev="http://www.w3.org/2001/xml-events" xmlns:xlink="http://www.w3.org/1999/xlink"><defs /><path d="M2.99 6.15C1.93 7.8 1.32 9.77 1.32 11.88c0 1.85 0.27 3.91 1.06 5.7 0.09 0.2 0.27 0.34 0.48 0.39L2.9 18.4c0.15 1.76 1.72 3.04 3.46 2.89 0.65-0.06 1.16-0.63 1.1-1.3L6.93 14c-0.05-0.67-0.65-1.15-1.3-1.09-1.19 0.1-2.18 0.86-2.65 1.88-0.18-0.96-0.26-1.96-0.26-2.92 0-1.72 0.47-3.33 1.28-4.71L3 6.15ZM3.82 5l1 1 11.9 11.9 2.9 2.9 1.89 1.88c0.27 0.27 0.71 0.27 0.99 0 0.27-0.28 0.27-0.72 0-1l-1.88-1.87c0.26-0.41 0.44-0.9 0.48-1.42l0.04-0.43c0.2-0.05 0.38-0.2 0.47-0.4 0.8-1.78 1.06-3.84 1.06-5.7C22.67 5.99 17.9 1.2 12 1.2 9.22 1.2 6.7 2.26 4.8 4L2.5 1.7c-0.28-0.28-0.72-0.28-1 0-0.27 0.27-0.27 0.71 0 0.99L3.83 5Zm1.96-0.02l11.1 11.1 0.19-2.08c0.05-0.67 0.65-1.15 1.3-1.09 1.18 0.1 2.18 0.85 2.64 1.87 0.18-0.96 0.26-1.95 0.26-2.91 0-5.12-4.15-9.28-9.27-9.28C9.6 2.6 7.43 3.5 5.78 5Z" fill="#000000" fill-opacity="1.0" /></svg>