<?xml version="1.0" encoding="utf-8" ?>
<svg baseProfile="full" height="24.0" version="1.1" viewBox="0 0 24.0 24.0" width="24.0" xmlns="http://www.w3.org/2000/svg" xmlns:ev="http://www.w3.org/2001/xml-events" xmlns:xlink="http://www.w3.org/1999/xlink"><defs /><path d="M1.32 11.88C1.32 5.98 6.11 1.2 12 1.2c5.9 0 10.68 4.78 10.68 10.68 0 1.85-0.27 3.91-1.06 5.69-0.1 0.2-0.27 0.35-0.47 0.4L21.1 18.4c-0.16 1.75-1.73 3.04-3.47 2.89-0.65-0.06-1.15-0.64-1.1-1.3L17.08 14c0.06-0.67 0.65-1.15 1.3-1.1 1.19 0.11 2.18 0.86 2.64 1.87 0.19-0.95 0.27-1.94 0.27-2.9 0-5.13-4.16-9.28-9.28-9.28-5.12 0-9.28 4.15-9.28 9.28 0 0.96 0.08 1.96 0.27 2.92 0.46-1.03 1.46-1.78 2.64-1.88 0.66-0.06 1.25 0.42 1.3 1.09l0.53 5.98c0.06 0.66-0.44 1.24-1.1 1.3-1.73 0.15-3.3-1.14-3.46-2.9l-0.04-0.42c-0.2-0.05-0.39-0.2-0.48-0.4-0.79-1.78-1.06-3.84-1.06-5.7Z" fill="#000000" fill-opacity="1.0" /></svg>