<?xml version="1.0" encoding="utf-8" ?>
<svg baseProfile="full" height="32.0" version="1.1" viewBox="0 0 32.0 32.0" width="32.0" xmlns="http://www.w3.org/2000/svg" xmlns:ev="http://www.w3.org/2001/xml-events" xmlns:xlink="http://www.w3.org/1999/xlink"><defs /><path d="M16 5.1c5.9 0 10.7 4.78 10.7 10.7 0 1.25-0.15 2.5-0.43 3.71l-0.13 0.5c-0.18 0.68-0.37 1.2-0.5 1.49-0.1 0.22-0.3 0.37-0.53 0.4h-0.03l-0.05 0.47c-0.16 1.39-1.3 2.45-2.67 2.53h-0.17l-0.34-0.01-0.33-0.04c-0.65-0.08-1.13-0.67-1.05-1.33l0.69-5.96c0.07-0.6 0.58-1.06 1.26-1.06l0.4 0.04c1 0.12 1.84 0.75 2.25 1.6l0.03 0.06 0.07-0.45c0.06-0.48 0.1-0.97 0.12-1.47l0.01-0.49c0-5.13-4.17-9.3-9.3-9.3-5.13 0-9.3 4.17-9.3 9.3 0 0.66 0.05 1.31 0.13 1.96L6.9 18.2l0.03-0.06c0.4-0.8 1.15-1.41 2.09-1.58l0.16-0.02 0.17-0.02 0.25-0.02c0.65 0 1.17 0.44 1.24 1.06l0.69 5.96c0.08 0.66-0.4 1.25-1.05 1.33l-0.34 0.04-0.33 0.01c-1.45 0-2.67-1.09-2.84-2.53L6.9 21.9H6.9c-0.2-0.04-0.37-0.15-0.48-0.32l-0.05-0.1c-0.13-0.29-0.32-0.8-0.5-1.48l-0.13-0.5c-0.28-1.2-0.43-2.46-0.43-3.72C5.3 9.9 10.1 5.1 16 5.1Z" fill="#5c5c5c" fill-opacity="0.8" /></svg>