<?xml version="1.0" encoding="utf-8" ?>
<svg baseProfile="full" height="32.0" version="1.1" viewBox="0 0 32.0 32.0" width="32.0" xmlns="http://www.w3.org/2000/svg" xmlns:ev="http://www.w3.org/2001/xml-events" xmlns:xlink="http://www.w3.org/1999/xlink"><defs /><path d="M26.7 15.8c0-5.92-4.8-10.7-10.7-10.7-2.88 0-5.5 1.13-7.42 2.99L6 5.5c-0.28-0.28-0.72-0.28-1 0C4.74 5.78 4.74 6.22 5 6.5l20 20c0.28 0.27 0.72 0.27 1 0 0.27-0.28 0.27-0.72 0-1l-1.62-1.61c0.35-0.42 0.58-0.94 0.65-1.52l0.05-0.46h0.03c0.23-0.04 0.43-0.19 0.53-0.41 0.13-0.3 0.32-0.8 0.5-1.5l0.13-0.49c0.28-1.2 0.43-2.46 0.43-3.72Zm-5.86 4.55l0.32-2.79c0.07-0.6 0.58-1.06 1.26-1.06l0.4 0.04c1 0.12 1.84 0.75 2.25 1.6l0.03 0.06 0.07-0.45c0.06-0.48 0.1-0.97 0.12-1.47l0.01-0.49c0-5.13-4.17-9.3-9.3-9.3-2.5 0-4.76 0.99-6.43 2.59l11.27 11.27ZM5.3 15.79c0-2.01 0.56-3.9 1.52-5.5l1.03 1.03c-0.73 1.32-1.15 2.85-1.15 4.47 0 0.66 0.05 1.31 0.13 1.96L6.9 18.2l0.03-0.06c0.4-0.8 1.15-1.41 2.09-1.58l0.16-0.02 0.17-0.02 0.25-0.02c0.65 0 1.17 0.44 1.24 1.06l0.69 5.96c0.08 0.66-0.4 1.25-1.05 1.33l-0.34 0.04-0.33 0.01c-1.45 0-2.67-1.09-2.84-2.53L6.9 21.9H6.9c-0.2-0.04-0.37-0.15-0.48-0.32l-0.05-0.1c-0.13-0.29-0.32-0.8-0.5-1.48l-0.13-0.5c-0.28-1.2-0.43-2.46-0.43-3.72Z" fill="#5c5c5c" fill-opacity="0.8" /></svg>