<?xml version="1.0" encoding="utf-8" ?>
<svg baseProfile="full" height="32.0" version="1.1" viewBox="0 0 32.0 32.0" width="32.0" xmlns="http://www.w3.org/2000/svg" xmlns:ev="http://www.w3.org/2001/xml-events" xmlns:xlink="http://www.w3.org/1999/xlink"><defs /><path d="M7.1 12.61c-1.94-1.94-2.44-4.98-0.65-6.77 1.7-1.7 4.53-1.33 6.47 0.37-0.36 0.03-0.72 0.1-1.07 0.23-1.2 0.43-2.27 1.27-2.95 2.46-0.87 1.5-0.95 3.24-0.4 4.74l0.01 0.04c-0.5-0.28-0.99-0.64-1.42-1.07Zm5.19-4.95c0.62-0.22 1.27-0.2 1.86 0.01 0.71 0.27 1.33 0.82 1.66 1.53 0.55 1.22 0.59 2.63-0.1 3.83-0.6 1.04-1.62 1.69-2.74 1.92L12.72 15c-1.26 0.15-2.54-0.55-3-1.8-0.43-1.16-0.36-2.49 0.3-3.64 0.53-0.91 1.34-1.55 2.27-1.89Zm0.5 3.6c-0.54 0.94-0.57 1.93-0.08 2.22 0.5 0.29 1.35-0.24 1.89-1.18 0.54-0.94 0.57-1.93 0.08-2.22-0.5-0.29-1.35 0.24-1.89 1.18Zm-5.49 3.2c0.92 0.6 1.97 1.02 3.04 1.16 0.43 0.23 0.89 0.39 1.36 0.47V20c0 1.21-0.99 2.2-2.2 2.2-1.22 0-2.2-0.99-2.2-2.2v-5.55Zm18.12-3.62c1.79 1.8 1.29 4.83-0.65 6.77-0.43 0.43-0.9 0.79-1.42 1.07l0.02-0.04c0.55-1.5 0.47-3.23-0.4-4.74-0.69-1.19-1.75-2.03-2.95-2.46-0.36-0.13-0.72-0.2-1.07-0.23 1.94-1.7 4.77-2.07 6.47-0.37Zm-7.7 1.83c0.58-0.2 1.23-0.23 1.86 0 0.92 0.33 1.74 0.97 2.26 1.88 0.67 1.15 0.73 2.48 0.3 3.64-0.45 1.23-1.7 1.94-2.95 1.8-0.1 0-0.2-0.02-0.3-0.04-1.12-0.23-2.13-0.88-2.73-1.92-0.7-1.2-0.66-2.6-0.1-3.83 0.33-0.71 0.94-1.26 1.66-1.53Zm1.43 5.8c0.5-0.28 0.46-1.27-0.08-2.21s-1.38-1.47-1.88-1.18c-0.5 0.29-0.46 1.28 0.08 2.22 0.54 0.94 1.38 1.47 1.88 1.18Zm5.42 0.98c-0.92 0.62-1.98 1.03-3.05 1.17-0.42 0.23-0.88 0.39-1.35 0.47V25c0 1.21 0.98 2.2 2.2 2.2 1.21 0 2.2-0.99 2.2-2.2v-5.55Z" fill="#5c5c5c" fill-opacity="0.8" /></svg>