<?xml version="1.0" encoding="utf-8" ?>
<svg baseProfile="full" height="32.0" version="1.1" viewBox="0 0 32.0 32.0" width="32.0" xmlns="http://www.w3.org/2000/svg" xmlns:ev="http://www.w3.org/2001/xml-events" xmlns:xlink="http://www.w3.org/1999/xlink"><defs /><path d="M9.57 12.71l-1.42-0.9c-0.02-0.98 0.21-1.99 0.75-2.9 0.68-1.2 1.75-2.04 2.95-2.47 0.35-0.13 0.71-0.2 1.07-0.23-1.94-1.7-4.77-2.07-6.47-0.37C5.3 7 5.09 8.64 5.6 10.2l-0.23-0.14c-0.32-0.21-0.75-0.11-0.96 0.21-0.2 0.33-0.11 0.76 0.22 0.97L17.2 19.2l0.51 0.33 2.47 1.56 4.39 2.78 2.06 1.3c0.32 0.2 0.75 0.11 0.96-0.22 0.2-0.32 0.11-0.75-0.22-0.96l-2.8-1.78v-2.76c-0.8 0.53-1.7 0.92-2.62 1.1l-1.27-0.8c0.66-0.3 1.2-0.84 1.47-1.56 0.42-1.16 0.36-2.49-0.3-3.64-0.53-0.91-1.35-1.55-2.27-1.89-0.63-0.22-1.28-0.2-1.86 0.01-0.72 0.27-1.33 0.82-1.66 1.53-0.34 0.75-0.49 1.58-0.39 2.38l-2.6-1.65c1.09-0.25 2.06-0.89 2.64-1.9 0.69-1.2 0.65-2.6 0.1-3.83-0.33-0.71-0.95-1.26-1.66-1.53-0.59-0.2-1.24-0.23-1.86 0-0.93 0.33-1.74 0.97-2.27 1.88-0.57 1-0.7 2.13-0.45 3.16ZM24.51 25.5l-4.34-2.75V25c0 1.21 0.98 2.2 2.2 2.2 1.04 0 1.92-0.73 2.14-1.71ZM7.3 14.59l4.4 2.79V20c0 1.21-0.99 2.2-2.2 2.2-1.22 0-2.2-0.99-2.2-2.2v-5.41Zm11.85 3.89c-0.1 0.06-0.23 0.08-0.36 0.07l-1.16-0.73c-0.13-0.16-0.25-0.33-0.36-0.52-0.54-0.94-0.58-1.93-0.08-2.22 0.5-0.29 1.34 0.24 1.88 1.18 0.54 0.94 0.58 1.93 0.08 2.22Zm-6.36-7.22c-0.54 0.94-0.57 1.93-0.08 2.22 0.5 0.29 1.34-0.24 1.89-1.18 0.54-0.94 0.57-1.93 0.08-2.22-0.5-0.29-1.35 0.24-1.89 1.18Zm12.63-0.42c1.79 1.8 1.29 4.83-0.65 6.77-0.43 0.43-0.9 0.79-1.42 1.07l0.02-0.04c0.55-1.5 0.47-3.23-0.4-4.74-0.69-1.19-1.75-2.03-2.95-2.46-0.36-0.13-0.72-0.2-1.07-0.23 1.94-1.7 4.77-2.07 6.47-0.37Z" fill="#5c5c5c" fill-opacity="0.8" /></svg>