<?xml version="1.0" encoding="utf-8" ?>
<svg baseProfile="full" height="12.0" version="1.1" viewBox="0 0 12.0 12.0" width="12.0" xmlns="http://www.w3.org/2000/svg" xmlns:ev="http://www.w3.org/2001/xml-events" xmlns:xlink="http://www.w3.org/1999/xlink"><defs /><path d="M11.2721,5.4412C11.4788,5.245 11.5518,4.957 11.4626,4.6893C11.3733,4.4216 11.1405,4.2305 10.8546,4.1899L8.3122,3.8301C8.204,3.8147 8.1104,3.7485 8.062,3.6529L6.9254,1.4088C6.7978,1.1567 6.5388,1 6.2501,1C5.9616,1 5.7026,1.1567 5.575,1.4088L4.4382,3.6531C4.3898,3.7487 4.296,3.8149 4.1878,3.8303L1.6454,4.1901C1.3597,4.2305 1.1267,4.4218 1.0374,4.6895C0.9482,4.9572 1.0212,5.2452 1.2279,5.4414L3.0673,7.1881C3.1458,7.2627 3.1817,7.37 3.1632,7.4749L2.7293,9.9414C2.6908,10.1585 2.7492,10.3697 2.8935,10.5362C3.1176,10.7957 3.5089,10.8748 3.8217,10.7146L6.0954,9.55C6.1904,9.5014 6.31,9.5018 6.4048,9.55L8.6787,10.7146C8.7893,10.7713 8.9072,10.8 9.029,10.8C9.2512,10.8 9.4619,10.7037 9.6067,10.5362C9.7512,10.3697 9.8094,10.1581 9.7709,9.9414L9.3368,7.4749C9.3183,7.3698 9.3542,7.2627 9.4327,7.1881L11.2721,5.4412Z" fill="#000000" fill-opacity="1.0" /></svg>