<?xml version="1.0" encoding="utf-8" ?>
<svg baseProfile="full" height="24.0" version="1.1" viewBox="0 0 24.0 24.0" width="24.0" xmlns="http://www.w3.org/2000/svg" xmlns:ev="http://www.w3.org/2001/xml-events" xmlns:xlink="http://www.w3.org/1999/xlink"><defs /><path d="M12.801,1.092C18.708,1.092 23.501,5.884 23.501,11.792C23.501,13.051 23.347,14.304 23.066,15.512C23.027,15.681 22.985,15.847 22.941,16.009C22.757,16.692 22.571,17.204 22.441,17.497C22.341,17.722 22.137,17.869 21.911,17.905L21.885,17.907L21.832,18.37C21.672,19.759 20.539,20.82 19.161,20.903L18.987,20.908C18.876,20.908 18.765,20.902 18.655,20.889L18.325,20.851C17.667,20.775 17.195,20.179 17.271,19.521L17.959,13.564C18.027,12.957 18.539,12.498 19.224,12.502L19.618,12.544C20.629,12.661 21.457,13.291 21.871,14.144L21.899,14.205L21.967,13.752C22.033,13.266 22.075,12.776 22.092,12.284L22.101,11.792C22.101,6.658 17.935,2.492 12.801,2.492C7.666,2.492 3.501,6.658 3.501,11.792C3.501,12.448 3.546,13.104 3.634,13.752L3.702,14.204L3.731,14.141C4.122,13.335 4.882,12.728 5.818,12.565L5.984,12.541L6.153,12.521L6.153,12.521C6.268,12.508 6.268,12.508 6.402,12.498C7.047,12.498 7.572,12.935 7.642,13.557L8.331,19.519C8.406,20.176 7.935,20.771 7.278,20.847L6.945,20.886C6.836,20.899 6.725,20.905 6.614,20.905C5.159,20.905 3.936,19.813 3.769,18.367L3.716,17.907L3.69,17.905C3.496,17.874 3.319,17.762 3.209,17.589L3.16,17.497C3.03,17.203 2.844,16.692 2.66,16.008C2.616,15.846 2.574,15.681 2.536,15.513C2.254,14.304 2.101,13.051 2.101,11.792C2.101,5.884 6.893,1.092 12.801,1.092Z" fill="#000000" fill-opacity="1.0" /></svg>