<?xml version="1.0" encoding="utf-8" ?>
<svg baseProfile="full" height="22.0" version="1.1" viewBox="0 0 16.0 22.0" width="16.0" xmlns="http://www.w3.org/2000/svg" xmlns:ev="http://www.w3.org/2001/xml-events" xmlns:xlink="http://www.w3.org/1999/xlink"><defs /><path d="M0,9.9795C0,9.2546 0.5876,8.667 1.3125,8.667H14.6875C15.4124,8.667 16,9.2546 16,9.9795V13.3337C16,17.7519 12.4183,21.3337 8,21.3337C3.5817,21.3337 0,17.7519 0,13.3337V9.9795Z" fill="#000000" fill-opacity="1.0" /><path d="M7.9987,0C10.576,0 12.6654,2.0893 12.6654,4.6667V7.334H11V4.667C11,3.0101 9.6568,1.667 8,1.667C6.3432,1.667 5,3.0101 5,4.667V7.334H3.332V4.6667C3.332,2.0893 5.4214,0 7.9987,0ZM3.332,12.0007V14C3.332,16.5773 5.4214,18.6667 7.9987,18.6667C10.576,18.6667 12.6654,16.5773 12.6654,14V12.0007H11V14.0003C11,15.6572 9.6568,17.0003 8,17.0003C6.3432,17.0003 5,15.6572 5,14.0003V12.0007H3.332Z" fill="#000000" fill-opacity="1.0" /></svg>