<?xml version="1.0" encoding="utf-8" ?>
<svg baseProfile="full" height="24.0" version="1.1" viewBox="0 0 24.0 24.0" width="24.0" xmlns="http://www.w3.org/2000/svg" xmlns:ev="http://www.w3.org/2001/xml-events" xmlns:xlink="http://www.w3.org/1999/xlink"><defs /><path d="M9.018,16.744L8.847,16.915L7.796,17.966C8.208,18.257 8.651,18.506 9.119,18.707C9.988,19.081 10.944,19.291 11.948,19.298L12,19.298C16.031,19.298 19.298,16.031 19.298,12C19.298,11.942 19.298,11.885 19.296,11.827C19.279,11.086 19.151,10.372 18.929,9.701L18.929,9.701L20.06,8.569C20.273,9.069 20.441,9.593 20.559,10.135C20.689,10.736 20.758,11.36 20.758,12C20.758,16.837 16.837,20.758 12,20.758L11.967,20.758C10.085,20.751 8.342,20.15 6.918,19.133C6.846,19.082 6.776,19.03 6.706,18.977C6.405,18.748 6.119,18.5 5.85,18.235C5.785,18.17 5.721,18.105 5.658,18.04L5.619,17.998L9.018,14.68L10.049,15.71L10.051,15.712L10.045,15.717L9.018,16.744ZM15.347,9.686L15.347,9.686L14.314,8.654L15.58,7.388L16.618,6.35L16.613,6.345C16.231,6.033 15.816,5.759 15.375,5.529C14.39,5.013 13.272,4.717 12.086,4.703C12.057,4.703 12.029,4.703 12,4.703C7.969,4.703 4.702,7.97 4.702,12.001C4.702,12.06 4.703,12.12 4.704,12.179C4.726,13.091 4.915,13.962 5.242,14.762L5.242,14.762L4.773,15.231L4.139,15.865C4.092,15.77 4.047,15.673 4.003,15.576C3.83,15.189 3.684,14.787 3.567,14.373C3.356,13.618 3.242,12.823 3.242,12.001C3.242,7.164 7.163,3.243 12,3.243C12.083,3.243 12.167,3.244 12.249,3.247C14.265,3.303 16.111,4.041 17.564,5.237C17.94,5.547 18.291,5.889 18.611,6.257L18.68,6.338L17.645,7.377L16.376,8.652L15.347,9.686Z" fill="#ffffff" fill-opacity="1.0" /></svg>