<?xml version="1.0" encoding="utf-8" ?>
<svg baseProfile="full" height="24.0" version="1.1" viewBox="0 0 72.0 72.0" width="24.0" xmlns="http://www.w3.org/2000/svg" xmlns:ev="http://www.w3.org/2001/xml-events" xmlns:xlink="http://www.w3.org/1999/xlink"><defs /><path d="M 18 31 L 54 31 C 54.53 31 55.039 31.211 55.414 31.586 C 55.789 31.961 56 32.47 56 33 L 56 60 C 56 60.53 55.789 61.039 55.414 61.414 C 55.039 61.789 54.53 62 54 62 L 18 62 C 17.47 62 16.961 61.789 16.586 61.414 C 16.211 61.039 16 60.53 16 60 L 16 33 C 16 32.47 16.211 31.961 16.586 31.586 C 16.961 31.211 17.47 31 18 31 M 36 40 L 36 49 M 25 31 L 25 21.476 C 25 15.69 29.925 11 36 11 C 42.075 11 47 15.69 47 21.476 L 47 31" fill="#000000" fill-opacity="1.0" /></svg>