<?xml version="1.0" encoding="utf-8" ?>
<svg baseProfile="full" height="414.0" version="1.1" viewBox="0 0 186.0 414.0" width="186.0" xmlns="http://www.w3.org/2000/svg" xmlns:ev="http://www.w3.org/2001/xml-events" xmlns:xlink="http://www.w3.org/1999/xlink"><defs /><path d="M186,60L186,354A60,60 0,0 1,126 414L60,414A60,60 0,0 1,0 354L0,60A60,60 0,0 1,60 0L126,0A60,60 0,0 1,186 60z" fill="#262626" fill-opacity="1.0" /><path d="M186,60L186,354A60,60 0,0 1,126 414L60,414A60,60 0,0 1,0 354L0,60A60,60 0,0 1,60 0L126,0A60,60 0,0 1,186 60z" fill="#525252" fill-opacity="1.0" /></svg>