<?xml version="1.0" encoding="utf-8" ?>
<svg baseProfile="full" height="24.0" version="1.1" viewBox="0 0 24.0 24.0" width="24.0" xmlns="http://www.w3.org/2000/svg" xmlns:ev="http://www.w3.org/2001/xml-events" xmlns:xlink="http://www.w3.org/1999/xlink"><defs /><path d="M12.9,2.5C12.9,2.617 12.878,2.728 12.838,2.83C14.734,2.972 16.211,3.607 17.241,4.704C18.41,5.95 18.9,7.683 18.9,9.639V11.25C18.9,12.556 19.064,13.532 19.309,14.288C18.824,14.3 18.358,14.389 17.922,14.541C17.663,13.675 17.5,12.605 17.5,11.25V9.639C17.5,7.898 17.064,6.562 16.22,5.662C15.384,4.771 14.044,4.2 12,4.2C9.956,4.2 8.616,4.771 7.78,5.662C6.936,6.562 6.5,7.898 6.5,9.639V11.25C6.5,14.297 5.675,15.899 4.797,16.996C4.586,17.259 4.378,17.487 4.196,17.685L4.174,17.709L4.174,17.709L4.174,17.709C3.996,17.902 3.854,18.057 3.733,18.209C3.708,18.241 3.685,18.271 3.664,18.3H14.897C14.875,18.482 14.863,18.667 14.863,18.855C14.863,19.143 14.89,19.426 14.941,19.7H14.941C15.011,20.53 14.726,21.382 14.084,22.015C12.931,23.178 11.068,23.178 9.915,22.015C9.274,21.382 8.989,20.53 9.059,19.7H2.7C2.313,19.7 2,19.387 2,19C2,18.292 2.292,17.773 2.636,17.34C2.79,17.146 2.965,16.955 3.131,16.775L3.166,16.737C3.347,16.54 3.526,16.343 3.703,16.122C4.375,15.281 5.1,13.99 5.1,11.25V9.639C5.1,7.683 5.59,5.95 6.759,4.704C7.789,3.607 9.266,2.972 11.163,2.83C11.122,2.728 11.1,2.617 11.1,2.5C11.1,2.003 11.503,1.6 12,1.6C12.497,1.6 12.9,2.003 12.9,2.5ZM10.469,19.7H13.531C13.608,20.169 13.463,20.662 13.099,21.021L13.099,21.021L13.092,21.028C12.486,21.641 11.514,21.641 10.908,21.028L10.908,21.028L10.901,21.021C10.536,20.662 10.392,20.169 10.469,19.7Z" fill="#ffffff" fill-opacity="1.0" /><path d="M18.899,15.254C19.073,15.229 19.251,15.215 19.432,15.215C19.613,15.215 19.79,15.229 19.964,15.254C20.13,15.278 20.257,15.402 20.296,15.557L20.386,15.92C20.438,16.127 20.603,16.308 20.829,16.439C21.054,16.569 21.289,16.619 21.495,16.56L21.855,16.457C22.008,16.413 22.178,16.461 22.283,16.592C22.503,16.869 22.684,17.18 22.817,17.514C22.878,17.67 22.835,17.842 22.72,17.953L22.451,18.212C22.297,18.361 22.222,18.593 22.222,18.854C22.222,19.115 22.297,19.347 22.451,19.496L22.721,19.756C22.835,19.866 22.879,20.038 22.817,20.194C22.684,20.528 22.504,20.839 22.284,21.116C22.179,21.247 22.009,21.295 21.856,21.251L21.495,21.148C21.289,21.089 21.054,21.139 20.829,21.269C20.603,21.4 20.438,21.581 20.386,21.788L20.295,22.153C20.257,22.307 20.13,22.431 19.964,22.455C19.79,22.48 19.613,22.494 19.432,22.494C19.251,22.494 19.073,22.48 18.899,22.455C18.733,22.431 18.606,22.307 18.568,22.152L18.476,21.785C18.425,21.579 18.261,21.399 18.036,21.268C17.812,21.138 17.577,21.088 17.372,21.146L17.008,21.251C16.855,21.295 16.685,21.247 16.58,21.116C16.36,20.838 16.18,20.528 16.047,20.193C15.985,20.037 16.029,19.865 16.143,19.755L16.418,19.49C16.57,19.343 16.645,19.113 16.645,18.854C16.645,18.595 16.57,18.365 16.417,18.218L16.144,17.953C16.029,17.843 15.986,17.671 16.047,17.515C16.18,17.18 16.361,16.87 16.581,16.592C16.686,16.461 16.856,16.413 17.009,16.457L17.372,16.561C17.577,16.62 17.812,16.57 18.036,16.44C18.261,16.309 18.425,16.129 18.476,15.924L18.567,15.557C18.606,15.402 18.733,15.278 18.899,15.254ZM19.432,20.216C20.183,20.216 20.792,19.607 20.792,18.855C20.792,18.104 20.183,17.495 19.432,17.495C18.68,17.495 18.071,18.104 18.071,18.855C18.071,19.607 18.68,20.216 19.432,20.216Z" fill="#ffffff" fill-opacity="1.0" /></svg>