<?xml version="1.0" encoding="utf-8" ?>
<svg baseProfile="full" height="31.0" version="1.1" viewBox="0 0 31.0 31.0" width="31.0" xmlns="http://www.w3.org/2000/svg" xmlns:ev="http://www.w3.org/2001/xml-events" xmlns:xlink="http://www.w3.org/1999/xlink"><defs /><path d="M8.47496 14.1395L15.5974 6.4746C15.8478 6.2051 16.2694 6.18954 16.539 6.43984C16.554 6.45379 16.5684 6.46842 16.5821 6.48369L23.4451 14.1486C23.6905 14.4227 23.6671 14.8437 23.3929 15.089C23.2705 15.1985 23.1119 15.2589 22.9476 15.2587L19.2816 15.2532V20.5809C19.2816 20.9487 18.9833 21.2468 18.6153 21.2468H13.285C12.917 21.2468 12.6187 20.9487 12.6187 20.5809V15.2532L8.96417 15.2586C8.59618 15.2592 8.29743 14.9615 8.29688 14.5937C8.29663 14.4252 8.36026 14.2629 8.47496 14.1395Z" fill="#ffffff" fill-opacity="1.0" /><path d="M 12.958 23.9109 L 18.952 23.9109 Q 19.285 23.9109 19.285 24.2439 L 19.285 24.9099 Q 19.285 25.2429 18.952 25.2429 L 12.958 25.2429 Q 12.625 25.2429 12.625 24.9099 L 12.625 24.2439 Q 12.625 23.9109 12.958 23.9109 Z" fill="#ffffff" fill-opacity="1.0" /></svg>