<?xml version="1.0" encoding="utf-8" ?>
<svg baseProfile="full" height="24.0" version="1.1" viewBox="0 0 24.0 24.0" width="24.0" xmlns="http://www.w3.org/2000/svg" xmlns:ev="http://www.w3.org/2001/xml-events" xmlns:xlink="http://www.w3.org/1999/xlink"><defs /><path d="M1,7.25C1,6.173 1.873,5.3 2.95,5.3H19.45C20.527,5.3 21.4,6.173 21.4,7.25V16.75C21.4,17.827 20.527,18.7 19.45,18.7H2.95C1.873,18.7 1,17.827 1,16.75V7.25ZM10.646,9.502C10.271,9.502 9.957,9.782 9.914,10.154C9.863,10.591 10.205,10.975 10.646,10.975H12.03C13.706,10.975 14.996,12.456 14.766,14.116C14.577,15.483 13.409,16.5 12.03,16.5H7.199L7.661,14.498H11.961C12.373,14.498 12.727,14.208 12.81,13.805C12.92,13.268 12.509,12.765 11.961,12.765H10.494C8.877,12.765 7.642,11.322 7.893,9.724C8.094,8.444 9.197,7.5 10.494,7.5H15.001L14.487,9.502H10.646ZM22.713,9.5H22.693C22.421,9.5 22.2,9.721 22.2,9.993V14.005C22.2,14.278 22.421,14.499 22.693,14.499H22.713C23.258,14.499 23.7,14.057 23.7,13.512V10.487C23.7,9.942 23.258,9.5 22.713,9.5Z" fill="#000000" fill-opacity="0.2" /></svg>