<?xml version="1.0" encoding="utf-8" ?>
<svg baseProfile="full" height="24.0" version="1.1" viewBox="0 0 24.0 24.0" width="24.0" xmlns="http://www.w3.org/2000/svg" xmlns:ev="http://www.w3.org/2001/xml-events" xmlns:xlink="http://www.w3.org/1999/xlink"><defs /><path d="M12,2.1C9.349,2.1 7.2,4.249 7.2,6.9V9.9H8.8V6.9C8.8,5.133 10.233,3.7 12,3.7C13.767,3.7 15.2,5.133 15.2,6.9V9.9H16.8V6.9C16.8,4.249 14.651,2.1 12,2.1ZM4.674,11.774C4.5,12.116 4.5,12.564 4.5,13.46V16.78C4.5,18.572 4.5,19.468 4.849,20.153C5.156,20.755 5.645,21.244 6.247,21.551C6.932,21.9 7.828,21.9 9.62,21.9H14.38C16.172,21.9 17.068,21.9 17.753,21.551C18.355,21.244 18.844,20.755 19.151,20.153C19.5,19.468 19.5,18.572 19.5,16.78V13.46C19.5,12.564 19.5,12.116 19.326,11.774C19.172,11.473 18.927,11.228 18.626,11.074C18.284,10.9 17.836,10.9 16.94,10.9H7.06C6.164,10.9 5.716,10.9 5.374,11.074C5.073,11.228 4.828,11.473 4.674,11.774Z" fill="#000000" fill-opacity="1.0" /></svg>