<?xml version="1.0" encoding="utf-8" ?>
<svg baseProfile="full" height="24.0" version="1.1" viewBox="0 0 24.0 24.0" width="24.0" xmlns="http://www.w3.org/2000/svg" xmlns:ev="http://www.w3.org/2001/xml-events" xmlns:xlink="http://www.w3.org/1999/xlink"><defs /><path d="M20.7,4.08V4.053C20.7,3.712 20.7,3.415 20.68,3.169C20.659,2.909 20.612,2.646 20.482,2.392C20.29,2.016 19.984,1.71 19.608,1.518C19.354,1.389 19.091,1.341 18.831,1.32C18.585,1.3 18.288,1.3 17.947,1.3H17.947L17.92,1.3L6.08,1.3H6.053H6.053C5.712,1.3 5.415,1.3 5.169,1.32C4.909,1.341 4.646,1.389 4.392,1.518C4.016,1.71 3.71,2.016 3.518,2.392C3.389,2.646 3.341,2.909 3.32,3.169C3.3,3.415 3.3,3.712 3.3,4.053V4.054V4.08V19.92V19.947V19.947C3.3,20.288 3.3,20.585 3.32,20.831C3.341,21.091 3.389,21.354 3.518,21.608C3.71,21.984 4.016,22.29 4.392,22.482C4.646,22.612 4.909,22.659 5.169,22.68C5.415,22.7 5.712,22.7 6.054,22.7H6.08L17.92,22.7H17.947C18.288,22.7 18.585,22.7 18.831,22.68C19.091,22.659 19.354,22.612 19.608,22.482C19.984,22.29 20.29,21.984 20.482,21.608C20.612,21.354 20.659,21.091 20.68,20.831C20.7,20.585 20.7,20.288 20.7,19.947L20.7,19.92L20.7,4.08ZM19.235,3.028C19.247,3.052 19.271,3.11 19.285,3.283C19.299,3.465 19.3,3.704 19.3,4.08V11.3H18.333V12.7H19.3V19.92C19.3,20.296 19.299,20.535 19.285,20.717C19.271,20.89 19.247,20.948 19.235,20.972C19.177,21.085 19.085,21.177 18.972,21.235C18.948,21.247 18.89,21.271 18.717,21.285C18.535,21.299 18.296,21.3 17.92,21.3L10.7,21.3V20.333H9.3V21.3H6.08C5.704,21.3 5.465,21.299 5.283,21.285C5.11,21.271 5.052,21.247 5.028,21.235C4.915,21.177 4.823,21.085 4.765,20.972C4.753,20.948 4.73,20.89 4.715,20.717C4.701,20.535 4.7,20.296 4.7,19.92L4.7,4.08C4.7,3.704 4.701,3.465 4.715,3.283C4.73,3.11 4.753,3.052 4.765,3.028C4.823,2.915 4.915,2.823 5.028,2.765C5.052,2.753 5.11,2.73 5.283,2.715C5.465,2.701 5.704,2.7 6.08,2.7L17.92,2.7C18.296,2.7 18.535,2.701 18.717,2.715C18.89,2.73 18.948,2.753 18.972,2.765C19.085,2.823 19.177,2.915 19.235,3.028ZM16.667,11.3H13.333V12.7H16.667L16.667,11.3ZM11.667,11.3H10C9.613,11.3 9.3,11.613 9.3,12V13.667H10.7V12.7H11.667V11.3ZM9.3,15.333L9.3,18.667H10.7L10.7,15.333H9.3Z" fill="#000000" fill-opacity="1.0" /></svg>