<?xml version="1.0" encoding="utf-8" ?>
<svg baseProfile="full" height="16.0" version="1.1" viewBox="0 0 18.0 16.0" width="18.0" xmlns="http://www.w3.org/2000/svg" xmlns:ev="http://www.w3.org/2001/xml-events" xmlns:xlink="http://www.w3.org/1999/xlink"><defs /><path d="M14.57 8C14 7.6 13.27 7.36 12.51 7.36c-1.96 0-3.54 1.58-3.54 3.54 0 0.15 0 0.3 0.03 0.45H6.1c-0.1 0-0.2 0.04-0.28 0.11L3.5 13.77c-0.13 0.13-0.32 0.16-0.5 0.1-0.16-0.07-0.27-0.24-0.27-0.42V3.67c0-0.7 0.58-1.28 1.29-1.28h9.27c0.71 0 1.3 0.57 1.3 1.28v4.34ZM5.3 5.42c0-0.25 0.2-0.45 0.45-0.45h4.5c0.26 0 0.46 0.2 0.46 0.45s-0.2 0.45-0.45 0.45H5.75c-0.25 0-0.45-0.2-0.45-0.45ZM5.75 6.9C5.5 6.9 5.3 7.1 5.3 7.35c0 0.24 0.2 0.45 0.45 0.45h2.57c0.25 0 0.45-0.2 0.45-0.45s-0.2-0.46-0.45-0.46H5.75Zm5.08 3.55h3.36c-0.2-0.75-0.88-1.3-1.68-1.3-0.8 0-1.48 0.55-1.68 1.3Zm3.36 0.9h-3.36c0.2 0.74 0.88 1.29 1.68 1.29 0.8 0 1.48-0.55 1.68-1.3Zm-4.45-0.45c0-1.53 1.24-2.77 2.77-2.77s2.77 1.24 2.77 2.77-1.24 2.77-2.77 2.77-2.77-1.24-2.77-2.77Z" fill="#000000" fill-opacity="1.0" /></svg>