<?xml version="1.0" encoding="utf-8" ?>
<svg baseProfile="full" height="24.0" version="1.1" viewBox="0 0 24.0 24.0" width="24.0" xmlns="http://www.w3.org/2000/svg" xmlns:ev="http://www.w3.org/2001/xml-events" xmlns:xlink="http://www.w3.org/1999/xlink"><defs /><path d="M4.8,1.997C3.695,1.997 2.8,2.892 2.8,3.997V13.697H4.2V3.997C4.2,3.666 4.469,3.397 4.8,3.397H19.2C19.531,3.397 19.8,3.666 19.8,3.997V13.697H21.2V3.997C21.2,2.892 20.305,1.997 19.2,1.997H4.8ZM11.074,16.917C10.561,17.452 10.173,18.093 10,18.885C9.748,20.514 8.34,21.76 6.641,21.76C4.765,21.76 3.243,20.239 3.243,18.362C3.243,16.485 4.765,14.963 6.641,14.963C7.915,14.963 9.025,15.664 9.607,16.7L10.123,15.959L10.386,16.312C10.557,16.541 10.765,16.725 10.988,16.863C11.017,16.881 11.046,16.899 11.074,16.917ZM12.736,12.452L16.64,7.393C16.689,7.33 16.782,7.324 16.838,7.381C17.487,8.03 17.562,9.056 17.014,9.793L13.906,13.968L12.736,12.452ZM4.603,18.362C4.603,19.488 5.515,20.401 6.641,20.401C7.768,20.401 8.68,19.488 8.68,18.362C8.68,17.236 7.768,16.323 6.641,16.323C5.515,16.323 4.603,17.236 4.603,18.362ZM11.603,15.873C12.739,16.578 13.698,17.501 14,18.885C14.252,20.514 15.66,21.76 17.359,21.76C19.236,21.76 20.757,20.239 20.757,18.362C20.757,16.485 19.236,14.963 17.359,14.963C16.086,14.963 14.976,15.664 14.394,16.7L12.992,14.69L7.36,7.393C7.311,7.33 7.218,7.324 7.162,7.381C6.513,8.03 6.438,9.056 6.986,9.793L11.321,15.616C11.398,15.719 11.494,15.805 11.603,15.873ZM17.359,20.401C18.485,20.401 19.398,19.488 19.398,18.362C19.398,17.236 18.485,16.323 17.359,16.323C16.233,16.323 15.32,17.236 15.32,18.362C15.32,19.488 16.233,20.401 17.359,20.401ZM12.407,15.319C12.631,15.096 12.631,14.733 12.407,14.509C12.184,14.286 11.821,14.286 11.597,14.509C11.374,14.733 11.374,15.096 11.597,15.319C11.821,15.543 12.184,15.543 12.407,15.319Z" fill="#000000" fill-opacity="1.0" /></svg>