<?xml version="1.0" encoding="utf-8" ?>
<svg baseProfile="full" height="24.0" version="1.1" viewBox="0 0 24.0 24.0" width="24.0" xmlns="http://www.w3.org/2000/svg" xmlns:ev="http://www.w3.org/2001/xml-events" xmlns:xlink="http://www.w3.org/1999/xlink"><defs /><path d="M4.7,3.3C4.7,2.969 4.969,2.7 5.3,2.7H6.975H10.325H13.675H17.025H18.7C19.031,2.7 19.3,2.969 19.3,3.3V4.75V7.65V10V10.55C19.3,10.937 19.613,11.25 20,11.25C20.387,11.25 20.7,10.937 20.7,10.55V10V7.65V4.75V3.3C20.7,2.195 19.805,1.3 18.7,1.3H17.025H13.675H10.325H6.975H5.3C4.817,1.3 4.374,1.471 4.028,1.757C3.781,1.961 3.584,2.222 3.457,2.522C3.356,2.761 3.3,3.024 3.3,3.3V4.75V7.65V10V10.55C3.3,10.937 3.613,11.25 4,11.25C4.387,11.25 4.7,10.937 4.7,10.55V10V7.65V4.75V3.3ZM4.7,13.45C4.7,13.063 4.387,12.75 4,12.75C3.613,12.75 3.3,13.063 3.3,13.45V16.35C3.3,16.737 3.613,17.05 4,17.05C4.387,17.05 4.7,16.737 4.7,16.35V13.45ZM20.7,13.45C20.7,13.064 20.387,12.75 20,12.75C19.613,12.75 19.3,13.064 19.3,13.45V16.35C19.3,16.737 19.613,17.05 20,17.05C20.387,17.05 20.7,16.737 20.7,16.35V13.45ZM4.7,19.25C4.7,18.864 4.387,18.55 4,18.55C3.613,18.55 3.3,18.864 3.3,19.25V20.7C3.3,21.805 4.195,22.7 5.3,22.7H6.975C7.362,22.7 7.675,22.387 7.675,22C7.675,21.614 7.362,21.3 6.975,21.3H5.3C4.969,21.3 4.7,21.031 4.7,20.7V19.25ZM20.7,19.25C20.7,18.864 20.387,18.55 20,18.55C19.613,18.55 19.3,18.864 19.3,19.25V20.7C19.3,21.031 19.031,21.3 18.7,21.3H17.025C16.638,21.3 16.325,21.614 16.325,22C16.325,22.387 16.638,22.7 17.025,22.7H18.7C19.805,22.7 20.7,21.805 20.7,20.7V19.25ZM10.325,21.3C9.938,21.3 9.625,21.614 9.625,22C9.625,22.387 9.938,22.7 10.325,22.7H13.675C14.062,22.7 14.375,22.387 14.375,22C14.375,21.614 14.062,21.3 13.675,21.3H10.325ZM12.495,19.495L16.495,15.495C16.768,15.222 16.768,14.778 16.495,14.505C16.222,14.232 15.778,14.232 15.505,14.505L12,18.01L8.495,14.505C8.222,14.232 7.778,14.232 7.505,14.505C7.232,14.778 7.232,15.222 7.505,15.495L11.505,19.495C11.778,19.768 12.222,19.768 12.495,19.495ZM12.495,14.495C12.222,14.768 11.778,14.768 11.505,14.495L7.505,10.495C7.232,10.222 7.232,9.778 7.505,9.505C7.778,9.232 8.222,9.232 8.495,9.505L12,13.01L15.505,9.505C15.778,9.232 16.222,9.232 16.495,9.505C16.768,9.778 16.768,10.222 16.495,10.495L12.495,14.495Z" fill="#000000" fill-opacity="1.0" /></svg>