<?xml version="1.0" encoding="utf-8" ?>
<svg baseProfile="full" height="24.0" version="1.1" viewBox="0 0 24.0 24.0" width="24.0" xmlns="http://www.w3.org/2000/svg" xmlns:ev="http://www.w3.org/2001/xml-events" xmlns:xlink="http://www.w3.org/1999/xlink"><defs /><path d="M4.68,5.625L4.487,6.298H4.487L4.68,5.625ZM4.165,5.785L4.713,6.221L4.165,5.785ZM5.746,5.931L5.553,6.603H5.553L5.746,5.931ZM8.244,5.507L7.893,4.901V4.901L8.244,5.507ZM9.871,3.548L9.192,3.378V3.378L9.871,3.548ZM10.139,2.472L10.818,2.642V2.642L10.139,2.472ZM10.536,2.106L10.435,1.414L10.536,2.106ZM13.463,2.106L13.565,1.414H13.565L13.463,2.106ZM13.861,2.472L14.54,2.303V2.303L13.861,2.472ZM14.129,3.547L13.449,3.717V3.717L14.129,3.547ZM15.756,5.507L15.405,6.112H15.405L15.756,5.507ZM18.254,5.931L18.061,5.258L18.254,5.931ZM19.319,5.625L19.513,6.298L19.319,5.625ZM19.835,5.785L19.287,6.221V6.221L19.835,5.785ZM21.301,8.32L20.65,8.578V8.578L21.301,8.32ZM21.183,8.847L21.669,9.351L21.669,9.351L21.183,8.847ZM20.384,9.618L19.898,9.114L20.384,9.618ZM20.384,14.382L20.87,13.879V13.879L20.384,14.382ZM21.183,15.153L21.669,14.649L21.669,14.649L21.183,15.153ZM21.301,15.68L20.65,15.422V15.422L21.301,15.68ZM19.835,18.215L19.287,17.779L19.287,17.779L19.835,18.215ZM19.319,18.375L19.513,17.702L19.319,18.375ZM18.254,18.069L18.447,17.396L18.447,17.396L18.254,18.069ZM15.756,18.493L16.107,19.099H16.107L15.756,18.493ZM14.129,20.452L13.449,20.283L14.129,20.452ZM13.861,21.528L14.54,21.697L14.54,21.697L13.861,21.528ZM13.463,21.894L13.362,21.201H13.362L13.463,21.894ZM10.536,21.894L10.435,22.586H10.435L10.536,21.894ZM10.139,21.528L10.818,21.358L10.139,21.528ZM9.871,20.452L9.192,20.622H9.192L9.871,20.452ZM8.244,18.493L7.893,19.099L7.893,19.099L8.244,18.493ZM5.746,18.069L5.939,18.742H5.939L5.746,18.069ZM4.68,18.375L4.487,17.702L4.68,18.375ZM4.165,18.215L4.713,17.779L4.713,17.779L4.165,18.215ZM2.699,15.68L2.048,15.938L2.048,15.938L2.699,15.68ZM2.817,15.153L3.303,15.657H3.303L2.817,15.153ZM3.616,14.382L3.13,13.878H3.13L3.616,14.382ZM3.616,9.618L3.13,10.122H3.13L3.616,9.618ZM2.817,8.847L3.303,8.343L2.817,8.847ZM2.699,8.32L3.349,8.578L2.699,8.32ZM4.873,4.952C4.425,4.823 3.923,4.964 3.617,5.35L4.713,6.221C4.651,6.299 4.558,6.318 4.487,6.298L4.873,4.952ZM5.939,5.258L4.873,4.952L4.487,6.298L5.553,6.603L5.939,5.258ZM7.893,4.901C7.233,5.284 6.543,5.431 5.939,5.258L5.553,6.603C6.642,6.916 7.731,6.613 8.595,6.112L7.893,4.901ZM9.192,3.378C9.041,3.985 8.557,4.516 7.893,4.901L8.595,6.112C9.453,5.615 10.276,4.818 10.55,3.717L9.192,3.378ZM9.459,2.303L9.192,3.378L10.55,3.717L10.818,2.642L9.459,2.303ZM10.435,1.414C9.946,1.485 9.572,1.85 9.459,2.303L10.818,2.642C10.8,2.713 10.737,2.784 10.638,2.799L10.435,1.414ZM12,1.3C11.469,1.3 10.946,1.339 10.435,1.414L10.638,2.799C11.082,2.734 11.537,2.7 12,2.7V1.3ZM13.565,1.414C13.054,1.339 12.531,1.3 12,1.3V2.7C12.463,2.7 12.918,2.734 13.362,2.799L13.565,1.414ZM14.54,2.303C14.427,1.85 14.054,1.485 13.565,1.414L13.362,2.799C13.263,2.784 13.2,2.713 13.182,2.642L14.54,2.303ZM14.808,3.378L14.54,2.303L13.182,2.642L13.449,3.717L14.808,3.378ZM16.107,4.901C15.442,4.516 14.959,3.985 14.808,3.378L13.449,3.717C13.724,4.818 14.547,5.615 15.405,6.112L16.107,4.901ZM18.061,5.258C17.457,5.431 16.767,5.284 16.107,4.901L15.405,6.112C16.268,6.613 17.358,6.916 18.447,6.603L18.061,5.258ZM19.126,4.952L18.061,5.258L18.447,6.603L19.513,6.298L19.126,4.952ZM20.383,5.35C20.076,4.964 19.575,4.823 19.126,4.952L19.513,6.298C19.442,6.318 19.348,6.299 19.287,6.221L20.383,5.35ZM21.952,8.062C21.562,7.078 21.031,6.165 20.383,5.35L19.287,6.221C19.85,6.93 20.312,7.723 20.65,8.578L21.952,8.062ZM21.669,9.351C22.005,9.026 22.133,8.521 21.952,8.062L20.65,8.578C20.613,8.485 20.643,8.394 20.696,8.343L21.669,9.351ZM20.87,10.121L21.669,9.351L20.696,8.343L19.898,9.114L20.87,10.121ZM20.2,12C20.2,11.235 20.419,10.557 20.87,10.121L19.898,9.114C19.082,9.901 18.8,11.004 18.8,12H20.2ZM20.87,13.879C20.419,13.443 20.2,12.765 20.2,12H18.8C18.8,12.996 19.082,14.099 19.898,14.886L20.87,13.879ZM21.669,14.649L20.87,13.879L19.898,14.886L20.696,15.657L21.669,14.649ZM21.952,15.938C22.133,15.479 22.005,14.974 21.669,14.649L20.696,15.657C20.643,15.606 20.613,15.515 20.65,15.422L21.952,15.938ZM20.383,18.65C21.031,17.835 21.562,16.922 21.952,15.938L20.65,15.422C20.312,16.277 19.85,17.07 19.287,17.779L20.383,18.65ZM19.126,19.048C19.575,19.177 20.076,19.036 20.383,18.65L19.287,17.779C19.348,17.701 19.442,17.682 19.513,17.702L19.126,19.048ZM18.061,18.742L19.126,19.048L19.513,17.702L18.447,17.396L18.061,18.742ZM16.107,19.099C16.767,18.716 17.457,18.569 18.061,18.742L18.447,17.396C17.358,17.084 16.268,17.387 15.405,17.888L16.107,19.099ZM14.808,20.622C14.959,20.015 15.442,19.484 16.107,19.099L15.405,17.888C14.547,18.385 13.724,19.182 13.449,20.283L14.808,20.622ZM14.54,21.697L14.808,20.622L13.449,20.283L13.182,21.358L14.54,21.697ZM13.565,22.586C14.054,22.515 14.427,22.15 14.54,21.697L13.182,21.358C13.2,21.287 13.263,21.216 13.362,21.201L13.565,22.586ZM12,22.7C12.531,22.7 13.054,22.661 13.565,22.586L13.362,21.201C12.918,21.266 12.463,21.3 12,21.3V22.7ZM10.435,22.586C10.946,22.661 11.469,22.7 12,22.7V21.3C11.537,21.3 11.082,21.266 10.638,21.201L10.435,22.586ZM9.459,21.697C9.572,22.15 9.946,22.515 10.435,22.586L10.638,21.201C10.737,21.216 10.8,21.287 10.818,21.358L9.459,21.697ZM9.192,20.622L9.459,21.697L10.818,21.358L10.55,20.283L9.192,20.622ZM7.893,19.099C8.557,19.484 9.041,20.015 9.192,20.622L10.55,20.283C10.276,19.182 9.453,18.385 8.595,17.888L7.893,19.099ZM5.939,18.742C6.543,18.569 7.233,18.716 7.893,19.099L8.595,17.888C7.731,17.387 6.642,17.084 5.553,17.396L5.939,18.742ZM4.873,19.048L5.939,18.742L5.553,17.396L4.487,17.702L4.873,19.048ZM3.617,18.65C3.923,19.036 4.425,19.177 4.873,19.048L4.487,17.702C4.558,17.682 4.651,17.701 4.713,17.779L3.617,18.65ZM2.048,15.938C2.438,16.922 2.969,17.835 3.617,18.65L4.713,17.779C4.15,17.07 3.688,16.277 3.349,15.422L2.048,15.938ZM2.331,14.649C1.995,14.974 1.866,15.479 2.048,15.938L3.349,15.422C3.386,15.515 3.356,15.606 3.303,15.657L2.331,14.649ZM3.13,13.878L2.331,14.649L3.303,15.657L4.102,14.886L3.13,13.878ZM3.8,12C3.8,12.765 3.581,13.443 3.13,13.878L4.102,14.886C4.918,14.099 5.2,12.996 5.2,12H3.8ZM3.13,10.122C3.581,10.557 3.8,11.235 3.8,12H5.2C5.2,11.004 4.918,9.901 4.102,9.114L3.13,10.122ZM2.331,9.351L3.13,10.122L4.102,9.114L3.303,8.343L2.331,9.351ZM2.048,8.062C1.866,8.521 1.995,9.026 2.331,9.351L3.303,8.343C3.356,8.395 3.386,8.485 3.349,8.578L2.048,8.062ZM3.617,5.35C2.969,6.165 2.438,7.078 2.048,8.062L3.349,8.578C3.688,7.723 4.15,6.93 4.713,6.221L3.617,5.35ZM15.3,12C15.3,13.823 13.822,15.3 12,15.3V16.7C14.596,16.7 16.7,14.596 16.7,12H15.3ZM12,8.7C13.822,8.7 15.3,10.177 15.3,12H16.7C16.7,9.404 14.596,7.3 12,7.3V8.7ZM8.7,12C8.7,10.177 10.177,8.7 12,8.7V7.3C9.404,7.3 7.3,9.404 7.3,12H8.7ZM12,15.3C10.177,15.3 8.7,13.823 8.7,12H7.3C7.3,14.596 9.404,16.7 12,16.7V15.3Z" fill="#000000" fill-opacity="1.0" /></svg>