<?xml version="1.0" encoding="utf-8" ?>
<svg baseProfile="full" height="28.0" version="1.1" viewBox="0 0 28.0 28.0" width="28.0" xmlns="http://www.w3.org/2000/svg" xmlns:ev="http://www.w3.org/2001/xml-events" xmlns:xlink="http://www.w3.org/1999/xlink"><defs /><path d="M5.6,2.33C4.312,2.33 3.267,3.375 3.267,4.663V15.98H4.9V4.663C4.9,4.277 5.214,3.963 5.6,3.963H22.4C22.787,3.963 23.1,4.277 23.1,4.663V15.98H24.733V4.663C24.733,3.375 23.689,2.33 22.4,2.33H5.6ZM20.077,11.594C20.8,10.622 20.701,9.267 19.845,8.41C19.659,8.224 19.351,8.243 19.189,8.452L14.501,14.527L16.228,16.765L20.077,11.594ZM13.363,19.683L13.072,19.497C13.038,19.476 13.004,19.454 12.969,19.433C12.736,19.288 12.521,19.098 12.344,18.861L11.803,18.134L11.219,18.972C10.45,17.884 9.182,17.174 7.748,17.174C5.402,17.174 3.5,19.076 3.5,21.422C3.5,23.768 5.402,25.67 7.748,25.67C9.869,25.67 11.627,24.116 11.945,22.085C12.135,21.223 12.557,20.523 13.124,19.932L13.363,19.683ZM7.748,19.326C8.906,19.326 9.844,20.265 9.844,21.422C9.844,22.579 8.906,23.517 7.748,23.517C6.591,23.517 5.653,22.579 5.653,21.422C5.653,20.265 6.591,19.326 7.748,19.326ZM7.923,11.594C7.2,10.622 7.299,9.267 8.155,8.41C8.342,8.224 8.65,8.243 8.811,8.452L15.39,16.976L16.781,18.972C17.55,17.884 18.818,17.174 20.252,17.174C22.598,17.174 24.5,19.076 24.5,21.422C24.5,23.768 22.598,25.67 20.252,25.67C18.131,25.67 16.374,24.116 16.055,22.084C15.724,20.582 14.68,19.561 13.387,18.759C13.233,18.663 13.093,18.538 12.981,18.388L7.923,11.594ZM13.731,17.128C13.58,17.278 13.58,17.521 13.731,17.672C13.881,17.822 14.125,17.822 14.275,17.672C14.425,17.521 14.425,17.278 14.275,17.128C14.125,16.977 13.881,16.977 13.731,17.128ZM20.252,19.326C19.095,19.326 18.156,20.265 18.156,21.422C18.156,22.579 19.095,23.517 20.252,23.517C21.409,23.517 22.347,22.579 22.347,21.422C22.347,20.265 21.409,19.326 20.252,19.326Z" fill="#000000" fill-opacity="1.0" /></svg>