<?xml version="1.0" encoding="utf-8" ?>
<svg baseProfile="full" height="24.0" version="1.1" viewBox="0 0 24.0 24.0" width="24.0" xmlns="http://www.w3.org/2000/svg" xmlns:ev="http://www.w3.org/2001/xml-events" xmlns:xlink="http://www.w3.org/1999/xlink"><defs /><path d="M4.76205 3.99171C3.76794 3.99171 2.96205 4.7976 2.96205 5.79171V19.2083V20.0083H3.76205H19.2381C20.2322 20.0083 21.0381 19.2024 21.0381 18.2083V5.79171C21.0381 4.7976 20.2322 3.99171 19.2381 3.99171H4.76205ZM4.56205 5.79171C4.56205 5.68126 4.65159 5.59171 4.76205 5.59171H19.2381C19.3486 5.59171 19.4381 5.68126 19.4381 5.79171V18.2083C19.4381 18.3187 19.3486 18.4083 19.2381 18.4083H4.56205V5.79171ZM6.77598 9.7177L9.223 9.72984L9.23093 8.12986L6.78391 8.11772L6.77598 9.7177ZM13.2198 9.72984L10.7728 9.7177L10.7808 8.11772L13.2278 8.12986L13.2198 9.72984ZM14.7697 9.7177L17.2167 9.72984L17.2246 8.12986L14.7776 8.11772L14.7697 9.7177ZM17.2167 12.8L14.7697 12.7879L14.7776 11.1879L17.2246 11.2L17.2167 12.8ZM10.7731 12.7879L13.2201 12.8L13.228 11.2L10.781 11.1879L10.7731 12.7879ZM9.22324 12.8L6.77622 12.7879L6.78415 11.1879L9.23117 11.2L9.22324 12.8ZM6.78018 15.8575H17.2207V14.2575H6.78018V15.8575Z" fill="#000000" fill-opacity="1.0" /></svg>