<?xml version="1.0" encoding="utf-8" ?>
<svg baseProfile="full" height="720.0" version="1.1" viewBox="0 0 720.0 720.0" width="720.0" xmlns="http://www.w3.org/2000/svg" xmlns:ev="http://www.w3.org/2001/xml-events" xmlns:xlink="http://www.w3.org/1999/xlink"><defs /><path d="M180,0L540,0A180,180 0,0 1,720 180L720,540A180,180 0,0 1,540 720L180,720A180,180 0,0 1,0 540L0,180A180,180 0,0 1,180 0z" fill="#000000" fill-opacity="1.0" /><path d="M328.693,505.967V137.877C328.693,124.649 339.438,117.086 352.703,121.058L528.743,173.785C542,177.747 552.753,191.72 552.753,204.976V573.029C552.753,586.294 542,593.82 528.743,589.848L352.703,537.168C339.438,533.196 328.693,519.223 328.693,505.967Z" fill="#41d9b8" fill-opacity="1.0" /><path d="M255.207,518.754V205.874C255.207,194.609 264.342,188.208 275.617,191.613L425.247,236.395C436.522,239.772 445.657,251.642 445.657,262.917V575.806C445.657,587.071 436.522,593.481 425.247,590.095L275.617,545.275C264.342,541.899 255.207,530.029 255.207,518.754Z" fill="#000000" fill-opacity="1.0" /><path d="M166.832,529.097V263.148C166.832,253.576 174.6,248.134 184.172,250.999L311.365,289.139C320.946,291.967 328.695,302.051 328.695,311.633V577.582C328.695,587.163 320.928,592.596 311.346,589.731L184.172,551.637C174.6,548.772 166.832,538.679 166.832,529.097Z" fill="#000000" fill-opacity="1.0" /></svg>