<?xml version="1.0" encoding="utf-8" ?>
<svg baseProfile="full" height="48.0" version="1.1" viewBox="0 0 48.0 48.0" width="48.0" xmlns="http://www.w3.org/2000/svg" xmlns:ev="http://www.w3.org/2001/xml-events" xmlns:xlink="http://www.w3.org/1999/xlink"><defs /><path d="M0,24 a24,24 0 1,0 48,0 a24,24 0 1,0 -48,0" fill="#000000" fill-opacity="1.0" /><path d="M19,12h-2v3h-3v2h5v-5zM7,9h3L10,7L5,7v5h2L7,9zM21,3L3,3c-1.1,0 -2,0.9 -2,2v14c0,1.1 0.9,2 2,2h18c1.1,0 2,-0.9 2,-2L23,5c0,-1.1 -0.9,-2 -2,-2zM21,19.01L3,19.01L3,4.99h18v14.02z" fill="#000000" fill-opacity="1.0" /></svg>