<?xml version="1.0" encoding="utf-8" ?>
<svg baseProfile="full" height="34.0" version="1.1" viewBox="0 0 102.0 102.0" width="34.0" xmlns="http://www.w3.org/2000/svg" xmlns:ev="http://www.w3.org/2001/xml-events" xmlns:xlink="http://www.w3.org/1999/xlink"><defs /><path d="M15.06 0.01 C15.06,1.93 14.7,3.76 14.05,5.45 C14.05,5.45 22.55,13.95 22.55,13.95 C26.32,10.29 29.84,5.64 33,0 C20.83,-21.73 3.19,-28.77 -12.53,-21.13 C-12.53,-21.13 -5.44,-14.04 -5.44,-14.04 C-3.76,-14.69 -1.92,-15.05 0,-15.05 C8.32,-15.05 15.06,-8.31 15.06,0.01c M-0.43 -9.03 C-0.43,-9.03 9.04,0.44 9.04,0.44 C9.04,0.3 9.05,0.15 9.05,0.01 C9.05,-4.99 5,-9.04 0,-9.04 C-0.15,-9.04 -0.29,-9.04 -0.43,-9.03c M-9.05 0.01 C-9.05,-1.43 -8.71,-2.78 -8.12,-3.99 C-8.12,-3.99 4,8.13 4,8.13 C2.79,8.72 1.43,9.05 0,9.05 C-5,9.05 -9.05,5 -9.05,0.01c M-33 0 C-29.19,-6.79 -24.85,-12.15 -20.21,-16.07 C-20.21,-16.07 -12.51,-8.38 -12.51,-8.38 C-14.12,-5.98 -15.06,-3.1 -15.06,0.01 C-15.06,8.32 -8.32,15.07 0,15.07 C3.1,15.07 5.99,14.13 8.39,12.52 C8.39,12.52 15.41,19.54 15.41,19.54 C-0.99,29.58 -20.08,23.06 -33,0c" fill="#ffffff" fill-opacity="1.0" /><path d="M-9.29 -3.2 C-7.87,-6.07 -4.99,-8.08 -1.61,-8.24 C-1.61,-8.24 7.87,1.23 7.87,1.23 C7.71,4.61 5.69,7.5 2.82,8.92 C2.82,8.92 -9.29,-3.2 -9.29,-3.2c M-21.37 -15.28 C-18.89,-17.38 -16.32,-19.06 -13.7,-20.34 C-13.7,-20.34 -6.61,-13.25 -6.61,-13.25 C-9.51,-12.13 -11.98,-10.13 -13.68,-7.59 C-13.68,-7.59 -21.37,-15.28 -21.37,-15.28c M14.24 20.34 C16.69,18.84 19.08,16.97 21.38,14.74 C21.38,14.74 12.87,6.24 12.87,6.24 C11.75,9.14 9.76,11.6 7.22,13.31 C7.22,13.31 14.24,20.34 14.24,20.34c" fill="#ffffff" fill-opacity="1.0" /><path d="M44.74 -19.8 C44.74,-19.8 44.74,-13.8 44.74,-13.8 C44.74,-13.8 -42.26,-13.8 -42.26,-13.8 C-42.26,-13.8 -42.26,-19.8 -42.26,-19.8 C-42.26,-19.8 44.74,-19.8 44.74,-19.8c" fill="#ffffff" fill-opacity="1.0" /></svg>