<?xml version="1.0" encoding="utf-8" ?>
<svg baseProfile="full" height="24.0" version="1.1" viewBox="0 0 72.0 72.0" width="24.0" xmlns="http://www.w3.org/2000/svg" xmlns:ev="http://www.w3.org/2001/xml-events" xmlns:xlink="http://www.w3.org/1999/xlink"><defs /><path d="M27 -15 C27,-15 27,15 27,15 C27,21.62 21.62,27 15,27 C15,27 -15,27 -15,27 C-21.62,27 -27,21.62 -27,15 C-27,15 -27,-15 -27,-15 C-27,-21.62 -21.62,-27 -15,-27 C-15,-27 15,-27 15,-27 C21.62,-27 27,-21.62 27,-15c" fill="#000000" fill-opacity="1.0" /><path d="M-14.12 -1 C-14.12,-1 -3.44,9.69 -3.44,9.69 C-3.44,9.69 16.97,-10.91 16.97,-10.91" fill="#000000" fill-opacity="1.0" /><path d="M15 -3 C15,-3 15,3 15,3 C15,3 -15,3 -15,3 C-15,3 -15,-3 -15,-3 C-15,-3 15,-3 15,-3c" fill="#000000" fill-opacity="1.0" /></svg>