<?xml version="1.0" encoding="utf-8" ?>
<svg baseProfile="full" height="24.0" version="1.1" viewBox="0 0 24.0 24.0" width="24.0" xmlns="http://www.w3.org/2000/svg" xmlns:ev="http://www.w3.org/2001/xml-events" xmlns:xlink="http://www.w3.org/1999/xlink"><defs /><path d="M7,2.2L17,2.2A4.8,4.8 0,0 1,21.8 7L21.8,17A4.8,4.8 0,0 1,17 21.8L7,21.8A4.8,4.8 0,0 1,2.2 17L2.2,7A4.8,4.8 0,0 1,7 2.2z" fill="#cccccc" fill-opacity="1.0" /><path d="M7,2.2L17,2.2A4.8,4.8 0,0 1,21.8 7L21.8,17A4.8,4.8 0,0 1,17 21.8L7,21.8A4.8,4.8 0,0 1,2.2 17L2.2,7A4.8,4.8 0,0 1,7 2.2z" fill="#000000" fill-opacity="1.0" /><path d="M7,2.2L17,2.2A4.8,4.8 0,0 1,21.8 7L21.8,17A4.8,4.8 0,0 1,17 21.8L7,21.8A4.8,4.8 0,0 1,2.2 17L2.2,7A4.8,4.8 0,0 1,7 2.2z" fill="#000000" fill-opacity="1.0" /><path d="M-14.12 -1 C-14.12,-1 -3.44,9.69 -3.44,9.69 C-3.44,9.69 16.97,-10.91 16.97,-10.91" fill="#000000" fill-opacity="1.0" /><path d="M-14.12 -1 C-14.12,-1 -3.44,9.69 -3.44,9.69 C-3.44,9.69 16.97,-10.91 16.97,-10.91" fill="#000000" fill-opacity="1.0" /></svg>