<?xml version="1.0" encoding="utf-8" ?>
<svg baseProfile="full" height="26.0" version="1.1" viewBox="0 0 100.0 26.0" width="100.0" xmlns="http://www.w3.org/2000/svg" xmlns:ev="http://www.w3.org/2001/xml-events" xmlns:xlink="http://www.w3.org/1999/xlink"><defs /><path d="M50,10.5L50,10.5A2.5,2.5 0,0 1,52.5 13L52.5,13A2.5,2.5 0,0 1,50 15.5L50,15.5A2.5,2.5 0,0 1,47.5 13L47.5,13A2.5,2.5 0,0 1,50 10.5z" fill="#000000" fill-opacity="1.0" /><path d="M50,10.5L50,10.5A2.5,2.5 0,0 1,52.5 13L52.5,13A2.5,2.5 0,0 1,50 15.5L50,15.5A2.5,2.5 0,0 1,47.5 13L47.5,13A2.5,2.5 0,0 1,50 10.5z" fill="#000000" fill-opacity="1.0" /><path d="M50,10.5L50,10.5A2.5,2.5 0,0 1,52.5 13L52.5,13A2.5,2.5 0,0 1,50 15.5L50,15.5A2.5,2.5 0,0 1,47.5 13L47.5,13A2.5,2.5 0,0 1,50 10.5z" fill="#000000" fill-opacity="1.0" /></svg>