<?xml version="1.0" encoding="utf-8" ?>
<svg baseProfile="full" height="24.0" version="1.1" viewBox="0 0 24.0 24.0" width="24.0" xmlns="http://www.w3.org/2000/svg" xmlns:ev="http://www.w3.org/2001/xml-events" xmlns:xlink="http://www.w3.org/1999/xlink"><defs /><path d="M3.94 19.15l-1.08-1.71c-1.28-2.03-1.84-4.42-1.6-6.8 0.24-2.37 1.28-4.6 2.94-6.32l1.13 1.1c-1.42 1.46-2.3 3.36-2.5 5.39C2.7 12 2.8 13.2 3.14 14.33l0.63-0.07 1.04-0.11-0.18 1.03-0.35 1.97-0.35 2Zm17.96-6.43c-0.25 2.38-1.28 4.6-2.94 6.32l-1.13-1.09c1.42-1.47 2.3-3.36 2.5-5.4 0.13-1.19 0.01-2.38-0.33-3.52L19.38 9.1l-1.04 0.12 0.18-1.04 0.34-1.97 0.35-2 1.1 1.72c1.27 2.02 1.83 4.4 1.59 6.79ZM9.17 16.68c-0.1 0-0.18-0.08-0.18-0.18V6.86c0-0.1 0.08-0.18 0.18-0.17h4.82c0.1 0 0.18 0.08 0.18 0.17v9.64c0 0.1-0.08 0.18-0.18 0.18H9.17ZM7.42 16.5c0 0.97 0.78 1.75 1.75 1.75h4.82c0.96 0 1.75-0.78 1.75-1.75V6.86c0-0.96-0.79-1.75-1.75-1.75H9.17c-0.97 0-1.75 0.79-1.75 1.75v9.64Z" fill="#ffffff" fill-opacity="1.0" /></svg>