<?xml version="1.0" encoding="utf-8" ?>
<svg baseProfile="full" height="30.0" version="1.1" viewBox="0 0 36.0 30.0" width="36.0" xmlns="http://www.w3.org/2000/svg" xmlns:ev="http://www.w3.org/2001/xml-events" xmlns:xlink="http://www.w3.org/1999/xlink"><defs /><path d="M0.09 0.27 C0.09,0.27 0.09,0.28 0.09,0.28 C0.09,0.34 0.05,0.38 0,0.38 C-0.05,0.38 -0.09,0.34 -0.09,0.28 C-0.09,0.28 -0.09,0.27 -0.09,0.27 C-0.09,0.22 -0.05,0.18 0,0.18 C0.05,0.18 0.09,0.22 0.09,0.27c" fill="#ffffff" fill-opacity="1.0" /><path d="M0.09 0.09 C0.09,0.09 0.09,0.09 0.09,0.09 C0.09,0.15 0.05,0.19 0,0.19 C-0.05,0.19 -0.09,0.15 -0.09,0.09 C-0.09,0.09 -0.1,0.09 -0.1,0.09 C-0.1,0.04 -0.05,-0.01 0,-0.01 C0.05,-0.01 0.09,0.04 0.09,0.09c" fill="#ffffff" fill-opacity="1.0" /><path d="M0.09 0.28 C0.09,0.28 0.09,0.28 0.09,0.28 C0.09,0.34 0.05,0.38 0,0.38 C-0.05,0.38 -0.09,0.34 -0.09,0.28 C-0.09,0.28 -0.09,0.28 -0.09,0.28 C-0.09,0.22 -0.05,0.18 0,0.18 C0.05,0.18 0.09,0.22 0.09,0.28c" fill="#ffffff" fill-opacity="1.0" /></svg>