<?xml version="1.0" encoding="utf-8" ?>
<svg baseProfile="full" height="24.0" version="1.1" viewBox="0 0 24.0 24.0" width="24.0" xmlns="http://www.w3.org/2000/svg" xmlns:ev="http://www.w3.org/2001/xml-events" xmlns:xlink="http://www.w3.org/1999/xlink"><defs /><path d="M0 -9 C0,-9 8,-3 8,-3 C8,-3 8,9 8,9 C8,9 6,9 6,9 C6,9 6,-2 6,-2 C6,-2 0,-6.5 0,-6.5 C0,-6.5 -6,-2 -6,-2 C-6,-2 -6,9 -6,9 C-6,9 -8,9 -8,9 C-8,9 -8,-3 -8,-3 C-8,-3 0,-9 0,-9c" fill="#000000" fill-opacity="1.0" /><path d="M-3 1 C-3,1 -3,3 -3,3 C-3,3 3,3 3,3 C3,3 3,1 3,1 C3,1 -3,1 -3,1c M3 -1 C3,-1 3,-3 3,-3 C3,-3 -3,-3 -3,-3 C-3,-3 -3,-1 -3,-1 C-3,-1 3,-1 3,-1c M-5 5 C-5,5 -5,-5 -5,-5 C-5,-5 5,-5 5,-5 C5,-5 5,5 5,5 C5,5 -5,5 -5,5c" fill="#000000" fill-opacity="1.0" /><path d="M-3 1 C-3,1 -3,3 -3,3 C-3,3 3,3 3,3 C3,3 3,1 3,1 C3,1 -3,1 -3,1c M3 -1 C3,-1 3,-3 3,-3 C3,-3 -3,-3 -3,-3 C-3,-3 -3,-1 -3,-1 C-3,-1 3,-1 3,-1c M-5 5 C-5,5 -5,-5 -5,-5 C-5,-5 5,-5 5,-5 C5,-5 5,5 5,5 C5,5 -5,5 -5,5c" fill="#000000" fill-opacity="1.0" /><path d="M-3 -1 C-3,-1 3,-1 3,-1 C3,-1 3,1 3,1 C3,1 -3,1 -3,1 C-3,1 -3,-1 -3,-1c" fill="#000000" fill-opacity="1.0" /><path d="M-3 -1 C-3,-1 3,-1 3,-1 C3,-1 3,1 3,1 C3,1 -3,1 -3,1 C-3,1 -3,-1 -3,-1c" fill="#000000" fill-opacity="1.0" /><path d="M-3 -1 C-3,-1 3,-1 3,-1 C3,-1 3,1 3,1 C3,1 -3,1 -3,1 C-3,1 -3,-1 -3,-1c" fill="#000000" fill-opacity="1.0" /><path d="M-8 -3 C-8,-3 0,-9 0,-9 C0,-9 8,-3 8,-3 C8,-3 8,9 8,9 C8,9 5,9 5,9 C5,9 5,-1 5,-1 C5,-1 -5,-1 -5,-1 C-5,-1 -5,9 -5,9 C-5,9 -8,9 -8,9 C-8,9 -8,-3 -8,-3c" fill="#000000" fill-opacity="1.0" /></svg>