<?xml version="1.0" encoding="utf-8" ?>
<svg baseProfile="full" height="24.0" version="1.1" viewBox="0 0 24.0 24.0" width="24.0" xmlns="http://www.w3.org/2000/svg" xmlns:ev="http://www.w3.org/2001/xml-events" xmlns:xlink="http://www.w3.org/1999/xlink"><defs /><path d="M-6 -1 C-6,-1 -6,-6.47 -6,-6.47 C-6,-6.47 6,-6.47 6,-6.47 C6,-6.47 6,-1 6,-1 C6,-1 1,-1 1,-1 C1,-1 1,1.28 1,1.28 C1.38,1.5 1.68,1.84 1.85,2.24 C2.02,2.65 2.05,3.1 1.93,3.53 C1.82,3.95 1.57,4.33 1.22,4.6 C0.87,4.86 0.44,5.01 0,5.01 C-0.44,5.01 -0.87,4.86 -1.22,4.6 C-1.57,4.33 -1.82,3.95 -1.93,3.53 C-2.05,3.1 -2.02,2.65 -1.85,2.24 C-1.68,1.84 -1.38,1.5 -1,1.28 C-1,1.28 -1,-1 -1,-1 C-1,-1 -6,-1 -6,-1c" fill="#000000" fill-opacity="1.0" /><path d="M-6 -5.97 C-6,-5.97 -6,6 -6,6 C-6,6 6,6 6,6 C6,6 6,-5.97 6,-5.97 C6,-5.97 -6,-5.97 -6,-5.97c M8 -8 C8,-8 8,6 8,6 C8,6 10,6 10,6 C10,6 10,8 10,8 C10,8 -10,8 -10,8 C-10,8 -10,6 -10,6 C-10,6 -8,6 -8,6 C-8,6 -8,-8 -8,-8 C-8,-8 8,-8 8,-8c" fill="#000000" fill-opacity="1.0" /><path d="M-6 -1 C-6,-1 -6,-3.03 -6,-3.03 C-6,-3.03 6,-3.03 6,-3.03 C6,-3.03 6,-1 6,-1 C6,-1 1,-1 1,-1 C1,-1 1,-0.47 1,-0.47 C1.38,-0.25 1.68,0.09 1.85,0.49 C2.02,0.9 2.05,1.35 1.93,1.78 C1.82,2.2 1.57,2.58 1.22,2.85 C0.87,3.11 0.44,3.26 0,3.26 C-0.44,3.26 -0.87,3.11 -1.22,2.85 C-1.57,2.58 -1.82,2.2 -1.93,1.78 C-2.05,1.35 -2.02,0.9 -1.85,0.49 C-1.68,0.09 -1.38,-0.25 -1,-0.47 C-1,-0.47 -1,-1 -1,-1 C-1,-1 -6,-1 -6,-1c" fill="#000000" fill-opacity="1.0" /></svg>