<?xml version="1.0" encoding="utf-8" ?>
<svg baseProfile="full" height="36.0" version="1.1" viewBox="0 0 108.0 108.0" width="36.0" xmlns="http://www.w3.org/2000/svg" xmlns:ev="http://www.w3.org/2001/xml-events" xmlns:xlink="http://www.w3.org/1999/xlink"><defs /><path d="M-16.85 -22.96 C-16.85,-22.95 -16.85,-22.95 -16.85,-22.94 C-16.85,-22.94 -16.85,22.94 -16.85,22.94 C-16.85,22.95 -16.85,22.95 -16.85,22.96 C-16.85,22.96 -16.85,22.97 -16.84,22.97 C-16.83,22.98 -16.83,22.98 -16.82,22.98 C-16.82,22.98 -16.82,22.98 -16.81,22.98 C-16.81,22.98 -8.42,22.98 -8.42,22.98 C-8.18,21.97 -7.26,21.22 -6.18,21.22 C-5.09,21.22 -4.18,21.97 -3.93,22.98 C-3.93,22.98 16.81,22.98 16.81,22.98 C16.82,22.98 16.82,22.98 16.83,22.98 C16.83,22.98 16.83,22.98 16.84,22.97 C16.84,22.97 16.84,22.97 16.85,22.97 C16.85,22.96 16.85,22.96 16.85,22.96 C16.85,22.96 16.85,22.95 16.85,22.95 C16.85,22.95 16.85,22.94 16.85,22.94 C16.85,22.94 16.85,-3.87 16.85,-3.87 C16.85,-3.87 16.39,-3.87 16.39,-3.87 C15.11,-3.87 14.08,-4.9 14.08,-6.17 C14.08,-7.44 15.11,-8.48 16.39,-8.48 C16.39,-8.48 16.85,-8.48 16.85,-8.48 C16.85,-8.48 16.85,-22.94 16.85,-22.94 C16.85,-22.95 16.85,-22.95 16.85,-22.96 C16.85,-22.96 16.85,-22.96 16.84,-22.97 C16.83,-22.98 16.83,-22.98 16.83,-22.98 C16.82,-22.98 16.82,-22.98 16.81,-22.98 C16.81,-22.98 -16.81,-22.98 -16.81,-22.98 C-16.82,-22.98 -16.82,-22.98 -16.82,-22.98 C-16.83,-22.98 -16.83,-22.98 -16.84,-22.97 C-16.85,-22.96 -16.85,-22.96 -16.85,-22.96c M-21.56 -22.94 C-21.56,-25.56 -19.43,-27.69 -16.81,-27.69 C-16.81,-27.69 16.81,-27.69 16.81,-27.69 C19.43,-27.69 21.56,-25.56 21.56,-22.94 C21.56,-22.94 21.56,22.94 21.56,22.94 C21.56,25.57 19.43,27.69 16.81,27.69 C16.81,27.69 -16.81,27.69 -16.81,27.69 C-19.43,27.69 -21.56,25.57 -21.56,22.94 C-21.56,22.94 -21.56,-22.94 -21.56,-22.94c M-3.82 15.72 C-3.82,14.45 -4.86,13.41 -6.13,13.41 C-7.4,13.41 -8.43,14.45 -8.43,15.72 C-8.43,15.72 -8.43,16.6 -8.43,16.6 C-8.43,17.87 -7.4,18.9 -6.13,18.9 C-4.86,18.9 -3.82,17.87 -3.82,16.6 C-3.82,16.6 -3.82,15.72 -3.82,15.72c M-3.85 7.65 C-3.85,6.37 -4.88,5.34 -6.15,5.34 C-7.42,5.34 -8.45,6.37 -8.45,7.65 C-8.45,7.65 -8.45,8.52 -8.45,8.52 C-8.45,9.8 -7.42,10.83 -6.15,10.83 C-4.88,10.83 -3.85,9.8 -3.85,8.52 C-3.85,8.52 -3.85,7.65 -3.85,7.65c M-3.84 -0.67 C-3.74,-1.93 -4.68,-3.05 -5.94,-3.15 C-7.21,-3.26 -8.32,-2.32 -8.43,-1.05 C-8.45,-0.86 -8.45,-0.66 -8.45,-0.47 C-8.45,-0.47 -8.45,-0.03 -8.45,-0.03 C-8.45,1.24 -7.42,2.27 -6.15,2.27 C-4.88,2.27 -3.85,1.24 -3.85,-0.03 C-3.85,-0.03 -3.85,-0.47 -3.85,-0.47 C-3.85,-0.54 -3.85,-0.6 -3.84,-0.67c M7.67 -8.48 C6.4,-8.48 5.36,-7.44 5.36,-6.17 C5.36,-4.9 6.4,-3.87 7.67,-3.87 C7.67,-3.87 8.65,-3.87 8.65,-3.87 C9.93,-3.87 10.96,-4.9 10.96,-6.17 C10.96,-7.44 9.93,-8.48 8.65,-8.48 C8.65,-8.48 7.67,-8.48 7.67,-8.48c M-0.7 -3.84 C-0.64,-3.84 -0.57,-3.85 -0.5,-3.85 C-0.5,-3.85 -0.01,-3.85 -0.01,-3.85 C1.26,-3.85 2.29,-4.88 2.29,-6.15 C2.29,-7.42 1.26,-8.45 -0.01,-8.45 C-0.01,-8.45 -0.5,-8.45 -0.5,-8.45 C-0.7,-8.45 -0.89,-8.44 -1.08,-8.43 C-2.35,-8.32 -3.29,-7.21 -3.19,-5.94 C-3.08,-4.67 -1.97,-3.73 -0.7,-3.84c" fill="#000000" fill-opacity="1.0" /></svg>