<?xml version="1.0" encoding="utf-8" ?>
<svg baseProfile="full" height="823.0" version="1.1" viewBox="0 0 823.0 823.0" width="823.0" xmlns="http://www.w3.org/2000/svg" xmlns:ev="http://www.w3.org/2001/xml-events" xmlns:xlink="http://www.w3.org/1999/xlink"><defs /><path d="M0 -395 C218,-395 395,-218 395,0 C395,218 218,395 0,395 C-218,395 -395,218 -395,0 C-395,-218 -218,-395 0,-395c" fill="#000000" fill-opacity="1.0" /><path d="M0 -395 C218,-395 395,-218 395,0 C395,218 218,395 0,395 C-218,395 -395,218 -395,0 C-395,-218 -218,-395 0,-395c" fill="#000000" fill-opacity="1.0" /><path d="M0 -395 C218,-395 395,-218 395,0 C395,218 218,395 0,395 C-218,395 -395,218 -395,0 C-395,-218 -218,-395 0,-395c" fill="#000000" fill-opacity="1.0" /><path d="M0 -395 C218,-395 395,-218 395,0 C395,218 218,395 0,395 C-218,395 -395,218 -395,0 C-395,-218 -218,-395 0,-395c" fill="#000000" fill-opacity="1.0" /></svg>