<?xml version="1.0" encoding="utf-8" ?>
<svg baseProfile="full" height="24.0" version="1.1" viewBox="0 0 24.0 24.0" width="24.0" xmlns="http://www.w3.org/2000/svg" xmlns:ev="http://www.w3.org/2001/xml-events" xmlns:xlink="http://www.w3.org/1999/xlink"><defs /><path d="M12,2C6.48,2 2,6.48 2,12s4.48,10 10,10 10,-4.48 10,-10S17.52,2 12,2zM18.36,16.83c-1.43,-1.74 -4.9,-2.33 -6.36,-2.33s-4.93,0.59 -6.36,2.33A7.95,7.95 0,0 1,4 12c0,-4.41 3.59,-8 8,-8s8,3.59 8,8c0,1.82 -0.62,3.49 -1.64,4.83z" fill="#ffffff" fill-opacity="1.0" /><path d="M12,6c-1.94,0 -3.5,1.56 -3.5,3.5S10.06,13 12,13s3.5,-1.56 3.5,-3.5S13.94,6 12,6z" fill="#ffffff" fill-opacity="1.0" /></svg>