<?xml version="1.0" encoding="utf-8" ?>
<svg baseProfile="full" height="48.0" version="1.1" viewBox="0 0 48.0 48.0" width="48.0" xmlns="http://www.w3.org/2000/svg" xmlns:ev="http://www.w3.org/2001/xml-events" xmlns:xlink="http://www.w3.org/1999/xlink"><defs /><path d="M24 12.8c-2.6 0-4.7 2.1-4.7 4.7v6c0 2.6 2.1 4.7 4.7 4.7s4.7-2.1 4.7-4.7v-6c0-2.6-2.1-4.7-4.7-4.7Zm-7.7 10.7c0 4.02 3.08 7.31 7 7.67v2.63H21c-0.39 0-0.7 0.31-0.7 0.7 0 0.39 0.31 0.7 0.7 0.7h3 3c0.39 0 0.7-0.31 0.7-0.7 0-0.39-0.31-0.7-0.7-0.7h-2.3v-2.63c3.92-0.36 7-3.65 7-7.67 0-0.39-0.31-0.7-0.7-0.7-0.39 0-0.7 0.31-0.7 0.7 0 3.48-2.82 6.3-6.3 6.3s-6.3-2.82-6.3-6.3c0-0.39-0.31-0.7-0.7-0.7-0.39 0-0.7 0.31-0.7 0.7Z" fill="#ffffff" fill-opacity="1.0" /></svg>