<?xml version="1.0" encoding="utf-8" ?>
<svg baseProfile="full" height="48.0" version="1.1" viewBox="0 0 48.0 48.0" width="48.0" xmlns="http://www.w3.org/2000/svg" xmlns:ev="http://www.w3.org/2001/xml-events" xmlns:xlink="http://www.w3.org/1999/xlink"><defs /><path d="M24,48C37.255,48 48,37.255 48,24C48,10.745 37.255,0 24,0C10.745,0 0,10.745 0,24C0,37.255 10.745,48 24,48ZM19.4,13.3L19.387,13.3C19.329,13.3 19.25,13.3 19.179,13.306C19.094,13.313 18.96,13.331 18.819,13.403C18.64,13.494 18.494,13.64 18.403,13.818C18.331,13.96 18.313,14.094 18.306,14.179C18.3,14.25 18.3,14.329 18.3,14.387L18.3,14.4V15.3H29.7V14.4L29.7,14.387V14.387V14.387C29.7,14.329 29.7,14.25 29.694,14.179C29.687,14.094 29.669,13.96 29.596,13.818C29.505,13.64 29.36,13.494 29.181,13.403C29.039,13.331 28.906,13.313 28.821,13.306C28.75,13.3 28.671,13.3 28.613,13.3L28.6,13.3H19.4ZM18.36,17.392C18.308,17.175 18.301,16.951 18.3,16.7H29.7C29.699,16.951 29.691,17.175 29.639,17.392C29.586,17.617 29.497,17.831 29.377,18.027C29.24,18.251 29.055,18.437 28.838,18.654L28.795,18.697L27.603,19.893C27.355,20.141 27.315,20.188 27.288,20.232C27.255,20.285 27.231,20.344 27.216,20.405C27.204,20.455 27.2,20.516 27.2,20.867V32.949C27.2,33.705 26.773,34.396 26.096,34.734C24.777,35.394 23.223,35.394 21.903,34.734C21.227,34.396 20.8,33.705 20.8,32.949V20.867C20.8,20.516 20.795,20.455 20.783,20.405C20.769,20.344 20.744,20.285 20.712,20.232C20.685,20.188 20.645,20.141 20.397,19.893L19.205,18.697L19.162,18.654C18.945,18.437 18.76,18.251 18.623,18.027C18.503,17.831 18.414,17.617 18.36,17.392ZM23.999,22.1C23.226,22.1 22.599,22.727 22.599,23.5V26.2C22.599,26.973 23.226,27.6 23.999,27.6C24.772,27.6 25.399,26.973 25.399,26.2V23.5C25.399,22.727 24.772,22.1 23.999,22.1ZM24,22.86C24.387,22.86 24.7,23.173 24.7,23.56V24.56C24.7,24.947 24.387,25.26 24,25.26C23.613,25.26 23.3,24.947 23.3,24.56V23.56C23.3,23.173 23.613,22.86 24,22.86Z" fill="#ffffff" fill-opacity="1.0" /></svg>