<?xml version="1.0" encoding="utf-8" ?>
<svg baseProfile="full" height="48.0" version="1.1" viewBox="0 0 48.0 48.0" width="48.0" xmlns="http://www.w3.org/2000/svg" xmlns:ev="http://www.w3.org/2001/xml-events" xmlns:xlink="http://www.w3.org/1999/xlink"><defs /><path d="M14.7 20c0-2.37 1.93-4.3 4.3-4.3 2.38 0 4.3 1.93 4.3 4.3 0 2.38-1.92 4.3-4.3 4.3-2.37 0-4.3-1.92-4.3-4.3Zm4.3-5.7c-3.15 0-5.7 2.55-5.7 5.7 0 3.15 2.55 5.7 5.7 5.7 3.15 0 5.7-2.55 5.7-5.7 0-3.15-2.55-5.7-5.7-5.7ZM26.2 30c0-1.27 1.03-2.3 2.3-2.3 1.27 0 2.3 1.03 2.3 2.3 0 1.27-1.03 2.3-2.3 2.3-1.27 0-2.3-1.03-2.3-2.3Zm2.3-3.7c-2.04 0-3.7 1.66-3.7 3.7s1.66 3.7 3.7 3.7 3.7-1.66 3.7-3.7-1.66-3.7-3.7-3.7Zm0-5.38c-0.86 0-1.55 0.7-1.55 1.55 0 0.86 0.7 1.55 1.55 1.55 0.86 0 1.55-0.7 1.55-1.55 0-0.86-0.7-1.55-1.55-1.55Zm-2.95 1.55c0-1.63 1.32-2.95 2.95-2.95 1.63 0 2.95 1.32 2.95 2.95 0 1.63-1.32 2.95-2.95 2.95-1.63 0-2.95-1.32-2.95-2.95ZM33 20.75c0.67 0 1.25-0.58 1.25-1.25s-0.5-1.25-1.25-1.25c-0.67 0-1.25 0.58-1.25 1.25s0.58 1.25 1.25 1.25Z" fill="#ffffff" fill-opacity="1.0" /><path d="M31.49 30c0 1.66-1.35 3-3 3-1.66 0-3-1.34-3-3s1.34-3 3-3c1.65 0 3 1.34 3 3Z" fill="#ffffff" fill-opacity="1.0" /><path d="M24 20c0 2.76-2.24 5-5 5s-5-2.24-5-5 2.24-5 5-5 5 2.24 5 5Z" fill="#ffffff" fill-opacity="1.0" /><path d="M30.62 22.63c0 1.25-1 2.25-2.25 2.25-1.24 0-2.25-1-2.25-2.25 0-1.24 1.01-2.25 2.25-2.25 1.25 0 2.25 1.01 2.25 2.25Z" fill="#ffffff" fill-opacity="1.0" /></svg>