<?xml version="1.0" encoding="utf-8" ?>
<svg baseProfile="full" height="48.0" version="1.1" viewBox="0 0 48.0 48.0" width="48.0" xmlns="http://www.w3.org/2000/svg" xmlns:ev="http://www.w3.org/2001/xml-events" xmlns:xlink="http://www.w3.org/1999/xlink"><defs /><path d="M13.87 20v-3.7c0-1.1 0.9-2 2-2h3.7c0.39 0 0.7 0.31 0.7 0.7 0 0.39-0.31 0.7-0.7 0.7h-3.7c-0.33 0-0.6 0.27-0.6 0.6V20c0 0.39-0.31 0.7-0.7 0.7-0.39 0-0.7-0.31-0.7-0.7Zm17.4-5.7h-3.7c-0.39 0-0.7 0.31-0.7 0.7 0 0.39 0.31 0.7 0.7 0.7h3.7c0.33 0 0.6 0.27 0.6 0.6V20c0 0.39 0.31 0.7 0.7 0.7 0.39 0 0.7-0.31 0.7-0.7v-3.7c0-1.1-0.9-2-2-2Zm1.3 13c-0.39 0-0.7 0.31-0.7 0.7v3.7c0 0.33-0.27 0.6-0.6 0.6h-3.7c-0.39 0-0.7 0.31-0.7 0.7 0 0.39 0.31 0.7 0.7 0.7h3.7c1.1 0 2-0.9 2-2V28c0-0.39-0.31-0.7-0.7-0.7Zm-13 5h-3.7c-0.33 0-0.6-0.27-0.6-0.6V28c0-0.39-0.31-0.7-0.7-0.7-0.39 0-0.7 0.31-0.7 0.7v3.7c0 1.1 0.9 2 2 2h3.7c0.39 0 0.7-0.31 0.7-0.7 0-0.39-0.31-0.7-0.7-0.7Zm5.5-5.3h1c0.28 0 0.5-0.22 0.5-0.5v-1c0-0.28-0.22-0.5-0.5-0.5h-1c-0.28 0-0.5 0.22-0.5 0.5v1c0 0.28 0.22 0.5 0.5 0.5Zm3 2c0.28 0 0.5-0.22 0.5-0.5v-1c0-0.28-0.22-0.5-0.5-0.5h-1c-0.28 0-0.5 0.22-0.5 0.5v1c0 0.28 0.22 0.5 0.5 0.5h1Zm-2 0h-1c-0.28 0-0.5 0.22-0.5 0.5v1c0 0.28 0.22 0.5 0.5 0.5h1c0.28 0 0.5-0.22 0.5-0.5v-1c0-0.28-0.22-0.5-0.5-0.5Zm4 0h-1c-0.28 0-0.5 0.22-0.5 0.5v1c0 0.28 0.22 0.5 0.5 0.5h1c0.28 0 0.5-0.22 0.5-0.5v-1c0-0.28-0.22-0.5-0.5-0.5Zm0.5-3.5c0-0.28-0.22-0.5-0.5-0.5h-1c-0.28 0-0.5 0.22-0.5 0.5v1c0 0.28 0.22 0.5 0.5 0.5h1c0.28 0 0.5-0.22 0.5-0.5v-1Zm-8.05 0.25v4.5c0 0.39-0.31 0.7-0.7 0.7h-4.5c-0.39 0-0.7-0.31-0.7-0.7v-4.5c0-0.39 0.31-0.7 0.7-0.7h4.5c0.39 0 0.7 0.31 0.7 0.7Zm-1.95 1.75c0-0.28-0.22-0.5-0.5-0.5h-1c-0.28 0-0.5 0.22-0.5 0.5v1c0 0.28 0.22 0.5 0.5 0.5h1c0.28 0 0.5-0.22 0.5-0.5v-1Zm1.95-9.75v4.5c0 0.39-0.31 0.7-0.7 0.7h-4.5c-0.39 0-0.7-0.31-0.7-0.7v-4.5c0-0.39 0.31-0.7 0.7-0.7h4.5c0.39 0 0.7 0.31 0.7 0.7Zm-1.95 1.75c0-0.28-0.22-0.5-0.5-0.5h-1c-0.28 0-0.5 0.22-0.5 0.5v1c0 0.28 0.22 0.5 0.5 0.5h1c0.28 0 0.5-0.22 0.5-0.5v-1Zm4.05 2.75v-4.5c0-0.39 0.31-0.7 0.7-0.7h4.5c0.39 0 0.7 0.31 0.7 0.7v4.5c0 0.39-0.31 0.7-0.7 0.7h-4.5c-0.39 0-0.7-0.31-0.7-0.7Zm1.95-1.75c0 0.28 0.22 0.5 0.5 0.5h1c0.28 0 0.5-0.22 0.5-0.5v-1c0-0.28-0.22-0.5-0.5-0.5h-1c-0.28 0-0.5 0.22-0.5 0.5v1Z" fill="#ffffff" fill-opacity="1.0" /></svg>