<?xml version="1.0" encoding="utf-8" ?>
<svg baseProfile="full" height="48.0" version="1.1" viewBox="0 0 48.0 48.0" width="48.0" xmlns="http://www.w3.org/2000/svg" xmlns:ev="http://www.w3.org/2001/xml-events" xmlns:xlink="http://www.w3.org/1999/xlink"><defs /><path d="M19.39 13.3h0.01 9.2 0.01 0.21c0.09 0.01 0.22 0.03 0.36 0.1 0.18 0.1 0.33 0.24 0.42 0.42 0.07 0.14 0.09 0.27 0.1 0.36v0.2 0.02 0.9H18.3v-0.9-0.01-0.21c0.01-0.09 0.03-0.22 0.1-0.36 0.1-0.18 0.24-0.33 0.42-0.42 0.14-0.07 0.27-0.09 0.36-0.1h0.2Zm-1.09 3.4c0 0.25 0 0.47 0.06 0.7 0.05 0.22 0.14 0.43 0.26 0.63 0.14 0.22 0.33 0.4 0.54 0.62l0.04 0.05 1.2 1.2c0.24 0.24 0.28 0.29 0.31 0.33 0.03 0.06 0.06 0.11 0.07 0.17 0.02 0.05 0.02 0.12 0.02 0.47v12.08c0 0.75 0.43 1.45 1.1 1.78 1.32 0.66 2.88 0.66 4.2 0 0.67-0.33 1.1-1.03 1.1-1.78V20.87c0-0.35 0-0.42 0.02-0.47 0.01-0.06 0.04-0.11 0.07-0.17 0.02-0.04 0.07-0.09 0.31-0.34l1.2-1.2 0.04-0.04c0.21-0.21 0.4-0.4 0.54-0.62 0.12-0.2 0.2-0.41 0.26-0.64 0.05-0.22 0.06-0.44 0.06-0.69H18.3Zm4.3 6.8c0-0.77 0.63-1.4 1.4-1.4 0.77 0 1.4 0.63 1.4 1.4v2.7c0 0.77-0.63 1.4-1.4 1.4-0.77 0-1.4-0.63-1.4-1.4v-2.7Zm2.1 1.64c0-0.38-0.31-0.7-0.7-0.7-0.39 0-0.7 0.32-0.7 0.7v1c0 0.39 0.31 0.7 0.7 0.7 0.39 0 0.7-0.31 0.7-0.7v-1Z" fill="#ffffff" fill-opacity="1.0" /></svg>