<?xml version="1.0" encoding="utf-8" ?>
<svg baseProfile="full" height="48.0" version="1.1" viewBox="0 0 48.0 48.0" width="48.0" xmlns="http://www.w3.org/2000/svg" xmlns:ev="http://www.w3.org/2001/xml-events" xmlns:xlink="http://www.w3.org/1999/xlink"><defs /><path d="M33 20.81H17c-0.72 0-1.3-0.58-1.3-1.3 0-0.71 0.58-1.3 1.3-1.3h2.63l2.24-1.4H17c-1.49 0-2.7 1.21-2.7 2.7v11c0 1.5 1.21 2.7 2.7 2.7h16c0.39 0 0.7-0.31 0.7-0.7v-11c0-0.38-0.31-0.7-0.7-0.7Zm-2 7.7c0 0.39-0.31 0.7-0.7 0.7-0.39 0-0.7-0.31-0.7-0.7v-3c0-0.38 0.31-0.7 0.7-0.7 0.39 0 0.7 0.32 0.7 0.7v3Zm-10.83-9l7.22-4.61c0.16-0.1 0.36-0.14 0.54-0.1 0.19 0.05 0.34 0.17 0.44 0.33l2.57 4.38H20.17Z" fill="#ffffff" fill-opacity="1.0" /></svg>