<?xml version="1.0" encoding="utf-8" ?>
<svg baseProfile="full" height="24.0" version="1.1" viewBox="0 0 24.0 24.0" width="24.0" xmlns="http://www.w3.org/2000/svg" xmlns:ev="http://www.w3.org/2001/xml-events" xmlns:xlink="http://www.w3.org/1999/xlink"><defs /><path d="M13.301,4.7C12.969,4.7 12.701,4.969 12.701,5.3V8.7C12.701,9.031 12.969,9.3 13.301,9.3H16.701C17.032,9.3 17.301,9.031 17.301,8.7V5.3C17.301,4.969 17.032,4.7 16.701,4.7H13.301ZM13.301,3.3C12.196,3.3 11.301,4.195 11.301,5.3V6.223H1.989C1.602,6.223 1.289,6.536 1.289,6.923C1.289,7.31 1.602,7.623 1.989,7.623H11.301V8.7C11.301,9.805 12.196,10.7 13.301,10.7H16.701C17.805,10.7 18.701,9.805 18.701,8.7V7.618C18.723,7.62 18.747,7.621 18.77,7.621H22.03C22.417,7.621 22.73,7.308 22.73,6.921C22.73,6.535 22.417,6.221 22.03,6.221H18.77C18.747,6.221 18.723,6.222 18.701,6.225V5.3C18.701,4.195 17.805,3.3 16.701,3.3H13.301ZM5.301,16.301V15.3C5.301,14.196 6.196,13.3 7.301,13.3H10.701C11.805,13.3 12.701,14.196 12.701,15.3V16.301L22.001,16.301C22.387,16.301 22.701,16.615 22.701,17.001C22.701,17.388 22.387,17.701 22.001,17.701L12.701,17.701V18.7C12.701,19.805 11.805,20.7 10.701,20.7H7.301C6.196,20.7 5.301,19.805 5.301,18.7V17.701H1.991C1.604,17.701 1.291,17.388 1.291,17.001C1.291,16.615 1.604,16.301 1.991,16.301L5.301,16.301ZM11.301,17.001L11.301,15.3C11.301,14.969 11.032,14.7 10.701,14.7H7.301C6.969,14.7 6.701,14.969 6.701,15.3V18.7C6.701,19.031 6.969,19.3 7.301,19.3H10.701C11.032,19.3 11.301,19.031 11.301,18.7L11.301,17.001Z" fill="#ffffff" fill-opacity="1.0" /></svg>