<?xml version="1.0" encoding="utf-8" ?>
<svg baseProfile="full" height="14.0" version="1.1" viewBox="0 0 14.0 14.0" width="14.0" xmlns="http://www.w3.org/2000/svg" xmlns:ev="http://www.w3.org/2001/xml-events" xmlns:xlink="http://www.w3.org/1999/xlink"><defs /><path d="M7,0L7,0A7,7 0,0 1,14 7L14,7A7,7 0,0 1,7 14L7,14A7,7 0,0 1,0 7L0,7A7,7 0,0 1,7 0z" fill="#ffffff" fill-opacity="1.0" /><path d="M8.4345,5.7614C8.3591,5.753 8.2829,5.7472 8.2057,5.7472V5.7477C7.0754,5.7477 6.1832,6.5675 6.1832,7.5781C6.1838,7.7424 6.2085,7.9058 6.2567,8.0632C6.1832,8.0685 6.1092,8.0721 6.0342,8.0721C5.7843,8.0721 5.5754,8.0304 5.3376,7.9829C5.2932,7.9741 5.2478,7.965 5.201,7.956L4.3696,8.3612L4.6075,7.6655C4.0117,7.2606 3.6553,6.7393 3.6553,6.104C3.6553,5.0033 4.7265,4.1367 6.0342,4.1367C7.204,4.1367 8.2288,4.8294 8.4345,5.7614ZM7.2215,5.408C7.2215,5.2341 7.103,5.1193 6.9236,5.1193C6.7456,5.1193 6.5662,5.2341 6.5662,5.408C6.5662,5.5815 6.7456,5.6976 6.9236,5.6976C7.103,5.6976 7.2215,5.5815 7.2215,5.408ZM4.9024,5.408C4.9024,5.5815 5.0823,5.6976 5.2603,5.6976C5.4392,5.6976 5.5572,5.5815 5.5572,5.408C5.5572,5.2341 5.4387,5.1193 5.2603,5.1193C5.0823,5.1193 4.9024,5.2341 4.9024,5.408ZM8.3381,5.8636C9.3993,5.8636 10.3441,6.6298 10.3441,7.5702C10.3441,8.1008 9.9911,8.5699 9.5169,8.9245L9.6945,9.512L9.0468,9.1588C8.8105,9.218 8.573,9.2768 8.3381,9.2768C7.2144,9.2768 6.3295,8.512 6.3295,7.5702C6.3295,6.6298 7.2144,5.8636 8.3381,5.8636ZM7.4502,7.0427C7.4502,7.1618 7.5693,7.2787 7.6867,7.2787C7.8655,7.2787 7.9829,7.1618 7.9829,7.0427C7.9829,6.9253 7.8655,6.8071 7.6867,6.8071C7.5689,6.8071 7.4502,6.9258 7.4502,7.0427ZM8.7532,7.0427C8.7532,7.1618 8.8706,7.2787 8.9879,7.2787C9.1654,7.2787 9.2836,7.1618 9.2836,7.0427C9.2836,6.9253 9.1654,6.8071 8.9879,6.8071C8.8706,6.8071 8.7532,6.9258 8.7532,7.0427Z" fill="#ffffff" fill-opacity="1.0" /></svg>