<?xml version="1.0" encoding="utf-8" ?>
<svg baseProfile="full" height="14.0" version="1.1" viewBox="0 0 14.0 14.0" width="14.0" xmlns="http://www.w3.org/2000/svg" xmlns:ev="http://www.w3.org/2001/xml-events" xmlns:xlink="http://www.w3.org/1999/xlink"><defs /><path d="M 7 0 C 10.9 0 14 3.1 14 7 C 14 10.9 10.9 14 7 14 C 3.1 14 0 10.9 0 7 C 0 3.1 3.1 0 7 0 Z" fill="#ffffff" fill-opacity="1.0" /><path d="M 9.5 3.8 L 9.5 8.9 C 9.5 9.5 9 10 8.3 10 C 7.7 10 7.2 9.5 7.2 8.9 C 7.2 8.3 7.7 7.8 8.3 7.8 L 8.6 7.8 L 8.6 5.6 L 6.1 6 L 6.1 9.5 C 6.1 10.1 5.6 10.6 5 10.6 C 4.4 10.6 3.9 10.1 3.9 9.5 C 3.9 8.9 4.4 8.4 5 8.4 L 5.3 8.4 L 5.3 4.4 L 9.5 3.8 Z" fill="#ffffff" fill-opacity="1.0" /></svg>