<?xml version="1.0" encoding="utf-8" ?>
<svg baseProfile="full" height="164.0" version="1.1" viewBox="0 0 98.0 164.0" width="98.0" xmlns="http://www.w3.org/2000/svg" xmlns:ev="http://www.w3.org/2001/xml-events" xmlns:xlink="http://www.w3.org/1999/xlink"><defs /><path d="M7.21,29.36C3.67,29.36 0.9,32.4 1.24,35.93L12.65,155.48C13.06,159.84 16.73,163.17 21.11,163.17H76.89C81.27,163.17 84.93,159.84 85.35,155.48L96.76,35.93C97.1,32.4 94.33,29.36 90.79,29.36H7.21Z" fill="#000000" fill-opacity="0.0" /><path d="M42.32,23.77V71.39C42.32,73.6 44.11,75.39 46.32,75.39H52.01C54.22,75.39 56.01,73.6 56.01,71.39V27.5C56.01,26.57 56.33,25.67 56.93,24.95L68.04,11.49C69.39,9.85 69.23,7.45 67.68,6.01L64.27,2.85C62.6,1.3 59.97,1.46 58.49,3.2L43.27,21.19C42.66,21.91 42.32,22.83 42.32,23.77Z" fill="#000000" fill-opacity="1.0" /><path d="M42.65,71.39V23.77C42.65,22.91 42.96,22.07 43.52,21.4L58.75,3.41C60.1,1.82 62.51,1.67 64.04,3.09L67.45,6.25C68.87,7.58 69.02,9.78 67.78,11.28L56.67,24.74C56.03,25.51 55.68,26.49 55.68,27.5V71.39C55.68,73.41 54.04,75.06 52.01,75.06H46.32C44.3,75.06 42.65,73.41 42.65,71.39Z" fill="#000000" fill-opacity="0.0" /><path d="M121.19,78C116.13,59.52 104.01,52.41 82.78,52.41C66.61,52.41 40.34,63.78 41.35,85.11C42.36,106.44 56.51,116.39 85.82,116.39C115.12,116.39 126.24,96.49 121.19,78Z" fill="#000000" fill-opacity="1.0" /><path d="M82.78,52.74C93.36,52.74 101.63,54.52 107.87,58.55C114.1,62.59 118.36,68.91 120.87,78.09C123.37,87.24 121.86,96.73 116.13,103.92C110.39,111.11 100.39,116.06 85.82,116.06C71.19,116.06 60.41,113.57 53.16,108.48C45.94,103.39 42.18,95.68 41.68,85.1C41.18,74.59 47.4,66.51 55.8,61.04C64.21,55.57 74.76,52.74 82.78,52.74Z" fill="#000000" fill-opacity="0.0" /><path d="M117.39,78.85C112.76,62.23 101.67,55.83 82.26,55.83C67.47,55.83 43.43,66.06 44.36,85.25C45.28,104.43 58.22,113.39 85.03,113.39C111.84,113.39 122.01,95.48 117.39,78.85Z" fill="#000000" fill-opacity="1.0" /><path d="M82.26,56.17C91.93,56.17 99.49,57.76 105.19,61.39C110.88,65.01 114.77,70.69 117.06,78.94C119.35,87.17 117.97,95.69 112.74,102.15C107.5,108.61 98.36,113.06 85.03,113.06C71.65,113.06 61.8,110.82 55.18,106.24C48.58,101.67 45.15,94.75 44.69,85.23C44.23,75.8 49.91,68.55 57.59,63.63C65.28,58.71 74.93,56.17 82.26,56.17Z" fill="#000000" fill-opacity="0.0" /><path d="M113.5,79.47C109.37,64.63 99.48,58.92 82.16,58.92C68.97,58.92 47.54,68.05 48.36,85.18C49.19,102.31 60.73,110.31 84.64,110.31C108.55,110.31 117.62,94.32 113.5,79.47Z" fill="#000000" fill-opacity="1.0" /><path d="M82.16,59.25C90.79,59.25 97.52,60.67 102.6,63.91C107.67,67.14 111.13,72.2 113.17,79.56C115.21,86.89 113.98,94.49 109.32,100.25C104.66,106 96.52,109.97 84.64,109.97C72.71,109.97 63.93,107.98 58.03,103.89C52.16,99.83 49.1,93.65 48.69,85.17C48.29,76.77 53.34,70.3 60.19,65.91C67.04,61.52 75.63,59.25 82.16,59.25Z" fill="#000000" fill-opacity="0.0" /><path d="M110.59,80.09C106.91,67.02 98.06,62 82.58,62C70.79,62 51.63,70.04 52.37,85.11C53.1,100.19 63.42,107.22 84.8,107.22C106.17,107.22 114.28,93.15 110.59,80.09Z" fill="#000000" fill-opacity="1.0" /><path d="M82.58,62.33C90.29,62.33 96.3,63.59 100.83,66.43C105.36,69.26 108.45,73.71 110.27,80.18C112.09,86.62 110.99,93.29 106.83,98.34C102.67,103.4 95.41,106.89 84.8,106.89C74.13,106.89 66.29,105.13 61.03,101.55C55.79,97.97 53.06,92.55 52.7,85.1C52.34,77.73 56.84,72.05 62.95,68.19C69.07,64.33 76.75,62.33 82.58,62.33Z" fill="#000000" fill-opacity="0.0" /><path d="M107.67,80.71C104.36,69.43 96.42,65.09 82.51,65.09C71.92,65.09 54.71,72.03 55.37,85.05C56.03,98.07 65.3,104.14 84.5,104.14C103.7,104.14 110.98,91.99 107.67,80.71Z" fill="#000000" fill-opacity="1.0" /><path d="M82.51,65.42C89.44,65.42 94.83,66.5 98.89,68.95C102.95,71.4 105.72,75.22 107.35,80.8C108.98,86.35 108,92.09 104.28,96.44C100.55,100.79 94.03,103.81 84.5,103.81C74.92,103.81 67.88,102.29 63.16,99.2C58.47,96.12 56.03,91.45 55.7,85.03C55.38,78.7 59.4,73.8 64.89,70.47C70.38,67.14 77.28,65.42 82.51,65.42Z" fill="#000000" fill-opacity="0.0" /><path d="M103.78,81.32C100.97,71.82 94.23,68.17 82.42,68.17C73.43,68.17 58.81,74.02 59.37,84.98C59.94,95.94 67.81,101.06 84.11,101.06C100.41,101.06 106.59,90.83 103.78,81.32Z" fill="#000000" fill-opacity="1.0" /><path d="M82.42,68.5C88.3,68.5 92.86,69.41 96.3,71.47C99.73,73.52 102.08,76.73 103.46,81.42C104.84,86.07 104.01,90.89 100.86,94.54C97.71,98.19 92.19,100.72 84.11,100.72C75.98,100.72 70.01,99.45 66.02,96.85C62.05,94.27 59.98,90.36 59.71,84.96C59.43,79.66 62.83,75.55 67.49,72.75C72.14,69.95 77.98,68.5 82.42,68.5Z" fill="#000000" fill-opacity="0.0" /><path d="M99.89,81.94C97.58,74.22 92.03,71.25 82.33,71.25C74.93,71.25 62.91,76 63.38,84.91C63.84,93.82 70.31,97.97 83.71,97.97C97.12,97.97 102.2,89.66 99.89,81.94Z" fill="#000000" fill-opacity="1.0" /><path d="M82.33,71.58C87.15,71.58 90.9,72.32 93.71,73.99C96.52,75.64 98.44,78.24 99.57,82.04C100.7,85.8 100.02,89.68 97.44,92.63C94.87,95.58 90.35,97.64 83.71,97.64C77.04,97.64 72.14,96.6 68.87,94.5C65.62,92.42 63.94,89.26 63.71,84.89C63.49,80.62 66.25,77.3 70.08,75.03C73.89,72.76 78.69,71.58 82.33,71.58Z" fill="#000000" fill-opacity="0.0" /><path d="M96,82.56C94.19,76.62 89.84,74.33 82.23,74.33C76.44,74.33 67.02,77.99 67.38,84.84C67.74,91.69 72.82,94.89 83.32,94.89C93.83,94.89 97.81,88.49 96,82.56Z" fill="#000000" fill-opacity="1.0" /><path d="M82.23,74.67C86.01,74.67 88.93,75.24 91.12,76.51C93.3,77.77 94.8,79.75 95.68,82.65C96.56,85.52 96.03,88.48 94.03,90.73C92.03,92.98 88.51,94.56 83.32,94.56C78.09,94.56 74.27,93.76 71.73,92.15C69.2,90.56 67.89,88.16 67.71,84.82C67.54,81.58 69.68,79.05 72.67,77.31C75.65,75.57 79.39,74.67 82.23,74.67Z" fill="#000000" fill-opacity="0.0" /><path d="M88.81,83.85C87.92,82.27 85.77,81.66 82.01,81.66C79.14,81.66 74.49,82.63 74.67,84.46C74.84,86.29 77.35,87.14 82.55,87.14C87.74,87.14 89.71,85.44 88.81,83.85Z" fill="#000000" fill-opacity="1.0" /><path d="M82.01,81.99C83.88,81.99 85.31,82.14 86.39,82.48C87.45,82.81 88.13,83.32 88.52,84.02C88.71,84.34 88.73,84.64 88.63,84.92C88.52,85.21 88.26,85.52 87.79,85.81C86.84,86.38 85.12,86.81 82.55,86.81C79.96,86.81 78.08,86.6 76.83,86.17C75.59,85.75 75.07,85.15 75,84.43C74.97,84.14 75.12,83.83 75.54,83.52C75.95,83.2 76.56,82.92 77.3,82.69C78.76,82.23 80.6,81.99 82.01,81.99Z" fill="#000000" fill-opacity="0.0" /><path d="M93.09,83.17C91.65,79.01 88.2,77.42 82.17,77.42C77.57,77.42 70.1,79.97 70.39,84.77C70.67,89.57 74.7,91.81 83.03,91.81C91.36,91.81 94.52,87.33 93.09,83.17Z" fill="#000000" fill-opacity="1.0" /><path d="M82.17,77.75C85.16,77.75 87.47,78.15 89.2,79.03C90.91,79.91 92.08,81.28 92.77,83.28C93.45,85.24 93.04,87.26 91.49,88.81C89.92,90.37 87.14,91.47 83.03,91.47C78.88,91.47 75.86,90.91 73.85,89.8C71.87,88.69 70.86,87.04 70.72,84.75C70.59,82.56 72.23,80.81 74.6,79.59C76.95,78.38 79.92,77.75 82.17,77.75Z" fill="#000000" fill-opacity="0.0" /><path d="M89.19,83.79C88.26,81.41 86.01,80.5 82.07,80.5C79.07,80.5 74.2,81.96 74.39,84.7C74.58,87.44 77.2,88.72 82.63,88.72C88.07,88.72 90.13,86.17 89.19,83.79Z" fill="#000000" fill-opacity="1.0" /><path d="M82.07,80.83C84.02,80.83 85.51,81.06 86.62,81.56C87.71,82.05 88.45,82.81 88.88,83.91C89.3,84.96 89.06,86.05 88.08,86.9C87.09,87.76 85.31,88.39 82.63,88.39C79.93,88.39 77.98,88.07 76.69,87.44C76.05,87.13 75.58,86.75 75.27,86.3C74.95,85.85 74.77,85.31 74.72,84.68C74.68,84.11 74.9,83.59 75.34,83.12C75.77,82.64 76.41,82.22 77.17,81.88C78.7,81.19 80.62,80.83 82.07,80.83Z" fill="#000000" fill-opacity="0.0" /><path d="M44.05,73.89C39,55.41 26.87,48.3 5.65,48.3C-10.52,48.3 -36.8,59.67 -35.79,81C-34.78,102.33 -20.63,112.28 8.68,112.28C37.99,112.28 49.11,92.38 44.05,73.89Z" fill="#000000" fill-opacity="1.0" /><path d="M5.65,48.63C16.23,48.63 24.49,50.41 30.73,54.44C36.96,58.48 41.22,64.8 43.73,73.98C46.23,83.13 44.73,92.62 38.99,99.81C33.26,107 23.26,111.95 8.68,111.95C-5.95,111.95 -16.73,109.46 -23.97,104.37C-31.2,99.29 -34.95,91.57 -35.46,80.99C-35.95,70.48 -29.74,62.4 -21.33,56.93C-12.92,51.46 -2.37,48.63 5.65,48.63Z" fill="#000000" fill-opacity="0.0" /><path d="M40.25,74.75C35.63,58.12 24.54,51.72 5.12,51.72C-9.67,51.72 -33.7,61.96 -32.78,81.14C-31.85,100.33 -18.91,109.28 7.9,109.28C34.7,109.28 44.87,91.37 40.25,74.75Z" fill="#000000" fill-opacity="1.0" /><path d="M5.12,52.06C14.8,52.06 22.35,53.65 28.05,57.28C33.75,60.9 37.63,66.58 39.93,74.84C42.22,83.06 40.84,91.58 35.6,98.04C30.36,104.5 21.22,108.95 7.9,108.95C-5.48,108.95 -15.34,106.71 -21.96,102.13C-28.56,97.57 -31.99,90.64 -32.45,81.13C-32.9,71.7 -27.23,64.44 -19.54,59.52C-11.85,54.6 -2.21,52.06 5.12,52.06Z" fill="#000000" fill-opacity="0.0" /><path d="M36.36,75.36C32.24,60.52 22.34,54.81 5.03,54.81C-8.16,54.81 -29.6,63.94 -28.77,81.07C-27.95,98.2 -16.41,106.2 7.5,106.2C31.41,106.2 40.48,90.21 36.36,75.36Z" fill="#000000" fill-opacity="1.0" /><path d="M5.03,55.14C13.66,55.14 20.39,56.56 25.46,59.8C30.53,63.03 33.99,68.09 36.04,75.45C38.08,82.79 36.85,90.38 32.18,96.14C27.52,101.89 19.38,105.86 7.5,105.86C-4.42,105.86 -13.21,103.87 -19.1,99.78C-24.98,95.72 -28.03,89.54 -28.44,81.06C-28.85,72.66 -23.8,66.19 -16.95,61.8C-10.1,57.41 -1.5,55.14 5.03,55.14Z" fill="#000000" fill-opacity="0.0" /><path d="M33.46,75.98C29.77,62.92 20.93,57.89 5.45,57.89C-6.34,57.89 -25.51,65.93 -24.77,81C-24.03,96.08 -13.71,103.11 7.66,103.11C29.04,103.11 37.14,89.04 33.46,75.98Z" fill="#000000" fill-opacity="1.0" /><path d="M5.45,58.22C13.16,58.22 19.17,59.48 23.7,62.32C28.22,65.15 31.31,69.6 33.14,76.07C34.95,82.51 33.86,89.18 29.7,94.23C25.54,99.29 18.28,102.78 7.66,102.78C-3,102.78 -10.84,101.02 -16.1,97.44C-21.35,93.86 -24.07,88.44 -24.44,80.99C-24.8,73.62 -20.3,67.94 -14.18,64.08C-8.06,60.22 -0.38,58.22 5.45,58.22Z" fill="#000000" fill-opacity="0.0" /><path d="M30.54,76.6C27.23,65.32 19.28,60.98 5.38,60.98C-5.21,60.98 -22.43,67.92 -21.77,80.94C-21.1,93.96 -11.84,100.03 7.37,100.03C26.57,100.03 33.85,87.88 30.54,76.6Z" fill="#000000" fill-opacity="1.0" /><path d="M5.38,61.31C12.3,61.31 17.69,62.39 21.76,64.84C25.81,67.29 28.58,71.11 30.22,76.69C31.85,82.24 30.87,87.98 27.14,92.33C23.41,96.68 16.9,99.7 7.37,99.7C-2.21,99.7 -9.25,98.18 -13.97,95.09C-18.67,92.01 -21.11,87.34 -21.43,80.92C-21.76,74.59 -17.73,69.69 -12.24,66.36C-6.75,63.03 0.14,61.31 5.38,61.31Z" fill="#000000" fill-opacity="0.0" /><path d="M26.65,77.22C23.84,67.71 17.09,64.06 5.29,64.06C-3.71,64.06 -18.32,69.91 -17.76,80.87C-17.2,91.83 -9.33,96.95 6.97,96.95C23.27,96.95 29.46,86.72 26.65,77.22Z" fill="#000000" fill-opacity="1.0" /><path d="M5.29,64.39C11.16,64.39 15.73,65.3 19.17,67.36C22.6,69.41 24.94,72.62 26.33,77.31C27.7,81.96 26.88,86.78 23.73,90.43C20.57,94.08 15.06,96.62 6.97,96.62C-1.15,96.62 -7.12,95.34 -11.12,92.74C-15.09,90.16 -17.15,86.25 -17.43,80.85C-17.7,75.55 -14.31,71.44 -9.65,68.64C-4.99,65.84 0.85,64.39 5.29,64.39Z" fill="#000000" fill-opacity="0.0" /><path d="M22.76,77.83C20.44,70.11 14.9,67.14 5.19,67.14C-2.2,67.14 -14.22,71.89 -13.76,80.8C-13.3,89.71 -6.83,93.86 6.58,93.86C19.98,93.86 25.07,85.55 22.76,77.83Z" fill="#000000" fill-opacity="1.0" /><path d="M5.19,67.47C10.02,67.47 13.76,68.21 16.58,69.88C19.38,71.54 21.3,74.13 22.44,77.93C23.56,81.69 22.88,85.57 20.31,88.52C17.73,91.47 13.21,93.53 6.58,93.53C-0.1,93.53 -4.99,92.49 -8.26,90.39C-11.51,88.31 -13.2,85.15 -13.43,80.78C-13.65,76.51 -10.88,73.19 -7.06,70.92C-3.24,68.65 1.55,67.47 5.19,67.47Z" fill="#000000" fill-opacity="0.0" /><path d="M18.87,78.45C17.05,72.51 12.71,70.22 5.1,70.22C-0.7,70.22 -10.12,73.88 -9.75,80.73C-9.39,87.58 -4.32,90.78 6.19,90.78C16.69,90.78 20.68,84.39 18.87,78.45Z" fill="#000000" fill-opacity="1.0" /><path d="M5.1,70.56C8.88,70.56 11.8,71.13 13.99,72.4C16.17,73.66 17.66,75.64 18.55,78.54C19.42,81.41 18.9,84.37 16.9,86.62C14.89,88.87 11.37,90.45 6.19,90.45C0.96,90.45 -2.86,89.65 -5.41,88.04C-7.93,86.45 -9.24,84.05 -9.42,80.71C-9.59,77.47 -7.45,74.94 -4.47,73.2C-1.49,71.46 2.26,70.56 5.1,70.56Z" fill="#000000" fill-opacity="0.0" /><path d="M11.68,79.74C10.78,78.16 8.63,77.55 4.87,77.55C2.01,77.55 -2.65,78.52 -2.47,80.35C-2.29,82.18 0.22,83.03 5.41,83.03C10.6,83.03 12.57,81.33 11.68,79.74Z" fill="#000000" fill-opacity="1.0" /><path d="M4.87,77.88C6.74,77.88 8.18,78.04 9.25,78.37C10.32,78.7 10.99,79.21 11.39,79.91C11.57,80.23 11.6,80.53 11.5,80.81C11.39,81.1 11.13,81.41 10.66,81.7C9.7,82.28 7.98,82.7 5.41,82.7C2.82,82.7 0.94,82.49 -0.3,82.06C-1.54,81.64 -2.07,81.05 -2.14,80.32C-2.17,80.03 -2.01,79.72 -1.6,79.41C-1.19,79.09 -0.57,78.81 0.16,78.58C1.62,78.12 3.47,77.88 4.87,77.88Z" fill="#000000" fill-opacity="0.0" /><path d="M15.95,79.06C14.51,74.91 11.06,73.31 5.03,73.31C0.43,73.31 -7.04,75.86 -6.75,80.66C-6.46,85.46 -2.44,87.7 5.89,87.7C14.22,87.7 17.39,83.22 15.95,79.06Z" fill="#000000" fill-opacity="1.0" /><path d="M5.03,73.64C8.02,73.64 10.33,74.04 12.06,74.92C13.77,75.8 14.94,77.17 15.63,79.17C16.31,81.13 15.91,83.16 14.35,84.7C12.78,86.26 10.01,87.36 5.89,87.36C1.74,87.36 -1.28,86.8 -3.28,85.69C-5.26,84.58 -6.28,82.93 -6.42,80.64C-6.55,78.45 -4.91,76.7 -2.54,75.48C-0.18,74.27 2.78,73.64 5.03,73.64Z" fill="#000000" fill-opacity="0.0" /><path d="M12.06,79.68C11.12,77.31 8.87,76.39 4.94,76.39C1.94,76.39 -2.93,77.85 -2.75,80.59C-2.56,83.33 0.06,84.61 5.5,84.61C10.93,84.61 12.99,82.06 12.06,79.68Z" fill="#000000" fill-opacity="1.0" /><path d="M4.94,76.72C6.88,76.72 8.38,76.95 9.48,77.45C10.58,77.94 11.31,78.7 11.75,79.8C12.16,80.85 11.92,81.94 10.95,82.79C9.95,83.65 8.17,84.28 5.5,84.28C2.8,84.28 0.84,83.96 -0.45,83.33C-1.09,83.02 -1.55,82.64 -1.87,82.19C-2.19,81.74 -2.37,81.2 -2.41,80.57C-2.45,80 -2.23,79.48 -1.8,79.01C-1.36,78.53 -0.72,78.11 0.04,77.77C1.56,77.08 3.48,76.72 4.94,76.72Z" fill="#000000" fill-opacity="0.0" /><path d="M91.14,88.28C86.08,69.8 73.96,62.69 52.73,62.69C36.56,62.69 10.29,74.06 11.3,95.39C12.31,116.72 26.46,126.67 55.76,126.67C85.07,126.67 96.19,106.76 91.14,88.28Z" fill="#000000" fill-opacity="1.0" /><path d="M52.73,63.02C63.31,63.02 71.58,64.79 77.82,68.83C84.05,72.86 88.3,79.18 90.82,88.37C93.32,97.52 91.81,107 86.08,114.2C80.34,121.39 70.34,126.34 55.76,126.34C41.14,126.34 30.35,123.85 23.11,118.75C15.89,113.67 12.13,105.96 11.63,95.37C11.13,84.87 17.35,76.79 25.75,71.32C34.16,65.84 44.71,63.02 52.73,63.02Z" fill="#000000" fill-opacity="0.0" /><path d="M87.33,89.13C82.71,72.5 71.62,66.11 52.21,66.11C37.42,66.11 13.38,76.34 14.31,95.53C15.23,114.71 28.17,123.67 54.98,123.67C81.79,123.67 91.96,105.76 87.33,89.13Z" fill="#000000" fill-opacity="1.0" /><path d="M52.21,66.44C61.88,66.44 69.44,68.04 75.14,71.67C80.83,75.29 84.72,80.97 87.01,89.22C89.3,97.44 87.92,105.96 82.68,112.42C77.45,118.88 68.31,123.33 54.98,123.33C41.6,123.33 31.75,121.1 25.13,116.52C18.53,111.95 15.1,105.02 14.64,95.51C14.18,86.08 19.86,78.82 27.54,73.9C35.23,68.98 44.87,66.44 52.21,66.44Z" fill="#000000" fill-opacity="0.0" /><path d="M83.44,89.75C79.32,74.9 69.43,69.19 52.11,69.19C38.92,69.19 17.49,78.33 18.31,95.46C19.13,112.59 30.68,120.58 54.59,120.58C78.5,120.58 87.57,104.6 83.44,89.75Z" fill="#000000" fill-opacity="1.0" /><path d="M52.11,69.53C60.74,69.53 67.47,70.95 72.55,74.19C77.61,77.42 81.08,82.48 83.12,89.84C85.16,97.17 83.93,104.77 79.27,110.52C74.61,116.28 66.47,120.25 54.59,120.25C42.66,120.25 33.88,118.25 27.98,114.17C22.11,110.1 19.05,103.93 18.64,95.44C18.24,87.04 23.29,80.57 30.14,76.18C36.99,71.79 45.58,69.53 52.11,69.53Z" fill="#000000" fill-opacity="0.0" /><path d="M80.54,90.37C76.86,77.3 68.01,72.28 52.53,72.28C40.74,72.28 21.58,80.32 22.32,95.39C23.05,110.46 33.37,117.5 54.75,117.5C76.12,117.5 84.23,103.43 80.54,90.37Z" fill="#000000" fill-opacity="1.0" /><path d="M52.53,72.61C60.24,72.61 66.25,73.86 70.78,76.7C75.3,79.54 78.39,83.98 80.22,90.46C82.04,96.9 80.94,103.56 76.78,108.62C72.62,113.68 65.36,117.17 54.75,117.17C44.08,117.17 36.24,115.41 30.98,111.82C25.74,108.25 23.01,102.83 22.65,95.37C22.29,88 26.79,82.32 32.9,78.46C39.02,74.6 46.7,72.61 52.53,72.61Z" fill="#000000" fill-opacity="0.0" /><path d="M77.62,90.99C74.31,79.7 66.37,75.36 52.46,75.36C41.87,75.36 24.66,82.31 25.32,95.33C25.98,108.34 35.25,114.42 54.45,114.42C73.65,114.42 80.93,102.27 77.62,90.99Z" fill="#000000" fill-opacity="1.0" /><path d="M52.46,75.7C59.39,75.7 64.78,76.78 68.84,79.23C72.9,81.67 75.67,85.5 77.3,91.08C78.93,96.62 77.95,102.36 74.22,106.72C70.5,111.07 63.98,114.09 54.45,114.09C44.87,114.09 37.83,112.57 33.11,109.47C28.42,106.4 25.98,101.73 25.65,95.31C25.33,88.97 29.35,84.08 34.84,80.75C40.33,77.42 47.23,75.7 52.46,75.7Z" fill="#000000" fill-opacity="0.0" /><path d="M73.73,91.6C70.92,82.1 64.18,78.45 52.37,78.45C43.38,78.45 28.76,84.29 29.32,95.26C29.88,106.22 37.75,111.33 54.06,111.33C70.36,111.33 76.54,101.1 73.73,91.6Z" fill="#000000" fill-opacity="1.0" /><path d="M52.37,78.78C58.24,78.78 62.81,79.69 66.25,81.75C69.68,83.8 72.03,87.01 73.41,91.7C74.79,96.35 73.96,101.16 70.81,104.81C67.66,108.47 62.14,111 54.06,111C45.93,111 39.96,109.72 35.97,107.13C32,104.54 29.93,100.63 29.66,95.24C29.38,89.93 32.78,85.83 37.43,83.02C42.09,80.22 47.93,78.78 52.37,78.78Z" fill="#000000" fill-opacity="0.0" /><path d="M69.84,92.22C67.53,84.5 61.98,81.53 52.28,81.53C44.88,81.53 32.86,86.28 33.33,95.18C33.79,104.09 40.26,108.25 53.66,108.25C67.07,108.25 72.15,99.94 69.84,92.22Z" fill="#000000" fill-opacity="1.0" /><path d="M52.28,81.86C57.1,81.86 60.85,82.6 63.66,84.26C66.47,85.92 68.38,88.52 69.52,92.31C70.65,96.07 69.97,99.96 67.39,102.91C64.82,105.86 60.3,107.92 53.66,107.92C46.98,107.92 42.09,106.88 38.82,104.78C35.57,102.69 33.88,99.53 33.66,95.17C33.44,90.89 36.2,87.57 40.02,85.3C43.84,83.03 48.64,81.86 52.28,81.86Z" fill="#000000" fill-opacity="0.0" /><path d="M65.95,92.83C64.14,86.9 59.79,84.61 52.18,84.61C46.39,84.61 36.97,88.27 37.33,95.12C37.69,101.97 42.76,105.17 53.27,105.17C63.78,105.17 67.76,98.77 65.95,92.83Z" fill="#000000" fill-opacity="1.0" /><path d="M52.18,84.94C55.96,84.94 58.88,85.51 61.07,86.78C63.25,88.05 64.75,90.03 65.63,92.93C66.51,95.8 65.98,98.76 63.98,101.01C61.98,103.26 58.46,104.83 53.27,104.83C48.04,104.83 44.22,104.04 41.67,102.43C39.15,100.84 37.84,98.43 37.66,95.1C37.49,91.85 39.63,89.32 42.62,87.58C45.6,85.84 49.34,84.94 52.18,84.94Z" fill="#000000" fill-opacity="0.0" /><path d="M58.76,94.13C57.87,92.54 55.72,91.94 51.96,91.94C49.09,91.94 44.44,92.91 44.61,94.74C44.79,96.57 47.3,97.42 52.49,97.42C57.69,97.42 59.66,95.71 58.76,94.13Z" fill="#000000" fill-opacity="1.0" /><path d="M51.96,92.27C53.83,92.27 55.26,92.42 56.34,92.76C57.4,93.09 58.08,93.6 58.47,94.29C58.66,94.62 58.68,94.92 58.58,95.2C58.47,95.49 58.21,95.8 57.74,96.08C56.79,96.66 55.07,97.09 52.49,97.09C49.91,97.09 48.03,96.87 46.78,96.45C45.54,96.03 45.02,95.43 44.95,94.71C44.92,94.41 45.07,94.11 45.49,93.79C45.9,93.48 46.51,93.2 47.24,92.97C48.71,92.51 50.55,92.27 51.96,92.27Z" fill="#000000" fill-opacity="0.0" /><path d="M63.03,93.45C61.6,89.29 58.15,87.69 52.11,87.69C47.52,87.69 40.05,90.25 40.33,95.05C40.62,99.84 44.64,102.08 52.98,102.08C61.31,102.08 64.47,97.61 63.03,93.45Z" fill="#000000" fill-opacity="1.0" /><path d="M52.11,88.03C55.11,88.03 57.42,88.42 59.15,89.31C60.86,90.19 62.02,91.55 62.72,93.56C63.4,95.52 62.99,97.54 61.43,99.09C59.86,100.64 57.09,101.75 52.98,101.75C48.83,101.75 45.81,101.19 43.8,100.07C41.82,98.97 40.8,97.32 40.67,95.03C40.54,92.83 42.17,91.09 44.55,89.87C46.9,88.66 49.87,88.03 52.11,88.03Z" fill="#000000" fill-opacity="0.0" /><path d="M59.14,94.07C58.21,91.69 55.96,90.78 52.02,90.78C49.02,90.78 44.15,92.24 44.34,94.98C44.53,97.72 47.15,99 52.58,99C58.02,99 60.08,96.44 59.14,94.07Z" fill="#000000" fill-opacity="1.0" /><path d="M52.02,91.11C53.97,91.11 55.46,91.34 56.57,91.84C57.66,92.33 58.4,93.08 58.83,94.19C59.25,95.24 59.01,96.33 58.03,97.17C57.04,98.04 55.26,98.67 52.58,98.67C49.88,98.67 47.93,98.35 46.64,97.72C46,97.41 45.53,97.02 45.21,96.57C44.9,96.12 44.72,95.59 44.67,94.96C44.63,94.38 44.85,93.86 45.29,93.39C45.72,92.92 46.36,92.5 47.12,92.16C48.65,91.47 50.57,91.11 52.02,91.11Z" fill="#000000" fill-opacity="0.0" /><path d="M61.69,77.92L53.06,97.46C52.5,98.74 53.4,100.2 54.81,100.26L90.01,101.82C91.26,101.87 92.25,100.78 92.08,99.55L88.17,71.08C88.09,70.51 87.77,70 87.29,69.68L78.13,63.67C77.53,63.27 76.76,63.23 76.12,63.56L72.73,65.3C72.22,65.56 71.85,66.03 71.7,66.59L69.34,75.93C69.08,76.97 68.05,77.61 67,77.4L63.92,76.76C63,76.58 62.07,77.06 61.69,77.92Z" fill="#000000" fill-opacity="1.0" /><path d="M53.37,97.59L61.99,78.05C62.31,77.33 63.09,76.93 63.85,77.09L66.94,77.72C68.16,77.97 69.36,77.22 69.67,76.01L72.03,66.67C72.15,66.21 72.46,65.81 72.88,65.6L76.27,63.86C76.8,63.58 77.44,63.62 77.95,63.95L87.11,69.96C87.51,70.23 87.78,70.65 87.84,71.13L91.75,99.59C91.89,100.62 91.06,101.53 90.02,101.48L54.82,99.93C53.65,99.88 52.9,98.67 53.37,97.59Z" fill="#000000" fill-opacity="0.0" /><path d="M76.32,79.15L67.19,98.58C66.56,99.92 67.55,101.45 69.03,101.43L92.78,101.06C93.98,101.04 94.89,99.99 94.74,98.81L93.05,85.62C92.93,84.7 92.19,83.98 91.26,83.89L84.46,83.22C83.97,83.17 83.51,82.94 83.17,82.58L79.61,78.66C78.65,77.6 76.93,77.86 76.32,79.15Z" fill="#000000" fill-opacity="1.0" /><path d="M67.49,98.72L76.62,79.29C77.13,78.22 78.56,78 79.36,78.88L82.93,82.8C83.32,83.23 83.85,83.5 84.43,83.55L91.22,84.22C92,84.29 92.62,84.89 92.72,85.66L94.41,98.85C94.53,99.84 93.77,100.71 92.78,100.73L69.03,101.09C67.79,101.11 66.97,99.83 67.49,98.72Z" fill="#000000" fill-opacity="0.0" /><path d="M12.11,51.35L6.58,80.96C6.37,82.09 7.15,83.16 8.29,83.31L51.26,88.87C52.76,89.06 53.92,87.6 53.39,86.19L36.17,40.16C35.95,39.57 35.47,39.12 34.87,38.94L29.74,37.39C28.94,37.15 28.08,37.44 27.57,38.1L22.58,44.69C22.4,44.92 22.18,45.11 21.93,45.25L13.14,49.95C12.6,50.24 12.22,50.75 12.11,51.35Z" fill="#000000" fill-opacity="1.0" /><path d="M6.91,81.02L12.44,51.41C12.53,50.91 12.85,50.48 13.29,50.25L22.08,45.54C22.38,45.38 22.64,45.16 22.84,44.89L27.84,38.3C28.26,37.75 28.98,37.51 29.65,37.71L34.77,39.26C35.27,39.41 35.67,39.79 35.85,40.27L53.08,86.3C53.52,87.48 52.55,88.7 51.3,88.54L8.33,82.98C7.38,82.86 6.73,81.96 6.91,81.02Z" fill="#000000" fill-opacity="0.0" /><path d="M27.43,86.28L21.83,116.28C21.62,117.4 22.4,118.48 23.54,118.63L66.65,124.21C68.11,124.39 69.27,122.99 68.81,121.6L52.24,71.43C52.05,70.85 51.61,70.4 51.05,70.18L41.88,66.7C40.92,66.33 39.83,66.76 39.38,67.69L34.2,78.31C34.12,78.48 34.01,78.64 33.88,78.78L27.92,85.3C27.67,85.57 27.5,85.92 27.43,86.28Z" fill="#000000" fill-opacity="1.0" /><path d="M22.16,116.34L27.76,86.34C27.82,86.04 27.96,85.75 28.17,85.52L34.13,79.01C34.28,78.84 34.4,78.66 34.5,78.45L39.68,67.84C40.05,67.06 40.96,66.71 41.77,67.01L50.93,70.49C51.4,70.67 51.77,71.05 51.92,71.53L68.49,121.7C68.88,122.86 67.91,124.03 66.7,123.88L23.58,118.3C22.63,118.17 21.98,117.28 22.16,116.34Z" fill="#000000" fill-opacity="0.0" /><path d="M6.44,63.89L0.91,93.48C0.7,94.6 1.48,95.68 2.62,95.83L45.69,101.4C47.16,101.59 48.32,100.17 47.83,98.76L32.61,54.79C32.43,54.27 32.05,53.85 31.55,53.63L23.08,49.8C22.15,49.38 21.05,49.73 20.53,50.62L16.5,57.5C16.31,57.83 16.03,58.1 15.69,58.27L7.5,62.47C6.95,62.76 6.56,63.28 6.44,63.89Z" fill="#000000" fill-opacity="1.0" /><path d="M1.24,93.54L6.77,63.95C6.87,63.44 7.19,63.01 7.65,62.77L15.84,58.57C16.24,58.36 16.57,58.05 16.79,57.67L20.82,50.78C21.25,50.05 22.16,49.76 22.94,50.11L31.41,53.93C31.83,54.12 32.15,54.47 32.3,54.9L47.52,98.87C47.92,100.04 46.96,101.23 45.73,101.07L2.66,95.5C1.71,95.37 1.06,94.48 1.24,93.54Z" fill="#000000" fill-opacity="0.0" /><path d="M26.49,64.92L22.98,63.34C22.34,63.05 21.6,63.12 21.03,63.52L14.88,67.75C14.49,68.02 14.21,68.42 14.08,68.88L7.92,92.23C7.59,93.5 8.54,94.74 9.86,94.74H34.22C35.58,94.74 36.54,93.41 36.12,92.12L27.57,66.12C27.4,65.58 27,65.15 26.49,64.92Z" fill="#000000" fill-opacity="1.0" /><path d="M22.84,63.64L26.35,65.22C26.78,65.41 27.11,65.77 27.25,66.22L35.8,92.22C36.15,93.3 35.35,94.41 34.22,94.41H9.86C8.76,94.41 7.97,93.37 8.24,92.32L14.41,68.97C14.51,68.58 14.74,68.25 15.07,68.02L21.21,63.79C21.69,63.46 22.31,63.41 22.84,63.64Z" fill="#000000" fill-opacity="0.0" /><path d="M67.09,100.61C62.04,82.13 49.91,75.02 28.69,75.02C12.52,75.02 -13.76,86.39 -12.75,107.72C-11.74,129.05 2.41,139 31.72,139C61.03,139 72.15,119.1 67.09,100.61Z" fill="#000000" fill-opacity="1.0" /><path d="M28.69,75.35C39.27,75.35 47.53,77.13 53.77,81.16C60,85.2 64.26,91.52 66.77,100.7C69.27,109.85 67.77,119.34 62.03,126.53C56.3,133.72 46.3,138.67 31.72,138.67C17.09,138.67 6.31,136.18 -0.93,131.09C-8.16,126 -11.91,118.29 -12.42,107.71C-12.91,97.2 -6.7,89.12 1.71,83.65C10.12,78.18 20.67,75.35 28.69,75.35Z" fill="#000000" fill-opacity="0.0" /><path d="M63.29,101.46C58.67,84.84 47.57,78.44 28.16,78.44C13.37,78.44 -10.66,88.67 -9.74,107.86C-8.82,127.04 4.13,136 30.93,136C57.74,136 67.91,118.09 63.29,101.46Z" fill="#000000" fill-opacity="1.0" /><path d="M28.16,78.78C37.84,78.78 45.39,80.37 51.09,84C56.79,87.62 60.67,93.3 62.97,101.55C65.25,109.78 63.88,118.3 58.64,124.76C53.4,131.22 44.26,135.66 30.93,135.66C17.56,135.66 7.7,133.43 1.08,128.85C-5.52,124.28 -8.95,117.36 -9.41,107.84C-9.86,98.42 -4.19,91.16 3.5,86.24C11.19,81.32 20.83,78.78 28.16,78.78Z" fill="#000000" fill-opacity="0.0" /><path d="M59.4,102.08C55.28,87.24 45.38,81.53 28.07,81.53C14.88,81.53 -6.56,90.66 -5.73,107.79C-4.91,124.92 6.63,132.92 30.54,132.92C54.45,132.92 63.52,116.93 59.4,102.08Z" fill="#000000" fill-opacity="1.0" /><path d="M28.07,81.86C36.7,81.86 43.42,83.28 48.5,86.52C53.57,89.75 57.03,94.81 59.08,102.17C61.11,109.5 59.89,117.1 55.22,122.86C50.56,128.61 42.42,132.58 30.54,132.58C18.61,132.58 9.83,130.59 3.94,126.5C-1.94,122.44 -4.99,116.26 -5.4,107.78C-5.81,99.38 -0.76,92.91 6.09,88.52C12.94,84.13 21.54,81.86 28.07,81.86Z" fill="#000000" fill-opacity="0.0" /><path d="M56.5,102.7C52.81,89.64 43.97,84.61 28.49,84.61C16.7,84.61 -2.47,92.65 -1.73,107.72C-0.99,122.8 9.33,129.83 30.7,129.83C52.07,129.83 60.18,115.76 56.5,102.7Z" fill="#000000" fill-opacity="1.0" /><path d="M28.49,84.94C36.2,84.94 42.21,86.2 46.74,89.04C51.26,91.87 54.35,96.32 56.18,102.79C57.99,109.23 56.9,115.9 52.74,120.96C48.58,126.01 41.31,129.5 30.7,129.5C20.04,129.5 12.2,127.74 6.93,124.16C1.69,120.58 -1.03,115.16 -1.4,107.71C-1.76,100.34 2.74,94.66 8.86,90.8C14.98,86.94 22.66,84.94 28.49,84.94Z" fill="#000000" fill-opacity="0.0" /><path d="M53.58,103.32C50.27,92.04 42.32,87.7 28.42,87.7C17.82,87.7 0.61,94.64 1.27,107.66C1.93,120.68 11.2,126.75 30.4,126.75C49.6,126.75 56.89,114.6 53.58,103.32Z" fill="#000000" fill-opacity="1.0" /><path d="M28.42,88.03C35.34,88.03 40.73,89.11 44.8,91.56C48.85,94.01 51.62,97.83 53.26,103.41C54.88,108.96 53.9,114.7 50.18,119.05C46.45,123.4 39.94,126.42 30.4,126.42C20.83,126.42 13.79,124.9 9.07,121.81C4.37,118.73 1.93,114.06 1.61,107.64C1.28,101.31 5.3,96.41 10.8,93.08C16.29,89.75 23.18,88.03 28.42,88.03Z" fill="#000000" fill-opacity="0.0" /><path d="M49.69,103.93C46.88,94.43 40.13,90.78 28.33,90.78C19.33,90.78 4.72,96.63 5.28,107.59C5.84,118.55 13.71,123.67 30.01,123.67C46.31,123.67 52.5,113.44 49.69,103.93Z" fill="#000000" fill-opacity="1.0" /><path d="M28.33,91.11C34.2,91.11 38.77,92.02 42.21,94.08C45.64,96.13 47.98,99.34 49.37,104.03C50.74,108.68 49.92,113.5 46.76,117.15C43.61,120.8 38.1,123.33 30.01,123.33C21.88,123.33 15.92,122.06 11.92,119.46C7.95,116.88 5.89,112.96 5.61,107.57C5.34,102.27 8.73,98.16 13.39,95.36C18.04,92.56 23.89,91.11 28.33,91.11Z" fill="#000000" fill-opacity="0.0" /><path d="M45.79,104.55C43.48,96.83 37.94,93.86 28.23,93.86C20.84,93.86 8.82,98.61 9.28,107.52C9.74,116.43 16.21,120.58 29.62,120.58C43.02,120.58 48.11,112.27 45.79,104.55Z" fill="#000000" fill-opacity="1.0" /><path d="M28.23,94.19C33.06,94.19 36.8,94.93 39.62,96.6C42.42,98.25 44.34,100.85 45.48,104.65C46.6,108.41 45.92,112.29 43.35,115.24C40.77,118.19 36.25,120.25 29.62,120.25C22.94,120.25 18.05,119.21 14.78,117.11C11.53,115.03 9.84,111.87 9.61,107.5C9.39,103.23 12.16,99.91 15.98,97.64C19.8,95.37 24.59,94.19 28.23,94.19Z" fill="#000000" fill-opacity="0.0" /><path d="M41.9,105.17C40.09,99.23 35.75,96.94 28.14,96.94C22.34,96.94 12.92,100.6 13.29,107.45C13.65,114.3 18.72,117.5 29.23,117.5C39.73,117.5 43.72,111.11 41.9,105.17Z" fill="#000000" fill-opacity="1.0" /><path d="M28.14,97.28C31.92,97.28 34.84,97.85 37.03,99.12C39.21,100.38 40.7,102.36 41.59,105.26C42.46,108.13 41.93,111.09 39.94,113.34C37.93,115.59 34.41,117.17 29.23,117.17C24,117.17 20.18,116.37 17.63,114.76C15.11,113.17 13.79,110.77 13.62,107.43C13.45,104.19 15.59,101.66 18.57,99.92C21.55,98.18 25.3,97.28 28.14,97.28Z" fill="#000000" fill-opacity="0.0" /><path d="M34.72,106.46C33.82,104.88 31.68,104.27 27.91,104.27C25.05,104.27 20.39,105.24 20.57,107.07C20.75,108.9 23.26,109.75 28.45,109.75C33.65,109.75 35.62,108.05 34.72,106.46Z" fill="#000000" fill-opacity="1.0" /><path d="M27.91,104.6C29.78,104.6 31.22,104.75 32.29,105.09C33.36,105.42 34.04,105.93 34.43,106.63C34.61,106.95 34.64,107.25 34.54,107.53C34.43,107.82 34.17,108.13 33.7,108.42C32.74,109 31.02,109.42 28.45,109.42C25.86,109.42 23.98,109.21 22.74,108.78C21.5,108.36 20.97,107.76 20.9,107.04C20.87,106.75 21.03,106.44 21.44,106.13C21.85,105.81 22.47,105.53 23.2,105.3C24.66,104.84 26.51,104.6 27.91,104.6Z" fill="#000000" fill-opacity="0.0" /><path d="M38.99,105.78C37.55,101.63 34.1,100.03 28.07,100.03C23.47,100.03 16,102.59 16.29,107.38C16.58,112.18 20.6,114.42 28.93,114.42C37.27,114.42 40.43,109.94 38.99,105.78Z" fill="#000000" fill-opacity="1.0" /><path d="M28.07,100.36C31.07,100.36 33.37,100.76 35.1,101.64C36.82,102.52 37.98,103.89 38.67,105.89C39.35,107.85 38.95,109.88 37.39,111.42C35.82,112.98 33.05,114.08 28.93,114.08C24.79,114.08 21.77,113.53 19.76,112.41C17.78,111.31 16.76,109.65 16.62,107.36C16.49,105.17 18.13,103.42 20.5,102.2C22.86,100.99 25.82,100.36 28.07,100.36Z" fill="#000000" fill-opacity="0.0" /><path d="M35.1,106.4C34.16,104.03 31.91,103.11 27.98,103.11C24.98,103.11 20.11,104.57 20.29,107.31C20.48,110.06 23.1,111.33 28.54,111.33C33.97,111.33 36.03,108.78 35.1,106.4Z" fill="#000000" fill-opacity="1.0" /><path d="M27.98,103.44C29.93,103.44 31.42,103.67 32.53,104.17C33.62,104.66 34.35,105.42 34.79,106.52C35.2,107.57 34.96,108.66 33.99,109.51C33,110.37 31.21,111 28.54,111C25.84,111 23.88,110.68 22.6,110.05C21.96,109.74 21.49,109.36 21.17,108.91C20.85,108.46 20.67,107.92 20.63,107.29C20.59,106.72 20.81,106.2 21.24,105.73C21.68,105.25 22.32,104.83 23.08,104.49C24.6,103.8 26.52,103.44 27.98,103.44Z" fill="#000000" fill-opacity="0.0" /><path d="M121.9,123C116.48,103.19 103.49,95.58 80.74,95.58C63.42,95.58 35.26,107.76 36.34,130.62C37.42,153.47 52.59,164.14 83.99,164.14C115.4,164.14 127.32,142.81 121.9,123Z" fill="#000000" fill-opacity="1.0" /><path d="M80.74,95.91C92.08,95.91 100.95,97.81 107.64,102.14C114.32,106.47 118.89,113.24 121.58,123.09C124.26,132.9 122.65,143.08 116.5,150.79C110.35,158.5 99.62,163.81 83.99,163.81C68.32,163.81 56.76,161.14 48.99,155.68C41.24,150.23 37.21,141.95 36.67,130.6C36.14,119.34 42.81,110.67 51.82,104.81C60.84,98.94 72.14,95.91 80.74,95.91Z" fill="#000000" fill-opacity="0.0" /><path d="M117.83,123.92C112.87,106.1 100.99,99.25 80.18,99.25C64.33,99.25 38.58,110.21 39.57,130.77C40.56,151.33 54.43,160.92 83.15,160.92C111.88,160.92 122.78,141.74 117.83,123.92Z" fill="#000000" fill-opacity="1.0" /><path d="M80.18,99.58C90.55,99.58 98.65,101.29 104.77,105.18C110.88,109.07 115.04,115.16 117.5,124.01C119.96,132.82 118.48,141.96 112.86,148.89C107.24,155.82 97.44,160.59 83.15,160.59C68.82,160.59 58.25,158.2 51.15,153.28C44.07,148.38 40.39,140.95 39.9,130.75C39.41,120.64 45.5,112.86 53.74,107.58C61.98,102.3 72.32,99.58 80.18,99.58Z" fill="#000000" fill-opacity="0.0" /><path d="M113.65,124.58C109.24,108.67 98.64,102.55 80.08,102.55C65.94,102.55 42.97,112.34 43.86,130.7C44.74,149.05 57.11,157.62 82.73,157.62C108.35,157.62 118.07,140.49 113.65,124.58Z" fill="#000000" fill-opacity="1.0" /><path d="M80.08,102.88C89.33,102.88 96.54,104.41 101.99,107.88C107.43,111.34 111.14,116.77 113.33,124.67C115.52,132.53 114.2,140.68 109.2,146.85C104.2,153.03 95.47,157.29 82.73,157.29C69.95,157.29 60.53,155.15 54.21,150.77C47.9,146.4 44.63,139.78 44.19,130.68C43.76,121.67 49.17,114.73 56.52,110.02C63.86,105.31 73.08,102.88 80.08,102.88Z" fill="#000000" fill-opacity="0.0" /><path d="M110.54,125.24C106.6,111.24 97.12,105.85 80.53,105.85C67.89,105.85 47.36,114.47 48.15,130.62C48.94,146.77 60,154.31 82.9,154.31C105.81,154.31 114.49,139.24 110.54,125.24Z" fill="#000000" fill-opacity="1.0" /><path d="M80.53,106.19C88.79,106.19 95.24,107.53 100.1,110.58C104.95,113.62 108.27,118.39 110.22,125.33C112.17,132.24 111,139.39 106.54,144.81C102.07,150.24 94.28,153.98 82.9,153.98C71.47,153.98 63.06,152.1 57.42,148.25C51.8,144.42 48.87,138.6 48.48,130.6C48.1,122.69 52.92,116.6 59.48,112.46C66.04,108.32 74.28,106.19 80.53,106.19Z" fill="#000000" fill-opacity="0.0" /><path d="M107.42,125.9C103.87,113.81 95.36,109.16 80.46,109.16C69.11,109.16 50.66,116.6 51.37,130.55C52.08,144.5 62.01,151.01 82.59,151.01C103.16,151.01 110.97,137.99 107.42,125.9Z" fill="#000000" fill-opacity="1.0" /><path d="M80.46,109.49C87.88,109.49 93.66,110.65 98.02,113.28C102.37,115.9 105.34,120.01 107.1,125.99C108.84,131.94 107.79,138.1 103.79,142.77C99.79,147.44 92.8,150.68 82.59,150.68C72.32,150.68 64.77,149.05 59.71,145.73C54.67,142.43 52.05,137.42 51.7,130.53C51.35,123.73 55.67,118.48 61.56,114.9C67.45,111.33 74.84,109.49 80.46,109.49Z" fill="#000000" fill-opacity="0.0" /><path d="M103.25,126.56C100.24,116.38 93.01,112.46 80.36,112.46C70.72,112.46 55.06,118.72 55.66,130.47C56.26,142.22 64.7,147.7 82.17,147.7C99.63,147.7 106.26,136.74 103.25,126.56Z" fill="#000000" fill-opacity="1.0" /><path d="M80.36,112.79C86.65,112.79 91.56,113.77 95.25,115.98C98.93,118.18 101.44,121.62 102.93,126.65C104.41,131.65 103.52,136.81 100.14,140.73C96.75,144.65 90.83,147.37 82.17,147.37C73.45,147.37 67.06,146 62.77,143.21C58.51,140.44 56.29,136.24 55.99,130.46C55.7,124.76 59.35,120.35 64.34,117.35C69.33,114.34 75.6,112.79 80.36,112.79Z" fill="#000000" fill-opacity="0.0" /><path d="M99.08,127.22C96.6,118.95 90.66,115.76 80.26,115.76C72.33,115.76 59.45,120.86 59.95,130.4C60.44,139.95 67.38,144.4 81.74,144.4C96.11,144.4 101.56,135.49 99.08,127.22Z" fill="#000000" fill-opacity="1.0" /><path d="M80.26,116.1C85.43,116.1 89.45,116.89 92.47,118.68C95.48,120.46 97.54,123.24 98.76,127.32C99.97,131.35 99.24,135.53 96.48,138.69C93.71,141.86 88.86,144.07 81.74,144.07C74.58,144.07 69.34,142.96 65.83,140.7C62.34,138.46 60.53,135.07 60.28,130.38C60.04,125.79 63.02,122.23 67.12,119.79C71.21,117.36 76.35,116.1 80.26,116.1Z" fill="#000000" fill-opacity="0.0" /><path d="M94.91,127.88C92.97,121.52 88.31,119.07 80.16,119.07C73.94,119.07 63.85,122.99 64.24,130.33C64.63,137.67 70.06,141.1 81.32,141.1C92.58,141.1 96.85,134.24 94.91,127.88Z" fill="#000000" fill-opacity="1.0" /><path d="M80.16,119.4C84.21,119.4 87.34,120.01 89.69,121.38C92.04,122.74 93.64,124.86 94.59,127.98C95.53,131.06 94.96,134.24 92.82,136.65C90.66,139.07 86.89,140.76 81.32,140.76C75.71,140.76 71.62,139.91 68.88,138.18C66.17,136.48 64.76,133.89 64.57,130.31C64.39,126.82 66.69,124.1 69.89,122.23C73.09,120.37 77.11,119.4 80.16,119.4Z" fill="#000000" fill-opacity="0.0" /><path d="M87.21,129.27C86.25,127.57 83.94,126.92 79.91,126.92C76.84,126.92 71.85,127.97 72.04,129.93C72.24,131.88 74.92,132.8 80.49,132.8C86.06,132.8 88.17,130.97 87.21,129.27Z" fill="#000000" fill-opacity="1.0" /><path d="M79.91,127.25C81.92,127.25 83.46,127.42 84.61,127.78C85.76,128.14 86.49,128.68 86.92,129.44C87.12,129.79 87.14,130.12 87.03,130.42C86.92,130.74 86.63,131.08 86.12,131.39C85.1,132.01 83.25,132.46 80.49,132.46C77.72,132.46 75.7,132.24 74.36,131.78C73.02,131.33 72.45,130.68 72.38,129.89C72.34,129.57 72.52,129.24 72.96,128.89C73.41,128.55 74.07,128.25 74.86,128.01C76.43,127.51 78.41,127.25 79.91,127.25Z" fill="#000000" fill-opacity="0.0" /><path d="M91.78,128.54C90.24,124.09 86.55,122.38 80.08,122.38C75.16,122.38 67.15,125.12 67.46,130.26C67.77,135.4 72.08,137.79 81.01,137.79C89.94,137.79 93.32,133 91.78,128.54Z" fill="#000000" fill-opacity="1.0" /><path d="M80.08,122.71C83.29,122.71 85.77,123.14 87.63,124.08C89.47,125.03 90.72,126.5 91.47,128.65C92.2,130.76 91.76,132.94 90.09,134.6C88.4,136.28 85.42,137.46 81.01,137.46C76.56,137.46 73.32,136.86 71.16,135.66C69.03,134.48 67.94,132.7 67.79,130.24C67.65,127.87 69.42,125.99 71.96,124.68C74.49,123.38 77.67,122.71 80.08,122.71Z" fill="#000000" fill-opacity="0.0" /><path d="M87.61,129.2C86.61,126.66 84.2,125.68 79.98,125.68C76.77,125.68 71.55,127.24 71.75,130.18C71.95,133.12 74.76,134.49 80.58,134.49C86.41,134.49 88.62,131.75 87.61,129.2Z" fill="#000000" fill-opacity="1.0" /><path d="M79.98,126.01C82.07,126.01 83.67,126.25 84.87,126.79C86.04,127.32 86.83,128.13 87.3,129.32C87.75,130.46 87.49,131.63 86.44,132.55C85.37,133.48 83.45,134.15 80.58,134.15C77.69,134.15 75.59,133.81 74.21,133.14C73.52,132.8 73.01,132.39 72.67,131.9C72.33,131.41 72.13,130.84 72.08,130.16C72.04,129.54 72.28,128.97 72.75,128.46C73.22,127.95 73.91,127.5 74.72,127.13C76.36,126.39 78.42,126.01 79.98,126.01Z" fill="#000000" fill-opacity="0.0" /><path d="M63.27,140.88C58.58,123.75 47.34,117.16 27.67,117.16C12.68,117.16 -11.68,127.7 -10.75,147.48C-9.81,167.25 3.31,176.47 30.48,176.47C57.65,176.47 67.95,158.02 63.27,140.88Z" fill="#000000" fill-opacity="1.0" /><path d="M27.67,117.49C37.47,117.49 45.13,119.14 50.91,122.88C56.68,126.61 60.62,132.46 62.95,140.97C65.27,149.45 63.87,158.24 58.56,164.9C53.25,171.56 43.99,176.14 30.48,176.14C16.92,176.14 6.93,173.84 0.22,169.12C-6.47,164.41 -9.95,157.27 -10.41,147.46C-10.88,137.74 -5.12,130.25 2.67,125.18C10.46,120.11 20.24,117.49 27.67,117.49Z" fill="#000000" fill-opacity="0.0" /><path d="M59.74,141.68C55.46,126.26 45.18,120.33 27.18,120.33C13.47,120.33 -8.81,129.82 -7.96,147.61C-7.1,165.39 4.9,173.69 29.75,173.69C54.6,173.69 64.03,157.09 59.74,141.68Z" fill="#000000" fill-opacity="1.0" /><path d="M27.18,120.67C36.15,120.67 43.14,122.15 48.42,125.51C53.7,128.86 57.3,134.12 59.42,141.77C61.54,149.38 60.27,157.27 55.42,163.26C50.57,169.24 42.1,173.36 29.75,173.36C17.35,173.36 8.22,171.29 2.09,167.04C-4.02,162.82 -7.2,156.4 -7.62,147.59C-8.04,138.86 -2.79,132.14 4.33,127.58C11.45,123.02 20.39,120.67 27.18,120.67Z" fill="#000000" fill-opacity="0.0" /><path d="M56.14,142.25C52.32,128.49 43.14,123.19 27.09,123.19C14.86,123.19 -5.01,131.66 -4.24,147.54C-3.48,163.42 7.22,170.83 29.39,170.83C51.55,170.83 59.96,156.01 56.14,142.25Z" fill="#000000" fill-opacity="1.0" /><path d="M27.09,123.53C35.09,123.53 41.32,124.85 46.02,127.84C50.71,130.83 53.92,135.52 55.82,142.34C57.7,149.13 56.57,156.16 52.25,161.49C47.93,166.82 40.39,170.5 29.39,170.5C18.33,170.5 10.19,168.65 4.74,164.87C-0.7,161.1 -3.53,155.38 -3.91,147.53C-4.29,139.75 0.39,133.76 6.73,129.69C13.08,125.63 21.04,123.53 27.09,123.53Z" fill="#000000" fill-opacity="0.0" /><path d="M53.45,142.82C50.03,130.71 41.83,126.05 27.48,126.05C16.55,126.05 -1.21,133.51 -0.53,147.48C0.15,161.45 9.72,167.98 29.53,167.98C49.35,167.98 56.86,154.93 53.45,142.82Z" fill="#000000" fill-opacity="1.0" /><path d="M27.48,126.39C34.63,126.39 40.19,127.55 44.39,130.18C48.57,132.8 51.43,136.92 53.13,142.91C54.81,148.88 53.79,155.05 49.94,159.73C46.09,164.41 39.37,167.64 29.53,167.64C19.65,167.64 12.39,166.01 7.51,162.69C2.66,159.38 0.14,154.37 -0.2,147.46C-0.53,140.64 3.63,135.38 9.3,131.81C14.97,128.23 22.08,126.39 27.48,126.39Z" fill="#000000" fill-opacity="0.0" /><path d="M50.74,143.39C47.67,132.93 40.31,128.91 27.42,128.91C17.6,128.91 1.64,135.35 2.25,147.42C2.87,159.49 11.46,165.12 29.26,165.12C47.06,165.12 53.81,153.85 50.74,143.39Z" fill="#000000" fill-opacity="1.0" /><path d="M27.42,129.24C33.83,129.24 38.83,130.25 42.59,132.52C46.34,134.78 48.91,138.32 50.42,143.49C51.93,148.62 51.02,153.93 47.57,157.96C44.12,161.99 38.09,164.78 29.26,164.78C20.38,164.78 13.86,163.38 9.49,160.51C5.15,157.67 2.89,153.35 2.59,147.4C2.29,141.54 6.01,137.01 11.1,133.92C16.18,130.84 22.57,129.24 27.42,129.24Z" fill="#000000" fill-opacity="0.0" /><path d="M47.13,143.96C44.53,135.16 38.27,131.77 27.33,131.77C18.99,131.77 5.44,137.19 5.96,147.35C6.48,157.51 13.78,162.26 28.89,162.26C44.01,162.26 49.74,152.77 47.13,143.96Z" fill="#000000" fill-opacity="1.0" /><path d="M27.33,132.1C32.77,132.1 37,132.95 40.19,134.85C43.36,136.75 45.53,139.72 46.81,144.06C48.09,148.37 47.32,152.82 44.41,156.2C41.49,159.58 36.38,161.93 28.89,161.93C21.36,161.93 15.84,160.74 12.14,158.34C8.46,155.95 6.55,152.33 6.3,147.34C6.05,142.43 9.18,138.63 13.5,136.04C17.81,133.44 23.22,132.1 27.33,132.1Z" fill="#000000" fill-opacity="0.0" /><path d="M43.53,144.54C41.39,137.38 36.24,134.63 27.25,134.63C20.39,134.63 9.25,139.03 9.68,147.29C10.11,155.55 16.11,159.4 28.53,159.4C40.96,159.4 45.67,151.69 43.53,144.54Z" fill="#000000" fill-opacity="1.0" /><path d="M27.25,134.96C31.72,134.96 35.18,135.65 37.79,137.18C40.38,138.72 42.16,141.12 43.21,144.63C44.25,148.11 43.62,151.71 41.24,154.43C38.86,157.16 34.68,159.07 28.53,159.07C22.34,159.07 17.81,158.1 14.79,156.16C11.78,154.23 10.22,151.31 10.01,147.27C9.81,143.32 12.36,140.25 15.9,138.15C19.44,136.05 23.88,134.96 27.25,134.96Z" fill="#000000" fill-opacity="0.0" /><path d="M39.92,145.11C38.24,139.6 34.21,137.49 27.16,137.49C21.78,137.49 13.05,140.87 13.39,147.23C13.72,153.58 18.43,156.54 28.17,156.54C37.9,156.54 41.6,150.61 39.92,145.11Z" fill="#000000" fill-opacity="1.0" /><path d="M27.16,137.82C30.66,137.82 33.36,138.35 35.39,139.52C37.4,140.69 38.78,142.52 39.6,145.21C40.41,147.86 39.92,150.59 38.08,152.67C36.23,154.75 32.97,156.21 28.17,156.21C23.32,156.21 19.78,155.47 17.43,153.98C15.1,152.51 13.88,150.29 13.72,147.21C13.56,144.21 15.54,141.88 18.3,140.26C21.06,138.65 24.53,137.82 27.16,137.82Z" fill="#000000" fill-opacity="0.0" /><path d="M33.26,146.31C32.43,144.84 30.44,144.28 26.95,144.28C24.29,144.28 19.98,145.18 20.14,146.88C20.31,148.57 22.63,149.36 27.45,149.36C32.26,149.36 34.09,147.78 33.26,146.31Z" fill="#000000" fill-opacity="1.0" /><path d="M26.95,144.61C28.68,144.61 30.01,144.75 31,145.06C31.98,145.37 32.61,145.84 32.97,146.48C33.13,146.77 33.16,147.04 33.06,147.29C32.97,147.55 32.73,147.84 32.3,148.1C31.42,148.63 29.83,149.03 27.45,149.03C25.05,149.03 23.31,148.83 22.16,148.44C21.01,148.05 20.54,147.5 20.47,146.84C20.45,146.59 20.58,146.31 20.96,146.02C21.34,145.73 21.91,145.47 22.59,145.26C23.94,144.83 25.65,144.61 26.95,144.61Z" fill="#000000" fill-opacity="0.0" /><path d="M37.22,145.68C35.88,141.83 32.69,140.34 27.09,140.34C22.83,140.34 15.91,142.71 16.17,147.16C16.44,151.61 20.17,153.68 27.89,153.68C35.62,153.68 38.55,149.53 37.22,145.68Z" fill="#000000" fill-opacity="1.0" /><path d="M27.09,140.68C29.87,140.68 32,141.05 33.6,141.86C35.18,142.67 36.26,143.94 36.9,145.79C37.53,147.6 37.15,149.46 35.72,150.89C34.27,152.33 31.7,153.35 27.89,153.35C24.05,153.35 21.26,152.83 19.4,151.8C17.57,150.78 16.63,149.26 16.51,147.14C16.39,145.12 17.89,143.51 20.09,142.38C22.27,141.26 25.01,140.68 27.09,140.68Z" fill="#000000" fill-opacity="0.0" /><path d="M33.61,146.25C32.74,144.05 30.65,143.2 27.01,143.2C24.23,143.2 19.71,144.56 19.88,147.1C20.06,149.64 22.49,150.82 27.53,150.82C32.56,150.82 34.48,148.45 33.61,146.25Z" fill="#000000" fill-opacity="1.0" /><path d="M27.01,143.54C28.81,143.54 30.19,143.74 31.21,144.2C32.22,144.66 32.9,145.35 33.3,146.37C33.68,147.34 33.46,148.33 32.56,149.11C31.65,149.91 30,150.49 27.53,150.49C25.02,150.49 23.22,150.19 22.03,149.61C21.44,149.33 21.01,148.97 20.72,148.56C20.42,148.15 20.26,147.66 20.22,147.07C20.18,146.55 20.38,146.07 20.78,145.64C21.18,145.2 21.77,144.82 22.47,144.5C23.88,143.87 25.66,143.54 27.01,143.54Z" fill="#000000" fill-opacity="0.0" /></svg>