<?xml version="1.0" encoding="utf-8" ?>
<svg baseProfile="full" height="160.0" version="1.1" viewBox="0 0 90.0 160.0" width="90.0" xmlns="http://www.w3.org/2000/svg" xmlns:ev="http://www.w3.org/2001/xml-events" xmlns:xlink="http://www.w3.org/1999/xlink"><defs /><path d="M4.65,1.34L85.35,1.34A3.32,3.32 0,0 1,88.66 4.65L88.66,155.35A3.32,3.32 0,0 1,85.35 158.66L4.65,158.66A3.32,3.32 0,0 1,1.34 155.35L1.34,4.65A3.32,3.32 0,0 1,4.65 1.34z" fill="#000000" fill-opacity="0.0" /><path d="M107.93,4.8C103.31,-11.67 92.24,-18 72.86,-18C58.1,-18 34.1,-7.87 35.03,11.13C35.95,30.13 48.87,39 75.63,39C102.39,39 112.54,21.27 107.93,4.8Z" fill="#000000" fill-opacity="1.0" /><path d="M72.86,-17.67C82.52,-17.67 90.06,-16.09 95.75,-12.49C101.43,-8.91 105.31,-3.28 107.6,4.89C109.89,13.03 108.51,21.47 103.28,27.86C98.06,34.26 88.93,38.67 75.63,38.67C62.27,38.67 52.43,36.45 45.83,31.92C39.24,27.4 35.82,20.54 35.36,11.12C34.91,1.78 40.57,-5.4 48.24,-10.28C55.91,-15.15 65.54,-17.67 72.86,-17.67Z" fill="#000000" fill-opacity="0.0" /><path d="M105.43,4.62C101.2,-10.33 91.04,-16.07 73.26,-16.07C59.71,-16.07 37.7,-6.88 38.55,10.37C39.39,27.61 51.25,35.66 75.8,35.66C100.35,35.66 109.66,19.57 105.43,4.62Z" fill="#000000" fill-opacity="1.0" /><path d="M73.26,-15.74C82.12,-15.74 89.03,-14.31 94.25,-11.05C99.45,-7.8 103.01,-2.7 105.11,4.71C107.2,12.09 105.94,19.73 101.15,25.53C96.36,31.33 88,35.33 75.8,35.33C63.55,35.33 54.53,33.32 48.47,29.2C42.44,25.11 39.3,18.89 38.88,10.35C38.47,1.9 43.65,-4.62 50.68,-9.04C57.72,-13.46 66.55,-15.74 73.26,-15.74Z" fill="#000000" fill-opacity="0.0" /><path d="M101.87,5.17C98.09,-8.17 89.03,-13.3 73.17,-13.3C61.09,-13.3 41.46,-5.09 42.21,10.3C42.97,25.7 53.54,32.89 75.44,32.89C97.34,32.89 105.64,18.52 101.87,5.17Z" fill="#000000" fill-opacity="1.0" /><path d="M73.17,-12.97C81.07,-12.97 87.23,-11.69 91.87,-8.79C96.51,-5.89 99.68,-1.35 101.55,5.26C103.41,11.84 102.29,18.65 98.02,23.82C93.76,28.99 86.32,32.55 75.44,32.55C64.52,32.55 56.48,30.76 51.09,27.09C45.71,23.44 42.92,17.9 42.55,10.29C42.18,2.76 46.79,-3.05 53.06,-6.99C59.33,-10.93 67.19,-12.97 73.17,-12.97Z" fill="#000000" fill-opacity="0.0" /><path d="M99.21,5.73C95.83,-6.02 87.73,-10.53 73.56,-10.53C62.76,-10.53 45.21,-3.31 45.88,10.24C46.56,23.79 56.01,30.12 75.58,30.12C95.16,30.12 102.58,17.47 99.21,5.73Z" fill="#000000" fill-opacity="1.0" /><path d="M73.56,-10.2C80.62,-10.2 86.11,-9.07 90.26,-6.52C94.39,-3.98 97.22,0.01 98.89,5.82C100.55,11.6 99.55,17.58 95.75,22.11C91.94,26.65 85.3,29.78 75.58,29.78C65.82,29.78 58.64,28.2 53.83,24.98C49.04,21.78 46.55,16.92 46.22,10.23C45.89,3.62 49.99,-1.48 55.59,-4.94C61.19,-8.41 68.22,-10.2 73.56,-10.2Z" fill="#000000" fill-opacity="0.0" /><path d="M96.54,6.28C93.5,-3.86 86.23,-7.76 73.49,-7.76C63.79,-7.76 48.03,-1.52 48.63,10.18C49.24,21.88 57.73,27.34 75.31,27.34C92.9,27.34 99.57,16.42 96.54,6.28Z" fill="#000000" fill-opacity="1.0" /><path d="M73.49,-7.43C79.83,-7.43 84.77,-6.46 88.48,-4.26C92.19,-2.06 94.72,1.37 96.22,6.38C97.7,11.35 96.81,16.49 93.4,20.4C90,24.3 84.04,27.01 75.31,27.01C66.54,27.01 60.1,25.65 55.79,22.87C51.49,20.11 49.26,15.93 48.97,10.16C48.67,4.49 52.34,0.1 57.37,-2.89C62.39,-5.88 68.7,-7.43 73.49,-7.43Z" fill="#000000" fill-opacity="0.0" /><path d="M92.97,6.84C90.4,-1.7 84.22,-4.99 73.41,-4.99C65.17,-4.99 51.78,0.27 52.3,10.12C52.81,19.97 60.02,24.57 74.95,24.57C89.88,24.57 95.55,15.38 92.97,6.84Z" fill="#000000" fill-opacity="1.0" /><path d="M73.41,-4.66C78.79,-4.66 82.97,-3.84 86.11,-1.99C89.24,-0.15 91.39,2.73 92.65,6.93C93.91,11.1 93.15,15.41 90.28,18.69C87.4,21.96 82.35,24.24 74.95,24.24C67.51,24.24 62.05,23.09 58.4,20.76C54.77,18.45 52.89,14.94 52.63,10.1C52.38,5.35 55.48,1.67 59.74,-0.84C64,-3.36 69.35,-4.66 73.41,-4.66Z" fill="#000000" fill-opacity="0.0" /><path d="M89.41,7.39C87.29,0.45 82.21,-2.22 73.32,-2.22C66.55,-2.22 55.54,2.05 55.97,10.06C56.39,18.06 62.32,21.8 74.59,21.8C86.87,21.8 91.53,14.33 89.41,7.39Z" fill="#000000" fill-opacity="1.0" /><path d="M73.32,-1.88C77.74,-1.88 81.17,-1.22 83.74,0.27C86.3,1.76 88.05,4.08 89.09,7.49C90.12,10.86 89.5,14.34 87.15,16.98C84.8,19.62 80.67,21.47 74.59,21.47C68.48,21.47 64,20.54 61.01,18.65C58.05,16.78 56.51,13.95 56.3,10.04C56.1,6.22 58.62,3.25 62.11,1.21C65.61,-0.83 69.99,-1.88 73.32,-1.88Z" fill="#000000" fill-opacity="0.0" /><path d="M85.85,7.94C84.19,2.61 80.21,0.55 73.24,0.55C67.93,0.55 59.3,3.84 59.63,10C59.97,16.16 64.61,19.03 74.23,19.03C83.85,19.03 87.5,13.28 85.85,7.94Z" fill="#000000" fill-opacity="1.0" /><path d="M73.24,0.89C76.69,0.89 79.37,1.4 81.37,2.54C83.36,3.67 84.72,5.44 85.53,8.04C86.32,10.61 85.84,13.26 84.02,15.26C82.2,17.28 78.98,18.7 74.23,18.7C69.44,18.7 65.95,17.98 63.63,16.54C61.32,15.12 60.13,12.96 59.97,9.98C59.81,7.08 61.75,4.82 64.49,3.26C67.21,1.69 70.64,0.89 73.24,0.89Z" fill="#000000" fill-opacity="0.0" /><path d="M79.26,9.11C78.44,7.69 76.48,7.14 73.03,7.14C70.41,7.14 66.14,8.02 66.31,9.66C66.47,11.3 68.77,12.07 73.52,12.07C78.28,12.07 80.08,10.53 79.26,9.11Z" fill="#000000" fill-opacity="1.0" /><path d="M73.03,7.47C74.74,7.47 76.06,7.61 77.03,7.91C78,8.21 78.62,8.66 78.97,9.28C79.14,9.56 79.16,9.82 79.07,10.06C78.98,10.31 78.75,10.58 78.31,10.84C77.45,11.35 75.88,11.73 73.52,11.73C71.15,11.73 69.43,11.54 68.3,11.16C67.16,10.78 66.7,10.26 66.64,9.63C66.61,9.38 66.74,9.12 67.12,8.84C67.49,8.56 68.05,8.31 68.72,8.1C70.06,7.69 71.75,7.47 73.03,7.47Z" fill="#000000" fill-opacity="0.0" /><path d="M83.17,8.5C81.86,4.76 78.7,3.33 73.18,3.33C68.96,3.33 62.12,5.62 62.39,9.94C62.65,14.25 66.33,16.26 73.96,16.26C81.6,16.26 84.49,12.23 83.17,8.5Z" fill="#000000" fill-opacity="1.0" /><path d="M73.18,3.66C75.92,3.66 78.03,4.02 79.6,4.81C81.17,5.59 82.23,6.82 82.86,8.61C83.48,10.36 83.11,12.16 81.69,13.54C80.26,14.93 77.73,15.93 73.96,15.93C70.17,15.93 67.41,15.42 65.57,14.42C63.77,13.44 62.84,11.96 62.72,9.92C62.6,7.97 64.08,6.41 66.25,5.31C68.41,4.22 71.12,3.66 73.18,3.66Z" fill="#000000" fill-opacity="0.0" /><path d="M79.61,9.05C78.75,6.92 76.69,6.1 73.09,6.1C70.34,6.1 65.88,7.41 66.05,9.87C66.23,12.34 68.63,13.49 73.6,13.49C78.58,13.49 80.47,11.19 79.61,9.05Z" fill="#000000" fill-opacity="1.0" /><path d="M73.09,6.43C74.87,6.43 76.24,6.63 77.25,7.08C78.24,7.52 78.91,8.19 79.3,9.18C79.67,10.11 79.46,11.06 78.58,11.82C77.68,12.59 76.05,13.15 73.6,13.15C71.13,13.15 69.35,12.87 68.17,12.3C67.59,12.02 67.16,11.68 66.88,11.28C66.59,10.88 66.43,10.41 66.39,9.85C66.35,9.35 66.55,8.89 66.94,8.47C67.33,8.05 67.92,7.67 68.61,7.37C70,6.75 71.76,6.43 73.09,6.43Z" fill="#000000" fill-opacity="0.0" /><path d="M-64.3,103.1a76.15,18.47 0,1 0,152.31 0a76.15,18.47 0,1 0,-152.31 0z" fill="#000000" fill-opacity="1.0" /><path d="M87.67,103.1C87.67,105.46 85.69,107.8 81.85,110C78.04,112.19 72.49,114.17 65.62,115.84C51.87,119.18 32.86,121.24 11.85,121.24C-9.16,121.24 -28.17,119.18 -41.92,115.84C-48.8,114.17 -54.34,112.19 -58.16,110C-61.99,107.8 -63.97,105.46 -63.97,103.1C-63.97,100.75 -61.99,98.4 -58.16,96.2C-54.34,94.01 -48.8,92.03 -41.92,90.36C-28.17,87.02 -9.16,84.96 11.85,84.96C32.86,84.96 51.87,87.02 65.62,90.36C72.49,92.03 78.04,94.01 81.85,96.2C85.69,98.4 87.67,100.75 87.67,103.1Z" fill="#000000" fill-opacity="0.0" /><path d="M-58.15,103.1a70,17.57 0,1 0,140 0a70,17.57 0,1 0,-140 0z" fill="#000000" fill-opacity="1.0" /><path d="M81.52,103.1C81.52,105.34 79.7,107.56 76.18,109.66C72.67,111.74 67.58,113.62 61.26,115.21C48.63,118.38 31.16,120.34 11.85,120.34C-7.46,120.34 -24.93,118.38 -37.57,115.21C-43.89,113.62 -48.98,111.74 -52.48,109.66C-56,107.56 -57.82,105.34 -57.82,103.1C-57.82,100.86 -56,98.64 -52.48,96.55C-48.98,94.47 -43.89,92.58 -37.57,91C-24.93,87.83 -7.46,85.86 11.85,85.86C31.16,85.86 48.63,87.83 61.26,91C67.58,92.58 72.67,94.47 76.18,96.55C79.7,98.64 81.52,100.86 81.52,103.1Z" fill="#000000" fill-opacity="0.0" /><path d="M-54.05,103.1a65.9,15.77 0,1 0,131.79 0a65.9,15.77 0,1 0,-131.79 0z" fill="#000000" fill-opacity="1.0" /><path d="M77.41,103.1C77.41,105.08 75.72,107.07 72.4,108.95C69.11,110.82 64.32,112.51 58.37,113.93C46.47,116.78 30.03,118.54 11.85,118.54C-6.33,118.54 -22.78,116.78 -34.67,113.93C-40.62,112.51 -45.41,110.82 -48.71,108.95C-52.03,107.07 -53.72,105.08 -53.72,103.1C-53.72,101.12 -52.03,99.13 -48.71,97.25C-45.41,95.39 -40.62,93.7 -34.67,92.27C-22.78,89.43 -6.33,87.66 11.85,87.66C30.03,87.66 46.47,89.43 58.37,92.27C64.32,93.7 69.11,95.39 72.4,97.25C75.72,99.13 77.41,101.12 77.41,103.1Z" fill="#000000" fill-opacity="0.0" /><path d="M-49.43,103.1a61.28,13.97 0,1 0,122.56 0a61.28,13.97 0,1 0,-122.56 0z" fill="#000000" fill-opacity="1.0" /><path d="M72.8,103.1C72.8,103.96 72.42,104.83 71.64,105.69C70.86,106.57 69.69,107.42 68.16,108.25C65.09,109.9 60.64,111.39 55.11,112.65C44.05,115.18 28.75,116.74 11.85,116.74C-5.06,116.74 -20.35,115.18 -31.41,112.65C-36.94,111.39 -41.4,109.9 -44.46,108.25C-45.99,107.42 -47.16,106.57 -47.94,105.69C-48.72,104.83 -49.1,103.96 -49.1,103.1C-49.1,102.24 -48.72,101.38 -47.94,100.51C-47.16,99.64 -45.99,98.78 -44.46,97.96C-41.4,96.31 -36.94,94.81 -31.41,93.55C-20.35,91.03 -5.06,89.46 11.85,89.46C28.75,89.46 44.05,91.03 55.11,93.55C60.64,94.81 65.09,96.31 68.16,97.96C69.69,98.78 70.86,99.64 71.64,100.51C72.42,101.38 72.8,102.24 72.8,103.1Z" fill="#000000" fill-opacity="0.0" /><path d="M-45.33,103.1a57.18,12.17 0,1 0,114.36 0a57.18,12.17 0,1 0,-114.36 0z" fill="#000000" fill-opacity="1.0" /><path d="M68.7,103.1C68.7,103.83 68.35,104.57 67.63,105.32C66.9,106.08 65.81,106.82 64.38,107.54C61.53,108.98 57.37,110.28 52.21,111.38C41.89,113.57 27.62,114.93 11.85,114.93C-3.92,114.93 -18.2,113.57 -28.51,111.38C-33.68,110.28 -37.83,108.98 -40.69,107.54C-42.12,106.82 -43.2,106.08 -43.93,105.32C-44.65,104.57 -45,103.83 -45,103.1C-45,102.37 -44.65,101.63 -43.93,100.88C-43.2,100.12 -42.12,99.38 -40.69,98.66C-37.83,97.22 -33.68,95.92 -28.51,94.82C-18.2,92.63 -3.92,91.27 11.85,91.27C27.62,91.27 41.89,92.63 52.21,94.82C57.37,95.92 61.53,97.22 64.38,98.66C65.81,99.38 66.9,100.12 67.63,100.88C68.35,101.63 68.7,102.37 68.7,103.1Z" fill="#000000" fill-opacity="0.0" /><path d="M-41.23,103.1a53.08,10.36 0,1 0,106.15 0a53.08,10.36 0,1 0,-106.15 0z" fill="#000000" fill-opacity="1.0" /><path d="M64.59,103.1C64.59,103.69 64.29,104.31 63.62,104.95C62.95,105.59 61.94,106.22 60.61,106.83C57.96,108.06 54.11,109.17 49.31,110.1C39.74,111.97 26.49,113.13 11.85,113.13C-2.79,113.13 -16.04,111.97 -25.62,110.1C-30.41,109.17 -34.27,108.06 -36.92,106.83C-38.24,106.22 -39.25,105.59 -39.92,104.95C-40.59,104.31 -40.9,103.69 -40.9,103.1C-40.9,102.51 -40.59,101.89 -39.92,101.25C-39.25,100.61 -38.24,99.98 -36.92,99.37C-34.27,98.14 -30.41,97.03 -25.62,96.1C-16.04,94.23 -2.79,93.07 11.85,93.07C26.49,93.07 39.74,94.23 49.31,96.1C54.11,97.03 57.96,98.14 60.61,99.37C61.94,99.98 62.95,100.61 63.62,101.25C64.29,101.89 64.59,102.51 64.59,103.1Z" fill="#000000" fill-opacity="0.0" /><path d="M-37.64,103.1a49.49,8.56 0,1 0,98.97 0a49.49,8.56 0,1 0,-98.97 0z" fill="#000000" fill-opacity="1.0" /><path d="M61,103.1C61,103.55 60.74,104.04 60.11,104.57C59.49,105.1 58.56,105.62 57.32,106.13C54.85,107.14 51.25,108.05 46.78,108.83C37.85,110.37 25.5,111.33 11.85,111.33C-1.8,111.33 -14.16,110.37 -23.09,108.83C-27.56,108.05 -31.15,107.14 -33.62,106.13C-34.86,105.62 -35.8,105.1 -36.42,104.57C-37.04,104.04 -37.31,103.55 -37.31,103.1C-37.31,102.65 -37.04,102.16 -36.42,101.63C-35.8,101.1 -34.86,100.58 -33.62,100.07C-31.15,99.06 -27.56,98.15 -23.09,97.37C-14.16,95.83 -1.8,94.87 11.85,94.87C25.5,94.87 37.85,95.83 46.78,97.37C51.25,98.15 54.85,99.06 57.32,100.07C58.56,100.58 59.49,101.1 60.11,101.63C60.74,102.16 61,102.65 61,103.1Z" fill="#000000" fill-opacity="0.0" /><path d="M-33.02,103.1a44.87,6.76 0,1 0,89.74 0a44.87,6.76 0,1 0,-89.74 0z" fill="#000000" fill-opacity="1.0" /><path d="M56.39,103.1C56.39,103.41 56.18,103.78 55.61,104.2C55.05,104.61 54.2,105.02 53.08,105.42C50.84,106.22 47.58,106.94 43.53,107.55C35.43,108.77 24.23,109.53 11.85,109.53C-0.53,109.53 -11.73,108.77 -19.83,107.55C-23.88,106.94 -27.15,106.22 -29.39,105.42C-30.51,105.02 -31.36,104.61 -31.92,104.2C-32.48,103.78 -32.69,103.41 -32.69,103.1C-32.69,102.79 -32.48,102.42 -31.92,102.01C-31.36,101.59 -30.51,101.18 -29.39,100.78C-27.15,99.98 -23.88,99.26 -19.83,98.65C-11.73,97.43 -0.53,96.67 11.85,96.67C24.23,96.67 35.43,97.43 43.53,98.65C47.58,99.26 50.84,99.98 53.08,100.78C54.2,101.18 55.05,101.59 55.61,102.01C56.18,102.42 56.39,102.79 56.39,103.1Z" fill="#000000" fill-opacity="0.0" /><path d="M-28.41,103.1a40.26,4.96 0,1 0,80.51 0a40.26,4.96 0,1 0,-80.51 0z" fill="#000000" fill-opacity="1.0" /><path d="M51.77,103.1C51.77,103.25 51.64,103.5 51.11,103.82C50.61,104.12 49.86,104.42 48.85,104.71C46.84,105.3 43.91,105.83 40.27,106.28C33,107.17 22.95,107.72 11.85,107.72C0.74,107.72 -9.31,107.17 -16.58,106.28C-20.21,105.83 -23.14,105.3 -25.15,104.71C-26.16,104.42 -26.92,104.12 -27.42,103.82C-27.94,103.5 -28.08,103.25 -28.08,103.1C-28.08,102.95 -27.94,102.7 -27.42,102.39C-26.92,102.08 -26.16,101.78 -25.15,101.49C-23.14,100.9 -20.21,100.37 -16.58,99.92C-9.31,99.03 0.74,98.48 11.85,98.48C22.95,98.48 33,99.03 40.27,99.92C43.91,100.37 46.84,100.9 48.85,101.49C49.86,101.78 50.61,102.08 51.11,102.39C51.64,102.7 51.77,102.95 51.77,103.1Z" fill="#000000" fill-opacity="0.0" /><path d="M3.76,52.29L-6.27,102.79C-6.54,104.15 -5.71,105.5 -4.36,105.82C12.64,109.87 33.06,108.19 47.46,105.1C48.97,104.77 49.84,103.2 49.36,101.73L28.27,36.97C28.03,36.23 27.47,35.64 26.76,35.34L23.44,33.97C22.19,33.46 20.76,33.96 20.11,35.14L16.08,42.4C15.89,42.75 15.62,43.05 15.29,43.28L4.84,50.64C4.28,51.03 3.9,51.62 3.76,52.29Z" fill="#000000" fill-opacity="1.0" /><path d="M-5.94,102.85L4.09,52.35C4.21,51.77 4.54,51.25 5.03,50.91L15.48,43.55C15.85,43.3 16.15,42.96 16.37,42.56L20.4,35.3C20.97,34.27 22.22,33.83 23.31,34.28L26.63,35.65C27.26,35.91 27.74,36.43 27.95,37.07L49.05,101.83C49.47,103.12 48.7,104.49 47.39,104.77C33.01,107.86 12.65,109.53 -4.28,105.5C-5.45,105.21 -6.18,104.05 -5.94,102.85Z" fill="#000000" fill-opacity="0.0" /><path d="M1.97,68.24L-2.88,104.03C-3.08,105.52 -2,106.89 -0.5,107.02C11.86,108.12 20.45,108.24 35.28,107.03C36.93,106.9 38.04,105.3 37.61,103.71L25.08,57.24C24.91,56.59 24.49,56.03 23.92,55.68L17.83,51.89C16.45,51.03 14.63,51.61 13.99,53.11L10.88,60.43C10.69,60.88 10.37,61.27 9.97,61.56L3.07,66.43C2.47,66.86 2.07,67.51 1.97,68.24Z" fill="#000000" fill-opacity="1.0" /><path d="M-2.55,104.07L2.3,68.29C2.39,67.65 2.74,67.08 3.26,66.7L10.16,61.83C10.62,61.51 10.97,61.07 11.19,60.56L14.29,53.24C14.85,51.93 16.45,51.42 17.66,52.17L23.75,55.96C24.25,56.27 24.61,56.76 24.76,57.33L37.29,103.8C37.67,105.19 36.69,106.59 35.25,106.7C20.44,107.91 11.87,107.79 -0.47,106.69C-1.78,106.57 -2.73,105.38 -2.55,104.07Z" fill="#000000" fill-opacity="0.0" /><path d="M20.19,69.81L18.11,68.59C16.98,67.93 15.54,68.19 14.71,69.21L10.29,74.66C9.98,75.04 9.78,75.5 9.72,75.99L5.98,104.94C5.78,106.47 6.92,107.84 8.45,107.92C15.31,108.28 20.9,108.32 27.24,107.74C28.83,107.6 29.89,106.06 29.51,104.51L21.42,71.47C21.25,70.77 20.81,70.17 20.19,69.81Z" fill="#000000" fill-opacity="1.0" /><path d="M17.95,68.88L20.02,70.1C20.56,70.41 20.95,70.94 21.1,71.55L29.19,104.59C29.53,105.95 28.59,107.29 27.21,107.41C20.89,107.99 15.32,107.94 8.47,107.59C7.13,107.52 6.13,106.32 6.3,104.99L10.04,76.03C10.1,75.6 10.27,75.2 10.54,74.87L14.97,69.42C15.69,68.53 16.96,68.3 17.95,68.88Z" fill="#000000" fill-opacity="0.0" /><path d="M-11.79,139.16a97.49,27.1 0,1 0,194.98 0a97.49,27.1 0,1 0,-194.98 0z" fill="#000000" fill-opacity="1.0" /><path d="M182.86,139.16C182.86,142.73 180.26,146.21 175.35,149.43C170.46,152.65 163.35,155.56 154.55,158C136.94,162.9 112.6,165.93 85.7,165.93C58.8,165.93 34.46,162.9 16.86,158C8.05,155.56 0.95,152.65 -3.94,149.43C-8.85,146.21 -11.45,142.73 -11.45,139.16C-11.45,135.59 -8.85,132.11 -3.94,128.89C0.95,125.67 8.05,122.76 16.86,120.32C34.46,115.42 58.8,112.39 85.7,112.39C112.6,112.39 136.94,115.42 154.55,120.32C163.35,122.76 170.46,125.67 175.35,128.89C180.26,132.11 182.86,135.59 182.86,139.16Z" fill="#000000" fill-opacity="0.0" /><path d="M-3.91,139.16a89.61,25.78 0,1 0,179.22 0a89.61,25.78 0,1 0,-179.22 0z" fill="#000000" fill-opacity="1.0" /><path d="M174.98,139.16C174.98,142.55 172.59,145.85 168.09,148.92C163.59,151.98 157.07,154.74 148.98,157.07C132.8,161.72 110.43,164.61 85.7,164.61C60.98,164.61 38.61,161.72 22.43,157.07C14.34,154.74 7.81,151.98 3.32,148.92C-1.18,145.85 -3.58,142.55 -3.58,139.16C-3.58,135.77 -1.18,132.46 3.32,129.4C7.81,126.34 14.34,123.58 22.43,121.25C38.61,116.59 60.98,113.71 85.7,113.71C110.43,113.71 132.8,116.59 148.98,121.25C157.07,123.58 163.59,126.34 168.09,129.4C172.59,132.46 174.98,135.77 174.98,139.16Z" fill="#000000" fill-opacity="0.0" /><path d="M1.34,139.16a84.36,23.14 0,1 0,168.72 0a84.36,23.14 0,1 0,-168.72 0z" fill="#000000" fill-opacity="1.0" /><path d="M169.73,139.16C169.73,142.18 167.49,145.14 163.25,147.89C159.02,150.63 152.88,153.11 145.26,155.2C130.04,159.38 108.98,161.96 85.7,161.96C62.43,161.96 41.37,159.38 26.14,155.2C18.52,153.11 12.38,150.63 8.15,147.89C3.91,145.14 1.68,142.18 1.68,139.16C1.68,136.14 3.91,133.18 8.15,130.43C12.38,127.69 18.52,125.21 26.14,123.12C41.37,118.94 62.43,116.36 85.7,116.36C108.98,116.36 130.04,118.94 145.26,123.12C152.88,125.21 159.02,127.69 163.25,130.43C167.49,133.18 169.73,136.14 169.73,139.16Z" fill="#000000" fill-opacity="0.0" /><path d="M7.25,139.16a78.45,20.49 0,1 0,156.9 0a78.45,20.49 0,1 0,-156.9 0z" fill="#000000" fill-opacity="1.0" /><path d="M163.82,139.16C163.82,141.8 161.76,144.41 157.82,146.85C153.89,149.28 148.18,151.48 141.09,153.33C126.93,157.03 107.35,159.32 85.7,159.32C64.06,159.32 44.48,157.03 30.32,153.33C23.23,151.48 17.52,149.28 13.59,146.85C9.65,144.41 7.59,141.8 7.59,139.16C7.59,136.51 9.65,133.9 13.59,131.46C17.52,129.04 23.23,126.84 30.32,124.99C44.48,121.29 64.06,119 85.7,119C107.35,119 126.93,121.29 141.09,124.99C148.18,126.84 153.89,129.04 157.82,131.46C161.76,133.9 163.82,136.51 163.82,139.16Z" fill="#000000" fill-opacity="0.0" /><path d="M12.5,139.16a73.2,17.85 0,1 0,146.4 0a73.2,17.85 0,1 0,-146.4 0z" fill="#000000" fill-opacity="1.0" /><path d="M158.57,139.16C158.57,141.43 156.67,143.69 152.98,145.82C149.32,147.93 143.99,149.85 137.38,151.46C124.17,154.68 105.9,156.68 85.7,156.68C65.51,156.68 47.24,154.68 34.02,151.46C27.41,149.85 22.09,147.93 18.42,145.82C14.73,143.69 12.84,141.43 12.84,139.16C12.84,136.89 14.73,134.63 18.42,132.5C22.09,130.39 27.41,128.47 34.02,126.86C47.24,123.64 65.51,121.64 85.7,121.64C105.9,121.64 124.17,123.64 137.38,126.86C143.99,128.47 149.32,130.39 152.98,132.5C156.67,134.63 158.57,136.89 158.57,139.16Z" fill="#000000" fill-opacity="0.0" /><path d="M17.76,139.16a67.95,15.2 0,1 0,135.89 0a67.95,15.2 0,1 0,-135.89 0z" fill="#000000" fill-opacity="1.0" /><path d="M153.32,139.16C153.32,140.1 152.89,141.05 152.02,142C151.15,142.95 149.85,143.88 148.15,144.78C144.75,146.58 139.81,148.21 133.68,149.59C121.41,152.33 104.45,154.03 85.7,154.03C66.96,154.03 50,152.33 37.73,149.59C31.59,148.21 26.65,146.58 23.25,144.78C21.55,143.88 20.25,142.95 19.38,142C18.51,141.05 18.09,140.1 18.09,139.16C18.09,138.22 18.51,137.27 19.38,136.32C20.25,135.37 21.55,134.43 23.25,133.53C26.65,131.74 31.59,130.1 37.73,128.73C50,125.99 66.96,124.29 85.7,124.29C104.45,124.29 121.41,125.99 133.68,128.73C139.81,130.1 144.75,131.74 148.15,133.53C149.85,134.43 151.15,135.37 152.02,136.32C152.89,137.27 153.32,138.22 153.32,139.16Z" fill="#000000" fill-opacity="0.0" /><path d="M22.35,139.16a63.35,12.56 0,1 0,126.7 0a63.35,12.56 0,1 0,-126.7 0z" fill="#000000" fill-opacity="1.0" /><path d="M148.72,139.16C148.72,139.9 148.34,140.67 147.54,141.45C146.73,142.24 145.52,143.01 143.93,143.75C140.76,145.23 136.16,146.58 130.43,147.71C119,149.98 103.18,151.39 85.7,151.39C68.22,151.39 52.41,149.98 40.97,147.71C35.25,146.58 30.64,145.23 27.47,143.75C25.88,143.01 24.68,142.24 23.87,141.45C23.06,140.67 22.68,139.9 22.68,139.16C22.68,138.41 23.06,137.65 23.87,136.87C24.68,136.09 25.88,135.32 27.47,134.57C30.64,133.09 35.25,131.74 40.97,130.6C52.41,128.34 68.22,126.93 85.7,126.93C103.18,126.93 119,128.34 130.43,130.6C136.16,131.74 140.76,133.09 143.93,134.57C145.52,135.32 146.73,136.09 147.54,136.87C148.34,137.65 148.72,138.41 148.72,139.16Z" fill="#000000" fill-opacity="0.0" /><path d="M28.26,139.16a57.44,9.92 0,1 0,114.89 0a57.44,9.92 0,1 0,-114.89 0z" fill="#000000" fill-opacity="1.0" /><path d="M142.82,139.16C142.82,139.7 142.5,140.29 141.77,140.9C141.04,141.52 139.95,142.12 138.51,142.71C135.63,143.88 131.46,144.95 126.27,145.84C115.89,147.63 101.55,148.74 85.7,148.74C69.86,148.74 55.51,147.63 45.14,145.84C39.95,144.95 35.78,143.88 32.9,142.71C31.46,142.12 30.37,141.52 29.64,140.9C28.91,140.29 28.59,139.7 28.59,139.16C28.59,138.61 28.91,138.03 29.64,137.41C30.37,136.8 31.46,136.19 32.9,135.61C35.78,134.43 39.95,133.37 45.14,132.47C55.51,130.68 69.86,129.57 85.7,129.57C101.55,129.57 115.89,130.68 126.27,132.47C131.46,133.37 135.63,134.43 138.51,135.61C139.95,136.19 141.04,136.8 141.77,137.41C142.5,138.03 142.82,138.61 142.82,139.16Z" fill="#000000" fill-opacity="0.0" /><path d="M47.3,139.16a38.73,3.97 0,1 0,77.47 0a38.73,3.97 0,1 0,-77.47 0z" fill="#000000" fill-opacity="1.0" /><path d="M124.43,139.16C124.43,139.18 124.43,139.24 124.33,139.33C124.23,139.43 124.07,139.54 123.83,139.66C123.35,139.9 122.61,140.15 121.64,140.38C119.7,140.85 116.89,141.28 113.39,141.63C106.39,142.35 96.72,142.79 86.03,142.79C75.34,142.79 65.67,142.35 58.68,141.63C55.18,141.28 52.36,140.85 50.42,140.38C49.45,140.15 48.72,139.9 48.23,139.66C47.99,139.54 47.83,139.43 47.73,139.33C47.64,139.24 47.63,139.18 47.63,139.16C47.63,139.14 47.64,139.08 47.73,138.99C47.83,138.89 47.99,138.78 48.23,138.66C48.72,138.41 49.45,138.17 50.42,137.94C52.36,137.47 55.18,137.04 58.68,136.68C65.67,135.97 75.34,135.52 86.03,135.52C96.72,135.52 106.39,135.97 113.39,136.68C116.89,137.04 119.7,137.47 121.64,137.94C122.61,138.17 123.35,138.41 123.83,138.66C124.07,138.78 124.23,138.89 124.33,138.99C124.43,139.08 124.43,139.14 124.43,139.16Z" fill="#000000" fill-opacity="0.0" /><path d="M89.64,74.71L99.09,139.21C99.14,139.52 99.27,139.86 99.39,140.16C104.08,151.48 39.55,145.15 34.47,139.41C34.19,139.09 34.24,138.62 34.37,138.21L59.92,61.05C60.23,60.1 61.05,59.41 62.03,59.26L67.65,58.39C68.48,58.26 69.19,57.75 69.59,57.01L75.05,46.76C75.69,45.56 77.15,45.04 78.41,45.56L84.32,48.03C85.18,48.38 85.79,49.16 85.93,50.08L89.64,74.71Z" fill="#000000" fill-opacity="1.0" /><path d="M98.76,139.25L89.31,74.76L89.31,74.76L85.6,50.13C85.48,49.33 84.94,48.64 84.2,48.33L78.28,45.87C77.18,45.41 75.9,45.86 75.34,46.92L69.88,57.17C69.44,58 68.63,58.57 67.7,58.72L62.08,59.59C61.22,59.72 60.51,60.32 60.23,61.15L34.69,138.32C34.56,138.71 34.56,139.01 34.72,139.19C34.99,139.5 35.5,139.84 36.23,140.19C36.96,140.54 37.9,140.89 39.01,141.24C41.24,141.93 44.14,142.6 47.48,143.21C54.15,144.43 62.53,145.41 70.61,145.85C78.69,146.29 86.45,146.2 91.88,145.3C94.61,144.85 96.7,144.2 97.97,143.34C98.6,142.91 98.99,142.45 99.18,141.96C99.36,141.48 99.35,140.93 99.08,140.28C98.96,139.99 98.82,139.62 98.76,139.25Z" fill="#000000" fill-opacity="0.0" /><path d="M54.41,94.34L58.27,91.98C60.13,90.84 62.48,92.29 62.3,94.46L61.11,109.07C61.1,109.3 61.11,109.53 61.15,109.75L67.05,142.74C67.35,144.44 65.97,145.98 64.24,145.83C57.19,145.23 49.79,144.33 42.36,142.49C40.92,142.13 40.09,140.64 40.51,139.22L53.25,95.85C53.43,95.22 53.85,94.68 54.41,94.34Z" fill="#000000" fill-opacity="1.0" /><path d="M58.45,92.26L54.58,94.62C54.09,94.92 53.73,95.4 53.57,95.95L40.83,139.31C40.46,140.56 41.19,141.86 42.44,142.17C49.85,144 57.23,144.9 64.27,145.5C65.78,145.63 66.99,144.29 66.72,142.79L60.82,109.81C60.77,109.56 60.76,109.3 60.78,109.04L61.97,94.43C62.13,92.54 60.07,91.27 58.45,92.26Z" fill="#000000" fill-opacity="0.0" /><path d="M91.39,89.65L95.22,141.19C96.32,149.31 64.88,146.4 50.97,143.97C49.49,143.71 48.57,142.25 48.92,140.79L64.11,77.42C64.28,76.74 64.7,76.16 65.29,75.79L72.63,71.22C74.01,70.36 75.84,70.93 76.48,72.44L80.15,81.11C80.37,81.63 80.76,82.07 81.25,82.36L90.09,87.56C90.84,88 91.32,88.78 91.39,89.65Z" fill="#000000" fill-opacity="1.0" /><path d="M94.89,141.23L94.89,141.22L94.89,141.21L91.06,89.67C91,88.91 90.57,88.23 89.92,87.84L81.08,82.65C80.53,82.32 80.1,81.83 79.85,81.24L76.17,72.56C75.61,71.25 74.02,70.75 72.81,71.5L65.47,76.07C64.95,76.39 64.58,76.91 64.44,77.5L49.24,140.87C48.94,142.15 49.74,143.41 51.02,143.64C57.97,144.85 69.29,146.19 78.72,146.2C83.45,146.21 87.67,145.89 90.64,145.07C92.12,144.66 93.26,144.13 93.99,143.49C94.7,142.86 95.01,142.12 94.89,141.23Z" fill="#000000" fill-opacity="0.0" /><path d="M70.91,96.97L73.71,95.41C74.86,94.77 76.3,95.07 77.1,96.11L82.28,102.86C82.59,103.25 82.77,103.73 82.82,104.23L86.43,143.5C86.57,145.02 85.41,146.35 83.88,146.39C75.61,146.62 68.98,146.5 61.37,145.59C59.82,145.4 58.8,143.89 59.16,142.37L69.61,98.67C69.79,97.95 70.26,97.33 70.91,96.97Z" fill="#000000" fill-opacity="1.0" /><path d="M73.87,95.7L71.07,97.26C70.5,97.57 70.09,98.11 69.94,98.75L59.48,142.45C59.16,143.78 60.06,145.09 61.41,145.26C69,146.17 75.61,146.29 83.87,146.06C85.2,146.02 86.23,144.86 86.1,143.53L82.49,104.26C82.45,103.82 82.29,103.41 82.02,103.06L76.84,96.32C76.14,95.4 74.88,95.14 73.87,95.7Z" fill="#000000" fill-opacity="0.0" /></svg>