<?xml version="1.0" encoding="utf-8" ?>
<svg baseProfile="full" height="173.0" version="1.1" viewBox="0 0 94.0 173.0" width="94.0" xmlns="http://www.w3.org/2000/svg" xmlns:ev="http://www.w3.org/2001/xml-events" xmlns:xlink="http://www.w3.org/1999/xlink"><defs /><path d="M92,171.67H92.67V171V47C92.67,21.78 72.22,1.33 47,1.33C21.78,1.33 1.33,21.78 1.33,47V171V171.67H2H92Z" fill="#000000" fill-opacity="0.0" /><path d="M15.29,100.14C27.57,67.7 96.77,72 105.29,100.14" fill="#000000" fill-opacity="0.0" /><path d="M13.25,95.68C26.22,63.46 99.36,67.73 108.36,95.68" fill="#000000" fill-opacity="0.0" /><path d="M10.18,91.38C23.99,59.15 101.84,63.43 111.43,91.38" fill="#000000" fill-opacity="0.0" /><path d="M8.14,87.08C22.5,54.85 103.5,59.12 113.48,87.08" fill="#000000" fill-opacity="0.0" /><path d="M5.07,82.77C20.27,50.54 105.99,54.82 116.55,82.77" fill="#000000" fill-opacity="0.0" /><path d="M4.04,78.47C19.53,46.24 106.82,50.52 117.57,78.47" fill="#000000" fill-opacity="0.0" /><path d="M7.17,59.7L2.16,98.18C2.07,98.89 2.55,99.54 3.24,99.67L41.53,106.78C42.49,106.96 43.31,106.07 43.06,105.13L27.64,45.99C27.54,45.59 27.26,45.27 26.88,45.1L22.24,43.09C21.6,42.82 20.86,43.08 20.53,43.69L16,52.28C15.91,52.45 15.78,52.6 15.63,52.71L7.68,58.82C7.4,59.04 7.22,59.35 7.17,59.7Z" fill="#000000" fill-opacity="1.0" /><path d="M2.49,98.23L7.5,59.75C7.54,59.48 7.68,59.25 7.89,59.08L15.84,52.98C16.03,52.83 16.18,52.65 16.29,52.43L20.83,43.85C21.07,43.39 21.63,43.19 22.11,43.4L26.75,45.41C27.03,45.53 27.24,45.78 27.32,46.08L42.74,105.21C42.92,105.92 42.31,106.58 41.59,106.45L3.3,99.34C2.78,99.24 2.43,98.75 2.49,98.23Z" fill="#000000" fill-opacity="0.0" /><path d="M18.12,103.1L13.07,141.92C12.98,142.62 13.45,143.27 14.15,143.4L52.5,150.54C53.45,150.72 54.26,149.87 54.05,148.93L39.27,84.58C39.19,84.21 38.95,83.89 38.61,83.71L30.42,79.23C29.69,78.83 28.78,79.19 28.51,79.97L23.83,93.8C23.79,93.9 23.75,94 23.69,94.09L18.31,102.55C18.21,102.72 18.14,102.9 18.12,103.1Z" fill="#000000" fill-opacity="1.0" /><path d="M13.4,141.96L18.45,103.14C18.47,102.99 18.52,102.86 18.6,102.73L23.97,94.27C24.04,94.16 24.1,94.03 24.14,93.91L28.83,80.08C29.03,79.49 29.71,79.22 30.26,79.52L38.45,84C38.7,84.14 38.88,84.38 38.95,84.66L53.72,149.01C53.88,149.71 53.27,150.35 52.56,150.22L14.21,143.08C13.69,142.98 13.33,142.49 13.4,141.96Z" fill="#000000" fill-opacity="0.0" /><path d="M2.4,75.38L-2.61,113.94C-2.7,114.65 -2.23,115.3 -1.53,115.43L36.8,122.56C37.75,122.74 38.56,121.88 38.34,120.94L24.7,64.27C24.62,63.94 24.42,63.65 24.13,63.46L16.57,58.55C15.86,58.09 14.92,58.39 14.6,59.16L10.86,68.38C10.76,68.61 10.61,68.81 10.41,68.95L2.93,74.48C2.64,74.69 2.45,75.02 2.4,75.38Z" fill="#000000" fill-opacity="1.0" /><path d="M-2.28,113.99L2.73,75.42C2.76,75.15 2.91,74.91 3.13,74.75L10.61,69.22C10.86,69.04 11.05,68.79 11.17,68.51L14.91,59.29C15.15,58.71 15.86,58.48 16.38,58.82L23.95,63.74C24.17,63.88 24.32,64.1 24.38,64.35L38.01,121.02C38.18,121.72 37.57,122.37 36.86,122.24L-1.47,115.1C-1.99,115 -2.35,114.51 -2.28,113.99Z" fill="#000000" fill-opacity="0.0" /><path d="M19.33,77.56L15.97,75.5C15.39,75.15 14.64,75.29 14.22,75.82L9.05,82.48C8.9,82.67 8.8,82.9 8.77,83.14L5.25,112.84C5.15,113.64 5.77,114.33 6.57,114.33H26.9C27.76,114.33 28.4,113.53 28.19,112.69L19.93,78.39C19.85,78.04 19.63,77.75 19.33,77.56Z" fill="#000000" fill-opacity="1.0" /><path d="M15.8,75.79L19.16,77.85C19.38,77.98 19.55,78.21 19.61,78.46L27.87,112.76C28.02,113.39 27.55,114 26.9,114H6.57C5.97,114 5.51,113.48 5.58,112.88L9.11,83.18C9.13,83 9.2,82.83 9.31,82.68L14.49,76.03C14.8,75.62 15.36,75.52 15.8,75.79Z" fill="#000000" fill-opacity="0.0" /><path d="M-11.64,129.75C-15.45,144.1 -1.64,163.47 5.75,171.36L115.86,185.35L127.45,171.36C110.18,167.65 75.02,155.58 72.57,136.93C69.17,111.1 105.64,113.26 105.64,106.44C105.64,102.7 93.14,96.64 87.23,95.68C75.18,94.13 48.91,90.8 41.55,91.38C47.34,93.89 42.31,99.76 39.84,101.42C31.32,107.16 -6.86,111.82 -11.64,129.75Z" fill="#000000" fill-opacity="1.0" /><path d="M41.06,91.38C41.06,91.38 106.32,93.89 106.32,104.65C106.32,115.41 72.23,109.67 72.23,134.06C72.23,157.73 125.41,176.38 125.41,176.38" fill="#000000" fill-opacity="0.0" /><path d="M41.08,91.38C41.08,91.38 102.51,93.89 101.96,104.41C101.4,114.93 66.73,109.58 66.73,134.4C66.73,158.97 117.77,176.47 117.77,176.47" fill="#000000" fill-opacity="0.0" /><path d="M41.1,91.38C41.1,91.38 98.69,93.94 97.59,104.17C96.48,114.56 61.23,109.48 61.23,134.73C61.23,160.22 110.14,176.57 110.14,176.57" fill="#000000" fill-opacity="0.0" /><path d="M41.11,91.38C41.11,91.38 94.86,93.98 93.23,103.93C91.55,114.14 55.73,109.38 55.73,135.06C55.73,161.46 102.5,176.67 102.5,176.67" fill="#000000" fill-opacity="0.0" /><path d="M41.12,91.38C41.12,91.38 91.03,94 88.85,103.69C86.61,113.74 50.21,109.29 50.21,135.4C50.21,162.7 94.85,176.76 94.85,176.76" fill="#000000" fill-opacity="0.0" /><path d="M41.14,91.38C41.14,91.38 87.19,94.04 84.5,103.45C81.68,113.3 44.73,109.19 44.73,135.73C44.73,163.95 87.23,176.86 87.23,176.86" fill="#000000" fill-opacity="0.0" /><path d="M41.16,91.38C41.16,91.38 83.35,94.08 80.14,103.21C76.73,112.88 39.23,109.1 39.23,136.07C39.23,165.19 79.59,176.95 79.59,176.95" fill="#000000" fill-opacity="0.0" /><path d="M41.21,91.38C41.21,91.38 79.52,94.1 75.8,102.98C71.78,112.47 33.71,109 33.71,136.4C33.71,166.43 71.93,177.05 71.93,177.05" fill="#000000" fill-opacity="0.0" /><path d="M41.21,91.38C41.21,91.38 75.66,94.14 71.42,102.73C66.84,112.06 28.24,108.9 28.24,136.73C28.24,167.68 64.33,177.15 64.33,177.15" fill="#000000" fill-opacity="0.0" /><path d="M41.2,91.38C41.2,91.38 71.78,94.16 67.04,102.5C61.86,111.62 22.73,108.81 22.73,137.07C22.73,168.92 56.68,177.24 56.68,177.24" fill="#000000" fill-opacity="0.0" /><path d="M41.21,91.38C41.21,91.38 67.89,94.18 62.66,102.26C56.87,111.19 17.21,108.72 17.21,137.41C17.21,170.16 49.03,177.33 49.03,177.33" fill="#000000" fill-opacity="0.0" /><path d="M41.24,91.38C41.24,91.38 64.05,94.21 58.28,102.02C51.88,110.75 11.7,108.62 11.7,137.74C11.7,171.41 41.37,177.43 41.37,177.43" fill="#000000" fill-opacity="0.0" /><path d="M41.26,91.38C41.26,91.38 60.17,94.25 53.95,101.78C46.94,110.32 6.23,108.52 6.23,138.07C6.23,172.65 33.77,177.53 33.77,177.53" fill="#000000" fill-opacity="0.0" /><path d="M41.27,91.38C41.27,91.38 56.27,94.25 49.59,101.54C41.96,109.86 0.72,108.43 0.72,138.41C0.72,173.89 26.14,177.62 26.14,177.62" fill="#000000" fill-opacity="0.0" /><path d="M41.29,91.38C41.29,91.38 52.42,94.25 45.23,101.3C36.98,109.41 -4.77,108.33 -4.77,138.74C-4.77,175.14 18.5,177.72 18.5,177.72" fill="#000000" fill-opacity="0.0" /><path d="M41.31,91.38C41.31,91.38 48.55,94.25 40.86,101.06C32,108.95 -10.27,108.24 -10.27,139.08C-10.27,176.38 10.86,177.81 10.86,177.81" fill="#000000" fill-opacity="0.0" /><path d="M88.25,72.37L103.59,64.84L92.34,159.88C78.29,151.13 69.5,141.23 72.57,128.68L82.8,90.66L88.25,79.54V72.37Z" fill="#000000" fill-opacity="1.0" /><path d="M88.58,79.54V79.62L88.55,79.69L83.11,90.78L72.89,128.76C71.39,134.93 72.79,140.45 76.31,145.52C79.77,150.49 85.27,155.04 92.07,159.32L103.19,65.41L88.58,72.58V79.54Z" fill="#000000" fill-opacity="0.0" /><path d="M89,72.01L101.39,65.92C102.34,65.45 103.43,66.22 103.3,67.27L92.59,157.8C92.47,158.77 91.39,159.29 90.57,158.75C77.56,150.28 69.63,140.7 72.57,128.68L82.76,90.79C82.79,90.7 82.82,90.62 82.85,90.55L88.11,79.82C88.2,79.64 88.25,79.44 88.25,79.24V73.2C88.25,72.69 88.54,72.23 89,72.01Z" fill="#000000" fill-opacity="1.0" /><path d="M101.54,66.22L89.14,72.3C88.8,72.47 88.58,72.82 88.58,73.2V79.24C88.58,79.49 88.53,79.74 88.41,79.97L83.15,90.69C83.12,90.75 83.1,90.81 83.08,90.87L72.89,128.76C70.01,140.55 77.76,150.01 90.75,158.47C91.36,158.87 92.17,158.49 92.26,157.76L102.97,67.23C103.07,66.45 102.25,65.87 101.54,66.22Z" fill="#000000" fill-opacity="0.0" /><path d="M88.03,103.36L92.42,95.66C93.11,94.46 94.95,94.97 94.91,96.36L93.09,158.35C93.06,159.36 91.96,159.96 91.11,159.41C83.99,154.74 73.56,145.52 74.95,140.15L80.97,122.22C81,122.15 81.01,122.07 81.03,121.99L83.06,108.03C83.11,107.7 83.28,107.4 83.53,107.19L87.72,103.73C87.85,103.63 87.95,103.5 88.03,103.36Z" fill="#000000" fill-opacity="1.0" /><path d="M92.71,95.83L88.32,103.53C88.22,103.7 88.09,103.86 87.93,103.99L83.74,107.45C83.55,107.61 83.43,107.83 83.39,108.07L81.36,122.04C81.34,122.14 81.32,122.24 81.29,122.33L75.27,140.25C74.96,141.47 75.31,142.96 76.19,144.62C77.06,146.27 78.43,148.05 80.09,149.82C83.39,153.35 87.75,156.8 91.3,159.13C91.91,159.53 92.73,159.1 92.76,158.34L94.58,96.35C94.61,95.31 93.23,94.92 92.71,95.83Z" fill="#000000" fill-opacity="0.0" /><path d="M86.33,119.68L91.87,116.1C92.78,115.51 93.98,116.19 93.93,117.27L92.1,158.03C92.05,159.03 90.97,159.61 90.14,159.03C85.61,155.84 79.61,150.09 78.15,146.59C78.06,146.37 78.05,146.13 78.09,145.9L80.96,131.49C81.04,131.08 81.32,130.73 81.7,130.54L84.95,129.04C85.42,128.82 85.72,128.35 85.72,127.83V120.8C85.72,120.34 85.95,119.92 86.33,119.68Z" fill="#000000" fill-opacity="1.0" /><path d="M92.05,116.38L86.51,119.96C86.23,120.14 86.05,120.46 86.05,120.8V127.83C86.05,128.48 85.68,129.07 85.09,129.34L81.84,130.85C81.56,130.98 81.35,131.25 81.29,131.56L78.42,145.96C78.38,146.14 78.4,146.31 78.46,146.46C79.16,148.15 80.99,150.42 83.23,152.69C85.47,154.95 88.08,157.18 90.33,158.76C90.92,159.17 91.73,158.77 91.77,158.01L93.6,117.26C93.63,116.45 92.74,115.93 92.05,116.38Z" fill="#000000" fill-opacity="0.0" /></svg>