<?xml version="1.0" encoding="utf-8" ?>
<svg baseProfile="full" height="14.0" version="1.1" viewBox="0 0 14.0 14.0" width="14.0" xmlns="http://www.w3.org/2000/svg" xmlns:ev="http://www.w3.org/2001/xml-events" xmlns:xlink="http://www.w3.org/1999/xlink"><defs /><path d="M7,0L7,0A7,7 0,0 1,14 7L14,7A7,7 0,0 1,7 14L7,14A7,7 0,0 1,0 7L0,7A7,7 0,0 1,7 0z" fill="#ffffff" fill-opacity="1.0" /><path d="M4.6664,4.6641C4.5358,4.6641 4.4105,4.716 4.3181,4.8083C4.2257,4.9007 4.1738,5.026 4.1738,5.1567V9.717L5.6695,8.8194C5.7339,8.7808 5.8077,8.7604 5.8829,8.7604H9.3331C9.4637,8.7604 9.589,8.7085 9.6814,8.6161C9.7738,8.5237 9.8257,8.3984 9.8257,8.2678V5.1567C9.8257,5.026 9.7738,4.9007 9.6814,4.8083C9.589,4.716 9.4637,4.6641 9.3331,4.6641H4.6664ZM5.9621,6.4268H8.0361V5.9602H5.9621V6.4268ZM5.9621,7.4639H7.2584V6.9972H5.9621V7.4639Z" fill="#ffffff" fill-opacity="1.0" /></svg>