<?xml version="1.0" encoding="utf-8" ?>
<svg baseProfile="full" height="24.0" version="1.1" viewBox="0 0 24.0 24.0" width="24.0" xmlns="http://www.w3.org/2000/svg" xmlns:ev="http://www.w3.org/2001/xml-events" xmlns:xlink="http://www.w3.org/1999/xlink"><defs /><path d="M20,6h-4L16,4c0,-1.11 -0.89,-2 -2,-2h-4c-1.11,0 -2,0.89 -2,2v2L4,6c-1.11,0 -1.99,0.89 -1.99,2L2,19c0,1.11 0.89,2 2,2h16c1.11,0 2,-0.89 2,-2L22,8c0,-1.11 -0.89,-2 -2,-2zM12,15c-1.1,0 -2,-0.9 -2,-2s0.9,-2 2,-2 2,0.9 2,2 -0.9,2 -2,2zM14,6h-4L10,4h4v2z" fill="#000000" fill-opacity="1.0" /></svg>