<?xml version="1.0" encoding="utf-8" ?>
<svg baseProfile="full" height="24.0" version="1.1" viewBox="0 0 24.0 24.0" width="24.0" xmlns="http://www.w3.org/2000/svg" xmlns:ev="http://www.w3.org/2001/xml-events" xmlns:xlink="http://www.w3.org/1999/xlink"><defs /><path d="M2,5.3C2,4.582 2.582,4 3.3,4H20.7C21.418,4 22,4.582 22,5.3V18.7C22,19.418 21.418,20 20.7,20H3.3C2.582,20 2,19.418 2,18.7V5.3Z" fill="#ffffff" fill-opacity="0.0" /><path d="M4,6.25C4,6.112 4.112,6 4.25,6H19.75C19.888,6 20,6.112 20,6.25V17.75C20,17.888 19.888,18 19.75,18H4.25C4.112,18 4,17.888 4,17.75V6.25Z" fill="#ffffff" fill-opacity="1.0" /><path d="M6,7L8,7A0.5,0.5 0,0 1,8.5 7.5L8.5,8.5A0.5,0.5 0,0 1,8 9L6,9A0.5,0.5 0,0 1,5.5 8.5L5.5,7.5A0.5,0.5 0,0 1,6 7z" fill="#ffffff" fill-opacity="1.0" /><path d="M6,11L8,11A0.5,0.5 0,0 1,8.5 11.5L8.5,12.5A0.5,0.5 0,0 1,8 13L6,13A0.5,0.5 0,0 1,5.5 12.5L5.5,11.5A0.5,0.5 0,0 1,6 11z" fill="#ffffff" fill-opacity="1.0" /><path d="M11,7L13,7A0.5,0.5 0,0 1,13.5 7.5L13.5,8.5A0.5,0.5 0,0 1,13 9L11,9A0.5,0.5 0,0 1,10.5 8.5L10.5,7.5A0.5,0.5 0,0 1,11 7z" fill="#ffffff" fill-opacity="1.0" /><path d="M16,7L18,7A0.5,0.5 0,0 1,18.5 7.5L18.5,8.5A0.5,0.5 0,0 1,18 9L16,9A0.5,0.5 0,0 1,15.5 8.5L15.5,7.5A0.5,0.5 0,0 1,16 7z" fill="#ffffff" fill-opacity="1.0" /><path d="M11,11L13,11A0.5,0.5 0,0 1,13.5 11.5L13.5,12.5A0.5,0.5 0,0 1,13 13L11,13A0.5,0.5 0,0 1,10.5 12.5L10.5,11.5A0.5,0.5 0,0 1,11 11z" fill="#ffffff" fill-opacity="1.0" /><path d="M16,11L18,11A0.5,0.5 0,0 1,18.5 11.5L18.5,12.5A0.5,0.5 0,0 1,18 13L16,13A0.5,0.5 0,0 1,15.5 12.5L15.5,11.5A0.5,0.5 0,0 1,16 11z" fill="#ffffff" fill-opacity="1.0" /><path d="M7,15.5C7,15.224 7.224,15 7.5,15H16.5C16.776,15 17,15.224 17,15.5V16.5C17,16.776 16.776,17 16.5,17H7.5C7.224,17 7,16.776 7,16.5V15.5Z" fill="#ffffff" fill-opacity="1.0" /></svg>