<?xml version="1.0" encoding="utf-8" ?>
<svg baseProfile="full" height="24.0" version="1.1" viewBox="0 0 24.0 24.0" width="24.0" xmlns="http://www.w3.org/2000/svg" xmlns:ev="http://www.w3.org/2001/xml-events" xmlns:xlink="http://www.w3.org/1999/xlink"><defs /><path d="M21.3,16.175V17.684C21.339,17.667 22.352,17.233 22.389,17.214C22.841,16.983 23.208,16.616 23.438,16.165C23.59,15.868 23.648,15.556 23.674,15.229C23.7,14.917 23.7,14.535 23.7,14.083V9.467C23.7,9.015 23.7,8.634 23.674,8.322C23.648,7.995 23.59,7.683 23.438,7.386C23.208,6.934 22.841,6.567 22.389,6.337C22.092,6.185 21.78,6.127 21.453,6.101C21.141,6.075 20.76,6.075 20.308,6.075H20.308H3.692H3.692C3.24,6.075 2.858,6.075 2.546,6.101C2.219,6.127 1.907,6.185 1.61,6.337C1.159,6.567 0.791,6.934 0.561,7.386C0.41,7.683 0.352,7.995 0.325,8.322C0.3,8.634 0.3,9.015 0.3,9.467V9.467V14.083V14.083C0.3,14.535 0.3,14.917 0.325,15.229C0.352,15.556 0.41,15.868 0.561,16.165C0.791,16.616 2.248,17.454 2.7,17.684V16.175C2.7,15.236 3.461,14.475 4.4,14.475H19.6C20.539,14.475 21.3,15.236 21.3,16.175ZM1.497,16.277C1.372,16.151 1.267,16.007 1.185,15.847C1,15.483 1,15.007 1,14.055V9.495C1,8.543 1,8.067 1.185,7.704C1.348,7.384 1.608,7.124 1.928,6.961C2.292,6.775 2.768,6.775 3.72,6.775H20.28C21.232,6.775 21.708,6.775 22.072,6.961C22.23,7.042 22.374,7.146 22.499,7.27C22.374,7.146 22.23,7.041 22.072,6.96C21.814,6.829 21.5,6.791 21,6.78C20.794,6.775 20.557,6.775 20.28,6.775H3.72C2.768,6.775 2.292,6.775 1.928,6.96C1.608,7.123 1.348,7.384 1.185,7.703C1,8.067 1,8.543 1,9.495V14.055C1,15.007 1,15.483 1.185,15.847C1.22,15.915 1.259,15.981 1.303,16.044C1.334,16.089 1.368,16.133 1.404,16.175C1.433,16.21 1.464,16.244 1.497,16.277ZM21.287,14.468C21.646,14.824 21.894,15.292 21.973,15.815C21.991,15.932 22,16.053 22,16.175V16.544C22,16.546 22,16.547 22,16.549V16.175C22,15.508 21.727,14.903 21.287,14.468ZM18.958,9.923C19.233,10.173 19.599,10.325 20,10.325H21C21.856,10.325 22.55,9.631 22.55,8.775C22.55,8.348 22.377,7.962 22.098,7.681C22.181,7.764 22.254,7.857 22.317,7.957C22.464,8.195 22.55,8.475 22.55,8.775C22.55,9.035 22.486,9.28 22.373,9.495C22.35,9.538 22.326,9.579 22.3,9.62C22.023,10.044 21.544,10.325 21,10.325H20C19.598,10.325 19.233,10.173 18.958,9.923ZM19.15,8.775C19.15,8.306 19.53,7.925 20,7.925H21C21.469,7.925 21.85,8.306 21.85,8.775C21.85,9.245 21.469,9.625 21,9.625H20C19.53,9.625 19.15,9.245 19.15,8.775Z" fill="#ffffff" fill-opacity="1.0" /><path d="M19.3,17.075H5.3" fill="#ffffff" fill-opacity="0.0" /></svg>