<?xml version="1.0" encoding="utf-8" ?>
<svg baseProfile="full" height="24.0" version="1.1" viewBox="0 0 24.0 24.0" width="24.0" xmlns="http://www.w3.org/2000/svg" xmlns:ev="http://www.w3.org/2001/xml-events" xmlns:xlink="http://www.w3.org/1999/xlink"><defs /><path d="M3.25,6.5L20.75,6.5A0.25,0.25 0,0 1,21 6.75L21,15.25A0.25,0.25 0,0 1,20.75 15.5L3.25,15.5A0.25,0.25 0,0 1,3 15.25L3,6.75A0.25,0.25 0,0 1,3.25 6.5z" fill="#ffffff" fill-opacity="1.0" /><path d="M2.3,3.8C1.195,3.8 0.3,4.695 0.3,5.8V16.2C0.3,17.305 1.195,18.2 2.3,18.2H9.3V19.3H6C5.613,19.3 5.3,19.613 5.3,20C5.3,20.387 5.613,20.7 6,20.7H18C18.387,20.7 18.7,20.387 18.7,20C18.7,19.613 18.387,19.3 18,19.3H14.7V18.2H21.7C22.805,18.2 23.7,17.305 23.7,16.2V5.8C23.7,4.695 22.805,3.8 21.7,3.8H2.3ZM14,16.8H21.7C22.031,16.8 22.3,16.531 22.3,16.2V5.8C22.3,5.469 22.031,5.2 21.7,5.2H2.3C1.969,5.2 1.7,5.469 1.7,5.8V16.2C1.7,16.531 1.969,16.8 2.3,16.8H10H14ZM13.3,18.2V19.3H10.7V18.2H13.3Z" fill="#ffffff" fill-opacity="1.0" /></svg>