<?xml version="1.0" encoding="utf-8" ?>
<svg baseProfile="full" height="24.0" version="1.1" viewBox="0 0 24.0 24.0" width="24.0" xmlns="http://www.w3.org/2000/svg" xmlns:ev="http://www.w3.org/2001/xml-events" xmlns:xlink="http://www.w3.org/1999/xlink"><defs /><path d="M3.919,5.435C4.66,3.706 6.359,2.586 8.239,2.586H14.964C16.844,2.586 18.543,3.706 19.284,5.435L21.149,9.786C21.86,10.219 22.301,10.994 22.301,11.837V12.488C21.298,11.733 20.05,11.286 18.697,11.286C15.384,11.286 12.697,13.972 12.697,17.286C12.697,17.649 12.729,18.004 12.791,18.349C12.396,18.357 11.998,18.361 11.601,18.361C9.079,18.361 6.538,18.204 4.611,17.883C4.507,17.865 4.403,17.847 4.302,17.829V19.286C4.302,19.673 3.988,19.986 3.602,19.986H2.602C2.215,19.986 1.902,19.673 1.902,19.286V17.286C1.902,17.231 1.908,17.177 1.92,17.125C1.709,17.017 1.511,16.889 1.348,16.737C1.114,16.518 0.901,16.199 0.901,15.786V11.837C0.901,10.994 1.342,10.219 2.054,9.786L3.919,5.435ZM1.602,7.255H2.378L1.522,9.252C1.007,9.211 0.602,8.78 0.602,8.255C0.602,7.702 1.049,7.255 1.602,7.255ZM22.602,8.255C22.602,8.78 22.196,9.211 21.681,9.252L20.826,7.255H21.602C22.154,7.255 22.602,7.702 22.602,8.255ZM14.898,4.586L8.306,4.586C7.202,4.586 6.209,5.258 5.799,6.283L4.954,8.396L4.869,8.607C4.757,8.887 4.917,9.202 5.209,9.277L5.429,9.334C9.542,10.393 13.662,10.393 17.774,9.334L17.995,9.277C18.287,9.202 18.446,8.887 18.334,8.607L18.25,8.396L17.404,6.283C16.994,5.258 16.002,4.586 14.898,4.586ZM5.102,14.536C5.792,14.536 6.352,13.976 6.352,13.286C6.352,12.595 5.792,12.036 5.102,12.036C4.411,12.036 3.852,12.595 3.852,13.286C3.852,13.976 4.411,14.536 5.102,14.536ZM18.698,21.987C21.294,21.987 23.398,19.883 23.398,17.287C23.398,14.691 21.294,12.587 18.698,12.587C16.102,12.587 13.998,14.691 13.998,17.287C13.998,19.883 16.102,21.987 18.698,21.987ZM20.884,14.487C20.926,14.525 20.95,14.579 20.95,14.635V15.573C20.951,15.58 20.951,15.587 20.95,15.594V18.699L20.95,18.708C20.95,19.222 20.533,19.639 20.019,19.639C19.504,19.639 19.087,19.222 19.087,18.708C19.087,18.194 19.504,17.777 20.019,17.777C20.217,17.777 20.401,17.838 20.552,17.944V15.805L17.538,16.14V19.078L17.538,19.087C17.538,19.601 17.121,20.018 16.607,20.018C16.092,20.018 15.675,19.601 15.675,19.087C15.675,18.572 16.092,18.155 16.607,18.155C16.805,18.155 16.989,18.217 17.14,18.323V15.014C17.14,14.912 17.216,14.827 17.317,14.816L20.729,14.438C20.786,14.431 20.842,14.449 20.884,14.487Z" fill="#ffffff" fill-opacity="1.0" /></svg>