<?xml version="1.0" encoding="utf-8" ?>
<svg baseProfile="full" height="24.0" version="1.1" viewBox="0 0 24.0 24.0" width="24.0" xmlns="http://www.w3.org/2000/svg" xmlns:ev="http://www.w3.org/2001/xml-events" xmlns:xlink="http://www.w3.org/1999/xlink"><defs /><path d="M8.637,3.3C6.757,3.3 5.058,4.421 4.317,6.149L2.452,10.5C1.741,10.933 1.3,11.708 1.3,12.551V16.5C1.3,16.913 1.512,17.232 1.747,17.451C1.91,17.604 2.107,17.731 2.318,17.84C2.306,17.891 2.3,17.945 2.3,18V20C2.3,20.387 2.613,20.7 3,20.7H4C4.387,20.7 4.7,20.387 4.7,20V18.543C4.802,18.561 4.905,18.579 5.01,18.597C6.936,18.918 9.478,19.075 12,19.075C14.522,19.075 17.063,18.918 18.99,18.597C19.095,18.579 19.198,18.561 19.3,18.543V20C19.3,20.387 19.613,20.7 20,20.7H21C21.387,20.7 21.7,20.387 21.7,20V18C21.7,17.945 21.694,17.891 21.681,17.84C21.893,17.731 22.09,17.603 22.253,17.451C22.487,17.232 22.7,16.913 22.7,16.5V12.551C22.7,11.708 22.259,10.933 21.547,10.5L19.682,6.149C18.942,4.421 17.242,3.3 15.362,3.3H8.637ZM2.776,7.969H2C1.448,7.969 1,8.416 1,8.969C1,9.494 1.405,9.925 1.92,9.966L2.776,7.969ZM22.08,9.966C22.595,9.925 23,9.494 23,8.969C23,8.416 22.552,7.969 22,7.969H21.224L22.08,9.966ZM8.704,5.3L15.296,5.3C16.4,5.3 17.393,5.972 17.803,6.997L18.648,9.11L18.733,9.322C18.845,9.602 18.685,9.916 18.393,9.991L18.173,10.048C14.06,11.107 9.94,11.107 5.827,10.048L5.607,9.991C5.315,9.916 5.156,9.602 5.268,9.322L5.352,9.11L6.197,6.997C6.607,5.972 7.6,5.3 8.704,5.3ZM18.5,15.25C19.19,15.25 19.75,14.69 19.75,14C19.75,13.31 19.19,12.75 18.5,12.75C17.81,12.75 17.25,13.31 17.25,14C17.25,14.69 17.81,15.25 18.5,15.25ZM6.75,14C6.75,14.69 6.19,15.25 5.5,15.25C4.81,15.25 4.25,14.69 4.25,14C4.25,13.31 4.81,12.75 5.5,12.75C6.19,12.75 6.75,13.31 6.75,14Z" fill="#ffffff" fill-opacity="1.0" /><path d="M15.296,6.5L8.704,6.5C8.091,6.5 7.539,6.874 7.311,7.443L6.853,8.59C6.793,8.738 6.764,8.813 6.773,8.879C6.781,8.936 6.81,8.991 6.853,9.029C6.903,9.074 6.98,9.091 7.134,9.123C10.378,9.816 13.622,9.816 16.866,9.123C17.02,9.091 17.097,9.074 17.147,9.029C17.19,8.991 17.219,8.936 17.227,8.879C17.237,8.813 17.207,8.738 17.147,8.59L16.689,7.443C16.461,6.874 15.909,6.5 15.296,6.5Z" fill="#ffffff" fill-opacity="1.0" /></svg>