<?xml version="1.0" encoding="utf-8" ?>
<svg baseProfile="full" height="20.0" version="1.1" viewBox="0 0 20.0 20.0" width="20.0" xmlns="http://www.w3.org/2000/svg" xmlns:ev="http://www.w3.org/2001/xml-events" xmlns:xlink="http://www.w3.org/1999/xlink"><defs /><path d="M2.039,1.536C0.548,3.026 0.963,5.562 2.579,7.178C2.935,7.534 3.335,7.831 3.759,8.063C3.755,8.054 3.752,8.045 3.749,8.035C3.288,6.784 3.357,5.338 4.08,4.086C4.653,3.093 5.54,2.393 6.54,2.034C6.838,1.927 7.137,1.865 7.434,1.844C5.816,0.424 3.455,0.119 2.039,1.536ZM8.455,3.062C7.971,2.886 7.429,2.865 6.906,3.053C6.136,3.33 5.457,3.867 5.018,4.627C4.465,5.586 4.41,6.695 4.765,7.661C5.138,8.676 6.17,9.26 7.199,9.169C7.289,9.161 7.379,9.148 7.468,9.129C7.47,9.129 7.472,9.129 7.474,9.128C8.412,8.932 9.256,8.393 9.756,7.528C10.333,6.527 10.303,5.351 9.838,4.337C9.564,3.739 9.054,3.28 8.455,3.062C8.455,3.062 8.455,3.062 8.455,3.062ZM7.262,7.898C6.847,7.658 6.876,6.831 7.328,6.05C7.779,5.268 8.481,4.829 8.896,5.069C9.311,5.308 9.282,6.136 8.831,6.917C8.379,7.699 7.677,8.138 7.262,7.898Z" fill="#ffffff" fill-opacity="1.0" /><path d="M5.286,9.685C4.394,9.568 3.514,9.221 2.75,8.711V13.333C2.75,14.346 3.571,15.166 4.583,15.166C5.596,15.166 6.417,14.346 6.417,13.333V10.074C6.024,10.006 5.641,9.875 5.286,9.685Z" fill="#ffffff" fill-opacity="1.0" /><path d="M17.85,5.702C19.34,7.193 18.925,9.729 17.309,11.345C16.953,11.701 16.553,11.998 16.129,12.23C16.133,12.221 16.136,12.211 16.14,12.202C16.6,10.951 16.531,9.505 15.808,8.252C15.235,7.26 14.348,6.559 13.349,6.2C13.051,6.093 12.751,6.032 12.455,6.011C14.073,4.59 16.433,4.286 17.85,5.702ZM11.434,7.228C11.917,7.052 12.459,7.032 12.982,7.22C13.752,7.496 14.431,8.034 14.87,8.794C15.424,9.752 15.479,10.861 15.123,11.828C14.75,12.842 13.719,13.427 12.689,13.336C12.604,13.328 12.518,13.316 12.434,13.299C12.427,13.297 12.421,13.296 12.415,13.295C11.476,13.099 10.632,12.56 10.132,11.694C9.555,10.694 9.585,9.518 10.05,8.504C10.324,7.905 10.834,7.447 11.434,7.229C11.434,7.229 11.434,7.229 11.434,7.228ZM12.626,12.065C13.041,11.825 13.012,10.998 12.561,10.216C12.109,9.435 11.407,8.996 10.992,9.235C10.577,9.475 10.606,10.303 11.058,11.084C11.509,11.865 12.211,12.304 12.626,12.065Z" fill="#ffffff" fill-opacity="1.0" /><path d="M14.602,13.852C15.495,13.735 16.375,13.388 17.138,12.878V17.5C17.138,18.512 16.318,19.333 15.305,19.333C14.293,19.333 13.472,18.512 13.472,17.5V14.241C13.864,14.172 14.248,14.042 14.602,13.852Z" fill="#ffffff" fill-opacity="1.0" /></svg>