<?xml version="1.0" encoding="utf-8" ?>
<svg baseProfile="full" height="20.0" version="1.1" viewBox="0 0 20.0 20.0" width="20.0" xmlns="http://www.w3.org/2000/svg" xmlns:ev="http://www.w3.org/2001/xml-events" xmlns:xlink="http://www.w3.org/1999/xlink"><defs /><path d="M16.666,5.208L16.666,14.792A0.208,0.208 0,0 1,16.458 15L3.541,15A0.208,0.208 0,0 1,3.333 14.792L3.333,5.208A0.208,0.208 0,0 1,3.541 5L16.458,5A0.208,0.208 0,0 1,16.666 5.208z" fill="#ffffff" fill-opacity="1.0" /><path d="M9.375,6.041C9.375,6.387 9.655,6.666 10,6.666C10.345,6.666 10.625,6.387 10.625,6.041C10.625,5.696 10.345,5.416 10,5.416C9.655,5.416 9.375,5.696 9.375,6.041Z" fill="#ffffff" fill-opacity="1.0" /><path d="M18.334,4.417L18.334,15.584A1.083,1.083 0,0 1,17.25 16.667L2.75,16.667A1.083,1.083 0,0 1,1.667 15.584L1.667,4.417A1.083,1.083 0,0 1,2.75 3.334L17.25,3.334A1.083,1.083 0,0 1,18.334 4.417z" fill="#000000" fill-opacity="0.0" /><path d="M8.334,14.166H11.667" fill="#000000" fill-opacity="0.0" /></svg>