<?xml version="1.0" encoding="utf-8" ?>
<svg baseProfile="full" height="24.0" version="1.1" viewBox="0 0 24.0 24.0" width="24.0" xmlns="http://www.w3.org/2000/svg" xmlns:ev="http://www.w3.org/2001/xml-events" xmlns:xlink="http://www.w3.org/1999/xlink"><defs /><path d="M5.051,4.08C5.051,3.352 5.051,2.988 5.192,2.71C5.317,2.465 5.516,2.266 5.761,2.142C6.039,2 6.403,2 7.131,2L17.371,2C18.099,2 18.463,2 18.741,2.142C18.986,2.266 19.184,2.465 19.309,2.71C19.451,2.988 19.451,3.352 19.451,4.08V19.92C19.451,20.648 19.451,21.012 19.309,21.29C19.184,21.535 18.986,21.734 18.741,21.858C18.463,22 18.099,22 17.371,22H7.131C6.403,22 6.039,22 5.761,21.858C5.516,21.734 5.317,21.535 5.192,21.29C5.051,21.012 5.051,20.648 5.051,19.92L5.051,4.08ZM16.77,14.995C16.77,17.491 14.747,19.514 12.251,19.514C9.755,19.514 7.732,17.491 7.732,14.995C7.732,12.5 9.755,10.477 12.251,10.477C14.747,10.477 16.77,12.5 16.77,14.995ZM12.25,8.243C13.008,8.243 13.623,7.629 13.623,6.87C13.623,6.112 13.008,5.497 12.25,5.497C11.492,5.497 10.877,6.112 10.877,6.87C10.877,7.629 11.492,8.243 12.25,8.243Z" fill="#ffffff" fill-opacity="1.0" /><path d="M12.25,14.996m-3.5,0a3.5,3.5 0,1 1,7 0a3.5,3.5 0,1 1,-7 0" fill="#ffffff" fill-opacity="1.0" /></svg>