<?xml version="1.0" encoding="utf-8" ?>
<svg baseProfile="full" height="20.0" version="1.1" viewBox="0 0 24.0 24.0" width="20.0" xmlns="http://www.w3.org/2000/svg" xmlns:ev="http://www.w3.org/2001/xml-events" xmlns:xlink="http://www.w3.org/1999/xlink"><defs /><path d="M23,5v8h-2V5H3v14h10v2v0H3c-1.1,0 -2,-0.9 -2,-2V5c0,-1.1 0.9,-2 2,-2h18C22.1,3 23,3.9 23,5zM10,8v2.59L5.71,6.29L4.29,7.71L8.59,12H6v2h6V8H10zM19,15c-1.66,0 -3,1.34 -3,3s1.34,3 3,3s3,-1.34 3,-3S20.66,15 19,15z" fill="#000000" fill-opacity="1.0" /></svg>