<?xml version="1.0" encoding="utf-8" ?>
<svg baseProfile="full" height="36.0" version="1.1" viewBox="0 0 36.0 36.0" width="36.0" xmlns="http://www.w3.org/2000/svg" xmlns:ev="http://www.w3.org/2001/xml-events" xmlns:xlink="http://www.w3.org/1999/xlink"><defs /><path d="M 18 0 C 13.228 0 8.646 1.898 5.272 5.272 C 1.898 8.646 0 13.228 0 18 C 0 22.772 1.898 27.354 5.272 30.728 C 8.646 34.102 13.228 36 18 36 C 22.772 36 27.354 34.102 30.728 30.728 C 34.102 27.354 36 22.772 36 18 C 36 13.228 34.102 8.646 30.728 5.272 C 27.354 1.898 22.772 0 18 0 Z" fill="#ffffff" fill-opacity="1.0" /><path d="M 17.398 18.6 L 17.398 23.625 L 18.598 23.625 L 18.598 18.6 L 23.623 18.6 L 23.623 17.4 L 18.598 17.4 L 18.598 12.375 L 17.398 12.375 L 17.398 17.4 L 12.373 17.4 L 12.373 18.6 L 17.398 18.6 Z" fill="#000000" fill-opacity="1.0" /></svg>