<?xml version="1.0" encoding="utf-8" ?>
<svg baseProfile="full" height="24.0" version="1.1" viewBox="0 0 24.0 24.0" width="24.0" xmlns="http://www.w3.org/2000/svg" xmlns:ev="http://www.w3.org/2001/xml-events" xmlns:xlink="http://www.w3.org/1999/xlink"><defs /><path d="M 16.574 4.013 L 18.399 4.013 L 18.399 2.413 L 6.149 2.413 L 6.149 3.108 L 7.054 4.013 L 7.974 4.013 L 7.974 4.933 L 9.574 6.533 L 9.574 4.013 L 14.974 4.013 L 14.974 11.664 L 15.517 11.845 L 15.517 11.845 L 15.518 11.845 L 15.518 11.845 L 15.528 11.849 C 15.539 11.853 15.559 11.861 15.586 11.872 C 15.641 11.894 15.724 11.93 15.826 11.981 C 16.032 12.084 16.305 12.243 16.574 12.468 C 16.951 12.782 17.308 13.208 17.484 13.788 L 16.829 13.788 L 18.429 15.388 L 19.199 15.388 L 19.199 14.588 C 19.199 12.97 18.378 11.888 17.599 11.239 C 17.226 10.928 16.857 10.71 16.574 10.566 L 16.574 4.013 Z M 7.974 9.426 L 3.34 4.792 L 4.471 3.66 L 20.663 19.852 L 19.531 20.983 L 13.936 15.388 L 13.074 15.388 L 13.074 21.588 L 11.474 21.588 L 11.474 15.388 L 5.349 15.388 L 5.349 14.588 C 5.349 12.97 6.17 11.888 6.949 11.239 C 7.322 10.928 7.691 10.71 7.974 10.566 L 7.974 9.426 Z M 12.336 13.788 L 7.064 13.788 C 7.24 13.208 7.596 12.782 7.974 12.468 C 8.243 12.243 8.516 12.084 8.722 11.981 C 8.824 11.93 8.907 11.894 8.961 11.872 C 8.988 11.861 9.008 11.853 9.02 11.849 L 9.03 11.845 L 9.03 11.845 L 9.03 11.845 L 9.031 11.845 L 9.574 11.664 L 9.574 11.026 L 12.336 13.788 Z" fill="#ffffff" fill-opacity="1.0" /></svg>