<?xml version="1.0" encoding="utf-8" ?>
<svg baseProfile="full" height="24.0" version="1.1" viewBox="0 0 32.0 24.0" width="32.0" xmlns="http://www.w3.org/2000/svg" xmlns:ev="http://www.w3.org/2001/xml-events" xmlns:xlink="http://www.w3.org/1999/xlink"><defs /><path d="M0 12c0-4.97 4.03-9 9-9h14c4.97 0 9 4.03 9 9v0c0 4.97-4.03 9-9 9h-14c-4.97 0-9-4.03-9-9z" fill="#00a1ff" fill-opacity="1.0" /><path d="M13.64 12.35c-0.16-0.16-0.16-0.42 0-0.58 1.3-1.3 3.42-1.3 4.72 0 0.16 0.16 0.16 0.42 0 0.58-0.08 0.08-0.18 0.12-0.29 0.12-0.1 0-0.2-0.04-0.29-0.12-0.98-0.98-2.58-0.98-3.56 0-0.16 0.16-0.42 0.16-0.58 0Zm5.35-1.2c0.08 0.07 0.19 0.11 0.29 0.11 0.1 0 0.2-0.04 0.29-0.12 0.16-0.16 0.16-0.42 0-0.58-1.97-1.96-5.17-1.96-7.14 0-0.16 0.16-0.16 0.42 0 0.58 0.16 0.16 0.42 0.16 0.58 0 1.65-1.65 4.33-1.65 5.98 0Zm2.09-4.22H10.93c-0.65 0-1.17 0.52-1.17 1.16v5.49c0 0.64 0.52 1.16 1.17 1.16h2.12l0.82-0.81h-2.94c-0.2 0-0.35-0.16-0.35-0.35V8.09c0-0.2 0.15-0.35 0.35-0.35h10.15c0.19 0 0.35 0.16 0.35 0.35v5.49c0 0.19-0.16 0.35-0.35 0.35h-2.95l0.82 0.81h2.13c0.64 0 1.16-0.52 1.16-1.16V8.09c0-0.64-0.52-1.16-1.16-1.16Zm-4.27 6.75c-0.45-0.45-1.17-0.45-1.62 0l-2.7 2.7c-0.12 0.11-0.15 0.3-0.1 0.44 0.07 0.16 0.22 0.26 0.39 0.26h6.44c0.17 0 0.32-0.1 0.38-0.26 0.06-0.15 0.03-0.33-0.09-0.44l-2.7-2.7Z" fill="#ffffff" fill-opacity="1.0" /></svg>