<?xml version="1.0" encoding="utf-8" ?>
<svg baseProfile="full" height="24.0" version="1.1" viewBox="0 0 32.0 24.0" width="32.0" xmlns="http://www.w3.org/2000/svg" xmlns:ev="http://www.w3.org/2001/xml-events" xmlns:xlink="http://www.w3.org/1999/xlink"><defs /><path d="M0 12c0-4.97 4.03-9 9-9h14c4.97 0 9 4.03 9 9v0c0 4.97-4.03 9-9 9h-14c-4.97 0-9-4.03-9-9z" fill="#00bd13" fill-opacity="1.0" /><path d="M12.9 7.01c-0.12-0.01-0.23 0-0.37 0.04l-0.48 0.16-0.16 0.06-0.02 0.01c-0.28 0.1-0.45 0.16-0.59 0.3-0.11 0.1-0.21 0.28-0.25 0.43-0.05 0.18-0.02 0.34 0.02 0.59v0.02c0.3 1.81 1.34 3.74 2.97 5.36 1.63 1.63 3.55 2.66 5.37 2.97h0.01c0.25 0.04 0.4 0.07 0.6 0.02 0.14-0.04 0.32-0.14 0.42-0.25 0.14-0.14 0.2-0.31 0.3-0.59v-0.02l0.06-0.15v-0.01l0.17-0.48c0.04-0.14 0.05-0.25 0.04-0.37-0.02-0.19-0.1-0.36-0.23-0.5-0.08-0.09-0.18-0.15-0.3-0.2-0.12-0.07-0.28-0.12-0.48-0.2l-1.68-0.64c-0.33-0.12-0.7-0.04-0.93 0.2-0.33 0.34-0.85 0.4-1.22 0.14s-0.7-0.55-1.1-0.94c-0.38-0.38-0.67-0.72-0.93-1.09-0.27-0.37-0.21-0.9 0.12-1.23 0.24-0.25 0.32-0.61 0.2-0.94L13.8 8.02c-0.08-0.2-0.13-0.36-0.2-0.48-0.05-0.12-0.11-0.22-0.2-0.3-0.14-0.13-0.31-0.2-0.5-0.23Z" fill="#ffffff" fill-opacity="1.0" /></svg>