<?xml version="1.0" encoding="utf-8" ?>
<svg baseProfile="full" height="24.0" version="1.1" viewBox="0 0 32.0 24.0" width="32.0" xmlns="http://www.w3.org/2000/svg" xmlns:ev="http://www.w3.org/2001/xml-events" xmlns:xlink="http://www.w3.org/1999/xlink"><defs /><path d="M0 12c0-4.97 4.03-9 9-9h14c4.97 0 9 4.03 9 9v0c0 4.97-4.03 9-9 9h-14c-4.97 0-9-4.03-9-9z" fill="#00a1ff" fill-opacity="1.0" /><path d="M17.75 11.01c0-0.2 0.08-0.39 0.22-0.54 0.14-0.14 0.34-0.22 0.54-0.22h2.56c0.2 0 0.39 0.08 0.54 0.22 0.14 0.14 0.22 0.34 0.22 0.54v4.9c0 0.2-0.08 0.39-0.22 0.54-0.14 0.14-0.34 0.22-0.54 0.22h-2.56c-0.2 0-0.39-0.08-0.54-0.22-0.14-0.14-0.22-0.34-0.22-0.54z" fill="#ffffff" fill-opacity="1.0" /><path d="M16.58 14.92h-5.65c-0.42 0-0.76-0.34-0.76-0.76V8.09c0-0.42 0.34-0.76 0.76-0.76h8.98c0.42 0 0.76 0.34 0.76 0.76v1" fill="#000000" fill-opacity="1.0" /></svg>