<?xml version="1.0" encoding="utf-8" ?>
<svg baseProfile="full" height="40.0" version="1.1" viewBox="0 0 40.0 40.0" width="40.0" xmlns="http://www.w3.org/2000/svg" xmlns:ev="http://www.w3.org/2001/xml-events" xmlns:xlink="http://www.w3.org/1999/xlink"><defs /><path d="M20,0L20,0A20,20 0,0 1,40 20L40,20A20,20 0,0 1,20 40L20,40A20,20 0,0 1,0 20L0,20A20,20 0,0 1,20 0z" fill="#ffffff" fill-opacity="1.0" /><path d="M13.999,10.2C13.005,10.2 12.199,11.006 12.199,12V15H13.799V12C13.799,11.89 13.889,11.8 13.999,11.8H25.999C26.11,11.8 26.199,11.89 26.199,12V15H27.799V12C27.799,11.006 26.993,10.2 25.999,10.2H13.999ZM27.799,25H26.199V28C26.199,28.111 26.11,28.2 25.999,28.2H13.999C13.889,28.2 13.799,28.111 13.799,28V25H12.199V28C12.199,28.994 13.005,29.8 13.999,29.8H25.999C26.993,29.8 27.799,28.994 27.799,28V25Z" fill="#ffffff" fill-opacity="1.0" /><path d="M29.267,19.434L29.833,20L29.267,20.566L26.439,23.394L25.308,22.263L26.77,20.8L22.037,20.8V19.2L26.77,19.2L25.308,17.737L26.439,16.606L29.267,19.434Z" fill="#ffffff" fill-opacity="1.0" /><path d="M10.736,19.434L10.17,20L10.736,20.566L13.564,23.394L14.695,22.263L13.233,20.8L17.964,20.8V19.2L13.233,19.2L14.695,17.737L13.564,16.606L10.736,19.434Z" fill="#ffffff" fill-opacity="1.0" /></svg>