<?xml version="1.0" encoding="utf-8" ?>
<svg baseProfile="full" height="24.0" version="1.1" viewBox="0 0 24.0 24.0" width="24.0" xmlns="http://www.w3.org/2000/svg" xmlns:ev="http://www.w3.org/2001/xml-events" xmlns:xlink="http://www.w3.org/1999/xlink"><defs /><path d="M12,4.0497C7.6094,4.0497 4.05,7.609 4.05,11.9997C4.05,16.3904 7.6094,19.9497 12,19.9497C16.3907,19.9497 19.95,16.3904 19.95,11.9997C19.95,7.609 16.3907,4.0497 12,4.0497ZM2.45,11.9997C2.45,6.7254 6.7257,2.4497 12,2.4497C17.2743,2.4497 21.55,6.7254 21.55,11.9997C21.55,17.274 17.2743,21.5497 12,21.5497C6.7257,21.5497 2.45,17.274 2.45,11.9997ZM11.2,16.3747V11.1247H12.8V16.3747H11.2ZM13.0938,8.9372C13.0938,9.5413 12.6041,10.031 12,10.031C11.396,10.031 10.9063,9.5413 10.9063,8.9372C10.9063,8.3331 11.396,7.8435 12,7.8435C12.6041,7.8435 13.0938,8.3331 13.0938,8.9372Z" fill="#ffffff" fill-opacity="1.0" /></svg>