<?xml version="1.0" encoding="utf-8" ?>
<svg baseProfile="full" height="40.0" version="1.1" viewBox="0 0 40.0 40.0" width="40.0" xmlns="http://www.w3.org/2000/svg" xmlns:ev="http://www.w3.org/2001/xml-events" xmlns:xlink="http://www.w3.org/1999/xlink"><defs /><path d="M20,0L20,0A20,20 0,0 1,40 20L40,20A20,20 0,0 1,20 40L20,40A20,20 0,0 1,0 20L0,20A20,20 0,0 1,20 0z" fill="#ffffff" fill-opacity="1.0" /><path d="M29.8,14C29.8,13.006 28.994,12.2 28,12.2L25,12.2L25,13.8L28,13.8C28.111,13.8 28.2,13.889 28.2,14L28.2,26C28.2,26.11 28.111,26.2 28,26.2L25,26.2L25,27.8L28,27.8C28.994,27.8 29.8,26.994 29.8,26L29.8,14ZM15,27.8L15,26.2L12,26.2C11.89,26.2 11.8,26.11 11.8,26L11.8,14C11.8,13.889 11.89,13.8 12,13.8L15,13.8L15,12.2L12,12.2C11.006,12.2 10.2,13.006 10.2,14L10.2,26C10.2,26.994 11.006,27.8 12,27.8L15,27.8Z" fill="#ffffff" fill-opacity="1.0" /><path d="M20.572,29.416L20.006,29.982L19.44,29.416L16.612,26.588L17.743,25.456L19.206,26.919L19.206,22.186L20.806,22.186L20.806,26.919L22.269,25.456L23.4,26.588L20.572,29.416Z" fill="#ffffff" fill-opacity="1.0" /><path d="M20.572,10.584L20.006,10.018L19.44,10.584L16.612,13.412L17.743,14.544L19.206,13.081L19.206,17.813L20.806,17.813L20.806,13.081L22.269,14.544L23.4,13.412L20.572,10.584Z" fill="#ffffff" fill-opacity="1.0" /></svg>