<?xml version="1.0" encoding="utf-8" ?>
<svg baseProfile="full" height="24.0" version="1.1" viewBox="0 0 25.0 24.0" width="25.0" xmlns="http://www.w3.org/2000/svg" xmlns:ev="http://www.w3.org/2001/xml-events" xmlns:xlink="http://www.w3.org/1999/xlink"><defs /><path d="M7.5,4.3L17.5,4.3A2.7,2.7 0,0 1,20.2 7L20.2,17A2.7,2.7 0,0 1,17.5 19.7L7.5,19.7A2.7,2.7 0,0 1,4.8 17L4.8,7A2.7,2.7 0,0 1,7.5 4.3z" fill="#000000" fill-opacity="1.0" /><path d="M7.5,3.65L17.5,3.65A3.35,3.35 0,0 1,20.85 7L20.85,17A3.35,3.35 0,0 1,17.5 20.35L7.5,20.35A3.35,3.35 0,0 1,4.15 17L4.15,7A3.35,3.35 0,0 1,7.5 3.65z" fill="#000000" fill-opacity="0.0" /></svg>