<?xml version="1.0" encoding="utf-8" ?>
<svg baseProfile="full" height="24.0" version="1.1" viewBox="0 0 24.0 24.0" width="24.0" xmlns="http://www.w3.org/2000/svg" xmlns:ev="http://www.w3.org/2001/xml-events" xmlns:xlink="http://www.w3.org/1999/xlink"><defs /><path d="M7,3L17,3A4,4 0,0 1,21 7L21,17A4,4 0,0 1,17 21L7,21A4,4 0,0 1,3 17L3,7A4,4 0,0 1,7 3z" fill="#000000" fill-opacity="1.0" /><path d="M10.831,14.318L17.033,8L18,8.985L11.315,15.796C11.047,16.068 10.614,16.068 10.347,15.796L7,12.386L7.967,11.401L10.831,14.318Z" fill="#000000" fill-opacity="1.0" /></svg>