<?xml version="1.0" encoding="utf-8" ?>
<svg baseProfile="full" height="34.0" version="1.1" viewBox="0 0 34.0 34.0" width="34.0" xmlns="http://www.w3.org/2000/svg" xmlns:ev="http://www.w3.org/2001/xml-events" xmlns:xlink="http://www.w3.org/1999/xlink"><defs /><path d="M6,17.001C12,27.716 21.999,27.716 27.999,17.001C21.999,6.286 12,6.286 6,17.001ZM13.983,17.003C13.983,15.337 15.333,13.987 16.999,13.987C18.665,13.987 20.015,15.337 20.015,17.003C20.015,18.669 18.665,20.019 16.999,20.019C15.333,20.019 13.983,18.669 13.983,17.003ZM16.999,11.983C14.227,11.983 11.979,14.231 11.979,17.003C11.979,19.775 14.227,22.023 16.999,22.023C19.771,22.023 22.019,19.775 22.019,17.003C22.019,14.231 19.771,11.983 16.999,11.983Z" fill="#000000" fill-opacity="1.0" /></svg>