<?xml version="1.0" encoding="utf-8" ?>
<svg baseProfile="full" height="24.0" version="1.1" viewBox="0 0 24.0 24.0" width="24.0" xmlns="http://www.w3.org/2000/svg" xmlns:ev="http://www.w3.org/2001/xml-events" xmlns:xlink="http://www.w3.org/1999/xlink"><defs /><path d="M7.5,4.5L16.5,4.5A3,3 0,0 1,19.5 7.5L19.5,16.5A3,3 0,0 1,16.5 19.5L7.5,19.5A3,3 0,0 1,4.5 16.5L4.5,7.5A3,3 0,0 1,7.5 4.5z" fill="#000000" fill-opacity="1.0" /><path d="M7.5,3.7L16.5,3.7A3.8,3.8 0,0 1,20.3 7.5L20.3,16.5A3.8,3.8 0,0 1,16.5 20.3L7.5,20.3A3.8,3.8 0,0 1,3.7 16.5L3.7,7.5A3.8,3.8 0,0 1,7.5 3.7z" fill="#000000" fill-opacity="0.0" /></svg>