<?xml version="1.0" encoding="utf-8" ?>
<svg baseProfile="full" height="24.0" version="1.1" viewBox="0 0 24.0 24.0" width="24.0" xmlns="http://www.w3.org/2000/svg" xmlns:ev="http://www.w3.org/2001/xml-events" xmlns:xlink="http://www.w3.org/1999/xlink"><defs /><path d="M2.7,12C2.7,6.864 6.864,2.7 12,2.7C17.136,2.7 21.3,6.864 21.3,12C21.3,17.136 17.136,21.3 12,21.3C6.864,21.3 2.7,17.136 2.7,12ZM12,1.3C6.09,1.3 1.3,6.09 1.3,12C1.3,17.909 6.09,22.7 12,22.7C17.909,22.7 22.7,17.909 22.7,12C22.7,6.09 17.909,1.3 12,1.3ZM6.343,17.657C7.843,19.157 9.878,20 12,20V4C9.878,4 7.843,4.843 6.343,6.343C4.843,7.843 4,9.878 4,12C4,14.122 4.843,16.156 6.343,17.657Z" fill="#ffffff" fill-opacity="1.0" /></svg>