<?xml version="1.0" encoding="utf-8" ?>
<svg baseProfile="full" height="24.0" version="1.1" viewBox="0 0 960.0 960.0" width="24.0" xmlns="http://www.w3.org/2000/svg" xmlns:ev="http://www.w3.org/2001/xml-events" xmlns:xlink="http://www.w3.org/1999/xlink"><defs /><path d="M160,800Q127,800 103.5,776.5Q80,753 80,720L80,240Q80,207 103.5,183.5Q127,160 160,160L800,160Q833,160 856.5,183.5Q880,207 880,240L880,720Q880,753 856.5,776.5Q833,800 800,800L160,800ZM160,720L800,720Q800,720 800,720Q800,720 800,720L800,320L160,320L160,720Q160,720 160,720Q160,720 160,720Z" fill="#000000" fill-opacity="1.0" /></svg>