<?xml version="1.0" encoding="utf-8" ?>
<svg baseProfile="full" height="24.0" version="1.1" viewBox="0 0 24.0 24.0" width="24.0" xmlns="http://www.w3.org/2000/svg" xmlns:ev="http://www.w3.org/2001/xml-events" xmlns:xlink="http://www.w3.org/1999/xlink"><defs /><path d="M12,0L12,0A12,12 0,0 1,24 12L24,12A12,12 0,0 1,12 24L12,24A12,12 0,0 1,0 12L0,12A12,12 0,0 1,12 0z" fill="#999999" fill-opacity="1.0" /><path d="M16.117,6.937H13.354V5.604H17.729C18.097,5.604 18.396,5.902 18.396,6.271V10.646H17.063V7.878L13.281,11.653L12.339,10.71L16.117,6.937ZM7.893,17.063H10.645V18.396H6.27C5.902,18.396 5.604,18.098 5.604,17.729V13.354H6.937V16.133L10.667,12.447L11.604,13.395L7.893,17.063Z" fill="#a6a6a6" fill-opacity="1.0" /></svg>