<?xml version="1.0" encoding="utf-8" ?>
<svg baseProfile="full" height="24.0" version="1.1" viewBox="0 0 24.0 24.0" width="24.0" xmlns="http://www.w3.org/2000/svg" xmlns:ev="http://www.w3.org/2001/xml-events" xmlns:xlink="http://www.w3.org/1999/xlink"><defs /><path d="M9,16H2V18H9V21H11V18C11,17.4696 10.7893,16.9609 10.4142,16.5858C10.0391,16.2107 9.5304,16 9,16Z" fill="#000000" fill-opacity="1.0" /><path d="M13,18V21H15V18H22V16H15C14.4696,16 13.9609,16.2107 13.5858,16.5858C13.2107,16.9609 13,17.4696 13,18Z" fill="#000000" fill-opacity="1.0" /><path d="M3,12C3,12.7956 3.3161,13.5587 3.8787,14.1213C4.4413,14.6839 5.2043,15 6,15H18C18.7956,15 19.5587,14.6839 20.1213,14.1213C20.6839,13.5587 21,12.7956 21,12V8H3V12Z" fill="#000000" fill-opacity="1.0" /><path d="M21,5H15V4C15,3.7348 14.8946,3.4804 14.7071,3.2929C14.5196,3.1053 14.2652,3 14,3H10C9.7348,3 9.4804,3.1053 9.2929,3.2929C9.1054,3.4804 9,3.7348 9,4V5H3V7H21V5Z" fill="#000000" fill-opacity="1.0" /></svg>