<?xml version="1.0" encoding="utf-8" ?>
<svg baseProfile="full" height="11.0" version="1.1" viewBox="0 0 10.0 11.0" width="10.0" xmlns="http://www.w3.org/2000/svg" xmlns:ev="http://www.w3.org/2001/xml-events" xmlns:xlink="http://www.w3.org/1999/xlink"><defs /><path d="M1.018,1.436C0.272,2.181 0.48,3.449 1.288,4.257C1.466,4.435 1.667,4.584 1.879,4.7C1.877,4.695 1.875,4.69 1.874,4.685C1.643,4.059 1.678,3.336 2.039,2.71C2.326,2.214 2.769,1.864 3.269,1.684C3.418,1.631 3.567,1.6 3.714,1.589C2.906,0.88 1.726,0.727 1.018,1.436ZM4.399,2.277C4.119,2.121 3.778,2.077 3.452,2.194C3.067,2.332 2.728,2.601 2.508,2.981C2.232,3.46 2.204,4.015 2.382,4.498C2.527,4.892 2.871,5.157 3.259,5.233C3.268,5.235 3.277,5.237 3.287,5.238C3.434,5.264 3.586,5.263 3.736,5.231C4.205,5.133 4.627,4.864 4.877,4.431C5.166,3.931 5.151,3.342 4.918,2.835C4.808,2.596 4.623,2.401 4.399,2.277ZM3.63,4.616C3.423,4.497 3.437,4.083 3.663,3.692C3.889,3.301 4.24,3.082 4.447,3.202C4.655,3.322 4.64,3.735 4.415,4.126C4.189,4.517 3.838,4.736 3.63,4.616Z" fill="#000000" fill-opacity="1.0" /><path d="M2.643,5.509C2.197,5.451 1.757,5.278 1.375,5.022V7.334C1.375,7.84 1.785,8.251 2.291,8.251C2.797,8.251 3.208,7.84 3.208,7.334V5.704C3.012,5.67 2.82,5.604 2.643,5.509Z" fill="#000000" fill-opacity="1.0" /><path d="M8.924,3.521C9.669,4.266 9.461,5.534 8.653,6.342C8.476,6.52 8.275,6.669 8.063,6.784C8.065,6.779 8.067,6.774 8.069,6.769C8.299,6.143 8.265,5.42 7.904,4.794C7.617,4.298 7.174,3.947 6.674,3.768C6.525,3.715 6.376,3.684 6.228,3.673C7.037,2.964 8.216,2.813 8.924,3.521ZM5.717,4.282C5.959,4.194 6.229,4.184 6.491,4.278C6.875,4.416 7.215,4.685 7.435,5.065C7.711,5.544 7.739,6.099 7.561,6.582C7.358,7.134 6.764,7.432 6.207,7.315C5.737,7.217 5.315,6.948 5.066,6.515C4.969,6.348 4.907,6.171 4.875,5.991C4.811,5.631 4.87,5.258 5.025,4.92C5.162,4.621 5.417,4.392 5.716,4.283C5.717,4.282 5.717,4.282 5.717,4.282ZM6.313,6.7C6.52,6.581 6.506,6.167 6.28,5.776C6.054,5.385 5.703,5.166 5.496,5.286C5.288,5.405 5.303,5.819 5.528,6.21C5.754,6.601 6.105,6.82 6.313,6.7Z" fill="#000000" fill-opacity="1.0" /><path d="M7.301,7.593C7.747,7.535 8.186,7.361 8.568,7.106V9.417C8.568,9.923 8.157,10.334 7.651,10.334C7.145,10.334 6.735,9.923 6.735,9.417V7.788C6.931,7.754 7.124,7.688 7.301,7.593Z" fill="#000000" fill-opacity="1.0" /></svg>