<?xml version="1.0" encoding="utf-8" ?>
<svg baseProfile="full" height="11.0" version="1.1" viewBox="0 0 10.0 11.0" width="10.0" xmlns="http://www.w3.org/2000/svg" xmlns:ev="http://www.w3.org/2001/xml-events" xmlns:xlink="http://www.w3.org/1999/xlink"><defs /><path d="M4.158,2.126L4.167,2.126H5.833L5.842,2.126C6.027,2.126 6.129,2.126 6.216,2.131C7.618,2.204 8.789,3.139 9.209,4.418H8.767C8.767,4.418 8.767,4.418 8.766,4.417H7.069C7.012,4.178 6.798,4.001 6.542,4.001H3.458C3.202,4.001 2.988,4.178 2.931,4.417H1.234C1.234,4.418 1.233,4.418 1.233,4.418H0.791C1.211,3.139 2.382,2.204 3.784,2.131C3.871,2.126 3.973,2.126 4.158,2.126ZM9.127,4.96H9.338C9.354,5.066 9.365,5.175 9.37,5.285C9.375,5.372 9.375,5.474 9.375,5.659V5.659V5.659V5.668V5.676V5.676V5.676C9.375,5.862 9.375,5.963 9.37,6.05C9.281,7.754 7.92,9.115 6.216,9.205C6.129,9.209 6.027,9.209 5.842,9.209H5.842H5.833H4.167H4.158H4.158C3.973,9.209 3.871,9.209 3.784,9.205C2.08,9.115 0.719,7.754 0.63,6.05C0.625,5.963 0.625,5.862 0.625,5.676V5.668V5.659C0.625,5.474 0.625,5.372 0.63,5.285C0.635,5.175 0.646,5.066 0.662,4.96H0.874C0.874,4.959 0.874,4.959 0.874,4.959H2.978C3.068,5.132 3.249,5.251 3.458,5.251H6.542C6.751,5.251 6.932,5.132 7.022,4.959H9.127C9.127,4.959 9.127,4.959 9.127,4.96ZM5,6.917C5.23,6.917 5.417,6.73 5.417,6.5C5.417,6.27 5.23,6.084 5,6.084C4.77,6.084 4.584,6.27 4.584,6.5C4.584,6.73 4.77,6.917 5,6.917Z" fill="#000000" fill-opacity="1.0" /></svg>