<?xml version="1.0" encoding="utf-8" ?>
<svg baseProfile="full" height="24.0" version="1.1" viewBox="0 0 24.0 24.0" width="24.0" xmlns="http://www.w3.org/2000/svg" xmlns:ev="http://www.w3.org/2001/xml-events" xmlns:xlink="http://www.w3.org/1999/xlink"><defs /><path d="M6,2.301C5.613,2.301 5.3,2.614 5.3,3.001C5.3,3.387 5.613,3.701 6,3.701H17.6C18.539,3.701 19.3,4.462 19.3,5.401V15.311L17.495,13.506C17.222,13.232 16.778,13.232 16.505,13.506C16.232,13.779 16.232,14.222 16.505,14.496L19.505,17.496C19.572,17.563 19.649,17.614 19.732,17.648C19.813,17.681 19.901,17.7 19.993,17.701C19.996,17.701 19.998,17.701 20,17.701C20.002,17.701 20.004,17.701 20.006,17.701C20.183,17.699 20.36,17.631 20.495,17.496L23.495,14.496C23.768,14.222 23.768,13.779 23.495,13.506C23.222,13.232 22.778,13.232 22.505,13.506L20.7,15.311V5.401C20.7,3.689 19.312,2.301 17.6,2.301H6Z" fill="#ffffff" fill-opacity="1.0" /><path d="M18,21.701C18.386,21.701 18.7,21.387 18.7,21.001C18.7,20.614 18.386,20.301 18,20.301H6.4C5.461,20.301 4.7,19.54 4.7,18.601V8.691L6.505,10.496C6.778,10.769 7.221,10.769 7.495,10.496C7.768,10.222 7.768,9.779 7.495,9.506L4.495,6.506C4.494,6.505 4.492,6.503 4.49,6.501C4.424,6.437 4.349,6.388 4.269,6.354C4.186,6.32 4.095,6.301 4,6.301C3.905,6.301 3.814,6.32 3.732,6.354C3.649,6.388 3.572,6.439 3.505,6.506L0.505,9.506C0.231,9.779 0.231,10.222 0.505,10.496C0.778,10.769 1.221,10.769 1.495,10.496L3.3,8.691V18.601C3.3,20.313 4.688,21.701 6.4,21.701H18Z" fill="#ffffff" fill-opacity="1.0" /></svg>