<?xml version="1.0" encoding="utf-8" ?>
<svg baseProfile="full" height="24.0" version="1.1" viewBox="0 0 24.0 24.0" width="24.0" xmlns="http://www.w3.org/2000/svg" xmlns:ev="http://www.w3.org/2001/xml-events" xmlns:xlink="http://www.w3.org/1999/xlink"><defs /><path d="M9,3H3.48C3.312,3 3.228,3 3.164,3.033C3.107,3.061 3.061,3.107 3.033,3.164C3,3.228 3,3.312 3,3.48V9" fill="#000000" fill-opacity="0.0" /><path d="M21,9L21,3.48C21,3.312 21,3.228 20.967,3.164C20.938,3.107 20.893,3.061 20.836,3.033C20.772,3 20.688,3 20.52,3L15,3" fill="#000000" fill-opacity="0.0" /><path d="M15,21L20.52,21C20.688,21 20.772,21 20.836,20.967C20.893,20.938 20.938,20.893 20.967,20.836C21,20.772 21,20.688 21,20.52L21,15" fill="#000000" fill-opacity="0.0" /><path d="M3,15L3,20.52C3,20.688 3,20.772 3.033,20.836C3.061,20.893 3.107,20.938 3.164,20.967C3.228,21 3.312,21 3.48,21L9,21" fill="#000000" fill-opacity="0.0" /></svg>