<?xml version="1.0" encoding="utf-8" ?>
<svg baseProfile="full" height="24.0" version="1.1" viewBox="0 0 24.0 24.0" width="24.0" xmlns="http://www.w3.org/2000/svg" xmlns:ev="http://www.w3.org/2001/xml-events" xmlns:xlink="http://www.w3.org/1999/xlink"><defs /><path d="M8.953,7.969C8.68,7.696 8.236,7.696 7.963,7.969C7.69,8.243 7.69,8.686 7.963,8.959L11.004,12L7.963,15.041C7.69,15.314 7.69,15.757 7.963,16.031C8.236,16.304 8.68,16.304 8.953,16.031L11.994,12.99L15.034,16.03C15.307,16.304 15.751,16.304 16.024,16.03C16.298,15.757 16.298,15.314 16.024,15.04L12.984,12L16.024,8.96C16.298,8.686 16.298,8.243 16.024,7.97C15.751,7.696 15.307,7.696 15.034,7.97L11.994,11.01L8.953,7.969Z" fill="#ffffff" fill-opacity="1.0" /><path d="M12,21.503C17.247,21.503 21.5,17.249 21.5,12.003C21.5,6.756 17.247,2.503 12,2.503C6.753,2.503 2.5,6.756 2.5,12.003C2.5,17.249 6.753,21.503 12,21.503Z" fill="#000000" fill-opacity="0.0" /></svg>