<?xml version="1.0" encoding="utf-8" ?>
<svg baseProfile="full" height="26.0" version="1.1" viewBox="0 0 100.0 26.0" width="100.0" xmlns="http://www.w3.org/2000/svg" xmlns:ev="http://www.w3.org/2001/xml-events" xmlns:xlink="http://www.w3.org/1999/xlink"><defs /><path d="M45.37,6.53H54.63C54.86,6.53 55.06,6.53 55.22,6.55C55.39,6.56 55.57,6.59 55.74,6.68C55.99,6.81 56.19,7.01 56.32,7.26C56.41,7.43 56.44,7.61 56.45,7.78C56.47,7.94 56.47,8.14 56.47,8.37V17.63C56.47,17.86 56.47,18.06 56.45,18.22C56.44,18.39 56.41,18.57 56.32,18.74C56.19,18.99 55.99,19.19 55.74,19.32C55.57,19.41 55.39,19.44 55.22,19.45C55.06,19.47 54.86,19.47 54.63,19.47H45.37C45.14,19.47 44.94,19.47 44.78,19.45C44.61,19.44 44.43,19.41 44.26,19.32C44.01,19.19 43.81,18.99 43.68,18.74C43.59,18.57 43.56,18.39 43.55,18.22C43.53,18.06 43.53,17.86 43.53,17.63V8.37C43.53,8.14 43.53,7.94 43.55,7.78C43.56,7.61 43.59,7.43 43.68,7.26C43.81,7.01 44.01,6.81 44.26,6.68C44.43,6.59 44.61,6.56 44.78,6.55C44.94,6.53 45.14,6.53 45.37,6.53ZM44.86,7.48C44.74,7.49 44.7,7.5 44.69,7.51C44.61,7.55 44.55,7.61 44.51,7.68C44.5,7.7 44.49,7.74 44.48,7.86C44.47,7.98 44.47,8.14 44.47,8.39V17.61C44.47,17.86 44.47,18.02 44.48,18.14C44.49,18.26 44.5,18.3 44.51,18.31C44.55,18.39 44.61,18.45 44.69,18.49C44.7,18.5 44.74,18.51 44.86,18.52C44.98,18.53 45.14,18.53 45.39,18.53H54.61C54.86,18.53 55.02,18.53 55.14,18.52C55.26,18.51 55.3,18.5 55.31,18.49C55.39,18.45 55.45,18.39 55.49,18.31C55.5,18.3 55.51,18.26 55.52,18.14C55.53,18.02 55.53,17.86 55.53,17.61V8.39C55.53,8.14 55.53,7.98 55.52,7.86C55.51,7.74 55.5,7.7 55.49,7.68C55.45,7.61 55.39,7.55 55.31,7.51C55.3,7.5 55.26,7.49 55.14,7.48C55.02,7.47 54.86,7.47 54.61,7.47H45.39C45.14,7.47 44.98,7.47 44.86,7.48Z" fill="#ffffff" fill-opacity="1.0" /><path d="M50.31,8.53C50.31,8.53 50.32,8.53 50.32,8.53H53.68C53.68,8.53 53.69,8.53 53.69,8.53C53.74,8.53 53.8,8.53 53.85,8.54C53.91,8.54 54,8.56 54.1,8.61C54.23,8.67 54.33,8.77 54.39,8.9C54.44,9 54.46,9.09 54.46,9.15C54.47,9.2 54.47,9.26 54.47,9.31C54.47,9.31 54.47,9.32 54.47,9.32V16.68C54.47,16.68 54.47,16.69 54.47,16.69C54.47,16.74 54.47,16.8 54.46,16.85C54.46,16.91 54.44,17 54.39,17.1C54.33,17.23 54.23,17.33 54.1,17.39C54,17.44 53.91,17.46 53.85,17.46C53.8,17.47 53.74,17.47 53.69,17.47C53.69,17.47 53.68,17.47 53.68,17.47H50.32C50.32,17.47 50.31,17.47 50.31,17.47C50.26,17.47 50.2,17.47 50.15,17.46C50.09,17.46 50,17.44 49.9,17.39C49.77,17.33 49.67,17.23 49.61,17.1C49.56,17 49.54,16.91 49.54,16.85C49.53,16.8 49.53,16.74 49.53,16.69C49.53,16.69 49.53,16.68 49.53,16.68V9.32C49.53,9.32 49.53,9.31 49.53,9.31C49.53,9.26 49.53,9.2 49.54,9.15C49.54,9.09 49.56,9 49.61,8.9C49.67,8.77 49.77,8.67 49.9,8.61C50,8.56 50.09,8.54 50.15,8.54C50.2,8.53 50.26,8.53 50.31,8.53ZM50.47,9.47V16.53H53.53V9.47H50.47Z" fill="#ffffff" fill-opacity="1.0" /></svg>