<?xml version="1.0" encoding="utf-8" ?>
<svg baseProfile="full" height="14.0" version="1.1" viewBox="0 0 42.0 14.0" width="42.0" xmlns="http://www.w3.org/2000/svg" xmlns:ev="http://www.w3.org/2001/xml-events" xmlns:xlink="http://www.w3.org/1999/xlink"><defs /><path d="M26.498,6.351V9.326C26.497,9.376 26.475,9.425 26.437,9.46C26.399,9.495 26.348,9.515 26.294,9.514H24.537C24.51,9.514 24.484,9.509 24.46,9.5C24.435,9.49 24.413,9.476 24.395,9.458C24.357,9.422 24.336,9.374 24.336,9.323V6.348C24.336,6.167 24.29,5.987 24.201,5.827C24.112,5.666 23.983,5.528 23.826,5.425C23.673,5.326 23.499,5.262 23.315,5.239H23.296H23.276H23.226H23.175C23.019,5.237 22.864,5.265 22.72,5.321C22.576,5.377 22.445,5.46 22.335,5.566C22.112,5.781 21.986,6.071 21.986,6.374V9.326C21.986,9.377 21.964,9.425 21.927,9.461C21.889,9.497 21.838,9.517 21.785,9.517H20.02C19.966,9.517 19.915,9.497 19.878,9.461C19.84,9.425 19.819,9.377 19.819,9.326V6.307C19.819,6.294 19.819,6.281 19.819,6.269C19.836,5.575 20.095,4.906 20.554,4.366C21.004,3.833 21.623,3.451 22.319,3.278H22.325H22.331C22.708,3.189 23.098,3.161 23.486,3.195C23.847,3.228 24.201,3.318 24.531,3.46L24.59,3.486L24.649,3.513L24.677,3.527L24.705,3.542L24.735,3.557L24.765,3.573C25.281,3.842 25.712,4.236 26.017,4.714C26.332,5.208 26.499,5.774 26.498,6.351ZM11.205,9.503H9.443C9.389,9.503 9.338,9.482 9.301,9.447C9.263,9.411 9.242,9.362 9.242,9.312V0.191C9.242,0.14 9.263,0.092 9.301,0.056C9.338,0.02 9.389,0 9.443,0L11.205,0C11.258,0 11.309,0.02 11.347,0.056C11.384,0.092 11.406,0.14 11.406,0.191V9.312C11.406,9.337 11.401,9.362 11.39,9.385C11.38,9.408 11.365,9.429 11.347,9.447C11.328,9.465 11.306,9.479 11.282,9.488C11.257,9.498 11.231,9.503 11.205,9.503ZM8.372,4.974V5.008V5.15V5.292C8.373,5.341 8.354,5.387 8.319,5.422C8.283,5.457 8.235,5.477 8.185,5.478H7.381C7.517,5.733 7.612,6.005 7.661,6.286C7.706,6.556 7.707,6.831 7.665,7.102C7.585,7.694 7.299,8.244 6.851,8.664C6.413,9.069 5.82,9.344 5.106,9.445C4.881,9.475 4.655,9.493 4.428,9.499C4.2,9.506 3.971,9.505 3.742,9.504H3.493H3.245C3.112,9.505 2.983,9.55 2.882,9.633C2.835,9.672 2.796,9.721 2.77,9.775C2.744,9.83 2.73,9.889 2.729,9.949C2.726,10 2.734,10.052 2.755,10.099C2.775,10.147 2.805,10.189 2.845,10.224C2.944,10.297 3.068,10.334 3.194,10.328H3.487H3.903C4.333,10.328 4.866,10.328 5.338,10.328C5.81,10.328 6.224,10.344 6.417,10.368C6.916,10.42 7.383,10.623 7.751,10.947C8.081,11.248 8.295,11.646 8.356,12.077C8.392,12.469 8.264,12.911 8.123,13.262C8.035,13.481 7.931,13.695 7.811,13.901C7.795,13.93 7.771,13.955 7.742,13.972C7.709,13.99 7.672,14 7.634,14H5.536C5.482,14 5.431,13.981 5.392,13.946C5.355,13.91 5.335,13.861 5.334,13.81C5.334,13.81 5.334,13.7 5.334,13.584C5.334,13.467 5.334,13.344 5.334,13.316C5.334,13.13 5.291,12.993 5.197,12.904C5.104,12.816 4.96,12.773 4.762,12.773C4.363,12.773 3.965,12.777 3.567,12.782C3.168,12.786 2.769,12.79 2.371,12.79C2.284,12.79 2.197,12.79 2.109,12.78C2.022,12.773 1.935,12.762 1.849,12.745C1.455,12.681 1.087,12.517 0.783,12.271C0.487,12.011 0.284,11.669 0.204,11.293C0.105,10.888 0.133,10.463 0.286,10.073C0.441,9.694 0.711,9.367 1.06,9.134C1.117,9.095 1.175,9.058 1.234,9.021L1.408,8.911C1.414,8.904 1.417,8.896 1.417,8.887C1.417,8.879 1.414,8.871 1.408,8.864C1.403,8.854 1.395,8.845 1.385,8.838C0.794,8.501 0.418,8.07 0.209,7.572C-0,7.073 -0.042,6.509 0.038,5.902C0.101,5.357 0.331,4.841 0.699,4.418C1.051,4.019 1.525,3.712 2.091,3.484C2.315,3.393 2.548,3.322 2.786,3.271C3.018,3.223 3.254,3.193 3.491,3.181H5.757H8.162H8.168C8.22,3.181 8.271,3.201 8.308,3.236C8.344,3.271 8.365,3.319 8.365,3.369V3.5V3.63V3.692C8.365,3.877 8.365,4.095 8.365,4.318C8.365,4.541 8.365,4.767 8.365,4.974L8.372,4.974ZM5.537,6.347C5.537,6.01 5.414,5.683 5.188,5.423C4.963,5.163 4.65,4.984 4.302,4.919C3.954,4.854 3.593,4.905 3.28,5.064C2.968,5.223 2.723,5.48 2.588,5.792C2.452,6.103 2.435,6.45 2.538,6.772C2.641,7.095 2.859,7.373 3.154,7.56C3.449,7.747 3.803,7.831 4.156,7.798C4.509,7.765 4.838,7.616 5.089,7.378C5.231,7.242 5.344,7.082 5.421,6.905C5.498,6.728 5.537,6.538 5.537,6.347ZM31.568,6.881H33.541C33.571,6.88 33.601,6.887 33.628,6.899C33.655,6.911 33.679,6.929 33.698,6.952C33.717,6.974 33.73,7.001 33.737,7.029C33.743,7.057 33.743,7.086 33.736,7.114C33.544,7.868 33.07,8.528 32.401,8.972C31.732,9.415 30.916,9.61 30.106,9.521C29.296,9.431 28.549,9.063 28.006,8.485C27.462,7.908 27.16,7.161 27.156,6.386C27.152,5.611 27.447,4.862 27.985,4.279C28.523,3.697 29.266,3.322 30.075,3.225C30.884,3.128 31.702,3.316 32.375,3.754C33.048,4.191 33.529,4.848 33.728,5.599C33.735,5.627 33.736,5.657 33.73,5.685C33.723,5.713 33.71,5.74 33.691,5.763C33.673,5.785 33.648,5.804 33.621,5.817C33.594,5.829 33.563,5.836 33.533,5.836H31.553C31.546,5.836 31.538,5.834 31.531,5.83C31.524,5.826 31.519,5.821 31.515,5.814C31.413,5.647 31.267,5.508 31.093,5.409C30.915,5.31 30.713,5.256 30.507,5.254C30.302,5.252 30.099,5.302 29.919,5.398C29.74,5.493 29.59,5.632 29.484,5.801C29.379,5.969 29.322,6.16 29.319,6.356C29.316,6.552 29.367,6.745 29.467,6.916C29.567,7.087 29.713,7.23 29.889,7.331C30.066,7.432 30.267,7.487 30.473,7.49C30.679,7.494 30.882,7.447 31.063,7.352C31.261,7.248 31.424,7.091 31.532,6.901C31.535,6.894 31.541,6.889 31.548,6.885C31.555,6.882 31.561,6.881 31.568,6.881ZM41.067,6.323C41.067,6.417 41.067,6.51 41.06,6.602C41.053,6.695 41.043,6.786 41.028,6.876C41.02,6.92 40.996,6.961 40.96,6.99C40.923,7.019 40.877,7.036 40.829,7.036H36.356C36.44,7.196 36.554,7.34 36.692,7.462C36.831,7.583 36.992,7.68 37.168,7.746C37.203,7.759 37.238,7.77 37.274,7.781C37.31,7.792 37.349,7.801 37.384,7.809L37.402,7.813H37.42L37.438,7.817H37.458L37.501,7.824L37.544,7.829H37.559H37.573H37.596H37.619H37.645H37.67H37.812H37.831H37.858H37.885H37.905H37.924H37.943H37.961C38.248,7.788 38.516,7.67 38.734,7.488C38.738,7.485 38.742,7.482 38.747,7.481C38.752,7.48 38.758,7.48 38.763,7.481H40.562C40.596,7.481 40.63,7.489 40.66,7.504C40.689,7.52 40.714,7.543 40.732,7.57C40.75,7.598 40.761,7.629 40.762,7.662C40.764,7.694 40.757,7.726 40.743,7.755C40.44,8.366 39.941,8.868 39.317,9.191C38.694,9.514 37.979,9.64 37.275,9.55C36.572,9.461 35.917,9.161 35.404,8.694C34.892,8.228 34.549,7.618 34.425,6.954C34.302,6.289 34.404,5.605 34.717,4.999C35.03,4.394 35.537,3.899 36.166,3.585C36.794,3.272 37.512,3.157 38.214,3.257C38.915,3.357 39.566,3.667 40.07,4.141C40.69,4.717 41.048,5.5 41.067,6.323ZM39.105,5.716C38.996,5.508 38.837,5.328 38.641,5.189C38.442,5.049 38.209,4.957 37.964,4.922H37.946H37.927H37.908H37.888H37.861H37.834H37.815H37.649H37.624H37.6H37.577H37.563H37.549L37.506,4.927L37.462,4.935H37.443H37.424H37.406H37.388L37.349,4.943L37.311,4.953C37.282,4.962 37.252,4.97 37.223,4.98L37.137,5.011C36.969,5.08 36.815,5.176 36.682,5.295C36.55,5.414 36.441,5.554 36.36,5.709H39.106L39.105,5.716ZM18.936,6.346V9.324C18.936,9.349 18.931,9.373 18.921,9.397C18.911,9.42 18.896,9.441 18.877,9.458C18.859,9.476 18.837,9.49 18.813,9.499C18.788,9.509 18.762,9.514 18.736,9.513H17.341C17.288,9.513 17.236,9.493 17.199,9.457C17.161,9.422 17.14,9.373 17.14,9.322V9.159C16.5,9.475 15.771,9.585 15.06,9.474C14.349,9.363 13.696,9.035 13.197,8.542C12.698,8.048 12.381,7.413 12.293,6.734C12.205,6.054 12.351,5.366 12.708,4.772C13.066,4.178 13.617,3.71 14.278,3.438C14.939,3.166 15.675,3.105 16.376,3.264C17.077,3.422 17.705,3.793 18.165,4.319C18.626,4.845 18.895,5.499 18.933,6.183C18.933,6.196 18.933,6.209 18.933,6.223C18.933,6.236 18.933,6.249 18.933,6.262C18.933,6.276 18.933,6.29 18.933,6.303L18.936,6.346ZM17.136,6.346C17.136,6.009 17.013,5.682 16.788,5.422C16.563,5.161 16.249,4.983 15.901,4.918C15.554,4.852 15.193,4.903 14.88,5.062C14.567,5.221 14.322,5.479 14.187,5.79C14.051,6.102 14.033,6.448 14.137,6.771C14.24,7.093 14.457,7.372 14.752,7.559C15.047,7.746 15.401,7.83 15.755,7.797C16.107,7.763 16.437,7.615 16.688,7.376C16.831,7.241 16.944,7.081 17.022,6.904C17.099,6.727 17.139,6.538 17.139,6.346H17.136Z" fill="#ffffff" fill-opacity="1.0" /></svg>