<?xml version="1.0" encoding="utf-8" ?>
<svg baseProfile="full" height="24.0" version="1.1" viewBox="0 0 24.0 24.0" width="24.0" xmlns="http://www.w3.org/2000/svg" xmlns:ev="http://www.w3.org/2001/xml-events" xmlns:xlink="http://www.w3.org/1999/xlink"><defs /><path d="M12,1.711C10.009,1.77 7.987,2.612 6.614,4.055C5.24,5.498 4.492,7.425 4.532,9.417L4.532,9.428C4.594,11.295 5.356,13.07 6.667,14.401C7.022,14.763 7.302,15.192 7.491,15.662L8.137,17.28C8.213,17.47 8.397,17.595 8.601,17.595H12L12,17.599H15.399C15.603,17.599 15.787,17.474 15.863,17.284L16.509,15.666C16.698,15.196 16.978,14.767 17.333,14.405C18.644,13.074 19.406,11.299 19.468,9.432L19.468,9.421C19.508,7.429 18.76,5.502 17.386,4.059C16.013,2.616 13.991,1.774 12,1.716L12,1.711ZM10.473,5.368C10.806,5.235 10.969,4.857 10.836,4.524C10.703,4.19 10.325,4.027 9.992,4.16C8.517,4.747 7.361,5.961 6.852,7.474C6.737,7.814 6.92,8.183 7.26,8.297C7.601,8.412 7.969,8.229 8.084,7.889C8.471,6.739 9.351,5.815 10.473,5.368ZM8.362,19.599C8.362,19.212 8.675,18.899 9.062,18.899H14.905C15.292,18.899 15.605,19.212 15.605,19.599C15.605,19.985 15.292,20.299 14.905,20.299L9.062,20.299C8.675,20.299 8.362,19.985 8.362,19.599ZM10.366,21.589C9.98,21.589 9.666,21.902 9.666,22.289C9.666,22.675 9.98,22.989 10.366,22.989H13.6C13.986,22.989 14.3,22.675 14.3,22.289C14.3,21.902 13.986,21.589 13.6,21.589L10.366,21.589Z" fill="#000000" fill-opacity="1.0" /></svg>