<?xml version="1.0" encoding="utf-8" ?>
<svg baseProfile="full" height="20.0" version="1.1" viewBox="0 0 18.0 20.0" width="18.0" xmlns="http://www.w3.org/2000/svg" xmlns:ev="http://www.w3.org/2001/xml-events" xmlns:xlink="http://www.w3.org/1999/xlink"><defs /><path d="M17.047,6.333L16.172,4.817C16.056,4.616 15.865,4.47 15.641,4.41C15.417,4.349 15.178,4.381 14.977,4.497L10.782,6.919V2.075C10.782,1.843 10.69,1.62 10.526,1.456C10.362,1.292 10.139,1.2 9.907,1.2H8.157C7.925,1.2 7.702,1.292 7.538,1.456C7.374,1.62 7.282,1.843 7.282,2.075V6.919L3.087,4.497C2.886,4.381 2.648,4.349 2.423,4.41C2.199,4.47 2.008,4.616 1.892,4.817L1.017,6.333C0.901,6.534 0.87,6.773 0.93,6.997C0.99,7.221 1.136,7.412 1.337,7.528L5.532,9.95L1.337,12.372C1.136,12.488 0.99,12.679 0.93,12.903C0.87,13.127 0.901,13.366 1.017,13.567L1.892,15.083C2.008,15.284 2.199,15.43 2.423,15.49C2.648,15.55 2.886,15.519 3.087,15.403L7.282,12.981V17.825C7.282,18.057 7.374,18.28 7.538,18.444C7.702,18.608 7.925,18.7 8.157,18.7H9.907C10.139,18.7 10.362,18.608 10.526,18.444C10.69,18.28 10.782,18.057 10.782,17.825V12.981L14.977,15.403C15.178,15.519 15.417,15.55 15.641,15.49C15.865,15.43 16.056,15.284 16.172,15.083L17.047,13.567C17.163,13.366 17.195,13.127 17.135,12.903C17.074,12.679 16.928,12.488 16.727,12.372L12.532,9.95L16.727,7.528C16.928,7.412 17.074,7.221 17.135,6.997C17.195,6.773 17.163,6.534 17.047,6.333Z" fill="#000000" fill-opacity="0.0" /></svg>