<?xml version="1.0" encoding="utf-8" ?>
<svg baseProfile="full" height="24.0" version="1.1" viewBox="0 0 24.0 24.0" width="24.0" xmlns="http://www.w3.org/2000/svg" xmlns:ev="http://www.w3.org/2001/xml-events" xmlns:xlink="http://www.w3.org/1999/xlink"><defs /><path d="M9.979,3.5H10H14H14.021H14.021C14.465,3.5 14.709,3.5 14.919,3.511C18.284,3.687 21.093,5.932 22.101,9H21.573H21.04H16.965C16.83,8.427 16.315,8 15.7,8H8.3C7.685,8 7.17,8.427 7.035,9H2.96H2.428H1.899C2.907,5.932 5.716,3.687 9.081,3.511C9.291,3.5 9.535,3.5 9.979,3.5H9.979ZM21.904,10.3H22.41C22.449,10.557 22.475,10.817 22.489,11.081C22.5,11.29 22.5,11.534 22.5,11.979V11.979V11.979V12V12.021V12.021V12.021C22.5,12.466 22.5,12.71 22.489,12.919C22.275,17.008 19.008,20.275 14.919,20.489C14.71,20.5 14.466,20.5 14.021,20.5H14.021H14.021H14H10H9.979H9.979H9.979C9.534,20.5 9.291,20.5 9.081,20.489C4.992,20.275 1.725,17.008 1.511,12.919C1.5,12.709 1.5,12.465 1.5,12.021V12.021V12V11.979V11.979C1.5,11.535 1.5,11.291 1.511,11.081C1.525,10.817 1.551,10.557 1.59,10.3H2.096H2.603H7.146C7.363,10.716 7.798,11 8.3,11H15.7C16.201,11 16.637,10.716 16.854,10.3H21.397H21.904ZM12,15C12.552,15 13,14.552 13,14C13,13.448 12.552,13 12,13C11.448,13 11,13.448 11,14C11,14.552 11.448,15 12,15Z" fill="#000000" fill-opacity="1.0" /></svg>