<?xml version="1.0" encoding="utf-8" ?>
<svg baseProfile="full" height="24.0" version="1.1" viewBox="0 0 24.0 24.0" width="24.0" xmlns="http://www.w3.org/2000/svg" xmlns:ev="http://www.w3.org/2001/xml-events" xmlns:xlink="http://www.w3.org/1999/xlink"><defs /><path d="M22.001,19.701H2.001C1.614,19.701 1.301,19.388 1.301,19.001C1.301,18.614 1.614,18.301 2.001,18.301H22.001C22.388,18.301 22.701,18.614 22.701,19.001C22.701,19.388 22.388,19.701 22.001,19.701ZM21.701,14.601V5.401C21.701,4.243 20.759,3.301 19.601,3.301H4.401C3.243,3.301 2.301,4.243 2.301,5.401V14.601C2.301,15.759 3.243,16.701 4.401,16.701H19.601C20.759,16.701 21.701,15.759 21.701,14.601ZM19.601,4.701C19.987,4.701 20.301,5.015 20.301,5.401V14.601C20.301,14.987 19.987,15.301 19.601,15.301H4.401C4.015,15.301 3.701,14.987 3.701,14.601V5.401C3.701,5.015 4.015,4.701 4.401,4.701H19.601Z" fill="#000000" fill-opacity="1.0" /><path d="M5,6.4C5,6.26 5,6.19 5.027,6.136C5.051,6.089 5.089,6.051 5.136,6.027C5.19,6 5.26,6 5.4,6H18.6C18.74,6 18.81,6 18.864,6.027C18.91,6.051 18.949,6.089 18.973,6.136C19,6.19 19,6.26 19,6.4V13.6C19,13.74 19,13.81 18.973,13.863C18.949,13.91 18.91,13.949 18.864,13.973C18.81,14 18.74,14 18.6,14H5.4C5.26,14 5.19,14 5.136,13.973C5.089,13.949 5.051,13.91 5.027,13.863C5,13.81 5,13.74 5,13.6V6.4Z" fill="#000000" fill-opacity="1.0" /></svg>