<?xml version="1.0" encoding="utf-8" ?>
<svg baseProfile="full" height="20.0" version="1.1" viewBox="0 0 20.0 20.0" width="20.0" xmlns="http://www.w3.org/2000/svg" xmlns:ev="http://www.w3.org/2001/xml-events" xmlns:xlink="http://www.w3.org/1999/xlink"><defs /><path d="M7.083,5.833L12.917,5.833A0.417,0.417 0,0 1,13.333 6.25L13.333,13.75A0.417,0.417 0,0 1,12.917 14.167L7.083,14.167A0.417,0.417 0,0 1,6.667 13.75L6.667,6.25A0.417,0.417 0,0 1,7.083 5.833z" fill="#ffffff" fill-opacity="1.0" /><path d="M12.635,0.435C10.876,0.188 9.119,0.188 7.363,0.435C7.087,0.474 6.877,0.702 6.862,0.98C6.853,1.135 6.853,1.338 6.853,1.544V1.544V1.544V1.544V1.544C6.853,1.641 6.853,1.738 6.852,1.832C6.849,2.147 6.836,2.467 6.793,2.759C6.75,3.057 6.68,3.278 6.592,3.42C6.55,3.488 6.508,3.533 6.461,3.563C6.405,3.58 6.348,3.597 6.291,3.614C5.227,3.793 4.417,4.719 4.417,5.833V14.167C4.417,15.281 5.227,16.207 6.291,16.385C6.348,16.403 6.404,16.42 6.46,16.437C6.508,16.466 6.55,16.511 6.592,16.58C6.679,16.722 6.749,16.942 6.793,17.241C6.835,17.532 6.848,17.853 6.851,18.168C6.852,18.261 6.852,18.359 6.852,18.456V18.456C6.852,18.662 6.852,18.865 6.861,19.02C6.876,19.298 7.086,19.526 7.362,19.565C9.121,19.812 10.879,19.811 12.634,19.565C12.91,19.526 13.12,19.298 13.136,19.02C13.144,18.865 13.144,18.662 13.144,18.456C13.144,18.359 13.145,18.261 13.146,18.168C13.149,17.853 13.161,17.532 13.204,17.241C13.248,16.942 13.317,16.722 13.405,16.58C13.447,16.511 13.489,16.466 13.536,16.437C13.591,16.42 13.646,16.404 13.701,16.387C14.769,16.212 15.583,15.284 15.583,14.167V5.833C15.583,4.717 14.771,3.791 13.704,3.614C13.648,3.596 13.592,3.579 13.537,3.563C13.49,3.533 13.448,3.488 13.406,3.42C13.318,3.278 13.248,3.057 13.205,2.759C13.162,2.467 13.15,2.147 13.146,1.832C13.145,1.739 13.145,1.641 13.145,1.544V1.544C13.145,1.338 13.145,1.135 13.136,0.98C13.121,0.702 12.911,0.474 12.635,0.435ZM6.667,4.75C6.068,4.75 5.583,5.235 5.583,5.833V14.167C5.583,14.765 6.068,15.25 6.667,15.25H13.333C13.932,15.25 14.417,14.765 14.417,14.167V5.833C14.417,5.235 13.932,4.75 13.333,4.75H6.667Z" fill="#ffffff" fill-opacity="1.0" /></svg>