<?xml version="1.0" encoding="utf-8" ?>
<svg baseProfile="full" height="24.0" version="1.1" viewBox="0 0 24.0 24.0" width="24.0" xmlns="http://www.w3.org/2000/svg" xmlns:ev="http://www.w3.org/2001/xml-events" xmlns:xlink="http://www.w3.org/1999/xlink"><defs /><path d="M6.083,1.904C7.177,0.433 8.4,0.488 8.768,0.505C8.798,0.506 8.822,0.507 8.84,0.507C9.198,0.552 9.493,0.678 9.733,0.839C9.119,1.204 8.787,2.022 8.967,2.869C9.185,3.897 10.073,4.578 10.95,4.392C10.975,4.387 11,4.381 11.025,4.374C10.703,4.886 10.17,5.075 9.828,5.098L9.624,6.243H9.501C9.507,11.492 9.511,15.682 9.263,18.216C10.058,18.196 10.833,18.188 11.537,18.188L11.957,18.189H12.055L12.475,18.188C13.443,18.188 14.546,18.203 15.649,18.245C15.612,17.049 15.625,15.565 15.642,13.751C15.645,13.415 15.649,13.069 15.651,12.71C15.66,11.708 15.659,11.114 15.658,10.23V10.23C15.657,9.851 15.656,9.419 15.656,8.879H15.542L15.339,7.735C14.997,7.711 14.465,7.523 14.143,7.013C14.165,7.018 14.187,7.024 14.209,7.028C15.086,7.215 15.974,6.533 16.192,5.506C16.372,4.66 16.042,3.843 15.43,3.477C15.67,3.315 15.967,3.188 16.326,3.144C16.344,3.144 16.368,3.143 16.398,3.141C16.766,3.125 17.989,3.07 19.084,4.541C19.227,5.198 19.207,5.935 18.992,6.671C18.853,7.145 18.646,7.575 18.389,7.948C17.879,8.152 17.282,8.226 16.851,8.176C16.844,8.263 16.838,8.337 16.833,8.404L16.833,8.404C16.818,8.584 16.808,8.708 16.79,8.879H16.693C16.693,9.436 16.694,9.881 16.694,10.271V10.272L16.694,10.273V10.273C16.696,11.178 16.697,11.785 16.688,12.793C16.685,13.159 16.682,13.512 16.679,13.853L16.679,13.856L16.679,13.858C16.662,15.67 16.648,17.128 16.687,18.294C17.74,18.353 18.752,18.444 19.6,18.577C20.322,18.691 20.933,18.839 21.421,19.018C21.9,19.193 22.307,19.414 22.575,19.701C22.867,20.013 23.006,20.429 22.84,20.869C22.697,21.249 22.359,21.549 21.966,21.789L21.545,22.046V22.058C21.545,22.22 21.45,22.367 21.302,22.435L19.243,23.375C18.865,23.568 18.772,23.502 18.647,23.412C18.63,23.4 18.612,23.387 18.593,23.375C18.492,23.309 18.382,23.236 18.294,23.17C18.226,23.119 18.186,23.043 18.173,22.961V22.996C17.803,22.996 17.452,22.936 17.135,22.779C16.813,22.62 16.558,22.377 16.36,22.063C15.983,21.463 15.807,20.585 15.714,19.456C15.709,19.399 15.705,19.342 15.7,19.284C14.592,19.24 13.469,19.225 12.475,19.225L12.055,19.225H11.957L11.537,19.225C10.788,19.225 9.966,19.234 9.132,19.257C8.946,20.445 8.656,21.35 8.172,21.975C7.597,22.718 6.807,22.996 5.854,22.996V22.914C5.85,23.014 5.809,23.109 5.729,23.17C5.64,23.236 5.53,23.309 5.429,23.375C5.41,23.387 5.392,23.4 5.375,23.412C5.25,23.502 5.157,23.568 4.779,23.375L2.72,22.435C2.572,22.367 2.477,22.22 2.477,22.058V22.052L2.046,21.789C1.653,21.549 1.315,21.249 1.172,20.869C1.006,20.429 1.146,20.013 1.437,19.701C1.705,19.414 2.113,19.193 2.591,19.018C3.079,18.839 3.69,18.691 4.412,18.577C5.498,18.406 6.853,18.306 8.218,18.251C8.474,15.804 8.47,11.627 8.464,6.243H8.376C8.358,6.072 8.348,5.948 8.334,5.768L8.334,5.767L8.334,5.767L8.334,5.767C8.328,5.701 8.322,5.627 8.315,5.54C7.885,5.589 7.288,5.515 6.777,5.312C6.521,4.939 6.314,4.509 6.175,4.035C5.959,3.298 5.94,2.561 6.083,1.904ZM10.793,3.603C10.289,3.71 9.779,3.318 9.654,2.728C9.528,2.138 9.835,1.573 10.339,1.465C10.842,1.358 11.352,1.75 11.478,2.34C11.604,2.931 11.297,3.496 10.793,3.603ZM16.744,19.336L16.747,19.371C16.839,20.486 17.005,21.14 17.238,21.511C17.346,21.683 17.463,21.785 17.594,21.85C17.73,21.917 17.913,21.959 18.173,21.959V21.961C18.202,21.79 18.343,21.691 18.418,21.661L20.652,20.782C20.766,20.737 20.894,20.745 21.002,20.803L21.313,20.972L21.426,20.904C21.75,20.706 21.849,20.56 21.87,20.504C21.872,20.499 21.873,20.495 21.874,20.493L21.874,20.49C21.873,20.488 21.866,20.46 21.817,20.409C21.712,20.296 21.482,20.144 21.065,19.991C20.659,19.843 20.118,19.708 19.439,19.601C18.66,19.478 17.726,19.393 16.744,19.336ZM4.573,19.601C5.564,19.445 6.804,19.35 8.075,19.294C7.9,20.306 7.658,20.945 7.352,21.34C7.026,21.762 6.583,21.959 5.854,21.959V22.006C5.845,21.807 5.685,21.694 5.604,21.661L3.37,20.782C3.256,20.737 3.128,20.745 3.021,20.803L2.703,20.975L2.586,20.904C2.262,20.706 2.163,20.56 2.142,20.504C2.14,20.499 2.139,20.495 2.139,20.493L2.138,20.49L2.138,20.49C2.139,20.488 2.147,20.46 2.195,20.409C2.3,20.296 2.531,20.144 2.947,19.991C3.354,19.843 3.895,19.708 4.573,19.601ZM15.509,5.364C15.383,5.955 14.873,6.346 14.369,6.239C13.866,6.132 13.559,5.567 13.684,4.977C13.81,4.386 14.32,3.995 14.824,4.102C15.328,4.209 15.634,4.774 15.509,5.364Z" fill="#000000" fill-opacity="1.0" /><path d="M6.16,5.669C5.743,5.146 5.435,4.482 5.3,3.732C5.197,3.159 5.206,2.597 5.309,2.081C5.288,2.085 5.266,2.089 5.244,2.094C4.83,2.181 3.745,2.659 3.745,3.663C3.745,4.04 3.878,4.845 4.138,5.144C4.597,5.673 5.711,5.777 6.136,5.673C6.143,5.672 6.151,5.67 6.16,5.669Z" fill="#000000" fill-opacity="1.0" /><path d="M18.99,8.305C19.407,7.783 19.716,7.119 19.851,6.368C19.954,5.795 19.945,5.234 19.841,4.718C19.862,4.721 19.884,4.726 19.906,4.731C20.321,4.818 21.406,5.295 21.406,6.3C21.406,6.676 21.272,7.482 21.012,7.781C20.553,8.31 19.439,8.413 19.014,8.31C19.007,8.308 18.999,8.307 18.99,8.305Z" fill="#000000" fill-opacity="1.0" /></svg>