<?xml version="1.0" encoding="utf-8" ?>
<svg baseProfile="full" height="28.0" version="1.1" viewBox="0 0 28.0 28.0" width="28.0" xmlns="http://www.w3.org/2000/svg" xmlns:ev="http://www.w3.org/2001/xml-events" xmlns:xlink="http://www.w3.org/1999/xlink"><defs /><path d="M5.559,18.84C4.74,17.414 4.271,15.762 4.271,14C4.271,12.19 4.765,10.496 5.626,9.045C5.132,8.856 4.701,8.54 4.374,8.137C3.332,9.845 2.731,11.852 2.731,14C2.731,16.114 3.313,18.092 4.326,19.783C4.644,19.369 5.069,19.041 5.559,18.84ZM9.481,22.618C9.298,23.116 8.986,23.552 8.585,23.885C10.192,24.768 12.038,25.27 14.001,25.27C20.226,25.27 25.271,20.224 25.271,14C25.271,7.775 20.226,2.73 14.001,2.73C12.078,2.73 10.268,3.211 8.684,4.06C9.068,4.408 9.36,4.855 9.521,5.36C10.862,4.663 12.386,4.27 14.001,4.27C19.375,4.27 23.731,8.626 23.731,14C23.731,19.373 19.375,23.73 14.001,23.73C12.369,23.73 10.831,23.328 9.481,22.618Z" fill="#ffffff" fill-opacity="1.0" /><path d="M5.285,6.264a1.4,1.4 0,1 0,2.8 0a1.4,1.4 0,1 0,-2.8 0z" fill="#ffffff" fill-opacity="1.0" /><path d="M5.285,21.595a1.4,1.4 0,1 0,2.8 0a1.4,1.4 0,1 0,-2.8 0z" fill="#ffffff" fill-opacity="1.0" /><path d="M8.005,14C8.005,17.312 10.69,19.997 14.002,19.997C17.314,19.997 19.999,17.312 19.999,14C19.999,13.858 19.994,13.718 19.984,13.578C20.535,13.578 21.051,13.429 21.493,13.168C21.523,13.441 21.538,13.719 21.538,14C21.538,18.163 18.164,21.537 14.002,21.537C9.839,21.537 6.465,18.163 6.465,14C6.465,9.838 9.839,6.464 14.002,6.464C15.712,6.464 17.29,7.033 18.555,7.994C18.09,8.249 17.7,8.624 17.429,9.079C16.457,8.401 15.276,8.004 14.002,8.004C10.69,8.004 8.005,10.688 8.005,14Z" fill="#ffffff" fill-opacity="1.0" /><path d="M13.998,14.002m-3.033,0a3.033,3.033 0,1 1,6.067 0a3.033,3.033 0,1 1,-6.067 0" fill="#ffffff" fill-opacity="1.0" /><path d="M18.584,10.606a1.4,1.4 0,1 0,2.8 0a1.4,1.4 0,1 0,-2.8 0z" fill="#ffffff" fill-opacity="1.0" /></svg>