<?xml version="1.0" encoding="utf-8" ?>
<svg baseProfile="full" height="24.0" version="1.1" viewBox="0 0 24.0 24.0" width="24.0" xmlns="http://www.w3.org/2000/svg" xmlns:ev="http://www.w3.org/2001/xml-events" xmlns:xlink="http://www.w3.org/1999/xlink"><defs /><path d="M4.4,18C4.26,18 4.19,18 4.136,17.973C4.089,17.949 4.051,17.91 4.027,17.864C4,17.81 4,17.74 4,17.6L4,6.4C4,6.26 4,6.19 4.027,6.136C4.051,6.089 4.089,6.051 4.136,6.027C4.19,6 4.26,6 4.4,6L19.6,6C19.74,6 19.81,6 19.864,6.027C19.91,6.051 19.949,6.089 19.973,6.136C20,6.19 20,6.26 20,6.4V17.6C20,17.74 20,17.81 19.973,17.864C19.949,17.91 19.91,17.949 19.864,17.973C19.81,18 19.74,18 19.6,18L4.4,18Z" fill="#ffffff" fill-opacity="1.0" /><path d="M11.996,8C12.41,8 12.746,7.664 12.746,7.25C12.746,6.836 12.41,6.5 11.996,6.5C11.582,6.5 11.246,6.836 11.246,7.25C11.246,7.664 11.582,8 11.996,8Z" fill="#ffffff" fill-opacity="1.0" /><path d="M10,17H14" fill="#ffffff" fill-opacity="0.0" /><path d="M4.08,20C3.352,20 2.988,20 2.71,19.858C2.465,19.734 2.266,19.535 2.142,19.29C2,19.012 2,18.648 2,17.92L2,6.08C2,5.352 2,4.988 2.142,4.71C2.266,4.465 2.465,4.266 2.71,4.142C2.988,4 3.352,4 4.08,4L19.92,4C20.648,4 21.012,4 21.29,4.142C21.535,4.266 21.734,4.465 21.858,4.71C22,4.988 22,5.352 22,6.08V17.92C22,18.648 22,19.012 21.858,19.29C21.734,19.535 21.535,19.734 21.29,19.858C21.012,20 20.648,20 19.92,20H4.08Z" fill="#ffffff" fill-opacity="0.0" /></svg>