<?xml version="1.0" encoding="utf-8" ?>
<svg baseProfile="full" height="24.0" version="1.1" viewBox="0 0 24.0 24.0" width="24.0" xmlns="http://www.w3.org/2000/svg" xmlns:ev="http://www.w3.org/2001/xml-events" xmlns:xlink="http://www.w3.org/1999/xlink"><defs /><path d="M18.59,2.583C19.115,2.058 20.09,2.181 20.767,2.858L21.144,3.235C21.821,3.912 21.944,4.886 21.419,5.411L7.095,19.736C6.924,19.906 6.722,20.044 6.495,20.144L5.949,20.386C5.873,20.419 5.785,20.403 5.726,20.344L3.657,18.276C3.599,18.217 3.582,18.129 3.616,18.053L3.857,17.507C3.958,17.28 4.096,17.078 4.266,16.907L18.59,2.583ZM9.541,14.461C9.287,14.207 8.876,14.207 8.622,14.461L6.005,17.077C5.752,17.331 5.752,17.743 6.005,17.996C6.259,18.25 6.671,18.25 6.925,17.996L9.541,15.38C9.795,15.126 9.795,14.715 9.541,14.461Z" fill="#000000" fill-opacity="1.0" /><path d="M4.921,20.954L3.044,19.076L2.4,20.993C2.312,21.262 2.74,21.69 3.009,21.602L4.921,20.954Z" fill="#000000" fill-opacity="1.0" /></svg>