<?xml version="1.0" encoding="utf-8" ?>
<svg baseProfile="full" height="24.0" version="1.1" viewBox="0 0 24.0 24.0" width="24.0" xmlns="http://www.w3.org/2000/svg" xmlns:ev="http://www.w3.org/2001/xml-events" xmlns:xlink="http://www.w3.org/1999/xlink"><defs /><path d="M1.301,4.3C1.301,3.195 2.196,2.3 3.301,2.3H20.701C21.805,2.3 22.701,3.195 22.701,4.3V15.2C22.701,16.304 21.805,17.2 20.701,17.2H14.284C14.347,17.634 14.436,18.037 14.564,18.383C14.74,18.858 14.962,19.148 15.222,19.3H16.812C17.199,19.3 17.512,19.613 17.512,20C17.512,20.386 17.199,20.7 16.812,20.7H7.19C6.803,20.7 6.49,20.386 6.49,20C6.49,19.613 6.803,19.3 7.19,19.3H8.78C9.041,19.148 9.262,18.858 9.438,18.383C9.566,18.038 9.654,17.634 9.718,17.2H3.301C2.196,17.2 1.301,16.304 1.301,15.2V4.3ZM10.516,15.8C10.505,15.8 10.494,15.8 10.483,15.8H3.301C2.969,15.8 2.701,15.531 2.701,15.2V4.3C2.701,3.968 2.969,3.7 3.301,3.7H20.701C21.032,3.7 21.301,3.968 21.301,4.3V15.2C21.301,15.531 21.032,15.8 20.701,15.8H13.518C13.507,15.8 13.496,15.8 13.485,15.8H10.516Z" fill="#000000" fill-opacity="1.0" /><path d="M4,5.4C4,5.26 4,5.19 4.027,5.136C4.051,5.089 4.089,5.051 4.136,5.027C4.19,5 4.26,5 4.4,5H19.6C19.74,5 19.81,5 19.864,5.027C19.91,5.051 19.949,5.089 19.973,5.136C20,5.19 20,5.26 20,5.4V14.1C20,14.24 20,14.31 19.973,14.363C19.949,14.41 19.91,14.449 19.864,14.473C19.81,14.5 19.74,14.5 19.6,14.5H4.4C4.26,14.5 4.19,14.5 4.136,14.473C4.089,14.449 4.051,14.41 4.027,14.363C4,14.31 4,14.24 4,14.1V5.4Z" fill="#000000" fill-opacity="1.0" /></svg>