<?xml version="1.0" encoding="utf-8" ?>
<svg baseProfile="full" height="405.0" version="1.1" viewBox="0 0 248.0 405.0" width="248.0" xmlns="http://www.w3.org/2000/svg" xmlns:ev="http://www.w3.org/2001/xml-events" xmlns:xlink="http://www.w3.org/1999/xlink"><defs /><path d="M37,7.5L211,7.5A29,29 0,0 1,240 36.5L240,374.5A29,29 0,0 1,211 403.5L37,403.5A29,29 0,0 1,8 374.5L8,36.5A29,29 0,0 1,37 7.5z" fill="#000000" fill-opacity="1.0" /><path d="M0.5,50C0.5,36.97 0.5,30.46 2.17,25.17C5.7,13.97 14.47,5.2 25.67,1.67C30.96,0 37.47,0 50.5,0H197.5C210.53,0 217.04,0 222.32,1.67C233.53,5.2 242.3,13.97 245.83,25.17C247.5,30.46 247.5,36.97 247.5,50V50H0.5V50Z" fill="#ff0800" fill-opacity="1.0" /><path d="M37,7.5L211,7.5A29,29 0,0 1,240 36.5L240,374.5A29,29 0,0 1,211 403.5L37,403.5A29,29 0,0 1,8 374.5L8,36.5A29,29 0,0 1,37 7.5z" fill="#000000" fill-opacity="0.0" /></svg>