<?xml version="1.0" encoding="utf-8" ?>
<svg baseProfile="full" height="24.0" version="1.1" viewBox="0 0 24.0 24.0" width="24.0" xmlns="http://www.w3.org/2000/svg" xmlns:ev="http://www.w3.org/2001/xml-events" xmlns:xlink="http://www.w3.org/1999/xlink"><defs /><path d="M1.322,11.876C1.322,5.982 6.105,1.199 12,1.199C17.894,1.199 22.677,5.982 22.677,11.876C22.677,13.73 22.406,15.792 21.619,17.569C21.528,17.776 21.349,17.916 21.145,17.966L21.107,18.398C20.954,20.155 19.383,21.438 17.642,21.285C16.99,21.228 16.489,20.653 16.547,19.985L17.07,14.01C17.128,13.342 17.722,12.863 18.374,12.92C19.558,13.023 20.549,13.767 21.014,14.785C21.198,13.829 21.277,12.836 21.277,11.876C21.277,6.755 17.121,2.599 12,2.599C6.878,2.599 2.722,6.755 2.722,11.876C2.722,12.841 2.801,13.839 2.988,14.799C3.45,13.774 4.445,13.024 5.634,12.92C6.286,12.863 6.88,13.342 6.938,14.01L7.461,19.985C7.52,20.653 7.018,21.228 6.366,21.285C4.625,21.438 3.055,20.155 2.901,18.398L2.864,17.968C2.656,17.921 2.473,17.779 2.38,17.569C1.593,15.792 1.322,13.73 1.322,11.876Z" fill="#ffffff" fill-opacity="1.0" /></svg>