<?xml version="1.0" encoding="utf-8" ?>
<svg baseProfile="full" height="17.0" version="1.1" viewBox="0 0 24.0 24.0" width="17.0" xmlns="http://www.w3.org/2000/svg" xmlns:ev="http://www.w3.org/2001/xml-events" xmlns:xlink="http://www.w3.org/1999/xlink"><defs /><path d="M12,2C8.13,2 5,5.13 5,9c0,5.25 7,13 7,13s7,-7.75 7,-13C19,5.13 15.87,2 12,2zM7,9c0,-2.76 2.24,-5 5,-5s5,2.24 5,5c0,2.88 -2.88,7.19 -5,9.88C9.92,16.21 7,11.85 7,9z" fill="#ffffff" fill-opacity="1.0" /><path d="M12,9m-2.5,0a2.5,2.5 0,1 1,5 0a2.5,2.5 0,1 1,-5 0" fill="#ffffff" fill-opacity="1.0" /></svg>