<?xml version="1.0" encoding="utf-8" ?>
<svg baseProfile="full" height="23.0" version="1.1" viewBox="0 0 22.0 23.0" width="22.0" xmlns="http://www.w3.org/2000/svg" xmlns:ev="http://www.w3.org/2001/xml-events" xmlns:xlink="http://www.w3.org/1999/xlink"><defs /><path d="M11.012,2.334C11.009,2.334 11.009,2.337 11.006,2.337C11.003,2.337 11,2.337 11,2.334H11.012Z" fill="#000000" fill-opacity="1.0" /><path d="M19.251,7.448V8.996C19.251,10.255 19.064,11.476 18.712,12.629C18.715,12.635 18.712,12.638 18.709,12.641C18.465,13.159 18.164,13.636 17.822,14.064C16.708,15.463 15.131,16.335 13.383,16.335C12.54,16.335 11.736,16.133 11.007,15.764C13.088,14.722 14.583,12.345 14.735,9.532C14.747,9.374 14.75,9.213 14.75,9.052C14.75,6.031 13.207,3.44 11.007,2.337C11.01,2.337 11.01,2.334 11.013,2.334C11.135,2.334 11.248,2.343 11.367,2.36C11.644,2.401 11.909,2.504 12.442,2.709L17.236,4.547C17.932,4.813 18.295,4.954 18.56,5.17C18.572,5.179 18.584,5.191 18.596,5.2C18.831,5.411 19.013,5.671 19.126,5.964C19.221,6.216 19.245,6.499 19.248,6.962C19.251,7.105 19.251,7.266 19.251,7.448Z" fill="#000000" fill-opacity="1.0" /><path d="M14.748,9.052C14.748,9.213 14.745,9.374 14.733,9.532C13.659,8.853 12.378,8.461 11.006,8.461C9.633,8.461 8.353,8.853 7.275,9.532C5.683,10.536 4.533,12.164 4.191,14.064C4.152,14.262 4.126,14.465 4.108,14.669C3.771,14.002 3.491,13.305 3.274,12.579V12.576C2.932,11.438 2.75,10.238 2.75,8.996V7.448C2.75,7.29 2.75,7.146 2.753,7.018C2.753,7.018 2.753,7.018 2.753,7.015C2.756,6.523 2.777,6.227 2.878,5.964C2.988,5.671 3.17,5.411 3.408,5.2C3.423,5.185 3.441,5.17 3.459,5.159C3.721,4.948 4.084,4.808 4.769,4.547L9.562,2.709C10.095,2.504 10.36,2.401 10.634,2.36C10.756,2.343 10.878,2.334 11,2.334C11,2.337 11.003,2.337 11.006,2.337C13.206,3.44 14.748,6.031 14.748,9.052Z" fill="#000000" fill-opacity="1.0" /><path d="M18.709,12.64C18.497,13.337 18.227,14.007 17.902,14.648C16.619,17.183 14.502,19.235 11.909,20.424C11.638,20.546 11.501,20.611 11.287,20.646C11.135,20.672 10.87,20.672 10.715,20.646C10.501,20.611 10.367,20.546 10.096,20.424C7.511,19.238 5.395,17.195 4.108,14.669C4.126,14.464 4.153,14.262 4.192,14.063C4.534,12.163 5.683,10.535 7.276,9.531C7.428,12.344 8.926,14.721 11.007,15.763C11.736,16.132 12.54,16.334 13.383,16.334C15.13,16.334 16.708,15.462 17.822,14.063C18.164,13.635 18.465,13.158 18.709,12.64Z" fill="#000000" fill-opacity="1.0" /></svg>