<?xml version="1.0" encoding="utf-8" ?>
<svg baseProfile="full" height="20.0" version="1.1" viewBox="0 0 20.0 20.0" width="20.0" xmlns="http://www.w3.org/2000/svg" xmlns:ev="http://www.w3.org/2001/xml-events" xmlns:xlink="http://www.w3.org/1999/xlink"><defs /><path d="M10,0.2381 C15.3913,0.2381,19.7619,4.60865,19.7619,10 C19.7619,15.3913,15.3913,19.7619,10,19.7619 C4.60865,19.7619,0.2381,15.3913,0.2381,10 C0.2381,4.60865,4.60865,0.2381,10,0.2381 Z" fill="#000000" fill-opacity="1.0" /><path d="M7.69341,4.64991 L7.69991,4.64991 L12.2999,4.64991 L12.3064,4.64991 C12.3353,4.64989,12.3749,4.64986,12.4105,4.65277 C12.453,4.65625,12.5196,4.66554,12.5906,4.70168 C12.6799,4.74722,12.7526,4.81989,12.7981,4.90926 C12.8343,4.9802,12.8436,5.04682,12.847,5.08931 C12.85,5.12495,12.8499,5.16453,12.8499,5.1934 L12.8499,5.19341 L12.8499,5.19991 L12.8499,5.64997 L7.14991,5.64997 L7.14991,5.19991 L7.14991,5.19341 L7.14991,5.19341 C7.14989,5.16454,7.14986,5.12495,7.15277,5.08931 C7.15625,5.04682,7.16554,4.9802,7.20168,4.90926 C7.24722,4.81989,7.31989,4.74722,7.40926,4.70168 C7.4802,4.66554,7.54682,4.65625,7.58931,4.65277 C7.62495,4.64986,7.66454,4.64989,7.69341,4.64991 L7.69341,4.64991 Z M7.14993,6.34997 C7.15039,6.47574,7.15412,6.5874,7.18019,6.69621 C7.20703,6.80825,7.25131,6.91538,7.31141,7.01367 C7.37976,7.12547,7.47256,7.2184,7.58092,7.32689 L7.60227,7.34829 L8.19853,7.94631 C8.32229,8.07044,8.34239,8.09377,8.35586,8.1158 C8.37225,8.14261,8.38433,8.17183,8.39165,8.20238 C8.39767,8.2275,8.39991,8.25821,8.39991,8.43349 L8.39991,14.4744 C8.39991,14.8524,8.6135,15.198,8.95162,15.3671 C9.61153,15.697,10.3883,15.697,11.0482,15.3671 C11.3863,15.198,11.5999,14.8524,11.5999,14.4744 L11.5999,8.43349 C11.5999,8.25821,11.6021,8.2275,11.6082,8.20238 C11.6155,8.17183,11.6276,8.14261,11.644,8.1158 C11.6574,8.09377,11.6775,8.07044,11.8013,7.94631 L12.3975,7.34828 L12.4189,7.32689 C12.5273,7.2184,12.6201,7.12547,12.6884,7.01367 C12.7485,6.91538,12.7928,6.80825,12.8196,6.69621 C12.8457,6.5874,12.8494,6.47574,12.8499,6.34997 L7.14993,6.34997 Z M9.29967,9.74997 C9.29967,9.36339,9.61306,9.05,9.99965,9.05 C10.3862,9.05,10.6996,9.36339,10.6996,9.74997 L10.6996,11.1 C10.6996,11.4866,10.3862,11.8,9.99965,11.8 C9.61306,11.8,9.29967,11.4866,9.29967,11.1 L9.29967,9.74997 Z M10.3499,10.4763 C10.3499,10.283,10.1932,10.1263,9.9999,10.1263 C9.8066,10.1263,9.6499,10.283,9.6499,10.4763 L9.6499,10.9763 C9.6499,11.1696,9.8066,11.3263,9.9999,11.3263 C10.1932,11.3263,10.3499,11.1696,10.3499,10.9763 L10.3499,10.4763 Z" fill="#ffffff" fill-opacity="1.0" /></svg>