<?xml version="1.0" encoding="utf-8" ?>
<svg baseProfile="full" height="34.0" version="1.1" viewBox="0 0 34.0 34.0" width="34.0" xmlns="http://www.w3.org/2000/svg" xmlns:ev="http://www.w3.org/2001/xml-events" xmlns:xlink="http://www.w3.org/1999/xlink"><defs /><path d="M22.226,8.294C22.7017,8.2995 23.1384,8.6803 23.1384,9.2162V25.2105C23.1384,25.7026 22.7711,26.0623 22.3444,26.1235C22.2947,26.1307 22.2443,26.1337 22.1936,26.1325C22.0312,26.1287 21.8655,26.0808 21.7124,25.9803L12.2167,19.7487L10.6013,18.6886V25.0265C10.6013,25.535 10.189,25.9473 9.6805,25.9473C9.172,25.9473 8.7598,25.535 8.7598,25.0265V9.4432C8.7598,8.9347 9.172,8.5225 9.6805,8.5225C10.189,8.5225 10.6013,8.9347 10.6013,9.4432V15.3905L21.7296,8.4354C21.8829,8.3395 22.0476,8.2952 22.2085,8.294C22.2143,8.2939 22.2201,8.2939 22.226,8.294Z" fill="#000000" fill-opacity="1.0" /></svg>