<?xml version="1.0" encoding="utf-8" ?>
<svg baseProfile="full" height="24.0" version="1.1" viewBox="0 0 24.0 24.0" width="24.0" xmlns="http://www.w3.org/2000/svg" xmlns:ev="http://www.w3.org/2001/xml-events" xmlns:xlink="http://www.w3.org/1999/xlink"><defs /><path d="M 16.301 4.012 L 18.126 4.012 L 18.126 2.412 L 5.876 2.412 L 5.876 4.012 L 7.701 4.012 L 7.701 10.566 C 7.419 10.709 7.049 10.928 6.677 11.238 C 5.897 11.888 5.076 12.97 5.076 14.587 L 5.076 15.387 L 11.201 15.387 L 11.201 21.587 L 12.801 21.587 L 12.801 15.387 L 18.926 15.387 L 18.926 14.587 C 18.926 12.97 18.105 11.888 17.326 11.238 C 16.953 10.928 16.584 10.709 16.301 10.566 L 16.301 4.012 Z M 14.701 4.012 L 9.301 4.012 L 9.301 11.664 L 8.758 11.845 L 8.758 11.845 L 8.758 11.845 L 8.757 11.845 L 8.747 11.849 C 8.736 11.853 8.716 11.86 8.689 11.871 C 8.634 11.893 8.551 11.929 8.449 11.98 C 8.243 12.083 7.97 12.243 7.701 12.467 C 7.324 12.781 6.967 13.208 6.791 13.787 L 17.211 13.787 C 17.035 13.208 16.679 12.781 16.302 12.467 C 16.032 12.243 15.759 12.083 15.554 11.98 C 15.451 11.929 15.368 11.893 15.314 11.871 C 15.287 11.86 15.267 11.853 15.255 11.849 L 15.245 11.845 L 15.245 11.845 L 15.245 11.845 L 15.244 11.845 L 14.701 11.664 L 14.701 4.012 Z" fill="#ffffff" fill-opacity="1.0" /></svg>