<?xml version="1.0" encoding="utf-8" ?>
<svg baseProfile="full" height="35.0" version="1.1" viewBox="0 0 34.0 35.0" width="34.0" xmlns="http://www.w3.org/2000/svg" xmlns:ev="http://www.w3.org/2001/xml-events" xmlns:xlink="http://www.w3.org/1999/xlink"><defs /><path d="M14.08 9.11c-0.91-0.21-1.87-0.18-2.77 0.08-0.9 0.27-1.73 0.76-2.38 1.44-0.66 0.68-1.13 1.5-1.37 2.42-0.24 0.91-0.24 1.87 0 2.78 0.2 0.8 0.6 1.53 1.13 2.15l6.96 8.3c0.16 0.2 0.37 0.35 0.6 0.46 0.24 0.11 0.5 0.17 0.75 0.17 0.26 0 0.51-0.06 0.75-0.17 0.23-0.1 0.44-0.27 0.6-0.46l6.96-8.3c0.54-0.62 0.93-1.36 1.14-2.15 0.2-0.8 0.23-1.63 0.07-2.43l-0.43 0.08 0.43-0.08c-0.22-1.1-0.77-2.1-1.58-2.89-0.8-0.77-1.83-1.29-2.93-1.47-0.84-0.13-1.69-0.07-2.5 0.18-0.8 0.25-1.53 0.68-2.14 1.26-0.1 0.1-0.23 0.15-0.37 0.15-0.14 0-0.27-0.05-0.37-0.15-0.71-0.67-1.6-1.15-2.55-1.37Z" fill="#ffffff" fill-opacity="1.0" /></svg>