<?xml version="1.0" encoding="utf-8" ?>
<svg baseProfile="full" height="35.0" version="1.1" viewBox="0 0 34.0 35.0" width="34.0" xmlns="http://www.w3.org/2000/svg" xmlns:ev="http://www.w3.org/2001/xml-events" xmlns:xlink="http://www.w3.org/1999/xlink"><defs /><path d="M11.42 9.14c1.01-0.32 2.1-0.37 3.15-0.13 1.04 0.24 2 0.76 2.77 1.5l0.07 0.02c0.03 0 0.05 0 0.07-0.03 0.66-0.63 1.46-1.1 2.34-1.37 0.87-0.27 1.8-0.34 2.7-0.2 1.21 0.2 2.33 0.76 3.2 1.61 0.89 0.85 1.49 1.94 1.73 3.14 0.17 0.88 0.14 1.79-0.09 2.65-0.23 0.87-0.65 1.67-1.23 2.34l-7.02 8.37c-0.2 0.25-0.47 0.45-0.76 0.59-0.3 0.13-0.62 0.2-0.94 0.2-0.33 0-0.65-0.07-0.94-0.2-0.3-0.14-0.55-0.34-0.76-0.59l-7.02-8.37c-0.59-0.67-1-1.47-1.24-2.34-0.22-0.86-0.25-1.77-0.08-2.65 0.2-1.05 0.69-2.02 1.4-2.82 0.71-0.8 1.63-1.4 2.65-1.72Zm2.75 1.6c-0.74-0.18-1.5-0.15-2.22 0.08-0.72 0.23-1.36 0.65-1.86 1.21-0.5 0.56-0.84 1.25-0.99 2-0.12 0.6-0.1 1.24 0.06 1.85 0.16 0.6 0.46 1.17 0.87 1.65l7.03 8.38c0.04 0.05 0.1 0.09 0.16 0.12 0.06 0.02 0.12 0.04 0.19 0.04s0.13-0.02 0.2-0.04l0.15-0.12 7.03-8.38c0.4-0.48 0.7-1.04 0.87-1.65 0.16-0.6 0.18-1.24 0.06-1.85-0.17-0.85-0.6-1.62-1.22-2.22-0.62-0.6-1.4-1-2.25-1.13-0.64-0.1-1.3-0.06-1.9 0.14-0.62 0.19-1.19 0.52-1.65 0.97h-0.01c-0.35 0.33-0.8 0.5-1.28 0.5s-0.93-0.17-1.28-0.5c-0.55-0.52-1.23-0.89-1.96-1.06Z" fill="#ffffff" fill-opacity="1.0" /></svg>