<?xml version="1.0" encoding="utf-8" ?>
<svg baseProfile="full" height="24.0" version="1.1" viewBox="0 0 24.0 24.0" width="24.0" xmlns="http://www.w3.org/2000/svg" xmlns:ev="http://www.w3.org/2001/xml-events" xmlns:xlink="http://www.w3.org/1999/xlink"><defs /><path d="M2 7.2l2 2.4L2 12l2 2.4-2 2.4" fill="#000000" fill-opacity="1.0" /><path d="M8.78 1.3H8.75c-0.34 0-0.64 0-0.88 0.02C7.6 1.34 7.35 1.4 7.09 1.52c-0.37 0.2-0.68 0.5-0.87 0.87-0.13 0.26-0.18 0.52-0.2 0.78C6 3.42 6 3.71 6 4.05v0.03 15.84 0.03c0 0.34 0 0.64 0.02 0.88 0.02 0.26 0.07 0.52 0.2 0.78 0.19 0.38 0.5 0.68 0.87 0.87 0.26 0.13 0.52 0.18 0.78 0.2C8.1 22.7 8.4 22.7 8.75 22.7h0.03 6.84 0.03c0.34 0 0.64 0 0.88-0.02 0.26-0.02 0.52-0.07 0.78-0.2 0.37-0.19 0.68-0.5 0.87-0.87 0.13-0.26 0.18-0.52 0.2-0.78 0.02-0.24 0.02-0.54 0.02-0.88v-0.03V4.08 4.05c0-0.34 0-0.63-0.02-0.88-0.02-0.26-0.07-0.52-0.2-0.78-0.19-0.37-0.5-0.68-0.87-0.87-0.26-0.13-0.52-0.18-0.78-0.2C16.3 1.3 16 1.3 15.65 1.3h-0.03-6.84Zm3.97 2.95C12.75 4.67 12.4 5 12 5c-0.42 0-0.75-0.33-0.75-0.75 0-0.41 0.33-0.75 0.75-0.75 0.41 0 0.75 0.34 0.75 0.75ZM9.5 20c0-0.28 0.22-0.5 0.5-0.5h4c0.28 0 0.5 0.22 0.5 0.5s-0.22 0.5-0.5 0.5h-4c-0.28 0-0.5-0.22-0.5-0.5Z" fill="#000000" fill-opacity="0.9019607843137255" /><path d="M22 16.8l-2-2.4 2-2.4-2-2.4 2-2.4" fill="#000000" fill-opacity="1.0" /></svg>