<?xml version="1.0" encoding="utf-8" ?>
<svg baseProfile="full" height="24.0" version="1.1" viewBox="0 0 24.0 24.0" width="24.0" xmlns="http://www.w3.org/2000/svg" xmlns:ev="http://www.w3.org/2001/xml-events" xmlns:xlink="http://www.w3.org/1999/xlink"><defs /><path d="M12.685,9.66C12.937,9.654 13.145,9.711 13.319,9.821L13.329,9.827C13.432,9.887 13.51,9.965 13.568,10.066C13.622,10.183 13.656,10.342 13.656,10.552C13.656,10.775 13.584,10.979 13.426,11.172C13.287,11.337 13.068,11.443 12.717,11.449H11.362V9.66L12.679,9.66L12.685,9.66ZM12.618,8.012H9.654V15.972H11.362V13.096L12.764,13.096L12.77,13.096C13.591,13.082 14.257,12.816 14.719,12.264C15.144,11.767 15.365,11.204 15.365,10.582C15.365,10.143 15.283,9.746 15.107,9.4C14.946,9.061 14.73,8.785 14.453,8.587C14.155,8.352 13.848,8.185 13.532,8.102L13.515,8.099C13.225,8.041 12.926,8.012 12.618,8.012Z" fill="#ffffff" fill-opacity="1.0" /><path d="M20.861,13.05L17.652,8.012L16.455,8.012V15.972H18.163V11.499L21.026,16L22.569,15.965V8.012H20.861V13.05Z" fill="#ffffff" fill-opacity="1.0" /><path d="M3.812,8H2L4.626,15.96H5.923L8.554,8H6.742L5.275,12.906L3.812,8Z" fill="#ffffff" fill-opacity="1.0" /></svg>