<?xml version="1.0" encoding="utf-8" ?>
<svg baseProfile="full" height="40.0" version="1.1" viewBox="0 0 40.0 40.0" width="40.0" xmlns="http://www.w3.org/2000/svg" xmlns:ev="http://www.w3.org/2001/xml-events" xmlns:xlink="http://www.w3.org/1999/xlink"><defs /><path d="M6,6L19,6A2,2 0,0 1,21 8L21,17A2,2 0,0 1,19 19L6,19A2,2 0,0 1,4 17L4,8A2,2 0,0 1,6 6z" fill="#ffffff" fill-opacity="1.0" /><path d="M6,21L19,21A2,2 0,0 1,21 23L21,32A2,2 0,0 1,19 34L6,34A2,2 0,0 1,4 32L4,23A2,2 0,0 1,6 21z" fill="#ffffff" fill-opacity="1.0" /><path d="M25,6L34,6A2,2 0,0 1,36 8L36,32A2,2 0,0 1,34 34L25,34A2,2 0,0 1,23 32L23,8A2,2 0,0 1,25 6z" fill="#ffffff" fill-opacity="1.0" /></svg>