<?xml version="1.0" encoding="utf-8" ?>
<svg baseProfile="full" height="20.0" version="1.1" viewBox="0 0 20.0 20.0" width="20.0" xmlns="http://www.w3.org/2000/svg" xmlns:ev="http://www.w3.org/2001/xml-events" xmlns:xlink="http://www.w3.org/1999/xlink"><defs /><path d="M12.44 8.06V4.92h3.14v3.14h-3.14zm-0.03-4.47c-0.34 0-0.67 0.14-0.92 0.38c-0.24 0.25-0.38 0.58-0.38 0.93v3.82v0.67h0.67h3.82c0.35 0 0.68-0.14 0.93-0.38c0.24-0.25 0.38-0.58 0.38-0.92v-3.2c0-0.34-0.14-0.67-0.38-0.92c-0.25-0.24-0.58-0.38-0.93-0.38h-3.19zM5.42 8.06V4.92h3.14v3.14H5.42zM5.4 3.59c-0.35 0-0.68 0.14-0.93 0.38C4.23 4.22 4.1 4.55 4.1 4.9v3.19C4.1 8.43 4.23 8.76 4.47 9C4.72 9.25 5.05 9.39 5.4 9.39h3.82h0.67V8.72V4.9c0-0.35-0.14-0.68-0.38-0.93C9.26 3.73 8.93 3.6 8.59 3.6h-3.2zm7.04 11.48v-3.13h3.14v3.13h-3.14zm-0.95 0.95c0.25 0.25 0.58 0.38 0.92 0.38h3.2c0.34 0 0.67-0.13 0.92-0.38c0.24-0.24 0.38-0.58 0.38-0.92v-3.2c0-0.34-0.14-0.67-0.38-0.91c-0.25-0.25-0.58-0.39-0.93-0.39h-3.82h-0.67v0.67v3.83c0 0.34 0.14 0.68 0.38 0.92zm-6.07-0.94v-3.14h3.14v3.14H5.42zM5.4 10.6c-0.35 0-0.68 0.14-0.93 0.38c-0.24 0.25-0.38 0.58-0.38 0.92v3.2c0 0.34 0.14 0.67 0.38 0.92c0.25 0.24 0.58 0.38 0.93 0.38h3.19c0.34 0 0.67-0.14 0.92-0.38c0.24-0.25 0.38-0.58 0.38-0.93v-3.82v-0.67H9.22H5.4z" fill="#000000" fill-opacity="0.8509803921568627" /></svg>