<?xml version="1.0" encoding="utf-8" ?>
<svg baseProfile="full" height="48.0" version="1.1" viewBox="0 0 48.0 48.0" width="48.0" xmlns="http://www.w3.org/2000/svg" xmlns:ev="http://www.w3.org/2001/xml-events" xmlns:xlink="http://www.w3.org/1999/xlink"><defs /><path d="M7.20078,7.20117 L18.0008,7.20117 Q20.4008,7.20117,20.4008,9.60117 L20.4008,38.4012 Q20.4008,40.8012,18.0008,40.8012 L7.20078,40.8012 Q4.80078,40.8012,4.80078,38.4012 L4.80078,9.60117 Q4.80078,7.20117,7.20078,7.20117 Z" fill="#ffffff" fill-opacity="1.0" /><path d="M25.2008,7.20117 L40.8008,7.20117 Q43.2008,7.20117,43.2008,9.60117 L43.2008,20.4012 Q43.2008,22.8012,40.8008,22.8012 L25.2008,22.8012 Q22.8008,22.8012,22.8008,20.4012 L22.8008,9.60117 Q22.8008,7.20117,25.2008,7.20117 Z" fill="#ffffff" fill-opacity="1.0" /><path d="M22.8008,36.6012 L22.8008,38.4012 C22.8008,39.7267,23.8753,40.8012,25.2008,40.8012 L27.8008,40.8012 L27.8008,39.8412 L25.2008,39.8412 C24.4055,39.8412,23.7608,39.1965,23.7608,38.4012 L23.7608,36.6012 L22.8008,36.6012 Z M22.8008,34.8012 L23.7608,34.8012 L23.7608,31.2012 L22.8008,31.2012 L22.8008,34.8012 Z M22.8008,29.4012 L23.7608,29.4012 L23.7608,27.6012 C23.7608,26.8059,24.4055,26.1612,25.2008,26.1612 L27.8008,26.1612 L27.8008,25.2012 L25.2008,25.2012 C23.8753,25.2012,22.8008,26.2757,22.8008,27.6012 L22.8008,29.4012 Z M30.4008,25.2012 L30.4008,26.1612 L35.6008,26.1612 L35.6008,25.2012 L30.4008,25.2012 Z M38.2008,25.2012 L38.2008,26.1612 L40.8008,26.1612 C41.5961,26.1612,42.2408,26.8059,42.2408,27.6012 L42.2408,29.4012 L43.2008,29.4012 L43.2008,27.6012 C43.2008,26.2757,42.1263,25.2012,40.8008,25.2012 L38.2008,25.2012 Z M43.2008,31.2012 L42.2408,31.2012 L42.2408,34.8012 L43.2008,34.8012 L43.2008,31.2012 Z M43.2008,36.6012 L42.2408,36.6012 L42.2408,38.4012 C42.2408,39.1965,41.5961,39.8412,40.8008,39.8412 L38.2008,39.8412 L38.2008,40.8012 L40.8008,40.8012 C42.1263,40.8012,43.2008,39.7267,43.2008,38.4012 L43.2008,36.6012 Z M35.6008,40.8012 L35.6008,39.8412 L30.4008,39.8412 L30.4008,40.8012 L35.6008,40.8012 Z" fill="#ffffff" fill-opacity="1.0" /></svg>