<?xml version="1.0" encoding="utf-8" ?>
<svg baseProfile="full" height="48.0" version="1.1" viewBox="0 0 48.0 48.0" width="48.0" xmlns="http://www.w3.org/2000/svg" xmlns:ev="http://www.w3.org/2001/xml-events" xmlns:xlink="http://www.w3.org/1999/xlink"><defs /><path d="M7.20078,7.20117 L18.0008,7.20117 Q20.4008,7.20117,20.4008,9.60117 L20.4008,38.4012 Q20.4008,40.8012,18.0008,40.8012 L7.20078,40.8012 Q4.80078,40.8012,4.80078,38.4012 L4.80078,9.60117 Q4.80078,7.20117,7.20078,7.20117 Z" fill="#ffffff" fill-opacity="1.0" /><path d="M25.2008,7.20117 L40.8008,7.20117 Q43.2008,7.20117,43.2008,9.60117 L43.2008,20.4012 Q43.2008,22.8012,40.8008,22.8012 L25.2008,22.8012 Q22.8008,22.8012,22.8008,20.4012 L22.8008,9.60117 Q22.8008,7.20117,25.2008,7.20117 Z" fill="#ffffff" fill-opacity="1.0" /><path d="M25.2008,25.2012 L40.8008,25.2012 Q43.2008,25.2012,43.2008,27.6012 L43.2008,38.4012 Q43.2008,40.8012,40.8008,40.8012 L25.2008,40.8012 Q22.8008,40.8012,22.8008,38.4012 L22.8008,27.6012 Q22.8008,25.2012,25.2008,25.2012 Z" fill="#ffffff" fill-opacity="1.0" /></svg>