<?xml version="1.0" encoding="utf-8" ?>
<svg baseProfile="full" height="40.0" version="1.1" viewBox="0 0 40.0 40.0" width="40.0" xmlns="http://www.w3.org/2000/svg" xmlns:ev="http://www.w3.org/2001/xml-events" xmlns:xlink="http://www.w3.org/1999/xlink"><defs /><path d="M8,4L17,4A2,2 0,0 1,19 6L19,20A2,2 0,0 1,17 22L8,22A2,2 0,0 1,6 20L6,6A2,2 0,0 1,8 4z" fill="#ffffff" fill-opacity="1.0" /><path d="M23,4L32,4A2,2 0,0 1,34 6L34,20A2,2 0,0 1,32 22L23,22A2,2 0,0 1,21 20L21,6A2,2 0,0 1,23 4z" fill="#ffffff" fill-opacity="1.0" /><path d="M8,24L32,24A2,2 0,0 1,34 26L34,34A2,2 0,0 1,32 36L8,36A2,2 0,0 1,6 34L6,26A2,2 0,0 1,8 24z" fill="#ffffff" fill-opacity="1.0" /></svg>