<?xml version="1.0" encoding="utf-8" ?>
<svg baseProfile="full" height="40.0" version="1.1" viewBox="0 0 40.0 40.0" width="40.0" xmlns="http://www.w3.org/2000/svg" xmlns:ev="http://www.w3.org/2001/xml-events" xmlns:xlink="http://www.w3.org/1999/xlink"><defs /><path d="M8,0L32,0A2,2 0,0 1,34 2L34,10A2,2 0,0 1,32 12L8,12A2,2 0,0 1,6 10L6,2A2,2 0,0 1,8 0z" fill="#ffffff" fill-opacity="1.0" /><path d="M8,14L32,14A2,2 0,0 1,34 16L34,24A2,2 0,0 1,32 26L8,26A2,2 0,0 1,6 24L6,16A2,2 0,0 1,8 14z" fill="#ffffff" fill-opacity="1.0" /><path d="M8,28L32,28A2,2 0,0 1,34 30L34,38A2,2 0,0 1,32 40L8,40A2,2 0,0 1,6 38L6,30A2,2 0,0 1,8 28z" fill="#ffffff" fill-opacity="1.0" /></svg>