<?xml version="1.0" encoding="utf-8" ?>
<svg baseProfile="full" height="120.0" version="1.1" viewBox="0 0 168.0 120.0" width="168.0" xmlns="http://www.w3.org/2000/svg" xmlns:ev="http://www.w3.org/2001/xml-events" xmlns:xlink="http://www.w3.org/1999/xlink"><defs /><path d="M70.113,20.913C61.264,20.913 54.09,13.738 54.09,4.89C54.09,4.31 54.12,3.742 54.179,3.18H50.233V24.811H71.864V20.811C71.29,20.877 70.704,20.913 70.113,20.913Z" fill="#43484c" fill-opacity="1.0" /><path d="M126.266,30.066H93.395V48.415H126.266V30.066Z" fill="#707880" fill-opacity="1.0" /><path d="M57.031,30.506H35.4V52.137H57.031V30.506Z" fill="#707880" fill-opacity="1.0" /><path d="M115.682,53.266H103.169V63.737L115.682,53.266Z" fill="#43484c" fill-opacity="1.0" /><path d="M75.965,29.982L67.302,40.284L69.759,43.698L79.296,34.819L75.965,29.982Z" fill="#b56c5e" fill-opacity="1.0" /><path d="M98.057,37.456L99.402,25.982L102.313,26.03L102.23,37.318L98.057,37.456Z" fill="#b56c5e" fill-opacity="1.0" /><path d="M102.112,37.891C102.498,36.809 101.955,35.626 100.897,35.248C99.84,34.87 98.67,35.441 98.283,36.523C97.896,37.605 98.44,38.789 99.497,39.166C100.554,39.544 101.725,38.973 102.112,37.891Z" fill="#b56c5e" fill-opacity="1.0" /><path d="M99.797,39.238L84.132,35.184L84.688,32.273C85.029,30.509 86.895,29.499 88.557,30.174L100.897,35.214L99.797,39.238Z" fill="#b56c5e" fill-opacity="1.0" /><path d="M102.093,18.025C101.812,18.193 101.656,18.51 101.704,18.838L102.003,21.08L101.154,23.137C101.04,23.418 100.759,23.597 100.454,23.58L100.269,23.574C99.755,23.747 99.313,23.837 98.87,23.885L99.504,26.928L102.117,26.976L102.924,24.183C103.031,23.819 103.079,23.442 103.073,23.059L103.037,20.931L102.093,18.025Z" fill="#b56c5e" fill-opacity="1.0" /><path d="M79.109,33.165L83.862,33.165L83.862,24.49L79.109,24.49L79.109,33.165Z" fill="#b56c5e" fill-opacity="1.0" /><path d="M71.493,101.087V102.055C71.493,103.622 71.882,105.164 72.617,106.551C72.868,107.018 72.527,107.58 72.001,107.58H67.254C66.65,107.58 66.166,107.072 66.202,106.468C66.244,105.75 66.346,104.794 66.573,103.975C67.009,102.408 67.912,101.093 67.912,101.093H71.493V101.087Z" fill="#40414e" fill-opacity="1.0" /><path d="M88.892,100.604C89.137,102.397 90.201,103.975 91.767,104.878L93.304,105.763C93.513,105.942 93.633,106.206 93.633,106.481C93.633,107.001 93.214,107.425 92.694,107.431C91.271,107.449 88.73,107.467 88.682,107.419C88.617,107.353 86.398,105.165 86.398,105.165V107.575H84.222V100.807L88.892,100.604Z" fill="#40414e" fill-opacity="1.0" /><path d="M81.215,51.739C84.309,51.739 86.817,49.239 86.817,46.155C86.817,43.071 84.309,40.571 81.215,40.571C78.121,40.571 75.613,43.071 75.613,46.155C75.613,49.239 78.121,51.739 81.215,51.739Z" fill="#292b33" fill-opacity="1.0" /><path d="M75.643,30.407L75.613,46.155H86.817L87.247,29.982L75.643,30.407Z" fill="#fa6a35" fill-opacity="1.0" /><path d="M70.955,53.527C71.248,51.058 72.438,48.78 74.297,47.13L75.613,46.06L82.405,46.155L77.723,78.924C74.423,78.924 71.183,78.919 67.936,78.835L70.955,53.527Z" fill="#353742" fill-opacity="1.0" /><path d="M67.936,78.84C71.182,78.924 74.423,78.929 77.723,78.929L74.704,100.064C74.62,100.65 74.118,101.087 73.526,101.087H66.62C65.903,101.087 65.353,100.465 65.437,99.753L67.936,78.84Z" fill="#353742" fill-opacity="1.0" /><path d="M79.355,46.155H86.817L87.534,47.399C89.173,50.245 90.051,53.467 90.075,56.75L90.237,78.948C87.182,79.074 83.559,78.913 80.551,78.924L79.355,46.155Z" fill="#353742" fill-opacity="1.0" /><path d="M72.869,83.527C75.543,83.527 77.711,81.359 77.711,78.685C77.711,76.01 75.543,73.842 72.869,73.842C70.194,73.842 68.026,76.01 68.026,78.685C68.026,81.359 70.194,83.527 72.869,83.527Z" fill="#353742" fill-opacity="1.0" /><path d="M85.388,83.527C88.062,83.527 90.23,81.359 90.23,78.685C90.23,76.01 88.062,73.842 85.388,73.842C82.713,73.842 80.545,76.01 80.545,78.685C80.545,81.359 82.713,83.527 85.388,83.527Z" fill="#353742" fill-opacity="1.0" /><path d="M90.23,78.948V99.67C90.23,100.19 89.824,100.615 89.304,100.638L82.685,100.919C82.153,100.943 81.705,100.531 81.675,100.005L80.545,78.924L90.23,78.948Z" fill="#353742" fill-opacity="1.0" /><path d="M83.666,23.256C84.796,23.256 85.711,22.341 85.711,21.212C85.711,20.082 84.796,19.167 83.666,19.167C82.537,19.167 81.622,20.082 81.622,21.212C81.622,22.341 82.537,23.256 83.666,23.256Z" fill="#373a46" fill-opacity="1.0" /><path d="M83.791,23.998L81.884,23.531" fill="#000000" fill-opacity="0.0" /><path d="M80.94,25.206C81.544,25.206 82.034,24.716 82.034,24.112C82.034,23.507 81.544,23.018 80.94,23.018C80.336,23.018 79.846,23.507 79.846,24.112C79.846,24.716 80.336,25.206 80.94,25.206Z" fill="#b56c5e" fill-opacity="1.0" /><path d="M80.39,26.455C80.846,26.455 81.215,26.085 81.215,25.63C81.215,25.174 80.846,24.805 80.39,24.805C79.934,24.805 79.565,25.174 79.565,25.63C79.565,26.085 79.934,26.455 80.39,26.455Z" fill="#ffc013" fill-opacity="1.0" /><path d="M81.107,27.501C83.435,27.501 85.322,25.614 85.322,23.286C85.322,20.958 83.435,19.071 81.107,19.071C78.779,19.071 76.892,20.958 76.892,23.286C76.892,25.614 78.779,27.501 81.107,27.501Z" fill="#373a47" fill-opacity="1.0" /><path d="M79.326,35.92C82.618,35.92 85.286,33.251 85.286,29.959C85.286,26.667 82.618,23.998 79.326,23.998C76.034,23.998 73.365,26.667 73.365,29.959C73.365,33.251 76.034,35.92 79.326,35.92Z" fill="#373a47" fill-opacity="1.0" /><path d="M69.054,42.46L71.882,28.792L73.066,26.634L73.442,23.932H73.383C73.06,23.932 72.779,24.135 72.671,24.434L72.283,25.516L71.756,25.558L70.674,21.397C70.608,21.152 70.375,20.99 70.124,21.02L69.311,21.116C69.036,21.146 68.839,21.391 68.863,21.666L69.168,24.9L68.396,22.784L68.05,23.047L69.192,27.214L65.024,40.738L69.054,42.46Z" fill="#b56c5e" fill-opacity="1.0" /><path d="M67.882,44.368C69.504,44.368 70.818,43.054 70.818,41.433C70.818,39.811 69.504,38.497 67.882,38.497C66.261,38.497 64.947,39.811 64.947,41.433C64.947,43.054 66.261,44.368 67.882,44.368Z" fill="#b56c5e" fill-opacity="1.0" /><path d="M70.92,32.266C71.774,32.218 72.414,31.889 72.581,31.339C72.743,30.795 72.438,30.191 71.703,29.659L71.595,30.167C72.139,30.556 72.217,30.873 72.121,31.202C71.972,31.716 70.824,32.003 69.413,31.59C68.008,31.178 67.195,30.311 67.35,29.797C67.452,29.456 67.858,29.241 68.564,29.217L68.719,28.721C67.787,28.757 67.045,29.103 66.884,29.659C66.627,30.532 67.679,31.584 69.275,32.057C69.855,32.23 70.423,32.296 70.92,32.266Z" fill="#ffc013" fill-opacity="1.0" /><path d="M96.963,24.393C102.005,24.393 106.092,20.305 106.092,15.263C106.092,10.221 102.005,6.134 96.963,6.134C91.92,6.134 87.833,10.221 87.833,15.263C87.833,20.305 91.92,24.393 96.963,24.393Z" fill="#707880" fill-opacity="1.0" /><path d="M100.293,23.812C99.994,23.8 99.737,23.603 99.641,23.322L99.318,22.383C99.246,22.18 99.025,22.078 98.828,22.15C98.655,22.216 98.553,22.401 98.589,22.58L98.936,24.26C99.384,24.212 99.796,23.985 100.311,23.812H100.293Z" fill="#b56c5e" fill-opacity="1.0" /></svg>