<?xml version="1.0" encoding="utf-8" ?>
<svg baseProfile="full" height="120.0" version="1.1" viewBox="0 0 168.0 120.0" width="168.0" xmlns="http://www.w3.org/2000/svg" xmlns:ev="http://www.w3.org/2001/xml-events" xmlns:xlink="http://www.w3.org/1999/xlink"><defs /><path d="M69.459,20.338H49.555L39.6,37.579L49.555,54.821H69.459L79.413,37.579L69.459,20.338Z" fill="#e6eaef" fill-opacity="1.0" /><path d="M128.507,46.315H99.047V75.775H128.507V46.315Z" fill="#e6eaef" fill-opacity="1.0" /><path d="M52.875,37.385H66.138" fill="#000000" fill-opacity="0.0" /><path d="M107.078,60.124H120.342" fill="#000000" fill-opacity="0.0" /><path d="M102.755,41.599C111.923,41.599 119.355,34.167 119.355,24.999C119.355,15.832 111.923,8.399 102.755,8.399C93.587,8.399 86.155,15.832 86.155,24.999C86.155,34.167 93.587,41.599 102.755,41.599Z" fill="#e6eaef" fill-opacity="1.0" /><path d="M85.929,35.526C85.271,35.526 84.738,34.739 84.738,33.774C84.738,32.809 85.271,32.022 85.929,32.022C86.586,32.022 87.12,32.809 87.12,33.774C87.12,34.755 86.597,35.526 85.929,35.526ZM85.929,32.308C85.438,32.308 85.018,32.982 85.018,33.774C85.018,34.572 85.433,35.24 85.929,35.24C86.425,35.24 86.834,34.566 86.834,33.774C86.84,32.976 86.425,32.308 85.929,32.308Z" fill="#24252b" fill-opacity="1.0" /><path d="M96.127,25H109.39" fill="#000000" fill-opacity="0.0" /><path d="M80.68,28.725C83.364,28.725 85.547,30.902 85.547,33.591C85.547,33.764 85.536,33.936 85.52,34.103L86.204,35.672C86.263,35.812 86.247,35.979 86.156,36.103L85.881,36.475L85.886,38.841C85.87,39.52 85.288,40.043 84.614,39.984L81.203,39.687C81.035,39.703 81.375,39.687 81.203,39.687C78.519,39.687 75.824,36.281 75.824,33.597C75.824,30.913 77.99,28.725 80.68,28.725Z" fill="#b56c5e" fill-opacity="1.0" /><path d="M78.109,47.599C79.963,48.035 81.817,46.893 82.254,45.039L83.811,38.458L77.274,36.173L75.549,43.454C75.112,45.303 76.255,47.162 78.109,47.599Z" fill="#b56c5e" fill-opacity="1.0" /><path d="M84.425,30.298C83.816,29.317 82.739,28.713 81.585,28.708C80.89,28.703 80.243,28.708 80.124,28.724C77.888,29.042 78.642,30.891 78.314,33.128C78.071,34.771 78.61,36.291 79.607,37.385L81.272,35.72H82.911H83.983L83.951,34.453C83.946,34.222 84.048,34.001 84.231,33.861C84.458,33.683 84.56,33.386 84.49,33.101L83.725,30.729L84.851,30.983L84.425,30.298Z" fill="#ffc013" fill-opacity="1.0" /><path d="M75.511,33.866C75.511,31.026 77.753,28.725 80.518,28.725C83.283,28.725 85.077,31.048 85.077,33.888C85.077,36.728 83.283,39.013 80.518,39.013C77.753,39.013 75.511,36.707 75.511,33.866Z" fill="#ffc013" fill-opacity="1.0" /><path d="M83.816,41.007H74.508V42.882H83.816V41.007Z" fill="#2d41ea" fill-opacity="1.0" /><path d="M79.338,81.402C84.916,81.402 89.438,76.88 89.438,71.302C89.438,65.724 84.916,61.202 79.338,61.202C73.76,61.202 69.238,65.724 69.238,71.302C69.238,76.88 73.76,81.402 79.338,81.402Z" fill="#24252b" fill-opacity="1.0" /><path d="M83.04,71.744L68.957,71.669L63.05,108C67.755,108 72.401,108 77.057,108L83.04,71.744Z" fill="#24252b" fill-opacity="1.0" /><path d="M69.302,71.664L68.176,42.236H91.718L89.535,71.664H69.302Z" fill="#2d41ea" fill-opacity="1.0" /><path d="M76.729,71.744L90.812,71.669L96.719,108.006C92.014,108.006 87.368,108.006 82.712,108.006L76.729,71.744Z" fill="#24252b" fill-opacity="1.0" /><path d="M64.57,70.752L78.965,59.752L74.842,55.058L60.291,64.516L64.57,70.752Z" fill="#2d41ea" fill-opacity="1.0" /><path d="M68.154,51.026C70.58,51.026 72.547,49.06 72.547,46.634C72.547,44.208 70.58,42.241 68.154,42.241C65.728,42.241 63.762,44.208 63.762,46.634C63.762,49.06 65.728,51.026 68.154,51.026Z" fill="#2d41ea" fill-opacity="1.0" /><path d="M62.586,71.281C64.697,71.281 66.408,69.57 66.408,67.46C66.408,65.35 64.697,63.639 62.586,63.639C60.476,63.639 58.765,65.35 58.765,67.46C58.765,69.57 60.476,71.281 62.586,71.281Z" fill="#2d41ea" fill-opacity="1.0" /><path d="M63.983,45.265L72.342,47.965L66.354,68.111L58.938,66.327L63.983,45.265Z" fill="#2d41ea" fill-opacity="1.0" /><path d="M103.408,52.088L94.687,51.856C94.224,51.846 93.9,51.382 94.051,50.94L98.05,39.104C98.174,38.733 98.53,38.485 98.923,38.495L106.986,38.711C107.45,38.722 107.773,39.185 107.622,39.627L103.408,52.088Z" fill="#24252b" fill-opacity="1.0" /><path d="M101.662,56.766L105.219,51.291C105.402,51.01 105.515,50.687 105.537,50.353L106,44.068C106.006,44.047 105.963,44.042 105.892,44.047C105.413,44.063 105.019,44.43 104.938,44.904L104.162,49.426C104.087,49.862 103.65,50.137 103.225,50.019C102.783,49.895 102.551,49.41 102.74,48.989L103.429,47.437C103.548,47.173 103.44,46.866 103.187,46.725C102.912,46.575 102.567,46.682 102.422,46.957L98.255,54.885L101.662,56.766Z" fill="#b56c5e" fill-opacity="1.0" /><path d="M91.981,51.025C94.407,51.025 96.374,49.059 96.374,46.633C96.374,44.207 94.407,42.24 91.981,42.24C89.555,42.24 87.589,44.207 87.589,46.633C87.589,49.059 89.555,51.025 91.981,51.025Z" fill="#2d41ea" fill-opacity="1.0" /><path d="M97.242,71.361C99.352,71.361 101.063,69.65 101.063,67.54C101.063,65.43 99.352,63.719 97.242,63.719C95.131,63.719 93.42,65.43 93.42,67.54C93.42,69.65 95.131,71.361 97.242,71.361Z" fill="#2d41ea" fill-opacity="1.0" /><path d="M96.18,45.329L87.778,47.905L93.647,68.796L100.907,66.462L96.18,45.329Z" fill="#2d41ea" fill-opacity="1.0" /><path d="M93.787,68.111L97.695,54.319L103.693,54.281L101.052,67.771L93.787,68.111Z" fill="#2d41ea" fill-opacity="1.0" /><path d="M69.141,66.489H89.918L92.451,77.215H66.969L69.141,66.489Z" fill="#2d41ea" fill-opacity="1.0" /><path d="M83.989,33.915C83.919,33.915 83.86,33.861 83.849,33.791C83.838,33.715 83.892,33.64 83.973,33.634L86.862,33.268C86.937,33.257 87.013,33.311 87.018,33.392C87.029,33.467 86.975,33.543 86.894,33.548L84.005,33.915C84,33.915 83.994,33.915 83.989,33.915Z" fill="#24252b" fill-opacity="1.0" /><path d="M84.302,36.189C84.838,36.189 85.272,35.537 85.272,34.734C85.272,33.93 84.838,33.278 84.302,33.278C83.766,33.278 83.331,33.93 83.331,34.734C83.331,35.537 83.766,36.189 84.302,36.189Z" fill="#b56c5e" fill-opacity="1.0" /></svg>