<?xml version="1.0" encoding="utf-8" ?>
<svg baseProfile="full" height="40.0" version="1.1" viewBox="0 0 40.0 40.0" width="40.0" xmlns="http://www.w3.org/2000/svg" xmlns:ev="http://www.w3.org/2001/xml-events" xmlns:xlink="http://www.w3.org/1999/xlink"><defs /><path d="M2,6L10,6A2,2 0,0 1,12 8L12,32A2,2 0,0 1,10 34L2,34A2,2 0,0 1,0 32L0,8A2,2 0,0 1,2 6z" fill="#ffffff" fill-opacity="1.0" /><path d="M16,6L24,6A2,2 0,0 1,26 8L26,32A2,2 0,0 1,24 34L16,34A2,2 0,0 1,14 32L14,8A2,2 0,0 1,16 6z" fill="#ffffff" fill-opacity="1.0" /><path d="M30,6L38,6A2,2 0,0 1,40 8L40,32A2,2 0,0 1,38 34L30,34A2,2 0,0 1,28 32L28,8A2,2 0,0 1,30 6z" fill="#ffffff" fill-opacity="1.0" /></svg>