<?xml version="1.0" encoding="utf-8" ?>
<svg baseProfile="full" height="32.0" version="1.1" viewBox="0 0 32.0 32.0" width="32.0" xmlns="http://www.w3.org/2000/svg" xmlns:ev="http://www.w3.org/2001/xml-events" xmlns:xlink="http://www.w3.org/1999/xlink"><defs /><path d="M0,0h32v32h-32z" fill="#b2b2b2" fill-opacity="1.0" /><path d="M22.109,7.133C21.927,7 21.692,6.964 21.479,7.037L12.479,10.037C12.193,10.132 12,10.399 12,10.701V20.058C11.487,19.707 10.867,19.5 10.2,19.5C8.436,19.5 7,20.936 7,22.701C7,24.465 8.436,25.901 10.2,25.901C11.965,25.901 13.4,24.465 13.4,22.701V14.205L21,11.672V17.058C20.487,16.707 19.867,16.5 19.2,16.5C17.436,16.5 16,17.936 16,19.701C16,21.465 17.436,22.901 19.2,22.901C20.965,22.901 22.4,21.465 22.4,19.701V7.701C22.4,7.476 22.292,7.264 22.109,7.133Z" fill="#b2b2b2" fill-opacity="1.0" /></svg>