<?xml version="1.0" encoding="utf-8" ?>
<svg baseProfile="full" height="42.0" version="1.1" viewBox="0 0 42.0 42.0" width="42.0" xmlns="http://www.w3.org/2000/svg" xmlns:ev="http://www.w3.org/2001/xml-events" xmlns:xlink="http://www.w3.org/1999/xlink"><defs /><path d="M14.48,12.18C14.893,12.66 15.387,13.287 15.96,14.06C16.573,14.913 16.987,15.513 17.2,15.86L15.64,16.94C15.373,16.487 14.96,15.867 14.4,15.08C13.84,14.293 13.373,13.68 13,13.24L14.48,12.18ZM18.16,13.24H29.04V28.04C29.04,28.613 28.973,29.06 28.84,29.38C28.72,29.713 28.493,29.967 28.16,30.14C27.84,30.313 27.36,30.433 26.72,30.5C25.92,30.58 25.093,30.613 24.24,30.6L23.9,28.72C24.687,28.76 25.34,28.78 25.86,28.78C26.313,28.767 26.627,28.733 26.8,28.68C26.987,28.627 27.107,28.513 27.16,28.34C27.227,28.167 27.26,27.867 27.26,27.44V14.96H18.16V13.24ZM17.4,18.78V17.12H26.38V18.78H17.4ZM11.92,18.48H15.9V27.02C16.34,26.647 16.787,26.173 17.24,25.6L18.02,27.28C17.113,28.2 15.953,29.173 14.54,30.2L13.6,28.88C13.787,28.653 13.913,28.433 13.98,28.22C14.06,28.007 14.1,27.707 14.1,27.32V20.28H11.92V18.48ZM18.22,27.58V20.84H25.18V27.58H18.22ZM23.48,22.5H19.92V25.92H23.48V22.5Z" fill="#000000" fill-opacity="1.0" /></svg>