<?xml version="1.0" encoding="utf-8" ?>
<svg baseProfile="full" height="210.0" version="1.1" viewBox="0 0 431.0 210.0" width="431.0" xmlns="http://www.w3.org/2000/svg" xmlns:ev="http://www.w3.org/2001/xml-events" xmlns:xlink="http://www.w3.org/1999/xlink"><defs /><path d="M65.5,45L365.5,45A6,6 0,0 1,371.5 51L371.5,159A6,6 0,0 1,365.5 165L65.5,165A6,6 0,0 1,59.5 159L59.5,51A6,6 0,0 1,65.5 45z" fill="#43464c" fill-opacity="1.0" /><path d="M70,52.5L79,52.5A3,3 0,0 1,82 55.5L82,67.5A3,3 0,0 1,79 70.5L70,70.5A3,3 0,0 1,67 67.5L67,55.5A3,3 0,0 1,70 52.5z" fill="#70757f" fill-opacity="1.0" /><path d="M87.25,52.5L100.75,52.5A3,3 0,0 1,103.75 55.5L103.75,67.5A3,3 0,0 1,100.75 70.5L87.25,70.5A3,3 0,0 1,84.25 67.5L84.25,55.5A3,3 0,0 1,87.25 52.5z" fill="#70757f" fill-opacity="1.0" /><path d="M109,52.5L122.5,52.5A3,3 0,0 1,125.5 55.5L125.5,67.5A3,3 0,0 1,122.5 70.5L109,70.5A3,3 0,0 1,106 67.5L106,55.5A3,3 0,0 1,109 52.5z" fill="#70757f" fill-opacity="1.0" /><path d="M130.75,52.5L144.25,52.5A3,3 0,0 1,147.25 55.5L147.25,67.5A3,3 0,0 1,144.25 70.5L130.75,70.5A3,3 0,0 1,127.75 67.5L127.75,55.5A3,3 0,0 1,130.75 52.5z" fill="#70757f" fill-opacity="1.0" /><path d="M152.5,52.5L166,52.5A3,3 0,0 1,169 55.5L169,67.5A3,3 0,0 1,166 70.5L152.5,70.5A3,3 0,0 1,149.5 67.5L149.5,55.5A3,3 0,0 1,152.5 52.5z" fill="#70757f" fill-opacity="1.0" /><path d="M174.25,52.5L187.75,52.5A3,3 0,0 1,190.75 55.5L190.75,67.5A3,3 0,0 1,187.75 70.5L174.25,70.5A3,3 0,0 1,171.25 67.5L171.25,55.5A3,3 0,0 1,174.25 52.5z" fill="#70757f" fill-opacity="1.0" /><path d="M196,52.5L209.5,52.5A3,3 0,0 1,212.5 55.5L212.5,67.5A3,3 0,0 1,209.5 70.5L196,70.5A3,3 0,0 1,193 67.5L193,55.5A3,3 0,0 1,196 52.5z" fill="#70757f" fill-opacity="1.0" /><path d="M217.75,52.5L231.25,52.5A3,3 0,0 1,234.25 55.5L234.25,67.5A3,3 0,0 1,231.25 70.5L217.75,70.5A3,3 0,0 1,214.75 67.5L214.75,55.5A3,3 0,0 1,217.75 52.5z" fill="#70757f" fill-opacity="1.0" /><path d="M239.5,52.5L253,52.5A3,3 0,0 1,256 55.5L256,67.5A3,3 0,0 1,253 70.5L239.5,70.5A3,3 0,0 1,236.5 67.5L236.5,55.5A3,3 0,0 1,239.5 52.5z" fill="#70757f" fill-opacity="1.0" /><path d="M261.25,52.5L274.75,52.5A3,3 0,0 1,277.75 55.5L277.75,67.5A3,3 0,0 1,274.75 70.5L261.25,70.5A3,3 0,0 1,258.25 67.5L258.25,55.5A3,3 0,0 1,261.25 52.5z" fill="#70757f" fill-opacity="1.0" /><path d="M283,52.5L296.5,52.5A3,3 0,0 1,299.5 55.5L299.5,67.5A3,3 0,0 1,296.5 70.5L283,70.5A3,3 0,0 1,280 67.5L280,55.5A3,3 0,0 1,283 52.5z" fill="#70757f" fill-opacity="1.0" /><path d="M304.75,52.5L313.75,52.5A3,3 0,0 1,316.75 55.5L316.75,67.5A3,3 0,0 1,313.75 70.5L304.75,70.5A3,3 0,0 1,301.75 67.5L301.75,55.5A3,3 0,0 1,304.75 52.5z" fill="#70757f" fill-opacity="1.0" /><path d="M322,52.5L331,52.5A3,3 0,0 1,334 55.5L334,67.5A3,3 0,0 1,331 70.5L322,70.5A3,3 0,0 1,319 67.5L319,55.5A3,3 0,0 1,322 52.5z" fill="#70757f" fill-opacity="1.0" /><path d="M339.25,52.5L361,52.5A3,3 0,0 1,364 55.5L364,67.5A3,3 0,0 1,361 70.5L339.25,70.5A3,3 0,0 1,336.25 67.5L336.25,55.5A3,3 0,0 1,339.25 52.5z" fill="#70757f" fill-opacity="1.0" /><path d="M70,74.25L85.75,74.25A3,3 0,0 1,88.75 77.25L88.75,89.25A3,3 0,0 1,85.75 92.25L70,92.25A3,3 0,0 1,67 89.25L67,77.25A3,3 0,0 1,70 74.25z" fill="#70757f" fill-opacity="1.0" /><path d="M94,74.25L107.5,74.25A3,3 0,0 1,110.5 77.25L110.5,89.25A3,3 0,0 1,107.5 92.25L94,92.25A3,3 0,0 1,91 89.25L91,77.25A3,3 0,0 1,94 74.25z" fill="#70757f" fill-opacity="1.0" /><path d="M115.75,74.25L129.25,74.25A3,3 0,0 1,132.25 77.25L132.25,89.25A3,3 0,0 1,129.25 92.25L115.75,92.25A3,3 0,0 1,112.75 89.25L112.75,77.25A3,3 0,0 1,115.75 74.25z" fill="#70757f" fill-opacity="1.0" /><path d="M137.5,74.25L151,74.25A3,3 0,0 1,154 77.25L154,89.25A3,3 0,0 1,151 92.25L137.5,92.25A3,3 0,0 1,134.5 89.25L134.5,77.25A3,3 0,0 1,137.5 74.25z" fill="#70757f" fill-opacity="1.0" /><path d="M159.25,74.25L172.75,74.25A3,3 0,0 1,175.75 77.25L175.75,89.25A3,3 0,0 1,172.75 92.25L159.25,92.25A3,3 0,0 1,156.25 89.25L156.25,77.25A3,3 0,0 1,159.25 74.25z" fill="#70757f" fill-opacity="1.0" /><path d="M181,74.25L194.5,74.25A3,3 0,0 1,197.5 77.25L197.5,89.25A3,3 0,0 1,194.5 92.25L181,92.25A3,3 0,0 1,178 89.25L178,77.25A3,3 0,0 1,181 74.25z" fill="#70757f" fill-opacity="1.0" /><path d="M202.75,74.25L216.25,74.25A3,3 0,0 1,219.25 77.25L219.25,89.25A3,3 0,0 1,216.25 92.25L202.75,92.25A3,3 0,0 1,199.75 89.25L199.75,77.25A3,3 0,0 1,202.75 74.25z" fill="#70757f" fill-opacity="1.0" /><path d="M224.5,74.25L238,74.25A3,3 0,0 1,241 77.25L241,89.25A3,3 0,0 1,238 92.25L224.5,92.25A3,3 0,0 1,221.5 89.25L221.5,77.25A3,3 0,0 1,224.5 74.25z" fill="#70757f" fill-opacity="1.0" /><path d="M246.25,74.25L259.75,74.25A3,3 0,0 1,262.75 77.25L262.75,89.25A3,3 0,0 1,259.75 92.25L246.25,92.25A3,3 0,0 1,243.25 89.25L243.25,77.25A3,3 0,0 1,246.25 74.25z" fill="#70757f" fill-opacity="1.0" /><path d="M268,74.25L281.5,74.25A3,3 0,0 1,284.5 77.25L284.5,89.25A3,3 0,0 1,281.5 92.25L268,92.25A3,3 0,0 1,265 89.25L265,77.25A3,3 0,0 1,268 74.25z" fill="#70757f" fill-opacity="1.0" /><path d="M289.75,74.25L303.25,74.25A3,3 0,0 1,306.25 77.25L306.25,89.25A3,3 0,0 1,303.25 92.25L289.75,92.25A3,3 0,0 1,286.75 89.25L286.75,77.25A3,3 0,0 1,289.75 74.25z" fill="#70757f" fill-opacity="1.0" /><path d="M311.5,74.25L325,74.25A3,3 0,0 1,328 77.25L328,89.25A3,3 0,0 1,325 92.25L311.5,92.25A3,3 0,0 1,308.5 89.25L308.5,77.25A3,3 0,0 1,311.5 74.25z" fill="#70757f" fill-opacity="1.0" /><path d="M333.25,74.25L343,74.25A3,3 0,0 1,346 77.25L346,89.25A3,3 0,0 1,343 92.25L333.25,92.25A3,3 0,0 1,330.25 89.25L330.25,77.25A3,3 0,0 1,333.25 74.25z" fill="#70757f" fill-opacity="1.0" /><path d="M351.25,74.25L361,74.25A3,3 0,0 1,364 77.25L364,89.25A3,3 0,0 1,361 92.25L351.25,92.25A3,3 0,0 1,348.25 89.25L348.25,77.25A3,3 0,0 1,351.25 74.25z" fill="#70757f" fill-opacity="1.0" /><path d="M70,96L91.75,96A3,3 0,0 1,94.75 99L94.75,111A3,3 0,0 1,91.75 114L70,114A3,3 0,0 1,67 111L67,99A3,3 0,0 1,70 96z" fill="#70757f" fill-opacity="1.0" /><path d="M100,96L113.5,96A3,3 0,0 1,116.5 99L116.5,111A3,3 0,0 1,113.5 114L100,114A3,3 0,0 1,97 111L97,99A3,3 0,0 1,100 96z" fill="#70757f" fill-opacity="1.0" /><path d="M121.75,96L135.25,96A3,3 0,0 1,138.25 99L138.25,111A3,3 0,0 1,135.25 114L121.75,114A3,3 0,0 1,118.75 111L118.75,99A3,3 0,0 1,121.75 96z" fill="#70757f" fill-opacity="1.0" /><path d="M143.5,96L157,96A3,3 0,0 1,160 99L160,111A3,3 0,0 1,157 114L143.5,114A3,3 0,0 1,140.5 111L140.5,99A3,3 0,0 1,143.5 96z" fill="#70757f" fill-opacity="1.0" /><path d="M165.25,96L178.75,96A3,3 0,0 1,181.75 99L181.75,111A3,3 0,0 1,178.75 114L165.25,114A3,3 0,0 1,162.25 111L162.25,99A3,3 0,0 1,165.25 96z" fill="#70757f" fill-opacity="1.0" /><path d="M187,96L200.5,96A3,3 0,0 1,203.5 99L203.5,111A3,3 0,0 1,200.5 114L187,114A3,3 0,0 1,184 111L184,99A3,3 0,0 1,187 96z" fill="#70757f" fill-opacity="1.0" /><path d="M208.75,96L222.25,96A3,3 0,0 1,225.25 99L225.25,111A3,3 0,0 1,222.25 114L208.75,114A3,3 0,0 1,205.75 111L205.75,99A3,3 0,0 1,208.75 96z" fill="#70757f" fill-opacity="1.0" /><path d="M230.5,96L244,96A3,3 0,0 1,247 99L247,111A3,3 0,0 1,244 114L230.5,114A3,3 0,0 1,227.5 111L227.5,99A3,3 0,0 1,230.5 96z" fill="#70757f" fill-opacity="1.0" /><path d="M252.25,96L265.75,96A3,3 0,0 1,268.75 99L268.75,111A3,3 0,0 1,265.75 114L252.25,114A3,3 0,0 1,249.25 111L249.25,99A3,3 0,0 1,252.25 96z" fill="#70757f" fill-opacity="1.0" /><path d="M274,96L287.5,96A3,3 0,0 1,290.5 99L290.5,111A3,3 0,0 1,287.5 114L274,114A3,3 0,0 1,271 111L271,99A3,3 0,0 1,274 96z" fill="#70757f" fill-opacity="1.0" /><path d="M295.75,96L309.25,96A3,3 0,0 1,312.25 99L312.25,111A3,3 0,0 1,309.25 114L295.75,114A3,3 0,0 1,292.75 111L292.75,99A3,3 0,0 1,295.75 96z" fill="#70757f" fill-opacity="1.0" /><path d="M317.5,96L331,96A3,3 0,0 1,334 99L334,111A3,3 0,0 1,331 114L317.5,114A3,3 0,0 1,314.5 111L314.5,99A3,3 0,0 1,317.5 96z" fill="#70757f" fill-opacity="1.0" /><path d="M339.25,96L361,96A3,3 0,0 1,364 99L364,111A3,3 0,0 1,361 114L339.25,114A3,3 0,0 1,336.25 111L336.25,99A3,3 0,0 1,339.25 96z" fill="#70757f" fill-opacity="1.0" /><path d="M70,117.75L102.25,117.75A3,3 0,0 1,105.25 120.75L105.25,132.75A3,3 0,0 1,102.25 135.75L70,135.75A3,3 0,0 1,67 132.75L67,120.75A3,3 0,0 1,70 117.75z" fill="#70757f" fill-opacity="1.0" /><path d="M110.5,117.75L124,117.75A3,3 0,0 1,127 120.75L127,132.75A3,3 0,0 1,124 135.75L110.5,135.75A3,3 0,0 1,107.5 132.75L107.5,120.75A3,3 0,0 1,110.5 117.75z" fill="#70757f" fill-opacity="1.0" /><path d="M132.25,117.75L145.75,117.75A3,3 0,0 1,148.75 120.75L148.75,132.75A3,3 0,0 1,145.75 135.75L132.25,135.75A3,3 0,0 1,129.25 132.75L129.25,120.75A3,3 0,0 1,132.25 117.75z" fill="#70757f" fill-opacity="1.0" /><path d="M154,117.75L167.5,117.75A3,3 0,0 1,170.5 120.75L170.5,132.75A3,3 0,0 1,167.5 135.75L154,135.75A3,3 0,0 1,151 132.75L151,120.75A3,3 0,0 1,154 117.75z" fill="#70757f" fill-opacity="1.0" /><path d="M175.75,117.75L189.25,117.75A3,3 0,0 1,192.25 120.75L192.25,132.75A3,3 0,0 1,189.25 135.75L175.75,135.75A3,3 0,0 1,172.75 132.75L172.75,120.75A3,3 0,0 1,175.75 117.75z" fill="#70757f" fill-opacity="1.0" /><path d="M197.5,117.75L211,117.75A3,3 0,0 1,214 120.75L214,132.75A3,3 0,0 1,211 135.75L197.5,135.75A3,3 0,0 1,194.5 132.75L194.5,120.75A3,3 0,0 1,197.5 117.75z" fill="#70757f" fill-opacity="1.0" /><path d="M219.25,117.75L232.75,117.75A3,3 0,0 1,235.75 120.75L235.75,132.75A3,3 0,0 1,232.75 135.75L219.25,135.75A3,3 0,0 1,216.25 132.75L216.25,120.75A3,3 0,0 1,219.25 117.75z" fill="#70757f" fill-opacity="1.0" /><path d="M241,117.75L254.5,117.75A3,3 0,0 1,257.5 120.75L257.5,132.75A3,3 0,0 1,254.5 135.75L241,135.75A3,3 0,0 1,238 132.75L238,120.75A3,3 0,0 1,241 117.75z" fill="#70757f" fill-opacity="1.0" /><path d="M262.75,117.75L276.25,117.75A3,3 0,0 1,279.25 120.75L279.25,132.75A3,3 0,0 1,276.25 135.75L262.75,135.75A3,3 0,0 1,259.75 132.75L259.75,120.75A3,3 0,0 1,262.75 117.75z" fill="#70757f" fill-opacity="1.0" /><path d="M284.5,117.75L298,117.75A3,3 0,0 1,301 120.75L301,132.75A3,3 0,0 1,298 135.75L284.5,135.75A3,3 0,0 1,281.5 132.75L281.5,120.75A3,3 0,0 1,284.5 117.75z" fill="#70757f" fill-opacity="1.0" /><path d="M306.25,117.75L319.75,117.75A3,3 0,0 1,322.75 120.75L322.75,132.75A3,3 0,0 1,319.75 135.75L306.25,135.75A3,3 0,0 1,303.25 132.75L303.25,120.75A3,3 0,0 1,306.25 117.75z" fill="#99a0ab" fill-opacity="1.0" /><path d="M328,117.75L361,117.75A3,3 0,0 1,364 120.75L364,132.75A3,3 0,0 1,361 135.75L328,135.75A3,3 0,0 1,325 132.75L325,120.75A3,3 0,0 1,328 117.75z" fill="#70757f" fill-opacity="1.0" /><path d="M70,139.5L94.75,139.5A3,3 0,0 1,97.75 142.5L97.75,154.5A3,3 0,0 1,94.75 157.5L70,157.5A3,3 0,0 1,67 154.5L67,142.5A3,3 0,0 1,70 139.5z" fill="#70757f" fill-opacity="1.0" /><path d="M103,139.5L116.5,139.5A3,3 0,0 1,119.5 142.5L119.5,154.5A3,3 0,0 1,116.5 157.5L103,157.5A3,3 0,0 1,100 154.5L100,142.5A3,3 0,0 1,103 139.5z" fill="#70757f" fill-opacity="1.0" /><path d="M124.75,139.5L138.25,139.5A3,3 0,0 1,141.25 142.5L141.25,154.5A3,3 0,0 1,138.25 157.5L124.75,157.5A3,3 0,0 1,121.75 154.5L121.75,142.5A3,3 0,0 1,124.75 139.5z" fill="#99a0ab" fill-opacity="1.0" /><path d="M146.5,139.5L160,139.5A3,3 0,0 1,163 142.5L163,154.5A3,3 0,0 1,160 157.5L146.5,157.5A3,3 0,0 1,143.5 154.5L143.5,142.5A3,3 0,0 1,146.5 139.5z" fill="#70757f" fill-opacity="1.0" /><path d="M168.25,139.5L262.75,139.5A3,3 0,0 1,265.75 142.5L265.75,154.5A3,3 0,0 1,262.75 157.5L168.25,157.5A3,3 0,0 1,165.25 154.5L165.25,142.5A3,3 0,0 1,168.25 139.5z" fill="#70757f" fill-opacity="1.0" /><path d="M271,139.5L281.5,139.5A3,3 0,0 1,284.5 142.5L284.5,154.5A3,3 0,0 1,281.5 157.5L271,157.5A3,3 0,0 1,268 154.5L268,142.5A3,3 0,0 1,271 139.5z" fill="#70757f" fill-opacity="1.0" /><path d="M289.75,139.5L300.25,139.5A3,3 0,0 1,303.25 142.5L303.25,154.5A3,3 0,0 1,300.25 157.5L289.75,157.5A3,3 0,0 1,286.75 154.5L286.75,142.5A3,3 0,0 1,289.75 139.5z" fill="#70757f" fill-opacity="1.0" /><path d="M308.5,139.5L320.5,139.5A3,3 0,0 1,323.5 142.5L323.5,154.5A3,3 0,0 1,320.5 157.5L308.5,157.5A3,3 0,0 1,305.5 154.5L305.5,142.5A3,3 0,0 1,308.5 139.5z" fill="#70757f" fill-opacity="1.0" /><path d="M328.75,139.5L340.75,139.5A3,3 0,0 1,343.75 142.5L343.75,154.5A3,3 0,0 1,340.75 157.5L328.75,157.5A3,3 0,0 1,325.75 154.5L325.75,142.5A3,3 0,0 1,328.75 139.5z" fill="#70757f" fill-opacity="1.0" /><path d="M349,139.5L361,139.5A3,3 0,0 1,364 142.5L364,154.5A3,3 0,0 1,361 157.5L349,157.5A3,3 0,0 1,346 154.5L346,142.5A3,3 0,0 1,349 139.5z" fill="#70757f" fill-opacity="1.0" /></svg>