<?xml version="1.0" encoding="utf-8" ?>
<svg baseProfile="full" height="120.0" version="1.1" viewBox="0 0 168.0 120.0" width="168.0" xmlns="http://www.w3.org/2000/svg" xmlns:ev="http://www.w3.org/2001/xml-events" xmlns:xlink="http://www.w3.org/1999/xlink"><defs /><path d="M70.112,20.913C61.264,20.913 54.089,13.738 54.089,4.89C54.089,4.31 54.119,3.742 54.179,3.18H50.233V24.811H71.864V20.811C71.29,20.877 70.704,20.913 70.112,20.913Z" fill="#ced7e0" fill-opacity="1.0" /><path d="M126.266,30.065H93.395V48.414H126.266V30.065Z" fill="#e6eaef" fill-opacity="1.0" /><path d="M57.031,30.505H35.4V52.136H57.031V30.505Z" fill="#e6eaef" fill-opacity="1.0" /><path d="M115.682,53.264H103.169V63.735L115.682,53.264Z" fill="#ced7e0" fill-opacity="1.0" /><path d="M75.965,29.981L67.302,40.283L69.759,43.697L79.296,34.818L75.965,29.981Z" fill="#b56c5e" fill-opacity="1.0" /><path d="M98.057,37.455L99.402,25.981L102.313,26.029L102.23,37.317L98.057,37.455Z" fill="#b56c5e" fill-opacity="1.0" /><path d="M102.111,37.889C102.498,36.807 101.954,35.624 100.897,35.246C99.84,34.868 98.669,35.439 98.283,36.521C97.896,37.603 98.44,38.787 99.497,39.165C100.554,39.542 101.724,38.971 102.111,37.889Z" fill="#b56c5e" fill-opacity="1.0" /><path d="M99.797,39.238L84.132,35.184L84.688,32.273C85.029,30.509 86.895,29.499 88.557,30.174L100.897,35.214L99.797,39.238Z" fill="#b56c5e" fill-opacity="1.0" /><path d="M102.092,18.024C101.811,18.192 101.656,18.509 101.704,18.837L102.002,21.08L101.153,23.136C101.04,23.417 100.759,23.597 100.454,23.579L100.269,23.573C99.755,23.746 99.312,23.836 98.87,23.883L99.503,26.927L102.116,26.975L102.923,24.183C103.031,23.818 103.079,23.441 103.073,23.059L103.037,20.93L102.092,18.024Z" fill="#b56c5e" fill-opacity="1.0" /><path d="M79.109,33.164L83.862,33.164L83.862,24.489L79.109,24.489L79.109,33.164Z" fill="#b56c5e" fill-opacity="1.0" /><path d="M71.493,101.087V102.055C71.493,103.622 71.882,105.164 72.617,106.551C72.868,107.018 72.527,107.58 72.001,107.58H67.254C66.65,107.58 66.166,107.072 66.202,106.468C66.244,105.75 66.346,104.794 66.573,103.975C67.009,102.408 67.912,101.093 67.912,101.093H71.493V101.087Z" fill="#24252b" fill-opacity="1.0" /><path d="M88.892,100.602C89.137,102.395 90.201,103.974 91.767,104.876L93.304,105.761C93.513,105.941 93.633,106.204 93.633,106.479C93.633,106.999 93.214,107.423 92.694,107.429C91.271,107.447 88.73,107.465 88.682,107.417C88.617,107.352 86.398,105.163 86.398,105.163V107.573H84.222V100.805L88.892,100.602Z" fill="#24252b" fill-opacity="1.0" /><path d="M81.214,51.738C84.308,51.738 86.816,49.238 86.816,46.154C86.816,43.07 84.308,40.57 81.214,40.57C78.12,40.57 75.612,43.07 75.612,46.154C75.612,49.238 78.12,51.738 81.214,51.738Z" fill="#24252b" fill-opacity="1.0" /><path d="M75.642,30.406L75.612,46.154H86.816L87.247,29.981L75.642,30.406Z" fill="#fa6a35" fill-opacity="1.0" /><path d="M70.955,53.526C71.248,51.057 72.438,48.779 74.297,47.129L75.613,46.059L82.405,46.154L77.723,78.924C74.423,78.924 71.183,78.918 67.936,78.834L70.955,53.526Z" fill="#24252b" fill-opacity="1.0" /><path d="M67.936,78.84C71.182,78.924 74.423,78.929 77.723,78.929L74.704,100.064C74.62,100.65 74.118,101.087 73.526,101.087H66.62C65.903,101.087 65.353,100.465 65.437,99.753L67.936,78.84Z" fill="#24252b" fill-opacity="1.0" /><path d="M79.355,46.154H86.817L87.534,47.398C89.173,50.244 90.051,53.466 90.075,56.749L90.237,78.948C87.182,79.073 83.559,78.912 80.551,78.924L79.355,46.154Z" fill="#24252b" fill-opacity="1.0" /><path d="M72.868,83.526C75.543,83.526 77.711,81.358 77.711,78.684C77.711,76.009 75.543,73.841 72.868,73.841C70.194,73.841 68.025,76.009 68.025,78.684C68.025,81.358 70.194,83.526 72.868,83.526Z" fill="#24252b" fill-opacity="1.0" /><path d="M85.388,83.526C88.062,83.526 90.23,81.358 90.23,78.684C90.23,76.009 88.062,73.841 85.388,73.841C82.713,73.841 80.545,76.009 80.545,78.684C80.545,81.358 82.713,83.526 85.388,83.526Z" fill="#24252b" fill-opacity="1.0" /><path d="M90.23,78.948V99.67C90.23,100.19 89.824,100.615 89.304,100.638L82.685,100.919C82.153,100.943 81.705,100.531 81.675,100.005L80.545,78.924L90.23,78.948Z" fill="#24252b" fill-opacity="1.0" /><path d="M83.666,23.255C84.795,23.255 85.711,22.34 85.711,21.211C85.711,20.081 84.795,19.166 83.666,19.166C82.536,19.166 81.621,20.081 81.621,21.211C81.621,22.34 82.536,23.255 83.666,23.255Z" fill="#24252b" fill-opacity="1.0" /><path d="M83.791,23.998L81.884,23.531" fill="#000000" fill-opacity="0.0" /><path d="M80.94,25.205C81.544,25.205 82.034,24.715 82.034,24.111C82.034,23.506 81.544,23.017 80.94,23.017C80.336,23.017 79.846,23.506 79.846,24.111C79.846,24.715 80.336,25.205 80.94,25.205Z" fill="#b56c5e" fill-opacity="1.0" /><path d="M80.39,26.454C80.845,26.454 81.215,26.084 81.215,25.629C81.215,25.173 80.845,24.804 80.39,24.804C79.934,24.804 79.564,25.173 79.564,25.629C79.564,26.084 79.934,26.454 80.39,26.454Z" fill="#ffc013" fill-opacity="1.0" /><path d="M81.107,27.501C83.435,27.501 85.322,25.614 85.322,23.286C85.322,20.958 83.435,19.071 81.107,19.071C78.779,19.071 76.892,20.958 76.892,23.286C76.892,25.614 78.779,27.501 81.107,27.501Z" fill="#24252b" fill-opacity="1.0" /><path d="M79.326,35.92C82.618,35.92 85.286,33.251 85.286,29.959C85.286,26.667 82.618,23.998 79.326,23.998C76.034,23.998 73.365,26.667 73.365,29.959C73.365,33.251 76.034,35.92 79.326,35.92Z" fill="#24252b" fill-opacity="1.0" /><path d="M69.054,42.46L71.882,28.792L73.066,26.634L73.442,23.932H73.383C73.06,23.932 72.779,24.135 72.671,24.434L72.283,25.516L71.756,25.558L70.674,21.397C70.608,21.152 70.375,20.99 70.124,21.02L69.311,21.116C69.036,21.146 68.839,21.391 68.863,21.666L69.168,24.9L68.396,22.784L68.05,23.047L69.192,27.214L65.024,40.738L69.054,42.46Z" fill="#b56c5e" fill-opacity="1.0" /><path d="M67.882,44.367C69.504,44.367 70.818,43.053 70.818,41.432C70.818,39.81 69.504,38.496 67.882,38.496C66.261,38.496 64.947,39.81 64.947,41.432C64.947,43.053 66.261,44.367 67.882,44.367Z" fill="#b56c5e" fill-opacity="1.0" /><path d="M70.92,32.265C71.774,32.217 72.414,31.888 72.581,31.338C72.743,30.794 72.438,30.191 71.703,29.658L71.595,30.167C72.139,30.555 72.217,30.872 72.121,31.201C71.972,31.715 70.824,32.002 69.413,31.59C68.008,31.177 67.195,30.31 67.35,29.796C67.452,29.455 67.858,29.24 68.564,29.216L68.719,28.72C67.787,28.756 67.045,29.102 66.884,29.658C66.627,30.531 67.679,31.583 69.275,32.056C69.855,32.229 70.423,32.295 70.92,32.265Z" fill="#ffc013" fill-opacity="1.0" /><path d="M96.963,24.392C102.005,24.392 106.092,20.304 106.092,15.262C106.092,10.22 102.005,6.133 96.963,6.133C91.92,6.133 87.833,10.22 87.833,15.262C87.833,20.304 91.92,24.392 96.963,24.392Z" fill="#e6eaef" fill-opacity="1.0" /><path d="M100.293,23.812C99.994,23.8 99.737,23.603 99.641,23.322L99.318,22.383C99.246,22.18 99.025,22.078 98.828,22.15C98.655,22.216 98.553,22.401 98.589,22.58L98.936,24.26C99.384,24.212 99.796,23.985 100.311,23.812H100.293Z" fill="#b56c5e" fill-opacity="1.0" /></svg>