<?xml version="1.0" encoding="utf-8" ?>
<svg baseProfile="full" height="24.0" version="1.1" viewBox="0 0 25.0 24.0" width="25.0" xmlns="http://www.w3.org/2000/svg" xmlns:ev="http://www.w3.org/2001/xml-events" xmlns:xlink="http://www.w3.org/1999/xlink"><defs /><path d="M20.199,21.7C21.303,21.7 22.199,20.805 22.199,19.7V12.001C22.199,12.001 22.199,12.001 22.199,12C22.199,12 22.199,11.999 22.199,11.999V4.3C22.199,3.196 21.303,2.3 20.199,2.3H4.799C3.694,2.3 2.799,3.196 2.799,4.3L2.799,19.7C2.799,20.805 3.694,21.7 4.799,21.7H20.199ZM20.799,11.3V4.3C20.799,3.969 20.53,3.7 20.199,3.7H4.799C4.467,3.7 4.199,3.969 4.199,4.3L4.199,11.3L20.799,11.3ZM4.199,12.7L4.199,19.7C4.199,20.032 4.467,20.3 4.799,20.3L20.199,20.3C20.53,20.3 20.799,20.032 20.799,19.7V12.7L4.199,12.7Z" fill="#ffffff" fill-opacity="1.0" /></svg>