<?xml version="1.0" encoding="utf-8" ?>
<svg baseProfile="full" height="30.0" version="1.1" viewBox="0 0 30.0 30.0" width="30.0" xmlns="http://www.w3.org/2000/svg" xmlns:ev="http://www.w3.org/2001/xml-events" xmlns:xlink="http://www.w3.org/1999/xlink"><defs /><path d="M7.5,0L22.5,0A7.5,7.5 0,0 1,30 7.5L30,22.5A7.5,7.5 0,0 1,22.5 30L7.5,30A7.5,7.5 0,0 1,0 22.5L0,7.5A7.5,7.5 0,0 1,7.5 0z" fill="#ffb200" fill-opacity="1.0" /><path d="M11.059,5.813L11.047,5.813L11.047,5.813C10.998,5.812 10.93,5.812 10.868,5.817C10.795,5.823 10.681,5.839 10.559,5.901C10.405,5.98 10.281,6.105 10.202,6.258C10.14,6.38 10.124,6.495 10.118,6.568C10.113,6.629 10.113,6.697 10.113,6.747L10.113,6.747L10.113,6.758V7.527H19.91V6.758L19.91,6.747V6.747C19.91,6.697 19.91,6.629 19.905,6.568C19.899,6.495 19.883,6.38 19.821,6.258C19.743,6.105 19.618,5.98 19.464,5.901C19.343,5.839 19.228,5.823 19.155,5.817C19.094,5.812 19.026,5.812 18.976,5.813L18.965,5.813H11.059ZM10.165,9.33C10.12,9.141 10.114,8.948 10.113,8.73H19.91C19.909,8.948 19.903,9.141 19.858,9.33C19.812,9.522 19.736,9.706 19.633,9.875C19.515,10.067 19.356,10.227 19.169,10.414L19.133,10.45L18.108,11.478C17.895,11.691 17.861,11.732 17.837,11.769C17.809,11.816 17.788,11.866 17.776,11.918C17.766,11.962 17.762,12.014 17.762,12.316V22.698C17.762,23.348 17.395,23.942 16.813,24.233C15.679,24.8 14.344,24.8 13.21,24.233C12.629,23.942 12.262,23.348 12.262,22.698V12.316C12.262,12.014 12.258,11.962 12.248,11.918C12.235,11.866 12.214,11.816 12.186,11.769C12.163,11.732 12.128,11.691 11.916,11.478L10.891,10.45L10.854,10.414C10.668,10.227 10.508,10.067 10.391,9.875C10.288,9.706 10.212,9.522 10.165,9.33ZM14.808,14.961C14.839,15.009 14.837,15.072 14.804,15.119C14.643,15.344 14.549,15.619 14.549,15.917C14.549,16.676 15.164,17.292 15.924,17.292C16.221,17.292 16.495,17.197 16.72,17.038C16.767,17.004 16.829,17.003 16.878,17.033C16.927,17.064 16.952,17.121 16.941,17.178C16.776,18.094 15.975,18.789 15.011,18.789C13.928,18.789 13.05,17.911 13.05,16.828C13.05,15.863 13.746,15.061 14.664,14.897C14.72,14.887 14.778,14.912 14.808,14.961Z" fill="#ffffff" fill-opacity="1.0" /></svg>