<?xml version="1.0" encoding="utf-8" ?>
<svg baseProfile="full" height="16.0" version="1.1" viewBox="0 0 17.0 16.0" width="17.0" xmlns="http://www.w3.org/2000/svg" xmlns:ev="http://www.w3.org/2001/xml-events" xmlns:xlink="http://www.w3.org/1999/xlink"><defs /><path d="M4.222,2.5L6.667,2.5A1.222,1.222 0,0 1,7.889 3.722L7.889,6.167A1.222,1.222 0,0 1,6.667 7.389L4.222,7.389A1.222,1.222 0,0 1,3 6.167L3,3.722A1.222,1.222 0,0 1,4.222 2.5z" fill="#000000" fill-opacity="0.0" /><path d="M4.222,8.611L6.667,8.611A1.222,1.222 0,0 1,7.889 9.834L7.889,12.278A1.222,1.222 0,0 1,6.667 13.5L4.222,13.5A1.222,1.222 0,0 1,3 12.278L3,9.834A1.222,1.222 0,0 1,4.222 8.611z" fill="#000000" fill-opacity="0.0" /><path d="M10.333,2.5L12.778,2.5A1.222,1.222 0,0 1,14 3.722L14,6.167A1.222,1.222 0,0 1,12.778 7.389L10.333,7.389A1.222,1.222 0,0 1,9.111 6.167L9.111,3.722A1.222,1.222 0,0 1,10.333 2.5z" fill="#000000" fill-opacity="0.0" /><path d="M10.333,8.611L12.778,8.611A1.222,1.222 0,0 1,14 9.834L14,12.278A1.222,1.222 0,0 1,12.778 13.5L10.333,13.5A1.222,1.222 0,0 1,9.111 12.278L9.111,9.834A1.222,1.222 0,0 1,10.333 8.611z" fill="#000000" fill-opacity="0.0" /></svg>