<?xml version="1.0" encoding="utf-8" ?>
<svg baseProfile="full" height="48.0" version="1.1" viewBox="0 0 48.0 48.0" width="48.0" xmlns="http://www.w3.org/2000/svg" xmlns:ev="http://www.w3.org/2001/xml-events" xmlns:xlink="http://www.w3.org/1999/xlink"><defs /><path d="M9.59922,4.80078 L38.3992,4.80078 Q40.7992,4.80078,40.7992,7.20078 L40.7992,16.8008 Q40.7992,19.2008,38.3992,19.2008 L9.59922,19.2008 Q7.19922,19.2008,7.19922,16.8008 L7.19922,7.20078 Q7.19922,4.80078,9.59922,4.80078 Z" fill="#ffffff" fill-opacity="1.0" /><path d="M9.59922,21.6016 L20.3992,21.6016 Q22.7992,21.6016,22.7992,24.0016 L22.7992,40.8016 Q22.7992,43.2016,20.3992,43.2016 L9.59922,43.2016 Q7.19922,43.2016,7.19922,40.8016 L7.19922,24.0016 Q7.19922,21.6016,9.59922,21.6016 Z" fill="#ffffff" fill-opacity="1.0" /><path d="M27.5992,21.6016 L38.3992,21.6016 Q40.7992,21.6016,40.7992,24.0016 L40.7992,40.8016 Q40.7992,43.2016,38.3992,43.2016 L27.5992,43.2016 Q25.1992,43.2016,25.1992,40.8016 L25.1992,24.0016 Q25.1992,21.6016,27.5992,21.6016 Z" fill="#ffffff" fill-opacity="1.0" /></svg>