<?xml version="1.0" encoding="utf-8" ?>
<svg baseProfile="full" height="48.0" version="1.1" viewBox="0 0 48.0 48.0" width="48.0" xmlns="http://www.w3.org/2000/svg" xmlns:ev="http://www.w3.org/2001/xml-events" xmlns:xlink="http://www.w3.org/1999/xlink"><defs /><path d="M9.59922,4.80078 L38.3992,4.80078 Q40.7992,4.80078,40.7992,7.20078 L40.7992,16.8008 Q40.7992,19.2008,38.3992,19.2008 L9.59922,19.2008 Q7.19922,19.2008,7.19922,16.8008 L7.19922,7.20078 Q7.19922,4.80078,9.59922,4.80078 Z" fill="#ffffff" fill-opacity="1.0" /><path d="M9.59922,21.6016 L20.3992,21.6016 Q22.7992,21.6016,22.7992,24.0016 L22.7992,40.8016 Q22.7992,43.2016,20.3992,43.2016 L9.59922,43.2016 Q7.19922,43.2016,7.19922,40.8016 L7.19922,24.0016 Q7.19922,21.6016,9.59922,21.6016 Z" fill="#ffffff" fill-opacity="1.0" /><path d="M25.1992,38.0016 L25.1992,40.8016 C25.1992,42.127,26.2737,43.2016,27.5992,43.2016 L29.3992,43.2016 L29.3992,42.2416 L27.5992,42.2416 C26.8039,42.2416,26.1592,41.5969,26.1592,40.8016 L26.1592,38.0016 L25.1992,38.0016 Z M25.1992,35.2016 L26.1592,35.2016 L26.1592,29.6016 L25.1992,29.6016 L25.1992,35.2016 Z M25.1992,26.8016 L26.1592,26.8016 L26.1592,24.0016 C26.1592,23.2063,26.8039,22.5616,27.5992,22.5616 L29.3992,22.5616 L29.3992,21.6016 L27.5992,21.6016 C26.2737,21.6016,25.1992,22.6761,25.1992,24.0016 L25.1992,26.8016 Z M31.1992,21.6016 L31.1992,22.5616 L34.7992,22.5616 L34.7992,21.6016 L31.1992,21.6016 Z M36.5992,21.6016 L36.5992,22.5616 L38.3992,22.5616 C39.1945,22.5616,39.8392,23.2063,39.8392,24.0016 L39.8392,26.8016 L40.7992,26.8016 L40.7992,24.0016 C40.7992,22.6761,39.7247,21.6016,38.3992,21.6016 L36.5992,21.6016 Z M40.7992,29.6016 L39.8392,29.6016 L39.8392,35.2016 L40.7992,35.2016 L40.7992,29.6016 Z M40.7992,38.0016 L39.8392,38.0016 L39.8392,40.8016 C39.8392,41.5969,39.1945,42.2416,38.3992,42.2416 L36.5992,42.2416 L36.5992,43.2016 L38.3992,43.2016 C39.7247,43.2016,40.7992,42.127,40.7992,40.8016 L40.7992,38.0016 Z M34.7992,43.2016 L34.7992,42.2416 L31.1992,42.2416 L31.1992,43.2016 L34.7992,43.2016 Z" fill="#ffffff" fill-opacity="1.0" /></svg>