<?xml version="1.0" encoding="utf-8" ?>
<svg baseProfile="full" height="40.0" version="1.1" viewBox="0 0 40.0 40.0" width="40.0" xmlns="http://www.w3.org/2000/svg" xmlns:ev="http://www.w3.org/2001/xml-events" xmlns:xlink="http://www.w3.org/1999/xlink"><defs /><path d="M36.48 10.5c0.5-0.26 1.1-0.06 1.35 0.43 1.37 2.7 2.12 5.69 2.17 8.73 0.05 3.03-0.6 6.04-1.87 8.8-0.24 0.5-0.83 0.7-1.33 0.47-0.5-0.23-0.72-0.82-0.49-1.32 1.16-2.48 1.73-5.19 1.69-7.92-0.05-2.73-0.72-5.42-1.96-7.85-0.25-0.5-0.05-1.1 0.44-1.35ZM3.2 11.05C3.7 11.3 3.92 11.9 3.7 12.4 2.53 14.87 1.96 17.57 2 20.3c0.05 2.74 0.72 5.42 1.95 7.86 0.25 0.49 0.06 1.09-0.43 1.34-0.5 0.25-1.1 0.05-1.35-0.44-1.37-2.7-2.12-5.69-2.17-8.72-0.05-3.04 0.6-6.04 1.87-8.8 0.24-0.5 0.83-0.71 1.33-0.48Zm30.06 4.35c0.54-0.14 1.09 0.17 1.23 0.7 0.68 2.55 0.68 5.23 0 7.77-0.14 0.53-0.7 0.85-1.23 0.7-0.53-0.14-0.85-0.68-0.7-1.22 0.59-2.2 0.59-4.52 0-6.73-0.15-0.53 0.17-1.08 0.7-1.22Zm-26.52 0c0.53 0.14 0.85 0.69 0.7 1.22-0.59 2.2-0.59 4.53 0 6.73 0.15 0.54-0.17 1.08-0.7 1.23-0.54 0.14-1.09-0.18-1.23-0.7-0.68-2.55-0.68-5.23 0-7.77 0.14-0.54 0.7-0.85 1.23-0.71Z" fill="#ffffff" fill-opacity="1.0" /><path d="M10.78 17.65L29.2 1.13c0.29-0.25 0.72 0.1 0.53 0.43l-6.4 11.4h6.52c0.28 0 0.46 0.33 0.28 0.55l-6.5 8.25h5.34c0.32 0 0.48 0.39 0.25 0.6L10.8 38.85c-0.28 0.26-0.72-0.1-0.53-0.42l6.55-11.65h-5.6c-0.29 0-0.46-0.33-0.3-0.55l6-8h-5.9c-0.3 0-0.47-0.39-0.24-0.6Z" fill="#ffffff" fill-opacity="1.0" /></svg>