<?xml version="1.0" encoding="utf-8" ?>
<svg baseProfile="full" height="16.0" version="1.1" viewBox="0 0 59.0 16.0" width="59.0" xmlns="http://www.w3.org/2000/svg" xmlns:ev="http://www.w3.org/2001/xml-events" xmlns:xlink="http://www.w3.org/1999/xlink"><defs /><path d="M30.18 14.06h1.66L33.33 3.5h-1.66l-1.5 10.56Zm8.4-10.81h3.16l-1.23 8.4c-0.02 0.16-0.05 0.31-0.1 0.46l-0.1 0.1c-0.03 0.03-0.07 0.05-0.1 0.06-0.17 0.03-0.33 0.03-0.48 0-0.16 0.02-0.32 0.02-0.47 0h-1.2L38.13 14c0.58 0 1.18-0.02 1.83-0.06 0.4 0 0.8-0.07 1.19-0.2 0.28-0.14 0.5-0.36 0.66-0.63 0.19-0.36 0.3-0.76 0.35-1.16L43.59 1.7h-6.88L36.6 2.02l-2.74 6.5 2.1-0.38-2.74 7.16 6.85-9.39-2.6 0.42 1.12-3.08ZM33.54 0.7l-1.28 1.14c0.38 0.31 0.73 0.66 1.05 1.04 0.33 0.38 0.64 0.78 0.92 1.19l1.36-1.23c-0.1-0.13-0.36-0.43-0.79-0.9L34.61 1.7c-0.34-0.35-0.7-0.68-1.07-1ZM28.45 11c-0.1 0.3-0.22 0.59-0.36 0.9l-0.38 0.74c-0.24 0.45-0.54 0.86-0.9 1.22-0.3 0.26-0.67 0.4-1.06 0.4-0.38-0.03-0.75-0.18-1.05-0.42-0.4-0.36-0.7-0.8-0.88-1.3l-0.17-0.4c-0.89 0.5-1.81 0.94-2.77 1.31l-0.43-1.14-0.7 0.16-1.7 0.43c-1.03 0.24-1.84 0.42-2.43 0.53l-0.06-1.54c0.58-0.08 1.4-0.25 2.47-0.51 1.07-0.26 1.95-0.53 2.47-0.7v0.75 0.49c0.95-0.37 1.88-0.81 2.76-1.31-0.12-0.87-0.19-1.75-0.2-2.63L21.18 8.2l0.07-1.52 1.81-0.25v-1.1l-1.15 0.12 0.08-1.29C21.42 5 20.94 5.71 20.42 6.33c-0.53 0.73-1.1 1.43-1.7 2.09 0.74-0.08 1.49-0.23 2.21-0.43l-0.16 1.57c-0.6 0.12-1.28 0.23-2.03 0.35-0.76 0.11-1.6 0.22-2.27 0.28l-0.09-1.62c0.2-0.02 0.39-0.08 0.56-0.18 0.17-0.13 0.33-0.27 0.47-0.42 0.34-0.39 0.81-0.98 1.4-1.78h-0.5c-0.54 0-1.1 0.06-1.65 0.08V4.8c0.22-0.06 0.43-0.19 0.58-0.37 0.45-0.5 0.87-1.04 1.26-1.6 0.41-0.6 0.85-1.27 1.29-2.09l1.34 0.64c-0.39 0.6-0.82 1.22-1.28 1.83-0.4 0.55-0.84 1.06-1.32 1.54 0.49 0 0.95 0 1.36-0.1 0.45-0.62 0.85-1.2 1.22-1.76l1.26 0.73-0.18 0.26 1.05-0.1 0.18-2.76L25 0.96 24.78 3.7l1.77-0.2c-0.11-0.2-0.27-0.45-0.47-0.75-0.2-0.33-0.4-0.65-0.63-0.96l1.16-0.82c0.25 0.3 0.48 0.6 0.69 0.93 0.25 0.33 0.47 0.68 0.67 1.04l-0.8 0.5 1.82-0.2-0.06 1.43-4.2 0.5V6.2l4.31-0.51-0.1 1.5-1.64 0.29 0.94 1.04c-0.97 0.99-2.02 1.9-3.15 2.71 0.05 0.2 0.12 0.38 0.21 0.56 0.2 0.47 0.44 0.71 0.7 0.71 0.06 0 0.11-0.02 0.16-0.04 0.05-0.03 0.09-0.07 0.12-0.11 0.13-0.16 0.24-0.34 0.31-0.52 0.22-0.5 0.41-1 0.57-1.5l1.25 0.72 0.04-0.05Zm-3.79-3.19c0 0.72 0.08 1.34 0.14 1.85 0.9-0.65 1.75-1.38 2.52-2.18l-2.66 0.34ZM14.3 10.36c-0.1 0.53-0.23 1.06-0.4 1.58-0.1 0.36-0.24 0.71-0.42 1.04-0.14 0.24-0.35 0.43-0.6 0.55-0.35 0.13-0.71 0.2-1.08 0.2h-1.33-1.67c-0.2 0.01-0.39-0.03-0.56-0.11-0.18-0.08-0.33-0.21-0.44-0.37-0.18-0.43-0.22-0.91-0.12-1.37l0.56-3.92C7.9 8.75 7.48 9.5 6.98 10.19c-0.56 0.75-1.22 1.42-1.96 2-0.92 0.73-1.9 1.4-2.92 1.98L1.22 12.7c0.9-0.46 1.75-1 2.55-1.6 0.67-0.5 1.27-1.11 1.77-1.79 0.5-0.66 0.91-1.4 1.2-2.19H2.4l0.22-1.57h4.65c0.1-0.37 0.17-0.7 0.23-1.04l0.25-1.33H3.77L4 1.62h10.56l-0.22 1.57H9.5L9.24 4.65c0 0.12-0.05 0.27-0.1 0.47 0 0.13-0.07 0.27-0.1 0.44h5.8l-0.22 1.59H8.54C8.5 7.22 8.47 7.3 8.45 7.38l-0.1 0.29h1.53l-0.56 3.98c-0.06 0.18-0.06 0.37 0 0.55 0.07 0.08 0.22 0.15 0.5 0.15h1.76c0.14 0 0.28-0.03 0.41-0.08 0.1-0.04 0.17-0.12 0.22-0.21 0.08-0.18 0.14-0.35 0.18-0.54 0.14-0.59 0.24-1.1 0.3-1.55l1.56 0.4 0.04-0.01Zm42.77 0.25l-1.6-0.37v0.06l-0.21 1.05c-0.06 0.22-0.15 0.44-0.28 0.63-0.05 0.07-0.12 0.13-0.2 0.17-0.07 0.05-0.16 0.07-0.25 0.07h-0.67-0.45c-0.11 0.01-0.22 0-0.33-0.05-0.1-0.04-0.18-0.11-0.25-0.2-0.09-0.27-0.09-0.57 0-0.84L53.26 8h0.64l0.94-0.06c0.2 0.28 0.37 0.57 0.53 0.87l1.47-1.23c-0.4-0.68-0.86-1.33-1.37-1.95-0.44-0.57-0.92-1.11-1.44-1.61h3.53l0.22-1.63h-5.01V2.2 2.05 1.87 1.79c0-0.13 0-0.45-0.12-0.97l-1.74 0.2c0.06 0.32 0.1 0.64 0.12 0.95V2.4h-5.25l-0.37 1.63h3.68l-0.78 0.74c-0.57 0.53-1.17 1.03-1.8 1.5-0.28 0.23-0.62 0.38-0.98 0.43v1.63h2.52l-0.01 0.2C47.9 9 47.74 9.46 47.5 9.91c-0.19 0.38-0.44 0.73-0.73 1.04-0.37 0.38-0.78 0.72-1.23 1-0.6 0.34-1.21 0.63-1.85 0.88l0.83 1.5c0.73-0.33 1.43-0.7 2.1-1.14 0.54-0.35 1.04-0.76 1.48-1.23 0.82-0.97 1.37-2.14 1.6-3.39 0.04-0.12 0.07-0.24 0.08-0.36h0.6 1.05l-0.48 3.44c-0.06 0.41-0.06 0.84 0 1.25 0.03 0.14 0.08 0.27 0.17 0.39 0.09 0.12 0.2 0.21 0.32 0.28 0.37 0.18 0.78 0.27 1.2 0.26h0.84 1.05c0.39-0.02 0.77-0.1 1.13-0.25 0.26-0.13 0.49-0.33 0.64-0.58 0.19-0.32 0.33-0.67 0.43-1.04 0-0.14 0.06-0.28 0.1-0.42l0.2-0.83 0.02-0.1Zm-5.52-4.07c0.65 0 1.37-0.08 2.2-0.17C53.38 5.9 53 5.45 52.6 5.03l1.36-1.04h-2.7l-1.21 1.15c-0.58 0.54-1.2 1.04-1.83 1.5 0.85 0 1.95-0.03 3.3-0.09l0.02-0.01Z" fill="#ffffff" fill-opacity="1.0" /></svg>