<?xml version="1.0" encoding="utf-8" ?>
<svg baseProfile="full" height="13.0" version="1.1" viewBox="0 0 53.0 13.0" width="53.0" xmlns="http://www.w3.org/2000/svg" xmlns:ev="http://www.w3.org/2001/xml-events" xmlns:xlink="http://www.w3.org/1999/xlink"><defs /><path d="M27.1 11.94h1.5l1.34-9.49h-1.5l-1.33 9.5Zm7.56-9.71h2.83l-1.1 7.55c-0.02 0.14-0.05 0.28-0.1 0.41l-0.07 0.1-0.1 0.05c-0.15 0.02-0.3 0.02-0.43 0h-0.43-1.07l0.06 1.54c0.52 0 1.07-0.01 1.65-0.05 0.36 0 0.72-0.06 1.06-0.18 0.25-0.13 0.46-0.32 0.6-0.57 0.17-0.32 0.27-0.68 0.3-1.04l1.3-9.2h-6.18l-0.11 0.28-2.46 5.85 1.89-0.35-2.46 6.44 6.15-8.43L33.66 5l1-2.77Zm-4.53-2.29l-1.15 1.03c0.34 0.28 0.66 0.59 0.94 0.93 0.3 0.34 0.57 0.7 0.83 1.07l1.22-1.1c-0.09-0.12-0.32-0.4-0.7-0.82l-0.18-0.2c-0.3-0.32-0.62-0.62-0.96-0.9ZM25.56 9.2c-0.1 0.26-0.2 0.52-0.33 0.8S25 10.5 24.9 10.67c-0.21 0.4-0.49 0.77-0.81 1.1-0.26 0.23-0.6 0.35-0.94 0.35-0.35-0.02-0.68-0.15-0.95-0.38-0.35-0.32-0.62-0.72-0.8-1.17l-0.14-0.35c-0.8 0.45-1.64 0.85-2.5 1.18l-0.38-1.03-0.62 0.15-1.54 0.38c-0.92 0.22-1.65 0.38-2.18 0.48l-0.05-1.39c0.52-0.07 1.26-0.22 2.22-0.46 0.96-0.23 1.74-0.47 2.22-0.62v0.67 0.44C19.27 9.7 20.1 9.3 20.9 8.84c-0.11-0.78-0.17-1.57-0.18-2.36l-1.69 0.2 0.06-1.36 1.63-0.22v-1l-1.04 0.11 0.08-1.15C19.24 3.8 18.8 4.44 18.34 5c-0.47 0.66-0.98 1.28-1.53 1.87 0.68-0.07 1.34-0.2 2-0.38L18.65 7.9c-0.55 0.1-1.15 0.21-1.83 0.31-0.68 0.1-1.43 0.2-2.04 0.26l-0.07-1.45c0.17-0.03 0.34-0.08 0.5-0.17 0.15-0.11 0.3-0.24 0.42-0.38 0.3-0.34 0.73-0.88 1.26-1.6h-0.45c-0.49 0-0.99 0.06-1.49 0.08V3.62c0.2-0.05 0.4-0.16 0.53-0.32 0.4-0.46 0.78-0.94 1.13-1.45 0.37-0.53 0.76-1.14 1.15-1.87l1.21 0.57c-0.35 0.55-0.73 1.1-1.15 1.65-0.36 0.5-0.75 0.95-1.19 1.38 0.45 0 0.86 0 1.23-0.09l1.1-1.58 1.13 0.66-0.16 0.23 0.94-0.1 0.16-2.47 1.4-0.05-0.18 2.45 1.6-0.18-0.43-0.68c-0.18-0.3-0.37-0.58-0.57-0.86l1.04-0.73c0.23 0.26 0.43 0.54 0.62 0.83 0.23 0.3 0.43 0.61 0.6 0.94L24.4 2.4l1.64-0.19L26 3.51 22.2 3.93v0.94l3.88-0.46L26 5.77l-1.48 0.26 0.85 0.94c-0.87 0.89-1.82 1.7-2.83 2.43 0.05 0.18 0.11 0.35 0.19 0.5 0.18 0.43 0.4 0.65 0.63 0.65 0.05 0 0.1-0.02 0.14-0.05 0.04-0.02 0.08-0.05 0.1-0.1 0.12-0.14 0.22-0.3 0.29-0.46 0.2-0.44 0.37-0.9 0.51-1.35l1.12 0.65 0.04-0.04Zm-3.4-2.87c0 0.65 0.06 1.2 0.12 1.66 0.8-0.59 1.57-1.24 2.26-1.96l-2.39 0.31Zm-9.32 2.29c-0.1 0.48-0.21 0.95-0.36 1.42-0.09 0.33-0.22 0.64-0.38 0.94-0.13 0.21-0.32 0.38-0.55 0.48-0.3 0.12-0.63 0.18-0.96 0.2H9.4 7.9c-0.17 0-0.34-0.04-0.5-0.11-0.16-0.08-0.3-0.19-0.4-0.33-0.16-0.4-0.2-0.82-0.1-1.24l0.5-3.52c-0.3 0.71-0.67 1.38-1.12 2-0.5 0.68-1.1 1.28-1.76 1.8-0.82 0.66-1.7 1.26-2.62 1.78l-0.8-1.33c0.81-0.4 1.58-0.89 2.3-1.43 0.6-0.46 1.14-1 1.59-1.6C5.43 7.07 5.8 6.4 6.06 5.7h-3.9l0.2-1.41h4.17c0.09-0.33 0.15-0.64 0.21-0.94l0.22-1.19H3.39l0.2-1.4h9.5l-0.2 1.42H8.53L8.3 3.5c0 0.1-0.05 0.25-0.1 0.43 0 0.1-0.05 0.24-0.08 0.39h5.2l-0.19 1.42H7.68C7.64 5.8 7.6 5.87 7.59 5.95 7.57 6.03 7.53 6.12 7.5 6.2h1.38l-0.5 3.58c-0.05 0.16-0.05 0.33 0 0.5 0.06 0.07 0.2 0.13 0.45 0.13h1.58c0.13-0.01 0.25-0.03 0.37-0.07 0.09-0.04 0.16-0.11 0.2-0.2 0.07-0.15 0.12-0.31 0.16-0.47 0.12-0.54 0.22-1 0.27-1.4l1.4 0.36 0.04-0.01Zm38.42 0.22l-1.44-0.33v0.06l-0.2 0.94c-0.04 0.2-0.13 0.4-0.24 0.57-0.04 0.06-0.1 0.11-0.17 0.15-0.08 0.04-0.15 0.06-0.23 0.06h-0.6-0.41c-0.1 0.01-0.2 0-0.3-0.04-0.08-0.04-0.16-0.1-0.22-0.18-0.08-0.25-0.08-0.51 0-0.76l0.4-2.81h0.57l0.84-0.06c0.18 0.25 0.34 0.52 0.48 0.79l1.32-1.1c-0.36-0.62-0.78-1.2-1.23-1.76-0.4-0.51-0.83-1-1.3-1.45h3.17l0.2-1.46h-4.5V1.27v-0.1-0.18-0.07c0-0.11 0-0.4-0.1-0.87l-1.57 0.18c0.06 0.29 0.1 0.57 0.11 0.86v0.37h-4.72L40.8 2.92h3.3c-0.29 0.3-0.52 0.5-0.7 0.67-0.5 0.47-1.04 0.92-1.6 1.35-0.26 0.2-0.57 0.33-0.9 0.38v1.47h2.27v0.18C43.03 7.4 42.87 7.8 42.67 8.2c-0.17 0.35-0.4 0.66-0.66 0.94-0.33 0.34-0.7 0.64-1.1 0.89-0.53 0.3-1.09 0.58-1.66 0.8L40 12.18c0.66-0.29 1.29-0.63 1.89-1.02 0.49-0.31 0.93-0.68 1.33-1.1 0.73-0.88 1.23-1.93 1.43-3.04 0.04-0.11 0.06-0.22 0.08-0.33h0.54 0.94l-0.43 3.09c-0.06 0.37-0.06 0.75 0 1.12 0.02 0.13 0.07 0.25 0.15 0.35 0.08 0.1 0.18 0.2 0.3 0.25 0.32 0.16 0.69 0.24 1.06 0.24h0.76H49c0.34-0.02 0.68-0.1 1-0.23 0.24-0.11 0.45-0.29 0.58-0.51 0.17-0.3 0.3-0.61 0.39-0.94 0-0.13 0.05-0.25 0.1-0.38l0.16-0.75 0.03-0.09ZM46.3 5.2c0.58 0 1.23-0.08 1.97-0.15-0.3-0.43-0.65-0.83-1.02-1.2l1.23-0.95h-2.43c-0.23 0.24-0.6 0.59-1.1 1.04-0.51 0.49-1.06 0.94-1.64 1.35 0.77 0 1.76-0.03 2.98-0.08V5.19Z" fill="#ffffff" fill-opacity="1.0" /></svg>