<?xml version="1.0" encoding="utf-8" ?>
<svg baseProfile="full" height="12.0" version="1.1" viewBox="0 0 72.0 12.0" width="72.0" xmlns="http://www.w3.org/2000/svg" xmlns:ev="http://www.w3.org/2001/xml-events" xmlns:xlink="http://www.w3.org/1999/xlink"><defs /><path d="M41.99 8.23c-0.56 1.13-1.34 2.04-2.36 2.73-1.01 0.7-2.16 1.04-3.45 1.04-0.93 0-1.74-0.2-2.42-0.57-0.68-0.38-1.2-0.92-1.58-1.62-0.36-0.7-0.54-1.5-0.54-2.44 0-1.27 0.27-2.47 0.84-3.6 0.55-1.13 1.33-2.04 2.34-2.73C35.84 0.35 37 0 38.29 0c0.92 0 1.72 0.2 2.4 0.57 0.68 0.38 1.21 0.92 1.58 1.62 0.38 0.7 0.56 1.5 0.56 2.44 0 1.27-0.28 2.47-0.84 3.6Zm-7.12 0.9c0.41 0.5 0.97 0.76 1.67 0.76 0.77 0 1.43-0.25 1.98-0.76 0.55-0.52 0.98-1.16 1.26-1.93 0.29-0.77 0.44-1.53 0.44-2.26 0-0.88-0.21-1.56-0.62-2.07-0.41-0.5-0.97-0.75-1.68-0.75-0.76 0-1.42 0.25-1.97 0.75-0.56 0.52-0.98 1.16-1.26 1.93-0.3 0.77-0.44 1.53-0.44 2.26 0 0.88 0.2 1.56 0.62 2.07Zm18.61-0.9c-0.56 1.13-1.35 2.04-2.36 2.73-1.01 0.7-2.17 1.04-3.45 1.04-0.93 0-1.74-0.2-2.43-0.57-0.68-0.38-1.2-0.92-1.56-1.62-0.37-0.7-0.56-1.5-0.56-2.44 0-1.27 0.29-2.47 0.84-3.6s1.34-2.04 2.35-2.73C47.33 0.35 48.48 0 49.77 0c0.92 0 1.73 0.2 2.41 0.57 0.69 0.38 1.22 0.92 1.59 1.62 0.36 0.7 0.55 1.5 0.55 2.44 0 1.27-0.28 2.47-0.84 3.6Zm-7.12 0.9c0.41 0.5 0.97 0.76 1.68 0.76 0.75 0 1.41-0.25 1.97-0.76 0.56-0.52 0.98-1.16 1.26-1.93 0.3-0.77 0.44-1.53 0.44-2.26 0-0.88-0.21-1.56-0.62-2.07-0.41-0.5-0.97-0.75-1.68-0.75-0.76 0-1.42 0.25-1.97 0.75-0.56 0.53-0.97 1.17-1.27 1.94-0.28 0.77-0.43 1.53-0.43 2.26 0 0.87 0.2 1.56 0.62 2.06ZM28.2 4.1l1.64-3.88h3.6l-5.8 11.59h-3.28L22.65 0.23h3.6L24.7 5.95l1.91-0.37-1.61 5.11 5.18-6.9-1.98 0.32Zm30.7-1.23c0.57-0.5 1.23-0.77 1.99-0.77 0.58 0 1.05 0.15 1.38 0.45 0.33 0.29 0.54 0.73 0.6 1.32h2.54c-0.07-1.26-0.62-2.52-1.4-3.13C63.33 0.25 62.44 0 61.31 0c-1.3 0-2.46 0.34-3.49 1.03-1.02 0.69-1.81 1.6-2.37 2.72-0.57 1.13-0.85 2.33-0.85 3.6 0 0.93 0.19 1.76 0.55 2.45 0.37 0.7 0.9 1.25 1.6 1.63 0.7 0.38 1.52 0.57 2.46 0.57 1.12 0 2.14-0.2 2.95-0.75 2.01-1.36 2.48-3.12 2.48-3.12h-2.51c-0.57 1.17-1.44 1.76-2.6 1.76-0.73 0-1.3-0.25-1.7-0.76-0.42-0.5-0.62-1.2-0.62-2.07 0-0.76 0.15-1.51 0.43-2.27s0.71-1.4 1.26-1.9ZM3.06 8.2h4.7l0.63 3.6h1.15L7.4 0.23H6.22L0 11.8h1.17l1.89-3.6Zm3.56-6.83l1 5.85H3.57L6.6 1.37h0.01Zm6.75-1.14L11.34 11.8h-1.1l2.04-11.57h1.09Zm6.66 5.95C20.57 5.8 21 5.32 21.3 4.73c0.3-0.6 0.44-1.25 0.44-1.95 0-0.79-0.23-1.4-0.7-1.86-0.46-0.46-1.11-0.69-1.97-0.69h-4.13L12.89 11.8H14l0.87-4.99h2.1l2.68 4.99h1.34l-2.81-5c0.7-0.05 1.32-0.26 1.86-0.62Zm-2.09-0.31h-2.91l0.84-4.7h2.88c0.61 0 1.08 0.16 1.4 0.46 0.3 0.31 0.46 0.74 0.46 1.3 0 0.54-0.1 1.03-0.32 1.48-0.21 0.44-0.52 0.8-0.93 1.06-0.4 0.26-0.87 0.4-1.42 0.4ZM68.46 8.5h0.67l1.09 2.9 1.11-2.9H72v3.33h-0.4V8.87h-0.02l-1.15 2.96h-0.44L68.88 8.9h-0.03v2.93h-0.4V8.5Zm-3.04 0.37h1.1v2.96h0.4V8.87h1.1V8.5h-2.6v0.37Z" fill="#ffffff" fill-opacity="1.0" /></svg>