<?xml version="1.0" encoding="utf-8" ?>
<svg baseProfile="full" height="40.0" version="1.1" viewBox="0 0 40.0 40.0" width="40.0" xmlns="http://www.w3.org/2000/svg" xmlns:ev="http://www.w3.org/2001/xml-events" xmlns:xlink="http://www.w3.org/1999/xlink"><defs /><path d="M32.7 12.67c1.3 2.23 1.97 4.76 1.97 7.33 0 2.57-0.68 5.1-1.97 7.33" fill="#000000" fill-opacity="1.0" /><path d="M7.3 27.33C6.01 25.1 5.34 22.57 5.34 20c0-2.57 0.67-5.1 1.96-7.33" fill="#000000" fill-opacity="1.0" /><path d="M27.9 14.67c0.94 1.62 1.43 3.46 1.43 5.33s-0.49 3.71-1.43 5.33" fill="#000000" fill-opacity="1.0" /><path d="M12.1 25.33c-0.94-1.62-1.43-3.46-1.43-5.33s0.5-3.71 1.43-5.33" fill="#000000" fill-opacity="1.0" /><path d="M14.78 21.38c-0.17 0.43 0.16 0.9 0.62 0.9h4.24L19 31.32c-0.05 0.77 1.03 1 1.3 0.28l4.93-13.48c0.16-0.44-0.16-0.9-0.62-0.9h-4.24l0.62-8.6c0.06-0.78-1.01-1.01-1.28-0.3l-4.93 13.06Z" fill="#ffffff" fill-opacity="1.0" /></svg>