<?xml version="1.0" encoding="utf-8" ?>
<svg baseProfile="full" height="15.0" version="1.1" viewBox="0 0 29.0 15.0" width="29.0" xmlns="http://www.w3.org/2000/svg" xmlns:ev="http://www.w3.org/2001/xml-events" xmlns:xlink="http://www.w3.org/1999/xlink"><defs /><path d="M1.97 2.38c-0.51-0.53-0.91-0.9-1.2-1.11l1.19-1.22c0.48 0.4 0.89 0.76 1.21 1.08l0.24 0.25c0.52 0.5 0.84 0.81 0.96 0.96l-1.25 1.3C2.88 3.32 2.5 2.9 1.98 2.38Zm2.67-1.29h8.07v10.89c0 0.52-0.07 0.93-0.2 1.23-0.12 0.3-0.32 0.52-0.61 0.66-0.28 0.15-0.68 0.26-1.2 0.32-0.66 0.04-1.3 0.07-1.9 0.05l-0.35-1.83c0.5 0.04 0.93 0.06 1.28 0.06l0.49-0.01c0.23-0.01 0.39-0.03 0.48-0.06 0.1-0.03 0.17-0.09 0.2-0.18s0.04-0.25 0.04-0.48v-1.62l-1.23 1.29c-0.43-0.58-1.05-1.29-1.85-2.12-0.45-0.48-0.85-0.9-1.21-1.24l-0.21 0.4c-0.75 1.3-1.85 2.39-3.3 3.29l-0.99-1.2v3.72H0.4V3.03h1.75v7.04C3.51 9.2 4.43 8.36 4.91 7.54c0.48-0.84 0.72-2 0.72-3.46V3.43h1.79v0.78c0 0.77-0.07 1.46-0.2 2.08 0.45 0.38 1.07 0.92 1.84 1.64 0.7 0.66 1.32 1.3 1.88 1.94v-7.1h-6.3V1.09Zm23.61 9.53c-0.03 0.39-0.07 0.84-0.14 1.35-0.05 0.48-0.15 0.87-0.28 1.13-0.13 0.28-0.33 0.47-0.6 0.6-0.27 0.15-0.66 0.24-1.16 0.28-0.2 0.01-0.59 0.03-1.14 0.03l-0.9-0.02c-0.57-0.03-1-0.13-1.3-0.29-0.29-0.14-0.49-0.38-0.6-0.7-0.11-0.32-0.16-0.77-0.16-1.34V7.95L20.91 8l-0.64 0.03c0 0.16 0 0.29-0.03 0.39-0.11 1.48-0.51 2.69-1.18 3.6-0.36 0.46-0.82 0.9-1.38 1.3-0.56 0.41-1.25 0.81-2.06 1.21l-1.09-1.6c0.73-0.31 1.33-0.63 1.8-0.95 0.48-0.31 0.87-0.67 1.17-1.04 0.26-0.33 0.46-0.7 0.6-1.11 0.15-0.43 0.25-0.91 0.32-1.46l0.02-0.29c-0.98 0.04-1.87 0.05-2.65 0.05L15.53 6.4c0.25 0 0.58-0.15 0.97-0.45 0.34-0.26 0.89-0.8 1.67-1.6l0.7-0.78H15V1.83h5.6l-0.11-0.45c-0.09-0.41-0.18-0.75-0.27-1l1.81-0.23 0.28 1.04 0.05 0.28c0.04 0.11 0.06 0.23 0.08 0.36h5.36v1.72h-3.72c0.43 0.36 1 0.94 1.7 1.72 0.73 0.75 1.3 1.45 1.75 2.08l-1.37 1.3c-0.25-0.38-0.48-0.69-0.69-0.94L24.48 7.8l-0.67 0.04v3.33c0 0.44 0.05 0.74 0.17 0.9 0.11 0.16 0.34 0.24 0.66 0.25l0.45 0.02 0.7-0.03c0.21-0.02 0.36-0.1 0.44-0.24 0.09-0.15 0.15-0.38 0.19-0.69 0.04-0.41 0.06-0.8 0.07-1.16l1.76 0.4ZM18.34 6.4c0.9 0 2.05-0.04 3.48-0.1 0.68-0.04 1.44-0.1 2.29-0.17-0.49-0.58-0.95-1.06-1.4-1.44l1.3-1.13h-2.86c-0.23 0.29-0.6 0.7-1.1 1.23-0.69 0.71-1.25 1.25-1.71 1.61Z" fill="#ffffff" fill-opacity="1.0" /></svg>