<?xml version="1.0" encoding="utf-8" ?>
<svg baseProfile="full" height="32.0" version="1.1" viewBox="0 0 32.0 32.0" width="32.0" xmlns="http://www.w3.org/2000/svg" xmlns:ev="http://www.w3.org/2001/xml-events" xmlns:xlink="http://www.w3.org/1999/xlink"><defs /><path d="M28.7 8.67c1.3 2.23 1.97 4.76 1.97 7.33 0 2.57-0.68 5.1-1.97 7.33" fill="#000000" fill-opacity="1.0" /><path d="M3.3 23.33C2.01 21.1 1.34 18.57 1.34 16c0-2.57 0.67-5.1 1.96-7.33" fill="#000000" fill-opacity="1.0" /><path d="M23.9 10.67c0.94 1.62 1.43 3.46 1.43 5.33s-0.49 3.71-1.43 5.33" fill="#000000" fill-opacity="1.0" /><path d="M8.1 21.33C7.16 19.71 6.67 17.87 6.67 16s0.5-3.71 1.43-5.33" fill="#000000" fill-opacity="1.0" /><path d="M11.17 15.1l9.66-8.65C20.97 6.3 21.2 6.5 21.1 6.67l-3.35 5.97h3.41c0.15 0 0.24 0.17 0.15 0.29l-3.4 4.33h2.8c0.16 0 0.25 0.2 0.13 0.31l-9.66 8.66c-0.15 0.14-0.37-0.05-0.28-0.22l3.44-6.11H11.4c-0.15 0-0.24-0.17-0.15-0.3l3.14-4.18H11.3c-0.16 0-0.25-0.2-0.13-0.31Z" fill="#ffffff" fill-opacity="1.0" /></svg>