<?xml version="1.0" encoding="utf-8" ?>
<svg baseProfile="full" height="16.0" version="1.1" viewBox="0 0 86.0 16.0" width="86.0" xmlns="http://www.w3.org/2000/svg" xmlns:ev="http://www.w3.org/2001/xml-events" xmlns:xlink="http://www.w3.org/1999/xlink"><defs /><path d="M50.15 10.66c-0.67 1.35-1.6 2.44-2.82 3.26-1.2 0.83-2.58 1.24-4.11 1.24-1.12 0-2.08-0.23-2.9-0.68-0.81-0.45-1.44-1.1-1.88-1.93-0.43-0.83-0.65-1.8-0.65-2.92 0-1.51 0.33-2.94 1-4.3 0.66-1.34 1.6-2.43 2.8-3.25 1.22-0.82 2.6-1.24 4.14-1.24 1.1 0 2.06 0.23 2.88 0.68 0.81 0.45 1.44 1.1 1.88 1.93 0.45 0.83 0.67 1.8 0.67 2.92 0 1.51-0.34 2.94-1 4.3Zm-8.5 1.07c0.49 0.6 1.16 0.91 2 0.91 0.91 0 1.7-0.3 2.36-0.91 0.66-0.61 1.17-1.38 1.51-2.3 0.34-0.92 0.52-1.82 0.52-2.7 0-1.04-0.25-1.86-0.74-2.46-0.49-0.6-1.16-0.9-2.01-0.9-0.9 0-1.69 0.3-2.35 0.9-0.67 0.62-1.17 1.38-1.51 2.3-0.35 0.92-0.52 1.82-0.52 2.7 0 1.04 0.25 1.86 0.74 2.46Zm22.23-1.07c-0.67 1.35-1.61 2.44-2.82 3.26-1.21 0.83-2.59 1.24-4.12 1.24-1.11 0-2.08-0.23-2.9-0.68-0.81-0.45-1.44-1.1-1.87-1.93-0.44-0.83-0.66-1.8-0.66-2.92 0-1.51 0.34-2.94 1-4.3 0.66-1.34 1.6-2.43 2.81-3.25 1.21-0.82 2.59-1.24 4.13-1.24 1.1 0 2.06 0.23 2.88 0.68 0.82 0.45 1.45 1.1 1.89 1.93 0.44 0.83 0.66 1.8 0.66 2.92 0 1.51-0.33 2.94-1 4.3Zm-8.51 1.07c0.5 0.6 1.16 0.91 2.01 0.91 0.9 0 1.69-0.3 2.35-0.91 0.67-0.61 1.17-1.38 1.51-2.3 0.35-0.92 0.52-1.82 0.52-2.7 0-1.04-0.25-1.86-0.74-2.46-0.49-0.6-1.16-0.9-2-0.9-0.91 0-1.7 0.3-2.36 0.9C56 4.9 55.5 5.66 55.15 6.58c-0.34 0.92-0.52 1.82-0.52 2.7 0 1.04 0.25 1.86 0.74 2.46ZM33.7 5.75l1.95-4.63h4.3l-6.92 13.82h-3.92L27.05 1.12h4.3l-1.83 6.82L31.8 7.5l-1.93 6.1 6.19-8.24-2.36 0.39Zm36.67-1.47c0.67-0.61 1.46-0.92 2.37-0.92 0.7 0 1.25 0.18 1.65 0.53 0.4 0.35 0.64 0.88 0.72 1.58h3.03c-0.08-1.5-0.74-3.01-1.68-3.73-0.8-0.6-1.87-0.9-3.21-0.9-1.56 0-2.95 0.41-4.17 1.23-1.22 0.82-2.17 1.9-2.84 3.24-0.68 1.35-1.01 2.78-1.01 4.3 0 1.11 0.22 2.1 0.66 2.93 0.44 0.84 1.08 1.49 1.91 1.94 0.83 0.45 1.81 0.68 2.93 0.68 1.34 0 2.56-0.24 3.53-0.9 2.4-1.62 2.96-3.72 2.96-3.72h-3c-0.68 1.4-1.72 2.1-3.11 2.1-0.86 0-1.54-0.3-2.03-0.9-0.49-0.61-0.73-1.44-0.73-2.48 0-0.9 0.17-1.8 0.51-2.7 0.34-0.91 0.85-1.67 1.51-2.28ZM3.65 10.62h5.63l0.74 4.3h1.38L8.83 1.12h-1.4L0 14.92h1.4l2.25-4.3Zm4.26-8.14L9.1 9.46H4.26L7.9 2.48Zm8.06-1.36l-2.43 13.8h-1.3l2.43-13.8h1.3Zm7.96 7.09c0.64-0.44 1.14-1.02 1.5-1.73 0.35-0.71 0.53-1.49 0.53-2.32 0-0.94-0.28-1.68-0.84-2.22-0.55-0.55-1.33-0.82-2.35-0.82h-4.94l-2.43 13.8h1.3l1.05-5.95h2.5l3.21 5.95h1.6L21.7 8.95c0.84-0.05 1.58-0.3 2.23-0.74Zm-2.5-0.37h-3.48l1-5.6h3.45c0.73 0 1.28 0.19 1.66 0.55 0.37 0.37 0.56 0.88 0.56 1.55 0 0.64-0.13 1.22-0.39 1.76-0.25 0.53-0.62 0.95-1.1 1.27-0.48 0.31-1.05 0.47-1.7 0.47Zm60.34 3.14h0.8l1.3 3.47 1.33-3.47H86v3.98h-0.48v-3.53H85.5l-1.38 3.53H83.6l-1.33-3.5h-0.03v3.5h-0.47v-3.98Zm-3.63 0.45h1.31v3.53h0.48v-3.53h1.32v-0.45h-3.11v0.45Z" fill="#ffffff" fill-opacity="1.0" /></svg>