<?xml version="1.0" encoding="utf-8" ?>
<svg baseProfile="full" height="16.0" version="1.1" viewBox="0 0 53.0 16.0" width="53.0" xmlns="http://www.w3.org/2000/svg" xmlns:ev="http://www.w3.org/2001/xml-events" xmlns:xlink="http://www.w3.org/1999/xlink"><defs /><path d="M1.24 2.5C1.4 1.07 2.62 0 4.05 0h46.1c1.7 0 3.03 1.48 2.83 3.15L51.75 13.5c-0.17 1.42-1.38 2.5-2.81 2.5H2.84c-1.7 0-3.02-1.48-2.82-3.16L1.24 2.5Z" fill="#ffffff" fill-opacity="1.0" /><path d="M1.24 2.5C1.4 1.07 2.62 0 4.05 0h46.1c1.7 0 3.03 1.48 2.83 3.15L51.75 13.5c-0.17 1.42-1.38 2.5-2.81 2.5H2.84c-1.7 0-3.02-1.48-2.82-3.16L1.24 2.5Z" fill="#000000" fill-opacity="1.0" /><path d="M1.24 2.5C1.4 1.07 2.62 0 4.05 0h46.1c1.7 0 3.03 1.48 2.83 3.15L51.75 13.5c-0.17 1.42-1.38 2.5-2.81 2.5H2.84c-1.7 0-3.02-1.48-2.82-3.16L1.24 2.5Z" fill="#ffffff" fill-opacity="0.2" /></svg>