<?xml version="1.0" encoding="utf-8" ?>
<svg baseProfile="full" height="16.0" version="1.1" viewBox="0 0 31.0 16.0" width="31.0" xmlns="http://www.w3.org/2000/svg" xmlns:ev="http://www.w3.org/2001/xml-events" xmlns:xlink="http://www.w3.org/1999/xlink"><defs /><path d="M6.17 1.23L4.84 3.9l2.54-0.36-5.56 8.64H1.76L3.94 6.6l-2.06 0.3 1.57-5.68H1.16L0.13 14.76h3.45L9.25 1.23H6.17Z" fill="#ffffff" fill-opacity="1.0" /><path d="M13.6 11.56l1.81-7.19c0.3-1.32 0.3-2.23-0.06-2.71-0.36-0.49-1.2-0.73-2.47-0.73-1.33 0-2.3 0.24-2.9 0.73-0.6 0.48-1.09 1.45-1.45 2.77l-1.81 7.2c-0.3 1.32-0.3 2.23 0.06 2.71s1.2 0.72 2.47 0.72c1.33 0 2.3-0.24 2.9-0.72 0.67-0.54 1.15-1.45 1.45-2.78Zm-2.35-0.12c-0.13 0.6-0.3 0.97-0.55 1.15-0.24 0.24-0.54 0.3-0.9 0.3-0.49 0-0.67-0.24-0.73-0.42-0.12-0.24-0.12-0.6 0-1.03l1.75-7.13c0.12-0.48 0.3-0.84 0.49-1.02 0.24-0.24 0.48-0.37 0.84-0.37s0.67 0.13 0.79 0.37 0.12 0.6-0.06 1.08l-1.63 7.07Z" fill="#ffffff" fill-opacity="1.0" /><path d="M21.03 11.56l1.81-7.19c0.3-1.32 0.3-2.23-0.06-2.71-0.36-0.49-1.2-0.73-2.47-0.73-1.33 0-2.3 0.24-2.9 0.73-0.6 0.48-1.09 1.45-1.45 2.77l-1.81 7.2c-0.3 1.32-0.3 2.23 0.06 2.71s1.2 0.72 2.47 0.72c1.33 0 2.3-0.24 2.9-0.72 0.6-0.54 1.09-1.45 1.45-2.78Zm-2.35-0.12c-0.13 0.6-0.3 0.97-0.55 1.15-0.24 0.24-0.54 0.3-0.9 0.3-0.49 0-0.67-0.24-0.73-0.42-0.12-0.24-0.06-0.6 0-1.03l1.75-7.13c0.12-0.48 0.3-0.84 0.49-1.02 0.24-0.24 0.48-0.37 0.84-0.37s0.67 0.13 0.79 0.37 0.12 0.6-0.06 1.08l-1.63 7.07Z" fill="#ffffff" fill-opacity="1.0" /><path d="M30.15 1.66c-0.36-0.49-1.2-0.73-2.47-0.73-1.33 0-2.3 0.24-2.9 0.73-0.6 0.48-1.1 1.45-1.45 2.77l-1.82 7.2c-0.3 1.32-0.3 2.23 0.06 2.71 0.37 0.48 1.21 0.72 2.48 0.72 1.33 0 2.3-0.24 2.9-0.78 0.6-0.48 1.09-1.45 1.45-2.72L28.76 10h-2.41l-0.37 1.51c-0.12 0.54-0.3 0.9-0.48 1.09-0.24 0.24-0.48 0.36-0.9 0.36-0.37 0-0.6-0.12-0.73-0.36-0.12-0.24-0.06-0.54 0.06-1.03l1.75-7.19c0.12-0.48 0.24-0.78 0.48-1.02 0.19-0.24 0.49-0.36 0.85-0.36s0.66 0.12 0.73 0.36c0.12 0.24 0.12 0.6 0 1.08l-0.3 1.33h2.4l0.37-1.45c0.36-1.26 0.3-2.17-0.06-2.65Z" fill="#ffffff" fill-opacity="1.0" /></svg>