<?xml version="1.0" encoding="utf-8" ?>
<svg baseProfile="full" height="50.0" version="1.1" viewBox="0 0 50.0 50.0" width="50.0" xmlns="http://www.w3.org/2000/svg" xmlns:ev="http://www.w3.org/2001/xml-events" xmlns:xlink="http://www.w3.org/1999/xlink"><defs /><path d="M25,50C38.8071,50 50,38.8071 50,25C50,11.1929 38.8071,0 25,0C11.1929,0 0,11.1929 0,25C0,38.8071 11.1929,50 25,50Z" fill="#ffffff" fill-opacity="1.0" /><path d="M25.1515,12.1377C21.9781,12.1377 19.4056,14.7102 19.4056,17.8836V20.4715H21.4846V17.8836C21.4846,15.8584 23.1263,14.2167 25.1515,14.2167C27.1767,14.2167 28.8184,15.8584 28.8184,17.8836V20.4715H30.8974V17.8836C30.8974,14.7102 28.3249,12.1377 25.1515,12.1377ZM16.3895,22.6295H15.35V23.669V28.3627C15.35,33.776 19.7383,38.1643 25.1516,38.1643C30.5649,38.1643 34.9533,33.776 34.9533,28.3627V23.669V22.6295H33.9138H16.3895ZM17.429,28.3627V24.7085H32.8743V28.3627C32.8743,32.6278 29.4167,36.0853 25.1516,36.0853C20.8865,36.0853 17.429,32.6278 17.429,28.3627Z" fill="#ffffff" fill-opacity="1.0" /></svg>