<?xml version="1.0" encoding="utf-8" ?>
<svg baseProfile="full" height="48.0" version="1.1" viewBox="0 0 48.0 48.0" width="48.0" xmlns="http://www.w3.org/2000/svg" xmlns:ev="http://www.w3.org/2001/xml-events" xmlns:xlink="http://www.w3.org/1999/xlink"><defs /><path d="M17.8 14.02c-0.24-0.03-0.47 0-0.73 0.08-0.26 0.07-0.57 0.18-0.97 0.33h-0.01l-0.3 0.11-0.05 0.02c-0.55 0.2-0.9 0.33-1.18 0.6-0.22 0.2-0.42 0.55-0.5 0.85-0.1 0.37-0.04 0.69 0.04 1.18v0.04c0.61 3.63 2.67 7.48 5.93 10.74s7.1 5.32 10.74 5.92h0.04c0.5 0.1 0.8 0.14 1.18 0.05 0.3-0.08 0.64-0.28 0.86-0.5 0.26-0.28 0.39-0.63 0.59-1.18l0.02-0.05 0.1-0.3h0.01c0.15-0.4 0.26-0.72 0.33-0.98s0.1-0.5 0.08-0.72c-0.04-0.38-0.2-0.73-0.46-1.01-0.16-0.17-0.36-0.3-0.6-0.42l-0.95-0.38h-0.01l-3.36-1.27c-0.65-0.25-1.38-0.09-1.87 0.4-0.66 0.68-1.7 0.8-2.44 0.27-0.73-0.53-1.4-1.1-2.18-1.87-0.77-0.77-1.34-1.45-1.87-2.18-0.54-0.75-0.42-1.8 0.24-2.47 0.48-0.5 0.64-1.23 0.4-1.88l-1.28-3.36c-0.15-0.4-0.27-0.71-0.38-0.96-0.12-0.24-0.25-0.44-0.42-0.6-0.28-0.25-0.63-0.42-1-0.46Z" fill="#ffffff" fill-opacity="1.0" /></svg>