<?xml version="1.0" encoding="utf-8" ?>
<svg baseProfile="full" height="24.0" version="1.1" viewBox="0 0 48.0 48.0" width="24.0" xmlns="http://www.w3.org/2000/svg" xmlns:ev="http://www.w3.org/2001/xml-events" xmlns:xlink="http://www.w3.org/1999/xlink"><defs /><path d="M26.0,14.0l-4.0,0.0l0.0,4.0l4.0,0.0l0.0,-4.0zm0.0,8.0l-4.0,0.0l0.0,12.0l4.0,0.0L26.0,22.0zm8.0,-19.98L14.0,2.0c-2.21,0.0 -4.0,1.79 -4.0,4.0l0.0,36.0c0.0,2.21 1.79,4.0 4.0,4.0l20.0,0.0c2.21,0.0 4.0,-1.79 4.0,-4.0L38.0,6.0c0.0,-2.21 -1.79,-3.98 -4.0,-3.98zM34.0,38.0L14.0,38.0L14.0,10.0l20.0,0.0l0.0,28.0z" fill="#000000" fill-opacity="1.0" /></svg>