<?xml version="1.0" encoding="utf-8" ?>
<svg baseProfile="full" height="48.0" version="1.1" viewBox="0 0 128.0 48.0" width="128.0" xmlns="http://www.w3.org/2000/svg" xmlns:ev="http://www.w3.org/2001/xml-events" xmlns:xlink="http://www.w3.org/1999/xlink"><defs /><path d="M18,24m-18,0a18,18 0,1 1,36 0a18,18 0,1 1,-36 0" fill="#ffffff" fill-opacity="1.0" /><path d="M10.11,28.59C10.11,28.95 10.23,29.31 10.48,29.58C10.74,29.85 11.09,29.99 11.46,29.99L25.26,29.99H25.89V29.36L25.89,19.41C25.89,18.59 25.24,18.01 24.54,18.01H11.46C11.09,18.01 10.74,18.15 10.48,18.42C10.23,18.69 10.11,19.05 10.11,19.41V28.59ZM19.51,26.69H16.45V27.96H19.51V26.69Z" fill="#000000" fill-opacity="1.0" /><path d="M110,24m-18,0a18,18 0,1 1,36 0a18,18 0,1 1,-36 0" fill="#ffffff" fill-opacity="1.0" /><path d="M106.99,16.14C107.14,15.44 107.75,14.93 108.47,14.93H111.49C112.2,14.93 112.81,15.44 112.97,16.14C113.14,16.94 113.39,17.88 113.65,18.13C113.19,17.68 106.77,17.68 106.31,18.13C106.56,17.88 106.82,16.94 106.99,16.14ZM113.09,20.88H106.86V27.12H113.09V20.88ZM111.48,33.08C112.2,33.08 112.81,32.56 112.96,31.86C113.14,31.06 113.39,30.12 113.64,29.87C113.18,30.33 106.77,30.33 106.31,29.87C106.56,30.12 106.81,31.06 106.99,31.86C107.14,32.56 107.75,33.08 108.47,33.08H111.48ZM104.66,20.34C104.66,19.42 105.4,18.69 106.31,18.69H113.64C114.55,18.69 115.29,19.42 115.29,20.34V21.25C115.69,21.26 116.01,21.59 116.01,21.99V23.27C116.01,23.67 115.69,24 115.29,24V27.67C115.29,28.58 114.55,29.32 113.64,29.32H106.31C105.4,29.32 104.66,28.58 104.66,27.67V20.34ZM106.31,20.15C106.21,20.15 106.13,20.23 106.13,20.34V27.67C106.13,27.77 106.21,27.85 106.31,27.85H113.64C113.74,27.85 113.83,27.77 113.83,27.67V20.34C113.83,20.23 113.74,20.15 113.64,20.15H106.31Z" fill="#000000" fill-opacity="1.0" /><path d="M64,24m-24,0a24,24 0,1 1,48 0a24,24 0,1 1,-48 0" fill="#ffffff" fill-opacity="1.0" /><path d="M64.66,19.35C64.66,22.24 67,24.58 69.89,24.58C72.78,24.58 75.12,22.24 75.12,19.35C75.12,16.46 72.78,14.12 69.89,14.12C67,14.12 64.66,16.46 64.66,19.35ZM73.79,19.35C73.79,20.26 73.51,20.99 73.16,20.99C72.81,20.99 72.53,20.26 72.53,19.35C72.53,18.44 72.81,17.71 73.16,17.71C73.51,17.71 73.79,18.44 73.79,19.35ZM67.62,19.91C67.93,19.91 68.18,19.66 68.18,19.35C68.18,19.04 67.93,18.79 67.62,18.79C67.31,18.79 67.06,19.04 67.06,19.35C67.06,19.66 67.31,19.91 67.62,19.91ZM65.71,23.79C66.54,24.57 67.63,25.1 68.85,25.26V32.17C68.85,33.03 68.15,33.73 67.28,33.73C66.41,33.73 65.71,33.03 65.71,32.17V23.79ZM63.34,19.35C63.34,22.24 61,24.58 58.11,24.58C55.22,24.58 52.88,22.24 52.88,19.35C52.88,16.47 55.22,14.13 58.11,14.13C61,14.13 63.34,16.47 63.34,19.35ZM54.21,19.35C54.21,20.26 54.49,21 54.84,21C55.19,21 55.47,20.26 55.47,19.35C55.47,18.45 55.19,17.71 54.84,17.71C54.49,17.71 54.21,18.45 54.21,19.35ZM60.38,19.92C60.07,19.92 59.81,19.67 59.81,19.35C59.81,19.04 60.07,18.79 60.38,18.79C60.69,18.79 60.94,19.04 60.94,19.35C60.94,19.67 60.69,19.92 60.38,19.92ZM62.29,23.79C61.46,24.57 60.37,25.1 59.15,25.26V32.17C59.15,33.04 59.85,33.74 60.72,33.74C61.58,33.74 62.29,33.04 62.29,32.17V23.79Z" fill="#000000" fill-opacity="1.0" /></svg>