<?xml version="1.0" encoding="utf-8" ?>
<svg baseProfile="full" height="24.0" version="1.1" viewBox="0 0 24.0 24.0" width="24.0" xmlns="http://www.w3.org/2000/svg" xmlns:ev="http://www.w3.org/2001/xml-events" xmlns:xlink="http://www.w3.org/1999/xlink"><defs /><path d="M2.3,8V4.3C2.3,3.197 3.197,2.3 4.3,2.3H8C8.387,2.3 8.7,2.613 8.7,3C8.7,3.387 8.387,3.7 8,3.7H4.3C3.969,3.7 3.7,3.969 3.7,4.3V8C3.7,8.387 3.387,8.7 3,8.7C2.613,8.7 2.3,8.387 2.3,8ZM19.7,2.3H16C15.613,2.3 15.3,2.613 15.3,3C15.3,3.387 15.613,3.7 16,3.7H19.7C20.031,3.7 20.3,3.969 20.3,4.3V8C20.3,8.387 20.613,8.7 21,8.7C21.387,8.7 21.7,8.387 21.7,8V4.3C21.7,3.197 20.803,2.3 19.7,2.3ZM21,15.3C20.613,15.3 20.3,15.613 20.3,16V19.7C20.3,20.031 20.031,20.3 19.7,20.3H16C15.613,20.3 15.3,20.614 15.3,21C15.3,21.387 15.613,21.7 16,21.7H19.7C20.803,21.7 21.7,20.803 21.7,19.7V16C21.7,15.613 21.387,15.3 21,15.3ZM8,20.3H4.3C3.969,20.3 3.7,20.031 3.7,19.7V16C3.7,15.613 3.387,15.3 3,15.3C2.613,15.3 2.3,15.613 2.3,16V19.7C2.3,20.803 3.197,21.7 4.3,21.7H8C8.387,21.7 8.7,21.387 8.7,21C8.7,20.613 8.387,20.3 8,20.3ZM13.5,15H14.5C14.776,15 15,14.776 15,14.5V13.5C15,13.224 14.776,13 14.5,13H13.5C13.224,13 13,13.224 13,13.5V14.5C13,14.776 13.224,15 13.5,15ZM16.5,17C16.776,17 17,16.776 17,16.5V15.5C17,15.224 16.776,15 16.5,15H15.5C15.224,15 15,15.224 15,15.5V16.5C15,16.776 15.224,17 15.5,17H16.5ZM14.5,17H13.5C13.224,17 13,17.224 13,17.5V18.5C13,18.776 13.224,19 13.5,19H14.5C14.776,19 15,18.776 15,18.5V17.5C15,17.224 14.776,17 14.5,17ZM18.5,17H17.5C17.224,17 17,17.224 17,17.5V18.5C17,18.776 17.224,19 17.5,19H18.5C18.776,19 19,18.776 19,18.5V17.5C19,17.224 18.776,17 18.5,17ZM19,13.5C19,13.224 18.776,13 18.5,13H17.5C17.224,13 17,13.224 17,13.5V14.5C17,14.776 17.224,15 17.5,15H18.5C18.776,15 19,14.776 19,14.5V13.5ZM10.95,13.75V18.25C10.95,18.637 10.637,18.95 10.25,18.95H5.75C5.363,18.95 5.05,18.637 5.05,18.25V13.75C5.05,13.363 5.363,13.05 5.75,13.05H10.25C10.637,13.05 10.95,13.363 10.95,13.75ZM9,15.5C9,15.224 8.776,15 8.5,15H7.5C7.224,15 7,15.224 7,15.5V16.5C7,16.776 7.224,17 7.5,17H8.5C8.776,17 9,16.776 9,16.5V15.5ZM10.95,5.75V10.25C10.95,10.637 10.637,10.95 10.25,10.95H5.75C5.363,10.95 5.05,10.637 5.05,10.25V5.75C5.05,5.363 5.363,5.05 5.75,5.05H10.25C10.637,5.05 10.95,5.363 10.95,5.75ZM9,7.5C9,7.224 8.776,7 8.5,7H7.5C7.224,7 7,7.224 7,7.5V8.5C7,8.776 7.224,9 7.5,9H8.5C8.776,9 9,8.776 9,8.5V7.5ZM13.05,10.25V5.75C13.05,5.363 13.363,5.05 13.75,5.05H18.25C18.637,5.05 18.95,5.363 18.95,5.75V10.25C18.95,10.637 18.637,10.95 18.25,10.95H13.75C13.363,10.95 13.05,10.637 13.05,10.25ZM15,8.5C15,8.776 15.224,9 15.5,9H16.5C16.776,9 17,8.776 17,8.5V7.5C17,7.224 16.776,7 16.5,7H15.5C15.224,7 15,7.224 15,7.5V8.5Z" fill="#000000" fill-opacity="1.0" /></svg>