<?xml version="1.0" encoding="utf-8" ?>
<svg baseProfile="full" height="44.0" version="1.1" viewBox="0 0 24.0 24.0" width="44.0" xmlns="http://www.w3.org/2000/svg" xmlns:ev="http://www.w3.org/2001/xml-events" xmlns:xlink="http://www.w3.org/1999/xlink"><defs /><path d="M7.387,1.3L7.4,1.3H16.6L16.613,1.3C16.671,1.3 16.75,1.3 16.821,1.306C16.906,1.312 17.039,1.331 17.181,1.403C17.36,1.494 17.505,1.64 17.596,1.819C17.669,1.96 17.687,2.094 17.694,2.179C17.7,2.25 17.7,2.329 17.7,2.387V2.387L17.7,2.4V3.3H6.3V2.4L6.3,2.387L6.3,2.387C6.3,2.329 6.3,2.25 6.306,2.179C6.312,2.094 6.331,1.96 6.403,1.819C6.494,1.64 6.64,1.494 6.819,1.403C6.96,1.331 7.094,1.312 7.179,1.306C7.25,1.3 7.329,1.3 7.387,1.3ZM6.3,4.7C6.301,4.951 6.308,5.175 6.36,5.392C6.414,5.617 6.503,5.831 6.623,6.027C6.76,6.251 6.945,6.437 7.162,6.654L7.205,6.697L8.397,7.893C8.645,8.141 8.685,8.188 8.712,8.232C8.745,8.285 8.769,8.344 8.783,8.405C8.795,8.455 8.8,8.516 8.8,8.867V20.949C8.8,21.705 9.227,22.396 9.903,22.734C11.223,23.394 12.777,23.394 14.096,22.734C14.773,22.396 15.2,21.705 15.2,20.949V8.867C15.2,8.516 15.204,8.455 15.216,8.405C15.231,8.344 15.255,8.285 15.288,8.232C15.315,8.188 15.355,8.141 15.603,7.893L16.795,6.697L16.838,6.654C17.055,6.437 17.24,6.251 17.377,6.027C17.497,5.831 17.586,5.617 17.639,5.392C17.691,5.175 17.699,4.951 17.7,4.7H6.3ZM10.599,11.5C10.599,10.727 11.226,10.1 11.999,10.1C12.773,10.1 13.399,10.727 13.399,11.5V14.2C13.399,14.973 12.773,15.6 11.999,15.6C11.226,15.6 10.599,14.973 10.599,14.2V11.5ZM12.7,13.144C12.7,12.757 12.387,12.444 12,12.444C11.613,12.444 11.3,12.757 11.3,13.144V14.144C11.3,14.53 11.613,14.844 12,14.844C12.387,14.844 12.7,14.53 12.7,14.144V13.144Z" fill="#ffffff" fill-opacity="1.0" /></svg>