<?xml version="1.0" encoding="utf-8" ?>
<svg baseProfile="full" height="240.0" version="1.1" viewBox="0 0 140.0 240.0" width="140.0" xmlns="http://www.w3.org/2000/svg" xmlns:ev="http://www.w3.org/2001/xml-events" xmlns:xlink="http://www.w3.org/1999/xlink"><defs /><path d="M106,11.5H34C25.99,11.5 19.5,17.99 19.5,26V214C19.5,222.01 25.99,228.5 34,228.5H106C114.01,228.5 120.5,222.01 120.5,214V26C120.5,17.99 114.01,11.5 106,11.5Z" fill="#000000" fill-opacity="1.0" /><path d="M18,26C18,17.16 25.16,10 34,10H106C114.84,10 122,17.16 122,26V214C122,222.84 114.84,230 106,230H34C25.16,230 18,222.84 18,214V26ZM34,13C26.82,13 21,18.82 21,26V214C21,221.18 26.82,227 34,227H106C113.18,227 119,221.18 119,214V26C119,18.82 113.18,13 106,13H34Z" fill="#cfd1d8" fill-opacity="1.0" /><path d="M41.22,128.46H33.22C31.02,128.46 29.22,130.25 29.22,132.46V140.46C29.22,142.66 31.02,144.46 33.22,144.46H41.22C43.43,144.46 45.22,142.66 45.22,140.46V132.46C45.22,130.25 43.43,128.46 41.22,128.46Z" fill="#7ec0fc" fill-opacity="1.0" /><path d="M63.67,128.46H55.67C53.47,128.46 51.67,130.25 51.67,132.46V140.46C51.67,142.66 53.47,144.46 55.67,144.46H63.67C65.88,144.46 67.67,142.66 67.67,140.46V132.46C67.67,130.25 65.88,128.46 63.67,128.46Z" fill="#edabab" fill-opacity="1.0" /><path d="M86.13,128.46H78.13C75.92,128.46 74.13,130.25 74.13,132.46V140.46C74.13,142.66 75.92,144.46 78.13,144.46H86.13C88.33,144.46 90.13,142.66 90.13,140.46V132.46C90.13,130.25 88.33,128.46 86.13,128.46Z" fill="#8bd5ab" fill-opacity="1.0" /><path d="M108.57,128.46H100.57C98.36,128.46 96.57,130.25 96.57,132.46V140.46C96.57,142.66 98.36,144.46 100.57,144.46H108.57C110.78,144.46 112.57,142.66 112.57,140.46V132.46C112.57,130.25 110.78,128.46 108.57,128.46Z" fill="#d6b577" fill-opacity="1.0" /><path d="M41.22,150.91H33.22C31.02,150.91 29.22,152.7 29.22,154.91V162.91C29.22,165.12 31.02,166.91 33.22,166.91H41.22C43.43,166.91 45.22,165.12 45.22,162.91V154.91C45.22,152.7 43.43,150.91 41.22,150.91Z" fill="#9fa5fc" fill-opacity="1.0" /><path d="M63.67,150.91H55.67C53.47,150.91 51.67,152.7 51.67,154.91V162.91C51.67,165.12 53.47,166.91 55.67,166.91H63.67C65.88,166.91 67.67,165.12 67.67,162.91V154.91C67.67,152.7 65.88,150.91 63.67,150.91Z" fill="#d6b577" fill-opacity="1.0" /><path d="M86.13,150.91H78.13C75.92,150.91 74.13,152.7 74.13,154.91V162.91C74.13,165.12 75.92,166.91 78.13,166.91H86.13C88.33,166.91 90.13,165.12 90.13,162.91V154.91C90.13,152.7 88.33,150.91 86.13,150.91Z" fill="#7ec0fc" fill-opacity="1.0" /><path d="M108.57,150.91H100.57C98.36,150.91 96.57,152.7 96.57,154.91V162.91C96.57,165.12 98.36,166.91 100.57,166.91H108.57C110.78,166.91 112.57,165.12 112.57,162.91V154.91C112.57,152.7 110.78,150.91 108.57,150.91Z" fill="#8eafff" fill-opacity="1.0" /><path d="M41,200H33C30.79,200 29,201.79 29,204V212C29,214.21 30.79,216 33,216H41C43.21,216 45,214.21 45,212V204C45,201.79 43.21,200 41,200Z" fill="#ffffff" fill-opacity="1.0" /><path d="M63.45,200H55.45C53.24,200 51.45,201.79 51.45,204V212C51.45,214.21 53.24,216 55.45,216H63.45C65.66,216 67.45,214.21 67.45,212V204C67.45,201.79 65.66,200 63.45,200Z" fill="#ffffff" fill-opacity="1.0" /><path d="M86.16,200H77.64C75.57,200 73.9,201.68 73.9,203.74V212.26C73.9,214.32 75.57,216 77.64,216H86.16C88.22,216 89.9,214.32 89.9,212.26V203.74C89.9,201.68 88.22,200 86.16,200Z" fill="#ffffff" fill-opacity="1.0" /><path d="M108.35,200H100.35C98.14,200 96.35,201.79 96.35,204V212C96.35,214.21 98.14,216 100.35,216H108.35C110.56,216 112.35,214.21 112.35,212V204C112.35,201.79 110.56,200 108.35,200Z" fill="#ffffff" fill-opacity="1.0" /><path d="M106,13H34C26.82,13 21,18.82 21,26V214C21,221.18 26.82,227 34,227H106C113.18,227 119,221.18 119,214V26C119,18.82 113.18,13 106,13Z" fill="#000000" fill-opacity="1.0" /><path d="M106,99H34C31.24,99 29,101.24 29,104V114C29,116.76 31.24,119 34,119H106C108.76,119 111,116.76 111,114V104C111,101.24 108.76,99 106,99Z" fill="#ffffff" fill-opacity="1.0" /><path d="M106,122.86H34C31.24,122.86 29,125.1 29,127.86V137.86C29,140.62 31.24,142.86 34,142.86H106C108.76,142.86 111,140.62 111,137.86V127.86C111,125.1 108.76,122.86 106,122.86Z" fill="#ffffff" fill-opacity="1.0" /><path d="M106,146.95H34C31.24,146.95 29,149.19 29,151.95V161.95C29,164.71 31.24,166.95 34,166.95H106C108.76,166.95 111,164.71 111,161.95V151.95C111,149.19 108.76,146.95 106,146.95Z" fill="#ffffff" fill-opacity="1.0" /><path d="M106,171H34C31.24,171 29,173.24 29,176V186C29,188.76 31.24,191 34,191H106C108.76,191 111,188.76 111,186V176C111,173.24 108.76,171 106,171Z" fill="#ffffff" fill-opacity="1.0" /><path d="M42,89C42,85.69 39.31,83 36,83C32.69,83 30,85.69 30,89C30,92.31 32.69,95 36,95C39.31,95 42,92.31 42,89Z" fill="#7d94d4" fill-opacity="1.0" /><path d="M59,89C59,85.69 56.31,83 53,83C49.69,83 47,85.69 47,89C47,92.31 49.69,95 53,95C56.31,95 59,92.31 59,89Z" fill="#7d94d4" fill-opacity="1.0" /><path d="M76,89C76,85.69 73.31,83 70,83C66.69,83 64,85.69 64,89C64,92.31 66.69,95 70,95C73.31,95 76,92.31 76,89Z" fill="#7d94d4" fill-opacity="1.0" /><path d="M93,89C93,85.69 90.31,83 87,83C83.69,83 81,85.69 81,89C81,92.31 83.69,95 87,95C90.31,95 93,92.31 93,89Z" fill="#7d94d4" fill-opacity="1.0" /><path d="M110,89C110,85.69 107.31,83 104,83C100.69,83 98,85.69 98,89C98,92.31 100.69,95 104,95C107.31,95 110,92.31 110,89Z" fill="#7d94d4" fill-opacity="1.0" /><path d="M62,39H34C31.24,39 29,41.24 29,44V52C29,54.76 31.24,57 34,57H62C64.76,57 67,54.76 67,52V44C67,41.24 64.76,39 62,39Z" fill="#ffffff" fill-opacity="1.0" /><path d="M84,39H76C73.24,39 71,41.24 71,44V74C71,76.76 73.24,79 76,79H84C86.76,79 89,76.76 89,74V44C89,41.24 86.76,39 84,39Z" fill="#ffffff" fill-opacity="1.0" /><path d="M106,39H98C95.24,39 93,41.24 93,44V74C93,76.76 95.24,79 98,79H106C108.76,79 111,76.76 111,74V44C111,41.24 108.76,39 106,39Z" fill="#ffffff" fill-opacity="1.0" /><path d="M71,53H89V71C89,73.8 89,75.2 88.46,76.27C87.98,77.21 87.21,77.98 86.27,78.46C85.2,79 83.8,79 81,79H79C76.2,79 74.8,79 73.73,78.46C72.79,77.98 72.02,77.21 71.54,76.27C71,75.2 71,73.8 71,71V53Z" fill="#ffffff" fill-opacity="1.0" /><path d="M93,61H111V71C111,73.8 111,75.2 110.46,76.27C109.98,77.21 109.21,77.98 108.27,78.46C107.2,79 105.8,79 103,79H101C98.2,79 96.8,79 95.73,78.46C94.79,77.98 94.02,77.21 93.54,76.27C93,75.2 93,73.8 93,71V61Z" fill="#ffffff" fill-opacity="1.0" /><path d="M62,61H34C31.24,61 29,63.24 29,66V74C29,76.76 31.24,79 34,79H62C64.76,79 67,76.76 67,74V66C67,63.24 64.76,61 62,61Z" fill="#ffffff" fill-opacity="1.0" /><path d="M51,25H31C29.9,25 29,25.9 29,27C29,28.1 29.9,29 31,29H51C52.1,29 53,28.1 53,27C53,25.9 52.1,25 51,25Z" fill="#ffffff" fill-opacity="1.0" /><path d="M39,31H31C29.9,31 29,31.9 29,33C29,34.1 29.9,35 31,35H39C40.1,35 41,34.1 41,33C41,31.9 40.1,31 39,31Z" fill="#ffffff" fill-opacity="1.0" /><path d="M111,32C111,30.34 109.66,29 108,29C106.34,29 105,30.34 105,32C105,33.66 106.34,35 108,35C109.66,35 111,33.66 111,32Z" fill="#ffffff" fill-opacity="1.0" /><path d="M102,32C102,30.34 100.66,29 99,29C97.34,29 96,30.34 96,32C96,33.66 97.34,35 99,35C100.66,35 102,33.66 102,32Z" fill="#ffffff" fill-opacity="1.0" /></svg>