<?xml version="1.0" encoding="utf-8" ?>
<svg baseProfile="full" height="240.0" version="1.1" viewBox="0 0 140.0 240.0" width="140.0" xmlns="http://www.w3.org/2000/svg" xmlns:ev="http://www.w3.org/2001/xml-events" xmlns:xlink="http://www.w3.org/1999/xlink"><defs /><path d="M106,11.5H34C25.99,11.5 19.5,17.99 19.5,26V214C19.5,222.01 25.99,228.5 34,228.5H106C114.01,228.5 120.5,222.01 120.5,214V26C120.5,17.99 114.01,11.5 106,11.5Z" fill="#000000" fill-opacity="1.0" /><path d="M18,26C18,17.16 25.16,10 34,10H106C114.84,10 122,17.16 122,26V214C122,222.84 114.84,230 106,230H34C25.16,230 18,222.84 18,214V26ZM34,13C26.82,13 21,18.82 21,26V214C21,221.18 26.82,227 34,227H106C113.18,227 119,221.18 119,214V26C119,18.82 113.18,13 106,13H34Z" fill="#cfd1d8" fill-opacity="1.0" /><path d="M41.22,128.46H33.22C31.02,128.46 29.22,130.25 29.22,132.46V140.46C29.22,142.66 31.02,144.46 33.22,144.46H41.22C43.43,144.46 45.22,142.66 45.22,140.46V132.46C45.22,130.25 43.43,128.46 41.22,128.46Z" fill="#7ec0fc" fill-opacity="1.0" /><path d="M63.67,128.46H55.67C53.47,128.46 51.67,130.25 51.67,132.46V140.46C51.67,142.66 53.47,144.46 55.67,144.46H63.67C65.88,144.46 67.67,142.66 67.67,140.46V132.46C67.67,130.25 65.88,128.46 63.67,128.46Z" fill="#edabab" fill-opacity="1.0" /><path d="M86.13,128.46H78.13C75.92,128.46 74.13,130.25 74.13,132.46V140.46C74.13,142.66 75.92,144.46 78.13,144.46H86.13C88.33,144.46 90.13,142.66 90.13,140.46V132.46C90.13,130.25 88.33,128.46 86.13,128.46Z" fill="#8bd5ab" fill-opacity="1.0" /><path d="M108.57,128.46H100.57C98.36,128.46 96.57,130.25 96.57,132.46V140.46C96.57,142.66 98.36,144.46 100.57,144.46H108.57C110.78,144.46 112.57,142.66 112.57,140.46V132.46C112.57,130.25 110.78,128.46 108.57,128.46Z" fill="#d6b577" fill-opacity="1.0" /><path d="M41.22,150.91H33.22C31.02,150.91 29.22,152.7 29.22,154.91V162.91C29.22,165.12 31.02,166.91 33.22,166.91H41.22C43.43,166.91 45.22,165.12 45.22,162.91V154.91C45.22,152.7 43.43,150.91 41.22,150.91Z" fill="#9fa5fc" fill-opacity="1.0" /><path d="M63.67,150.91H55.67C53.47,150.91 51.67,152.7 51.67,154.91V162.91C51.67,165.12 53.47,166.91 55.67,166.91H63.67C65.88,166.91 67.67,165.12 67.67,162.91V154.91C67.67,152.7 65.88,150.91 63.67,150.91Z" fill="#d6b577" fill-opacity="1.0" /><path d="M86.13,150.91H78.13C75.92,150.91 74.13,152.7 74.13,154.91V162.91C74.13,165.12 75.92,166.91 78.13,166.91H86.13C88.33,166.91 90.13,165.12 90.13,162.91V154.91C90.13,152.7 88.33,150.91 86.13,150.91Z" fill="#7ec0fc" fill-opacity="1.0" /><path d="M108.57,150.91H100.57C98.36,150.91 96.57,152.7 96.57,154.91V162.91C96.57,165.12 98.36,166.91 100.57,166.91H108.57C110.78,166.91 112.57,165.12 112.57,162.91V154.91C112.57,152.7 110.78,150.91 108.57,150.91Z" fill="#8eafff" fill-opacity="1.0" /><path d="M41,200H33C30.79,200 29,201.79 29,204V212C29,214.21 30.79,216 33,216H41C43.21,216 45,214.21 45,212V204C45,201.79 43.21,200 41,200Z" fill="#ffffff" fill-opacity="1.0" /><path d="M63.45,200H55.45C53.24,200 51.45,201.79 51.45,204V212C51.45,214.21 53.24,216 55.45,216H63.45C65.66,216 67.45,214.21 67.45,212V204C67.45,201.79 65.66,200 63.45,200Z" fill="#ffffff" fill-opacity="1.0" /><path d="M86.16,200H77.64C75.57,200 73.9,201.68 73.9,203.74V212.26C73.9,214.32 75.57,216 77.64,216H86.16C88.22,216 89.9,214.32 89.9,212.26V203.74C89.9,201.68 88.22,200 86.16,200Z" fill="#ffffff" fill-opacity="1.0" /><path d="M108.35,200H100.35C98.14,200 96.35,201.79 96.35,204V212C96.35,214.21 98.14,216 100.35,216H108.35C110.56,216 112.35,214.21 112.35,212V204C112.35,201.79 110.56,200 108.35,200Z" fill="#ffffff" fill-opacity="1.0" /><path d="M106,13H34C26.82,13 21,18.82 21,26V214C21,221.18 26.82,227 34,227H106C113.18,227 119,221.18 119,214V26C119,18.82 113.18,13 106,13Z" fill="#1156be" fill-opacity="1.0" /><path d="M106,13H34C26.82,13 21,18.82 21,26V214C21,221.18 26.82,227 34,227H106C113.18,227 119,221.18 119,214V26C119,18.82 113.18,13 106,13Z" fill="#000000" fill-opacity="1.0" /><path d="M52,34H34C32.9,34 32,34.9 32,36V38C32,39.1 32.9,40 34,40H52C53.1,40 54,39.1 54,38V36C54,34.9 53.1,34 52,34Z" fill="#000000" fill-opacity="1.0" /><path d="M108,37C108,35.34 106.66,34 105,34C103.34,34 102,35.34 102,37C102,38.66 103.34,40 105,40C106.66,40 108,38.66 108,37Z" fill="#000000" fill-opacity="1.0" /><path d="M43,207.21C43,204.18 40.54,201.71 37.5,201.71C34.46,201.71 32,204.18 32,207.21C32,210.25 34.46,212.71 37.5,212.71C40.54,212.71 43,210.25 43,207.21Z" fill="#000000" fill-opacity="1.0" /><path d="M75,204.21H65C63.34,204.21 62,205.56 62,207.21C62,208.87 63.34,210.21 65,210.21H75C76.66,210.21 78,208.87 78,207.21C78,205.56 76.66,204.21 75,204.21Z" fill="#000000" fill-opacity="1.0" /><path d="M108,207.21C108,204.18 105.54,201.71 102.5,201.71C99.46,201.71 97,204.18 97,207.21C97,210.25 99.46,212.71 102.5,212.71C105.54,212.71 108,210.25 108,207.21Z" fill="#000000" fill-opacity="1.0" /><path d="M48,152.71C48,148.3 44.42,144.71 40,144.71C35.58,144.71 32,148.3 32,152.71C32,157.13 35.58,160.71 40,160.71C44.42,160.71 48,157.13 48,152.71Z" fill="#000000" fill-opacity="1.0" /><path d="M68,152.71C68,148.3 64.42,144.71 60,144.71C55.58,144.71 52,148.3 52,152.71C52,157.13 55.58,160.71 60,160.71C64.42,160.71 68,157.13 68,152.71Z" fill="#000000" fill-opacity="1.0" /><path d="M88,152.71C88,148.3 84.42,144.71 80,144.71C75.58,144.71 72,148.3 72,152.71C72,157.13 75.58,160.71 80,160.71C84.42,160.71 88,157.13 88,152.71Z" fill="#000000" fill-opacity="1.0" /><path d="M108,152.71C108,148.3 104.42,144.71 100,144.71C95.58,144.71 92,148.3 92,152.71C92,157.13 95.58,160.71 100,160.71C104.42,160.71 108,157.13 108,152.71Z" fill="#000000" fill-opacity="1.0" /><path d="M48.29,172.57C48.29,168.07 44.64,164.43 40.14,164.43C35.65,164.43 32,168.07 32,172.57C32,177.07 35.65,180.71 40.14,180.71C44.64,180.71 48.29,177.07 48.29,172.57Z" fill="#000000" fill-opacity="1.0" /><path d="M68.19,172.57C68.19,168.07 64.54,164.43 60.05,164.43C55.55,164.43 51.9,168.07 51.9,172.57C51.9,177.07 55.55,180.71 60.05,180.71C64.54,180.71 68.19,177.07 68.19,172.57Z" fill="#000000" fill-opacity="1.0" /><path d="M88.1,172.57C88.1,168.07 84.45,164.43 79.95,164.43C75.46,164.43 71.81,168.07 71.81,172.57C71.81,177.07 75.46,180.71 79.95,180.71C84.45,180.71 88.1,177.07 88.1,172.57Z" fill="#000000" fill-opacity="1.0" /><path d="M108,172.57C108,168.07 104.35,164.43 99.86,164.43C95.36,164.43 91.71,168.07 91.71,172.57C91.71,177.07 95.36,180.71 99.86,180.71C104.35,180.71 108,177.07 108,172.57Z" fill="#000000" fill-opacity="1.0" /><path d="M48,132.71C48,128.3 44.42,124.71 40,124.71C35.58,124.71 32,128.3 32,132.71C32,137.13 35.58,140.71 40,140.71C44.42,140.71 48,137.13 48,132.71Z" fill="#000000" fill-opacity="1.0" /><path d="M68,132.71C68,128.3 64.42,124.71 60,124.71C55.58,124.71 52,128.3 52,132.71C52,137.13 55.58,140.71 60,140.71C64.42,140.71 68,137.13 68,132.71Z" fill="#000000" fill-opacity="1.0" /><path d="M88,132.71C88,128.3 84.42,124.71 80,124.71C75.58,124.71 72,128.3 72,132.71C72,137.13 75.58,140.71 80,140.71C84.42,140.71 88,137.13 88,132.71Z" fill="#000000" fill-opacity="1.0" /><path d="M108,132.71C108,128.3 104.42,124.71 100,124.71C95.58,124.71 92,128.3 92,132.71C92,137.13 95.58,140.71 100,140.71C104.42,140.71 108,137.13 108,132.71Z" fill="#000000" fill-opacity="1.0" /><path d="M48,112.71C48,108.3 44.42,104.71 40,104.71C35.58,104.71 32,108.3 32,112.71C32,117.13 35.58,120.71 40,120.71C44.42,120.71 48,117.13 48,112.71Z" fill="#000000" fill-opacity="1.0" /><path d="M68,112.71C68,108.3 64.42,104.71 60,104.71C55.58,104.71 52,108.3 52,112.71C52,117.13 55.58,120.71 60,120.71C64.42,120.71 68,117.13 68,112.71Z" fill="#000000" fill-opacity="1.0" /><path d="M88,112.71C88,108.3 84.42,104.71 80,104.71C75.58,104.71 72,108.3 72,112.71C72,117.13 75.58,120.71 80,120.71C84.42,120.71 88,117.13 88,112.71Z" fill="#000000" fill-opacity="1.0" /><path d="M108,112.71C108,108.3 104.42,104.71 100,104.71C95.58,104.71 92,108.3 92,112.71C92,117.13 95.58,120.71 100,120.71C104.42,120.71 108,117.13 108,112.71Z" fill="#000000" fill-opacity="1.0" /><path d="M92,73C92,70.67 92,69.51 92.35,68.58C92.9,67.08 94.08,65.9 95.58,65.35C96.51,65 97.67,65 100,65C102.33,65 103.49,65 104.42,65.35C105.92,65.9 107.1,67.08 107.65,68.58C108,69.51 108,70.67 108,73V85H92V73Z" fill="#000000" fill-opacity="1.0" /><path d="M72,73C72,70.67 72,69.51 72.35,68.58C72.9,67.08 74.08,65.9 75.58,65.35C76.51,65 77.67,65 80,65C82.33,65 83.49,65 84.42,65.35C85.92,65.9 87.1,67.08 87.65,68.58C88,69.51 88,70.67 88,73V80H72V73Z" fill="#000000" fill-opacity="1.0" /><path d="M72,80H88V93C88,95.33 88,96.49 87.65,97.42C87.1,98.92 85.92,100.1 84.42,100.65C83.49,101 82.33,101 80,101C77.67,101 76.51,101 75.58,100.65C74.08,100.1 72.9,98.92 72.35,97.42C72,96.49 72,95.33 72,93V80Z" fill="#ffffff" fill-opacity="1.0" /><path d="M92,85H108V93C108,95.33 108,96.49 107.65,97.42C107.1,98.92 105.92,100.1 104.42,100.65C103.49,101 102.33,101 100,101C97.67,101 96.51,101 95.58,100.65C94.08,100.1 92.9,98.92 92.35,97.42C92,96.49 92,95.33 92,93V85Z" fill="#ffffff" fill-opacity="1.0" /><path d="M62.5,65H37.5C34.46,65 32,67.46 32,70.5V95.5C32,98.54 34.46,101 37.5,101H62.5C65.54,101 68,98.54 68,95.5V70.5C68,67.46 65.54,65 62.5,65Z" fill="#000000" fill-opacity="1.0" /><path d="M102.69,45H77.5C74.46,45 72,47.46 72,50.5V55.79C72,58.82 74.46,61.29 77.5,61.29H102.69C105.73,61.29 108.19,58.82 108.19,55.79V50.5C108.19,47.46 105.73,45 102.69,45Z" fill="#000000" fill-opacity="1.0" /><path d="M62.5,45H37.5C34.46,45 32,47.46 32,50.5V55.5C32,58.54 34.46,61 37.5,61H62.5C65.54,61 68,58.54 68,55.5V50.5C68,47.46 65.54,45 62.5,45Z" fill="#000000" fill-opacity="1.0" /></svg>