<?xml version="1.0" encoding="utf-8" ?>
<svg baseProfile="full" height="138.0" version="1.1" viewBox="0 0 220.0 138.0" width="220.0" xmlns="http://www.w3.org/2000/svg" xmlns:ev="http://www.w3.org/2001/xml-events" xmlns:xlink="http://www.w3.org/1999/xlink"><defs /><path d="M178.91,12H41.09C37.02,12 34.08,12 31.77,12.19C29.49,12.38 28,12.74 26.79,13.35C24.45,14.55 22.55,16.45 21.35,18.79C20.74,20 20.38,21.49 20.19,23.77C20,26.08 20,29.02 20,33.09V103.91C20,107.98 20,110.92 20.19,113.22C20.38,115.51 20.74,117 21.35,118.21C22.55,120.55 24.45,122.45 26.79,123.64C28,124.26 29.49,124.62 31.77,124.81C34.08,125 37.02,125 41.09,125H178.91C182.98,125 185.92,125 188.23,124.81C190.51,124.62 192,124.26 193.21,123.64C195.55,122.45 197.45,120.55 198.65,118.21C199.26,117 199.62,115.51 199.81,113.22C200,110.92 200,107.98 200,103.91V33.09C200,29.02 200,26.08 199.81,23.77C199.62,21.49 199.26,20 198.65,18.79C197.45,16.45 195.55,14.55 193.21,13.35C192,12.74 190.51,12.38 188.23,12.19C185.92,12 182.98,12 178.91,12ZM19.57,17.88C18,20.97 18,25.01 18,33.09V103.91C18,111.99 18,116.03 19.57,119.12C20.96,121.84 23.16,124.04 25.88,125.43C28.97,127 33.01,127 41.09,127H178.91C186.99,127 191.03,127 194.12,125.43C196.84,124.04 199.04,121.84 200.43,119.12C202,116.03 202,111.99 202,103.91V33.09C202,25.01 202,20.97 200.43,17.88C199.04,15.16 196.84,12.96 194.12,11.57C191.03,10 186.99,10 178.91,10H41.09C33.01,10 28.97,10 25.88,11.57C23.16,12.96 20.96,15.16 19.57,17.88Z" fill="#cfd1d8" fill-opacity="1.0" /><path d="M32,12L188,12A12,12 0,0 1,200 24L200,113A12,12 0,0 1,188 125L32,125A12,12 0,0 1,20 113L20,24A12,12 0,0 1,32 12z" fill="#000000" fill-opacity="1.0" /><path d="M71,71L152,71A4,4 0,0 1,156 75L156,81A4,4 0,0 1,152 85L71,85A4,4 0,0 1,67 81L67,75A4,4 0,0 1,71 71z" fill="#ffffff" fill-opacity="1.0" /><path d="M71,88L152,88A4,4 0,0 1,156 92L156,98A4,4 0,0 1,152 102L71,102A4,4 0,0 1,67 98L67,92A4,4 0,0 1,71 88z" fill="#ffffff" fill-opacity="1.0" /><path d="M71,105L152,105A4,4 0,0 1,156 109L156,115A4,4 0,0 1,152 119L71,119A4,4 0,0 1,67 115L67,109A4,4 0,0 1,71 105z" fill="#ffffff" fill-opacity="1.0" /><path d="M72,57L72,57A5,5 0,0 1,77 62L77,62A5,5 0,0 1,72 67L72,67A5,5 0,0 1,67 62L67,62A5,5 0,0 1,72 57z" fill="#ffffff" fill-opacity="1.0" /><path d="M85.17,57L85.17,57A5,5 0,0 1,90.17 62L90.17,62A5,5 0,0 1,85.17 67L85.17,67A5,5 0,0 1,80.17 62L80.17,62A5,5 0,0 1,85.17 57z" fill="#ffffff" fill-opacity="1.0" /><path d="M98.33,57L98.33,57A5,5 0,0 1,103.33 62L103.33,62A5,5 0,0 1,98.33 67L98.33,67A5,5 0,0 1,93.33 62L93.33,62A5,5 0,0 1,98.33 57z" fill="#ffffff" fill-opacity="1.0" /><path d="M111.5,57L111.5,57A5,5 0,0 1,116.5 62L116.5,62A5,5 0,0 1,111.5 67L111.5,67A5,5 0,0 1,106.5 62L106.5,62A5,5 0,0 1,111.5 57z" fill="#ffffff" fill-opacity="1.0" /><path d="M124.67,57L124.67,57A5,5 0,0 1,129.67 62L129.67,62A5,5 0,0 1,124.67 67L124.67,67A5,5 0,0 1,119.67 62L119.67,62A5,5 0,0 1,124.67 57z" fill="#ffffff" fill-opacity="1.0" /><path d="M137.83,57L137.83,57A5,5 0,0 1,142.83 62L142.83,62A5,5 0,0 1,137.83 67L137.83,67A5,5 0,0 1,132.83 62L132.83,62A5,5 0,0 1,137.83 57z" fill="#ffffff" fill-opacity="1.0" /><path d="M151,57L151,57A5,5 0,0 1,156 62L156,62A5,5 0,0 1,151 67L151,67A5,5 0,0 1,146 62L146,62A5,5 0,0 1,151 57z" fill="#ffffff" fill-opacity="1.0" /><path d="M70,26L90,26A3,3 0,0 1,93 29L93,35A3,3 0,0 1,90 38L70,38A3,3 0,0 1,67 35L67,29A3,3 0,0 1,70 26z" fill="#ffffff" fill-opacity="1.0" /><path d="M70,41L90,41A3,3 0,0 1,93 44L93,50A3,3 0,0 1,90 53L70,53A3,3 0,0 1,67 50L67,44A3,3 0,0 1,70 41z" fill="#ffffff" fill-opacity="1.0" /><path d="M99,26L123,26A3,3 0,0 1,126 29L126,50A3,3 0,0 1,123 53L99,53A3,3 0,0 1,96 50L96,29A3,3 0,0 1,99 26z" fill="#ffffff" fill-opacity="1.0" /><path d="M132,26L138,26A3,3 0,0 1,141 29L141,50A3,3 0,0 1,138 53L132,53A3,3 0,0 1,129 50L129,29A3,3 0,0 1,132 26z" fill="#ffffff" fill-opacity="1.0" /><path d="M129,39H141V48.2C141,49.88 141,50.72 140.67,51.36C140.38,51.93 139.93,52.39 139.36,52.67C138.72,53 137.88,53 136.2,53H133.8C132.12,53 131.28,53 130.64,52.67C130.07,52.39 129.62,51.93 129.33,51.36C129,50.72 129,49.88 129,48.2V39Z" fill="#ffffff" fill-opacity="1.0" /><path d="M147,26L153,26A3,3 0,0 1,156 29L156,50A3,3 0,0 1,153 53L147,53A3,3 0,0 1,144 50L144,29A3,3 0,0 1,147 26z" fill="#ffffff" fill-opacity="1.0" /><path d="M144,39H156V48.2C156,49.88 156,50.72 155.67,51.36C155.38,51.93 154.93,52.39 154.36,52.67C153.72,53 152.88,53 151.2,53H148.8C147.12,53 146.28,53 145.64,52.67C145.07,52.39 144.62,51.93 144.33,51.36C144,50.72 144,49.88 144,48.2V39Z" fill="#ffffff" fill-opacity="1.0" /><path d="M68,19L86,19A1,1 0,0 1,87 20L87,22A1,1 0,0 1,86 23L68,23A1,1 0,0 1,67 22L67,20A1,1 0,0 1,68 19z" fill="#ffffff" fill-opacity="1.0" /><path d="M154,19L154,19A2,2 0,0 1,156 21L156,21A2,2 0,0 1,154 23L154,23A2,2 0,0 1,152 21L152,21A2,2 0,0 1,154 19z" fill="#ffffff" fill-opacity="1.0" /><path d="M148,19L148,19A2,2 0,0 1,150 21L150,21A2,2 0,0 1,148 23L148,23A2,2 0,0 1,146 21L146,21A2,2 0,0 1,148 19z" fill="#ffffff" fill-opacity="1.0" /></svg>