<?xml version="1.0" encoding="utf-8" ?>
<svg baseProfile="full" height="138.0" version="1.1" viewBox="0 0 220.0 138.0" width="220.0" xmlns="http://www.w3.org/2000/svg" xmlns:ev="http://www.w3.org/2001/xml-events" xmlns:xlink="http://www.w3.org/1999/xlink"><defs /><path d="M18,32.4C18,24.56 18,20.64 19.53,17.64C20.87,15.01 23.01,12.87 25.64,11.53C28.64,10 32.56,10 40.4,10H179.6C187.44,10 191.36,10 194.36,11.53C196.99,12.87 199.13,15.01 200.47,17.64C202,20.64 202,24.56 202,32.4V105.6C202,113.44 202,117.36 200.47,120.36C199.13,122.99 196.99,125.13 194.36,126.47C191.36,128 187.44,128 179.6,128H40.4C32.56,128 28.64,128 25.64,126.47C23.01,125.13 20.87,122.99 19.53,120.36C18,117.36 18,113.44 18,105.6V32.4Z" fill="#000000" fill-opacity="1.0" /><path d="M179.6,12H40.4C36.45,12 33.6,12 31.37,12.18C29.16,12.36 27.72,12.71 26.55,13.31C24.29,14.46 22.46,16.29 21.31,18.55C20.71,19.72 20.36,21.16 20.18,23.37C20,25.6 20,28.45 20,32.4V105.6C20,109.55 20,112.4 20.18,114.63C20.36,116.84 20.71,118.28 21.31,119.45C22.46,121.71 24.29,123.54 26.55,124.69C27.72,125.29 29.16,125.64 31.37,125.82C33.6,126 36.45,126 40.4,126H179.6C183.55,126 186.4,126 188.63,125.82C190.84,125.64 192.28,125.29 193.45,124.69C195.71,123.54 197.54,121.71 198.69,119.45C199.29,118.28 199.63,116.84 199.82,114.63C200,112.4 200,109.55 200,105.6V32.4C200,28.45 200,25.6 199.82,23.37C199.63,21.16 199.29,19.72 198.69,18.55C197.54,16.29 195.71,14.46 193.45,13.31C192.28,12.71 190.84,12.36 188.63,12.18C186.4,12 183.55,12 179.6,12ZM19.53,17.64C18,20.64 18,24.56 18,32.4V105.6C18,113.44 18,117.36 19.53,120.36C20.87,122.99 23.01,125.13 25.64,126.47C28.64,128 32.56,128 40.4,128H179.6C187.44,128 191.36,128 194.36,126.47C196.99,125.13 199.13,122.99 200.47,120.36C202,117.36 202,113.44 202,105.6V32.4C202,24.56 202,20.64 200.47,17.64C199.13,15.01 196.99,12.87 194.36,11.53C191.36,10 187.44,10 179.6,10H40.4C32.56,10 28.64,10 25.64,11.53C23.01,12.87 20.87,15.01 19.53,17.64Z" fill="#cfd1d8" fill-opacity="1.0" /><path d="M158.5,102.32L158.5,102.32A2.5,2.5 0,0 1,161 104.82L161,104.82A2.5,2.5 0,0 1,158.5 107.32L158.5,107.32A2.5,2.5 0,0 1,156 104.82L156,104.82A2.5,2.5 0,0 1,158.5 102.32z" fill="#000000" fill-opacity="1.0" /><path d="M171.5,103.32L178.5,103.32A1.5,1.5 0,0 1,180 104.82L180,104.82A1.5,1.5 0,0 1,178.5 106.32L171.5,106.32A1.5,1.5 0,0 1,170 104.82L170,104.82A1.5,1.5 0,0 1,171.5 103.32z" fill="#000000" fill-opacity="1.0" /><path d="M191.5,102.32L191.5,102.32A2.5,2.5 0,0 1,194 104.82L194,104.82A2.5,2.5 0,0 1,191.5 107.32L191.5,107.32A2.5,2.5 0,0 1,189 104.82L189,104.82A2.5,2.5 0,0 1,191.5 102.32z" fill="#000000" fill-opacity="1.0" /><path d="M157,21L167,21A1,1 0,0 1,168 22L168,24A1,1 0,0 1,167 25L157,25A1,1 0,0 1,156 24L156,22A1,1 0,0 1,157 21z" fill="#000000" fill-opacity="1.0" /><path d="M192,21L192,21A2,2 0,0 1,194 23L194,23A2,2 0,0 1,192 25L192,25A2,2 0,0 1,190 23L190,23A2,2 0,0 1,192 21z" fill="#000000" fill-opacity="1.0" /><path d="M160,58L160,58A4,4 0,0 1,164 62L164,62A4,4 0,0 1,160 66L160,66A4,4 0,0 1,156 62L156,62A4,4 0,0 1,160 58z" fill="#000000" fill-opacity="1.0" /><path d="M170,58L170,58A4,4 0,0 1,174 62L174,62A4,4 0,0 1,170 66L170,66A4,4 0,0 1,166 62L166,62A4,4 0,0 1,170 58z" fill="#000000" fill-opacity="1.0" /><path d="M180,58L180,58A4,4 0,0 1,184 62L184,62A4,4 0,0 1,180 66L180,66A4,4 0,0 1,176 62L176,62A4,4 0,0 1,180 58z" fill="#000000" fill-opacity="1.0" /><path d="M190,58L190,58A4,4 0,0 1,194 62L194,62A4,4 0,0 1,190 66L190,66A4,4 0,0 1,186 62L186,62A4,4 0,0 1,190 58z" fill="#000000" fill-opacity="1.0" /><path d="M160,68.11L160,68.11A4,4 0,0 1,164 72.11L164,72.11A4,4 0,0 1,160 76.11L160,76.11A4,4 0,0 1,156 72.11L156,72.11A4,4 0,0 1,160 68.11z" fill="#000000" fill-opacity="1.0" /><path d="M170,68.11L170,68.11A4,4 0,0 1,174 72.11L174,72.11A4,4 0,0 1,170 76.11L170,76.11A4,4 0,0 1,166 72.11L166,72.11A4,4 0,0 1,170 68.11z" fill="#000000" fill-opacity="1.0" /><path d="M180,68.11L180,68.11A4,4 0,0 1,184 72.11L184,72.11A4,4 0,0 1,180 76.11L180,76.11A4,4 0,0 1,176 72.11L176,72.11A4,4 0,0 1,180 68.11z" fill="#000000" fill-opacity="1.0" /><path d="M190,68.11L190,68.11A4,4 0,0 1,194 72.11L194,72.11A4,4 0,0 1,190 76.11L190,76.11A4,4 0,0 1,186 72.11L186,72.11A4,4 0,0 1,190 68.11z" fill="#000000" fill-opacity="1.0" /><path d="M160,78.21L160,78.21A4,4 0,0 1,164 82.21L164,82.21A4,4 0,0 1,160 86.21L160,86.21A4,4 0,0 1,156 82.21L156,82.21A4,4 0,0 1,160 78.21z" fill="#000000" fill-opacity="1.0" /><path d="M170,78.21L170,78.21A4,4 0,0 1,174 82.21L174,82.21A4,4 0,0 1,170 86.21L170,86.21A4,4 0,0 1,166 82.21L166,82.21A4,4 0,0 1,170 78.21z" fill="#000000" fill-opacity="1.0" /><path d="M180,78.21L180,78.21A4,4 0,0 1,184 82.21L184,82.21A4,4 0,0 1,180 86.21L180,86.21A4,4 0,0 1,176 82.21L176,82.21A4,4 0,0 1,180 78.21z" fill="#000000" fill-opacity="1.0" /><path d="M190,78.21L190,78.21A4,4 0,0 1,194 82.21L194,82.21A4,4 0,0 1,190 86.21L190,86.21A4,4 0,0 1,186 82.21L186,82.21A4,4 0,0 1,190 78.21z" fill="#000000" fill-opacity="1.0" /><path d="M160,88.32L160,88.32A4,4 0,0 1,164 92.32L164,92.32A4,4 0,0 1,160 96.32L160,96.32A4,4 0,0 1,156 92.32L156,92.32A4,4 0,0 1,160 88.32z" fill="#000000" fill-opacity="1.0" /><path d="M170,88.32L170,88.32A4,4 0,0 1,174 92.32L174,92.32A4,4 0,0 1,170 96.32L170,96.32A4,4 0,0 1,166 92.32L166,92.32A4,4 0,0 1,170 88.32z" fill="#000000" fill-opacity="1.0" /><path d="M180,88.32L180,88.32A4,4 0,0 1,184 92.32L184,92.32A4,4 0,0 1,180 96.32L180,96.32A4,4 0,0 1,176 92.32L176,92.32A4,4 0,0 1,180 88.32z" fill="#000000" fill-opacity="1.0" /><path d="M190,88.32L190,88.32A4,4 0,0 1,194 92.32L194,92.32A4,4 0,0 1,190 96.32L190,96.32A4,4 0,0 1,186 92.32L186,92.32A4,4 0,0 1,190 88.32z" fill="#000000" fill-opacity="1.0" /><path d="M176,42C176,40.6 176,39.9 176.27,39.37C176.51,38.89 176.9,38.51 177.37,38.27C177.9,38 178.6,38 180,38V38C181.4,38 182.1,38 182.63,38.27C183.1,38.51 183.49,38.89 183.73,39.37C184,39.9 184,40.6 184,42V44H176V42Z" fill="#000000" fill-opacity="1.0" /><path d="M176,44H184V52C184,53.4 184,54.1 183.73,54.63C183.49,55.11 183.1,55.49 182.63,55.73C182.1,56 181.4,56 180,56V56C178.6,56 177.9,56 177.37,55.73C176.9,55.49 176.51,55.11 176.27,54.63C176,54.1 176,53.4 176,52V44Z" fill="#ffffff" fill-opacity="1.0" /><path d="M186,42C186,40.6 186,39.9 186.27,39.37C186.51,38.89 186.9,38.51 187.37,38.27C187.9,38 188.6,38 190,38V38C191.4,38 192.1,38 192.63,38.27C193.1,38.51 193.49,38.89 193.73,39.37C194,39.9 194,40.6 194,42V48H186V42Z" fill="#000000" fill-opacity="1.0" /><path d="M186,48H194V52C194,53.4 194,54.1 193.73,54.63C193.49,55.11 193.1,55.49 192.63,55.73C192.1,56 191.4,56 190,56V56C188.6,56 187.9,56 187.37,55.73C186.9,55.49 186.51,55.11 186.27,54.63C186,54.1 186,53.4 186,52V48Z" fill="#ffffff" fill-opacity="1.0" /><path d="M158.5,38L171.5,38A2.5,2.5 0,0 1,174 40.5L174,53.5A2.5,2.5 0,0 1,171.5 56L158.5,56A2.5,2.5 0,0 1,156 53.5L156,40.5A2.5,2.5 0,0 1,158.5 38z" fill="#000000" fill-opacity="1.0" /><path d="M158.5,28L171.5,28A2.5,2.5 0,0 1,174 30.5L174,33.5A2.5,2.5 0,0 1,171.5 36L158.5,36A2.5,2.5 0,0 1,156 33.5L156,30.5A2.5,2.5 0,0 1,158.5 28z" fill="#000000" fill-opacity="1.0" /><path d="M178.5,28L191.5,28A2.5,2.5 0,0 1,194 30.5L194,33.5A2.5,2.5 0,0 1,191.5 36L178.5,36A2.5,2.5 0,0 1,176 33.5L176,30.5A2.5,2.5 0,0 1,178.5 28z" fill="#000000" fill-opacity="1.0" /></svg>