<?xml version="1.0" encoding="utf-8" ?>
<svg baseProfile="full" height="36.0" version="1.1" viewBox="0 0 36.0 36.0" width="36.0" xmlns="http://www.w3.org/2000/svg" xmlns:ev="http://www.w3.org/2001/xml-events" xmlns:xlink="http://www.w3.org/1999/xlink"><defs /><path d="M24.75,7.5C23.9216,7.5 23.25,8.1716 23.25,9V16.8219C23.1447,16.6153 22.9839,16.43 22.7677,16.2884L9.7077,7.7366C8.764,7.1187 7.5,7.7831 7.5,8.8971V26.0007C7.5,27.1147 8.764,27.7791 9.7077,27.1612L22.7677,18.6094C22.9839,18.4678 23.1447,18.2825 23.25,18.0759V26.1C23.25,26.9284 23.9216,27.6 24.75,27.6H27C27.8284,27.6 28.5,26.9284 28.5,26.1V9C28.5,8.1716 27.8284,7.5 27,7.5H24.75Z" fill="#000000" fill-opacity="1.0" /></svg>