<?xml version="1.0" encoding="utf-8" ?>
<svg baseProfile="full" height="42.0" version="1.1" viewBox="0 0 42.0 42.0" width="42.0" xmlns="http://www.w3.org/2000/svg" xmlns:ev="http://www.w3.org/2001/xml-events" xmlns:xlink="http://www.w3.org/1999/xlink"><defs /><path d="M32.2036,21.0221C33.4365,19.7413 34.1253,18.0328 34.1253,16.2551C34.1253,14.4774 33.4365,12.7688 32.2036,11.4881C31.6026,10.8637 30.8818,10.367 30.0844,10.0278C29.2869,9.6885 28.4292,9.5137 27.5626,9.5137C26.696,9.5137 25.8383,9.6885 25.0409,10.0278C24.2434,10.367 23.5226,10.8637 22.9216,11.4881L21.0474,13.5146L19.0786,11.492C18.4776,10.8676 17.7568,10.371 16.9594,10.0317C16.1619,9.6925 15.3042,9.5176 14.4376,9.5176C13.571,9.5176 12.7133,9.6925 11.9159,10.0317C11.1184,10.371 10.3976,10.8676 9.7966,11.492C8.5638,12.7727 7.875,14.4813 7.875,16.259C7.875,18.0367 8.5638,19.7453 9.7966,21.026L20.9529,32.4854L32.2036,21.0221Z" fill="#000000" fill-opacity="1.0" /></svg>