<?xml version="1.0" encoding="utf-8" ?>
<svg baseProfile="full" height="36.0" version="1.1" viewBox="0 0 36.0 36.0" width="36.0" xmlns="http://www.w3.org/2000/svg" xmlns:ev="http://www.w3.org/2001/xml-events" xmlns:xlink="http://www.w3.org/1999/xlink"><defs /><path d="M11.25,7.5C12.0784,7.5 12.75,8.1716 12.75,9V16.8219C12.8553,16.6153 13.0161,16.43 13.2323,16.2884L26.2923,7.7366C27.236,7.1187 28.5,7.7831 28.5,8.8971V26.0007C28.5,27.1147 27.236,27.7791 26.2923,27.1612L13.2323,18.6094C13.0161,18.4678 12.8553,18.2825 12.75,18.0759V26.1C12.75,26.9284 12.0784,27.6 11.25,27.6H9C8.1716,27.6 7.5,26.9284 7.5,26.1V9C7.5,8.1716 8.1716,7.5 9,7.5H11.25Z" fill="#000000" fill-opacity="1.0" /></svg>