<?xml version="1.0" encoding="utf-8" ?>
<svg baseProfile="full" height="24.0" version="1.1" viewBox="0 0 24.0 24.0" width="24.0" xmlns="http://www.w3.org/2000/svg" xmlns:ev="http://www.w3.org/2001/xml-events" xmlns:xlink="http://www.w3.org/1999/xlink"><defs /><path d="M18,13h-5v5c0,0.55 -0.45,1 -1,1h0c-0.55,0 -1,-0.45 -1,-1v-5H6c-0.55,0 -1,-0.45 -1,-1v0c0,-0.55 0.45,-1 1,-1h5V6c0,-0.55 0.45,-1 1,-1h0c0.55,0 1,0.45 1,1v5h5c0.55,0 1,0.45 1,1v0C19,12.55 18.55,13 18,13z" fill="#ffffff" fill-opacity="1.0" /></svg>