<?xml version="1.0" encoding="utf-8" ?>
<svg baseProfile="full" height="14.0" version="1.1" viewBox="0 0 14.0 14.0" width="14.0" xmlns="http://www.w3.org/2000/svg" xmlns:ev="http://www.w3.org/2001/xml-events" xmlns:xlink="http://www.w3.org/1999/xlink"><defs /><path d="M7,7m-7,0a7,7 0,1 1,14 0a7,7 0,1 1,-14 0" fill="#ffffff" fill-opacity="1.0" /><path d="M9.723,5.618C9.637,5.631 9.55,5.637 9.461,5.637C8.467,5.637 7.661,4.831 7.661,3.837C7.661,3.748 7.668,3.661 7.68,3.575H4.21C4.065,3.575 3.948,3.692 3.948,3.837V8.45H8.336C8.481,8.45 8.599,8.567 8.599,8.712V9.137C8.599,9.31 8.639,9.481 8.716,9.636C8.949,10.104 9.62,9.982 9.713,9.511C9.723,9.378 9.723,9.217 9.723,9.023V9.023V9.023V9.023V9.023V9.012V5.618ZM3.038,9.954C2.918,9.715 2.847,9.456 2.828,9.19C2.85,9.068 2.958,8.975 3.086,8.975H8.074V9.137C8.074,9.392 8.133,9.643 8.246,9.871C8.409,10.196 8.678,10.378 8.967,10.436C8.905,10.45 8.841,10.458 8.774,10.464C8.639,10.475 8.472,10.475 8.271,10.475H8.271H8.271H8.271H8.271H8.271H8.26H3.88C3.523,10.475 3.197,10.273 3.038,9.954ZM5.448,5.712C5.448,5.567 5.566,5.45 5.711,5.45H7.961C8.106,5.45 8.223,5.567 8.223,5.712C8.223,5.857 8.106,5.975 7.961,5.975H5.711C5.566,5.975 5.448,5.857 5.448,5.712ZM5.711,6.95C5.566,6.95 5.448,7.067 5.448,7.212C5.448,7.357 5.566,7.475 5.711,7.475H7.961C8.106,7.475 8.223,7.357 8.223,7.212C8.223,7.067 8.106,6.95 7.961,6.95H5.711Z" fill="#ffffff" fill-opacity="1.0" /><path d="M9.459,5.15C10.184,5.15 10.771,4.562 10.771,3.838C10.771,3.113 10.184,2.525 9.459,2.525C8.734,2.525 8.146,3.113 8.146,3.838C8.146,4.562 8.734,5.15 9.459,5.15ZM9.46,2.825C9.605,2.825 9.722,2.943 9.722,3.088V3.838C9.722,3.983 9.605,4.1 9.46,4.1C9.315,4.1 9.197,3.983 9.197,3.838V3.088C9.197,2.943 9.315,2.825 9.46,2.825ZM9.46,4.869C9.615,4.869 9.741,4.743 9.741,4.588C9.741,4.432 9.615,4.306 9.46,4.306C9.304,4.306 9.178,4.432 9.178,4.588C9.178,4.743 9.304,4.869 9.46,4.869Z" fill="#ffffff" fill-opacity="1.0" /></svg>