<?xml version="1.0" encoding="utf-8" ?>
<svg baseProfile="full" height="14.0" version="1.1" viewBox="0 0 14.0 14.0" width="14.0" xmlns="http://www.w3.org/2000/svg" xmlns:ev="http://www.w3.org/2001/xml-events" xmlns:xlink="http://www.w3.org/1999/xlink"><defs /><path d="M7,7m-7,0a7,7 0,1 1,14 0a7,7 0,1 1,-14 0" fill="#ffffff" fill-opacity="1.0" /><path d="M9.566,6.155V8.705H8.846V5.035H9.691L11.406,7.435V5.035H12.116V8.705H11.401L9.566,6.155Z" fill="#ffffff" fill-opacity="1.0" /><path d="M6.345,8.705H5.57V5.035H7.02C7.3,5.035 7.544,5.085 7.75,5.185C7.96,5.285 8.122,5.426 8.235,5.61C8.349,5.79 8.405,6 8.405,6.24C8.405,6.48 8.349,6.691 8.235,6.875C8.122,7.058 7.96,7.2 7.75,7.3C7.544,7.4 7.3,7.45 7.02,7.45H6.345V8.705ZM6.345,6.865H6.895C7.119,6.865 7.29,6.811 7.41,6.705C7.534,6.598 7.595,6.443 7.595,6.24C7.595,6.04 7.534,5.888 7.41,5.785C7.29,5.678 7.119,5.625 6.895,5.625H6.345V6.865Z" fill="#ffffff" fill-opacity="1.0" /><path d="M2.428,5.035L3.438,8.03L4.453,5.035H5.253L3.903,8.705H2.913L1.578,5.035H2.428Z" fill="#ffffff" fill-opacity="1.0" /></svg>