<?xml version="1.0" encoding="utf-8" ?>
<svg baseProfile="full" height="24.0" version="1.1" viewBox="0 0 24.0 24.0" width="24.0" xmlns="http://www.w3.org/2000/svg" xmlns:ev="http://www.w3.org/2001/xml-events" xmlns:xlink="http://www.w3.org/1999/xlink"><defs /><path d="M13.41,12l5.29-5.29c0.39-0.39,0.39-1.02,0-1.41c-0.39-0.39-1.02-0.39-1.41,0L12,10.59L6.71, 5.29c-0.39-0.39-1.02-0.39-1.41,0c-0.39,0.39-0.39,1.02,0,1.41L10.59,12l-5.29,5.29c-0.39,0.39-0.39,1.02, 0,1.41c0.39,0.39,1.02,0.39,1.41,0L12,13.41l5.29,5.29c0.39,0.39,1.02,0.39,1.41,0c0.39-0.39,0.39-1.02,0-1.41L13.41,12z" fill="#ffffff" fill-opacity="1.0" /></svg>