<?xml version="1.0" encoding="utf-8" ?>
<svg baseProfile="full" height="36.0" version="1.1" viewBox="0 0 36.0 36.0" width="36.0" xmlns="http://www.w3.org/2000/svg" xmlns:ev="http://www.w3.org/2001/xml-events" xmlns:xlink="http://www.w3.org/1999/xlink"><defs /><path d="M18.0001,2.9001C13.3947,2.9001 9.2709,4.9618 6.5012,8.2126H16.7858C17.3348,8.2126 17.8509,8.404 18.2297,8.792C18.6068,9.1783 18.7876,9.6974 18.7876,10.2439V14.0652C19.1997,14.1887 19.5001,14.5709 19.5001,15.0233V20.5304C19.5001,20.9827 19.1997,21.3649 18.7876,21.4884V33.0799C26.5746,32.6798 32.8027,26.3806 33.0898,18.5642L25.6886,18.5642L28.0108,20.8864L26.8971,22.0001L23.2306,18.3335C22.923,18.026 22.923,17.5274 23.2306,17.2198L26.8971,13.5533L28.0108,14.667L25.6886,16.9892L33.0668,16.9892C32.5467,9.121 25.9999,2.9001 18.0001,2.9001ZM2.9001,18.0001C2.9001,14.9717 3.7916,12.1514 5.3266,9.7876H16.7858C16.9654,9.7876 17.0565,9.8449 17.1027,9.8923C17.1505,9.9413 17.2126,10.0441 17.2126,10.2439V33.0799C9.2391,32.6703 2.9001,26.0755 2.9001,18.0001ZM1.1001,18.0001C1.1001,8.6665 8.6665,1.1001 18.0001,1.1001C27.3337,1.1001 34.9001,8.6665 34.9001,18.0001C34.9001,27.3337 27.3337,34.9001 18.0001,34.9001C8.6665,34.9001 1.1001,27.3337 1.1001,18.0001Z" fill="#000000" fill-opacity="1.0" /></svg>