<?xml version="1.0" encoding="utf-8" ?>
<svg baseProfile="full" height="48.0" version="1.1" viewBox="0 0 48.0 48.0" width="48.0" xmlns="http://www.w3.org/2000/svg" xmlns:ev="http://www.w3.org/2001/xml-events" xmlns:xlink="http://www.w3.org/1999/xlink"><defs /><path d="M0,24 a24,24 0 1,0 48,0 a24,24 0 1,0 -48,0" fill="#000000" fill-opacity="1.0" /><path d="M3,21V15H5V17.6L8.1,14.5L9.5,15.9L6.4,19H9V21ZM15,21V19H17.6L14.5,15.9L15.9,14.5L19,17.6V15H21V21ZM8.1,9.5 L5,6.4V9H3V3H9V5H6.4L9.5,8.1ZM15.9,9.5 L14.5,8.1 17.6,5H15V3H21V9H19V6.4Z" fill="#000000" fill-opacity="1.0" /></svg>