<?xml version="1.0" encoding="utf-8" ?>
<svg baseProfile="full" height="31.0" version="1.1" viewBox="0 0 31.0 31.0" width="31.0" xmlns="http://www.w3.org/2000/svg" xmlns:ev="http://www.w3.org/2001/xml-events" xmlns:xlink="http://www.w3.org/1999/xlink"><defs /><path d="M15.4763 8.47265L8.35387 16.1375C8.23917 16.2609 8.17553 16.4232 8.17578 16.5917C8.17633 16.9595 8.47509 17.2572 8.84307 17.2567L12.4976 17.2512V22.9119C12.4976 23.2797 12.7959 23.5779 13.1639 23.5779H18.4943C18.8622 23.5779 19.1605 23.2797 19.1605 22.9119V17.2512L22.8265 17.2567C22.9908 17.257 23.1494 17.1965 23.2718 17.087C23.546 16.8417 23.5694 16.4207 23.324 16.1466L16.461 8.48174C16.4473 8.46647 16.4329 8.45184 16.4179 8.43789C16.1483 8.18759 15.7267 8.20315 15.4763 8.47265ZM13.8299 15.9174L10.3724 15.9226L15.9557 9.91407L21.3357 15.9227L17.8289 15.9174V22.2461H13.8299V15.9174Z" fill="#ffffff" fill-opacity="1.0" /></svg>