<?xml version="1.0" encoding="utf-8" ?>
<svg baseProfile="full" height="31.0" version="1.1" viewBox="0 0 31.0 31.0" width="31.0" xmlns="http://www.w3.org/2000/svg" xmlns:ev="http://www.w3.org/2001/xml-events" xmlns:xlink="http://www.w3.org/1999/xlink"><defs /><path d="M8.41442 16.1375L15.5368 8.47265C15.7872 8.20315 16.2088 8.18759 16.4785 8.43789C16.4935 8.45184 16.5078 8.46647 16.5215 8.48174L23.3845 16.1466C23.6299 16.4207 23.6066 16.8417 23.3324 17.087C23.2099 17.1965 23.0513 17.257 22.887 17.2567L19.2211 17.2512V22.9119C19.2211 23.2797 18.9228 23.5779 18.5548 23.5779H13.2244C12.8565 23.5779 12.5581 23.2797 12.5581 22.9119V17.2512L8.90362 17.2567C8.53564 17.2572 8.23688 16.9595 8.23633 16.5917C8.23608 16.4232 8.29971 16.2609 8.41442 16.1375Z" fill="#ffffff" fill-opacity="1.0" /></svg>