<?xml version="1.0" encoding="utf-8" ?>
<svg baseProfile="full" height="34.0" version="1.1" viewBox="0 0 33.0 34.0" width="33.0" xmlns="http://www.w3.org/2000/svg" xmlns:ev="http://www.w3.org/2001/xml-events" xmlns:xlink="http://www.w3.org/1999/xlink"><defs /><path d="M15.1326,2.9968L25.9786,2.9968A4.3548,4.3548 0,0 1,30.3334 7.3517L30.3334,18.1976A4.3548,4.3548 0,0 1,25.9786 22.5524L15.1326,22.5524A4.3548,4.3548 0,0 1,10.7778 18.1976L10.7778,7.3517A4.3548,4.3548 0,0 1,15.1326 2.9968z" fill="#000000" fill-opacity="1.0" /><path d="M15.1326,2.9968L25.9786,2.9968A4.3548,4.3548 0,0 1,30.3334 7.3517L30.3334,18.1976A4.3548,4.3548 0,0 1,25.9786 22.5524L15.1326,22.5524A4.3548,4.3548 0,0 1,10.7778 18.1976L10.7778,7.3517A4.3548,4.3548 0,0 1,15.1326 2.9968z" fill="#000000" fill-opacity="1.0" /><path d="M8.0213,10.1079L18.8673,10.1079A4.3548,4.3548 0,0 1,23.2221 14.4627L23.2221,25.3087A4.3548,4.3548 0,0 1,18.8673 29.6635L8.0213,29.6635A4.3548,4.3548 0,0 1,3.6665 25.3087L3.6665,14.4627A4.3548,4.3548 0,0 1,8.0213 10.1079z" fill="#000000" fill-opacity="1.0" /><path d="M8.0213,10.1079L18.8673,10.1079A4.3548,4.3548 0,0 1,23.2221 14.4627L23.2221,25.3087A4.3548,4.3548 0,0 1,18.8673 29.6635L8.0213,29.6635A4.3548,4.3548 0,0 1,3.6665 25.3087L3.6665,14.4627A4.3548,4.3548 0,0 1,8.0213 10.1079z" fill="#000000" fill-opacity="1.0" /><path d="M8.0213,10.1079L18.8673,10.1079A4.3548,4.3548 0,0 1,23.2221 14.4627L23.2221,25.3087A4.3548,4.3548 0,0 1,18.8673 29.6635L8.0213,29.6635A4.3548,4.3548 0,0 1,3.6665 25.3087L3.6665,14.4627A4.3548,4.3548 0,0 1,8.0213 10.1079z" fill="#000000" fill-opacity="1.0" /><path d="M8.0213,10.1079L18.8673,10.1079A4.3548,4.3548 0,0 1,23.2221 14.4627L23.2221,25.3087A4.3548,4.3548 0,0 1,18.8673 29.6635L8.0213,29.6635A4.3548,4.3548 0,0 1,3.6665 25.3087L3.6665,14.4627A4.3548,4.3548 0,0 1,8.0213 10.1079z" fill="#000000" fill-opacity="1.0" /><path d="M9.178,18.8191L9.178,18.8191A1.0667,1.0667 0,0 1,10.2447 19.8858L10.2447,19.8858A1.0667,1.0667 0,0 1,9.178 20.9524L9.178,20.9524A1.0667,1.0667 0,0 1,8.1113 19.8858L8.1113,19.8858A1.0667,1.0667 0,0 1,9.178 18.8191z" fill="#ffffff" fill-opacity="1.0" /><path d="M12.3774,19.8858C12.3774,20.4749 12.855,20.9524 13.4441,20.9524C14.0332,20.9524 14.5108,20.4749 14.5108,19.8858C14.5108,19.2967 14.0332,18.8191 13.4441,18.8191C12.855,18.8191 12.3774,19.2967 12.3774,19.8858Z" fill="#ffffff" fill-opacity="1.0" /><path d="M16.644,19.8858C16.644,20.4749 17.1216,20.9524 17.7107,20.9524C18.2998,20.9524 18.7774,20.4749 18.7774,19.8858C18.7774,19.2967 18.2998,18.8191 17.7107,18.8191C17.1216,18.8191 16.644,19.2967 16.644,19.8858Z" fill="#ffffff" fill-opacity="1.0" /></svg>