<?xml version="1.0" encoding="utf-8" ?>
<svg baseProfile="full" height="36.0" version="1.1" viewBox="0 0 36.0 37.0" width="35.027008" xmlns="http://www.w3.org/2000/svg" xmlns:ev="http://www.w3.org/2001/xml-events" xmlns:xlink="http://www.w3.org/1999/xlink"><defs /><path d="M9,0.495L27,0.495A8.835,8.835 0,0 1,35.835 9.33L35.835,27.33A8.835,8.835 0,0 1,27 36.165L9,36.165A8.835,8.835 0,0 1,0.165 27.33L0.165,9.33A8.835,8.835 0,0 1,9 0.495z" fill="#f5f5f5" fill-opacity="1.0" /><path d="M8,4.33L13,4.33A4,4 0,0 1,17 8.33L17,13.33A4,4 0,0 1,13 17.33L8,17.33A4,4 0,0 1,4 13.33L4,8.33A4,4 0,0 1,8 4.33z" fill="#000000" fill-opacity="1.0" /><path d="M8,4.33L13,4.33A4,4 0,0 1,17 8.33L17,13.33A4,4 0,0 1,13 17.33L8,17.33A4,4 0,0 1,4 13.33L4,8.33A4,4 0,0 1,8 4.33z" fill="#000000" fill-opacity="1.0" /><path d="M25.6,19.33H25.4C23.16,19.33 22.04,19.33 21.184,19.766C20.431,20.149 19.819,20.761 19.436,21.514C19,22.37 19,23.49 19,25.73V25.93C19,28.17 19,29.29 19.436,30.146C19.819,30.899 20.431,31.511 21.184,31.894C22.04,32.33 23.16,32.33 25.4,32.33H25.6C27.84,32.33 28.96,32.33 29.816,31.894C30.569,31.511 31.181,30.899 31.564,30.146C32,29.29 32,28.17 32,25.93V25.73C32,23.49 32,22.37 31.564,21.514C31.181,20.761 30.569,20.149 29.816,19.766C28.96,19.33 27.84,19.33 25.6,19.33Z" fill="#000000" fill-opacity="1.0" /><path d="M8,19.33L13,19.33A4,4 0,0 1,17 23.33L17,28.33A4,4 0,0 1,13 32.33L8,32.33A4,4 0,0 1,4 28.33L4,23.33A4,4 0,0 1,8 19.33z" fill="#000000" fill-opacity="1.0" /><path d="M25.6,4.33H25.4C23.16,4.33 22.04,4.33 21.184,4.766C20.431,5.15 19.819,5.761 19.436,6.514C19,7.37 19,8.49 19,10.73V10.93C19,13.17 19,14.29 19.436,15.146C19.819,15.899 20.431,16.511 21.184,16.894C22.04,17.33 23.16,17.33 25.4,17.33H25.6C27.84,17.33 28.96,17.33 29.816,16.894C30.569,16.511 31.181,15.899 31.564,15.146C32,14.29 32,13.17 32,10.93V10.73C32,8.49 32,7.37 31.564,6.514C31.181,5.761 30.569,5.15 29.816,4.766C28.96,4.33 27.84,4.33 25.6,4.33Z" fill="#000000" fill-opacity="1.0" /><path d="M9,0.495L27,0.495A8.835,8.835 0,0 1,35.835 9.33L35.835,27.33A8.835,8.835 0,0 1,27 36.165L9,36.165A8.835,8.835 0,0 1,0.165 27.33L0.165,9.33A8.835,8.835 0,0 1,9 0.495z" fill="#000000" fill-opacity="0.0" /></svg>