<?xml version="1.0" encoding="utf-8" ?>
<svg baseProfile="full" height="24.0" version="1.1" viewBox="0 0 24.0 24.0" width="24.0" xmlns="http://www.w3.org/2000/svg" xmlns:ev="http://www.w3.org/2001/xml-events" xmlns:xlink="http://www.w3.org/1999/xlink"><defs /><path d="M5.705,5.423C5.707,5.42 5.709,5.42 5.709,5.42L11.306,5.42L11.306,18.57H12.906L12.906,5.42L18.686,5.42C18.686,5.42 18.688,5.42 18.691,5.423C18.694,5.426 18.697,5.432 18.697,5.439V18.551C18.697,18.558 18.694,18.564 18.691,18.567C18.688,18.57 18.686,18.57 18.686,18.57H5.898C5.788,18.57 5.698,18.48 5.698,18.37L5.698,5.439C5.698,5.432 5.702,5.426 5.705,5.423ZM5.709,3.82C5.279,3.82 4.869,3.993 4.567,4.297C4.266,4.602 4.098,5.013 4.098,5.439L4.098,18.37C4.098,19.364 4.904,20.17 5.898,20.17L18.686,20.17C19.116,20.17 19.526,19.997 19.828,19.693C20.129,19.388 20.297,18.977 20.297,18.551L20.297,5.439C20.297,5.013 20.129,4.602 19.828,4.297C19.526,3.993 19.116,3.82 18.686,3.82L5.709,3.82Z" fill="#ffffff" fill-opacity="1.0" /></svg>