<?xml version="1.0" encoding="utf-8" ?>
<svg baseProfile="full" height="24.0" version="1.1" viewBox="0 0 24.0 24.0" width="24.0" xmlns="http://www.w3.org/2000/svg" xmlns:ev="http://www.w3.org/2001/xml-events" xmlns:xlink="http://www.w3.org/1999/xlink"><defs /><path d="M5.438,5.426C5.442,5.422 5.447,5.42 5.452,5.42L18.563,5.42C18.569,5.42 18.573,5.422 18.577,5.426C18.581,5.429 18.583,5.434 18.583,5.439V11.2L5.433,11.2L5.433,5.439C5.433,5.434 5.435,5.429 5.438,5.426ZM5.433,12.8L5.433,18.37C5.433,18.48 5.522,18.57 5.633,18.57H18.563C18.569,18.57 18.573,18.568 18.577,18.564C18.581,18.561 18.583,18.556 18.583,18.551V12.8L5.433,12.8ZM5.452,3.82C5.023,3.82 4.611,3.991 4.307,4.294C4.003,4.598 3.833,5.01 3.833,5.439L3.833,18.37C3.833,19.364 4.639,20.17 5.633,20.17L18.563,20.17C18.993,20.17 19.405,19.999 19.708,19.696C20.012,19.392 20.183,18.98 20.183,18.551L20.183,5.439C20.183,5.01 20.012,4.598 19.708,4.294C19.405,3.991 18.993,3.82 18.563,3.82L5.452,3.82Z" fill="#ffffff" fill-opacity="1.0" /></svg>