<?xml version="1.0" encoding="utf-8" ?>
<svg baseProfile="full" height="24.0" version="1.1" viewBox="0 0 24.0 24.0" width="24.0" xmlns="http://www.w3.org/2000/svg" xmlns:ev="http://www.w3.org/2001/xml-events" xmlns:xlink="http://www.w3.org/1999/xlink"><defs /><path d="M17.9,19C17.9,19.5523 17.4523,20 16.9,20H7.1C6.5477,20 6.1,19.5523 6.1,19L6.1,9C6.1,8.4477 6.5477,8 7.1,8L16.9,8C17.4523,8 17.9,8.4477 17.9,9V19Z" fill="#000000" fill-opacity="1.0" /><path d="M17.9,19C17.9,19.5523 17.4523,20 16.9,20H7.1C6.5477,20 6.1,19.5523 6.1,19L6.1,5C6.1,4.4477 6.5477,4 7.1,4H16.9C17.4523,4 17.9,4.4477 17.9,5L17.9,19Z" fill="#000000" fill-opacity="1.0" /><path d="M17.9,7C17.9,7.5523 17.4523,8 16.9,8L7.1,8C6.5477,8 6.1,7.5523 6.1,7V5C6.1,4.4477 6.5477,4 7.1,4L16.9,4C17.4523,4 17.9,4.4477 17.9,5V7Z" fill="#000000" fill-opacity="1.0" /></svg>