<?xml version="1.0" encoding="utf-8" ?>
<svg baseProfile="full" height="36.0" version="1.1" viewBox="0 0 36.0 36.0" width="36.0" xmlns="http://www.w3.org/2000/svg" xmlns:ev="http://www.w3.org/2001/xml-events" xmlns:xlink="http://www.w3.org/1999/xlink"><defs /><path d="M7,18C7,11.925 11.925,7 18,7C24.075,7 29,11.925 29,18C29,24.075 24.075,29 18,29C11.925,29 7,24.075 7,18ZM23.398,15.62C23.576,15.431 23.673,15.179 23.668,14.92C23.664,14.66 23.559,14.412 23.375,14.229C23.192,14.045 22.944,13.94 22.684,13.936C22.424,13.932 22.173,14.029 21.984,14.207L15.973,20.217L14.079,18.324C13.89,18.142 13.638,18.041 13.376,18.043C13.113,18.046 12.863,18.151 12.677,18.336C12.492,18.522 12.387,18.772 12.384,19.035C12.382,19.297 12.483,19.549 12.665,19.738L15.973,23.046L23.398,15.621V15.62Z" fill="#1ed760" fill-opacity="1.0" /></svg>