<?xml version="1.0" encoding="utf-8" ?>
<svg baseProfile="full" height="16.0" version="1.1" viewBox="0 0 16.0 16.0" width="16.0" xmlns="http://www.w3.org/2000/svg" xmlns:ev="http://www.w3.org/2001/xml-events" xmlns:xlink="http://www.w3.org/1999/xlink"><defs /><path d="M2,0.666C1.647,0.666 1.308,0.806 1.058,1.057C0.807,1.307 0.667,1.646 0.667,1.999V13.999C0.667,14.353 0.807,14.692 1.058,14.942C1.308,15.192 1.647,15.333 2,15.333H14C14.354,15.333 14.693,15.192 14.943,14.942C15.193,14.692 15.334,14.353 15.334,13.999V1.999C15.334,1.646 15.193,1.307 14.943,1.057C14.693,0.806 14.354,0.666 14,0.666H2ZM9.984,4.201C10.829,3.903 11.29,3.235 11.509,2.655C11.537,2.58 11.797,2.58 11.825,2.655C12.045,3.235 12.505,3.903 13.35,4.201C13.426,4.227 13.426,4.459 13.35,4.485C12.505,4.783 12.044,5.451 11.825,6.031C11.797,6.106 11.537,6.106 11.509,6.031C11.289,5.451 10.829,4.784 9.984,4.485C9.908,4.459 9.908,4.228 9.984,4.201V4.201ZM13,11.999C13,12.265 12.895,12.519 12.707,12.707C12.52,12.894 12.266,12.999 12,12.999C11.735,12.999 11.481,12.894 11.293,12.707C11.106,12.519 11,12.265 11,11.999C11,11.734 11.106,11.48 11.293,11.292C11.481,11.105 11.735,10.999 12,10.999C12.266,10.999 12.52,11.105 12.707,11.292C12.895,11.48 13,11.734 13,11.999ZM1.994,8.234C4.926,7.646 6.18,5.266 6.556,3.656C6.574,3.577 6.76,3.577 6.778,3.656C7.154,5.265 8.408,7.645 11.34,8.234C11.42,8.25 11.42,8.415 11.34,8.431C8.407,9.02 7.154,11.401 6.778,13.009C6.76,13.088 6.574,13.088 6.556,13.009C6.18,11.401 4.926,9.02 1.994,8.431C1.914,8.415 1.914,8.25 1.994,8.234V8.234Z" fill="#1ed760" fill-opacity="1.0" /></svg>