<?xml version="1.0" encoding="utf-8" ?>
<svg baseProfile="full" height="36.0" version="1.1" viewBox="0 0 36.0 36.0" width="36.0" xmlns="http://www.w3.org/2000/svg" xmlns:ev="http://www.w3.org/2001/xml-events" xmlns:xlink="http://www.w3.org/1999/xlink"><defs /><path d="M17.999,9C16.817,9 15.647,9.233 14.555,9.685C13.463,10.137 12.471,10.8 11.635,11.636C10.799,12.472 10.136,13.464 9.684,14.556C9.232,15.648 8.999,16.818 8.999,18C8.999,19.182 9.232,20.352 9.684,21.444C10.136,22.536 10.799,23.528 11.635,24.364C12.471,25.2 13.463,25.863 14.555,26.315C15.647,26.767 16.817,27 17.999,27C20.386,27 22.675,26.052 24.363,24.364C26.051,22.676 26.999,20.387 26.999,18C26.999,15.613 26.051,13.324 24.363,11.636C22.675,9.948 20.386,9 17.999,9ZM6.999,18C6.999,11.925 11.924,7 17.999,7C24.074,7 28.999,11.925 28.999,18C28.999,24.075 24.074,29 17.999,29C11.924,29 6.999,24.075 6.999,18Z" fill="#ffffff" fill-opacity="1.0" /><path d="M23.999,18C23.999,18.265 23.894,18.52 23.706,18.707C23.519,18.895 23.264,19 22.999,19H18.999V23C18.999,23.265 18.894,23.52 18.706,23.707C18.519,23.895 18.264,24 17.999,24C17.734,24 17.479,23.895 17.292,23.707C17.104,23.52 16.999,23.265 16.999,23V19H12.999C12.734,19 12.479,18.895 12.292,18.707C12.104,18.52 11.999,18.265 11.999,18C11.999,17.735 12.104,17.48 12.292,17.293C12.479,17.105 12.734,17 12.999,17H16.999V13C16.999,12.735 17.104,12.48 17.292,12.293C17.479,12.105 17.734,12 17.999,12C18.264,12 18.519,12.105 18.706,12.293C18.894,12.48 18.999,12.735 18.999,13V17H22.999C23.264,17 23.519,17.105 23.706,17.293C23.894,17.48 23.999,17.735 23.999,18Z" fill="#ffffff" fill-opacity="1.0" /></svg>