<?xml version="1.0" encoding="utf-8" ?>
<svg baseProfile="full" height="16.0" version="1.1" viewBox="0 0 16.0 16.0" width="16.0" xmlns="http://www.w3.org/2000/svg" xmlns:ev="http://www.w3.org/2001/xml-events" xmlns:xlink="http://www.w3.org/1999/xlink"><defs /><path d="M7.999,0.666C6.054,0.666 4.189,1.439 2.814,2.814C1.439,4.189 0.666,6.054 0.666,7.999C0.666,9.944 1.439,11.809 2.814,13.185C4.189,14.56 6.054,15.333 7.999,15.333C9.944,15.333 11.809,14.56 13.185,13.185C14.56,11.809 15.333,9.944 15.333,7.999C15.333,6.054 14.56,4.189 13.185,2.814C11.809,1.439 9.944,0.666 7.999,0.666V0.666ZM11.363,11.243C11.331,11.295 11.29,11.339 11.242,11.375C11.193,11.41 11.138,11.435 11.08,11.45C11.021,11.464 10.961,11.466 10.901,11.457C10.842,11.448 10.785,11.427 10.734,11.395C9.012,10.343 6.845,10.105 4.292,10.689C4.175,10.712 4.054,10.689 3.953,10.625C3.853,10.56 3.782,10.459 3.755,10.342C3.729,10.226 3.749,10.104 3.811,10.002C3.873,9.9 3.972,9.827 4.088,9.797C6.881,9.159 9.278,9.433 11.211,10.615C11.262,10.646 11.307,10.687 11.342,10.736C11.377,10.784 11.403,10.839 11.417,10.898C11.431,10.956 11.434,11.017 11.424,11.076C11.415,11.135 11.394,11.192 11.363,11.243V11.243ZM12.26,9.247C12.181,9.376 12.053,9.468 11.906,9.504C11.758,9.539 11.603,9.514 11.473,9.435C9.503,8.223 6.497,7.872 4.166,8.58C4.076,8.609 3.98,8.614 3.887,8.597C3.794,8.579 3.707,8.538 3.633,8.478C3.56,8.419 3.503,8.342 3.466,8.254C3.43,8.167 3.416,8.072 3.426,7.977C3.437,7.864 3.482,7.757 3.555,7.67C3.627,7.582 3.724,7.518 3.833,7.486C6.497,6.678 9.808,7.069 12.071,8.461C12.135,8.5 12.191,8.551 12.235,8.612C12.279,8.673 12.311,8.742 12.329,8.815C12.346,8.888 12.349,8.963 12.337,9.037C12.325,9.112 12.299,9.183 12.26,9.247V9.247ZM12.337,7.167C9.973,5.763 6.074,5.634 3.817,6.319C3.645,6.368 3.46,6.346 3.303,6.26C3.145,6.174 3.028,6.029 2.976,5.858C2.924,5.686 2.941,5.501 3.024,5.342C3.107,5.183 3.249,5.062 3.419,5.007C6.01,4.22 10.316,4.372 13.037,5.987C13.194,6.08 13.307,6.231 13.352,6.408C13.397,6.584 13.37,6.771 13.277,6.927C13.184,7.084 13.033,7.197 12.857,7.242C12.681,7.287 12.494,7.26 12.337,7.167V7.167Z" fill="#ffffff" fill-opacity="1.0" /></svg>