<?xml version="1.0" encoding="utf-8" ?>
<svg baseProfile="full" height="24.0" version="1.1" viewBox="0 0 24.0 24.0" width="24.0" xmlns="http://www.w3.org/2000/svg" xmlns:ev="http://www.w3.org/2001/xml-events" xmlns:xlink="http://www.w3.org/1999/xlink"><defs /><path d="M17.5,8.5C17.5,7.948 17.948,7.5 18.5,7.5H20.891C21.443,7.5 21.891,7.948 21.891,8.5V15.686C21.891,16.238 21.443,16.685 20.891,16.685H20.4V21.3C20.4,22.458 19.458,23.4 18.3,23.4H11.096C9.939,23.4 8.996,22.458 8.996,21.3V21.054C8.821,20.922 8.7,20.718 8.7,20.476V19.4H7.154C5.967,19.4 5,18.434 5,17.246V4.155C5,2.967 5.967,2 7.154,2H12.246C13.434,2 14.4,2.967 14.4,4.155V17.246C14.4,18.434 13.434,19.4 12.246,19.4H10.7V20.476C10.7,20.722 10.576,20.928 10.396,21.059V21.3C10.396,21.686 10.71,22 11.096,22H18.3C18.686,22 19,21.686 19,21.3V16.685H18.5C17.948,16.685 17.5,16.238 17.5,15.686V8.5ZM10.231,4.17C9.938,3.877 9.463,3.877 9.17,4.17C8.877,4.463 8.877,4.938 9.17,5.231C9.463,5.523 9.938,5.523 10.231,5.231C10.524,4.938 10.524,4.463 10.231,4.17ZM18.2,9.5C18.09,9.5 18,9.59 18,9.7V9.8C18,9.91 18.09,10 18.2,10H21.2C21.31,10 21.4,9.91 21.4,9.8V9.7C21.4,9.59 21.31,9.5 21.2,9.5H18.2Z" fill="#2c2c2c" fill-opacity="1.0" /></svg>