<?xml version="1.0" encoding="utf-8" ?>
<svg baseProfile="full" height="16.0" version="1.1" viewBox="0 0 21.0 16.0" width="21.0" xmlns="http://www.w3.org/2000/svg" xmlns:ev="http://www.w3.org/2001/xml-events" xmlns:xlink="http://www.w3.org/1999/xlink"><defs /><path d="M9.583,1.724H10.436L11.648,7.15H10.603L10.387,6.048H9.633L9.417,7.15H8.372L9.583,1.724ZM10.006,4.101L9.821,5.057H10.191L10.006,4.101Z" fill="#000000" fill-opacity="1.0" /><path d="M6.316,1.768C6.48,1.71 6.646,1.68 6.812,1.68C6.979,1.68 7.143,1.71 7.303,1.769C7.468,1.827 7.618,1.913 7.751,2.025L7.756,2.029C7.888,2.15 7.993,2.299 8.072,2.474C8.155,2.655 8.194,2.859 8.194,3.083V3.492H7.159V3.083C7.159,2.933 7.117,2.855 7.064,2.811L7.058,2.806C6.99,2.746 6.911,2.715 6.812,2.715C6.713,2.715 6.63,2.746 6.557,2.808C6.507,2.851 6.466,2.931 6.466,3.083V5.79C6.466,5.939 6.505,6.024 6.557,6.072C6.63,6.13 6.713,6.159 6.812,6.159C6.914,6.159 6.994,6.129 7.061,6.072C7.118,6.023 7.159,5.94 7.159,5.79V4.976H6.576V4.028H8.194V5.79C8.194,6.023 8.155,6.23 8.071,6.408C7.992,6.579 7.886,6.723 7.754,6.839C7.62,6.957 7.469,7.046 7.302,7.105C7.143,7.164 6.979,7.193 6.812,7.193C6.646,7.193 6.48,7.164 6.316,7.105L6.314,7.105C6.153,7.046 6.007,6.957 5.878,6.839C5.741,6.724 5.633,6.579 5.553,6.408C5.47,6.23 5.431,6.023 5.431,5.79V3.083C5.431,2.859 5.47,2.655 5.553,2.474C5.633,2.298 5.741,2.148 5.878,2.027C6.007,1.914 6.153,1.828 6.314,1.769L6.316,1.768Z" fill="#000000" fill-opacity="1.0" /><path d="M2.581,1.724H4.983V2.715H3.529V3.666C3.545,3.658 3.562,3.651 3.579,3.644C3.705,3.587 3.844,3.56 3.991,3.56C4.273,3.56 4.515,3.647 4.7,3.832C4.898,4.019 4.983,4.291 4.983,4.617V5.942C4.983,6.132 4.949,6.307 4.877,6.464C4.812,6.615 4.721,6.746 4.606,6.857C4.49,6.967 4.356,7.051 4.204,7.111L4.202,7.112C4.055,7.166 3.9,7.193 3.739,7.193C3.578,7.193 3.422,7.166 3.271,7.112L3.265,7.11C3.118,7.05 2.987,6.966 2.872,6.857C2.757,6.747 2.665,6.616 2.595,6.466L2.593,6.462C2.526,6.305 2.495,6.131 2.495,5.942V5.576H3.529V5.913C3.529,6.007 3.553,6.064 3.586,6.102C3.626,6.138 3.679,6.159 3.753,6.159C3.832,6.159 3.869,6.136 3.892,6.11L3.895,6.106C3.925,6.074 3.949,6.021 3.949,5.927V4.725C3.949,4.661 3.929,4.611 3.889,4.568L3.885,4.564C3.853,4.527 3.814,4.508 3.753,4.508C3.71,4.508 3.684,4.516 3.668,4.525L3.656,4.531C3.627,4.544 3.607,4.558 3.593,4.572C3.576,4.589 3.566,4.604 3.56,4.618L3.557,4.625L3.553,4.632C3.529,4.677 3.516,4.7 3.513,4.706L3.472,4.788H2.581V1.724Z" fill="#000000" fill-opacity="1.0" /></svg>