<?xml version="1.0" encoding="utf-8" ?>
<svg baseProfile="full" height="36.0" version="1.1" viewBox="0 0 36.0 36.0" width="36.0" xmlns="http://www.w3.org/2000/svg" xmlns:ev="http://www.w3.org/2001/xml-events" xmlns:xlink="http://www.w3.org/1999/xlink"><defs /><path d="M10.9008 17.3C10.9008 13.8758 13.6766 11.1 17.1008 11.1C20.5249 11.1 23.3008 13.8758 23.3008 17.3C23.3008 20.7242 20.5249 23.5 17.1008 23.5C13.6766 23.5 10.9008 20.7242 10.9008 17.3ZM17.1008 9.5C12.793 9.5 9.30078 12.9922 9.30078 17.3C9.30078 21.6078 12.793 25.1 17.1008 25.1C18.9665 25.1 20.6792 24.445 22.0215 23.3523L26.16 27.4908L27.2914 26.3595L23.1529 22.221C24.2457 20.8786 24.9008 19.1658 24.9008 17.3C24.9008 12.9922 21.4086 9.5 17.1008 9.5Z" fill="#000000" fill-opacity="1.0" /></svg>