<?xml version="1.0" encoding="utf-8" ?>
<svg baseProfile="full" height="16.0" version="1.1" viewBox="0 0 20.0 16.0" width="20.0" xmlns="http://www.w3.org/2000/svg" xmlns:ev="http://www.w3.org/2001/xml-events" xmlns:xlink="http://www.w3.org/1999/xlink"><defs /><path d="M15.533,3.105L15.534,3.105C15.685,3.156 15.816,3.252 15.909,3.381C16.002,3.51 16.052,3.665 16.052,3.824V3.825V8.645C16.052,10.568 14.701,12.047 13.182,13.096C11.68,14.132 10.14,14.658 10.027,14.695L10.025,14.696C10.007,14.702 9.987,14.702 9.969,14.696L9.966,14.695C9.854,14.658 8.314,14.132 6.811,13.096C5.293,12.047 3.941,10.568 3.941,8.645L3.941,3.825L3.941,3.824C3.941,3.665 3.991,3.51 4.084,3.381C4.177,3.252 4.309,3.156 4.459,3.105L4.46,3.105L9.756,1.34C9.756,1.339 9.756,1.339 9.757,1.339C9.913,1.288 10.081,1.288 10.237,1.339C10.237,1.339 10.237,1.339 10.238,1.34L15.533,3.105Z" fill="#000000" fill-opacity="0.0" /></svg>