<?xml version="1.0" encoding="utf-8" ?>
<svg baseProfile="full" height="16.0" version="1.1" viewBox="0 0 20.0 16.0" width="20.0" xmlns="http://www.w3.org/2000/svg" xmlns:ev="http://www.w3.org/2001/xml-events" xmlns:xlink="http://www.w3.org/1999/xlink"><defs /><path d="M8.22 2.57L5.29 5.49 4.44 4.64c-0.29-0.29-0.29-0.75 0-1.03l1.89-1.9c0.29-0.28 0.75-0.28 1.03 0l0.86 0.86Z" fill="#000000" fill-opacity="1.0" /><path d="M7.1 7.3l2.93-2.92-1.3-1.3-2.92 2.93 1.3 1.3Z" fill="#000000" fill-opacity="1.0" /><path d="M8.17 7.8C8.03 7.91 7.77 7.96 7.53 8 7.22 8.07 6.96 8.12 7.2 8.35l2.74 2.74c0.23 0.24 0.28-0.02 0.34-0.33 0.04-0.24 0.09-0.51 0.23-0.65l2.96-2.96c0.65-0.65 0.14-1.44-0.35-1.92l-0.06-0.06c-0.48-0.49-1.27-1-1.92-0.35L8.17 7.8Z" fill="#000000" fill-opacity="1.0" /><path d="M12.28 12.48l2.92-2.93-1.3-1.3-2.92 2.93 1.3 1.3Z" fill="#000000" fill-opacity="1.0" /><path d="M12.8 13l0.85 0.85c0.28 0.28 0.75 0.28 1.03 0l1.9-1.9c0.28-0.28 0.28-0.74 0-1.03l-0.86-0.85L12.79 13Z" fill="#000000" fill-opacity="1.0" /><path d="M3.79 9.82c-0.03-0.21 0.14-0.4 0.35-0.4h0.37c0.2 0 0.35 0.15 0.38 0.34 0.3 1.87 1.77 3.34 3.63 3.64 0.2 0.03 0.34 0.18 0.34 0.37v0.38c0 0.2-0.18 0.38-0.39 0.35-2.43-0.34-4.35-2.26-4.68-4.68Z" fill="#000000" fill-opacity="1.0" /><path d="M5.99 9.43c-0.22 0-0.39 0.19-0.34 0.4 0.3 1.4 1.4 2.51 2.81 2.81 0.21 0.04 0.4-0.13 0.4-0.34V11.9c0-0.18-0.14-0.33-0.31-0.38-0.87-0.24-1.56-0.92-1.8-1.8-0.04-0.17-0.2-0.3-0.38-0.3H6Z" fill="#000000" fill-opacity="1.0" /></svg>