<?xml version="1.0" encoding="utf-8" ?>
<svg baseProfile="full" height="24.0" version="1.1" viewBox="0 0 24.0 24.0" width="24.0" xmlns="http://www.w3.org/2000/svg" xmlns:ev="http://www.w3.org/2001/xml-events" xmlns:xlink="http://www.w3.org/1999/xlink"><defs /><path d="M1.297,11.998C1.297,6.091 6.09,1.298 11.997,1.298C17.903,1.298 22.697,6.091 22.697,11.998C22.697,14.767 21.641,17.295 19.912,19.193C19.651,19.479 19.209,19.499 18.923,19.239C18.637,18.978 18.617,18.535 18.877,18.25C20.38,16.6 21.297,14.405 21.297,11.998C21.297,6.864 17.13,2.698 11.997,2.698C6.863,2.698 2.697,6.864 2.697,11.998C2.697,14.407 3.615,16.603 5.12,18.253C5.381,18.539 5.36,18.982 5.075,19.242C4.789,19.503 4.346,19.483 4.086,19.197C2.354,17.299 1.297,14.77 1.297,11.998ZM11.997,10.698C11.279,10.698 10.697,11.28 10.697,11.998C10.697,12.716 11.279,13.298 11.997,13.298C12.715,13.298 13.297,12.716 13.297,11.998C13.297,11.28 12.715,10.698 11.997,10.698ZM9.297,11.998C9.297,10.507 10.506,9.298 11.997,9.298C13.488,9.298 14.697,10.507 14.697,11.998C14.697,13.489 13.488,14.698 11.997,14.698C10.506,14.698 9.297,13.489 9.297,11.998ZM11.997,5.298C8.3,5.298 5.297,8.301 5.297,11.998C5.297,13.731 5.96,15.318 7.046,16.507C7.307,16.792 7.749,16.812 8.035,16.551C8.32,16.29 8.34,15.848 8.079,15.562C7.22,14.622 6.697,13.368 6.697,11.998C6.697,9.074 9.073,6.698 11.997,6.698C14.92,6.698 17.297,9.074 17.297,11.998C17.297,13.367 16.775,14.619 15.917,15.559C15.657,15.844 15.677,16.287 15.963,16.548C16.249,16.808 16.691,16.788 16.952,16.502C18.036,15.314 18.697,13.729 18.697,11.998C18.697,8.301 15.693,5.298 11.997,5.298ZM11.553,15.962C11.813,15.746 12.19,15.746 12.449,15.962L17.446,20.126C17.621,20.272 17.715,20.495 17.695,20.723C17.676,20.951 17.546,21.155 17.348,21.27C15.774,22.179 13.947,22.7 12,22.7C10.054,22.7 8.227,22.18 6.654,21.27C6.456,21.156 6.326,20.951 6.306,20.723C6.287,20.496 6.38,20.273 6.556,20.126L11.553,15.962Z" fill="#000000" fill-opacity="1.0" /></svg>