<?xml version="1.0" encoding="utf-8" ?>
<svg baseProfile="full" height="24.0" version="1.1" viewBox="0 0 24.0 24.0" width="24.0" xmlns="http://www.w3.org/2000/svg" xmlns:ev="http://www.w3.org/2001/xml-events" xmlns:xlink="http://www.w3.org/1999/xlink"><defs /><path d="M2.8,4.9C2.8,3.74 3.74,2.8 4.9,2.8H8C8.386,2.8 8.7,3.113 8.7,3.5C8.7,3.887 8.386,4.2 8,4.2H4.9C4.513,4.2 4.2,4.513 4.2,4.9V8C4.2,8.387 3.886,8.7 3.5,8.7C3.113,8.7 2.8,8.387 2.8,8V4.9ZM21.2,19.1C21.2,20.26 20.26,21.2 19.1,21.2H16C15.613,21.2 15.3,20.887 15.3,20.5C15.3,20.113 15.613,19.8 16,19.8H19.1C19.486,19.8 19.8,19.487 19.8,19.1V16C19.8,15.613 20.113,15.3 20.5,15.3C20.886,15.3 21.2,15.613 21.2,16V19.1ZM7.91,8.472H10.958V7.666C10.958,7.23 11.312,6.877 11.748,6.877H12.554C12.626,6.877 12.685,6.936 12.685,7.009V8.472H15.938C15.977,8.472 16.01,8.493 16.014,8.531C16.02,8.586 16.019,8.681 15.999,8.834C15.966,9.084 15.892,9.256 15.859,9.311H12.685V10.38H14.951C15.022,10.38 15.08,10.436 15.08,10.507C15.077,10.818 15.042,11.409 14.906,12.033C14.748,12.757 14.264,13.672 14.042,14.039C14.341,14.182 15.072,14.508 15.604,14.672C16.271,14.878 17.167,14.944 17.562,14.936C17.956,14.927 18.014,15.224 17.997,15.413C17.996,15.434 17.994,15.462 17.992,15.494V15.494C17.977,15.743 17.944,16.279 17.66,16.679C17.34,17.131 16.493,17.172 15.604,16.835C14.894,16.566 13.565,15.709 12.99,15.314C12.732,15.563 12.077,16.135 11.517,16.424C10.819,16.786 9.865,17.123 8.845,17.123C7.825,17.123 6,16.449 6,14.648C6,12.847 7.842,12.296 8.656,12.296C9.47,12.296 10.128,12.395 10.564,12.551C10.912,12.676 11.92,13.091 12.381,13.283C12.392,13.25 12.413,13.195 12.443,13.122L12.443,13.122L12.443,13.122C12.502,12.973 12.593,12.746 12.685,12.46C12.852,11.946 12.924,11.471 12.94,11.235H8.607C8.57,11.235 8.541,11.206 8.541,11.17V10.865C8.541,10.748 8.614,10.597 8.681,10.488C8.724,10.418 8.803,10.38 8.885,10.38H10.958V9.311H7.702C7.666,9.311 7.636,9.282 7.636,9.245V8.826C7.636,8.726 7.684,8.628 7.732,8.557C7.771,8.499 7.84,8.472 7.91,8.472ZM9.077,13.43C10.108,13.503 11.203,14.151 11.624,14.446C11.244,14.873 10.922,15.157 10.554,15.383C10.186,15.609 9.418,15.945 8.615,15.996C7.812,16.046 6.661,15.549 6.74,14.656C6.827,13.674 7.789,13.338 9.077,13.43ZM4.9,21.2C3.74,21.2 2.8,20.26 2.8,19.1V16C2.8,15.613 3.113,15.3 3.5,15.3C3.886,15.3 4.2,15.613 4.2,16L4.2,19.1C4.2,19.487 4.513,19.8 4.9,19.8H8C8.386,19.8 8.7,20.113 8.7,20.5C8.7,20.887 8.386,21.2 8,21.2H4.9ZM21.2,4.9C21.2,3.74 20.26,2.8 19.1,2.8H16C15.613,2.8 15.3,3.113 15.3,3.5C15.3,3.887 15.613,4.2 16,4.2L19.1,4.2C19.486,4.2 19.8,4.513 19.8,4.9V8C19.8,8.387 20.113,8.7 20.5,8.7C20.886,8.7 21.2,8.387 21.2,8V4.9Z" fill="#2c2c2c" fill-opacity="1.0" /></svg>