<?xml version="1.0" encoding="utf-8" ?>
<svg baseProfile="full" height="24" version="1.1" viewBox="0 0 8.0 8.0" width="24" xmlns="http://www.w3.org/2000/svg" xmlns:ev="http://www.w3.org/2001/xml-events" xmlns:xlink="http://www.w3.org/1999/xlink"><defs /><path d="M2.93,4.81H1.81V7.4H1V1h1.79c0.63,0,1.1,0.16,1.42,0.49S4.7,2.29,4.7,2.92c0,0.4-0.09,0.74-0.26,1.04 C4.26,4.25,4.02,4.48,3.7,4.63l1.24,2.72V7.4H4.07L2.93,4.81z M1.81,4.12h0.98c0.34,0,0.61-0.11,0.81-0.33 c0.2-0.22,0.3-0.51,0.3-0.87c0-0.82-0.37-1.23-1.12-1.23H1.81V4.12z" fill="#ffffff" fill-opacity="1.0" /><path d="M 0 0 H 17 V 17 H 0 V 0 Z" fill="#000000" fill-opacity="1.0" /></svg>