<?xml version="1.0" encoding="utf-8" ?>
<svg baseProfile="full" height="16.0" version="1.1" viewBox="0 0 21.0 16.0" width="21.0" xmlns="http://www.w3.org/2000/svg" xmlns:ev="http://www.w3.org/2001/xml-events" xmlns:xlink="http://www.w3.org/1999/xlink"><defs /><path d="M3.57 2.78v0.7C3.77 3.39 4 3.35 4.22 3.35c0.2 0 0.4 0.04 0.58 0.1v0.01c0.17 0.08 0.31 0.18 0.42 0.3 0.15 0.15 0.26 0.32 0.33 0.52 0.04 0.12 0.06 0.25 0.08 0.4L5.65 5.2c0 0.33-0.02 0.6-0.07 0.78C5.52 6.2 5.43 6.37 5.3 6.5 5.2 6.65 5.04 6.78 4.84 6.9 4.64 7.02 4.4 7.09 4.12 7.1 3.75 7.1 3.4 6.97 3.1 6.75c-0.33-0.23-0.52-0.6-0.59-1.1L2.5 5.5h1l0.03 0.12c0.03 0.16 0.1 0.27 0.19 0.34 0.08 0.07 0.2 0.11 0.38 0.12 0.15 0 0.26-0.03 0.32-0.08C4.5 5.95 4.54 5.89 4.56 5.8c0.04-0.1 0.06-0.2 0.07-0.3V5.16c0.01-0.27-0.03-0.48-0.1-0.62-0.04-0.06-0.1-0.1-0.16-0.14-0.08-0.03-0.18-0.05-0.3-0.05-0.11 0-0.2 0.02-0.29 0.07-0.07 0.04-0.15 0.12-0.23 0.26L3.51 4.76H2.6v-3h2.95v1.02H3.57Z" fill="#000000" fill-opacity="1.0" /><path d="M9.18 2.2C9.5 2.5 9.7 2.87 9.8 3.31L9.83 3.5h-1.1L8.72 3.4C8.65 3.22 8.56 3.08 8.4 2.95 8.29 2.85 8.12 2.8 7.9 2.78c-0.16 0-0.29 0.04-0.39 0.09C7.4 2.93 7.31 3 7.25 3.09H7.24C7.16 3.18 7.1 3.3 7.08 3.43 7.05 3.6 7.03 3.93 7.03 4.42s0.02 0.8 0.05 0.96c0.03 0.16 0.08 0.27 0.16 0.35v0.01c0.07 0.08 0.16 0.15 0.27 0.2v0.01C7.62 6 7.75 6.04 7.9 6.04c0.26 0 0.46-0.09 0.62-0.26 0.16-0.16 0.25-0.37 0.25-0.65V5.02H7.76V4.01h2.07v1.16c-0.01 0.54-0.2 1-0.56 1.36C8.91 6.9 8.45 7.08 7.9 7.1c-0.42 0-0.77-0.11-1.07-0.31-0.28-0.19-0.5-0.4-0.63-0.66L6.1 5.88 6.04 5.7 6 5.43C5.98 5.2 5.97 4.86 5.97 4.41c0-0.58 0.02-0.98 0.05-1.19 0.04-0.2 0.1-0.38 0.19-0.52 0.12-0.24 0.31-0.45 0.56-0.63l0.16-0.1c0.24-0.14 0.51-0.22 0.83-0.24H8C8.43 1.74 8.86 1.9 9.18 2.19Z" fill="#000000" fill-opacity="1.0" /><path d="M12.1 1.7v1.5m0 1.5V3.2m0 0h1.5-3" fill="#000000" fill-opacity="1.0" /></svg>