<?xml version="1.0" encoding="utf-8" ?>
<svg baseProfile="full" height="24.0" version="1.1" viewBox="0 0 25.0 24.0" width="25.0" xmlns="http://www.w3.org/2000/svg" xmlns:ev="http://www.w3.org/2001/xml-events" xmlns:xlink="http://www.w3.org/1999/xlink"><defs /><path d="M17.66 14.7c-0.96 1.79-2.85 3-5.02 3-2.17 0-4.06-1.21-5.02-3h10.04Z" fill="#ffffff" fill-opacity="1.0" /><path d="M18.2 13.3H7.08c-0.1-0.42-0.15-0.85-0.15-1.3 0-0.45 0.05-0.88 0.15-1.3h11.1c0.1 0.42 0.15 0.85 0.15 1.3 0 0.45-0.05 0.88-0.15 1.3Z" fill="#ffffff" fill-opacity="1.0" /><path d="M17.66 9.3H7.62c0.97-1.78 2.85-3 5.02-3 2.17 0 4.05 1.22 5.02 3Z" fill="#ffffff" fill-opacity="1.0" /><path d="M12.64 4.7c0.39 0 0.7-0.31 0.7-0.7V2c0-0.39-0.31-0.7-0.7-0.7-0.39 0-0.7 0.31-0.7 0.7v2c0 0.39 0.31 0.7 0.7 0.7Z" fill="#ffffff" fill-opacity="1.0" /><path d="M18.3 7.04c0.18 0 0.35-0.06 0.5-0.2l1.4-1.42c0.28-0.27 0.28-0.71 0-0.99-0.27-0.27-0.71-0.27-0.98 0L17.8 5.85c-0.27 0.27-0.27 0.72 0 0.99 0.14 0.14 0.32 0.2 0.5 0.2Z" fill="#ffffff" fill-opacity="1.0" /><path d="M22.64 11.3h-2c-0.39 0-0.7 0.31-0.7 0.7 0 0.39 0.31 0.7 0.7 0.7h2c0.39 0 0.7-0.31 0.7-0.7 0-0.39-0.31-0.7-0.7-0.7Z" fill="#ffffff" fill-opacity="1.0" /><path d="M18.8 17.16c-0.28-0.27-0.73-0.27-1 0-0.27 0.28-0.27 0.72 0 1l1.42 1.4c0.13 0.14 0.31 0.21 0.5 0.21 0.17 0 0.35-0.07 0.49-0.2 0.27-0.28 0.27-0.72 0-1l-1.42-1.4Z" fill="#ffffff" fill-opacity="1.0" /><path d="M12.64 19.3c-0.39 0-0.7 0.31-0.7 0.7v2c0 0.39 0.31 0.7 0.7 0.7 0.39 0 0.7-0.31 0.7-0.7v-2c0-0.39-0.31-0.7-0.7-0.7Z" fill="#ffffff" fill-opacity="1.0" /><path d="M6.49 17.16l-1.42 1.42c-0.27 0.27-0.27 0.71 0 0.99 0.14 0.13 0.32 0.2 0.5 0.2s0.36-0.07 0.5-0.2l1.4-1.42c0.28-0.27 0.28-0.71 0-0.99-0.27-0.27-0.7-0.27-0.98 0Z" fill="#ffffff" fill-opacity="1.0" /><path d="M5.34 12c0-0.39-0.31-0.7-0.7-0.7h-2c-0.39 0-0.7 0.31-0.7 0.7 0 0.39 0.31 0.7 0.7 0.7h2c0.39 0 0.7-0.31 0.7-0.7Z" fill="#ffffff" fill-opacity="1.0" /><path d="M6.49 6.84c0.13 0.14 0.31 0.2 0.5 0.2 0.17 0 0.35-0.06 0.49-0.2 0.27-0.27 0.27-0.72 0-1l-1.42-1.4c-0.27-0.28-0.71-0.28-0.99 0-0.27 0.27-0.27 0.71 0 0.98L6.5 6.84Z" fill="#ffffff" fill-opacity="1.0" /></svg>