<?xml version="1.0" encoding="utf-8" ?>
<svg baseProfile="full" height="24.0" version="1.1" viewBox="0 0 24.0 24.0" width="24.0" xmlns="http://www.w3.org/2000/svg" xmlns:ev="http://www.w3.org/2001/xml-events" xmlns:xlink="http://www.w3.org/1999/xlink"><defs /><path d="M2.446,1.843C0.657,3.632 1.156,6.675 3.095,8.614C3.522,9.041 4.002,9.398 4.51,9.676C4.506,9.665 4.502,9.654 4.498,9.643C3.946,8.141 4.028,6.406 4.896,4.903C5.583,3.712 6.648,2.871 7.847,2.44C8.205,2.312 8.565,2.238 8.92,2.213C6.979,0.508 4.146,0.143 2.446,1.843ZM10.145,3.674C9.565,3.463 8.915,3.438 8.287,3.664C7.363,3.996 6.548,4.64 6.021,5.553C5.357,6.703 5.291,8.034 5.718,9.194C6.176,10.438 7.459,11.143 8.721,10.994C8.804,10.984 8.886,10.971 8.968,10.954C10.094,10.719 11.107,10.072 11.707,9.033C12.4,7.833 12.363,6.422 11.806,5.205C11.477,4.486 10.865,3.937 10.145,3.674C10.145,3.674 10.145,3.674 10.145,3.674ZM8.714,9.478C8.216,9.19 8.251,8.197 8.793,7.259C9.334,6.322 10.177,5.795 10.675,6.083C11.173,6.37 11.138,7.363 10.597,8.301C10.055,9.238 9.212,9.765 8.714,9.478Z" fill="#000000" fill-opacity="1.0" /><path d="M6.344,11.622C5.272,11.482 4.216,11.065 3.3,10.453V16C3.3,17.215 4.285,18.2 5.5,18.2C6.715,18.2 7.7,17.215 7.7,16V12.089C7.229,12.007 6.768,11.85 6.344,11.622Z" fill="#000000" fill-opacity="1.0" /><path d="M21.42,6.843C23.208,8.632 22.71,11.675 20.771,13.614C20.344,14.041 19.864,14.398 19.355,14.676C19.36,14.665 19.364,14.654 19.368,14.643C19.92,13.141 19.838,11.406 18.97,9.903C18.282,8.712 17.218,7.871 16.018,7.44C15.661,7.312 15.301,7.238 14.946,7.213C16.887,5.508 19.72,5.143 21.42,6.843ZM13.72,8.674C14.301,8.463 14.951,8.438 15.579,8.664C16.502,8.996 17.317,9.64 17.844,10.553C18.508,11.703 18.574,13.034 18.148,14.194C17.69,15.438 16.407,16.143 15.144,15.994C15.062,15.984 14.98,15.971 14.898,15.954C13.771,15.719 12.759,15.072 12.159,14.033C11.466,12.833 11.502,11.422 12.06,10.205C12.389,9.486 13.001,8.937 13.72,8.674C13.72,8.674 13.72,8.674 13.72,8.674ZM15.151,14.478C15.65,14.19 15.614,13.197 15.073,12.259C14.531,11.322 13.689,10.795 13.19,11.083C12.692,11.37 12.727,12.363 13.269,13.301C13.811,14.238 14.653,14.765 15.151,14.478Z" fill="#000000" fill-opacity="1.0" /><path d="M17.522,16.622C18.594,16.482 19.649,16.065 20.566,15.453V21C20.566,22.215 19.581,23.2 18.366,23.2C17.151,23.2 16.166,22.215 16.166,21V17.088C16.637,17.007 17.097,16.85 17.522,16.622Z" fill="#000000" fill-opacity="1.0" /></svg>