<?xml version="1.0" encoding="utf-8" ?>
<svg baseProfile="full" height="24.0" version="1.1" viewBox="0 0 24.0 24.0" width="24.0" xmlns="http://www.w3.org/2000/svg" xmlns:ev="http://www.w3.org/2001/xml-events" xmlns:xlink="http://www.w3.org/1999/xlink"><defs /><path d="M11.992,1.711C12.379,1.711 12.692,2.012 12.692,2.383V4.063C12.692,4.434 12.379,4.735 11.992,4.735C11.606,4.735 11.292,4.434 11.292,4.063V2.383C11.292,2.012 11.606,1.711 11.992,1.711ZM5.3,12.103C5.3,8.551 8.3,5.671 12,5.671C15.7,5.671 18.7,8.551 18.7,12.103V16.675C18.7,17.311 18.163,17.827 17.5,17.827H6.5C5.837,17.827 5.3,17.311 5.3,16.675V12.103ZM4.125,20.3V20.396H19.875V20.3C19.875,19.611 19.293,19.052 18.575,19.052H5.425C4.707,19.052 4.125,19.611 4.125,20.3ZM5.624,4.355C5.351,4.092 4.907,4.092 4.634,4.355C4.361,4.617 4.361,5.043 4.634,5.305L5.871,6.493C6.145,6.755 6.588,6.755 6.861,6.493C7.135,6.231 7.135,5.805 6.861,5.543L5.624,4.355ZM19.733,4.355C19.46,4.092 19.017,4.092 18.743,4.355L17.506,5.543C17.233,5.805 17.233,6.231 17.506,6.493C17.779,6.755 18.222,6.755 18.496,6.493L19.733,5.305C20.007,5.043 20.007,4.617 19.733,4.355ZM9.7,11.623C9.7,11.252 9.387,10.951 9,10.951C8.613,10.951 8.3,11.252 8.3,11.623V14.563C8.3,14.934 8.613,15.235 9,15.235C9.387,15.235 9.7,14.934 9.7,14.563V11.623Z" fill="#ffffff" fill-opacity="1.0" /></svg>