<?xml version="1.0" encoding="utf-8" ?>
<svg baseProfile="full" height="16.0" version="1.1" viewBox="0 0 18.0 16.0" width="18.0" xmlns="http://www.w3.org/2000/svg" xmlns:ev="http://www.w3.org/2001/xml-events" xmlns:xlink="http://www.w3.org/1999/xlink"><defs /><path d="M14.23 11.17c-1.76 2.9-5.55 3.83-8.46 2.06-2.9-1.76-3.83-5.55-2.06-8.45 1.77-2.9 5.55-3.83 8.46-2.07 2.9 1.77 3.83 5.56 2.06 8.46Zm-4.95-1.8C9 9.82 8.38 9.97 7.91 9.7 7.44 9.4 7.3 8.8 7.58 8.33c0.2-0.35 1.7-1.75 2.47-2.47 0.13-0.12 0.34 0 0.29 0.18-0.28 1.01-0.85 2.98-1.06 3.32Zm4.22-0.18c0.06-0.05 0.11-0.13 0.13-0.21 0.09-0.35 0.13-0.72 0.13-1.09 0-2.64-2.15-4.78-4.8-4.78-2.64 0-4.8 2.2-4.77 4.84 0 0.35 0.04 0.7 0.12 1.03 0.04 0.17 0.2 0.3 0.38 0.3 0.21 0 0.38-0.18 0.38-0.39V8.8C4.98 8.5 4.95 8.2 4.95 7.9c0-0.55 0.1-1.07 0.31-1.57 0.2-0.48 0.5-0.9 0.87-1.27S6.94 4.4 7.4 4.2c0.5-0.21 1.02-0.32 1.56-0.32s1.07 0.1 1.56 0.32C11 4.4 11.43 4.69 11.8 5.06c0.37 0.36 0.66 0.8 0.86 1.27 0.2 0.5 0.31 1.02 0.31 1.56 0 0.31-0.03 0.62-0.1 0.91-0.05 0.24 0.13 0.47 0.38 0.47 0.09 0 0.17-0.03 0.24-0.08Z" fill="#ffffff" fill-opacity="1.0" /></svg>