<?xml version="1.0" encoding="utf-8" ?>
<svg baseProfile="full" height="24.0" version="1.1" viewBox="0 0 24.0 24.0" width="24.0" xmlns="http://www.w3.org/2000/svg" xmlns:ev="http://www.w3.org/2001/xml-events" xmlns:xlink="http://www.w3.org/1999/xlink"><defs /><path d="M20.569,8.3H4.569C3.853,8.3 3.27,7.717 3.27,7.001C3.27,6.284 3.853,5.701 4.569,5.701H7.196L9.436,4.3H4.569C3.08,4.3 1.869,5.511 1.869,7.001V18C1.869,19.49 3.08,20.701 4.569,20.701H20.569C20.956,20.701 21.27,20.387 21.27,20V9.001C21.27,8.614 20.956,8.3 20.569,8.3ZM18.569,16C18.569,16.387 18.256,16.701 17.869,16.701C17.483,16.701 17.169,16.387 17.169,16V13C17.169,12.614 17.483,12.3 17.869,12.3C18.256,12.3 18.569,12.614 18.569,13V16ZM7.735,7.001L14.959,2.382C15.12,2.281 15.316,2.25 15.499,2.292C15.685,2.336 15.843,2.454 15.939,2.618L18.513,7.001H7.735Z" fill="#000000" fill-opacity="0.2" /></svg>