<?xml version="1.0" encoding="utf-8" ?>
<svg baseProfile="full" height="24.0" version="1.1" viewBox="0 0 24.0 24.0" width="24.0" xmlns="http://www.w3.org/2000/svg" xmlns:ev="http://www.w3.org/2001/xml-events" xmlns:xlink="http://www.w3.org/1999/xlink"><defs /><path d="M12,2C7.394,2 3.65,5.702 3.65,10.28C3.65,12.346 4.414,14.236 5.676,15.686C7.455,17.835 9.384,19.858 11.446,21.737L11.54,21.822C11.8,22.06 12.198,22.06 12.459,21.823L12.459,21.822L12.552,21.737C14.613,19.86 16.538,17.841 18.316,15.695C19.581,14.244 20.349,12.35 20.349,10.28C20.349,5.702 16.605,2 12,2ZM12.006,7.738C10.49,7.738 9.261,8.967 9.261,10.483C9.261,11.999 10.49,13.228 12.006,13.228C13.522,13.228 14.751,11.999 14.751,10.483C14.751,8.967 13.522,7.738 12.006,7.738ZM7.944,10.483C7.944,8.239 9.762,6.421 12.006,6.421C14.249,6.421 16.068,8.239 16.068,10.483C16.068,12.726 14.249,14.545 12.006,14.545C9.762,14.545 7.944,12.726 7.944,10.483Z" fill="#000000" fill-opacity="0.2" /></svg>