<?xml version="1.0" encoding="utf-8" ?>
<svg baseProfile="full" height="36.0" version="1.1" viewBox="0 0 36.0 36.0" width="36.0" xmlns="http://www.w3.org/2000/svg" xmlns:ev="http://www.w3.org/2001/xml-events" xmlns:xlink="http://www.w3.org/1999/xlink"><defs /><path d="M12.3972 8.76851C11.5218 8.76851 10.8122 9.47813 10.8122 10.3535V25.6464C10.8122 26.5218 11.5218 27.2314 12.3972 27.2314H23.6027C24.4781 27.2314 25.1877 26.5218 25.1877 25.6464L25.1877 10.3535C25.1877 9.47814 24.4781 8.76851 23.6027 8.76851H12.3972ZM12.3822 10.3535C12.3822 10.35 12.3828 10.3486 12.3831 10.3479C12.3836 10.3467 12.3847 10.3448 12.3866 10.3429C12.3885 10.341 12.3904 10.3399 12.3916 10.3394C12.3923 10.3391 12.3937 10.3385 12.3972 10.3385H23.6027C23.6063 10.3385 23.6076 10.3391 23.6083 10.3394C23.6096 10.3399 23.6114 10.341 23.6133 10.3429C23.6153 10.3448 23.6164 10.3467 23.6169 10.3479C23.6172 10.3486 23.6177 10.35 23.6177 10.3535L23.6177 15.1747H23.4619C23.0379 15.1747 22.6942 15.5184 22.6942 15.9424C22.6942 16.3664 23.0379 16.7101 23.4619 16.7101H23.6177L23.6177 25.6464C23.6177 25.65 23.6172 25.6513 23.6169 25.652C23.6164 25.6533 23.6153 25.6551 23.6133 25.657C23.6114 25.659 23.6096 25.6601 23.6083 25.6606C23.6076 25.6609 23.6063 25.6614 23.6027 25.6614H16.6883C16.608 25.3233 16.304 25.0717 15.9413 25.0717C15.5786 25.0717 15.2746 25.3233 15.1943 25.6614H12.3972C12.3937 25.6614 12.3923 25.6609 12.3916 25.6606C12.3904 25.6601 12.3885 25.659 12.3866 25.657C12.3847 25.6551 12.3836 25.6533 12.3831 25.652C12.3828 25.6513 12.3822 25.65 12.3822 25.6464L12.3822 10.3535ZM17.832 16.7181C17.8098 16.7181 17.788 16.719 17.7666 16.7208C17.344 16.756 16.973 16.442 16.9378 16.0195C16.9026 15.597 17.2166 15.2259 17.6391 15.1907C17.7029 15.1854 17.7672 15.1827 17.832 15.1827H17.9965C18.4205 15.1827 18.7642 15.5264 18.7642 15.9504C18.7642 16.3744 18.4205 16.7181 17.9965 16.7181H17.832ZM19.7879 15.9424C19.7879 15.5184 20.1316 15.1747 20.5556 15.1747H20.8846C21.3086 15.1747 21.6523 15.5184 21.6523 15.9424C21.6523 16.3664 21.3086 16.7101 20.8846 16.7101H20.5556C20.1316 16.7101 19.7879 16.3664 19.7879 15.9424ZM16.0184 16.9492C16.4409 16.9844 16.7549 17.3554 16.7197 17.778C16.7179 17.7994 16.717 17.8212 16.717 17.8434V17.9896C16.717 18.4136 16.3733 18.7573 15.9493 18.7573C15.5253 18.7573 15.1816 18.4136 15.1816 17.9896V17.8434C15.1816 17.7786 15.1843 17.7143 15.1896 17.6505C15.2248 17.228 15.5959 16.914 16.0184 16.9492ZM15.9493 19.7809C16.3733 19.7809 16.717 20.1247 16.717 20.5487V20.8411C16.717 21.2651 16.3733 21.6088 15.9493 21.6088C15.5253 21.6088 15.1816 21.2651 15.1816 20.8411V20.5487C15.1816 20.1247 15.5253 19.7809 15.9493 19.7809ZM15.9573 22.4714C16.3813 22.4714 16.725 22.8151 16.725 23.2391V23.5316C16.725 23.9556 16.3813 24.2993 15.9573 24.2993C15.5333 24.2993 15.1896 23.9556 15.1896 23.5316V23.2391C15.1896 22.8151 15.5333 22.4714 15.9573 22.4714Z" fill="#ffffff" fill-opacity="1.0" /></svg>