<?xml version="1.0" encoding="utf-8" ?>
<svg baseProfile="full" height="16.0" version="1.1" viewBox="0 0 18.0 16.0" width="18.0" xmlns="http://www.w3.org/2000/svg" xmlns:ev="http://www.w3.org/2001/xml-events" xmlns:xlink="http://www.w3.org/1999/xlink"><defs /><path d="M6.7,9.471C6.467,9.471 6.306,9.238 6.389,9.02L8.852,2.496C8.988,2.136 9.525,2.254 9.497,2.638L9.182,6.942H11.303C11.534,6.942 11.695,7.172 11.616,7.39L9.146,14.13C9.014,14.492 8.474,14.376 8.501,13.991L8.821,9.471H6.7ZM15.102,4.232C15.341,4.094 15.647,4.176 15.785,4.415C16.473,5.606 16.834,6.957 16.834,8.332C16.834,9.707 16.473,11.058 15.785,12.248C15.647,12.488 15.341,12.569 15.102,12.431C14.863,12.293 14.781,11.988 14.919,11.748C15.519,10.71 15.835,9.531 15.835,8.332C15.835,7.132 15.519,5.954 14.919,4.915C14.781,4.676 14.863,4.37 15.102,4.232ZM2.9,4.232C3.14,4.37 3.222,4.676 3.083,4.915C2.484,5.954 2.168,7.132 2.168,8.332C2.168,9.531 2.484,10.71 3.083,11.748C3.222,11.988 3.14,12.293 2.9,12.431C2.661,12.569 2.355,12.488 2.217,12.248C1.53,11.058 1.168,9.707 1.168,8.332C1.168,6.957 1.53,5.606 2.217,4.415C2.355,4.176 2.661,4.094 2.9,4.232ZM13.385,5.415C13.247,5.176 12.941,5.094 12.702,5.232C12.463,5.37 12.381,5.676 12.519,5.915C12.943,6.65 13.167,7.483 13.167,8.332C13.167,9.18 12.943,10.014 12.519,10.748C12.381,10.988 12.463,11.293 12.702,11.431C12.941,11.569 13.247,11.488 13.385,11.248C13.897,10.362 14.167,9.356 14.167,8.332C14.167,7.308 13.897,6.302 13.385,5.415ZM5.299,5.232C5.538,5.37 5.62,5.676 5.482,5.915C5.057,6.65 4.834,7.483 4.834,8.332C4.834,9.18 5.057,10.014 5.482,10.748C5.62,10.988 5.538,11.293 5.299,11.431C5.059,11.569 4.754,11.488 4.615,11.248C4.104,10.362 3.834,9.356 3.834,8.332C3.834,7.308 4.104,6.302 4.615,5.415C4.754,5.176 5.059,5.094 5.299,5.232Z" fill="#000000" fill-opacity="1.0" /></svg>