<?xml version="1.0" encoding="utf-8" ?>
<svg baseProfile="full" height="24.0" version="1.1" viewBox="0 0 24.0 24.0" width="24.0" xmlns="http://www.w3.org/2000/svg" xmlns:ev="http://www.w3.org/2001/xml-events" xmlns:xlink="http://www.w3.org/1999/xlink"><defs /><path d="M7.956,12.572C7.683,12.298 7.683,11.855 7.956,11.582C10.186,9.351 13.815,9.351 16.046,11.582C16.319,11.855 16.319,12.298 16.046,12.572C15.909,12.708 15.729,12.777 15.551,12.777C15.372,12.777 15.192,12.708 15.056,12.572C13.372,10.887 10.63,10.887 8.946,12.572C8.673,12.845 8.229,12.845 7.956,12.572ZM17.128,10.499C17.265,10.636 17.444,10.704 17.623,10.704C17.802,10.704 17.981,10.636 18.118,10.499C18.392,10.226 18.392,9.782 18.118,9.509C14.745,6.136 9.257,6.136 5.884,9.509C5.61,9.782 5.61,10.226 5.884,10.499C6.157,10.772 6.601,10.772 6.874,10.499C9.7,7.672 14.302,7.672 17.128,10.499ZM20.701,3.27H3.301C2.198,3.27 1.301,4.167 1.301,5.27V14.67C1.301,15.773 2.198,16.67 3.301,16.67H6.946L8.346,15.269H3.301C2.97,15.269 2.701,15 2.701,14.67V5.27C2.701,4.939 2.97,4.67 3.301,4.67H20.701C21.032,4.67 21.301,4.939 21.301,5.27V14.67C21.301,15 21.032,15.269 20.701,15.269H15.656L17.056,16.67H20.701C21.804,16.67 22.701,15.773 22.701,14.67V5.27C22.701,4.167 21.804,3.27 20.701,3.27ZM13.394,14.847C12.625,14.079 11.377,14.079 10.607,14.847L5.979,19.475C5.779,19.675 5.72,19.976 5.828,20.238C5.937,20.499 6.191,20.67 6.475,20.67H17.527C17.81,20.67 18.065,20.499 18.174,20.238C18.282,19.976 18.223,19.675 18.022,19.475L13.394,14.847Z" fill="#ffffff" fill-opacity="1.0" /></svg>