<?xml version="1.0" encoding="utf-8" ?>
<svg baseProfile="full" height="24.0" version="1.1" viewBox="0 0 24.0 24.0" width="24.0" xmlns="http://www.w3.org/2000/svg" xmlns:ev="http://www.w3.org/2001/xml-events" xmlns:xlink="http://www.w3.org/1999/xlink"><defs /><path d="M12,1.3C9.52,1.3 7.51,3.31 7.51,5.79V11.522C7.51,14.002 9.52,16.012 12,16.012C14.48,16.012 16.49,14.002 16.49,11.522V5.79C16.49,3.31 14.48,1.3 12,1.3ZM4.644,11.522C4.644,15.359 7.582,18.51 11.331,18.848V21.362H9.134C8.764,21.362 8.465,21.662 8.465,22.031C8.465,22.4 8.764,22.7 9.134,22.7H12H14.866C15.235,22.7 15.535,22.4 15.535,22.031C15.535,21.662 15.235,21.362 14.866,21.362H12.669V18.848C16.418,18.51 19.356,15.359 19.356,11.522C19.356,11.153 19.057,10.853 18.687,10.853C18.318,10.853 18.019,11.153 18.019,11.522C18.019,14.846 15.324,17.541 12,17.541C8.676,17.541 5.981,14.846 5.981,11.522C5.981,11.153 5.682,10.853 5.312,10.853C4.943,10.853 4.644,11.153 4.644,11.522Z" fill="#000000" fill-opacity="0.2" /></svg>