<?xml version="1.0" encoding="utf-8" ?>
<svg baseProfile="full" height="16.0" version="1.1" viewBox="0 0 22.0 16.0" width="22.0" xmlns="http://www.w3.org/2000/svg" xmlns:ev="http://www.w3.org/2001/xml-events" xmlns:xlink="http://www.w3.org/1999/xlink"><defs /><path d="M2.93 4.56c0-0.46 0-0.77 0.02-1C2.97 3.33 3 3.22 3.04 3.15c0.1-0.2 0.25-0.35 0.44-0.44 0.07-0.04 0.18-0.07 0.4-0.09C4.13 2.6 4.44 2.6 4.9 2.6H17.1c0.46 0 0.77 0 1 0.02 0.23 0.02 0.34 0.05 0.41 0.09 0.2 0.1 0.35 0.25 0.44 0.44 0.04 0.07 0.07 0.18 0.09 0.4 0.02 0.24 0.02 0.55 0.02 1.01v6.88c0 0.46 0 0.77-0.02 1-0.02 0.23-0.05 0.34-0.09 0.41-0.1 0.2-0.25 0.35-0.44 0.44-0.07 0.04-0.18 0.07-0.4 0.09-0.24 0.02-0.55 0.02-1.01 0.02H4.89c-0.46 0-0.77 0-1-0.02-0.23-0.02-0.34-0.05-0.41-0.09-0.2-0.1-0.35-0.25-0.44-0.44-0.04-0.07-0.07-0.18-0.09-0.4-0.02-0.24-0.02-0.55-0.02-1.01V4.56Z" fill="#000000" fill-opacity="1.0" /><path d="M4.2 6.91c0-0.3 0.09-0.57 0.24-0.8 0.16-0.23 0.38-0.4 0.67-0.53 0.3-0.12 0.64-0.18 1.04-0.18 0.47 0 0.87 0.09 1.19 0.27 0.31 0.18 0.53 0.45 0.64 0.8L7.13 6.84C7.04 6.65 6.91 6.51 6.75 6.41 6.6 6.31 6.4 6.26 6.13 6.26c-0.27 0-0.48 0.06-0.62 0.16S5.3 6.67 5.3 6.84c0 0.14 0.04 0.25 0.13 0.34 0.1 0.09 0.22 0.15 0.36 0.2 0.14 0.04 0.33 0.1 0.59 0.15 0.35 0.08 0.64 0.16 0.87 0.25C7.47 7.86 7.67 8 7.83 8.2 7.99 8.4 8.07 8.67 8.07 9c0 0.5-0.18 0.87-0.54 1.14-0.36 0.27-0.83 0.4-1.42 0.4-0.53 0-0.97-0.1-1.32-0.32C4.43 10 4.19 9.7 4.09 9.3l0.85-0.38C5.05 9.18 5.2 9.37 5.38 9.5c0.2 0.13 0.44 0.2 0.75 0.2 0.27 0 0.48-0.05 0.63-0.15C6.9 9.45 6.98 9.3 6.98 9.1c0-0.15-0.04-0.27-0.14-0.36-0.1-0.09-0.22-0.16-0.36-0.2l-0.6-0.16C5.51 8.29 5.22 8.2 5 8.12 4.8 8.03 4.61 7.89 4.45 7.7 4.29 7.5 4.2 7.25 4.2 6.91Zm9.3 1.07c0 0.51-0.1 0.96-0.32 1.35-0.21 0.39-0.5 0.69-0.89 0.9-0.37 0.22-0.8 0.32-1.3 0.32-0.48 0-0.92-0.1-1.3-0.32-0.37-0.21-0.66-0.51-0.88-0.9-0.2-0.4-0.31-0.84-0.31-1.35 0-0.51 0.1-0.96 0.31-1.35 0.22-0.4 0.51-0.7 0.89-0.9C10.07 5.5 10.5 5.4 11 5.4c0.48 0 0.92 0.1 1.3 0.32 0.37 0.22 0.67 0.52 0.88 0.9 0.21 0.4 0.32 0.85 0.32 1.36Zm-3.9 0c0 0.35 0.06 0.65 0.17 0.92 0.11 0.26 0.28 0.47 0.48 0.61 0.21 0.15 0.46 0.22 0.74 0.22 0.3 0 0.54-0.07 0.75-0.22 0.21-0.15 0.37-0.35 0.48-0.62 0.11-0.26 0.17-0.56 0.17-0.9 0-0.36-0.06-0.66-0.17-0.93-0.11-0.26-0.27-0.47-0.48-0.61C11.54 6.3 11.3 6.23 11 6.23c-0.28 0-0.53 0.07-0.74 0.22-0.2 0.14-0.37 0.35-0.48 0.61-0.1 0.27-0.16 0.57-0.16 0.92Zm4.38-1.07c0-0.3 0.07-0.57 0.23-0.8 0.16-0.23 0.38-0.4 0.67-0.53 0.3-0.12 0.64-0.18 1.04-0.18 0.47 0 0.87 0.09 1.18 0.27 0.32 0.18 0.54 0.45 0.65 0.8L16.9 6.84c-0.09-0.19-0.22-0.33-0.38-0.43-0.16-0.1-0.37-0.15-0.62-0.15-0.28 0-0.48 0.06-0.62 0.16-0.15 0.1-0.22 0.25-0.22 0.42 0 0.14 0.05 0.25 0.14 0.34 0.1 0.09 0.21 0.15 0.35 0.2 0.14 0.04 0.34 0.1 0.6 0.15 0.35 0.08 0.64 0.16 0.87 0.25 0.22 0.08 0.42 0.23 0.57 0.43 0.17 0.2 0.25 0.46 0.25 0.8 0 0.5-0.18 0.87-0.54 1.14-0.36 0.27-0.83 0.4-1.42 0.4-0.53 0-0.97-0.1-1.33-0.32C14.2 10 13.97 9.7 13.85 9.3l0.86-0.38c0.11 0.25 0.26 0.44 0.44 0.57 0.2 0.13 0.44 0.2 0.74 0.2 0.28 0 0.5-0.05 0.64-0.15 0.15-0.1 0.22-0.25 0.22-0.45 0-0.15-0.05-0.27-0.14-0.36-0.1-0.09-0.22-0.16-0.36-0.2l-0.6-0.16C15.27 8.29 15 8.2 14.77 8.12c-0.22-0.09-0.4-0.23-0.57-0.42-0.15-0.2-0.23-0.45-0.23-0.79Z" fill="#000000" fill-opacity="1.0" /></svg>