<?xml version="1.0" encoding="utf-8" ?>
<svg baseProfile="full" height="24.0" version="1.1" viewBox="0 0 24.0 24.0" width="24.0" xmlns="http://www.w3.org/2000/svg" xmlns:ev="http://www.w3.org/2001/xml-events" xmlns:xlink="http://www.w3.org/1999/xlink"><defs /><path d="M9.25,20.005H14.75C14.61,20.385 14.38,20.725 14.08,21.025C13.53,21.585 12.79,21.895 12,21.895C11.21,21.895 10.47,21.585 9.91,21.015C9.61,20.725 9.39,20.375 9.25,20.005ZM20.057,15.944C19.273,15.093 18.3,14.035 18.3,11.005V9.55C18.3,5.811 16.35,3.657 12.823,3.364C12.872,3.254 12.9,3.133 12.9,3.005C12.9,2.508 12.497,2.105 12,2.105C11.503,2.105 11.1,2.508 11.1,3.005C11.1,3.133 11.128,3.254 11.177,3.364C7.65,3.657 5.7,5.811 5.7,9.55V11.005C5.7,14.035 4.727,15.093 3.943,15.944C3.431,16.503 2.899,17.079 2.899,18.005C2.899,18.392 3.213,18.705 3.6,18.705H20.4C20.787,18.705 21.101,18.392 21.101,18.005C21.101,17.079 20.569,16.503 20.057,15.944Z" fill="#ffffff" fill-opacity="1.0" /></svg>