<?xml version="1.0" encoding="utf-8" ?>
<svg baseProfile="full" height="16.0" version="1.1" viewBox="0 0 23.0 16.0" width="23.0" xmlns="http://www.w3.org/2000/svg" xmlns:ev="http://www.w3.org/2001/xml-events" xmlns:xlink="http://www.w3.org/1999/xlink"><defs /><path d="M3.04 3.1C2.82 3.51 2.82 4.07 2.82 5.2v5.6c0 1.12 0 1.68 0.22 2.1 0.2 0.38 0.5 0.69 0.87 0.88C4.34 14 4.91 14 6.02 14h10.6c1.12 0 1.68 0 2.1-0.22 0.39-0.19 0.7-0.5 0.88-0.87 0.22-0.43 0.22-0.99 0.22-2.11V5.2c0-1.12 0-1.68-0.22-2.1-0.19-0.38-0.5-0.69-0.87-0.88C18.3 2 17.74 2 16.63 2H6.02C4.9 2 4.33 2 3.9 2.22 3.54 2.4 3.23 2.72 3.04 3.09Zm3.44 6.65L5.1 5.68H3.95l1.81 5h1.35l1.84-5h-1.1L6.49 9.75Zm2.9 0.92h1.05v-1.7h0.92c0.38 0 0.7-0.07 0.99-0.21 0.29-0.14 0.5-0.33 0.66-0.58 0.15-0.25 0.23-0.54 0.23-0.86 0-0.33-0.08-0.61-0.23-0.86-0.15-0.25-0.37-0.44-0.66-0.58-0.28-0.13-0.61-0.2-1-0.2H9.39v5Zm1.8-2.5h-0.75V6.48h0.75c0.3 0 0.53 0.07 0.7 0.22 0.17 0.14 0.25 0.35 0.25 0.62s-0.08 0.49-0.25 0.63c-0.17 0.15-0.4 0.22-0.7 0.22Zm3.63 2.5V7.2l2.5 3.47h0.97V5.68H17.3v3.26l-2.33-3.26h-1.15v5h0.98Z" fill="#000000" fill-opacity="1.0" /></svg>