<?xml version="1.0" encoding="utf-8" ?>
<svg baseProfile="full" height="24.0" version="1.1" viewBox="0 0 24.0 24.0" width="24.0" xmlns="http://www.w3.org/2000/svg" xmlns:ev="http://www.w3.org/2001/xml-events" xmlns:xlink="http://www.w3.org/1999/xlink"><defs /><path d="M1.995,1.505C1.721,1.231 1.278,1.231 1.005,1.505C0.731,1.778 0.731,2.221 1.005,2.495L21.005,22.495C21.278,22.768 21.721,22.768 21.995,22.495C22.268,22.221 22.268,21.778 21.995,21.505L17.193,16.703V5.073V5.047V5.047C17.193,4.705 17.193,4.408 17.173,4.162C17.152,3.902 17.105,3.64 16.975,3.385C16.784,3.009 16.478,2.703 16.101,2.511C15.847,2.382 15.584,2.335 15.324,2.313C15.079,2.293 14.781,2.293 14.44,2.293H14.44H14.44H14.44H14.44H14.413H9.573H9.547H9.547H9.547H9.547H9.547C9.205,2.293 8.908,2.293 8.662,2.313C8.402,2.335 8.14,2.382 7.885,2.511C7.509,2.703 7.203,3.009 7.011,3.385C6.882,3.64 6.835,3.902 6.813,4.162C6.793,4.408 6.793,4.705 6.793,5.047V5.047V5.047V5.073V6.303L1.995,1.505ZM17.005,20.474L17.025,20.494C17.01,20.53 16.993,20.566 16.975,20.601C16.784,20.978 16.478,21.284 16.101,21.475C15.847,21.605 15.584,21.652 15.324,21.673C15.079,21.693 14.781,21.693 14.44,21.693H14.413H9.573H9.547C9.205,21.693 8.908,21.693 8.662,21.673C8.402,21.652 8.14,21.605 7.885,21.475C7.509,21.284 7.203,20.978 7.011,20.601C6.882,20.347 6.835,20.084 6.813,19.824C6.793,19.579 6.793,19.281 6.793,18.94V18.94V18.94V18.913V10.263L6.799,10.269L6.834,10.303L6.869,10.338L6.903,10.373L6.938,10.408L6.973,10.443L7.008,10.477L7.043,10.512L7.078,10.547L7.113,10.583L7.148,10.618L7.183,10.653L7.219,10.688L7.254,10.723L7.289,10.759L7.325,10.794L7.36,10.829L7.396,10.865L7.431,10.9L7.467,10.936L7.502,10.972L7.538,11.007L7.573,11.043L7.609,11.078L7.645,11.114L7.681,11.15L7.717,11.186L7.752,11.222L7.788,11.258L7.824,11.294L7.86,11.33L7.896,11.366L7.932,11.402L7.968,11.438L8.005,11.474L8.041,11.51L8.077,11.546L8.113,11.583L8.149,11.619L8.186,11.655L8.222,11.691L8.258,11.728L8.295,11.764L8.331,11.801L8.368,11.837L8.404,11.874L8.441,11.91L8.477,11.947L8.514,11.983L8.551,12.02L8.587,12.057L8.624,12.093L8.661,12.13L8.697,12.167L8.734,12.203L8.771,12.24L8.808,12.277L8.844,12.314L8.881,12.351L8.918,12.387L8.955,12.424L8.992,12.461L9.029,12.498L9.066,12.535L9.103,12.572L9.14,12.609L9.177,12.646L9.214,12.683L9.251,12.72L9.288,12.757L9.325,12.794L9.362,12.831L9.399,12.868L9.436,12.906L9.473,12.943L9.511,12.98L9.548,13.017L9.585,13.054L9.622,13.091L9.659,13.129L9.697,13.166L9.734,13.203L9.771,13.24L9.808,13.278L9.845,13.315L9.883,13.352L9.92,13.389L9.957,13.427L9.995,13.464L10.032,13.501L10.069,13.539L10.106,13.576L10.144,13.613L10.181,13.651L10.219,13.688L10.256,13.725L10.293,13.762L10.33,13.8L10.368,13.837L10.405,13.875L10.443,13.912L10.48,13.949L10.517,13.987L10.555,14.024L10.592,14.061L10.629,14.099L10.667,14.136L10.704,14.173L10.741,14.211L10.779,14.248L10.816,14.285L10.853,14.323L10.891,14.36L10.928,14.397L10.965,14.435L11.002,14.472L11.04,14.509L11.077,14.546L11.114,14.584L11.152,14.621L11.189,14.658L11.226,14.696L11.263,14.733L11.301,14.77L11.338,14.807L11.375,14.844L11.412,14.882L11.449,14.919L11.487,14.956L11.524,14.993L11.561,15.03L11.598,15.067L11.635,15.104L11.672,15.142L11.709,15.179L11.746,15.216L11.783,15.253L11.82,15.29L11.857,15.327L11.894,15.364L11.931,15.401L11.968,15.438L12.005,15.474L12.042,15.511L12.079,15.548L12.116,15.585L12.153,15.622L12.189,15.659L12.226,15.696L12.263,15.732L12.3,15.769L12.336,15.806L12.373,15.842L12.41,15.879L12.446,15.916L12.483,15.952L12.519,15.989L12.556,16.025L12.593,16.062L12.629,16.098L12.665,16.135L12.702,16.171L12.738,16.208L12.775,16.244L12.811,16.28L12.847,16.317L12.884,16.353L12.92,16.389L12.956,16.425L12.992,16.462L13.028,16.498L13.064,16.534L13.1,16.57L13.136,16.606L13.172,16.642L13.208,16.678L13.244,16.714L13.28,16.75L13.316,16.785L13.352,16.821L13.387,16.857L13.423,16.892L13.459,16.928L13.494,16.964L13.53,16.999L13.566,17.035L13.601,17.07L13.636,17.106L13.672,17.141L13.707,17.177L13.742,17.212L13.778,17.247L13.813,17.282L13.848,17.317L13.883,17.353L13.918,17.388L13.953,17.423L13.988,17.458L14.023,17.493L14.058,17.527L14.093,17.562L14.127,17.597L14.162,17.632L14.197,17.666L14.231,17.701L14.266,17.735L14.3,17.77L14.335,17.804L14.369,17.839L14.404,17.873L14.438,17.907L14.472,17.941L14.506,17.976L14.54,18.01L14.574,18.044L14.608,18.078L14.642,18.112L14.676,18.146L14.71,18.179L14.744,18.213L14.777,18.247L14.811,18.28L14.844,18.314L14.878,18.347L14.911,18.381L14.945,18.414L14.978,18.447L15.011,18.481L15.044,18.514L15.078,18.547L15.111,18.58L15.143,18.613L15.176,18.646L15.209,18.678L15.242,18.711L15.275,18.744L15.307,18.777L15.34,18.809L15.372,18.841L15.405,18.874L15.437,18.906L15.469,18.938L15.501,18.971L15.533,19.003L15.565,19.035L15.597,19.067L15.629,19.099L15.661,19.13L15.693,19.162L15.724,19.194L15.756,19.225L15.788,19.257L15.819,19.288L15.85,19.32L15.882,19.351L15.913,19.382L15.944,19.413L15.975,19.444L16.006,19.475L16.037,19.506L16.067,19.537L16.098,19.567L16.128,19.598L16.159,19.628L16.189,19.659L16.22,19.689L16.25,19.719L16.28,19.75L16.31,19.78L16.34,19.81L16.37,19.84L16.4,19.869L16.43,19.899L16.459,19.929L16.489,19.958L16.518,19.988L16.548,20.017L16.577,20.046L16.606,20.076L16.635,20.105L16.664,20.133L16.693,20.162L16.722,20.191L16.751,20.22L16.779,20.249L16.808,20.277L16.836,20.306L16.865,20.334L16.893,20.362L16.921,20.39L16.949,20.418L16.977,20.446L17.005,20.474ZM12.75,4.813C12.75,5.227 12.414,5.563 12,5.563C11.586,5.563 11.25,5.227 11.25,4.813C11.25,4.399 11.586,4.063 12,4.063C12.414,4.063 12.75,4.399 12.75,4.813ZM9.5,19.344C9.5,19.068 9.723,18.844 10,18.844H14C14.276,18.844 14.5,19.068 14.5,19.344C14.5,19.621 14.276,19.844 14,19.844H10C9.723,19.844 9.5,19.621 9.5,19.344ZM2.552,6.662C2.848,6.414 3.29,6.454 3.537,6.751L5.537,9.149C5.754,9.409 5.754,9.786 5.538,10.046L3.911,11.997L5.538,13.951C5.754,14.211 5.754,14.587 5.538,14.847L3.538,17.25C3.291,17.547 2.849,17.587 2.552,17.34C2.255,17.093 2.215,16.651 2.462,16.354L4.089,14.399L2.462,12.444C2.246,12.185 2.246,11.808 2.462,11.548L4.088,9.598L2.462,7.648C2.215,7.351 2.255,6.91 2.552,6.662ZM21.448,6.667C21.745,6.914 21.785,7.355 21.538,7.652L19.911,9.607L21.538,11.558C21.754,11.817 21.754,12.195 21.538,12.454L19.911,14.404L21.537,16.354C21.785,16.65 21.745,17.092 21.448,17.34C21.151,17.587 20.71,17.547 20.462,17.25L18.462,14.852C18.246,14.593 18.246,14.215 18.462,13.956L20.088,12.006L18.462,10.055C18.246,9.796 18.246,9.419 18.462,9.159L20.462,6.757C20.709,6.46 21.151,6.419 21.448,6.667Z" fill="#2c2c2c" fill-opacity="1.0" /></svg>