<?xml version="1.0" encoding="utf-8" ?>
<svg baseProfile="full" height="24.0" version="1.1" viewBox="0 0 24.0 24.0" width="24.0" xmlns="http://www.w3.org/2000/svg" xmlns:ev="http://www.w3.org/2001/xml-events" xmlns:xlink="http://www.w3.org/1999/xlink"><defs /><path d="M10.464,15.068L7.831,17.701L10.464,20.334C10.642,20.512 10.642,20.8 10.464,20.977L9.821,21.62C9.644,21.798 9.356,21.798 9.179,21.62L6.545,18.987L3.912,21.62C3.735,21.798 3.447,21.798 3.269,21.62L2.627,20.977C2.449,20.8 2.449,20.512 2.627,20.334L5.26,17.701L2.627,15.068C2.449,14.891 2.449,14.603 2.627,14.425L3.269,13.783C3.447,13.605 3.735,13.605 3.912,13.783L6.545,16.416L9.179,13.783C9.356,13.605 9.644,13.605 9.821,13.783L10.464,14.425C10.642,14.603 10.642,14.891 10.464,15.068ZM10.636,5.883H7.455V2.701C7.455,2.45 7.251,2.247 7,2.247H6.091C5.84,2.247 5.636,2.45 5.636,2.701V5.883H2.455C2.204,5.883 2,6.087 2,6.338V7.247C2,7.498 2.204,7.701 2.455,7.701H5.636V10.883C5.636,11.134 5.84,11.338 6.091,11.338H7C7.251,11.338 7.455,11.134 7.455,10.883V7.701H10.636C10.887,7.701 11.091,7.498 11.091,7.247V6.338C11.091,6.087 10.887,5.883 10.636,5.883ZM21.545,14.974H13.364C13.113,14.974 12.909,15.178 12.909,15.429V16.338C12.909,16.589 13.113,16.792 13.364,16.792H21.545C21.796,16.792 22,16.589 22,16.338V15.429C22,15.178 21.796,14.974 21.545,14.974ZM21.545,18.611H13.364C13.113,18.611 12.909,18.814 12.909,19.065V19.974C12.909,20.225 13.113,20.429 13.364,20.429H21.545C21.796,20.429 22,20.225 22,19.974V19.065C22,18.814 21.796,18.611 21.545,18.611ZM21.545,5.883H13.364C13.113,5.883 12.909,6.087 12.909,6.338V7.247C12.909,7.498 13.113,7.701 13.364,7.701H21.545C21.796,7.701 22,7.498 22,7.247V6.338C22,6.087 21.796,5.883 21.545,5.883Z" fill="#2c2c2c" fill-opacity="1.0" /></svg>