<?xml version="1.0" encoding="utf-8" ?>
<svg baseProfile="full" height="16.0" version="1.1" viewBox="0 0 18.0 16.0" width="18.0" xmlns="http://www.w3.org/2000/svg" xmlns:ev="http://www.w3.org/2001/xml-events" xmlns:xlink="http://www.w3.org/1999/xlink"><defs /><path d="M2.27 8.49c0-3.72 3.01-6.73 6.73-6.73 3.72 0 6.73 3.01 6.73 6.73 0 1.16-0.17 2.46-0.66 3.58-0.08 0.17-0.23 0.28-0.4 0.31l-0.02 0.16c-0.1 1.09-1.07 1.89-2.15 1.8-0.4-0.04-0.71-0.4-0.68-0.82l0.33-3.7c0.03-0.42 0.4-0.72 0.8-0.68 0.68 0.06 1.25 0.45 1.57 1 0.1-0.54 0.13-1.1 0.13-1.65 0-3.12-2.53-5.65-5.65-5.65-3.12 0-5.65 2.53-5.65 5.65 0 0.55 0.04 1.11 0.13 1.66 0.32-0.56 0.9-0.95 1.57-1.01 0.4-0.04 0.77 0.26 0.8 0.67l0.33 3.71c0.04 0.42-0.27 0.78-0.68 0.81-1.08 0.1-2.05-0.7-2.15-1.8l-0.01-0.15c-0.18-0.03-0.33-0.14-0.4-0.31-0.5-1.12-0.67-2.42-0.67-3.58Z" fill="#000000" fill-opacity="1.0" /></svg>