<?xml version="1.0" encoding="utf-8" ?>
<svg baseProfile="full" height="24.0" version="1.1" viewBox="0 0 24.0 24.0" width="24.0" xmlns="http://www.w3.org/2000/svg" xmlns:ev="http://www.w3.org/2001/xml-events" xmlns:xlink="http://www.w3.org/1999/xlink"><defs /><path d="M16.7,1.3C17.805,1.3 18.7,2.195 18.7,3.3V15.815C17.743,14.303 16.056,13.3 14.135,13.3H12.167L13.972,11.495C14.245,11.222 14.245,10.778 13.972,10.505C13.699,10.232 13.255,10.232 12.982,10.505L9.982,13.505C9.709,13.778 9.709,14.222 9.982,14.495L12.982,17.495C13.255,17.768 13.699,17.768 13.972,17.495C14.245,17.222 14.245,16.778 13.972,16.505L12.167,14.7H14.135C16.344,14.7 18.135,16.491 18.135,18.7C18.135,20.363 17.12,21.789 15.676,22.392C15.155,22.591 14.59,22.7 14,22.7H7.3C6.196,22.7 5.3,21.805 5.3,20.7V3.3C5.3,2.195 6.196,1.3 7.3,1.3L16.7,1.3ZM12.75,4.001C12.75,4.415 12.415,4.751 12,4.751C11.586,4.751 11.25,4.415 11.25,4.001C11.25,3.587 11.586,3.251 12,3.251C12.415,3.251 12.75,3.587 12.75,4.001Z" fill="#2c2c2c" fill-opacity="1.0" /></svg>