<?xml version="1.0" encoding="utf-8" ?>
<svg baseProfile="full" height="24.0" version="1.1" viewBox="0 0 24.0 24.0" width="24.0" xmlns="http://www.w3.org/2000/svg" xmlns:ev="http://www.w3.org/2001/xml-events" xmlns:xlink="http://www.w3.org/1999/xlink"><defs /><path d="M8.5,7L15.5,7A0.5,0.5 0,0 1,16 7.5L16,16.5A0.5,0.5 0,0 1,15.5 17L8.5,17A0.5,0.5 0,0 1,8 16.5L8,7.5A0.5,0.5 0,0 1,8.5 7z" fill="#000000" fill-opacity="1.0" /><path d="M15.163,0.522C13.052,0.225 10.943,0.226 8.836,0.522C8.505,0.569 8.253,0.843 8.235,1.176C8.224,1.362 8.224,1.606 8.224,1.853V1.853V1.853V1.853V1.853C8.224,1.969 8.224,2.086 8.223,2.198C8.219,2.576 8.204,2.961 8.153,3.311C8.1,3.669 8.017,3.934 7.912,4.104C7.861,4.186 7.811,4.24 7.754,4.275C7.687,4.296 7.619,4.316 7.55,4.337C6.274,4.552 5.301,5.662 5.301,7V17C5.301,18.338 6.274,19.448 7.55,19.663C7.618,19.684 7.686,19.704 7.753,19.724C7.81,19.76 7.86,19.814 7.911,19.896C8.016,20.066 8.099,20.331 8.152,20.689C8.203,21.039 8.218,21.424 8.222,21.801C8.223,21.913 8.223,22.031 8.223,22.147V22.147C8.223,22.394 8.223,22.637 8.234,22.823C8.252,23.157 8.504,23.431 8.835,23.478C10.946,23.774 13.055,23.774 15.162,23.478C15.493,23.431 15.745,23.157 15.763,22.823C15.774,22.637 15.774,22.394 15.774,22.147C15.774,22.031 15.774,21.914 15.775,21.801C15.779,21.424 15.794,21.039 15.845,20.689C15.898,20.331 15.981,20.066 16.087,19.896C16.137,19.814 16.188,19.76 16.244,19.724C16.31,19.705 16.375,19.685 16.442,19.664C17.723,19.454 18.701,18.341 18.701,17V7C18.701,5.66 17.725,4.549 16.446,4.337C16.378,4.316 16.312,4.295 16.245,4.275C16.188,4.24 16.138,4.186 16.088,4.104C15.982,3.934 15.899,3.669 15.846,3.311C15.795,2.961 15.78,2.576 15.776,2.198C15.775,2.086 15.775,1.969 15.775,1.853V1.853C15.775,1.606 15.775,1.362 15.764,1.176C15.746,0.843 15.494,0.569 15.163,0.522ZM8.001,5.7C7.283,5.7 6.701,6.282 6.701,7V17C6.701,17.718 7.283,18.3 8.001,18.3H16.001C16.719,18.3 17.301,17.718 17.301,17V7C17.301,6.282 16.719,5.7 16.001,5.7H8.001Z" fill="#000000" fill-opacity="1.0" /></svg>