<?xml version="1.0" encoding="utf-8" ?>
<svg baseProfile="full" height="24.0" version="1.1" viewBox="0 0 24.0 24.0" width="24.0" xmlns="http://www.w3.org/2000/svg" xmlns:ev="http://www.w3.org/2001/xml-events" xmlns:xlink="http://www.w3.org/1999/xlink"><defs /><path d="M12.701,18.664V22.301H11.301V18.664C7.934,18.313 5.301,15.459 5.301,12.001C5.301,11.614 5.614,11.301 6.001,11.301C6.388,11.301 6.701,11.614 6.701,12.001C6.701,14.924 9.079,17.301 12.001,17.301C14.923,17.301 17.301,14.924 17.301,12.001C17.301,11.614 17.614,11.301 18.001,11.301C18.388,11.301 18.701,11.614 18.701,12.001C18.701,15.459 16.068,18.313 12.701,18.664ZM12.001,15.701C14.041,15.701 15.701,14.041 15.701,12.001V5.001C15.701,2.961 14.041,1.301 12.001,1.301C9.961,1.301 8.301,2.961 8.301,5.001V12.001C8.301,14.041 9.961,15.701 12.001,15.701Z" fill="#2c2c2c" fill-opacity="1.0" /></svg>