<?xml version="1.0" encoding="utf-8" ?>
<svg baseProfile="full" height="24.0" version="1.1" viewBox="0 0 24.0 24.0" width="24.0" xmlns="http://www.w3.org/2000/svg" xmlns:ev="http://www.w3.org/2001/xml-events" xmlns:xlink="http://www.w3.org/1999/xlink"><defs /><path d="M8.25,4L15.75,4A0.25,0.25 0,0 1,16 4.25L16,19.75A0.25,0.25 0,0 1,15.75 20L8.25,20A0.25,0.25 0,0 1,8 19.75L8,4.25A0.25,0.25 0,0 1,8.25 4z" fill="#000000" fill-opacity="1.0" /><path d="M11.996,6C12.41,6 12.746,5.664 12.746,5.25C12.746,4.836 12.41,4.5 11.996,4.5C11.582,4.5 11.246,4.836 11.246,5.25C11.246,5.664 11.582,6 11.996,6Z" fill="#000000" fill-opacity="1.0" /><path d="M7.3,2L16.7,2A1.3,1.3 0,0 1,18 3.3L18,20.7A1.3,1.3 0,0 1,16.7 22L7.3,22A1.3,1.3 0,0 1,6 20.7L6,3.3A1.3,1.3 0,0 1,7.3 2z" fill="#000000" fill-opacity="0.0" /><path d="M10,19H14" fill="#000000" fill-opacity="0.0" /></svg>