<?xml version="1.0" encoding="utf-8" ?>
<svg baseProfile="full" height="24.0" version="1.1" viewBox="0 0 24.0 24.0" width="24.0" xmlns="http://www.w3.org/2000/svg" xmlns:ev="http://www.w3.org/2001/xml-events" xmlns:xlink="http://www.w3.org/1999/xlink"><defs /><path d="M12.0074 3.06431C11.7619 2.90065 11.4463 2.88539 11.1861 3.02461C10.926 3.16382 10.7636 3.43491 10.7636 3.72995V10.3336L7.19974 7.48253L6.20022 8.73192L10.283 11.9981L6.20022 15.2643L7.19974 16.5137L10.7636 13.6626V20.2663C10.7636 20.5613 10.926 20.8324 11.1861 20.9717C11.4463 21.1109 11.7619 21.0956 12.0074 20.932L17.8438 17.041C18.0598 16.897 18.1925 16.6571 18.1997 16.3976C18.2069 16.1381 18.0877 15.8912 17.88 15.7354L12.897 11.9981L17.88 8.26086C18.0877 8.10508 18.2069 7.85819 18.1997 7.59866C18.1925 7.33913 18.0598 7.09923 17.8438 6.95522L12.0074 3.06431ZM16.0154 7.65929L12.3636 10.3981V5.22476L16.0154 7.65929ZM16.0154 16.337L12.3636 13.5981V18.7715L16.0154 16.337Z" fill="#000000" fill-opacity="1.0" /></svg>