<?xml version="1.0" encoding="utf-8" ?>
<svg baseProfile="full" height="24.0" version="1.1" viewBox="0 0 24.0 24.0" width="24.0" xmlns="http://www.w3.org/2000/svg" xmlns:ev="http://www.w3.org/2001/xml-events" xmlns:xlink="http://www.w3.org/1999/xlink"><defs /><path d="M20.73 5.93c0.37 0.9 0.18 1.95-0.54 2.68L9 20l-5.67 0.67L4 15 15.38 3.78c0.73-0.72 1.8-0.9 2.7-0.53l0.11-0.11c0.27-0.26 0.69-0.26 0.95 0l1.72 1.72c0.26 0.26 0.26 0.68 0 0.94l-0.13 0.13Zm-4.22-1.01c0.34-0.34 0.9-0.34 1.23 0l1.32 1.33c0.34 0.34 0.34 0.89 0 1.22L8.1 18.45l-2.92 0.38 0.38-2.95L16.51 4.92Z" fill="#000000" fill-opacity="0.8509803921568627" /></svg>