<?xml version="1.0" encoding="utf-8" ?>
<svg baseProfile="full" height="24.0" version="1.1" viewBox="0 0 24.0 24.0" width="24.0" xmlns="http://www.w3.org/2000/svg" xmlns:ev="http://www.w3.org/2001/xml-events" xmlns:xlink="http://www.w3.org/1999/xlink"><defs /><path d="M12,2C6.476,2 2,6.48 2,12.005C2,17.077 5.775,21.269 10.666,21.922V19.906C10.666,19.338 10.308,18.826 9.769,18.646C6.947,17.696 4.926,14.998 5.001,11.837C5.092,7.989 8.224,4.964 12.072,5.003C15.905,5.042 18.999,8.162 18.999,12.007C18.999,12.094 18.997,12.181 18.994,12.269C18.994,12.288 18.992,12.308 18.992,12.327C18.989,12.409 18.984,12.488 18.978,12.568C18.976,12.594 18.973,12.619 18.971,12.645C18.966,12.7 18.96,12.756 18.955,12.811C18.948,12.874 18.94,12.936 18.931,12.998C18.927,13.026 18.922,13.055 18.919,13.083C18.063,18.732 10.709,21.906 10.668,21.924C11.104,21.982 11.549,22.011 12,22.011C17.524,22.011 22,17.532 22,12.007C22,6.48 17.522,2 12,2Z" fill="#000000" fill-opacity="1.0" /></svg>