<?xml version="1.0" encoding="utf-8" ?>
<svg baseProfile="full" height="16.0" version="1.1" viewBox="0 0 18.0 16.0" width="18.0" xmlns="http://www.w3.org/2000/svg" xmlns:ev="http://www.w3.org/2001/xml-events" xmlns:xlink="http://www.w3.org/1999/xlink"><defs /><path d="M6.854,7.769C6.558,7.769 6.412,7.408 6.625,7.202L11.582,2.418C11.682,2.322 11.839,2.444 11.77,2.564L9.76,6.073H11.337C11.612,6.073 11.766,6.388 11.599,6.605L9.83,8.897H11.132C11.429,8.897 11.575,9.258 11.361,9.464L6.404,14.248C6.304,14.344 6.148,14.223 6.217,14.102L8.273,10.511H6.848C6.577,10.511 6.422,10.203 6.583,9.985L8.223,7.769H6.854ZM15.102,4.23C15.341,4.092 15.647,4.173 15.785,4.413C16.473,5.603 16.834,6.954 16.834,8.329C16.834,9.704 16.473,11.055 15.785,12.246C15.647,12.485 15.341,12.567 15.102,12.429C14.863,12.291 14.781,11.985 14.919,11.746C15.519,10.707 15.835,9.529 15.835,8.329C15.835,7.13 15.519,5.951 14.919,4.913C14.781,4.673 14.863,4.368 15.102,4.23ZM3.083,4.913C3.222,4.673 3.14,4.368 2.9,4.23C2.661,4.092 2.355,4.173 2.217,4.413C1.53,5.603 1.168,6.954 1.168,8.329C1.168,9.704 1.53,11.055 2.217,12.246C2.355,12.485 2.661,12.567 2.9,12.429C3.14,12.291 3.222,11.985 3.083,11.746C2.484,10.707 2.168,9.529 2.168,8.329C2.168,7.13 2.484,5.951 3.083,4.913ZM12.702,5.23C12.941,5.092 13.247,5.173 13.385,5.413C13.897,6.299 14.167,7.305 14.167,8.329C14.167,9.353 13.897,10.359 13.385,11.246C13.247,11.485 12.941,11.567 12.702,11.429C12.463,11.291 12.381,10.985 12.519,10.746C12.943,10.011 13.167,9.178 13.167,8.329C13.167,7.481 12.943,6.647 12.519,5.913C12.381,5.673 12.463,5.368 12.702,5.23ZM5.482,5.913C5.62,5.673 5.538,5.368 5.299,5.23C5.059,5.092 4.754,5.173 4.615,5.413C4.104,6.299 3.834,7.305 3.834,8.329C3.834,9.353 4.104,10.359 4.615,11.246C4.754,11.485 5.059,11.567 5.299,11.429C5.538,11.291 5.62,10.985 5.482,10.746C5.057,10.011 4.834,9.178 4.834,8.329C4.834,7.481 5.057,6.647 5.482,5.913Z" fill="#000000" fill-opacity="1.0" /></svg>