<?xml version="1.0" encoding="utf-8" ?>
<svg baseProfile="full" height="24.0" version="1.1" viewBox="0 0 24.0 24.0" width="24.0" xmlns="http://www.w3.org/2000/svg" xmlns:ev="http://www.w3.org/2001/xml-events" xmlns:xlink="http://www.w3.org/1999/xlink"><defs /><path d="M12.8001 1.95148C16.4857 2.35017 19.355 5.47172 19.355 9.2634V15.918C19.355 19.98 16.062 23.2729 12 23.2729C7.93801 23.2729 4.6451 19.98 4.6451 15.918V9.2634C4.6451 5.4717 7.51433 2.35014 11.2001 1.95147V0.742065H12.8001V1.95148ZM11.2001 7.18955V11.0715H12.8001V7.18955H11.2001ZM6.2451 9.2634C6.2451 6.08504 8.82166 3.50847 12 3.50847C15.1784 3.50847 17.755 6.08504 17.755 9.2634V15.918C17.755 19.0964 15.1784 21.6729 12 21.6729C8.82166 21.6729 6.2451 19.0964 6.2451 15.918V9.2634Z" fill="#000000" fill-opacity="1.0" /></svg>