<?xml version="1.0" encoding="utf-8" ?>
<svg baseProfile="full" height="24.0" version="1.1" viewBox="0 0 24.0 24.0" width="24.0" xmlns="http://www.w3.org/2000/svg" xmlns:ev="http://www.w3.org/2001/xml-events" xmlns:xlink="http://www.w3.org/1999/xlink"><defs /><path d="M8.22889 4.31486C8.19102 4.31486 8.1547 4.3299 8.12792 4.35668C8.10114 4.38346 8.0861 4.41978 8.0861 4.45765V6.48601L15.914 6.48601V4.45765C15.914 4.41978 15.8989 4.38346 15.8722 4.35668C15.8454 4.3299 15.8091 4.31486 15.7712 4.31486H8.22889ZM6.4861 4.45765V6.48601H4.45771C3.99549 6.48601 3.55221 6.66962 3.22537 6.99646C2.89853 7.32329 2.71492 7.76658 2.71492 8.2288V15.7711C2.71492 16.2333 2.89853 16.6766 3.22537 17.0034C3.55221 17.3303 3.99549 17.5139 4.45771 17.5139H6.4861V19.5423C6.4861 20.0045 6.66971 20.4478 6.99655 20.7746C7.32339 21.1014 7.76667 21.285 8.22889 21.285H15.7712C16.2334 21.285 16.6767 21.1014 17.0035 20.7746C17.3304 20.4478 17.514 20.0045 17.514 19.5423V17.5139H19.5423C20.0045 17.5139 20.4478 17.3303 20.7747 17.0034C21.1015 16.6766 21.2851 16.2333 21.2851 15.7711V8.2288C21.2851 7.76658 21.1015 7.3233 20.7747 6.99646C20.4478 6.66962 20.0045 6.48601 19.5423 6.48601H17.514V4.45765C17.514 3.99543 17.3304 3.55215 17.0035 3.22531C16.6767 2.89847 16.2334 2.71486 15.7712 2.71486H8.22889C7.76667 2.71486 7.32339 2.89847 6.99655 3.22531C6.66971 3.55215 6.4861 3.99543 6.4861 4.45765ZM15.914 16.7073C15.914 16.7095 15.914 16.7117 15.914 16.7139C15.914 16.7161 15.914 16.7183 15.914 16.7205V19.5423C15.914 19.5801 15.8989 19.6164 15.8722 19.6432C15.8454 19.67 15.8091 19.685 15.7712 19.685H8.22889C8.19102 19.685 8.1547 19.67 8.12792 19.6432C8.10114 19.6164 8.0861 19.5801 8.0861 19.5423V12.8H15.914V16.7073ZM17.514 15.9139H19.5423C19.5802 15.9139 19.6165 15.8988 19.6433 15.8721C19.6701 15.8453 19.6851 15.809 19.6851 15.7711V8.2288C19.6851 8.19092 19.6701 8.15461 19.6433 8.12783C19.6165 8.10105 19.5802 8.08601 19.5423 8.08601H16.7163L16.714 8.08601H7.2861L7.28376 8.08601H4.45771C4.41984 8.08601 4.38352 8.10105 4.35674 8.12783C4.32996 8.15461 4.31492 8.19093 4.31492 8.2288V15.7711C4.31492 15.809 4.32996 15.8453 4.35674 15.8721C4.38352 15.8988 4.41984 15.9139 4.45771 15.9139H6.4861V12C6.4861 11.5581 6.84427 11.2 7.2861 11.2H16.714C17.1558 11.2 17.514 11.5581 17.514 12V15.9139Z" fill="#000000" fill-opacity="1.0" /></svg>