<?xml version="1.0" encoding="utf-8" ?>
<svg baseProfile="full" height="16.0" version="1.1" viewBox="0 0 17.0 16.0" width="17.0" xmlns="http://www.w3.org/2000/svg" xmlns:ev="http://www.w3.org/2001/xml-events" xmlns:xlink="http://www.w3.org/1999/xlink"><defs /><path d="M8.04 2.14l0.4-0.38C8.32 1.66 8.18 1.6 8.03 1.6c-0.14 0-0.28 0.06-0.38 0.16l0.38 0.38Zm0 0l0.4-0.38v0.02l0.04 0.04 0.14 0.15 0.5 0.54c0.41 0.47 0.96 1.11 1.5 1.84 0.56 0.73 1.11 1.56 1.54 2.38 0.41 0.8 0.73 1.67 0.73 2.46 0 2.66-2.18 4.81-4.85 4.81-2.68 0-4.86-2.15-4.86-4.81 0-0.8 0.32-1.66 0.74-2.46C4.34 5.9 4.9 5.08 5.45 4.35s1.1-1.38 1.52-1.84l0.5-0.55 0.14-0.14 0.04-0.04V1.77l0.4 0.37ZM7.77 3.23l0.27-0.3 0.27 0.3C8.71 3.68 9.24 4.3 9.77 5c0.52 0.7 1.04 1.48 1.43 2.22 0.23 0.45 0.4 0.87 0.5 1.25-0.9-0.33-2.33-0.57-3.66 0.45-1.39 1.06-2.88 0.76-3.78 0.41V9.19c0-0.53 0.22-1.21 0.62-1.97C5.26 6.47 5.78 5.7 6.3 5c0.53-0.7 1.06-1.32 1.46-1.77Z" fill="#000000" fill-opacity="1.0" /></svg>