<?xml version="1.0" encoding="utf-8" ?>
<svg baseProfile="full" height="16.0" version="1.1" viewBox="0 0 16.0 16.0" width="16.0" xmlns="http://www.w3.org/2000/svg" xmlns:ev="http://www.w3.org/2001/xml-events" xmlns:xlink="http://www.w3.org/1999/xlink"><defs /><path d="M8.39 15.55c-0.2 0.03-0.44 0.03-0.64 0-0.25-0.04-0.44-0.13-0.56-0.18H7.17l-0.02-0.01C3.79 13.94 1.3 11.1 1.3 6.98V4.9 4.84c0-0.4 0-0.87 0.16-1.3 0.14-0.39 0.38-0.73 0.69-1 0.35-0.3 0.79-0.47 1.16-0.6L3.37 1.9 6.8 0.62c0.27-0.1 0.55-0.2 0.86-0.25 0.27-0.04 0.54-0.04 0.81 0 0.31 0.05 0.6 0.15 0.86 0.25l3.44 1.3 0.06 0.01c0.37 0.14 0.8 0.3 1.16 0.61 0.3 0.27 0.54 0.61 0.68 1 0.17 0.43 0.17 0.9 0.17 1.3V4.9v2.08c0 4.13-2.5 6.96-5.86 8.38-0.19 0.08-0.38 0.15-0.6 0.19Z" fill="#e4b867" fill-opacity="1.0" /><path d="M8.36 1.14c-0.2-0.03-0.4-0.03-0.59 0-0.22 0.03-0.43 0.1-0.73 0.22l-3.4 1.28C3.22 2.79 2.9 2.9 2.66 3.12c-0.21 0.2-0.38 0.43-0.48 0.7-0.11 0.3-0.11 0.63-0.11 1.08v2.08c0 3.75 2.25 6.34 5.38 7.66l0.03 0.01c0.12 0.06 0.24 0.1 0.4 0.13 0.11 0.02 0.26 0.02 0.38 0 0.15-0.02 0.27-0.07 0.4-0.13h0.02c3.14-1.33 5.39-3.92 5.39-7.67V4.9c0-0.45 0-0.79-0.12-1.09-0.1-0.26-0.26-0.5-0.47-0.69-0.25-0.2-0.56-0.33-0.98-0.48L9.1 1.36c-0.3-0.11-0.51-0.2-0.74-0.22Z" fill="#000000" fill-opacity="1.0" /><path d="M6.57 5.48c0-0.8 0.66-1.45 1.46-1.45 0.8 0 1.46 0.65 1.46 1.45v1.23c0 0.13-0.1 0.23-0.23 0.23-0.12 0-0.23-0.1-0.23-0.23V5.48c0-0.55-0.44-1-1-1-0.55 0-1 0.45-1 1v1.23c0 0.13-0.1 0.23-0.23 0.23-0.12 0-0.23-0.1-0.23-0.23V5.48Z" fill="#000000" fill-opacity="1.0" /><path d="M5.86 6.67c-0.14 0-0.25 0.11-0.25 0.25v2.61c0 0.56 0.44 1 1 1h2.91c0.56 0 1-0.44 1-1V6.92c0-0.14-0.1-0.25-0.25-0.25H5.86Zm2.7 1.62c0 0.22-0.13 0.4-0.3 0.48l0.11 0.61C8.38 9.42 8.35 9.46 8.3 9.46H7.77c-0.04 0-0.07-0.04-0.07-0.08l0.12-0.6C7.63 8.7 7.5 8.51 7.5 8.3 7.5 8 7.74 7.77 8.03 7.77c0.29 0 0.52 0.23 0.52 0.52Z" fill="#000000" fill-opacity="1.0" /></svg>