<?xml version="1.0" encoding="utf-8" ?>
<svg baseProfile="full" height="24.0" version="1.1" viewBox="0 0 24.0 24.0" width="24.0" xmlns="http://www.w3.org/2000/svg" xmlns:ev="http://www.w3.org/2001/xml-events" xmlns:xlink="http://www.w3.org/1999/xlink"><defs /><path d="M16,15L16,3V2.5C16,2.224 15.776,2 15.5,2H14.5C14.224,2 14,2.224 14,2.5V3L14,15.493C14,15.495 14,15.498 14,15.5V16V20V21.207C14,21.653 14.538,21.876 14.854,21.561L15.707,20.707L19.707,16.707L20.561,15.854C20.876,15.539 20.653,15 20.207,15H19L16,15ZM10,8.51C10,8.507 10,8.503 10,8.5V8L10,4V2.793C10,2.348 9.462,2.124 9.147,2.439L8.305,3.281C8.297,3.289 8.289,3.297 8.281,3.305L4.293,7.293L3.439,8.147C3.124,8.462 3.348,9 3.793,9L5,9L8,9V21V21.5C8,21.776 8.224,22 8.5,22H9.5C9.776,22 10,21.776 10,21.5V21L10,8.51Z" fill="#000000" fill-opacity="0.2" /></svg>