<?xml version="1.0" encoding="utf-8" ?>
<svg baseProfile="full" height="16.0" version="1.1" viewBox="0 0 18.0 16.0" width="18.0" xmlns="http://www.w3.org/2000/svg" xmlns:ev="http://www.w3.org/2001/xml-events" xmlns:xlink="http://www.w3.org/1999/xlink"><defs /><path d="M9 15s6.32-2.1 6.32-6.32v-5.1c0-0.15-0.05-0.3-0.13-0.42-0.1-0.12-0.21-0.2-0.35-0.25L9.22 1.04c-0.14-0.05-0.3-0.05-0.44 0L3.16 2.9C3.02 2.95 2.9 3.04 2.82 3.16 2.73 3.28 2.68 3.43 2.68 3.57v5.11C2.68 12.9 9 15 9 15Z" fill="#00bd13" fill-opacity="1.0" /><path d="M7.77 9.07c1.45 1.45 3.14 2.19 3.7 2.24 0.55 0.05 0.92-0.29 1.12-0.77 0.18-0.42 0.08-0.87-0.26-1.19C12 9.03 11.71 8.9 11.4 8.8c-0.32-0.12-0.72-0.06-1.03 0.25l-0.1 0.09C10 9.4 9.87 9.53 9.67 9.55c-0.2 0-0.34-0.1-0.62-0.34-0.37-0.3-0.6-0.52-0.75-0.66C8.16 8.42 7.94 8.18 7.64 7.8 7.41 7.52 7.3 7.38 7.31 7.18c0-0.19 0.15-0.33 0.42-0.6l0.1-0.09c0.3-0.3 0.36-0.71 0.25-1.03-0.12-0.32-0.24-0.6-0.56-0.95C7.2 4.17 6.75 4.07 6.33 4.25 5.85 4.45 5.51 4.8 5.56 5.37c0.05 0.56 0.77 2.25 2.21 3.7Z" fill="#ffffff" fill-opacity="1.0" /></svg>