<?xml version="1.0" encoding="utf-8" ?>
<svg baseProfile="full" height="24.0" version="1.1" viewBox="0 0 24.0 24.0" width="24.0" xmlns="http://www.w3.org/2000/svg" xmlns:ev="http://www.w3.org/2001/xml-events" xmlns:xlink="http://www.w3.org/1999/xlink"><defs /><path d="M2.588,20.413C2.979,20.804 3.45,21 4,21H20C20.55,21 21.021,20.804 21.413,20.413C21.804,20.021 22,19.55 22,19V8C22,7.45 21.804,6.979 21.413,6.588C21.021,6.196 20.55,6 20,6H16V4C16,3.45 15.804,2.979 15.413,2.588C15.021,2.196 14.55,2 14,2H10C9.45,2 8.979,2.196 8.587,2.588C8.196,2.979 8,3.45 8,4V6H4C3.45,6 2.979,6.196 2.588,6.588C2.196,6.979 2,7.45 2,8V19C2,19.55 2.196,20.021 2.588,20.413ZM14,6H10V4H14V6ZM12,15C13.105,15 14,14.105 14,13C14,11.895 13.105,11 12,11C10.895,11 10,11.895 10,13C10,14.105 10.895,15 12,15Z" fill="#000000" fill-opacity="1.0" /></svg>