<?xml version="1.0" encoding="utf-8" ?>
<svg baseProfile="full" height="16.0" version="1.1" viewBox="0 0 19.0 16.0" width="19.0" xmlns="http://www.w3.org/2000/svg" xmlns:ev="http://www.w3.org/2001/xml-events" xmlns:xlink="http://www.w3.org/1999/xlink"><defs /><path d="M7.26 1.56c-0.17 0-0.35 0.03-0.53 0.09C6.56 1.71 6.41 1.8 6.27 1.92 6.13 2.05 6.01 2.22 5.92 2.4 5.84 2.59 5.8 2.8 5.8 3.05v3c0 0.26 0.04 0.48 0.13 0.66C6 6.9 6.13 7.05 6.27 7.17 6.41 7.3 6.57 7.4 6.73 7.45c0.18 0.07 0.36 0.1 0.53 0.1 0.18 0 0.36-0.03 0.53-0.1C7.96 7.4 8.12 7.3 8.27 7.17 8.4 7.05 8.52 6.9 8.6 6.71c0.09-0.18 0.13-0.4 0.13-0.65V3.05C8.73 2.8 8.7 2.59 8.6 2.4 8.52 2.2 8.4 2.05 8.27 1.93 8.11 1.8 7.96 1.7 7.78 1.64c-0.17-0.06-0.35-0.1-0.53-0.1ZM6.9 2.69C7 2.61 7.1 2.57 7.23 2.57c0.12 0 0.23 0.04 0.31 0.12l0.03 0.03c0.07 0.06 0.1 0.17 0.1 0.33v3c0 0.18-0.04 0.3-0.12 0.37-0.1 0.07-0.2 0.11-0.32 0.11-0.13 0-0.2-0.04-0.3-0.11-0.07-0.07-0.16-0.19-0.16-0.36V3.05c0-0.18 0.05-0.3 0.13-0.36ZM2.88 1.6H3.9v4.88h1.62V7.5H2.88V1.6Zm11.2-0.04c-0.18 0-0.36 0.03-0.53 0.09-0.18 0.06-0.33 0.15-0.47 0.27-0.14 0.13-0.26 0.3-0.34 0.48-0.09 0.19-0.13 0.4-0.13 0.65v3c0 0.26 0.04 0.48 0.13 0.66 0.08 0.19 0.2 0.34 0.34 0.46 0.14 0.13 0.3 0.22 0.47 0.28 0.17 0.07 0.35 0.1 0.53 0.1 0.17 0 0.35-0.03 0.52-0.1 0.18-0.06 0.34-0.15 0.48-0.28 0.14-0.12 0.25-0.27 0.33-0.46 0.1-0.18 0.13-0.4 0.13-0.65v-1.9h-1.66v0.92h0.65v0.98c0 0.17-0.05 0.29-0.13 0.36-0.1 0.07-0.2 0.11-0.32 0.11-0.13 0-0.24-0.04-0.33-0.11-0.08-0.07-0.13-0.19-0.13-0.36V3.05c0-0.18 0.05-0.3 0.13-0.36 0.1-0.08 0.2-0.12 0.33-0.12 0.12 0 0.23 0.04 0.31 0.12 0.09 0.07 0.14 0.18 0.14 0.36v0.39h1.01v-0.4c0-0.23-0.04-0.45-0.12-0.64-0.09-0.19-0.2-0.35-0.34-0.47-0.15-0.13-0.3-0.22-0.48-0.28-0.17-0.06-0.35-0.1-0.52-0.1Zm-3.94 0.09c0.17-0.06 0.35-0.1 0.53-0.1 0.17 0 0.35 0.04 0.52 0.1 0.18 0.06 0.33 0.15 0.48 0.27 0.14 0.13 0.25 0.3 0.34 0.48 0.08 0.19 0.12 0.4 0.12 0.65v0.39h-1.01v-0.4c0-0.17-0.05-0.28-0.13-0.35-0.1-0.08-0.2-0.12-0.32-0.12-0.13 0-0.24 0.04-0.33 0.12-0.08 0.07-0.13 0.18-0.13 0.36v3c0 0.18 0.05 0.3 0.13 0.37 0.1 0.07 0.2 0.11 0.33 0.11 0.12 0 0.23-0.04 0.32-0.11 0.08-0.07 0.13-0.19 0.13-0.36V5.08h-0.65V4.16h1.66v1.9c0 0.25-0.04 0.47-0.12 0.65-0.09 0.19-0.2 0.34-0.34 0.46-0.14 0.13-0.3 0.22-0.48 0.28-0.17 0.07-0.35 0.1-0.52 0.1-0.18 0-0.36-0.03-0.53-0.1C9.96 7.4 9.8 7.3 9.67 7.17 9.53 7.05 9.41 6.9 9.33 6.71 9.24 6.53 9.2 6.31 9.2 6.06V3.05c0-0.24 0.04-0.46 0.13-0.65 0.08-0.19 0.2-0.35 0.34-0.48 0.14-0.12 0.3-0.2 0.47-0.27Zm3.4 7c0.18-0.06 0.36-0.1 0.54-0.1 0.17 0 0.35 0.04 0.52 0.1 0.17 0.06 0.33 0.15 0.48 0.27 0.14 0.13 0.25 0.3 0.34 0.48 0.08 0.19 0.12 0.4 0.12 0.65v0.39h-1.01v-0.4c0-0.17-0.05-0.28-0.13-0.35-0.1-0.08-0.2-0.12-0.32-0.12-0.13 0-0.24 0.04-0.33 0.12-0.08 0.07-0.13 0.18-0.13 0.36v3c0 0.18 0.05 0.3 0.13 0.37 0.1 0.07 0.2 0.11 0.33 0.11 0.12 0 0.23-0.04 0.32-0.11 0.08-0.07 0.13-0.19 0.13-0.36v-0.98h-0.65v-0.92h1.66v1.9c0 0.25-0.04 0.47-0.13 0.65-0.08 0.19-0.2 0.34-0.33 0.46-0.14 0.13-0.3 0.22-0.48 0.28-0.17 0.07-0.35 0.1-0.52 0.1-0.18 0-0.36-0.03-0.53-0.1-0.18-0.06-0.33-0.15-0.47-0.28-0.14-0.12-0.26-0.27-0.34-0.46-0.09-0.18-0.13-0.4-0.13-0.65v-3.01c0-0.24 0.04-0.46 0.13-0.65 0.08-0.19 0.2-0.35 0.34-0.48 0.14-0.12 0.3-0.2 0.47-0.27ZM6.8 8.6h1.02v5.9H6.79V8.6Zm3.23 0H9.07v5.9h1.02v-3l1.09 3h0.94V8.6H11.1v3l-1.08-3Z" fill="#000000" fill-opacity="1.0" /><path d="M2.88 11.5L5.48 11.5" fill="#000000" fill-opacity="1.0" /></svg>