<?xml version="1.0" encoding="utf-8" ?>
<svg baseProfile="full" height="16.0" version="1.1" viewBox="0 0 16.0 16.0" width="16.0" xmlns="http://www.w3.org/2000/svg" xmlns:ev="http://www.w3.org/2001/xml-events" xmlns:xlink="http://www.w3.org/1999/xlink"><defs /><path d="M8 2C5.15 2 2.83 4.3 2.83 7.13c0 1.28 0.47 2.45 1.25 3.34 1.1 1.34 2.3 2.59 3.58 3.75l0.06 0.05c0.16 0.15 0.4 0.15 0.56 0l0.06-0.05c1.28-1.16 2.47-2.41 3.57-3.74 0.79-0.9 1.26-2.07 1.26-3.35C13.17 4.29 10.85 2 8 2ZM6.39 7.11c0-0.89 0.72-1.61 1.6-1.61 0.9 0 1.62 0.72 1.62 1.61C9.61 8 8.89 8.72 8 8.72 7.1 8.72 6.39 8 6.39 7.11Zm1.6-2.61c-1.43 0-2.6 1.17-2.6 2.61s1.17 2.61 2.6 2.61c1.45 0 2.62-1.17 2.62-2.61S9.44 4.5 8 4.5Z" fill="#000000" fill-opacity="1.0" /></svg>