<?xml version="1.0" encoding="utf-8" ?>
<svg baseProfile="full" height="24.0" version="1.1" viewBox="0 0 24.0 24.0" width="24.0" xmlns="http://www.w3.org/2000/svg" xmlns:ev="http://www.w3.org/2001/xml-events" xmlns:xlink="http://www.w3.org/1999/xlink"><defs /><path d="M6.81,4.3H6.84H17.16H17.189C17.836,4.3 18.364,4.3 18.793,4.335C19.237,4.371 19.635,4.448 20.007,4.638C20.59,4.935 21.065,5.409 21.362,5.993C21.551,6.364 21.628,6.763 21.665,7.207C21.698,7.61 21.7,8.102 21.7,8.698H20.3C20.3,8.09 20.297,7.66 20.269,7.321C20.24,6.964 20.187,6.77 20.115,6.628C19.951,6.308 19.691,6.048 19.372,5.885C19.23,5.813 19.036,5.76 18.679,5.73C18.314,5.701 17.843,5.7 17.16,5.7H6.84C6.156,5.7 5.686,5.701 5.32,5.73C4.964,5.76 4.77,5.813 4.628,5.885C4.308,6.048 4.048,6.308 3.885,6.628C3.813,6.77 3.759,6.964 3.73,7.321C3.702,7.66 3.7,8.09 3.7,8.698H2.3C2.3,8.102 2.302,7.61 2.335,7.207C2.371,6.763 2.448,6.364 2.638,5.993C2.935,5.409 3.409,4.935 3.992,4.638C4.364,4.448 4.763,4.371 5.206,4.335C5.635,4.3 6.163,4.3 6.81,4.3ZM20.3,9.998H21.7V14.005H20.3V9.998ZM3.7,15.304C3.7,15.911 3.703,16.34 3.73,16.679C3.759,17.036 3.813,17.23 3.885,17.372C4.048,17.692 4.308,17.952 4.628,18.115C4.77,18.187 4.964,18.24 5.32,18.27C5.686,18.299 6.156,18.3 6.84,18.3H17.16C17.843,18.3 18.314,18.299 18.679,18.27C19.036,18.24 19.23,18.187 19.372,18.115C19.691,17.952 19.951,17.692 20.115,17.372C20.187,17.23 20.24,17.036 20.269,16.679C20.297,16.34 20.3,15.911 20.3,15.304H21.7C21.7,15.899 21.698,16.39 21.665,16.793C21.628,17.237 21.551,17.635 21.362,18.007C21.065,18.591 20.59,19.065 20.007,19.362C19.635,19.552 19.237,19.629 18.793,19.665C18.364,19.7 17.836,19.7 17.189,19.7H17.16H6.84H6.81C6.163,19.7 5.635,19.7 5.206,19.665C4.763,19.629 4.364,19.552 3.992,19.362C3.409,19.065 2.935,18.591 2.638,18.007C2.448,17.635 2.371,17.237 2.335,16.793C2.302,16.39 2.3,15.899 2.3,15.304H3.7ZM3.7,14.005V9.998H2.3V14.005H3.7Z" fill="#ffffff" fill-opacity="1.0" /><path d="M5.7,8.5C5.7,8.22 5.7,8.08 5.755,7.973C5.803,7.879 5.879,7.802 5.973,7.755C6.08,7.7 6.22,7.7 6.5,7.7H17.5C17.78,7.7 17.92,7.7 18.027,7.755C18.121,7.802 18.198,7.879 18.246,7.973C18.3,8.08 18.3,8.22 18.3,8.5V15.5C18.3,15.78 18.3,15.92 18.246,16.027C18.198,16.121 18.121,16.198 18.027,16.246C17.92,16.3 17.78,16.3 17.5,16.3H6.5C6.22,16.3 6.08,16.3 5.973,16.246C5.879,16.198 5.803,16.121 5.755,16.027C5.7,15.92 5.7,15.78 5.7,15.5V8.5Z" fill="#ffffff" fill-opacity="1.0" /></svg>