<?xml version="1.0" encoding="utf-8" ?>
<svg baseProfile="full" height="24.0" version="1.1" viewBox="0 0 25.0 24.0" width="25.0" xmlns="http://www.w3.org/2000/svg" xmlns:ev="http://www.w3.org/2001/xml-events" xmlns:xlink="http://www.w3.org/1999/xlink"><defs /><path d="M21.632,12.122C20.731,11.476 19.626,11.095 18.433,11.095C15.395,11.095 12.933,13.558 12.933,16.595C12.933,16.833 12.948,17.066 12.977,17.295H8.469C8.31,17.295 8.158,17.358 8.046,17.47L4.426,21.069C4.225,21.268 3.925,21.327 3.664,21.218C3.403,21.11 3.232,20.855 3.232,20.572V5.395C3.232,4.291 4.128,3.395 5.232,3.395H19.632C20.737,3.395 21.632,4.291 21.632,5.395V12.122ZM7.233,8.095C7.233,7.709 7.546,7.395 7.933,7.395H14.933C15.319,7.395 15.633,7.709 15.633,8.095C15.633,8.482 15.319,8.795 14.933,8.795H7.933C7.546,8.795 7.233,8.482 7.233,8.095ZM7.933,10.395C7.546,10.395 7.233,10.709 7.233,11.095C7.233,11.482 7.546,11.795 7.933,11.795H11.933C12.319,11.795 12.633,11.482 12.633,11.095C12.633,10.709 12.319,10.395 11.933,10.395H7.933ZM15.824,15.895H21.041C20.733,14.743 19.682,13.895 18.433,13.895C17.184,13.895 16.133,14.743 15.824,15.895ZM21.041,17.295H15.824C16.133,18.447 17.184,19.295 18.433,19.295C19.682,19.295 20.733,18.447 21.041,17.295ZM14.133,16.595C14.133,14.22 16.058,12.295 18.433,12.295C20.807,12.295 22.733,14.22 22.733,16.595C22.733,18.969 20.807,20.895 18.433,20.895C16.058,20.895 14.133,18.969 14.133,16.595Z" fill="#2c2c2c" fill-opacity="1.0" /></svg>