<?xml version="1.0" encoding="utf-8" ?>
<svg baseProfile="full" height="24.0" version="1.1" viewBox="0 0 24.0 24.0" width="24.0" xmlns="http://www.w3.org/2000/svg" xmlns:ev="http://www.w3.org/2001/xml-events" xmlns:xlink="http://www.w3.org/1999/xlink"><defs /><path d="M13.939,3.181C14.208,3.208 14.462,3.328 14.655,3.521C14.877,3.743 15.001,4.043 15.001,4.357V15.984L11.211,12.439C10.955,12.199 10.552,12.212 10.312,12.469C10.072,12.726 10.085,13.128 10.342,13.369L15.203,17.916C15.388,18.089 15.658,18.136 15.891,18.035C16.124,17.934 16.274,17.705 16.274,17.451V4.357C16.274,3.942 16.169,3.538 15.974,3.181H19.002C20.006,3.181 20.82,3.995 20.82,4.999V19.002C20.82,20.007 20.006,20.821 19.002,20.821H10.055C9.792,20.79 9.545,20.672 9.356,20.482C9.134,20.261 9.01,19.96 9.01,19.646L9.01,19.646L9.001,8.006L12.785,11.55C13.042,11.79 13.445,11.776 13.685,11.52C13.925,11.263 13.912,10.86 13.656,10.62L8.798,6.073C8.613,5.9 8.342,5.853 8.11,5.954C7.877,6.055 7.726,6.284 7.727,6.538L7.737,19.646V19.647L7.737,19.647C7.737,20.061 7.841,20.464 8.036,20.821H4.999C3.995,20.821 3.18,20.007 3.18,19.002V4.999C3.18,3.995 3.995,3.181 4.999,3.181H13.939Z" fill="#ffffff" fill-opacity="1.0" /></svg>