<?xml version="1.0" encoding="utf-8" ?>
<svg baseProfile="full" height="16.0" version="1.1" viewBox="0 0 20.0 16.0" width="20.0" xmlns="http://www.w3.org/2000/svg" xmlns:ev="http://www.w3.org/2001/xml-events" xmlns:xlink="http://www.w3.org/1999/xlink"><defs /><path d="M9 15s6.32-2.1 6.32-6.32v-5.1c0-0.15-0.05-0.3-0.13-0.42-0.1-0.12-0.21-0.2-0.35-0.25L9.22 1.04c-0.14-0.05-0.3-0.05-0.44 0L3.16 2.9C3.02 2.95 2.9 3.04 2.82 3.16 2.73 3.28 2.68 3.43 2.68 3.57v5.11C2.68 12.9 9 15 9 15Z" fill="#00bd13" fill-opacity="1.0" /><path d="M6.76 6.66C6.76 6.3 6.85 6 7.03 5.72 7.2 5.45 7.48 5.24 7.82 5.1c0.35-0.15 0.75-0.22 1.22-0.22 0.56 0 1.02 0.1 1.4 0.32 0.37 0.21 0.62 0.53 0.76 0.94l-1 0.44c-0.11-0.22-0.26-0.4-0.45-0.5C9.56 5.94 9.32 5.9 9.02 5.9c-0.33 0-0.57 0.06-0.74 0.19C8.12 6.2 8.04 6.37 8.04 6.58c0 0.16 0.05 0.3 0.16 0.4 0.1 0.1 0.25 0.17 0.41 0.23l0.7 0.18c0.41 0.1 0.76 0.19 1.02 0.29 0.27 0.1 0.5 0.27 0.68 0.5 0.2 0.23 0.29 0.55 0.29 0.96 0 0.57-0.21 1.01-0.64 1.33-0.42 0.32-0.98 0.47-1.66 0.47-0.63 0-1.15-0.12-1.56-0.38-0.42-0.26-0.7-0.62-0.83-1.07l1.01-0.45c0.13 0.29 0.3 0.5 0.52 0.66 0.22 0.16 0.51 0.24 0.87 0.24 0.33 0 0.58-0.06 0.75-0.18 0.17-0.12 0.26-0.3 0.26-0.52 0-0.18-0.06-0.32-0.17-0.42C9.74 8.7 9.6 8.62 9.43 8.58c-0.17-0.06-0.41-0.13-0.71-0.2-0.43-0.1-0.76-0.2-1.02-0.3-0.26-0.1-0.48-0.26-0.66-0.49-0.2-0.23-0.28-0.54-0.28-0.93Z" fill="#ffffff" fill-opacity="1.0" /><path d="M8.4 3.8H9.6V5.8H8.4z" fill="#ffffff" fill-opacity="1.0" /><path d="M8.4 10H9.6V12H8.4z" fill="#ffffff" fill-opacity="1.0" /></svg>