<?xml version="1.0" encoding="utf-8" ?>
<svg baseProfile="full" height="16.0" version="1.1" viewBox="0 0 18.0 16.0" width="18.0" xmlns="http://www.w3.org/2000/svg" xmlns:ev="http://www.w3.org/2001/xml-events" xmlns:xlink="http://www.w3.org/1999/xlink"><defs /><path d="M5.37 2h5.9v0.1 8.77L8.84 9c-0.22-0.17-0.53-0.13-0.7 0.08C7.97 9.3 8 9.61 8.23 9.77l3.23 2.52c0.15 0.12 0.35 0.14 0.53 0.05 0.17-0.08 0.28-0.25 0.28-0.44V2.1 2h0.36c0.83 0 1.25 0 1.56 0.16 0.28 0.14 0.5 0.37 0.65 0.65C15 3.12 15 3.54 15 4.37v7.26c0 0.83 0 1.25-0.16 1.56-0.14 0.28-0.37 0.5-0.65 0.65C13.88 14 13.46 14 12.63 14h-5.9v-0.1-8.77L9.16 7c0.22 0.17 0.53 0.13 0.7-0.08 0.17-0.22 0.13-0.54-0.09-0.7L6.54 3.7C6.4 3.59 6.2 3.57 6.01 3.66 5.84 3.74 5.73 3.9 5.73 4.1v9.8 0.1H5.38c-0.83 0-1.25 0-1.56-0.16-0.28-0.14-0.5-0.37-0.65-0.65C3 12.88 3 12.46 3 11.63V4.37C3 3.54 3 3.12 3.16 2.8 3.3 2.53 3.53 2.3 3.81 2.16 4.12 2 4.54 2 5.37 2Z" fill="#000000" fill-opacity="1.0" /></svg>