<?xml version="1.0" encoding="utf-8" ?>
<svg baseProfile="full" height="16.0" version="1.1" viewBox="0 0 18.0 16.0" width="18.0" xmlns="http://www.w3.org/2000/svg" xmlns:ev="http://www.w3.org/2001/xml-events" xmlns:xlink="http://www.w3.org/1999/xlink"><defs /><path d="M5.8 3.1c0-0.61 0.5-1.12 1.12-1.12h4.16c0.62 0 1.13 0.5 1.13 1.13v9.78c0 0.63-0.5 1.13-1.13 1.13H6.92c-0.62 0-1.13-0.5-1.13-1.13V3.11ZM8.2 12c-0.22 0-0.4 0.18-0.4 0.4 0 0.22 0.18 0.4 0.4 0.4h1.6c0.22 0 0.4-0.18 0.4-0.4 0-0.22-0.18-0.4-0.4-0.4H8.2Z" fill="#000000" fill-opacity="1.0" /><path d="M3.38 5.3L4.5 6.65 3.37 8 4.5 9.35 3.37 10.7" fill="#000000" fill-opacity="1.0" /><path d="M14.63 10.7L13.5 9.35 14.63 8 13.5 6.65l1.13-1.35" fill="#000000" fill-opacity="1.0" /></svg>