<?xml version="1.0" encoding="utf-8" ?>
<svg baseProfile="full" height="24.0" version="1.1" viewBox="0 0 24.0 24.0" width="24.0" xmlns="http://www.w3.org/2000/svg" xmlns:ev="http://www.w3.org/2001/xml-events" xmlns:xlink="http://www.w3.org/1999/xlink"><defs /><path d="M7.087,1.3L7.1,1.3H16.3L16.313,1.3C16.371,1.3 16.45,1.3 16.521,1.306C16.606,1.312 16.739,1.331 16.881,1.403C17.06,1.494 17.205,1.64 17.296,1.819C17.369,1.96 17.387,2.094 17.394,2.179C17.4,2.25 17.4,2.329 17.4,2.387V2.4V3.3H6V2.4V2.387C6,2.329 6,2.25 6.006,2.179C6.013,2.094 6.031,1.96 6.104,1.819C6.195,1.64 6.34,1.494 6.519,1.403C6.661,1.331 6.794,1.312 6.879,1.306C6.95,1.3 7.029,1.3 7.087,1.3ZM6,4.7C6.001,4.951 6.008,5.175 6.061,5.392C6.114,5.617 6.203,5.831 6.323,6.027C6.46,6.251 6.645,6.437 6.862,6.654L6.905,6.697L8.097,7.893C8.345,8.141 8.385,8.188 8.412,8.232C8.445,8.285 8.469,8.344 8.483,8.405C8.496,8.455 8.5,8.516 8.5,8.867V20.949C8.5,21.705 8.927,22.396 9.603,22.734C10.923,23.394 12.477,23.394 13.797,22.734C14.473,22.396 14.9,21.705 14.9,20.949V8.867C14.9,8.516 14.905,8.455 14.917,8.405C14.931,8.344 14.955,8.285 14.988,8.232C15.015,8.188 15.055,8.141 15.303,7.893L16.495,6.697L16.538,6.654C16.755,6.437 16.94,6.251 17.077,6.027C17.197,5.831 17.286,5.617 17.34,5.392C17.392,5.175 17.399,4.951 17.4,4.7H6ZM10.3,11.5C10.3,10.727 10.926,10.1 11.7,10.1C12.473,10.1 13.099,10.727 13.099,11.5V14.2C13.099,14.973 12.473,15.6 11.7,15.6C10.926,15.6 10.3,14.973 10.3,14.2V11.5ZM12.4,11.477C12.4,11.09 12.087,10.777 11.7,10.777C11.314,10.777 11,11.09 11,11.477V12.477C11,12.863 11.314,13.177 11.7,13.177C12.087,13.177 12.4,12.863 12.4,12.477V11.477Z" fill="#ffffff" fill-opacity="1.0" /></svg>