<?xml version="1.0" encoding="utf-8" ?>
<svg baseProfile="full" height="36.0" version="1.1" viewBox="0 0 36.0 36.0" width="36.0" xmlns="http://www.w3.org/2000/svg" xmlns:ev="http://www.w3.org/2001/xml-events" xmlns:xlink="http://www.w3.org/1999/xlink"><defs /><path d="M16.388,24.666L16.388,26.727H17.988L17.988,24.666C17.726,24.696 17.459,24.712 17.188,24.712C16.918,24.712 16.651,24.696 16.388,24.666ZM12.941,23.237C12.521,22.906 12.141,22.526 11.809,22.106L10.352,23.564L11.483,24.695L12.941,23.237ZM10.38,18.658C10.35,18.396 10.334,18.128 10.334,17.858C10.334,17.587 10.35,17.32 10.38,17.058L8.32,17.058V18.658L10.38,18.658ZM11.809,13.61C12.141,13.19 12.521,12.81 12.94,12.478L11.483,11.021L10.352,12.153L11.809,13.61ZM16.388,11.05C16.651,11.019 16.918,11.004 17.188,11.004C17.459,11.004 17.726,11.019 17.988,11.05L17.988,8.989H16.388L16.388,11.05ZM21.437,12.479C21.856,12.811 22.236,13.191 22.568,13.61L24.025,12.153L22.894,11.021L21.437,12.479ZM23.996,17.058C24.027,17.32 24.042,17.587 24.042,17.858C24.042,18.128 24.027,18.396 23.996,18.658L26.057,18.658V17.058L23.996,17.058ZM23.926,20.41H23.372L23.209,20.939L21.477,26.57L22.91,27.011L23.379,25.487H25.778L26.247,27.011L27.68,26.57L25.948,20.939L25.786,20.41H25.232H23.926ZM25.316,23.987L24.678,21.91H24.479L23.841,23.987H25.316ZM11.545,17.859C11.545,20.976 14.072,23.503 17.189,23.503C20.306,23.503 22.832,20.976 22.832,17.859C22.832,14.742 20.306,12.215 17.189,12.215C14.072,12.215 11.545,14.742 11.545,17.859Z" fill="#ffffff" fill-opacity="1.0" /></svg>