<?xml version="1.0" encoding="utf-8" ?>
<svg baseProfile="full" height="24.0" version="1.1" viewBox="0 0 24.0 24.0" width="24.0" xmlns="http://www.w3.org/2000/svg" xmlns:ev="http://www.w3.org/2001/xml-events" xmlns:xlink="http://www.w3.org/1999/xlink"><defs /><path d="M19.946,4.702C21.808,6.69 22.84,9.26 22.84,12.002C22.84,17.901 18.04,22.702 12.14,22.702C6.24,22.702 1.439,17.901 1.439,12.002C1.439,11.615 1.753,11.301 2.14,11.301C2.526,11.301 2.84,11.615 2.84,12.002C2.84,17.129 7.012,21.301 12.14,21.301C17.268,21.301 21.44,17.129 21.44,12.002C21.44,9.576 20.513,7.306 18.84,5.566V8.001C18.84,8.388 18.526,8.702 18.14,8.702C17.753,8.702 17.439,8.388 17.439,8.001V4.001C17.439,3.615 17.753,3.301 18.14,3.301H22.14C22.526,3.301 22.84,3.615 22.84,4.001C22.84,4.388 22.526,4.702 22.14,4.702H19.946ZM2.252,9.844C2.366,9.89 2.479,9.912 2.6,9.912C2.832,9.912 3.056,9.816 3.23,9.642C3.404,9.468 3.5,9.245 3.5,9.011C3.5,8.775 3.401,8.542 3.23,8.371C3.069,8.209 2.835,8.116 2.591,8.116C2.345,8.116 2.114,8.21 1.954,8.376C1.885,8.455 1.814,8.545 1.767,8.664C1.721,8.777 1.699,8.891 1.699,9.011C1.699,9.251 1.792,9.475 1.959,9.642C2.056,9.74 2.147,9.802 2.252,9.844ZM4.02,7.071C4.304,7.071 4.57,6.937 4.749,6.702L4.862,6.541H4.833C4.905,6.381 4.929,6.205 4.901,6.028C4.862,5.791 4.734,5.582 4.538,5.44C4.383,5.328 4.2,5.269 4.01,5.269C3.721,5.269 3.451,5.409 3.289,5.643C3.147,5.838 3.09,6.077 3.128,6.315C3.167,6.552 3.295,6.761 3.491,6.903C3.648,7.015 3.826,7.071 4.02,7.071ZM6.25,4.821C6.444,4.821 6.633,4.757 6.778,4.643C6.972,4.502 7.099,4.295 7.135,4.06C7.172,3.822 7.113,3.585 6.971,3.393C6.801,3.158 6.529,3.019 6.242,3.019C6.052,3.019 5.872,3.078 5.721,3.19C5.525,3.332 5.396,3.541 5.358,3.778C5.32,4.016 5.377,4.254 5.52,4.452C5.699,4.687 5.964,4.821 6.25,4.821ZM8.729,3.313C8.827,3.356 8.951,3.381 9.069,3.381C9.315,3.381 9.542,3.289 9.71,3.122C9.875,2.957 9.97,2.724 9.97,2.481C9.97,2.239 9.875,2.006 9.71,1.84C9.548,1.679 9.325,1.59 9.08,1.59C8.837,1.59 8.604,1.681 8.438,1.841C8.339,1.94 8.285,2.048 8.25,2.127C8.197,2.232 8.169,2.355 8.169,2.481C8.169,2.709 8.264,2.936 8.439,3.122C8.521,3.204 8.623,3.27 8.729,3.313ZM9.973,6.301H13.306C14.152,6.301 14.84,6.989 14.84,7.835V16.168C14.84,17.014 14.152,17.702 13.306,17.702H9.973C9.127,17.702 8.439,17.014 8.439,16.168V7.835C8.439,6.989 9.127,6.301 9.973,6.301ZM11.162,8.405C11.385,8.668 11.779,8.702 12.043,8.479C12.307,8.256 12.34,7.862 12.117,7.598C11.894,7.334 11.5,7.301 11.236,7.524C10.973,7.747 10.939,8.141 11.162,8.405Z" fill="#2c2c2c" fill-opacity="1.0" /></svg>