<?xml version="1.0" encoding="utf-8" ?>
<svg baseProfile="full" height="16.0" version="1.1" viewBox="0 0 21.0 16.0" width="21.0" xmlns="http://www.w3.org/2000/svg" xmlns:ev="http://www.w3.org/2001/xml-events" xmlns:xlink="http://www.w3.org/1999/xlink"><defs /><path d="M7.12 4.37c0-0.83 0-1.25 0.16-1.56 0.14-0.28 0.37-0.5 0.65-0.65C8.25 2 8.66 2 9.49 2h1.66c0.83 0 1.25 0 1.56 0.16 0.28 0.14 0.5 0.37 0.65 0.65 0.16 0.31 0.16 0.73 0.16 1.56v7.26c0 0.83 0 1.25-0.16 1.56-0.14 0.28-0.37 0.5-0.65 0.65C12.4 14 11.98 14 11.15 14H9.5c-0.83 0-1.24 0-1.56-0.16-0.28-0.14-0.5-0.37-0.65-0.65-0.16-0.31-0.16-0.73-0.16-1.56V4.37Zm1.22 4.36c-0.02 0.04 0.01 0.1 0.06 0.1h1.92v2.7c0 0.08 0.1 0.1 0.13 0.03l1.85-4.48c0.02-0.04-0.01-0.1-0.06-0.1h-1.92V4.47c0-0.07-0.1-0.1-0.13-0.02L8.34 8.73ZM4.78 4.58C4.97 4.7 5.02 4.95 4.9 5.13c-0.62 0.92-0.97 2-0.97 3.17s0.36 2.27 0.98 3.19c0.12 0.18 0.07 0.43-0.1 0.55-0.2 0.13-0.44 0.08-0.56-0.1-0.71-1.05-1.12-2.3-1.12-3.64 0-1.33 0.4-2.57 1.1-3.62 0.13-0.18 0.38-0.23 0.56-0.1ZM6.25 5.8c0.18 0.12 0.23 0.37 0.11 0.55C6 6.94 5.77 7.6 5.77 8.3c0 0.72 0.22 1.38 0.61 1.96 0.12 0.18 0.08 0.43-0.1 0.56-0.2 0.12-0.44 0.07-0.56-0.11C5.25 10 4.97 9.18 4.97 8.3c0-0.87 0.27-1.68 0.72-2.38 0.13-0.18 0.37-0.23 0.56-0.1Zm8.7 0.12c-0.12-0.19-0.37-0.24-0.55-0.12-0.19 0.12-0.24 0.37-0.12 0.56 0.38 0.57 0.59 1.22 0.59 1.92 0 0.72-0.22 1.38-0.6 1.96-0.13 0.18-0.08 0.43 0.1 0.55 0.19 0.13 0.43 0.08 0.56-0.1 0.47-0.7 0.74-1.53 0.74-2.4 0-0.87-0.26-1.68-0.72-2.37Zm0.91-1.35c0.18-0.13 0.43-0.08 0.56 0.1 0.7 1.05 1.1 2.3 1.1 3.62 0 1.34-0.4 2.59-1.11 3.63-0.13 0.19-0.37 0.24-0.56 0.11-0.18-0.12-0.23-0.37-0.1-0.55 0.62-0.92 0.98-2.02 0.98-3.19 0-1.16-0.36-2.25-0.98-3.17-0.12-0.18-0.07-0.43 0.11-0.55Z" fill="#000000" fill-opacity="1.0" /></svg>