<?xml version="1.0" encoding="utf-8" ?>
<svg baseProfile="full" height="24.0" version="1.1" viewBox="0 0 24.0 24.0" width="24.0" xmlns="http://www.w3.org/2000/svg" xmlns:ev="http://www.w3.org/2001/xml-events" xmlns:xlink="http://www.w3.org/1999/xlink"><defs /><path d="M 14 6.667 C 13.381 6.667 12.788 6.913 12.35 7.35 C 11.913 7.788 11.667 8.381 11.667 9 C 11.667 9.619 11.913 10.213 12.35 10.65 C 12.788 11.087 13.381 11.333 14 11.333 C 14.619 11.333 15.213 11.087 15.65 10.65 C 16.087 10.213 16.333 9.619 16.333 9 C 16.333 8.381 16.087 7.788 15.65 7.35 C 15.213 6.913 14.619 6.667 14 6.667 Z" fill="#000000" fill-opacity="1.0" /><path d="M 6 9.555 C 6 7.415 6.841 5.463 8.226 3.993 L 7.062 2.896 C 5.412 4.646 4.4 6.985 4.4 9.555 C 4.4 12.126 5.412 14.465 7.062 16.215 L 8.226 15.118 C 6.841 13.648 6 11.696 6 9.555 Z M 9.361 9.499 C 9.361 6.942 11.456 4.856 14.057 4.856 C 16.628 4.856 18.455 6.765 18.455 9.352 L 20.055 9.352 C 20.055 5.927 17.556 3.256 14.057 3.256 C 10.587 3.256 7.761 6.044 7.761 9.499 C 7.761 11.98 9.293 13.776 10.865 15.111 C 11.287 15.469 11.789 16.151 12.215 16.811 C 12.42 17.128 12.594 17.42 12.717 17.633 C 12.778 17.739 12.826 17.824 12.859 17.883 C 12.875 17.912 12.888 17.935 12.896 17.949 L 12.903 17.964 L 12.904 17.965 L 12.918 17.992 C 12.93 18.014 12.946 18.044 12.967 18.082 C 13.009 18.157 13.07 18.262 13.148 18.385 C 13.303 18.631 13.533 18.962 13.829 19.297 C 14.392 19.934 15.337 20.744 16.582 20.744 C 17.713 20.744 18.588 20.271 19.172 19.644 C 19.734 19.041 20.055 18.264 20.055 17.591 L 18.455 17.591 C 18.455 17.8 18.331 18.2 18.002 18.553 C 17.695 18.883 17.233 19.145 16.582 19.145 C 16.045 19.145 15.504 18.778 15.028 18.238 C 14.804 17.984 14.625 17.727 14.501 17.532 C 14.44 17.435 14.394 17.355 14.364 17.301 C 14.349 17.275 14.338 17.255 14.332 17.242 L 14.325 17.23 L 14.325 17.23 L 14.325 17.23 L 14.325 17.229 L 14.325 17.229 L 14.325 17.228 L 14.324 17.228 L 14.32 17.221 L 14.316 17.211 L 13.611 17.591 C 14.316 17.211 14.316 17.211 14.315 17.211 L 14.315 17.211 L 14.315 17.21 L 14.314 17.209 L 14.311 17.203 L 14.299 17.182 C 14.29 17.164 14.275 17.138 14.257 17.105 C 14.221 17.04 14.168 16.946 14.102 16.831 C 13.969 16.603 13.781 16.288 13.559 15.943 C 13.131 15.279 12.519 14.416 11.901 13.891 C 10.432 12.644 9.361 11.256 9.361 9.499 Z" fill="#000000" fill-opacity="1.0" /></svg>