<?xml version="1.0" encoding="utf-8" ?>
<svg baseProfile="full" height="24.0" version="1.1" viewBox="0 0 24.0 24.0" width="24.0" xmlns="http://www.w3.org/2000/svg" xmlns:ev="http://www.w3.org/2001/xml-events" xmlns:xlink="http://www.w3.org/1999/xlink"><defs /><path d="M2.495,2.125C2.221,1.852 1.778,1.852 1.505,2.125C1.231,2.398 1.231,2.841 1.505,3.115L21.505,23.115C21.778,23.388 22.221,23.388 22.495,23.115C22.768,22.841 22.768,22.398 22.495,22.125L19.217,18.847H20.394C20.784,18.847 21.094,18.537 21.094,18.147C21.094,17.917 21.064,17.707 21.004,17.517C20.839,16.954 20.457,16.532 20.087,16.124L20.054,16.087L20.048,16.08C19.269,15.231 18.294,14.169 18.294,11.147V9.687V9.667C18.294,6.327 16.714,4.267 13.854,3.657C13.524,3.577 13.184,3.527 12.814,3.497C12.864,3.387 12.894,3.267 12.894,3.137C12.894,2.767 12.664,2.447 12.344,2.307C12.234,2.257 12.114,2.237 11.994,2.237C11.874,2.237 11.754,2.267 11.644,2.307C11.324,2.447 11.094,2.767 11.094,3.137C11.094,3.267 11.124,3.387 11.174,3.497C10.804,3.527 10.464,3.587 10.134,3.657C9.824,3.727 9.244,3.917 9.244,3.917C8.036,4.353 7.117,5.101 6.518,6.148L2.495,2.125ZM15.401,18.847L5.716,9.162C5.709,9.305 5.705,9.45 5.704,9.597V9.687V11.147C5.704,14.177 4.734,15.237 3.944,16.087L3.925,16.108C3.421,16.661 2.904,17.229 2.904,18.147C2.904,18.537 3.214,18.847 3.604,18.847H15.401ZM9.254,19.847C9.394,20.217 9.614,20.567 9.914,20.857C10.464,21.417 11.204,21.727 11.994,21.727C12.784,21.727 13.524,21.417 14.074,20.857C14.374,20.567 14.584,20.217 14.734,19.847H9.254Z" fill="#ffffff" fill-opacity="1.0" /></svg>