<?xml version="1.0" encoding="utf-8" ?>
<svg baseProfile="full" height="24.0" version="1.1" viewBox="0 0 24.0 24.0" width="24.0" xmlns="http://www.w3.org/2000/svg" xmlns:ev="http://www.w3.org/2001/xml-events" xmlns:xlink="http://www.w3.org/1999/xlink"><defs /><path d="M10.264,6.159H5.183C5.067,6.159 4.953,6.204 4.887,6.3C4.807,6.418 4.727,6.582 4.727,6.748V7.447C4.727,7.508 4.776,7.557 4.837,7.557H10.264V9.338H6.808C6.671,9.338 6.541,9.401 6.469,9.518C6.357,9.701 6.235,9.951 6.235,10.147V10.654C6.235,10.715 6.284,10.764 6.345,10.764H13.567C13.54,11.157 13.42,11.949 13.142,12.806C12.988,13.281 12.837,13.66 12.738,13.909C12.689,14.031 12.653,14.121 12.635,14.176C11.868,13.857 10.188,13.165 9.606,12.957C8.88,12.696 7.784,12.532 6.427,12.532C5.07,12.532 2,13.45 2,16.451C2,19.453 5.043,20.577 6.742,20.577C8.441,20.577 10.031,20.015 11.196,19.412C12.128,18.929 13.22,17.977 13.649,17.562C14.609,18.219 16.824,19.647 18.008,20.097C19.488,20.659 20.899,20.59 21.434,19.837C21.907,19.169 21.961,18.277 21.987,17.862C21.99,17.808 21.993,17.762 21.996,17.726C22.023,17.411 21.927,16.917 21.27,16.931C20.612,16.945 19.118,16.835 18.008,16.493C17.12,16.218 15.902,15.675 15.404,15.437C15.774,14.825 16.58,13.299 16.843,12.093C17.069,11.054 17.129,10.069 17.133,9.55C17.134,9.432 17.037,9.338 16.918,9.338H13.142V7.557H18.433C18.487,7.465 18.611,7.178 18.666,6.762C18.699,6.507 18.7,6.348 18.691,6.257C18.684,6.193 18.628,6.159 18.563,6.159H13.142V3.719C13.142,3.598 13.044,3.5 12.923,3.5H11.58C10.853,3.5 10.264,4.089 10.264,4.816V6.159ZM11.374,16.115C10.673,15.623 8.847,14.544 7.129,14.421C4.982,14.268 3.379,14.829 3.234,16.465C3.101,17.953 5.021,18.781 6.359,18.698C7.698,18.614 8.977,18.053 9.59,17.677C10.203,17.3 10.74,16.826 11.374,16.115Z" fill="#2c2c2c" fill-opacity="1.0" /></svg>