<?xml version="1.0" encoding="utf-8" ?>
<svg baseProfile="full" height="40.0" version="1.1" viewBox="0 0 122.0 40.0" width="122.0" xmlns="http://www.w3.org/2000/svg" xmlns:ev="http://www.w3.org/2001/xml-events" xmlns:xlink="http://www.w3.org/1999/xlink"><defs /><path d="M102,0H20C8.95,0 0,8.95 0,20C0,31.05 8.95,40 20,40H102C113.05,40 122,31.05 122,20C122,8.95 113.05,0 102,0Z" fill="#ffffff" fill-opacity="1.0" /><path d="M35.5,7H22.5C18.91,7 16,9.91 16,13.5V26.5C16,30.09 18.91,33 22.5,33H35.5C39.09,33 42,30.09 42,26.5V13.5C42,9.91 39.09,7 35.5,7Z" fill="#f7ed62" fill-opacity="1.0" /><path d="M27.48,21.8C27.48,21.41 27.8,21.08 28.2,21.08H29.65C30.05,21.08 30.37,21.41 30.37,21.8V27.73C30.37,28.13 30.05,28.45 29.65,28.45H28.2C27.8,28.45 27.48,28.13 27.48,27.73V21.8Z" fill="#593525" fill-opacity="1.0" /><path d="M29.79,21.26C29.79,18.61 27.64,16.46 24.99,16.46C22.34,16.46 20.19,18.61 20.19,21.26C20.19,23.92 22.34,26.07 24.99,26.07C27.64,26.07 29.79,23.92 29.79,21.26Z" fill="#000000" fill-opacity="1.0" /><path d="M33.73,16.28C33.73,13.63 31.58,11.48 28.92,11.48C26.27,11.48 24.12,13.63 24.12,16.28C24.12,18.93 26.27,21.08 28.92,21.08C31.58,21.08 33.73,18.93 33.73,16.28Z" fill="#000000" fill-opacity="1.0" /><path d="M37.66,21.26C37.66,18.61 35.51,16.46 32.86,16.46C30.21,16.46 28.06,18.61 28.06,21.26C28.06,23.92 30.21,26.07 32.86,26.07C35.51,26.07 37.66,23.92 37.66,21.26Z" fill="#000000" fill-opacity="1.0" /><path d="M52.46,16.77V18.42H51.2V15.56H53.26C53.17,15.33 53.04,15.05 52.87,14.71C52.6,14.19 52.41,13.84 52.3,13.67L53.46,13.2C53.67,13.57 53.87,13.94 54.05,14.3C54.24,14.71 54.42,15.1 54.59,15.49L54.41,15.56H56.65C56.57,15.33 56.47,15.04 56.33,14.68C56.14,14.26 55.95,13.86 55.77,13.48L56.94,13.06C57.11,13.39 57.28,13.78 57.46,14.21C57.67,14.68 57.82,15.08 57.92,15.4L57.45,15.56H59.07C59.26,15.32 59.51,14.97 59.81,14.5C60.13,14 60.4,13.53 60.61,13.1L61.8,13.7C61.66,13.98 61.42,14.38 61.09,14.89C60.78,15.34 60.63,15.56 60.63,15.56H62.8V18.42H61.54V16.77H52.46ZM63.13,21.3V22.56H57.87V24.38C57.87,24.79 57.83,25.09 57.74,25.31C57.66,25.53 57.5,25.7 57.27,25.81C57.04,25.92 56.71,26 56.26,26.04C55.69,26.1 55.08,26.13 54.44,26.11L54.19,24.76C54.61,24.79 55.02,24.8 55.42,24.8C55.79,24.8 56.05,24.79 56.19,24.76C56.33,24.73 56.42,24.67 56.45,24.58C56.5,24.49 56.52,24.31 56.52,24.05V22.56H50.87V21.3H56.52V20.59C57.41,20.17 58.2,19.73 58.9,19.27H53.11V18.1H60.91V19.27C59.9,20 58.88,20.62 57.87,21.14V21.3H63.13ZM76.25,14C76.22,16.59 76.18,18.57 76.12,19.93C76.08,21.16 76.01,22.27 75.93,23.26C75.87,23.92 75.76,24.42 75.59,24.76C75.42,25.11 75.17,25.36 74.84,25.5C74.51,25.65 74.04,25.76 73.44,25.81C72.69,25.88 71.93,25.9 71.15,25.88L70.86,24.41C71.34,24.44 71.87,24.45 72.46,24.45H73.02C73.49,24.44 73.82,24.39 74.01,24.33C74.21,24.26 74.34,24.12 74.42,23.91C74.5,23.69 74.56,23.32 74.6,22.79C74.66,21.74 74.71,20.75 74.75,19.81C74.8,18.84 74.83,17.33 74.85,15.28H65.4V14H76.25ZM67.33,15.89C68.04,16.26 68.8,16.72 69.6,17.27C70.22,17.69 70.85,18.15 71.49,18.66L70.65,19.75C70.25,19.41 69.64,18.95 68.83,18.36C67.91,17.72 67.17,17.24 66.59,16.91L67.33,15.89ZM64.99,22.7C66.39,22.27 67.91,21.7 69.56,21.01C71.16,20.31 72.55,19.63 73.72,18.98L74.23,20.25C72.95,20.97 71.43,21.71 69.67,22.47C68.08,23.14 66.72,23.66 65.57,24.02L64.99,22.7ZM80.58,15.84V17.55H79.27V14.63H84.44L84.34,14.32C84.24,13.99 84.13,13.68 84.01,13.38L85.32,13.13C85.42,13.36 85.54,13.67 85.66,14.07L85.84,14.63H90.73V17.57H89.38V15.84H80.58ZM86.4,16.6C87.14,16.92 87.95,17.32 88.85,17.82C89.92,18.41 90.73,18.89 91.26,19.27L90.59,20.42C90.12,20.07 89.32,19.57 88.19,18.92C87.22,18.38 86.41,17.98 85.77,17.72L86.4,16.6ZM84.19,17.72C83.56,18.18 82.8,18.67 81.89,19.2C81,19.73 80.15,20.18 79.36,20.55L78.71,19.36C79.48,19.04 80.29,18.64 81.14,18.15C81.98,17.66 82.76,17.15 83.46,16.61L84.19,17.72ZM89.49,21.56H85.67V24.45H90.89V25.67H79.11V24.45H84.33V21.56H80.51V20.34H89.49V21.56ZM95.71,14.16C96.28,14.74 96.62,15.11 96.73,15.26L95.79,16.22C95.47,15.82 95.12,15.43 94.76,15.05C94.31,14.55 93.94,14.18 93.65,13.93L94.55,13.07C94.78,13.26 95.17,13.62 95.71,14.16ZM97.07,13.97H104.63V24.3C104.63,24.72 104.58,25.05 104.5,25.29C104.42,25.54 104.27,25.71 104.07,25.83C103.87,25.95 103.59,26.03 103.21,26.06C102.72,26.12 102.05,26.15 101.21,26.15L100.97,24.79C101.55,24.81 102.03,24.82 102.4,24.82C102.7,24.82 102.9,24.8 103.02,24.78C103.14,24.75 103.22,24.69 103.25,24.59C103.3,24.49 103.32,24.32 103.32,24.08V15.2H97.07V13.97ZM94.67,26.15H93.4V15.73H94.67V26.15ZM96.19,16.77H101.8V23.95H96.19V16.77ZM100.54,19.72V17.97H97.46V19.72H100.54ZM97.46,20.91V22.7H100.54V20.91H97.46Z" fill="#000000" fill-opacity="1.0" /></svg>