<?xml version="1.0" encoding="utf-8" ?>
<svg baseProfile="full" height="2000.0" version="1.1" viewBox="0 0 2800.0 2000.0" width="2800.0" xmlns="http://www.w3.org/2000/svg" xmlns:ev="http://www.w3.org/2001/xml-events" xmlns:xlink="http://www.w3.org/1999/xlink"><defs /><path d="M0,0h2800v2000h-2800z" fill="#f7f8fc" fill-opacity="1.0" /><path d="M0,0h2800v2000h-2800z" fill="#000000" fill-opacity="1.0" /><path d="M107,1937.6m-338.3,0a338.3,338.3 0,1 1,676.6 0a338.3,338.3 0,1 1,-676.6 0" fill="#000000" fill-opacity="1.0" /><path d="M250.8,1821a52.8,41.4 51.1,1 0,66.3 82.2a52.8,41.4 51.1,1 0,-66.3 -82.2z" fill="#000000" fill-opacity="1.0" /><path d="M75.2,1712.4a52.6,67.2 105,1 0,129.7 34.8a52.6,67.2 105,1 0,-129.7 -34.8z" fill="#000000" fill-opacity="1.0" /><path d="M2850,27.2m156.7,584.7a605.3,605.3 120,1 1,-313.3 -1169.4a605.3,605.3 120,1 1,313.3 1169.4" fill="#000000" fill-opacity="1.0" /><path d="M2409.3,30.7a130.3,99.6 67.7,1 0,98.7 241.1a130.3,99.6 67.7,1 0,-98.7 -241.1z" fill="#000000" fill-opacity="1.0" /></svg>