<?xml version="1.0" encoding="utf-8" ?>
<svg baseProfile="full" height="12.0" version="1.1" viewBox="0 0 12.0 12.0" width="12.0" xmlns="http://www.w3.org/2000/svg" xmlns:ev="http://www.w3.org/2001/xml-events" xmlns:xlink="http://www.w3.org/1999/xlink"><defs /><path d="M1.72,6.32L2.44,6.32A0.72,0.72 0,0 1,3.16 7.04L3.16,9.92A0.72,0.72 0,0 1,2.44 10.64L1.72,10.64A0.72,0.72 0,0 1,1 9.92L1,7.04A0.72,0.72 0,0 1,1.72 6.32z" fill="#000000" fill-opacity="1.0" /><path d="M5.32,2L6.04,2A0.72,0.72 0,0 1,6.76 2.72L6.76,9.92A0.72,0.72 0,0 1,6.04 10.64L5.32,10.64A0.72,0.72 0,0 1,4.6 9.92L4.6,2.72A0.72,0.72 0,0 1,5.32 2z" fill="#000000" fill-opacity="1.0" /><path d="M8.92,4.16L9.64,4.16A0.72,0.72 0,0 1,10.36 4.88L10.36,9.92A0.72,0.72 0,0 1,9.64 10.64L8.92,10.64A0.72,0.72 0,0 1,8.2 9.92L8.2,4.88A0.72,0.72 0,0 1,8.92 4.16z" fill="#000000" fill-opacity="1.0" /></svg>