<?xml version="1.0" encoding="utf-8" ?>
<svg baseProfile="full" height="12.0" version="1.1" viewBox="0 0 36.0 33.0" width="12.0" xmlns="http://www.w3.org/2000/svg" xmlns:ev="http://www.w3.org/2001/xml-events" xmlns:xlink="http://www.w3.org/1999/xlink"><defs /><path d="M-3,-5h42v42h-42z" fill="#d8d8d8" fill-opacity="1.0" /><path d="M35,30C35.5523,30 36,30.4477 36,31L36,32C36,32.5523 35.5523,33 35,33L1,33C0.4477,33 0,32.5523 0,32L0,31C0,30.4477 0.4477,30 1,30L35,30ZM35,15C35.5523,15 36,15.4477 36,16L36,17C36,17.5523 35.5523,18 35,18L1,18C0.4477,18 0,17.5523 0,17L0,16C0,15.4477 0.4477,15 1,15L35,15ZM35,0C35.5523,0 36,0.4477 36,1L36,2C36,2.5523 35.5523,3 35,3L1,3C0.4477,3 0,2.5523 0,2L0,1C0,0.4477 0.4477,0 1,0L35,0Z" fill="#ffffff" fill-opacity="1.0" /></svg>