<?xml version="1.0" encoding="utf-8" ?>
<svg baseProfile="full" height="24.0" version="1.1" viewBox="0 0 24.0 24.0" width="24.0" xmlns="http://www.w3.org/2000/svg" xmlns:ev="http://www.w3.org/2001/xml-events" xmlns:xlink="http://www.w3.org/1999/xlink"><defs /><path d="M3.869,3.869C2.837,3.869 2,4.706 2,5.738V18.262C2,19.294 2.837,20.131 3.869,20.131H20.131C21.163,20.131 22,19.294 22,18.262V5.738C22,4.706 21.163,3.869 20.131,3.869H3.869ZM7.327,15.271C7.327,15.013 7.536,14.804 7.794,14.804H16.205C16.463,14.804 16.672,15.013 16.672,15.271V16.206C16.672,16.464 16.463,16.673 16.205,16.673H7.794C7.536,16.673 7.327,16.464 7.327,16.206V15.271ZM4.757,7.327C4.498,7.327 4.289,7.536 4.289,7.794V8.729C4.289,8.987 4.498,9.196 4.757,9.196H6.626C6.884,9.196 7.093,8.987 7.093,8.729V7.794C7.093,7.536 6.884,7.327 6.626,7.327H4.757ZM4.289,11.533C4.289,11.275 4.498,11.065 4.757,11.065H6.626C6.884,11.065 7.093,11.275 7.093,11.533V12.467C7.093,12.725 6.884,12.934 6.626,12.934H4.757C4.498,12.934 4.289,12.725 4.289,12.467V11.533ZM8.962,7.327C8.704,7.327 8.495,7.536 8.495,7.794V8.729C8.495,8.987 8.704,9.196 8.962,9.196H10.831C11.089,9.196 11.299,8.987 11.299,8.729V7.794C11.299,7.536 11.089,7.327 10.831,7.327H8.962ZM8.495,11.533C8.495,11.275 8.704,11.065 8.962,11.065H10.831C11.089,11.065 11.299,11.275 11.299,11.533V12.467C11.299,12.725 11.089,12.934 10.831,12.934H8.962C8.704,12.934 8.495,12.725 8.495,12.467V11.533ZM13.168,7.327C12.91,7.327 12.7,7.536 12.7,7.794V8.729C12.7,8.987 12.91,9.196 13.168,9.196H15.037C15.295,9.196 15.504,8.987 15.504,8.729V7.794C15.504,7.536 15.295,7.327 15.037,7.327H13.168ZM12.7,11.533C12.7,11.275 12.91,11.065 13.168,11.065H15.037C15.295,11.065 15.504,11.275 15.504,11.533V12.467C15.504,12.725 15.295,12.934 15.037,12.934H13.168C12.91,12.934 12.7,12.725 12.7,12.467V11.533ZM17.373,7.327C17.115,7.327 16.906,7.536 16.906,7.794V8.729C16.906,8.987 17.115,9.196 17.373,9.196H19.243C19.501,9.196 19.71,8.987 19.71,8.729V7.794C19.71,7.536 19.501,7.327 19.243,7.327H17.373ZM16.906,11.533C16.906,11.275 17.115,11.065 17.373,11.065H19.243C19.501,11.065 19.71,11.275 19.71,11.533V12.467C19.71,12.725 19.501,12.934 19.243,12.934H17.373C17.115,12.934 16.906,12.725 16.906,12.467V11.533Z" fill="#000000" fill-opacity="1.0" /></svg>