<?xml version="1.0" encoding="utf-8" ?>
<svg baseProfile="full" height="24.0" version="1.1" viewBox="0 0 960.0 960.0" width="24.0" xmlns="http://www.w3.org/2000/svg" xmlns:ev="http://www.w3.org/2001/xml-events" xmlns:xlink="http://www.w3.org/1999/xlink"><defs /><path d="M320,840L320,760L160,760Q127,760 103.5,736.5Q80,713 80,680L80,200Q80,167 103.5,143.5Q127,120 160,120L800,120Q833,120 856.5,143.5Q880,167 880,200L880,680Q880,713 856.5,736.5Q833,760 800,760L640,760L640,840L320,840ZM160,680L800,680Q800,680 800,680Q800,680 800,680L800,200Q800,200 800,200Q800,200 800,200L160,200Q160,200 160,200Q160,200 160,200L160,680Q160,680 160,680Q160,680 160,680ZM160,680Q160,680 160,680Q160,680 160,680L160,200Q160,200 160,200Q160,200 160,200L160,200Q160,200 160,200Q160,200 160,200L160,680Q160,680 160,680Q160,680 160,680L160,680Z" fill="#000000" fill-opacity="1.0" /></svg>