<?xml version="1.0" encoding="utf-8" ?>
<svg baseProfile="full" height="24.0" version="1.1" viewBox="0 0 960.0 960.0" width="24.0" xmlns="http://www.w3.org/2000/svg" xmlns:ev="http://www.w3.org/2001/xml-events" xmlns:xlink="http://www.w3.org/1999/xlink"><defs /><path d="M666,520L440,294L666,68L892,294L666,520ZM120,440L120,120L440,120L440,440L120,440ZM520,840L520,520L840,520L840,840L520,840ZM120,840L120,520L440,520L440,840L120,840ZM200,360L360,360L360,200L200,200L200,360ZM667,408L780,295L667,182L554,295L667,408ZM600,760L760,760L760,600L600,600L600,760ZM200,760L360,760L360,600L200,600L200,760ZM360,360L360,360L360,360L360,360L360,360ZM554,295L554,295L554,295L554,295L554,295ZM360,600L360,600L360,600L360,600L360,600ZM600,600L600,600L600,600L600,600L600,600Z" fill="#000000" fill-opacity="1.0" /></svg>