<?xml version="1.0" encoding="utf-8" ?>
<svg baseProfile="full" height="12.0" version="1.1" viewBox="0 0 62.0 12.0" width="62.0" xmlns="http://www.w3.org/2000/svg" xmlns:ev="http://www.w3.org/2001/xml-events" xmlns:xlink="http://www.w3.org/1999/xlink"><defs /><path d="M37.84 8.01c-0.5 1.02-1.21 1.84-2.13 2.46-0.9 0.62-1.94 0.93-3.1 0.93-0.84 0-1.57-0.17-2.18-0.51-0.62-0.34-1.1-0.83-1.42-1.46-0.33-0.63-0.5-1.36-0.5-2.2 0-1.14 0.26-2.22 0.76-3.24s1.2-1.84 2.12-2.46c0.9-0.62 1.95-0.93 3.12-0.93 0.83 0 1.55 0.17 2.17 0.51 0.61 0.34 1.09 0.83 1.42 1.46 0.33 0.63 0.5 1.36 0.5 2.2 0 1.14-0.25 2.22-0.76 3.24Zm-6.42 0.8c0.37 0.46 0.88 0.7 1.52 0.7 0.68 0 1.27-0.24 1.78-0.7 0.5-0.46 0.88-1.04 1.14-1.73 0.25-0.7 0.38-1.38 0.38-2.04 0-0.78-0.18-1.4-0.55-1.86-0.37-0.45-0.88-0.68-1.52-0.68-0.68 0-1.27 0.23-1.77 0.69-0.5 0.46-0.88 1.04-1.14 1.73-0.26 0.7-0.4 1.38-0.4 2.04 0 0.78 0.2 1.4 0.56 1.86Z" fill="#ffffff" fill-opacity="1.0" /><path d="M48.2 8.01c-0.5 1.02-1.22 1.84-2.13 2.46-0.91 0.62-1.95 0.93-3.1 0.93-0.84 0-1.57-0.17-2.19-0.51-0.61-0.34-1.09-0.83-1.42-1.46-0.33-0.63-0.49-1.36-0.49-2.2 0-1.14 0.25-2.22 0.75-3.24s1.21-1.84 2.12-2.46c0.92-0.62 1.96-0.93 3.12-0.93 0.83 0 1.56 0.17 2.17 0.51 0.62 0.34 1.1 0.83 1.43 1.46 0.33 0.63 0.5 1.36 0.5 2.2 0 1.14-0.26 2.22-0.76 3.24Zm-6.42 0.8c0.37 0.46 0.88 0.7 1.52 0.7 0.68 0 1.27-0.24 1.77-0.7 0.5-0.46 0.88-1.04 1.14-1.73 0.26-0.7 0.4-1.38 0.4-2.04 0-0.78-0.2-1.4-0.56-1.86-0.37-0.45-0.88-0.68-1.52-0.68-0.68 0-1.27 0.23-1.78 0.69-0.5 0.46-0.88 1.04-1.14 1.73-0.25 0.7-0.38 1.38-0.38 2.04 0 0.78 0.18 1.4 0.55 1.86Z" fill="#ffffff" fill-opacity="1.0" /><path d="M26.9 0.8l-1.47 3.5L27.21 4l-4.67 6.23 1.45-4.61-1.72 0.33 1.38-5.14h-3.24l1.55 10.43h2.96l5.22-10.43H26.9Z" fill="#ffffff" fill-opacity="1.0" /><path d="M53.1 3.19c0.5-0.46 1.1-0.7 1.79-0.7 0.52 0 0.94 0.14 1.24 0.4 0.3 0.28 0.49 0.67 0.54 1.2h2.3c-0.07-1.13-0.57-2.27-1.28-2.81-0.6-0.46-1.41-0.68-2.42-0.68-1.18 0-2.22 0.3-3.14 0.92-0.93 0.62-1.64 1.44-2.15 2.45-0.5 1.02-0.76 2.1-0.76 3.24 0 0.85 0.16 1.58 0.5 2.22 0.33 0.63 0.8 1.12 1.44 1.46 0.63 0.34 1.36 0.51 2.21 0.51 1.01 0 1.93-0.18 2.66-0.68 1.81-1.22 2.23-2.8 2.23-2.8h-2.25c-0.52 1.06-1.3 1.58-2.36 1.58-0.64 0-1.15-0.23-1.52-0.68-0.37-0.46-0.56-1.08-0.56-1.87 0-0.67 0.13-1.35 0.39-2.04s0.64-1.26 1.14-1.72Z" fill="#ffffff" fill-opacity="1.0" /><path d="M7 7.97H2.76l-1.7 3.25H0L5.61 0.81h1.05L8.6 11.22H7.56L7 7.97ZM6.86 7.1L5.97 1.83 3.21 7.1h3.65Z" fill="#ffffff" fill-opacity="1.0" /><path d="M12.05 0.81l-1.83 10.41H9.23l1.84-10.41h0.98Z" fill="#ffffff" fill-opacity="1.0" /><path d="M19.19 4.85c-0.27 0.54-0.65 0.98-1.14 1.3C17.56 6.5 17 6.69 16.37 6.73l2.54 4.5h-1.2l-2.43-4.49h-1.89l-0.78 4.5h-0.99L13.46 0.8h3.72c0.77 0 1.36 0.2 1.78 0.61 0.42 0.42 0.63 0.97 0.63 1.68 0 0.63-0.14 1.22-0.4 1.75Zm-5.65 1.03h2.62c0.5 0 0.93-0.12 1.3-0.36 0.36-0.23 0.63-0.55 0.83-0.96 0.19-0.4 0.29-0.84 0.29-1.33 0-0.5-0.15-0.88-0.43-1.16-0.28-0.27-0.7-0.41-1.25-0.41h-2.6l-0.76 4.22Z" fill="#ffffff" fill-opacity="1.0" /><path d="M59.8 9.63h-0.48v1.6h-0.23v-1.6H58.6v-0.2h1.2v0.2Z" fill="#ffffff" fill-opacity="1.0" /><path d="M61.83 11.23H61.6V9.76l-0.55 1.47h-0.23l-0.55-1.46v1.46h-0.2v-1.8h0.3l0.57 1.54 0.57-1.54h0.32v1.8Z" fill="#ffffff" fill-opacity="1.0" /></svg>