<?xml version="1.0" encoding="utf-8" ?>
<svg baseProfile="full" height="24.0" version="1.1" viewBox="0 0 24.0 24.0" width="24.0" xmlns="http://www.w3.org/2000/svg" xmlns:ev="http://www.w3.org/2001/xml-events" xmlns:xlink="http://www.w3.org/1999/xlink"><defs /><path d="M4 6 C4,6 4,-2.31 4,-2.31 C4,-2.31 4,-6 4,-6 C4,-6 -8,-6 -8,-6 C-8,-6 -8,6 -8,6 C-8,6 4,6 4,6c M6 -6 C6,-6 6,-1.52 6,-1.52 C6,-1.52 10,-5.5 10,-5.5 C10,-5.5 10,5.5 10,5.5 C10,5.5 6,1.52 6,1.52 C6,1.52 6,6 6,6 C6,6.53 5.79,7.04 5.41,7.41 C5.04,7.79 4.53,8 4,8 C4,8 -8,8 -8,8 C-8.53,8 -9.04,7.79 -9.41,7.41 C-9.79,7.04 -10,6.53 -10,6 C-10,6 -10,-6 -10,-6 C-10,-6.53 -9.79,-7.04 -9.41,-7.41 C-9.04,-7.79 -8.53,-8 -8,-8 C-8,-8 4,-8 4,-8 C4.53,-8 5.04,-7.79 5.41,-7.41 C5.79,-7.04 6,-6.53 6,-6c" fill="#000000" fill-opacity="1.0" /><path d="M6 -6 C6,-6 6,-1.52 6,-1.52 C6,-1.52 10,-5.5 10,-5.5 C10,-5.5 10,5.5 10,5.5 C10,5.5 6,1.52 6,1.52 C6,1.52 6,6 6,6 C6,6.53 5.79,7.04 5.41,7.41 C5.04,7.79 4.53,8 4,8 C4,8 -8,8 -8,8 C-8.53,8 -9.04,7.79 -9.41,7.41 C-9.79,7.04 -10,6.53 -10,6 C-10,6 -10,-6 -10,-6 C-10,-6.53 -9.79,-7.04 -9.41,-7.41 C-9.04,-7.79 -8.53,-8 -8,-8 C-8,-8 4,-8 4,-8 C4.53,-8 5.04,-7.79 5.41,-7.41 C5.79,-7.04 6,-6.53 6,-6c" fill="#000000" fill-opacity="1.0" /></svg>