<?xml version="1.0" encoding="utf-8" ?>
<svg baseProfile="full" height="48.0" version="1.1" viewBox="0 0 48.0 48.0" width="48.0" xmlns="http://www.w3.org/2000/svg" xmlns:ev="http://www.w3.org/2001/xml-events" xmlns:xlink="http://www.w3.org/1999/xlink"><defs /><path d="M19.68 16.76c0.25-0.86 1.03-1.46 1.93-1.46h4.78c0.9 0 1.68 0.6 1.93 1.46l0.33 1.18c0.06 0.21 0.25 0.36 0.48 0.36h3.57c1.1 0 2 0.9 2 2v10.4c0 1.1-0.9 2-2 2H15.3c-1.1 0-2-0.9-2-2V20.3c0-1.1 0.9-2 2-2h3.57c0.23 0 0.42-0.15 0.48-0.36l0.33-1.18ZM20.7 25c0-1.82 1.48-3.3 3.3-3.3 1.82 0 3.3 1.48 3.3 3.3 0 1.82-1.48 3.3-3.3 3.3-1.82 0-3.3-1.48-3.3-3.3Zm3.3-4.7c-2.6 0-4.7 2.1-4.7 4.7s2.1 4.7 4.7 4.7 4.7-2.1 4.7-4.7-2.1-4.7-4.7-4.7Zm-8.92-3.57C15 16.88 15 17.07 15 17.47v0.33h3v-0.33c0-0.4 0-0.6-0.08-0.74-0.06-0.13-0.17-0.24-0.3-0.3-0.15-0.08-0.35-0.08-0.74-0.08h-0.76c-0.4 0-0.59 0-0.74 0.07-0.13 0.07-0.24 0.18-0.3 0.3Z" fill="#ffffff" fill-opacity="1.0" /></svg>