<?xml version="1.0" encoding="utf-8" ?>
<svg baseProfile="full" height="24.0" version="1.1" viewBox="0 0 32.0 24.0" width="32.0" xmlns="http://www.w3.org/2000/svg" xmlns:ev="http://www.w3.org/2001/xml-events" xmlns:xlink="http://www.w3.org/1999/xlink"><defs /><path d="M0 12c0-4.97 4.03-9 9-9h14c4.97 0 9 4.03 9 9v0c0 4.97-4.03 9-9 9h-14c-4.97 0-9-4.03-9-9z" fill="#ec3e50" fill-opacity="1.0" /><path d="M16 6.4c-1.3 0-2.35 1.05-2.35 2.35v3c0 1.3 1.05 2.35 2.35 2.35s2.35-1.05 2.35-2.35v-3c0-1.3-1.05-2.35-2.35-2.35Zm0 8.5c1.74 0 3.15-1.41 3.15-3.15 0-0.2 0.16-0.35 0.35-0.35 0.2 0 0.35 0.16 0.35 0.35 0 2-1.54 3.66-3.5 3.83v1.32h1.15c0.2 0 0.35 0.16 0.35 0.35 0 0.2-0.16 0.35-0.35 0.35H16h-1.5c-0.2 0-0.35-0.16-0.35-0.35 0-0.2 0.16-0.35 0.35-0.35h1.15v-1.32c-1.96-0.17-3.5-1.82-3.5-3.83 0-0.2 0.16-0.35 0.35-0.35 0.2 0 0.35 0.16 0.35 0.35 0 1.74 1.41 3.15 3.15 3.15Z" fill="#ffffff" fill-opacity="1.0" /></svg>