<?xml version="1.0" encoding="utf-8" ?>
<svg baseProfile="full" height="24.0" version="1.1" viewBox="0 0 24.0 24.0" width="24.0" xmlns="http://www.w3.org/2000/svg" xmlns:ev="http://www.w3.org/2001/xml-events" xmlns:xlink="http://www.w3.org/1999/xlink"><defs /><path d="M6.356,19.664V21.829C6.356,22.571 6.957,23.173 7.7,23.173H16.301C17.044,23.173 17.645,22.571 17.645,21.829V19.663C16,20.666 14.067,21.245 11.999,21.245C9.932,21.245 8,20.667 6.356,19.664Z" fill="#000000" fill-opacity="1.0" /><path d="M3.04,10.388a8.96,8.96 0,1 0,17.92 0a8.96,8.96 0,1 0,-17.92 0z" fill="#000000" fill-opacity="0.0" /><path d="M12.003,14.215C14.168,14.215 15.923,12.46 15.923,10.295C15.923,8.13 14.168,6.375 12.003,6.375C9.838,6.375 8.083,8.13 8.083,10.295C8.083,12.46 9.838,14.215 12.003,14.215ZM13.49,9.749C14.01,9.749 14.431,9.328 14.431,8.808C14.431,8.289 14.01,7.867 13.49,7.867C12.971,7.867 12.55,8.289 12.55,8.808C12.55,9.328 12.971,9.749 13.49,9.749Z" fill="#000000" fill-opacity="1.0" /><path d="M12.003,17.014C15.715,17.014 18.723,14.006 18.723,10.294C18.723,6.583 15.715,3.574 12.003,3.574C8.292,3.574 5.283,6.583 5.283,10.294C5.283,14.006 8.292,17.014 12.003,17.014ZM13.491,9.748C14.011,9.748 14.432,9.327 14.432,8.807C14.432,8.287 14.011,7.866 13.491,7.866C12.972,7.866 12.55,8.287 12.55,8.807C12.55,9.327 12.972,9.748 13.491,9.748Z" fill="#000000" fill-opacity="1.0" /></svg>