<?xml version="1.0" encoding="utf-8" ?>
<svg baseProfile="full" height="16.0" version="1.1" viewBox="0 0 12.0 12.0" width="16.0" xmlns="http://www.w3.org/2000/svg" xmlns:ev="http://www.w3.org/2001/xml-events" xmlns:xlink="http://www.w3.org/1999/xlink"><defs /><path d="M6 1.15c-1.24 0-2.25 1-2.25 2.25v2.1c0 1.24 1 2.25 2.25 2.25 1.24 0 2.25-1 2.25-2.25V3.4c0-1.24-1-2.25-2.25-2.25ZM5.6 9.33v0.77H4.29h-0.4v0.8h0.4H7.7h0.4v-0.8h-0.4H6.4V9.33c1.94-0.2 3.45-1.84 3.45-3.83h-0.8c0 1.68-1.37 3.05-3.05 3.05-1.68 0-3.05-1.37-3.05-3.05h-0.8c0 2 1.51 3.63 3.45 3.83Z" fill="#ffffff" fill-opacity="1.0" /></svg>