<?xml version="1.0" encoding="utf-8" ?>
<svg baseProfile="full" height="24" version="1.1" viewBox="0 0 8.0 8.0" width="24" xmlns="http://www.w3.org/2000/svg" xmlns:ev="http://www.w3.org/2001/xml-events" xmlns:xlink="http://www.w3.org/1999/xlink"><defs /><path d="M4.2664,6.4911V7.4767H5.1262C5.2707,7.4767 5.3879,7.5939 5.3879,7.7385C5.3879,7.8831 5.2707,8.0002 5.1262,8.0002H2.8832C2.7387,8.0002 2.6215,7.8831 2.6215,7.7385C2.6215,7.5939 2.7387,7.4767 2.8832,7.4767H3.7429V6.4911C2.4845,6.3597 1.5,5.2929 1.5,4.0002C1.5,3.8557 1.6172,3.7385 1.7617,3.7385C1.9063,3.7385 2.0235,3.8557 2.0235,4.0002C2.0235,5.0929 2.9123,5.9814 4.0047,5.9814C5.0971,5.9814 5.9859,5.0929 5.9859,4.0002C5.9859,3.8557 6.1031,3.7385 6.2477,3.7385C6.3922,3.7385 6.5094,3.8557 6.5094,4.0002C6.5094,5.2929 5.5249,6.3597 4.2664,6.4911ZM4.0047,5.3835C4.7673,5.3835 5.3879,4.7629 5.3879,4.0002V1.3835C5.3879,0.6209 4.7673,0.0002 4.0047,0.0002C3.2421,0.0002 2.6215,0.6209 2.6215,1.3835V4.0002C2.6215,4.7629 3.2421,5.3835 4.0047,5.3835Z" fill="#ffffff" fill-opacity="1.0" /></svg>