<?xml version="1.0" encoding="utf-8" ?>
<svg baseProfile="full" height="24" version="1.1" viewBox="0 0 8.0 8.0" width="24" xmlns="http://www.w3.org/2000/svg" xmlns:ev="http://www.w3.org/2001/xml-events" xmlns:xlink="http://www.w3.org/1999/xlink"><defs /><path d="M2.3865,1.2928C2.4772,0.9703 2.7713,0.7476 3.1062,0.7476H4.8933C5.2282,0.7476 5.5223,0.9703 5.613,1.2928L5.7368,1.7327C5.7594,1.8134 5.833,1.8691 5.9167,1.8691H7.2521C7.665,1.8691 7.9998,2.2038 7.9998,2.6167V6.5046C7.9998,6.9175 7.665,7.2522 7.2521,7.2522H0.7474C0.3345,7.2522 -0.0002,6.9175 -0.0002,6.5046V2.6167C-0.0002,2.2038 0.3345,1.8691 0.7474,1.8691H2.0828C2.1665,1.8691 2.2401,1.8134 2.2627,1.7327L2.3865,1.2928ZM2.7665,4.3738C2.7665,3.6924 3.3188,3.1401 4.0001,3.1401C4.6814,3.1401 5.2338,3.6924 5.2338,4.3738C5.2338,5.0551 4.6814,5.6074 4.0001,5.6074C3.3188,5.6074 2.7665,5.0551 2.7665,4.3738ZM4.0001,2.6168C3.0298,2.6168 2.2431,3.4034 2.2431,4.3738C2.2431,5.3441 3.0298,6.1308 4.0001,6.1308C4.9705,6.1308 5.7571,5.3441 5.7571,4.3738C5.7571,3.4034 4.9705,2.6168 4.0001,2.6168ZM0.6643,1.2814C0.6357,1.3373 0.6357,1.4106 0.6357,1.5572V1.6816H1.7572V1.5572C1.7572,1.4106 1.7572,1.3373 1.7287,1.2814C1.7036,1.2321 1.6636,1.1921 1.6143,1.167C1.5584,1.1385 1.4851,1.1385 1.3385,1.1385H1.0544C0.9079,1.1385 0.8346,1.1385 0.7786,1.167C0.7294,1.1921 0.6893,1.2321 0.6643,1.2814Z" fill="#ffffff" fill-opacity="1.0" /></svg>