<?xml version="1.0" encoding="utf-8" ?>
<svg baseProfile="full" height="42.0" version="1.1" viewBox="0 0 42.0 42.0" width="42.0" xmlns="http://www.w3.org/2000/svg" xmlns:ev="http://www.w3.org/2001/xml-events" xmlns:xlink="http://www.w3.org/1999/xlink"><defs /><path d="M21,21m-21,0a21,21 0,1 1,42 0a21,21 0,1 1,-42 0" fill="#262626" fill-opacity="1.0" /><path d="M21,21m-21,0a21,21 0,1 1,42 0a21,21 0,1 1,-42 0" fill="#525252" fill-opacity="1.0" /><path d="M24.903,19.767C25.261,19.409 25.21,18.635 24.289,17.715C23.69,17.115 23.211,16.942 22.916,16.903C22.632,16.862 22.397,16.932 22.233,17.097L15.41,23.875C15.314,23.971 15.241,24.088 15.196,24.216L14.018,27.587C13.932,27.832 14.168,28.068 14.413,27.982L17.786,26.803C17.914,26.759 18.03,26.686 18.125,26.59L24.903,19.767ZM27.267,14.736C26.327,13.797 25.422,13.862 24.942,14.343L23.667,15.618C24.197,15.799 24.755,16.132 25.313,16.69C25.87,17.247 26.203,17.804 26.383,18.332L27.656,17.058C28.137,16.577 28.203,15.673 27.267,14.736Z" fill="#ffffff" fill-opacity="0.8980392156862745" /></svg>