<?xml version="1.0" encoding="utf-8" ?>
<svg baseProfile="full" height="24.0" version="1.1" viewBox="0 0 24.0 24.0" width="24.0" xmlns="http://www.w3.org/2000/svg" xmlns:ev="http://www.w3.org/2001/xml-events" xmlns:xlink="http://www.w3.org/1999/xlink"><defs /><path d="M3.4,3.5C2.075,3.5 1,4.575 1,5.9V9V9.5C1,9.776 1.224,10 1.5,10H2.5C2.776,10 3,9.776 3,9.5V9V5.9C3,5.679 3.179,5.5 3.4,5.5H6.5H7C7.276,5.5 7.5,5.276 7.5,5V4C7.5,3.724 7.276,3.5 7,3.5H6.5H3.4ZM20.6,20.5C21.926,20.5 23,19.426 23,18.1V15V14.5C23,14.224 22.776,14 22.5,14H21.5C21.224,14 21,14.224 21,14.5V15V18.1C21,18.321 20.821,18.5 20.6,18.5H17.5L17,18.5C16.724,18.5 16.5,18.724 16.5,19V20C16.5,20.276 16.724,20.5 17,20.5H17.5H20.6ZM3.4,20.5C2.075,20.5 1,19.426 1,18.1V15V14.5C1,14.224 1.224,14 1.5,14H2.5C2.776,14 3,14.224 3,14.5V15L3,18.1C3,18.321 3.179,18.5 3.4,18.5H6.5H7C7.276,18.5 7.5,18.724 7.5,19V20C7.5,20.276 7.276,20.5 7,20.5H6.5H3.4ZM23,5.9C23,4.575 21.926,3.5 20.6,3.5H17.5H17C16.724,3.5 16.5,3.724 16.5,4V5C16.5,5.276 16.724,5.5 17,5.5H17.5L20.6,5.5C20.821,5.5 21,5.679 21,5.9V9V9.5C21,9.776 21.224,10 21.5,10H22.5C22.776,10 23,9.776 23,9.5V9V5.9Z" fill="#000000" fill-opacity="1.0" /><path d="M12,12m-3,0a3,3 0,1 1,6 0a3,3 0,1 1,-6 0" fill="#000000" fill-opacity="1.0" /></svg>