<?xml version="1.0" encoding="utf-8" ?>
<svg baseProfile="full" height="24.0" version="1.1" viewBox="0 0 24.0 24.0" width="24.0" xmlns="http://www.w3.org/2000/svg" xmlns:ev="http://www.w3.org/2001/xml-events" xmlns:xlink="http://www.w3.org/1999/xlink"><defs /><path d="M12,13.75C12.967,13.75 13.75,12.967 13.75,12C13.75,11.033 12.967,10.25 12,10.25C11.033,10.25 10.25,11.033 10.25,12C10.25,12.967 11.033,13.75 12,13.75Z" fill="#000000" fill-opacity="1.0" /><path d="M12,6.625C12.967,6.625 13.75,5.841 13.75,4.875C13.75,3.908 12.967,3.125 12,3.125C11.033,3.125 10.25,3.908 10.25,4.875C10.25,5.841 11.033,6.625 12,6.625Z" fill="#000000" fill-opacity="1.0" /><path d="M12,20.875C12.967,20.875 13.75,20.091 13.75,19.125C13.75,18.159 12.967,17.375 12,17.375C11.033,17.375 10.25,18.159 10.25,19.125C10.25,20.091 11.033,20.875 12,20.875Z" fill="#000000" fill-opacity="1.0" /></svg>