<?xml version="1.0" encoding="utf-8" ?>
<svg baseProfile="full" height="24.0" version="1.1" viewBox="0 0 24.0 24.0" width="24.0" xmlns="http://www.w3.org/2000/svg" xmlns:ev="http://www.w3.org/2001/xml-events" xmlns:xlink="http://www.w3.org/1999/xlink"><defs /><path d="M3.98,5.3H3.953H3.953H3.953C3.612,5.3 3.315,5.3 3.069,5.32C2.809,5.341 2.546,5.388 2.292,5.518C1.916,5.71 1.61,6.016 1.418,6.392C1.288,6.646 1.241,6.909 1.22,7.169C1.2,7.415 1.2,7.712 1.2,8.053V8.053V8.053V8.08V15.92V15.946V15.946V15.946C1.2,16.288 1.2,16.585 1.22,16.831C1.241,17.091 1.288,17.354 1.418,17.608C1.61,17.984 1.916,18.29 2.292,18.482C2.546,18.611 2.809,18.659 3.069,18.68C3.315,18.7 3.612,18.7 3.953,18.7H3.953H3.98H15.82H15.847H15.847C16.188,18.7 16.485,18.7 16.731,18.68C16.991,18.659 17.254,18.611 17.508,18.482C17.884,18.29 18.19,17.984 18.382,17.608C18.511,17.354 18.559,17.091 18.58,16.831C18.6,16.585 18.6,16.288 18.6,15.946V15.92V8.08V8.053C18.6,7.712 18.6,7.415 18.58,7.169C18.559,6.909 18.511,6.646 18.382,6.392C18.19,6.016 17.884,5.71 17.508,5.518C17.254,5.388 16.991,5.341 16.731,5.32C16.485,5.3 16.188,5.3 15.847,5.3H15.847H15.847H15.82H3.98ZM19.899,16.075L21.528,17.093C21.64,17.163 21.768,17.2 21.899,17.2H22.899C23.286,17.2 23.599,16.886 23.599,16.5V7.5C23.599,7.113 23.286,6.8 22.899,6.8H21.899C21.768,6.8 21.64,6.837 21.528,6.906L19.899,7.924V16.075ZM9.9,14.5C11.28,14.5 12.399,13.381 12.399,12C12.399,10.619 11.28,9.5 9.9,9.5C8.519,9.5 7.4,10.619 7.4,12C7.4,13.381 8.519,14.5 9.9,14.5Z" fill="#000000" fill-opacity="1.0" /></svg>